<svg width="1189" height="675" viewBox="0 0 1189 675" fill="none" xmlns="http://www.w3.org/2000/svg">
<path d="M560.753 547.451L584.078 542.173L577.961 382.384L519.286 390.61L560.753 547.451Z" fill="#EEDFA8"/>
<path d="M584.078 542.173C584.078 542.173 598.295 541.986 607.404 539.925C620.189 494.316 634.535 442.993 649.156 390.61L577.961 382.384L584.078 542.173Z" fill="#EEDFA8"/>
<path d="M607.404 539.925C612.174 544.047 619.62 547.451 619.62 547.451L705.992 421.769L649.156 390.61C634.535 442.993 620.189 494.316 607.404 539.925Z" fill="#EEDFA8"/>
<path d="M619.62 547.451L643.316 567.925L749.706 464.184L705.992 421.769L619.62 547.451Z" fill="#EEDFA8"/>
<path d="M643.316 567.925L655.165 578.163L786.231 505.346L749.706 464.184L643.316 567.925Z" fill="#EEDFA8"/>
<path d="M655.165 578.163L667.013 588.4L799.19 559.189L786.231 505.346L655.165 578.163Z" fill="#EEDFA8"/>
<path d="M483.023 415.71L560.753 547.451L519.286 390.61L483.023 415.71Z" fill="#EEDFA8"/>
<path d="M527.061 555.074L560.753 547.451L483.023 415.71L433.246 464.184L527.061 555.074Z" fill="#EEDFA8"/>
<path d="M511.025 582.341L527.061 555.074L433.246 464.184L389.701 511.355L511.025 582.341Z" fill="#EEDFA8"/>
<path d="M498.552 603.548L511.025 582.341L389.701 511.355L362.485 567.925L498.552 603.548Z" fill="#EEDFA8"/>
<path d="M664.421 652.022C679.971 636.874 667.013 588.4 667.013 588.4L655.165 578.163L643.316 567.925L619.62 547.451C619.62 547.451 612.174 544.047 607.404 539.925C598.295 541.986 584.078 542.173 584.078 542.173L560.753 547.451L527.061 555.074L511.025 582.341L498.552 603.548C498.552 603.548 511.025 631.183 524.469 648.993C545.203 664.141 569.719 676.062 591.854 673.23C625.298 668.951 630.729 670.2 664.421 652.022Z" fill="#F8780F"/>
<path d="M39.8209 306.643V397.532L0.945312 473.273L362.485 567.925L389.701 511.355L39.8209 306.643Z" fill="white"/>
<path d="M148.672 188.486L107.205 249.079L39.8209 306.643L389.701 511.355L433.246 464.184L148.672 188.486Z" fill="white"/>
<path d="M275.666 64.271L213.465 130.923L148.672 188.486L433.246 464.184L483.023 415.71L275.666 64.271Z" fill="white"/>
<path d="M423.393 27.9153L353.417 64.271H275.666L483.023 415.71L519.286 390.61L423.393 27.9153Z" fill="white"/>
<path d="M563.345 0.648438L498.552 27.9153H423.393L519.286 390.61L577.961 382.384L563.345 0.648438Z" fill="white"/>
<path d="M757.723 0.648438H667.013H563.345L577.961 382.384L649.156 390.61C701.668 202.473 757.723 0.648438 757.723 0.648438Z" fill="white"/>
<path d="M900.266 64.271L819.923 49.1228L757.723 0.648438C757.723 0.648438 701.668 202.473 649.156 390.61L705.992 421.769L928.775 97.5971L900.266 64.271Z" fill="white"/>
<path d="M1032.44 188.486L957.284 130.923L928.775 97.5971L705.992 421.769L749.706 464.184L1032.44 188.486Z" fill="white"/>
<path d="M1143.89 306.643L1073.91 249.079L1032.44 188.486L749.706 464.184L786.231 505.346L1143.89 306.643Z" fill="white"/>
<path d="M1187.95 473.273L1172.4 424.799L1143.89 306.643L786.231 505.346L799.19 559.189L1187.95 473.273Z" fill="white"/>
<path d="M0.945312 473.273L39.8209 397.532V306.643M0.945312 473.273C0.945312 473.273 188.038 522.255 362.485 567.925M0.945312 473.273L362.485 567.925M498.552 603.548C509.686 627.211 506.327 627.785 524.469 648.993M498.552 603.548C503.423 595.266 511.025 582.341 511.025 582.341M498.552 603.548C456.855 592.632 410.142 580.402 362.485 567.925M498.552 603.548L362.485 567.925M498.552 603.548L511.025 582.341M498.552 603.548C498.552 603.548 511.025 631.183 524.469 648.993M527.061 555.074C520.799 565.722 511.025 582.341 511.025 582.341M527.061 555.074C540.219 552.097 560.753 547.451 560.753 547.451M527.061 555.074C498.175 527.088 466.122 496.036 433.246 464.184M527.061 555.074L560.753 547.451M527.061 555.074L433.246 464.184M527.061 555.074L511.025 582.341M607.404 539.925C598.295 541.986 584.078 542.173 584.078 542.173M607.404 539.925C612.174 544.047 619.62 547.451 619.62 547.451M607.404 539.925C620.189 494.316 634.535 442.993 649.156 390.61M667.013 588.4C674.788 606.578 679.971 633.844 664.421 652.022M667.013 588.4C662.386 584.402 655.165 578.163 655.165 578.163M667.013 588.4C707.665 579.416 752.872 569.425 799.19 559.189M667.013 588.4L655.165 578.163M667.013 588.4L799.19 559.189M667.013 588.4C667.013 588.4 679.971 636.874 664.421 652.022M664.421 652.022C630.729 670.2 625.298 668.951 591.854 673.23C569.719 676.062 545.203 664.141 524.469 648.993M1187.95 473.273L1172.4 424.799L1143.89 306.643M1187.95 473.273C1187.95 473.273 984.661 518.199 799.19 559.189M1187.95 473.273L799.19 559.189M1143.89 306.643L1073.91 249.079L1032.44 188.486M1143.89 306.643L786.231 505.346M1032.44 188.486L957.284 130.923L928.775 97.5971M1032.44 188.486L749.706 464.184M757.723 0.648438L819.923 49.1228L900.266 64.271L928.775 97.5971M757.723 0.648438H667.013H563.345M757.723 0.648438C757.723 0.648438 701.668 202.473 649.156 390.61M563.345 0.648438L498.552 27.9153H423.393M563.345 0.648438L577.961 382.384M423.393 27.9153L353.417 64.271H275.666M423.393 27.9153L519.286 390.61M275.666 64.271L213.465 130.923L148.672 188.486M275.666 64.271L483.023 415.71M148.672 188.486L107.205 249.079L39.8209 306.643M148.672 188.486C148.672 188.486 297.94 333.099 433.246 464.184M148.672 188.486L433.246 464.184M39.8209 306.643L389.701 511.355M511.025 582.341L389.701 511.355M560.753 547.451L584.078 542.173M560.753 547.451L483.023 415.71M560.753 547.451L519.286 390.61M584.078 542.173L577.961 382.384M928.775 97.5971L705.992 421.769M619.62 547.451L643.316 567.925M619.62 547.451L705.992 421.769M643.316 567.925L655.165 578.163M643.316 567.925L749.706 464.184M655.165 578.163L786.231 505.346M362.485 567.925L389.701 511.355M389.701 511.355L433.246 464.184M433.246 464.184L483.023 415.71M483.023 415.71L519.286 390.61M519.286 390.61L577.961 382.384M577.961 382.384L649.156 390.61M649.156 390.61L705.992 421.769M705.992 421.769L749.706 464.184M749.706 464.184L786.231 505.346M786.231 505.346L799.19 559.189" stroke="#EE941F" stroke-width="1.3"/>
</svg>
