<svg width="217" height="186" viewBox="0 0 217 186" fill="none" xmlns="http://www.w3.org/2000/svg">
<path fill-rule="evenodd" clip-rule="evenodd" d="M122.979 0.340898C106.278 1.83435 89.7989 7.17965 77.4947 15.0964C71.153 19.176 62.9277 27.7888 59.9866 33.4273C56.1312 40.8191 55.164 44.9541 54.9867 54.8005C54.9011 59.576 54.6308 64.7671 54.3854 66.3367C53.7646 70.3174 54.4342 73.1273 56.8863 76.8235L58.9953 80.0028L54.9405 83.7658C51.7312 86.744 47.9473 91.0761 45.5688 94.4958C45.1133 95.1504 40.3327 89.8959 37.6217 85.7615C34.2586 80.6313 32.7128 79.8425 26.058 79.8572C20.3404 79.8699 14.3625 81.3052 8.37732 84.1011C2.26704 86.9564 -0.272055 89.5466 0.0229239 92.6244C0.215563 94.6361 0.664391 95.0883 4.25163 96.8789C9.2228 99.3609 13.9873 104.095 16.1725 108.724C17.0862 110.659 18.913 116.449 20.2327 121.592C21.6795 127.229 23.7149 133.139 25.3577 136.474C30.0901 146.079 37.7909 152.881 45.5821 154.338C47.3373 154.666 48.6356 155.492 49.8048 157.022C52.1031 160.031 57.8321 164.348 63.4254 167.288C66.4601 168.882 68.735 170.649 70.0012 172.394C74.2988 178.318 88.9447 183.555 106.257 185.36C114.425 186.211 137.513 186.214 145.721 185.365C165.9 183.277 180.237 177.845 185.04 170.47C186.04 168.934 187.119 167.565 187.438 167.429C187.757 167.292 190.66 165.415 193.89 163.258C214.243 149.665 221.846 128.064 213.916 106.368C210.381 96.6966 202.775 86.4415 194.289 79.904L190.579 77.046L192.894 74.8652C196.881 71.1116 198.207 65.9245 196.315 61.4936C195.626 59.8799 195.63 58.8066 196.335 55.8164C200.922 36.3634 188.896 16.2098 166.908 6.49705C155.769 1.57654 137.614 -0.967543 122.979 0.340898ZM118.631 3.08468C107.146 4.66162 92.3627 9.28825 84.2264 13.8521C66.9203 23.5589 57.8422 36.473 57.7887 51.4609C57.7773 54.7671 57.996 58.5468 58.2749 59.8599C58.7438 62.066 58.9619 62.243 61.1485 62.1976L63.515 62.1475L63.1097 58.14C62.1117 48.2676 66.3337 36.5471 73.6426 28.9002C77.5201 24.8439 77.5409 24.8326 74.5082 28.4179C70.7423 32.8709 67.2032 40.0289 66.0875 45.4497C65.2467 49.538 64.9685 60.8825 65.6916 61.6052C66.8755 62.7867 67.9631 60.0302 68.323 54.9387C68.9758 45.7008 72.6286 37.9811 79.6773 30.9433C87.1514 23.4794 98.9486 17.1983 111.768 13.8568C118.164 12.1897 119.564 12.0701 132.343 12.1028C145.027 12.1356 146.551 12.2718 152.659 13.9149C162.832 16.6527 169.69 20.2761 175.463 25.9633C178.224 28.6838 181.111 32.3058 182.139 34.3416C184.64 39.2909 185.928 45.8251 185.417 50.96C185.059 54.5507 185.154 55.1344 186.097 55.1344C186.922 55.1344 187.22 54.4338 187.306 52.2958C187.88 37.9237 182.101 27.5984 168.345 18.4266C163.18 14.9829 164.041 14.9321 169.762 18.3425C183.266 26.3935 190.758 39.0678 189.601 51.9084C189.281 55.4544 189.438 56.7822 190.369 58.4159C191.014 59.5453 191.736 60.471 191.976 60.4737C194.155 60.4944 195.27 44.9915 193.561 38.4366C189.177 21.6192 174.222 9.40981 151.741 4.29561C145.038 2.77076 125.994 2.07413 118.631 3.08468ZM122.645 14.2134C114.662 15.0029 103.625 18.3218 95.8804 22.2604C81.7167 29.4632 71.7764 41.7568 70.9651 53.0712C70.6326 57.7186 70.6594 57.8161 72.9938 60.3962L75.3596 63.0111L77.5977 60.6874C81.888 56.2318 95.7507 50.7716 107.762 48.8053C110.197 48.4065 110.27 48.313 110.273 45.5866C110.278 39.4091 115.401 35.6387 124.374 35.2086C128.503 35.0109 130.092 35.242 132.907 36.4516C137.765 38.5381 140.37 41.668 140.37 45.4196C140.37 48.6256 140.123 48.4667 146.725 49.4939C155.484 50.8564 166.567 55.4223 171.924 59.8759L175.051 62.4754L175.815 60.1625C176.595 57.8014 179.909 54.4665 181.475 54.4665C183.473 54.4665 183.728 46.328 181.911 40.5011C177.507 26.3694 163.322 17.0541 142.177 14.4065C136.923 13.7486 128.211 13.6624 122.645 14.2134ZM120.592 37.728C117.661 38.4279 114.521 40.419 113.582 42.1716C111.203 46.6112 116.282 49.9675 125.469 50.0256C128.586 50.0456 130.581 50.28 129.901 50.5472C127.615 51.4455 119.015 51.1657 116.486 50.1104L114.049 49.0938L115.288 50.4597C117.16 52.5256 123.172 54.0384 127.494 53.5314C133.988 52.7687 137.695 49.6963 137.695 45.0743C137.695 42.9757 137.279 42.1996 135.273 40.5479C131.61 37.5329 125.954 36.4469 120.592 37.728ZM104.919 51.7501C97.0142 53.3364 91.9969 54.8987 87.007 57.3285C81.9295 59.8005 79.87 62.0092 80.8826 63.8981C84.4859 70.6213 111.677 75.6627 135.042 73.9395C158.206 72.231 173.966 66.1089 169.03 60.7362C166.067 57.5109 154.838 53.2963 144.258 51.4389L138.83 50.4858L136.089 52.8435C132.116 56.2599 131.883 56.4242 129.976 57.1482C128.018 57.8916 124.134 58.0031 121.128 57.4033C120.018 57.1816 117.288 55.5285 115.062 53.7298C112.835 51.9305 110.922 50.4931 110.809 50.5345C110.697 50.5759 108.046 51.1229 104.919 51.7501ZM121.017 55.2152C123.144 55.8084 127.689 55.8304 129.138 55.2546C129.766 55.0048 127.83 54.7918 124.835 54.7811C121.802 54.7697 120.111 54.9621 121.017 55.2152ZM180.343 58.0866C179.703 58.5588 178.704 60.0823 178.122 61.4716C177.218 63.6336 177.19 64.4204 177.927 66.9137C178.844 70.0168 178.977 70.1384 180.442 69.2127C181.243 68.7064 181.218 68.2683 180.275 66.2832C178.928 63.4499 178.903 63.0906 180.081 63.5421C180.639 63.7558 181.151 63.303 181.392 62.3813C181.875 60.5412 181.33 59.8178 180.477 61.165C180.091 61.7755 179.851 61.8443 179.844 61.346C179.839 60.9052 180.317 60.2747 180.907 59.9447C181.496 59.6154 181.873 58.8694 181.743 58.287C181.545 57.4007 181.317 57.3679 180.343 58.0866ZM183.532 57.7753C183.135 58.4179 183.696 61.5784 184.428 62.8154C184.645 63.1828 185.007 62.5816 185.232 61.4796L185.641 59.4759L186.436 61.4088C187.536 64.0791 186.361 67.3646 183.488 69.6535L181.236 71.4469L183.044 72.6371C185.661 74.3603 186.283 74.1579 188.088 70.9973C190.27 67.1769 190.742 64.7918 189.849 62.0907C188.727 58.6964 184.676 55.9286 183.532 57.7753ZM70.137 62.2317C70.137 62.957 70.4841 63.8968 70.9089 64.3209C71.7771 65.1878 71.8493 69.0537 71.0126 69.8893C70.7122 70.1892 70.5303 69.0203 70.6085 67.2931C70.7343 64.5179 70.6868 64.3984 70.2045 66.2685C69.9049 67.4334 68.9631 69.6876 68.1116 71.2779C65.5076 76.1469 66.3337 83.8547 69.4601 83.8547C71.8032 83.8547 74.2386 82.3686 73.7597 81.2311C71.9443 76.9251 71.9236 76.6639 73.066 72.5983C74.4312 67.7386 74.0179 64.5533 71.7457 62.4214C70.2085 60.9793 70.137 60.9713 70.137 62.2317ZM67.1738 63.6022C66.9303 64.2361 67.1899 65.1678 67.7711 65.7489C68.6962 66.6719 68.7992 66.5597 68.7992 64.6281C68.7992 62.3332 67.8835 61.7554 67.1738 63.6022ZM192.284 65.9974C191.718 67.941 190.193 70.7689 188.896 72.2824C185.559 76.1743 187.479 76.6252 191.213 72.8268C193.616 70.3815 194.119 69.3984 194.386 66.6219C194.83 62.0046 193.556 61.6259 192.284 65.9974ZM76.9596 64.6188C76.5182 65.0596 76.157 66.6566 76.157 68.1674C76.157 71.553 78.1683 73.7037 83.5147 76.0361C104.143 85.0349 147.99 84.936 167.619 75.8464C172.819 73.4379 175.152 71.193 175.152 68.5969C175.152 66.2612 172.62 62.9176 172.003 64.4391C170.263 68.7325 160.517 72.6237 145.771 74.9146C137.09 76.2638 116.815 76.4235 107.26 75.2186C93.6096 73.4967 81.0037 69.0464 79.3188 65.3541C78.5235 63.6109 78.1007 63.4793 76.9596 64.6188ZM182.51 65.4056C182.51 67.2824 183.468 67.7727 184.071 66.2037C184.272 65.6794 184.004 64.8913 183.474 64.4525C182.677 63.7919 182.51 63.9562 182.51 65.4056ZM57.2154 64.9207C56.5245 65.6106 56.6696 70.8424 57.4361 72.8548C58.3699 75.3087 62.7384 80.5151 63.8628 80.5151C65.3625 80.5151 64.927 79.3155 62.7143 77.3479C61.5746 76.3346 60.3264 74.9046 59.9398 74.1699C59.4375 73.2141 59.7672 73.3564 61.0996 74.6709C63.2127 76.7554 63.8167 76.917 64.3458 75.5398C64.5692 74.9587 64.2086 74.411 63.4434 74.1686C61.4869 73.5481 58.7672 69.9354 58.7559 67.9403C58.7438 65.9079 57.8943 64.2421 57.2154 64.9207ZM60.1037 66.0982C60.1037 67.3118 60.8381 68.12 63.0722 69.3676C66.2902 71.163 66.7925 71.0788 66.7925 68.7411C66.7925 66.6873 64.3043 64.4852 61.9839 64.4852C60.4421 64.4852 60.1037 64.7751 60.1037 66.0982ZM174.483 74.2354C168.338 80.3154 148.244 84.6822 126.323 84.7016C104.573 84.7209 85.7481 81.0401 77.4613 75.1478C75.1443 73.5007 74.8145 74.3229 76.9931 76.3159C87.0933 85.5558 128.343 89.4771 155.082 83.7384C164.231 81.7748 172.113 78.7632 174.849 76.187C176.988 74.1733 177.844 72.4447 176.657 72.5402C176.381 72.5629 175.403 73.325 174.483 74.2354ZM176.467 77.1288C174.021 79.6742 172.32 80.6867 167.673 82.3665C150.174 88.689 119.822 90.1878 97.2945 85.8424C90.1113 84.4564 80.2345 81.2865 78.4225 79.7844C77.6666 79.1579 77.4947 79.387 77.4947 81.0194C77.4947 82.9556 76.2332 84.7189 75.0566 84.4277C74.7423 84.3502 72.7169 85.091 70.5557 86.0741C66.131 88.0872 65.5283 88.1714 63.1799 87.1027C61.8006 86.4756 61.5779 86.0127 61.8943 84.4311C62.1411 83.2001 61.9993 82.5188 61.4963 82.5188C60.3425 82.5188 54.3412 88.307 50.9854 92.6571L48.0584 96.4501L50.0102 97.8381C51.1038 98.6155 53.4723 99.3756 55.3967 99.5673C64.614 100.483 70.2099 106.688 72.1911 118.187C74.7924 133.284 66.7002 150.493 55.5887 153.495C54.0248 153.917 52.7459 154.478 52.7459 154.74C52.7459 155.003 54.2422 156.525 56.0716 158.122C81.6806 180.492 147.03 183.908 184.133 164.816C210.15 151.429 219.889 126.788 208.609 102.89C205.5 96.3019 202.568 92.2096 196.725 86.3006C192.733 82.2637 181.18 73.7218 179.957 73.9048C179.706 73.9422 178.135 75.3929 176.467 77.1288ZM70.2139 77.8434C70.1831 78.7618 70.4493 79.9641 70.8059 80.5151C71.3824 81.4054 71.448 81.4054 71.3978 80.5151C71.3671 79.9641 71.1002 78.7618 70.8059 77.8434L70.2701 76.1737L70.2139 77.8434ZM74.2981 77.7913C74.4005 78.681 74.8613 79.5326 75.3209 79.6835C76.4586 80.0576 76.373 79.0403 75.1342 77.4701C74.1436 76.2144 74.1169 76.2251 74.2981 77.7913ZM18.7992 82.8995C13.1686 84.1318 5.17871 87.9009 3.39278 90.1678C2.27039 91.5924 2.09447 92.3004 2.61754 93.2769C2.99011 93.9722 3.75465 94.5413 4.31651 94.5413C5.30647 94.5413 10.8642 96.8816 14.9538 99.0209C19.7303 101.52 24.3396 107.512 26.6567 114.236C28.5255 119.661 28.3028 119.663 25.7256 114.245C23.2848 109.112 20.747 105.676 17.2561 102.779L14.9772 100.886L16.4963 103.224C19.7658 108.254 21.2882 111.986 23.5978 120.625C26.8246 132.697 30.2466 139.451 35.7308 144.574C42.2658 150.679 48.3681 152.495 54.8897 150.276C62.707 147.616 68.3323 138.804 69.7885 126.935C70.6621 119.814 68.0641 110.195 64.1511 106.063C62.1933 103.996 57.6301 101.765 55.8716 102.016C54.5941 102.198 54.7258 102.413 56.9619 103.801C60.7906 106.178 59.5191 106.194 55.0255 103.825C45.7895 98.9568 41.9253 95.9612 37.7301 90.4176L34.8619 86.6278L33.3649 88.6509C30.8232 92.084 20.0106 95.9379 13.2816 95.809C11.6054 95.7769 12.4609 95.4196 16.2916 94.5513C27.6299 91.9811 34.9241 87.6604 33.6265 84.2835C32.6967 81.8636 26.2741 81.2645 18.7992 82.8995ZM18.9671 84.2835C12.6495 85.6159 5.5894 89.0911 5.5894 90.8677C5.5894 92.0406 6.10177 92.2276 9.79402 92.4033C14.606 92.631 20.7511 91.2558 25.7583 88.8293C29.6258 86.9551 30.6894 85.3388 28.9088 84.039C27.4413 82.9677 24.9102 83.0298 18.9671 84.2835ZM64.5571 83.6376C63.6414 84.552 64.1692 85.8584 65.4548 85.8584C66.1905 85.8584 66.7925 85.5946 66.7925 85.272C66.7925 84.3963 65.0635 83.132 64.5571 83.6376ZM202.634 100.638C202.603 100.868 203.032 102.146 203.589 103.477C205.088 107.06 206.59 114.824 206.59 118.992C206.59 123.672 204.95 131.61 203.13 135.74C198.804 145.557 188.486 155.701 175.821 162.592C169.6 165.976 170.152 166.187 176.674 162.917C192.436 155.017 202.75 144.36 206.651 131.944C208.249 126.862 208.521 118.332 207.281 112.241C206.587 108.833 202.805 99.389 202.634 100.638ZM66.03 123.929C65.2695 134.011 62.0876 140.75 56.2723 144.597C48.9246 149.457 40.1802 145.731 33.7261 134.989C30.7723 130.074 30.6091 130.719 33.4572 136.055C38.8491 146.156 45.8443 150.495 53.2088 148.305C61.3398 145.887 67.0935 135.291 66.6554 123.543L66.4581 118.252L66.03 123.929ZM59.7692 157.71C70.9932 167.864 90.5875 173.73 117.293 174.93C123.824 175.224 124.087 175.196 119.635 174.684C116.875 174.367 111.612 173.762 107.938 173.34C90.2618 171.308 71.9055 165.369 61.5692 158.335C57.4027 155.5 57.2783 155.457 59.7692 157.71ZM175.25 172.051C169.798 173.984 158.966 176.491 150.403 177.801C140.816 179.268 111.863 179.496 102.578 178.177C93.6477 176.91 83.2585 174.76 79.0205 173.305C74.5449 171.767 74.0627 171.735 75.8225 173.096C89.8711 183.953 140.325 186.572 166.196 177.785C171.37 176.028 176.018 173.8 178.42 171.928C180.376 170.401 179.843 170.422 175.25 172.051Z" fill="black"/>
<path fill-rule="evenodd" clip-rule="evenodd" d="M176.467 77.1288C174.021 79.6742 172.32 80.6867 167.673 82.3665C150.174 88.689 119.822 90.1878 97.2945 85.8424C90.1113 84.4564 80.2345 81.2865 78.4225 79.7844C77.6666 79.1579 77.4947 79.387 77.4947 81.0194C77.4947 82.9556 76.2332 84.7189 75.0566 84.4277C74.7423 84.3502 72.7169 85.091 70.5557 86.0741C66.131 88.0872 65.5283 88.1714 63.1799 87.1027C61.8006 86.4756 61.5779 86.0127 61.8943 84.4311C62.1411 83.2001 61.9993 82.5188 61.4963 82.5188C60.3425 82.5188 54.3412 88.307 50.9854 92.6571L48.0584 96.4501L50.0102 97.8381C51.1038 98.6155 53.4723 99.3756 55.3967 99.5673C64.614 100.483 70.2099 106.688 72.1911 118.187C74.7924 133.284 66.7002 150.493 55.5887 153.495C54.0248 153.917 52.7459 154.478 52.7459 154.74C52.7459 155.003 54.2422 156.525 56.0716 158.122C81.6806 180.492 147.03 183.908 184.133 164.816C210.15 151.429 219.889 126.788 208.609 102.89C205.5 96.3019 202.568 92.2096 196.725 86.3006C192.733 82.2637 181.18 73.7218 179.957 73.9048C179.706 73.9422 178.135 75.3929 176.467 77.1288ZM203.589 103.477C203.032 102.146 202.603 100.868 202.634 100.638C202.805 99.389 206.587 108.833 207.281 112.241C208.521 118.332 208.249 126.862 206.651 131.944C202.75 144.36 192.436 155.017 176.674 162.917C170.152 166.187 169.6 165.976 175.821 162.592C188.486 155.701 198.804 145.557 203.13 135.74C204.95 131.61 206.59 123.672 206.59 118.992C206.59 114.824 205.088 107.06 203.589 103.477ZM117.293 174.93C90.5875 173.73 70.9932 167.864 59.7692 157.71C57.2783 155.457 57.4027 155.5 61.5692 158.335C71.9055 165.369 90.2618 171.308 107.938 173.34C111.612 173.762 116.875 174.367 119.635 174.684C124.087 175.196 123.824 175.224 117.293 174.93Z" fill="#94540D"/>
<path d="M104.919 51.7501C97.0142 53.3364 91.9969 54.8987 87.007 57.3285C81.9295 59.8005 79.87 62.0092 80.8826 63.8981C84.4859 70.6213 111.677 75.6627 135.042 73.9395C158.206 72.231 173.966 66.1089 169.03 60.7362C166.067 57.5109 154.838 53.2963 144.258 51.4389L138.83 50.4858L136.089 52.8435C132.116 56.2599 131.883 56.4242 129.976 57.1482C128.018 57.8916 124.134 58.0031 121.128 57.4033C120.018 57.1816 117.288 55.5285 115.062 53.7298C112.835 51.9305 110.922 50.4931 110.809 50.5345C110.697 50.5759 108.046 51.1229 104.919 51.7501Z" fill="#94540D"/>
<path d="M76.9596 64.6188C76.5182 65.0596 76.157 66.6566 76.157 68.1674C76.157 71.553 78.1683 73.7037 83.5147 76.0361C104.143 85.0349 147.99 84.936 167.619 75.8464C172.819 73.4379 175.152 71.193 175.152 68.5969C175.152 66.2612 172.62 62.9176 172.003 64.4391C170.263 68.7325 160.517 72.6237 145.771 74.9146C137.09 76.2638 116.815 76.4235 107.26 75.2186C93.6096 73.4967 81.0037 69.0464 79.3188 65.3541C78.5235 63.6109 78.1007 63.4793 76.9596 64.6188Z" fill="#703B00"/>
<path fill-rule="evenodd" clip-rule="evenodd" d="M70.137 62.2317C70.137 62.957 70.4841 63.8968 70.9089 64.3209C71.7771 65.1878 71.8493 69.0537 71.0126 69.8893C70.7122 70.1892 70.5303 69.0203 70.6085 67.2931C70.7343 64.5179 70.6868 64.3984 70.2045 66.2685C69.9049 67.4334 68.9631 69.6876 68.1116 71.2779C65.5076 76.1469 66.3337 83.8547 69.4601 83.8547C71.8032 83.8547 74.2386 82.3686 73.7597 81.2311C71.9443 76.9251 71.9236 76.6639 73.066 72.5983C74.4312 67.7386 74.0179 64.5533 71.7457 62.4214C70.2085 60.9793 70.137 60.9713 70.137 62.2317ZM70.8059 80.5151C70.4493 79.9641 70.1831 78.7618 70.2139 77.8434L70.2701 76.1737L70.8059 77.8434C71.1002 78.7618 71.3671 79.9641 71.3978 80.5151C71.448 81.4054 71.3824 81.4054 70.8059 80.5151Z" fill="#8A4B06"/>
<path d="M60.1037 66.0982C60.1037 67.3118 60.8381 68.12 63.0722 69.3676C66.2902 71.163 66.7925 71.0788 66.7925 68.7411C66.7925 66.6873 64.3043 64.4852 61.9839 64.4852C60.4421 64.4852 60.1037 64.7751 60.1037 66.0982Z" fill="#8A4B06"/>
<path d="M74.2981 77.7913C74.4005 78.681 74.8613 79.5326 75.3209 79.6835C76.4586 80.0576 76.373 79.0403 75.1342 77.4701C74.1436 76.2144 74.1169 76.2251 74.2981 77.7913Z" fill="#8A4B06"/>
<path d="M57.2154 64.9207C56.5245 65.6106 56.6696 70.8424 57.4361 72.8548C58.3699 75.3087 62.7384 80.5151 63.8628 80.5151C65.3625 80.5151 64.927 79.3155 62.7143 77.3479C61.5746 76.3346 60.3264 74.9046 59.9398 74.1699C59.4375 73.2141 59.7672 73.3564 61.0996 74.6709C63.2127 76.7554 63.8167 76.917 64.3458 75.5398C64.5692 74.9587 64.2086 74.411 63.4434 74.1686C61.4869 73.5481 58.7672 69.9354 58.7559 67.9403C58.7438 65.9079 57.8943 64.2421 57.2154 64.9207Z" fill="#8A4B06"/>
<path d="M64.5571 83.6376C63.6414 84.552 64.1692 85.8584 65.4548 85.8584C66.1905 85.8584 66.7925 85.5946 66.7925 85.272C66.7925 84.3963 65.0635 83.132 64.5571 83.6376Z" fill="#8A4B06"/>
<path d="M67.1738 63.6022C66.9303 64.2361 67.1899 65.1678 67.7711 65.7489C68.6962 66.6719 68.7992 66.5597 68.7992 64.6281C68.7992 62.3332 67.8835 61.7554 67.1738 63.6022Z" fill="#8A4B06"/>
<path d="M183.532 57.7753C183.135 58.4179 183.696 61.5784 184.428 62.8154C184.645 63.1828 185.007 62.5816 185.232 61.4796L185.641 59.4759L186.436 61.4088C187.536 64.0791 186.361 67.3646 183.488 69.6535L181.236 71.4469L183.044 72.6371C185.661 74.3603 186.283 74.1579 188.088 70.9973C190.27 67.1769 190.742 64.7918 189.849 62.0907C188.727 58.6964 184.676 55.9286 183.532 57.7753Z" fill="#8A4B06"/>
<path d="M192.284 65.9974C191.718 67.941 190.193 70.7689 188.896 72.2824C185.559 76.1743 187.479 76.6252 191.213 72.8268C193.616 70.3815 194.119 69.3984 194.386 66.6219C194.83 62.0046 193.556 61.6259 192.284 65.9974Z" fill="#8A4B06"/>
<path d="M180.343 58.0866C179.703 58.5588 178.704 60.0823 178.122 61.4716C177.218 63.6336 177.19 64.4204 177.927 66.9137C178.844 70.0168 178.977 70.1384 180.442 69.2127C181.243 68.7064 181.218 68.2683 180.275 66.2832C178.928 63.4499 178.903 63.0906 180.081 63.5421C180.639 63.7558 181.151 63.303 181.392 62.3813C181.875 60.5412 181.33 59.8178 180.477 61.165C180.091 61.7755 179.851 61.8443 179.844 61.346C179.839 60.9052 180.317 60.2747 180.907 59.9447C181.496 59.6154 181.873 58.8694 181.743 58.287C181.545 57.4007 181.317 57.3679 180.343 58.0866Z" fill="#8A4B06"/>
<path d="M182.51 65.4056C182.51 67.2824 183.468 67.7727 184.071 66.2037C184.272 65.6794 184.004 64.8913 183.474 64.4525C182.677 63.7919 182.51 63.9562 182.51 65.4056Z" fill="#8A4B06"/>
<path fill-rule="evenodd" clip-rule="evenodd" d="M18.7992 82.8995C13.1686 84.1318 5.17871 87.9009 3.39278 90.1678C2.27039 91.5924 2.09447 92.3004 2.61754 93.2769C2.99011 93.9722 3.75465 94.5413 4.31651 94.5413C5.30647 94.5413 10.8642 96.8816 14.9538 99.0209C19.7303 101.52 24.3396 107.512 26.6567 114.236C28.5255 119.661 28.3028 119.663 25.7256 114.245C23.2848 109.112 20.747 105.676 17.2561 102.779L14.9772 100.886L16.4963 103.224C19.7658 108.254 21.2882 111.986 23.5978 120.625C26.8246 132.697 30.2466 139.451 35.7308 144.574C42.2658 150.679 48.3681 152.495 54.8897 150.276C62.707 147.616 68.3323 138.804 69.7885 126.935C70.6621 119.814 68.0641 110.195 64.1511 106.063C62.1933 103.996 57.6301 101.765 55.8716 102.016C54.5941 102.198 54.7258 102.413 56.9619 103.801C60.7906 106.178 59.5191 106.194 55.0255 103.825C45.7895 98.9568 41.9253 95.9612 37.7301 90.4176L34.8619 86.6278L33.3649 88.6509C30.8232 92.084 20.0106 95.9379 13.2816 95.809C11.6054 95.7769 12.4609 95.4196 16.2916 94.5513C27.6299 91.9811 34.9241 87.6604 33.6265 84.2835C32.6967 81.8636 26.2741 81.2645 18.7992 82.8995ZM5.5894 90.8677C5.5894 89.0911 12.6495 85.6159 18.9671 84.2835C24.9102 83.0298 27.4413 82.9677 28.9088 84.039C30.6894 85.3388 29.6258 86.9551 25.7583 88.8293C20.7511 91.2558 14.606 92.631 9.79402 92.4033C6.10177 92.2276 5.5894 92.0406 5.5894 90.8677ZM56.2723 144.597C62.0876 140.75 65.2695 134.011 66.03 123.929L66.4581 118.252L66.6554 123.543C67.0935 135.291 61.3398 145.887 53.2088 148.305C45.8443 150.495 38.8491 146.156 33.4572 136.055C30.6091 130.719 30.7723 130.074 33.7261 134.989C40.1802 145.731 48.9246 149.457 56.2723 144.597Z" fill="#94540D"/>
<path d="M175.25 172.051C169.798 173.984 158.966 176.491 150.403 177.801C140.816 179.268 111.863 179.496 102.578 178.177C93.6477 176.91 83.2585 174.76 79.0205 173.305C74.5449 171.767 74.0627 171.735 75.8225 173.096C89.8711 183.953 140.325 186.572 166.196 177.785C171.37 176.028 176.018 173.8 178.42 171.928C180.376 170.401 179.843 170.422 175.25 172.051Z" fill="#703B00"/>
<path d="M118.631 3.08468C107.146 4.66162 92.3627 9.28825 84.2264 13.8521C66.9203 23.5589 57.8422 36.473 57.7887 51.4609C57.7773 54.7671 57.996 58.5468 58.2749 59.8599C58.7438 62.066 58.9619 62.243 61.1485 62.1976L63.515 62.1475L63.1097 58.14C62.1117 48.2676 66.3337 36.5471 73.6426 28.9002C77.5201 24.8439 77.5409 24.8326 74.5082 28.4179C70.7423 32.8709 67.2032 40.0289 66.0875 45.4497C65.2467 49.538 64.9685 60.8825 65.6916 61.6052C66.8755 62.7867 67.9631 60.0302 68.323 54.9387C68.9758 45.7008 72.6286 37.9811 79.6773 30.9433C87.1514 23.4794 98.9486 17.1983 111.768 13.8568C118.164 12.1897 119.564 12.0701 132.343 12.1028C145.027 12.1356 146.551 12.2718 152.659 13.9149C162.832 16.6527 169.69 20.2761 175.463 25.9633C178.224 28.6838 181.111 32.3058 182.139 34.3416C184.64 39.2909 185.928 45.8251 185.417 50.96C185.059 54.5507 185.154 55.1344 186.097 55.1344C186.922 55.1344 187.22 54.4338 187.306 52.2958C187.88 37.9237 182.101 27.5984 168.345 18.4266C163.18 14.9829 164.041 14.9321 169.762 18.3425C183.266 26.3935 190.758 39.0678 189.601 51.9084C189.281 55.4544 189.438 56.7822 190.369 58.4159C191.014 59.5453 191.736 60.471 191.976 60.4737C194.155 60.4944 195.27 44.9915 193.561 38.4366C189.177 21.6192 174.222 9.40981 151.741 4.29561C145.038 2.77076 125.994 2.07413 118.631 3.08468Z" fill="#A85E0C"/>
<path d="M174.483 74.2354C168.338 80.3154 148.244 84.6822 126.323 84.7016C104.573 84.7209 85.7481 81.0401 77.4613 75.1478C75.1443 73.5007 74.8145 74.3229 76.9931 76.3159C87.0933 85.5558 128.343 89.4771 155.082 83.7384C164.231 81.7748 172.113 78.7632 174.849 76.187C176.988 74.1733 177.844 72.4447 176.657 72.5402C176.381 72.5629 175.403 73.325 174.483 74.2354Z" fill="#352621"/>
<path d="M120.592 37.728C117.661 38.4279 114.521 40.419 113.582 42.1716C111.203 46.6112 116.282 49.9675 125.469 50.0256C128.586 50.0456 130.581 50.28 129.901 50.5472C127.615 51.4455 119.015 51.1657 116.486 50.1104L114.049 49.0938L115.288 50.4597C117.16 52.5256 123.172 54.0384 127.494 53.5314C133.988 52.7687 137.695 49.6963 137.695 45.0743C137.695 42.9757 137.279 42.1996 135.273 40.5479C131.61 37.5329 125.954 36.4469 120.592 37.728Z" fill="#B66913"/>
<path d="M121.017 55.2152C123.144 55.8084 127.689 55.8304 129.138 55.2546C129.766 55.0048 127.83 54.7918 124.835 54.7811C121.802 54.7697 120.111 54.9621 121.017 55.2152Z" fill="#94540D"/>
<path fill-rule="evenodd" clip-rule="evenodd" d="M128.374 98.4219C126.443 100.51 124.14 103.827 122.491 106.895L121.04 109.597L119.058 108.401C117.003 107.161 112.437 104.982 111.894 104.982C111.451 104.982 110.652 107.013 109.773 110.371C109.356 111.967 108.936 113.352 108.839 113.448C108.743 113.544 107.255 113.259 105.534 112.816C101.849 111.866 96.2367 111.083 95.4001 111.402C94.8766 111.602 94.8369 111.932 95.0396 114.414C95.3781 118.562 96.6828 123.574 98.7228 128.562C98.9055 129.008 98.552 129.172 96.6728 129.514C93.4024 130.11 88.2265 131.8 88.0185 132.34C87.7194 133.114 91.1077 137.584 94.3424 140.682C97.6694 143.868 100.083 145.591 103.32 147.089C110.044 150.201 119.277 150.307 127.777 147.37L129.81 146.668L131.686 147.365C135.035 148.611 140.091 149.45 144.244 149.448C152.652 149.444 158.5 147.034 164.884 140.941C168.31 137.673 171.783 133.139 171.475 132.34C171.267 131.8 166.091 130.11 162.821 129.514C160.936 129.171 160.588 129.009 160.777 128.562C162.944 123.425 164.267 118.056 164.363 114.014L164.424 111.447L163.346 111.343C161.914 111.206 154.918 112.411 152.499 113.211L150.577 113.847L150.385 112.978C149.44 108.708 148.142 104.982 147.599 104.982C147.056 104.982 142.491 107.161 140.436 108.401L138.454 109.597L136.992 106.876C135.324 103.773 132.387 99.6005 130.78 98.0516L129.689 97L128.374 98.4219ZM127.448 101.54C126.214 103.159 124.314 106.275 123.227 108.463C119.313 116.34 118.662 122.635 120.981 130.178C122.213 134.185 125.646 140.235 128.86 144.063L129.802 145.185L132.042 142.239C134.736 138.697 137.995 132.329 138.976 128.686C139.985 124.944 139.982 118.803 138.97 115.122C137.673 110.406 134.164 103.921 130.633 99.7165L129.691 98.5946L127.448 101.54ZM111.904 107.478C111.511 108.506 110.241 113.412 110.241 113.902C110.241 114.097 111.403 114.842 112.825 115.556C114.246 116.271 116.081 117.308 116.902 117.861L118.394 118.866L119.284 115.322C119.773 113.373 120.267 111.55 120.382 111.271C120.596 110.755 118.664 109.48 114.67 107.501C112.518 106.435 112.304 106.433 111.904 107.478ZM143.217 108.381C141.456 109.338 139.774 110.272 139.48 110.457C138.995 110.762 139.019 111.043 139.729 113.441C140.16 114.897 140.641 116.718 140.798 117.487L141.083 118.886L142.814 117.727C143.766 117.091 145.619 116.041 146.932 115.396C149.314 114.226 149.319 114.221 149.105 113.088C148.565 110.228 147.39 106.809 146.919 106.727C146.644 106.68 144.978 107.424 143.217 108.381ZM96.3684 115.064C97.0609 122.663 100.571 130.959 105.07 135.631C109.716 140.455 117.694 144.055 125.899 145.029L128.142 145.295L126.062 142.499C121.652 136.569 119.201 130.582 118.544 124.136L118.148 120.262L116.194 118.899C111.942 115.934 104.483 113.327 98.6034 112.753L96.1356 112.512L96.3684 115.064ZM159.923 112.828C153.331 113.86 147.455 116.018 143.215 118.963L141.345 120.262L140.95 124.136C140.293 130.582 137.841 136.569 133.431 142.499L131.351 145.295L133.594 145.029C141.799 144.055 149.777 140.455 154.423 135.631C158.91 130.972 162.432 122.662 163.121 115.112L163.349 112.607L162.053 112.652C161.34 112.677 160.381 112.756 159.923 112.828ZM93.7966 131.474C91.8126 131.989 90.0247 132.574 89.8233 132.774C89.3389 133.256 92.4672 137.333 95.5144 140.192C103.503 147.684 113.037 149.996 124.078 147.119C126.628 146.455 126.65 146.476 122.578 145.75C113.302 144.096 105.388 139.235 101.035 132.518C99.8498 130.689 99.6364 130.516 98.5704 130.526C97.9285 130.532 95.7802 130.958 93.7966 131.474ZM158.589 132.405C157.214 134.627 153.404 138.575 151.195 140.064C147.435 142.599 141.639 144.907 136.916 145.75C132.844 146.475 132.866 146.455 135.415 147.116C148.801 150.583 159.852 146.533 168.663 134.93C169.646 133.635 169.927 133.03 169.666 132.771C169.175 132.283 162.38 130.539 160.923 130.527C159.859 130.518 159.653 130.684 158.589 132.405Z" fill="black"/>
<path d="M127.448 101.54C126.214 103.159 124.314 106.275 123.227 108.463C119.313 116.34 118.662 122.635 120.981 130.178C122.213 134.185 125.646 140.235 128.86 144.063L129.802 145.185L132.042 142.239C134.736 138.697 137.995 132.329 138.976 128.686C139.985 124.944 139.982 118.803 138.97 115.122C137.673 110.406 134.164 103.921 130.633 99.7165L129.691 98.5946L127.448 101.54Z" fill="#352621"/>
<path d="M159.923 112.828C153.331 113.86 147.455 116.018 143.215 118.963L141.345 120.262L140.95 124.136C140.293 130.582 137.841 136.569 133.431 142.499L131.351 145.295L133.594 145.029C141.799 144.055 149.777 140.455 154.423 135.631C158.91 130.972 162.432 122.662 163.121 115.112L163.349 112.607L162.053 112.652C161.34 112.677 160.381 112.756 159.923 112.828Z" fill="#352621"/>
<path d="M96.3684 115.064C97.0609 122.663 100.571 130.959 105.07 135.631C109.716 140.455 117.694 144.055 125.899 145.029L128.142 145.295L126.062 142.499C121.652 136.569 119.201 130.582 118.544 124.136L118.148 120.262L116.194 118.899C111.942 115.934 104.483 113.327 98.6034 112.753L96.1356 112.512L96.3684 115.064Z" fill="#352621"/>
<path d="M111.904 107.478C111.511 108.506 110.241 113.412 110.241 113.902C110.241 114.097 111.403 114.842 112.825 115.556C114.246 116.271 116.081 117.308 116.902 117.861L118.394 118.866L119.284 115.322C119.773 113.373 120.267 111.55 120.382 111.271C120.596 110.755 118.664 109.48 114.67 107.501C112.518 106.435 112.304 106.433 111.904 107.478Z" fill="#352621"/>
<path d="M93.7966 131.474C91.8126 131.989 90.0247 132.574 89.8233 132.774C89.3389 133.256 92.4672 137.333 95.5144 140.192C103.503 147.684 113.037 149.996 124.078 147.119C126.628 146.455 126.65 146.476 122.578 145.75C113.302 144.096 105.388 139.235 101.035 132.518C99.8498 130.689 99.6364 130.516 98.5704 130.526C97.9285 130.532 95.7802 130.958 93.7966 131.474Z" fill="#352621"/>
<path d="M143.217 108.381C141.456 109.338 139.774 110.272 139.48 110.457C138.995 110.762 139.019 111.043 139.729 113.441C140.16 114.897 140.641 116.718 140.798 117.487L141.083 118.886L142.814 117.727C143.766 117.091 145.619 116.041 146.932 115.396C149.314 114.226 149.319 114.221 149.105 113.088C148.565 110.228 147.39 106.809 146.919 106.727C146.644 106.68 144.978 107.424 143.217 108.381Z" fill="#352621"/>
<path d="M158.589 132.405C157.214 134.627 153.404 138.575 151.195 140.064C147.435 142.599 141.639 144.907 136.916 145.75C132.844 146.475 132.866 146.455 135.415 147.116C148.801 150.583 159.852 146.533 168.663 134.93C169.646 133.635 169.927 133.03 169.666 132.771C169.175 132.283 162.38 130.539 160.923 130.527C159.859 130.518 159.653 130.684 158.589 132.405Z" fill="#352621"/>
</svg>
