<svg width="127" height="79" viewBox="0 0 127 79" fill="none" xmlns="http://www.w3.org/2000/svg">
<path fill-rule="evenodd" clip-rule="evenodd" d="M61.2673 0.136269C60.1914 0.337588 58.6185 1.07376 57.8975 1.71345C56.4425 3.00464 55.9079 3.83939 55.4793 5.48943C55.238 6.41844 55.2265 6.74475 55.4039 7.62844C55.7638 9.42112 57.0191 11.0417 58.7814 11.9889C59.5485 12.4011 59.5337 12.4098 57.6703 12.634C53.5587 13.1288 50.0411 14.4655 47.2028 16.6117L45.8944 17.6011L44.4988 17.536C41.777 17.4089 38.018 17.9373 36.1421 18.7103C34.711 19.3001 33.5929 20.4611 33.5969 21.3533C33.6007 22.2291 34.5737 23.3738 36.0782 24.2724L36.555 24.5571L36.1475 24.8867C35.2024 25.6506 35.0491 26.713 35.763 27.5512L36.1862 28.0482L35.196 28.648C34.6513 28.978 34.1147 29.3105 34.0032 29.387C33.8919 29.4635 33.4666 29.745 33.058 30.0126C32.6494 30.2803 31.8171 30.8999 31.2084 31.3896C30.5997 31.8794 30.0823 32.2548 30.0585 32.2238C30.0348 32.1929 29.7536 31.7297 29.4335 31.1944C27.4282 27.8411 23.855 25.0358 20.1544 23.9097C16.3892 22.7639 11.9402 23.0096 8.62377 24.5466C4.24541 26.5758 1.63552 29.7606 0.41379 34.5651C-0.103652 36.6001 -0.142382 40.6454 0.33476 42.8036C1.52055 48.1655 4.07252 52.3448 8.20386 55.6906C9.57562 56.8015 10.2848 57.2878 12.4857 58.6267C12.9929 58.9352 16.2847 60.4607 16.4433 60.4607C16.5025 60.4607 16.951 60.614 17.4403 60.8016C19.7751 61.6961 23.4159 62.5441 25.7896 62.7463C26.7485 62.8279 27.0057 62.9029 27.1676 63.1482C27.6552 63.887 31.046 67.3008 32.2162 68.2313C33.3464 69.1299 36.0662 70.8885 36.8891 71.2527C37.2134 71.3963 37.6059 71.5787 37.7614 71.6581C37.9166 71.7375 38.5325 72.0036 39.1298 72.2492C40.1851 72.6834 40.2104 72.7068 40.0305 73.0782C39.3235 74.5381 40.8072 75.945 43.937 76.7822C45.3234 77.1532 46.1067 77.2814 49.0347 77.6164C54.5179 78.244 61.6832 78.496 67.7116 78.2732C70.06 78.1865 72.5493 78.0568 73.2435 77.985C73.9375 77.9134 75.2728 77.7881 76.2105 77.7068C77.923 77.5582 78.3858 77.4881 80.9604 76.9869C83.3985 76.5122 85.0588 75.7241 85.6991 74.7374C85.9466 74.3559 85.9634 73.5176 85.7369 72.8474C85.7001 72.7385 85.9023 72.5534 86.1924 72.4303C87.9246 71.6955 89.6228 70.9056 90.3812 70.4824C93.5676 68.7039 96.6264 66.3224 98.4711 64.1837C98.8192 63.7801 99.1477 63.4186 99.2009 63.3804C99.3722 63.2573 100.849 61.1089 101.255 60.3912C101.972 59.1249 102.066 59.0214 102.593 58.9094C104.395 58.5263 106.982 56.8986 108.532 55.1726C110.418 53.0713 111.134 51.6722 111.939 48.511C112.052 48.0674 112.145 45.8773 112.163 43.2278C112.193 38.9235 112.215 38.6478 112.605 37.5899C113.669 34.7053 115.58 32.6875 118.233 31.645C119.953 30.9693 121.093 30.7111 123.082 30.5468C125.291 30.3644 126.017 30.1193 126.161 29.507C126.305 28.8948 126.161 28.4791 125.484 27.5584C125.176 27.1397 124.845 26.6896 124.749 26.5581C124.653 26.4267 124.184 25.9234 123.706 25.4399C122.973 24.698 122.404 24.2727 120.543 23.0724C120.135 22.809 118.847 22.3438 117.808 22.0842C115.717 21.5616 113.623 21.7935 111.636 22.7677C110.671 23.2407 109.99 23.8434 108.609 25.4453C107.028 27.2783 104.691 30.0257 104.512 30.2603C104.416 30.3862 104.043 30.8174 103.684 31.2183C103.324 31.6191 103.029 31.9792 103.029 32.0183C103.029 32.2093 101.433 33.9072 100.503 34.7051L99.453 35.6056L98.2961 34.3732C96.3284 32.2768 92.1674 29.1335 90.3376 28.3611C89.9311 28.1895 89.8096 27.8472 90.1256 27.7634C90.2249 27.737 90.4227 27.4458 90.565 27.1163C90.8651 26.4223 90.7009 25.6976 90.1076 25.0965C89.7468 24.7311 89.7786 24.4513 90.1807 24.4513C90.479 24.4513 91.7665 23.364 92.1067 22.8247C92.2611 22.5798 92.3874 22.2177 92.3874 22.0197C92.3874 21.3914 91.6484 20.4695 90.5814 19.7666C90.113 19.4581 88.2967 18.9273 86.7175 18.6374C84.9857 18.3196 81.8613 17.9178 81.0991 17.915C80.7288 17.9138 80.4126 17.7326 79.7844 17.1617C78.0325 15.5695 74.5871 13.8678 71.8778 13.2563C70.8298 13.0198 69.087 12.7426 67.5708 12.5712C67.115 12.5197 66.7421 12.4188 66.7421 12.3471C66.7421 12.2752 66.8292 12.2165 66.9354 12.2165C67.2706 12.2165 69.2669 10.5085 69.7599 9.80012C70.0197 9.42682 70.3663 8.60236 70.5301 7.96768C70.8079 6.89254 70.8087 6.73391 70.5443 5.64C70.1482 4.00317 69.732 3.30273 68.3508 1.94967C66.8144 0.444225 63.7772 -0.333243 61.2673 0.136269ZM61.5663 1.21864C60.0424 1.53188 58.3425 2.76843 57.5327 4.15263C57.1501 4.80692 57.0838 5.11807 57.0746 6.30763C57.0648 7.56699 57.1107 7.77331 57.5618 8.49725C58.1958 9.51455 59.2371 10.3444 60.4603 10.8071C61.2739 11.1151 61.6617 11.171 62.9913 11.1722C64.3939 11.1736 64.6706 11.1293 65.5856 10.7567C66.7915 10.2656 67.8269 9.38747 68.4546 8.3236C69.0943 7.23929 69.1076 5.57354 68.4867 4.30293C67.9577 3.22042 66.7013 2.12763 65.365 1.58804C64.3639 1.18374 62.5797 1.01023 61.5663 1.21864ZM61.1656 2.65943C59.5669 3.2987 58.8392 4.85711 59.5553 6.10812C60.1773 7.19438 61.3141 7.76789 62.8437 7.76677C64.1063 7.76594 64.9841 7.38166 65.7284 6.50395C66.2001 5.94768 66.2428 5.80475 66.1856 4.96987C66.1359 4.24398 66.0213 3.93254 65.6437 3.49849C64.6858 2.39679 62.7362 2.03156 61.1656 2.65943ZM61.5473 3.04913C59.5672 3.85079 59.4102 6.02873 61.2666 6.94315C62.194 7.39987 63.6439 7.34454 64.4606 6.82136C65.268 6.30402 65.5392 5.84424 65.5478 4.97946C65.5637 3.3475 63.395 2.301 61.5473 3.04913ZM62.2066 12.1122C62.2061 12.262 63.6399 12.2371 63.9477 12.0821C64.1228 11.9936 63.8842 11.9608 63.2064 11.9799C62.6567 11.9953 62.2068 12.0549 62.2066 12.1122ZM62.6532 13.6416C62.515 14.0086 62.2059 16.2083 62.2087 16.8046C62.2134 17.7897 62.6521 19.0599 63.0841 19.3387C63.6933 19.7319 64.5577 19.6603 64.9857 19.1815C65.2786 18.8535 65.3465 18.5671 65.3465 17.6573C65.3465 16.524 65.1582 15.9633 64.2582 14.4157C63.8118 13.648 62.8292 13.1742 62.6532 13.6416ZM61.6731 13.792C61.2423 14.0502 60.0142 15.3442 59.4378 16.1469C58.9215 16.866 58.9135 16.9058 59.0848 17.8906C59.2809 19.0185 59.843 20.0283 60.5803 20.5772C62.5046 22.0098 65.4564 22.0605 67.2107 20.6909C68.0005 20.0745 68.0778 19.9616 68.3906 18.9675C68.7372 17.8658 68.6952 17.6613 67.93 16.7323C67.1395 15.7724 64.8624 13.8072 64.6952 13.9405C64.668 13.9622 64.9384 14.4747 65.2962 15.0793C65.8698 16.0491 65.9543 16.3299 66.012 17.4573C66.0694 18.5824 66.0303 18.8026 65.6856 19.2914C65.2284 19.9396 64.5488 20.2099 63.6645 20.0956C61.9499 19.8738 61.2982 18.2353 61.7741 15.3424C61.922 14.4437 62.0206 13.6907 61.9934 13.669C61.9662 13.6473 61.8221 13.7026 61.6731 13.792ZM57.1469 14.031C52.4432 14.91 49.9317 15.9007 47.6584 17.7736C46.3279 18.8698 44.5185 21.2461 44.8269 21.4919C44.881 21.535 45.9677 21.6508 47.2416 21.7491C48.5156 21.8474 50.2646 21.9914 51.1282 22.0692C53.245 22.2596 55.267 22.31 55.5332 22.1789C55.6532 22.1198 55.7513 21.975 55.7513 21.8573C55.7513 21.7395 55.8586 21.446 55.9898 21.2051C56.121 20.9641 56.4442 20.2352 56.7082 19.5852C57.1965 18.3826 58.5702 15.9319 58.9681 15.5533C59.0888 15.4386 59.2418 15.2196 59.3083 15.0667C59.375 14.9137 58.4074 15.6414 57.1583 16.6837C54.1956 19.1557 53.0045 19.7532 51.4893 19.5267C51.0713 19.4643 50.8304 19.3115 50.5908 18.9571C50.2913 18.5137 50.2526 18.4969 50.1313 18.758C49.7915 19.4901 50.5767 20.8418 51.5055 21.1232C52.0782 21.2967 53.6918 21.2893 54.2822 21.1104C54.5395 21.0325 56.0701 20.393 56.4638 20.1509C56.4487 20.161 56.4389 20.1706 56.422 20.1873C56.3638 20.2446 56.2207 20.3856 55.4856 20.9159C54.4678 21.65 53.6041 21.8723 52.2145 21.7575C50.4195 21.6092 49.434 20.7293 49.4167 19.2595C49.3911 17.0981 51.5163 15.7121 57.0161 14.303C58.5482 13.9105 58.6229 13.7552 57.1469 14.031ZM67.9633 14.1507C68.4911 14.2974 69.6294 14.5902 70.493 14.8013C71.3565 15.0123 72.1809 15.232 72.3248 15.2894C72.4687 15.347 73.1147 15.5823 73.7606 15.8126C77.0173 16.9738 78.8144 18.7117 78.2663 20.1696C78.0508 20.7431 77.1018 21.5909 76.5076 21.7413C76.0252 21.8633 76.07 22.1398 76.5554 22.0375C76.7714 21.9919 77.9685 21.8824 79.2159 21.7943C80.4632 21.7062 81.5464 21.5892 81.623 21.5344C81.9374 21.3096 80.9652 19.9976 79.2768 18.3688C76.8664 16.0434 72.3558 14.2631 68.1141 13.9627L67.0038 13.8841L67.9633 14.1507ZM59.1654 14.1472C59.1129 14.215 58.7746 14.3145 58.4137 14.3683C58.0527 14.4223 57.4282 14.5858 57.0257 14.7317C56.6232 14.8777 56.2059 14.9971 56.0986 14.9971C55.8811 14.9971 54.066 15.6192 53.6578 15.8336C53.5139 15.9092 53.2321 16.0281 53.0317 16.0977C52.4326 16.3061 51.2426 17.3603 51.0319 17.8694C50.8686 18.2637 50.8851 18.4055 51.1299 18.7032C51.393 19.023 51.5125 19.0548 52.236 18.9977C52.7571 18.9564 53.3279 18.7804 53.8322 18.5052C54.7321 18.0143 59.7336 14.0239 59.4491 14.0239C59.3456 14.0239 59.2179 14.0794 59.1654 14.1472ZM66.8484 14.7379C68.407 16.0822 69.9321 18.1322 71.0952 20.4465L71.9551 22.1573L72.7943 22.1923L73.6332 22.2272L72.9544 21.9664L72.2756 21.7056L73.9139 21.6382C75.6342 21.5674 76.3092 21.3828 77.0046 20.7928C77.797 20.1208 77.8108 19.0506 77.0365 18.3103L76.6979 17.9863L76.692 18.3779C76.684 18.9195 76.4162 19.2675 75.8174 19.5143C74.069 20.2348 71.6559 19.0925 69.0973 16.333C67.859 14.9976 67.2426 14.4836 66.7421 14.3694C66.3137 14.2718 66.3156 14.2784 66.8484 14.7379ZM68.5603 15.0824C68.7229 15.2267 69.2245 15.7212 69.6746 16.1816C71.4586 18.0055 72.5179 18.7341 73.9294 19.1078C74.744 19.3233 74.8581 19.3241 75.4005 19.1181C75.9054 18.9261 75.9884 18.8247 75.9884 18.3997C75.9884 17.1485 72.4771 15.4122 68.9426 14.9154C68.287 14.8232 68.2742 14.8288 68.5603 15.0824ZM58.3053 17.8473C57.8249 18.7165 57.2279 19.9817 56.7965 21.0451C56.5793 21.5803 56.3647 22.0966 56.3195 22.1921C56.2546 22.3293 57.6649 22.3656 63.0162 22.3643C70.0293 22.3628 71.1036 22.3158 71.1036 22.0106C71.1036 21.7786 70.2114 20.0139 69.5963 19.0291L69.1186 18.2644L68.9647 19.0879C68.7156 20.4214 67.6805 21.4366 66.0443 21.9522C64.7275 22.3673 62.8543 22.2905 61.5733 21.7693C59.7814 21.04 58.9409 20.007 58.7319 18.2775L58.6127 17.2912L58.3053 17.8473ZM40.4862 18.8901C39.3315 19.0014 37.4775 19.4694 36.7605 19.8303C35.7668 20.3308 35.4308 20.7306 35.4289 21.4143C35.4271 21.9762 35.5102 22.1262 36.0567 22.5491C37.3544 23.5535 39.772 24.1869 44.3243 24.7152C49.7257 25.3421 53.6217 25.4932 64.2125 25.4863C72.8836 25.4806 74.7374 25.4408 78.6925 25.1764C81.1872 25.0096 83.5032 24.8142 83.839 24.7423C84.1748 24.6705 84.8814 24.5704 85.4091 24.5199C87.6408 24.3063 90.1329 23.4593 90.7547 22.703C91.6627 21.5985 90.5244 20.6095 87.5026 19.8773C85.3416 19.3539 81.0583 19.0061 81.8549 19.4189C81.9575 19.4722 82.2964 19.9439 82.608 20.4671L83.1745 21.4186L83.7928 21.3262C85.5782 21.0592 86.2116 20.6691 85.7723 20.107C85.5394 19.8091 85.5438 19.8039 85.8608 20.0023C86.5876 20.4569 86.657 20.9201 86.0633 21.3509C85.5953 21.6906 84.0593 22.1561 82.9667 22.2894C82.5349 22.3422 81.9461 22.4422 81.6583 22.5117C81.194 22.6239 79.2317 22.8244 74.8991 23.2023C72.4022 23.42 64.079 23.5037 59.2404 23.3597C49.572 23.0719 41.7434 22.2145 40.0592 21.2587C39.4988 20.9408 39.2246 20.4184 39.4592 20.1159C39.5586 19.9877 39.6282 20.0343 39.7001 20.277C39.8456 20.7677 40.6514 21.074 42.0869 21.1839L43.3384 21.2797L44.1141 20.0154L44.8895 18.751L43.2113 18.7701C42.2882 18.7805 41.0619 18.8344 40.4862 18.8901ZM113.916 23.2566C112.905 23.4523 112.063 23.8751 111.346 24.547C110.89 24.9741 107.216 29.5438 107.216 29.6838C107.216 29.7179 107.072 29.9153 106.895 30.1225C106.718 30.3298 105.956 31.2421 105.202 32.15C103.665 34.001 102.546 35.1592 101.258 36.2308L100.385 36.9572L101.076 38.1078C102.986 41.2856 103.718 43.3529 104.268 47.1136C104.631 49.603 104.132 54.2226 103.271 56.325C103.123 56.6886 103.03 57.0557 103.065 57.1406C103.144 57.3296 105.565 55.8001 106.17 55.1793C106.409 54.9329 106.686 54.6596 106.784 54.572C107.768 53.6955 109.042 51.6262 109.578 50.0333C110.152 48.3296 110.243 47.3434 110.202 43.2442C110.17 40.0238 110.209 39.4129 110.525 38.168C111.44 34.5664 113.753 31.9035 117.2 30.483C118.303 30.0285 120.614 29.4883 122.503 29.2438L124.443 28.9926L123.945 28.3555C123.671 28.0053 123.373 27.5935 123.281 27.4405C122.971 26.9196 120.905 25.0848 120.034 24.5573C117.831 23.222 116.051 22.8436 113.916 23.2566ZM114.36 24.1513L113.963 24.4075L115.169 25.2038C116.475 26.0654 118.229 27.024 119.341 27.4829C120.42 27.9283 121.894 28.3723 122.003 28.285C122.167 28.1545 121.745 27.5472 120.758 26.4933C119.591 25.2462 119.075 24.8644 117.831 24.3239C116.626 23.8 115.027 23.7206 114.36 24.1513ZM12.8347 24.9437C9.97722 25.4176 7.41705 26.7707 5.53378 28.8025C5.13549 29.2321 4.8096 29.6283 4.8096 29.683C4.8096 29.7375 4.68975 29.8878 4.54321 30.0168C4.10235 30.4051 2.94901 32.805 2.4307 34.413C1.96681 35.8514 1.94448 36.07 1.9471 39.1192C1.94867 41.0624 2.03136 42.617 2.1575 43.0817C2.27177 43.5022 2.47623 44.2864 2.61196 44.824C2.91674 46.0318 3.33177 47.1361 3.77455 47.9168C3.95999 48.2438 4.11177 48.5772 4.11177 48.6577C4.11177 48.8978 5.59309 51.1993 6.30942 52.0723C7.20945 53.1691 8.77643 54.6946 9.78479 55.4555C10.2408 55.7996 10.7799 56.2105 10.9828 56.3687C11.5967 56.847 13.8922 58.139 15.1898 58.7367C16.2671 59.2328 17.052 59.5446 19.0279 60.2616C20.6678 60.8567 23.8513 61.5235 25.7042 61.6598L26.9724 61.7533L26.2276 60.7212C25.0068 59.0295 25.1695 59.1261 23.3588 59.0182C20.8543 58.8691 17.2635 57.8896 15.5224 56.8806C15.2254 56.7086 14.9276 56.5678 14.8606 56.5678C14.7938 56.5678 14.6441 56.5069 14.5283 56.4324C11.8108 54.6853 11.6906 54.5962 10.3193 53.3079C8.80172 51.8823 7.83034 50.5876 6.49068 48.2049C6.33367 47.9257 6.20178 47.6129 6.19759 47.5097C6.1934 47.4065 6.07442 47.0719 5.93311 46.766C5.48127 45.7875 4.9879 42.8165 4.98633 41.0657C4.98441 38.6614 5.83768 34.4771 6.55872 33.3568C6.63513 33.238 6.92037 32.7655 7.19252 32.3067C8.02329 30.9068 8.68676 30.2052 10.1327 29.198C11.8364 28.0113 13.8247 27.5358 16.3742 27.7053C18.4897 27.8458 19.7603 28.3253 21.3822 29.5955C22.1146 30.169 22.9691 30.9511 23.281 31.3334C23.9291 32.1276 25.4281 34.5658 25.9448 35.6664C26.1362 36.0743 26.3157 36.4081 26.3435 36.4081C26.3712 36.4081 26.7308 35.9857 27.1425 35.4696C27.5542 34.9536 28.0851 34.3634 28.322 34.1583C28.7098 33.8227 28.7328 33.7395 28.5526 33.3241C28.2089 32.5325 26.2555 29.8436 25.3893 28.9699C22.1097 25.6622 17.4712 24.1745 12.8347 24.9437ZM87.9318 25.2327C87.2833 25.5035 85.5302 25.7975 83.0539 26.0508C81.9985 26.1588 80.5011 26.3124 79.7263 26.3924C78.3766 26.5317 76.1571 26.6405 68.3122 26.9525C60.2868 27.2716 51.0196 26.9877 43.5392 26.1934C41.2615 25.9516 39.2601 25.6292 38.1776 25.3296C37.4479 25.1277 37.4343 25.13 37.0011 25.5183C36.3638 26.0897 36.2734 26.5054 36.6646 27.0681C37.5365 28.3228 41.8418 29.2356 50.1686 29.931C50.6964 29.9751 53.6011 30.0764 56.6236 30.1563C66.4902 30.4165 77.6208 29.9698 82.7218 29.1085C83.3842 28.9967 84.0832 28.905 84.2751 28.9048C84.7259 28.9043 86.8901 28.3835 87.6724 28.0872C88.586 27.7411 89.3838 27.1294 89.5076 26.6802C89.6282 26.2431 89.324 25.6488 88.7783 25.2552C88.4759 25.0372 88.4046 25.0353 87.9318 25.2327ZM14.2185 28.8954C11.6023 29.2687 9.43308 31.0766 8.05522 34.0321C6.4284 37.5216 6.07216 44.0382 7.34395 47.0441C7.87239 48.2926 8.44426 49.3958 8.89384 50.0333C9.13651 50.3774 9.48856 50.8779 9.67628 51.1455C10.3821 52.152 12.3245 53.8927 13.8655 54.8994C15.4294 55.9212 17.2022 56.7524 19.1151 57.361C20.0591 57.6614 23.3358 58.3752 23.7702 58.3752C23.9297 58.3752 23.8688 58.102 23.5553 57.4095C21.7514 53.4239 21.3978 48.2701 22.6202 43.7768C23.0869 42.0614 24.083 39.7385 24.9084 38.4408L25.2514 37.9013L24.7733 36.8419C23.6359 34.3215 21.7044 31.563 20.2713 30.4122C18.7055 29.1549 16.4177 28.5816 14.2185 28.8954ZM37.0843 29.1878C36.8444 29.3403 36.0594 29.8297 35.3397 30.2753C33.8872 31.1747 31.7084 32.9407 30.346 34.3226C25.1819 39.5612 22.8599 46.631 24.1683 53.1312C24.6308 55.4287 25.1392 56.5945 26.9021 59.4009C27.7246 60.7103 28.5587 62.1239 28.7555 62.5426C30.0198 65.2305 34.9193 69.2556 39.075 71.0205C42.1748 72.337 45.9937 73.0891 52.1749 73.6006C65.1788 74.6769 78.1852 73.9657 84.5368 71.8313C86.2123 71.2684 90.718 69.1244 91.1662 68.6767C91.2142 68.6288 91.5282 68.4117 91.8641 68.1942C93.9425 66.848 95.9582 65.0806 97.5713 63.1898C99.0964 61.4018 99.9701 59.8655 101.298 56.6373C102.209 54.4203 102.721 49.7663 102.36 46.9746C101.911 43.5002 100.117 39.2138 97.9961 36.5472C96.558 34.7395 94.8982 33.1136 93.1861 31.8355C92.7138 31.4829 92.172 31.0753 91.9816 30.9297C91.3707 30.462 88.6725 28.9004 88.4768 28.9012C88.3728 28.9018 88.0881 28.9852 87.844 29.0867C86.7987 29.5214 82.0859 30.4573 80.0009 30.644C79.4732 30.6912 78.7666 30.7838 78.4308 30.8497C78.095 30.9155 75.9753 31.1136 73.7204 31.2899C68.344 31.7101 58.8933 31.7466 53.745 31.3672C46.7894 30.8545 40.008 29.8641 38.1438 29.0888C37.5843 28.8562 37.6094 28.8538 37.0843 29.1878ZM88.2877 32.0151C87.5009 32.2918 87.0839 32.7386 87.0839 33.3048C87.0839 33.9236 87.7812 34.4617 88.5835 34.4617C89.5617 34.4617 89.9332 33.6208 89.1546 33.1691C88.6942 32.9021 88.5469 33.0592 88.9855 33.3494C89.5753 33.7395 89.1214 34.1543 88.2873 33.9874C87.9468 33.9193 87.8515 33.8113 87.8515 33.4937C87.8515 32.9817 88.4026 32.6542 89.2646 32.6542C90.0795 32.6542 90.3857 32.9487 90.3646 33.7117C90.3362 34.7399 89.423 35.4569 86.6303 36.6439C82.7535 38.2917 81.1417 39.705 80.7117 41.8333C80.6152 42.3107 80.4957 42.7337 80.4461 42.7733C80.3682 42.8353 79.901 42.0851 79.0365 40.5096C78.9106 40.2802 78.7277 39.6303 78.6302 39.0654C78.4305 37.9091 78.245 37.6565 77.808 37.9455C76.9092 38.54 76.0817 41.0058 76.091 43.0615C76.0959 44.1099 76.0472 44.4467 75.9122 44.3007C75.5379 43.8965 74.2937 43.402 72.8482 43.0829C71.7658 42.8439 71.0231 42.5671 70.0987 42.058C68.5244 41.1907 68.2611 41.2738 68.7322 42.489C68.9633 43.0851 69.2794 43.4858 69.9675 44.0549C70.997 44.9062 71.3353 45.3683 71.6437 46.3442C71.9438 47.2938 72.6303 47.8088 73.5962 47.8088C74.0142 47.8088 74.7215 47.7095 75.1679 47.5883C75.8195 47.4114 76.0983 47.399 76.5793 47.5256C76.909 47.6122 77.2234 47.7759 77.278 47.8894C77.3328 48.0028 77.4716 48.7714 77.587 49.5973C77.8347 51.373 77.6075 53.3314 77.0468 54.2544C76.5498 55.0728 75.5238 55.916 74.5069 56.342C73.7948 56.6404 73.4007 56.7068 72.3452 56.7068C70.7526 56.7068 69.7693 56.3578 68.856 55.4683C68.2358 54.8642 68.2254 54.8332 68.2405 53.6601C68.2541 52.6198 68.3187 52.3801 68.7426 51.7954C70.0312 50.0184 71.7266 49.5169 73.3433 50.4342C74.3113 50.9837 74.8806 52.4036 74.4122 53.1012C74.1585 53.4788 73.1979 53.4722 73.0732 53.092C73.023 52.939 72.8806 52.8139 72.7569 52.8139C72.4558 52.8139 72.6152 53.2676 73.0458 53.6359C73.4895 54.0154 74.4704 54.0236 74.9373 53.6516C76.0908 52.7323 75.0051 50.6764 72.9462 49.8815C72.0599 49.5392 71.4359 49.5464 70.5443 49.9088C69.5467 50.3144 68.7018 51.065 68.1354 52.0492C67.6941 52.8159 67.6484 53.0589 67.5701 55.0475C67.5059 56.6804 67.4157 57.3116 67.2029 57.6196L66.9208 58.0276L67.0207 57.4715C67.1723 56.6291 66.8009 54.3833 66.3131 53.1925C65.5808 51.4046 63.8385 48.8731 63.3402 48.8731C62.8725 48.8731 60.966 51.7043 60.2797 53.4187C60.0316 54.038 59.8572 54.9375 59.7806 55.9908C59.668 57.5403 59.6537 57.5865 59.4505 57.0544C59.3336 56.7485 59.1881 55.8413 59.1274 55.0384C58.9974 53.3215 58.7059 52.7401 57.5484 51.8889C56.64 51.2213 55.118 50.7284 53.9643 50.7284C51.5146 50.7284 49.4944 52.6647 50.5741 53.9778C51.4083 54.9926 53.4833 54.6491 53.4833 53.4961C53.4833 53.2206 53.5447 53.2033 54.2202 53.2894C55.1337 53.4058 55.5416 53.6877 55.6107 54.2504L55.6641 54.6846L55.8601 54.3372C56.0055 54.08 56.0055 53.8642 55.8601 53.5062C55.6094 52.8877 54.768 52.5364 53.5372 52.5361C53.0392 52.536 52.5831 52.4733 52.5238 52.3968C52.3094 52.1203 52.0657 52.2664 52.1198 52.6392C52.1559 52.8896 52.3338 53.0809 52.6379 53.1964C53.4741 53.5144 52.8261 54.2266 51.9113 53.9953C51.5474 53.9032 51.0409 53.263 51.0409 52.8951C51.0409 52.4152 51.6447 51.7165 52.329 51.405C53.2824 50.9709 54.9852 50.9704 56.0515 51.4039C58.2049 52.2793 59.2068 54.3124 58.0629 55.4858C57.2647 56.3046 56.2628 56.6383 54.6234 56.6315C53.4026 56.6263 53.0692 56.5665 52.0404 56.1682C50.0308 55.3899 49.0174 54.4869 48.5882 53.092C48.3248 52.2361 48.3199 50.0933 48.5774 48.5039C48.7407 47.497 48.7751 47.441 49.5772 46.8747L50.408 46.2883L51.117 46.7456C52.7244 47.7822 54.8406 48.183 56.7644 47.8152C57.9062 47.5969 59.4967 46.4759 60.1527 45.4269C61.2172 43.7247 61.4027 41.3641 60.6324 39.3188C60.1127 37.9389 60.2324 37.3884 61.2237 36.5983C62.0431 35.9454 62.9074 35.7339 63.9264 35.9368C64.3761 36.0265 64.5789 36.1565 64.6612 36.4081C64.7589 36.7062 64.7936 36.7211 64.9051 36.5121C65.2922 35.7871 64.4346 35.1247 63.1087 35.1247C61.0824 35.1247 59.3608 36.7134 59.6332 38.3319C59.704 38.7521 59.6536 38.8986 59.3943 39.0276C59.2138 39.1176 59.066 39.3446 59.066 39.5323C59.066 39.72 58.8964 40.2355 58.689 40.6781C58.125 41.8821 56.8317 42.8254 54.4429 43.775C52.2986 44.6274 51.1514 45.1785 49.9998 45.9096C49.5711 46.1817 49.1957 46.3845 49.1655 46.3605C49.1353 46.3364 49.1994 45.5923 49.3079 44.707C49.5441 42.7793 49.3359 40.9148 48.7055 39.3083C48.0645 37.6757 47.9992 37.6267 47.6388 38.5081C47.1128 39.7937 44.4319 43.4988 44.0277 43.4988C43.951 43.4988 43.8882 43.2466 43.8882 42.9382C43.8882 41.856 42.9606 40.1562 41.8819 39.2622C41.1624 38.6657 38.7908 37.2423 38.5168 37.2423C38.4332 37.2423 37.8818 36.8939 37.2914 36.468C35.6347 35.2733 35.0971 34.0294 35.9114 33.275C36.3074 32.908 36.3097 32.9077 36.7226 33.1742C37.047 33.3835 37.1115 33.5221 37.0201 33.8125C36.8971 34.2029 36.3176 34.3347 36.153 34.0098C36.1047 33.9143 36.0588 33.9695 36.0513 34.1326C36.0253 34.6916 37.2186 34.6239 37.6079 34.0443C38.0573 33.3751 37.2935 32.4287 36.1933 32.2911C35.3034 32.1799 34.156 32.7197 33.6328 33.4958C33.2848 34.012 33.2293 34.2551 33.2966 34.9683C33.3472 35.5023 33.528 36.0358 33.779 36.3919C34.2783 37.0998 34.3785 37.0531 34.0332 36.2733C33.7251 35.5775 33.692 34.643 33.9558 34.0884C34.1478 33.6842 34.7799 33.0713 35.0046 33.0713C35.0747 33.0713 35.0902 33.4392 35.0391 33.8889C34.961 34.576 35.0177 34.8257 35.3943 35.453C35.9446 36.3697 36.0644 36.4849 37.2308 37.2151L38.1624 37.7984H37.1279C34.7281 37.7984 31.673 38.7465 30.2942 39.919C29.457 40.6308 29.368 40.7398 29.039 41.4575C28.143 43.411 29.2702 44.7617 31.6344 44.5672C32.4203 44.5026 33.9109 43.982 33.7277 43.8362C33.6946 43.8098 33.1998 43.8868 32.6281 44.0075C30.7803 44.3975 29.4261 43.8739 29.4139 42.7644C29.4076 42.1937 29.8174 41.2791 30.1564 41.1074C30.5641 40.9009 32.1098 41.0015 32.8973 41.2856C33.3291 41.4415 34.0515 41.882 34.5025 42.2644C35.5768 43.1752 36.0625 44.2005 36.0826 45.5998C36.1023 46.9671 35.6131 47.8256 34.4674 48.4344C33.753 48.814 33.5189 48.8578 31.8645 48.921C29.9246 48.9953 29.5223 49.1622 30.4062 49.5266C31.3436 49.9129 32.1161 49.9415 33.3762 49.6365C34.7469 49.3046 35.797 48.661 36.4111 47.7761C36.7743 47.2529 36.8223 47.0032 36.8193 45.6538C36.8163 44.2313 36.778 44.0602 36.2703 43.2069C35.3193 41.6089 34.2009 40.8392 32.147 40.3696C30.983 40.1035 31.0046 40.0046 32.3547 39.419C33.9318 38.735 35.2858 38.4566 37.3645 38.3889C39.1935 38.3294 39.34 38.345 39.9813 38.6684C42.7961 40.0873 44.1608 43.1727 42.9164 45.3031C42.0665 46.7584 41.7947 47.8583 41.7947 49.8414C41.7947 52.3555 42.5717 55.2589 43.7777 57.2513C44.0131 57.64 44.171 57.9581 44.1286 57.9581C44.0862 57.9581 43.5925 57.8348 43.0312 57.6842C40.3788 56.9721 38.7191 56.7759 35.427 56.7854C32.7621 56.793 32.0754 56.8404 30.891 57.0985C29.2269 57.4611 28.3574 57.8048 28.3724 58.0939C28.3783 58.2105 28.9385 58.6811 29.6172 59.1399C30.296 59.5987 32.5873 61.3308 34.7092 62.9889C39.0236 66.3604 39.5211 66.7021 41.0096 67.3168C41.9869 67.7204 42.1809 67.7495 43.9314 67.7545C44.9626 67.7574 45.8065 67.7675 45.8068 67.777C45.807 67.7863 45.6406 68.0943 45.437 68.4612C44.9729 69.297 45.0656 70.4086 45.6566 71.096C46.1352 71.6525 47.3279 72.1395 48.2107 72.1388C49.4481 72.1379 50.5676 71.2301 50.0017 70.6867C49.7164 70.4129 48.8503 70.2825 48.4743 70.457C48.1854 70.5909 48.1889 70.6018 48.5216 70.6059C48.7191 70.6081 49.0331 70.7039 49.2194 70.8186C49.554 71.0248 49.554 71.0296 49.2091 71.2417C48.2857 71.8096 47.2976 71.5895 46.5083 70.6399C45.8751 69.8779 45.8553 69.5113 46.3979 68.5828C47.1681 67.2645 49.3202 66.2517 51.7304 66.0731C52.8834 65.9878 52.96 65.9995 52.96 66.2614C52.96 66.5153 52.5392 67.0473 51.9577 67.5288C51.834 67.6311 51.0474 67.8984 50.2093 68.1226C49.3714 68.3469 48.4207 68.6386 48.0969 68.7708C47.3372 69.0811 46.6355 69.9102 46.71 70.4098L46.7667 70.79L47.2028 70.2481C47.699 69.6318 48.7177 69.179 50.1617 68.933C51.7285 68.6662 52.1714 68.3677 52.9867 67.0298C53.326 66.473 53.5887 66.1962 53.718 66.2592C53.8288 66.3133 54.1943 66.5066 54.5301 66.6889C55.3509 67.1344 57.2881 67.8294 57.709 67.8294C58.2295 67.8294 58.013 68.0613 57.1562 68.4215C55.6513 69.0543 55.1084 70.634 56.0566 71.6205C56.5032 72.0853 57.2345 72.3941 57.461 72.2136C57.5151 72.1705 57.3095 71.9299 57.0042 71.6788C56.5486 71.3042 56.4491 71.1111 56.4491 70.601C56.4491 69.7816 57.0793 69.0269 57.9559 68.7964C59.3046 68.4416 61.6316 68.8744 62.8812 69.7123L63.3576 70.0318L64.2913 69.5331C65.2266 69.0336 66.6772 68.6699 67.7508 68.6658C68.6271 68.6625 69.4406 68.9975 69.8558 69.533C70.5237 70.3943 70.2421 71.2065 69.0282 71.9201C68.7186 72.1023 68.5287 72.2795 68.6067 72.314C68.9232 72.4539 69.8396 72.1183 70.4009 71.6568C70.9249 71.2258 70.9991 71.0754 71.0071 70.4246C71.0197 69.4226 70.3335 68.5977 69.2915 68.362C68.3545 68.15 68.183 68.0185 68.6872 67.8984C68.9127 67.8447 70.0669 67.4319 71.2519 66.9813C72.437 66.5306 73.4771 66.1966 73.5634 66.2392C73.6498 66.2817 73.7204 66.4399 73.7204 66.5908C73.7204 67.0243 74.1524 67.7262 74.6709 68.1354C75.1468 68.5111 75.3699 68.5862 77.2604 69.0063C78.2942 69.236 79.652 70.0374 79.652 70.4176C79.652 70.5234 79.7305 70.61 79.8265 70.61C80.1468 70.61 80.006 69.9854 79.5705 69.4747C79.0084 68.8156 78.3261 68.5015 76.4692 68.0473C74.8794 67.6584 74.3473 67.3179 73.9157 66.413C73.6828 65.9251 73.8665 65.8831 75.2333 66.1114C76.6 66.3397 78.3223 66.9839 79.2412 67.6108C80.1583 68.2365 80.7507 69.2856 80.5313 69.8954C80.1216 71.0338 78.8511 71.6743 77.734 71.3055C77.0583 71.0825 77.1046 70.7129 77.8223 70.5989L78.3436 70.5161L77.8626 70.4087C77.5261 70.3337 77.2509 70.3695 76.9467 70.5284C76.1768 70.9304 76.4629 71.5652 77.5733 71.9193C78.2398 72.1319 78.3711 72.1326 79.2534 71.9281C81.2211 71.4723 82.1284 69.8717 81.2221 68.4551C81.0302 68.155 80.8732 67.8995 80.8732 67.887C80.8732 67.8745 81.5208 67.8358 82.3125 67.801C84.7844 67.6925 85.9627 67.0334 88.8318 64.1549C89.828 63.1554 90.7018 62.2747 90.7739 62.1975C91.5408 61.3755 93.6823 59.4763 94.3419 59.0331C94.8021 58.7238 95.1788 58.4248 95.1788 58.3688C95.1788 58.3128 95.0352 58.1258 94.8598 57.9531L94.5409 57.6393L92.5183 57.8921C90.6791 58.1219 90.1648 58.1297 86.8503 57.9766C84.8454 57.884 83.0729 57.8487 82.9114 57.898C82.5333 58.0137 82.5375 57.9744 83.0442 56.6445C83.6527 55.0473 84.1879 52.3651 84.1879 50.9132C84.1879 49.1531 83.6853 47.689 82.3394 45.5286C81.3896 44.0039 81.2221 43.6247 81.2221 42.9981C81.2221 42.0279 81.5241 40.9413 81.9672 40.3176C82.5466 39.5021 83.8285 38.5327 84.7825 38.1884C86.41 37.6013 89.9011 37.8225 92.4747 38.6757C93.5655 39.0374 94.6763 39.6056 94.5673 39.7461C94.5219 39.8045 94.1896 39.8959 93.8286 39.949C93.1857 40.0438 91.9077 40.5938 91.1718 41.0924C90.5628 41.505 89.8184 42.5411 89.5033 43.4145C89.0977 44.5394 89.2088 46.5386 89.7207 47.324C90.7072 48.8375 93.1292 49.8894 94.9998 49.6169C95.8284 49.4961 96.1412 49.3089 96.001 49.0176C95.9253 48.8604 95.6444 48.8323 94.6891 48.8868C93.6517 48.946 93.3506 48.9077 92.636 48.6257C91.3935 48.1355 90.5572 47.3743 90.2252 46.4315C89.874 45.434 89.8733 44.9425 90.2214 43.8664C90.7128 42.3469 91.4687 41.5605 92.998 40.978C94.9411 40.2379 95.9684 40.5026 96.4239 41.861C96.6128 42.4243 96.6042 42.5836 96.3635 42.9861C95.885 43.7859 94.4337 44.1307 93.1024 43.7607C92.2318 43.5189 92.2634 43.7248 93.146 44.0453C94.696 44.608 96.3157 44.3089 96.932 43.3461C97.3605 42.6768 97.3616 42.1597 96.9362 41.2676C96.4938 40.3398 95.8841 39.7218 94.7562 39.0577C93.1847 38.1325 91.266 37.6 88.5349 37.331L86.9274 37.1728L87.7821 36.8377C89.0131 36.355 90.3013 35.505 90.7887 34.8536C91.1427 34.3806 91.1952 34.1694 91.1144 33.545L91.0179 32.8005L91.4379 33.0199C92.565 33.6084 92.862 34.8022 92.1338 35.8172C91.6769 36.4541 91.6943 36.5485 92.1981 36.1648C93.1154 35.4662 93.3285 34.3326 92.7144 33.4193C92.2714 32.7607 92.0474 32.605 90.9045 32.1614C89.9359 31.7854 89.0771 31.7373 88.2877 32.0151ZM62.3081 33.6086C62.257 33.6746 62.616 33.7665 63.1063 33.8127C64.5595 33.9499 65.6156 34.498 66.3435 35.4929C66.8648 36.2054 66.354 37.5193 65.3798 37.9722C64.8151 38.2347 63.3423 38.3041 63.1657 38.0765C63.0124 37.8787 62.7296 37.9042 62.7296 38.116C62.7296 38.4278 63.8097 38.8252 64.6575 38.8252C67.5186 38.8252 68.4581 35.9891 66.1169 34.4194C65.0919 33.7323 62.6202 33.2061 62.3081 33.6086ZM88.7589 39.7442C87.7797 40.0983 86.5605 40.9014 86.1404 41.4689C85.2167 42.7164 84.9998 43.4765 84.9861 45.5147C84.9639 48.8144 85.8557 50.5683 88.1896 51.815C88.8074 52.1449 89.5924 52.5898 89.9342 52.8038C90.61 53.2266 92.1906 53.9258 92.4733 53.9269C92.9924 53.9287 94.8427 54.68 95.5879 55.1915C97.2607 56.3399 97.7675 58.2238 96.8138 59.749C96.3722 60.4553 96.0992 60.6287 94.9171 60.9533C94.5994 61.0406 94.6119 61.0615 95.0568 61.186C95.7375 61.3765 96.441 61.1157 97.0099 60.4615C98.9718 58.2053 97.7553 55.1251 94.4342 53.9398C93.7847 53.708 92.9603 53.4543 92.6024 53.376C92.2442 53.2978 91.7229 53.1127 91.4436 52.9648L90.9361 52.6959L91.6181 52.6105C94.605 52.2372 95.9319 51.8203 97.3569 50.8067C98.1595 50.2358 98.2785 50.1976 99.4129 50.1466C100.442 50.1003 100.665 50.0427 100.95 49.7499C101.415 49.2718 101.67 48.4668 101.483 48.0675C101.349 47.7805 101.304 47.8374 101.125 48.5201C100.871 49.4918 100.407 49.862 99.292 49.9839C98.5067 50.0696 98.4638 50.0586 98.6245 49.8111C99.4901 48.4771 99.5566 47.76 98.8656 47.2093C98.4188 46.8532 98.1032 47.0086 98.3256 47.4752C98.756 48.3771 98.3354 49.3508 97.1013 50.3086C94.0666 52.6643 89.3396 52.6832 87.169 50.3485C86.0094 49.1011 85.6708 48.0084 85.6708 45.5147C85.6708 43.6264 85.71 43.3569 86.0853 42.6646C87.0255 40.9306 88.7345 39.8873 91.1662 39.5629C91.4061 39.5309 91.1313 39.4976 90.5556 39.4888C89.8543 39.4782 89.2613 39.5625 88.7589 39.7442ZM47.2337 40.5003C46.915 40.9917 46.1758 41.9769 45.5914 42.6896C43.489 45.2531 42.6722 46.7977 42.4201 48.6873C42.2919 49.6482 42.4311 49.6242 43.1882 48.5549C43.7366 47.7807 45.8145 46.0013 46.1704 46.0013C46.2716 46.0013 46.0014 46.2985 45.5699 46.6617C43.765 48.1812 42.4925 50.0345 42.4925 51.1436C42.4925 52.1019 43.2926 54.7761 43.9688 56.078C45.1715 58.3933 46.5144 59.8416 50.879 63.5298C51.1119 63.7267 51.7736 64.1959 52.3494 64.5726C52.9251 64.9492 53.4354 65.2887 53.4833 65.3272C54.0749 65.8013 56.9692 67.0272 58.2398 67.3418C58.7422 67.4661 59.2612 67.6033 59.3931 67.6466C60.0227 67.8529 59.491 67.4353 55.9992 64.9813C54.4982 63.9264 50.5495 60.8048 49.3096 59.693C47.4583 58.0328 45.8147 55.9695 45.5464 54.9689C45.44 54.5724 45.448 54.5652 45.7081 54.8217C45.8585 54.9702 45.9834 55.1891 45.9855 55.3083C45.9876 55.4276 46.1428 55.6815 46.3306 55.8726C46.5183 56.0638 46.6735 56.2765 46.6756 56.3455C46.6833 56.5966 49.3147 59.0409 51.2552 60.5997C53.2112 62.1709 54.0084 62.7785 56.2813 64.429C59.2546 66.5881 60.8912 67.7807 61.186 68.0032C61.6563 68.3581 61.5803 68.0508 61.0302 67.3746C60.5564 66.792 55.4786 61.6717 54.4528 60.742C54.1595 60.4761 53.1417 59.6315 52.1911 58.865C49.2976 56.5319 48.382 55.365 47.7159 53.1615C47.311 51.8218 47.292 50.7029 47.6428 48.8515C48.605 43.7749 48.6359 43.5498 48.5401 42.317C48.4469 41.1185 48.0914 39.6053 47.9029 39.6064C47.8538 39.6067 47.5526 40.0089 47.2337 40.5003ZM59.8613 39.8144C58.8205 42.1322 57.5433 43.1535 53.9704 44.5247C53.039 44.8823 52.2297 45.2356 52.1719 45.3099C51.8686 45.7012 55.7131 45.1873 56.8123 44.6896C57.6232 44.3225 58.6028 43.6281 59.0126 43.1295C59.4618 42.5831 59.6202 42.7665 59.2281 43.3791C58.6501 44.2819 57.353 45.2247 56.2272 45.5605C55.0969 45.8975 53.4284 46.1377 52.2082 46.1393C51.7468 46.14 51.4102 46.1932 51.4603 46.2577C51.6472 46.4988 53.774 47.2252 54.5472 47.3121C56.9639 47.5838 59.268 46.1799 60.0152 43.9798C60.4343 42.7466 60.5401 40.9201 60.2366 40.162C60.0302 39.6463 59.9643 39.5851 59.8613 39.8144ZM77.3499 40.4748C77.2157 40.8313 77.1325 41.7828 77.1398 42.8731C77.1498 44.3571 77.2338 44.9293 77.61 46.0709C78.4751 48.6968 78.6053 49.3345 78.6053 50.948C78.6053 53.3624 77.8964 55.73 76.7771 57.0544C75.7496 58.2701 74.2799 59.582 70.3133 62.8242C68.5825 64.2389 66.8107 65.7404 66.3758 66.161C65.4473 67.0589 64.4421 68.2674 64.5513 68.3543C64.5933 68.3879 65.3625 67.8924 66.2605 67.2534C67.1586 66.6144 68.3573 65.7787 68.9244 65.3963C76.3361 60.3997 79.0573 57.9304 80.2466 55.1228C80.3078 54.9781 80.3952 54.8893 80.4406 54.9254C80.6194 55.0678 79.9372 56.5476 79.2855 57.4316C77.73 59.5411 74.4771 62.3418 70.5568 64.9466C65.8437 68.0783 65.5495 68.3323 67.3983 67.6741C75.9177 64.641 78.1616 63.2215 80.6677 59.2789C81.6377 57.7532 81.8619 57.2826 82.3866 55.6705C82.8683 54.1906 83.0091 52.5694 82.6841 52.2444C82.5768 52.1371 82.3899 51.799 82.269 51.4931C81.906 50.5741 80.8383 49.1397 79.8371 48.2259C79.066 47.5221 79.1803 47.3729 79.9816 48.0373C81.026 48.9036 81.8425 49.8061 82.3148 50.6165C82.5511 51.0222 82.8353 51.5105 82.9463 51.7017C83.1084 51.9807 83.1333 51.732 83.0733 50.4409C82.9742 48.309 82.5398 47.329 80.3423 44.2798C79.3811 42.9461 78.4498 41.4582 78.2237 40.895C78.0018 40.3423 77.7644 39.8886 77.6962 39.887C77.6278 39.8853 77.472 40.1499 77.3499 40.4748ZM35.648 40.3829C36.5681 40.6441 37.1806 40.9358 37.8824 41.4469C39.5304 42.6473 40.0804 43.8904 40.0824 46.4184C40.0845 49.3551 39.2769 50.8593 37.1715 51.8411C36.3212 52.2376 33.7488 52.3913 32.4179 52.1252C28.9519 51.4321 26.5345 49.178 27.5631 47.598C28.1465 46.7019 29.4528 46.4724 31.111 46.9747C32.294 47.333 33.1105 47.3262 34.0557 46.95C34.8748 46.6239 35.1049 46.3378 34.3689 46.5609C33.7051 46.762 32.1712 46.7253 31.3272 46.488C29.7841 46.054 28.5795 46.365 26.9221 47.6252C26.4675 47.971 26.528 48.9296 27.0573 49.762L27.4978 50.4548L26.752 50.3718C26.3419 50.3261 25.8028 50.2278 25.5542 50.1533C25.0111 49.9906 24.5289 49.244 24.5083 48.534L24.4933 48.0173L24.3314 48.4344C24.0856 49.0682 24.3067 49.81 24.8696 50.2399C25.2822 50.5548 25.5704 50.6324 26.5589 50.6942C27.5929 50.7589 27.9085 50.8506 28.9422 51.3863C30.8153 52.3571 32.2743 52.7081 34.4674 52.7159C36.0808 52.7216 36.4137 52.6796 37.2588 52.3643C38.9069 51.7494 39.8828 50.7382 40.4081 49.1011C41.051 47.098 40.7064 43.8965 39.6902 42.4322C38.7996 41.1488 36.9437 40.1582 35.2637 40.0695L34.3802 40.023L35.648 40.3829ZM69.0035 42.0741C69.2611 42.7616 69.6552 43.2277 70.6046 43.9676C71.1744 44.4116 71.699 44.992 71.9474 45.4531C72.7915 47.0198 72.9382 47.1799 73.5702 47.224L74.1566 47.2647L73.6008 46.988C73.2949 46.8359 72.9513 46.5721 72.837 46.4018L72.629 46.0923L73.0896 46.3809C73.62 46.7135 75.0013 47.0103 75.6395 46.929C75.8794 46.8984 76.2626 46.929 76.4912 46.997C76.8945 47.1171 76.9034 47.1046 76.7967 46.5726C76.472 44.9541 75.5489 44.1813 73.3031 43.6472C71.7646 43.2813 70.7255 42.8752 70.0027 42.3574C69.6966 42.1382 69.3143 41.8988 69.1533 41.8254C68.8977 41.7091 68.8785 41.7408 69.0035 42.0741ZM88.0726 43.5302C87.2683 44.333 87.0841 45.836 87.6455 47.0143C88.1736 48.1223 89.0595 48.8298 90.7292 49.4769C92.7315 50.2527 93.4281 50.1809 91.6655 49.3802C90.9591 49.0594 90.1387 48.6186 89.8424 48.4008C88.5206 47.4288 87.8144 45.6935 88.1493 44.2405C88.3526 43.3588 88.3419 43.2613 88.0726 43.5302ZM37.7268 45.0309C37.9388 47.5053 37.1853 48.6046 34.3558 49.9497C33.1157 50.5391 33.6991 50.5467 35.2471 49.9614C37.0915 49.2639 38.0042 48.4939 38.3727 47.3245C38.5276 46.833 38.6544 46.283 38.6544 46.1023C38.6544 45.6401 38.1914 44.4507 37.8835 44.122C37.6509 43.8737 37.6354 43.9641 37.7268 45.0309ZM94.7138 46.5849C93.5692 47.0736 93.1828 47.1692 92.3377 47.1735C91.3501 47.1784 91.3409 47.182 91.9016 47.344C92.2168 47.435 92.6763 47.5143 92.9227 47.5201C93.6932 47.5383 95.069 47.1352 95.6149 46.7313C95.9027 46.5183 96.3345 46.2712 96.5744 46.1821L97.0106 46.0201L96.5456 46.0108C96.2899 46.0055 95.4656 46.264 94.7138 46.5849ZM62.9372 49.9538C62.3634 50.621 61.4308 52.2026 60.9634 53.3005C60.5927 54.1714 60.5496 54.5148 60.5525 56.5678C60.5559 58.7678 60.5794 58.9216 61.1288 60.3217C61.4438 61.1246 61.8578 62.1882 62.049 62.6852C62.2401 63.1822 62.5787 64.4023 62.8013 65.3963C63.1591 66.9944 63.2193 67.1394 63.32 66.6476C63.661 64.9823 64.6073 62.1828 65.1528 61.2254C65.5661 60.4996 66.0612 59.0141 66.2374 57.9706C66.4907 56.4709 66.2184 54.3675 65.5973 53.0247C65.1225 51.9982 64.0722 50.3043 63.6012 49.8054L63.3205 49.508L62.9372 49.9538ZM72.975 51.1828C72.9253 51.2862 72.5427 51.4499 72.1249 51.5465C71.0258 51.8007 70.4047 52.4048 70.4096 53.2152C70.4122 53.635 70.5307 53.9768 70.7527 54.2042L71.0921 54.5518L70.9874 53.8297C70.89 53.1579 70.92 53.0778 71.4159 52.6827C71.7672 52.4027 72.1229 52.2578 72.4588 52.2578C73.0744 52.2578 73.5954 51.8408 73.5163 51.4112C73.4499 51.0497 73.1084 50.9057 72.975 51.1828ZM75.9919 56.2869C75.4491 56.7195 74.0615 57.2276 73.1487 57.3283C71.9729 57.4579 70.5544 57.1848 69.519 56.6295L68.6346 56.1553L68.7555 56.6049C69.0401 57.6624 71.0982 60.5997 71.5547 60.5997C71.676 60.5997 72.3895 60.0568 73.1404 59.3933C73.8912 58.7299 74.6233 58.086 74.7672 57.9627C75.1773 57.6112 76.5453 56.0117 76.4357 56.0117C76.3816 56.0117 76.1819 56.1355 75.9919 56.2869ZM57.9964 56.3231C57.865 56.4251 57.4435 56.6627 57.0597 56.851C56.4467 57.1519 56.1604 57.1934 54.7045 57.1934C53.3321 57.1934 52.8672 57.1337 52.0004 56.8459C51.4247 56.6547 50.9275 56.4514 50.8956 56.394C50.814 56.2477 50.5176 56.2636 50.5176 56.4143C50.5176 56.4827 51.2438 57.1323 52.1313 57.8576C53.0188 58.5831 54.1585 59.531 54.6639 59.9644C55.1693 60.3977 55.6611 60.7136 55.757 60.6665C56.134 60.4807 57.5157 58.3982 57.9477 57.3646C58.4121 56.2532 58.4243 55.9905 57.9964 56.3231ZM67.6723 58.3587C67.3763 59.0178 66.6209 60.558 65.9937 61.7815C64.9311 63.8546 63.966 66.6838 64.1617 67.1519C64.1996 67.2424 64.593 66.9157 65.0359 66.4259C65.9934 65.3676 66.3175 65.0791 69.041 62.8623C70.4101 61.7481 71.0849 61.1016 70.9999 60.9854C70.9288 60.8879 70.6591 60.5893 70.4003 60.3217C70.1418 60.054 69.8007 59.6474 69.6423 59.4179C69.4841 59.1885 69.2805 58.907 69.19 58.7923C69.0994 58.6776 68.8419 58.2636 68.6179 57.8721L68.2107 57.1605L67.6723 58.3587ZM32.8973 57.3637C31.7607 57.5278 29.6852 57.9601 29.5664 58.0575C29.4933 58.1176 30.0652 58.6046 30.8373 59.1399C31.6095 59.6752 33.5159 61.1142 35.074 62.3376C39.9138 66.1379 40.2962 66.3919 41.9178 66.8843C43.7409 67.4376 46.0319 67.2442 48.2714 66.3477C48.7191 66.1685 49.1721 66.022 49.278 66.022C49.7538 66.022 49.4059 65.7468 48.8194 65.6591C47.1584 65.4108 43.9907 64.3262 40.1373 62.6865C39.4657 62.4006 38.2488 61.8954 37.4332 61.5636C35.5034 60.7785 34.7851 60.2811 36.4254 60.8656C36.8357 61.0118 37.6818 61.2988 38.3055 61.5033C39.6455 61.9428 40.135 62.1113 41.533 62.614C42.1087 62.821 42.8152 63.0716 43.1031 63.1707C43.391 63.2698 43.9797 63.4763 44.4115 63.6294C46.8623 64.4982 48.166 64.8451 50.2911 65.1936C51.2044 65.3434 52.016 65.4659 52.0945 65.4659C52.173 65.4659 51.4348 64.8246 50.454 64.0408C48.3872 62.3892 47.1795 61.2957 45.8705 59.8914C44.7306 58.6684 44.6195 58.6045 42.9033 58.18C40.3995 57.5608 37.9439 57.2613 35.5397 57.2819C34.3263 57.2923 33.1372 57.3291 32.8973 57.3637ZM58.5426 57.5083C58.5426 57.8305 57.316 59.7411 56.5969 60.5391C56.1297 61.0574 56.0932 61.1643 56.2846 61.4538C56.4038 61.634 56.5505 61.8128 56.6107 61.851C56.6707 61.8893 56.9866 62.2021 57.3125 62.5462C57.6386 62.8903 57.9966 63.2344 58.1082 63.3109C58.3518 63.4777 60.8685 66.1253 61.5797 66.963C61.8568 67.2894 62.1164 67.5302 62.1565 67.4984C62.2928 67.3897 61.8481 64.7044 61.5665 63.9365C61.152 62.8055 60.3753 60.9577 59.7842 59.696C59.4976 59.0843 59.1773 58.3204 59.0726 57.9987C58.8695 57.3754 58.5426 57.0729 58.5426 57.5083ZM81.5916 59.3715C80.387 61.4537 78.304 63.5679 76.36 64.6816L75.5978 65.1183L76.36 65.2123C79.5869 65.61 82.6597 64.925 86.3686 62.9813C86.7524 62.7803 87.145 62.568 87.2409 62.5098C87.3369 62.4515 87.7205 62.2168 88.0937 61.9884C88.4667 61.7599 88.8451 61.573 88.9347 61.573C89.1921 61.573 87.8981 62.4975 86.3086 63.4493C83.5996 65.0716 80.9404 65.883 78.3322 65.883C77.7148 65.883 77.2112 65.9298 77.2131 65.9872C77.2185 66.1528 79.5208 66.9705 80.4576 67.1397C81.5421 67.3354 82.9473 67.199 84.1256 66.7837C85.238 66.3917 86.794 65.1707 88.5104 63.3427C89.1847 62.6246 89.8423 61.9478 89.9715 61.8388C90.101 61.7298 90.5978 61.2656 91.0759 60.8073C91.554 60.3491 92.3784 59.6068 92.9077 59.1578L93.8703 58.3416L93.0853 58.4627C92.1807 58.6023 89.7866 58.5996 85.3219 58.454L82.1816 58.3517L81.5916 59.3715ZM58.8463 69.9745C57.965 70.2252 57.6703 70.441 57.6703 70.8356C57.6703 71.2358 57.6813 71.2365 58.4971 70.8881C60.2059 70.1582 62.0679 70.8622 62.7249 72.487C62.8486 72.7928 62.9883 73.0964 63.0354 73.1614C63.0823 73.2265 63.3941 72.8351 63.7282 72.2918C64.4817 71.0662 65.0536 70.7142 66.4197 70.6355C67.2062 70.5902 67.5837 70.6418 68.1322 70.8695L68.8356 71.1617V70.8379C68.8356 70.3883 68.359 70.0897 67.3447 69.9036C66.6914 69.7839 66.295 69.7852 65.7207 69.9089C64.8044 70.1062 63.727 70.9294 63.4224 71.6649L63.2092 72.1799L62.813 71.4992C62.3081 70.6323 61.5557 70.0655 60.6993 69.9071C59.8214 69.7447 59.6298 69.7517 58.8463 69.9745ZM41.564 73.2038C41.3859 73.3456 41.4218 73.8919 41.6336 74.2623C41.7369 74.443 42.1884 74.7809 42.6368 75.0131C44.3465 75.8984 47.3168 76.4185 52.96 76.8203C58.0267 77.1811 69.1973 77.1822 73.546 76.8224C80.1192 76.2784 83.4855 75.4368 84.343 74.1235C84.5769 73.765 84.4151 73.0667 84.119 73.1573C82.7132 73.5871 78.338 74.3211 76.0756 74.5066C75.0202 74.593 73.5892 74.7207 72.896 74.7901C70.711 75.0089 61.967 75.0961 58.1937 74.9366C50.8789 74.6277 46.0978 74.108 41.9566 73.1716C41.8057 73.1375 41.6289 73.152 41.564 73.2038Z" fill="black"/>
<path fill-rule="evenodd" clip-rule="evenodd" d="M37.0843 29.1878C36.8444 29.3403 36.0594 29.8297 35.3397 30.2753C33.8872 31.1747 31.7084 32.9407 30.346 34.3226C25.1819 39.5612 22.8599 46.631 24.1683 53.1312C24.6308 55.4287 25.1392 56.5945 26.9021 59.4009C27.7246 60.7103 28.5587 62.1239 28.7555 62.5426C30.0198 65.2305 34.9193 69.2556 39.075 71.0205C42.1748 72.337 45.9937 73.0891 52.1749 73.6006C65.1788 74.6769 78.1852 73.9657 84.5368 71.8313C86.2123 71.2684 90.718 69.1244 91.1662 68.6767C91.2142 68.6288 91.5282 68.4117 91.8641 68.1942C93.9425 66.848 95.9582 65.0806 97.5713 63.1898C99.0964 61.4018 99.9701 59.8655 101.298 56.6373C102.209 54.4203 102.721 49.7663 102.36 46.9746C101.911 43.5002 100.117 39.2138 97.9961 36.5472C96.558 34.7395 94.8982 33.1136 93.1861 31.8355C92.7138 31.4829 92.172 31.0753 91.9816 30.9297C91.3707 30.462 88.6725 28.9004 88.4768 28.9012C88.3728 28.9018 88.0881 28.9852 87.844 29.0867C86.7987 29.5214 82.0859 30.4573 80.0009 30.644C79.4732 30.6912 78.7666 30.7838 78.4308 30.8497C78.095 30.9155 75.9753 31.1136 73.7204 31.2899C68.344 31.7101 58.8933 31.7466 53.745 31.3672C46.7894 30.8545 40.008 29.8641 38.1438 29.0888C37.5843 28.8562 37.6094 28.8538 37.0843 29.1878ZM87.0839 33.3048C87.0839 32.7386 87.5009 32.2918 88.2877 32.0151C89.0771 31.7373 89.9359 31.7854 90.9045 32.1614C92.0474 32.605 92.2714 32.7607 92.7144 33.4193C93.3285 34.3326 93.1154 35.4662 92.1981 36.1648C91.6943 36.5485 91.6769 36.4541 92.1338 35.8172C92.862 34.8022 92.565 33.6084 91.4379 33.0199L91.0179 32.8005L91.1144 33.545C91.1952 34.1694 91.1427 34.3806 90.7887 34.8536C90.3013 35.505 89.0131 36.355 87.7821 36.8377L86.9274 37.1728L88.5349 37.331C91.266 37.6 93.1847 38.1325 94.7562 39.0577C95.8841 39.7218 96.4938 40.3398 96.9362 41.2676C97.3616 42.1597 97.3605 42.6768 96.932 43.3461C96.3157 44.3089 94.696 44.608 93.146 44.0453C92.2634 43.7248 92.2318 43.5189 93.1024 43.7607C94.4337 44.1307 95.885 43.7859 96.3635 42.9861C96.6042 42.5836 96.6128 42.4243 96.4239 41.861C95.9684 40.5026 94.9411 40.2379 92.998 40.978C91.4687 41.5605 90.7128 42.3469 90.2214 43.8664C89.8733 44.9425 89.874 45.434 90.2252 46.4315C90.5572 47.3743 91.3935 48.1355 92.636 48.6257C93.3506 48.9077 93.6517 48.946 94.6891 48.8868C95.6444 48.8323 95.9253 48.8604 96.001 49.0176C96.1412 49.3089 95.8284 49.4961 94.9998 49.6169C93.1292 49.8894 90.7072 48.8375 89.7207 47.324C89.2088 46.5386 89.0977 44.5394 89.5033 43.4145C89.8184 42.5411 90.5628 41.505 91.1718 41.0924C91.9077 40.5938 93.1857 40.0438 93.8286 39.949C94.1896 39.8959 94.5219 39.8045 94.5673 39.7461C94.6763 39.6056 93.5655 39.0374 92.4747 38.6757C89.9011 37.8225 86.41 37.6013 84.7825 38.1884C83.8285 38.5327 82.5466 39.5021 81.9672 40.3176C81.5241 40.9413 81.2221 42.0279 81.2221 42.9981C81.2221 43.6247 81.3896 44.0039 82.3394 45.5286C83.6853 47.689 84.1879 49.1531 84.1879 50.9132C84.1879 52.3651 83.6527 55.0473 83.0442 56.6445C82.5375 57.9744 82.5333 58.0137 82.9114 57.898C83.0729 57.8487 84.8454 57.884 86.8503 57.9766C90.1648 58.1297 90.6791 58.1219 92.5183 57.8921L94.5409 57.6393L94.8598 57.9531C95.0352 58.1258 95.1788 58.3128 95.1788 58.3688C95.1788 58.4248 94.8021 58.7238 94.3419 59.0331C93.6823 59.4763 91.5408 61.3755 90.7739 62.1975C90.7018 62.2747 89.828 63.1554 88.8318 64.1549C85.9627 67.0334 84.7844 67.6925 82.3125 67.801C81.5208 67.8358 80.8732 67.8745 80.8732 67.887C80.8732 67.8995 81.0302 68.155 81.2221 68.4551C82.1284 69.8717 81.2211 71.4723 79.2534 71.9281C78.3711 72.1326 78.2398 72.1319 77.5733 71.9193C76.4629 71.5652 76.1768 70.9304 76.9467 70.5284C77.2509 70.3695 77.5261 70.3337 77.8626 70.4087L78.3436 70.5161L77.8223 70.5989C77.1046 70.7129 77.0583 71.0825 77.734 71.3055C78.8511 71.6743 80.1216 71.0338 80.5313 69.8954C80.7507 69.2856 80.1583 68.2365 79.2412 67.6108C78.3223 66.9839 76.6 66.3397 75.2333 66.1114C73.8665 65.8831 73.6828 65.9251 73.9157 66.413C74.3473 67.3179 74.8794 67.6584 76.4692 68.0473C78.3261 68.5015 79.0084 68.8156 79.5705 69.4747C80.006 69.9854 80.1468 70.61 79.8265 70.61C79.7305 70.61 79.652 70.5234 79.652 70.4176C79.652 70.0374 78.2942 69.236 77.2604 69.0063C75.3699 68.5862 75.1468 68.5111 74.6709 68.1354C74.1524 67.7262 73.7204 67.0243 73.7204 66.5908C73.7204 66.4399 73.6498 66.2817 73.5634 66.2392C73.4771 66.1966 72.437 66.5306 71.2519 66.9813C70.0669 67.4319 68.9127 67.8447 68.6872 67.8984C68.183 68.0185 68.3545 68.15 69.2915 68.362C70.3335 68.5977 71.0197 69.4226 71.0071 70.4246C70.9991 71.0754 70.9249 71.2258 70.4009 71.6568C69.8396 72.1183 68.9232 72.4539 68.6067 72.314C68.5287 72.2795 68.7186 72.1023 69.0282 71.9201C70.2421 71.2065 70.5237 70.3943 69.8558 69.533C69.4406 68.9975 68.6271 68.6625 67.7508 68.6658C66.6772 68.6699 65.2266 69.0336 64.2913 69.5331L63.3576 70.0318L62.8812 69.7123C61.6316 68.8744 59.3046 68.4416 57.9559 68.7964C57.0793 69.0269 56.4491 69.7816 56.4491 70.601C56.4491 71.1111 56.5486 71.3042 57.0042 71.6788C57.3095 71.9299 57.5151 72.1705 57.461 72.2136C57.2345 72.3941 56.5032 72.0853 56.0566 71.6205C55.1084 70.634 55.6513 69.0543 57.1562 68.4215C58.013 68.0613 58.2295 67.8294 57.709 67.8294C57.2881 67.8294 55.3509 67.1344 54.5301 66.6889C54.1943 66.5066 53.8288 66.3133 53.718 66.2592C53.5887 66.1962 53.326 66.473 52.9867 67.0298C52.1714 68.3677 51.7285 68.6662 50.1617 68.933C48.7177 69.179 47.699 69.6318 47.2028 70.2481L46.7667 70.79L46.71 70.4098C46.6355 69.9102 47.3372 69.0811 48.0969 68.7708C48.4207 68.6386 49.3714 68.3469 50.2093 68.1226C51.0474 67.8984 51.834 67.6311 51.9577 67.5288C52.5392 67.0473 52.96 66.5153 52.96 66.2614C52.96 65.9995 52.8834 65.9878 51.7304 66.0731C49.3202 66.2517 47.1681 67.2645 46.3979 68.5828C45.8553 69.5113 45.8751 69.8779 46.5083 70.6399C47.2976 71.5895 48.2857 71.8096 49.2091 71.2417C49.554 71.0296 49.554 71.0248 49.2194 70.8186C49.0331 70.7039 48.7191 70.6081 48.5216 70.6059C48.1889 70.6018 48.1854 70.5909 48.4743 70.457C48.8503 70.2825 49.7164 70.4129 50.0017 70.6867C50.5676 71.2301 49.4481 72.1379 48.2107 72.1388C47.3279 72.1395 46.1352 71.6525 45.6566 71.096C45.0656 70.4086 44.9729 69.297 45.437 68.4612C45.6406 68.0943 45.807 67.7863 45.8068 67.777C45.8065 67.7675 44.9626 67.7574 43.9314 67.7545C42.1809 67.7495 41.9869 67.7204 41.0096 67.3168C39.5211 66.7021 39.0236 66.3604 34.7092 62.9889C32.5873 61.3308 30.296 59.5987 29.6172 59.1399C28.9385 58.6811 28.3783 58.2105 28.3724 58.0939C28.3574 57.8048 29.2269 57.4611 30.891 57.0985C32.0754 56.8404 32.7621 56.793 35.427 56.7854C38.7191 56.7759 40.3788 56.9721 43.0312 57.6842C43.5925 57.8348 44.0862 57.9581 44.1286 57.9581C44.171 57.9581 44.0131 57.64 43.7777 57.2513C42.5717 55.2589 41.7947 52.3555 41.7947 49.8414C41.7947 47.8583 42.0665 46.7584 42.9164 45.3031C44.1608 43.1727 42.7961 40.0873 39.9813 38.6684C39.34 38.345 39.1935 38.3294 37.3645 38.3889C35.2858 38.4566 33.9318 38.735 32.3547 39.419C31.0046 40.0046 30.983 40.1035 32.147 40.3696C34.2009 40.8392 35.3193 41.6089 36.2703 43.2069C36.778 44.0602 36.8163 44.2313 36.8193 45.6538C36.8223 47.0032 36.7743 47.2529 36.4111 47.7761C35.797 48.661 34.7469 49.3046 33.3762 49.6365C32.1161 49.9415 31.3436 49.9129 30.4062 49.5266C29.5223 49.1622 29.9246 48.9953 31.8645 48.921C33.5189 48.8578 33.753 48.814 34.4674 48.4344C35.6131 47.8256 36.1023 46.9671 36.0826 45.5998C36.0625 44.2005 35.5768 43.1752 34.5025 42.2644C34.0515 41.882 33.3291 41.4415 32.8973 41.2856C32.1098 41.0015 30.5641 40.9009 30.1564 41.1074C29.8174 41.2791 29.4076 42.1937 29.4139 42.7644C29.4261 43.8739 30.7803 44.3975 32.6281 44.0075C33.1998 43.8868 33.6946 43.8098 33.7277 43.8362C33.9109 43.982 32.4203 44.5026 31.6344 44.5672C29.2702 44.7617 28.143 43.411 29.039 41.4575C29.368 40.7398 29.457 40.6308 30.2942 39.919C31.673 38.7465 34.7281 37.7984 37.1279 37.7984H38.1624L37.2308 37.2151C36.0644 36.4849 35.9446 36.3697 35.3943 35.453C35.0177 34.8257 34.961 34.576 35.0391 33.8889C35.0902 33.4392 35.0747 33.0713 35.0046 33.0713C34.7799 33.0713 34.1478 33.6842 33.9558 34.0884C33.692 34.643 33.7251 35.5775 34.0332 36.2733C34.3785 37.0531 34.2783 37.0998 33.779 36.3919C33.528 36.0358 33.3472 35.5023 33.2966 34.9683C33.2293 34.2551 33.2848 34.012 33.6328 33.4958C34.156 32.7197 35.3034 32.1799 36.1933 32.2911C37.2935 32.4287 38.0573 33.3751 37.6079 34.0443C37.2186 34.6239 36.0253 34.6916 36.0513 34.1326C36.0588 33.9695 36.1047 33.9143 36.153 34.0098C36.3176 34.3347 36.8971 34.2029 37.0201 33.8125C37.1115 33.5221 37.047 33.3835 36.7226 33.1742C36.3097 32.9077 36.3074 32.908 35.9114 33.275C35.0971 34.0294 35.6347 35.2733 37.2914 36.468C37.8818 36.8939 38.4332 37.2423 38.5168 37.2423C38.7908 37.2423 41.1624 38.6657 41.8819 39.2622C42.9606 40.1562 43.8882 41.856 43.8882 42.9382C43.8882 43.2466 43.951 43.4988 44.0277 43.4988C44.4319 43.4988 47.1128 39.7937 47.6388 38.5081C47.9992 37.6267 48.0645 37.6757 48.7055 39.3083C49.3359 40.9148 49.5441 42.7793 49.3079 44.707C49.1994 45.5923 49.1353 46.3364 49.1655 46.3605C49.1957 46.3845 49.5711 46.1817 49.9998 45.9096C51.1514 45.1785 52.2986 44.6274 54.4429 43.775C56.8317 42.8254 58.125 41.8821 58.689 40.6781C58.8964 40.2355 59.066 39.72 59.066 39.5323C59.066 39.3446 59.2138 39.1176 59.3943 39.0276C59.6536 38.8986 59.704 38.7521 59.6332 38.3319C59.3608 36.7134 61.0824 35.1247 63.1087 35.1247C64.4346 35.1247 65.2922 35.7871 64.9051 36.5121C64.7936 36.7211 64.7589 36.7062 64.6612 36.4081C64.5789 36.1565 64.3761 36.0265 63.9264 35.9368C62.9074 35.7339 62.0431 35.9454 61.2237 36.5983C60.2324 37.3884 60.1127 37.9389 60.6324 39.3188C61.4027 41.3641 61.2172 43.7247 60.1527 45.4269C59.4967 46.4759 57.9062 47.5969 56.7644 47.8152C54.8406 48.183 52.7244 47.7822 51.117 46.7456L50.408 46.2883L49.5772 46.8747C48.7751 47.441 48.7407 47.497 48.5774 48.5039C48.3199 50.0933 48.3248 52.2361 48.5882 53.092C49.0174 54.4869 50.0308 55.3899 52.0404 56.1682C53.0692 56.5665 53.4026 56.6263 54.6234 56.6315C56.2628 56.6383 57.2647 56.3046 58.0629 55.4858C59.2068 54.3124 58.2049 52.2793 56.0515 51.4039C54.9852 50.9704 53.2824 50.9709 52.329 51.405C51.6447 51.7165 51.0409 52.4152 51.0409 52.8951C51.0409 53.263 51.5474 53.9032 51.9113 53.9953C52.8261 54.2266 53.4741 53.5144 52.6379 53.1964C52.3338 53.0809 52.1559 52.8896 52.1198 52.6392C52.0657 52.2664 52.3094 52.1203 52.5238 52.3968C52.5831 52.4733 53.0392 52.536 53.5372 52.5361C54.768 52.5364 55.6094 52.8877 55.8601 53.5062C56.0055 53.8642 56.0055 54.08 55.8601 54.3372L55.6641 54.6846L55.6107 54.2504C55.5416 53.6877 55.1337 53.4058 54.2202 53.2894C53.5447 53.2033 53.4833 53.2206 53.4833 53.4961C53.4833 54.6491 51.4083 54.9926 50.5741 53.9778C49.4944 52.6647 51.5146 50.7284 53.9643 50.7284C55.118 50.7284 56.64 51.2213 57.5484 51.8889C58.7059 52.7401 58.9974 53.3215 59.1274 55.0384C59.1881 55.8413 59.3336 56.7485 59.4505 57.0544C59.6537 57.5865 59.668 57.5403 59.7806 55.9908C59.8572 54.9375 60.0316 54.038 60.2797 53.4187C60.966 51.7043 62.8725 48.8731 63.3402 48.8731C63.8385 48.8731 65.5808 51.4046 66.3131 53.1925C66.8009 54.3833 67.1723 56.6291 67.0207 57.4715L66.9208 58.0276L67.2029 57.6196C67.4157 57.3116 67.5059 56.6804 67.5701 55.0475C67.6484 53.0589 67.6941 52.8159 68.1354 52.0492C68.7018 51.065 69.5467 50.3144 70.5443 49.9088C71.4359 49.5464 72.0599 49.5392 72.9462 49.8815C75.0051 50.6764 76.0908 52.7323 74.9373 53.6516C74.4704 54.0236 73.4895 54.0154 73.0458 53.6359C72.6152 53.2676 72.4558 52.8139 72.7569 52.8139C72.8806 52.8139 73.023 52.939 73.0732 53.092C73.1979 53.4722 74.1585 53.4788 74.4122 53.1012C74.8806 52.4036 74.3113 50.9837 73.3433 50.4342C71.7266 49.5169 70.0312 50.0184 68.7426 51.7954C68.3187 52.3801 68.2541 52.6198 68.2405 53.6601C68.2254 54.8332 68.2358 54.8642 68.856 55.4683C69.7693 56.3578 70.7526 56.7068 72.3452 56.7068C73.4007 56.7068 73.7948 56.6404 74.5069 56.342C75.5238 55.916 76.5498 55.0728 77.0468 54.2544C77.6075 53.3314 77.8347 51.373 77.587 49.5973C77.4716 48.7714 77.3328 48.0028 77.278 47.8894C77.2234 47.7759 76.909 47.6122 76.5793 47.5256C76.0983 47.399 75.8195 47.4114 75.1679 47.5883C74.7215 47.7095 74.0142 47.8088 73.5962 47.8088C72.6303 47.8088 71.9438 47.2938 71.6437 46.3442C71.3353 45.3683 70.997 44.9062 69.9675 44.0549C69.2794 43.4858 68.9633 43.0851 68.7322 42.489C68.2611 41.2738 68.5244 41.1907 70.0987 42.058C71.0231 42.5671 71.7658 42.8439 72.8482 43.0829C74.2937 43.402 75.5379 43.8965 75.9122 44.3007C76.0472 44.4467 76.0959 44.1099 76.091 43.0615C76.0817 41.0058 76.9092 38.54 77.808 37.9455C78.245 37.6565 78.4305 37.9091 78.6302 39.0654C78.7277 39.6303 78.9106 40.2802 79.0365 40.5096C79.901 42.0851 80.3682 42.8353 80.4461 42.7733C80.4957 42.7337 80.6152 42.3107 80.7117 41.8333C81.1417 39.705 82.7535 38.2917 86.6303 36.6439C89.423 35.4569 90.3362 34.7399 90.3646 33.7117C90.3857 32.9487 90.0795 32.6542 89.2646 32.6542C88.4026 32.6542 87.8515 32.9817 87.8515 33.4937C87.8515 33.8113 87.9468 33.9193 88.2873 33.9874C89.1214 34.1543 89.5753 33.7395 88.9855 33.3494C88.5469 33.0592 88.6942 32.9021 89.1546 33.1691C89.9332 33.6208 89.5617 34.4617 88.5835 34.4617C87.7812 34.4617 87.0839 33.9236 87.0839 33.3048ZM63.1063 33.8127C62.616 33.7665 62.257 33.6746 62.3081 33.6086C62.6202 33.2061 65.0919 33.7323 66.1169 34.4194C68.4581 35.9891 67.5186 38.8252 64.6575 38.8252C63.8097 38.8252 62.7296 38.4278 62.7296 38.116C62.7296 37.9042 63.0124 37.8787 63.1657 38.0765C63.3423 38.3041 64.8151 38.2347 65.3798 37.9722C66.354 37.5193 66.8648 36.2054 66.3435 35.4929C65.6156 34.498 64.5595 33.9499 63.1063 33.8127ZM86.1404 41.4689C86.5605 40.9014 87.7797 40.0983 88.7589 39.7442C89.2613 39.5625 89.8543 39.4782 90.5556 39.4888C91.1313 39.4976 91.4061 39.5309 91.1662 39.5629C88.7345 39.8873 87.0255 40.9306 86.0853 42.6646C85.71 43.3569 85.6708 43.6264 85.6708 45.5147C85.6708 48.0084 86.0094 49.1011 87.169 50.3485C89.3396 52.6832 94.0666 52.6643 97.1013 50.3086C98.3354 49.3508 98.756 48.3771 98.3256 47.4752C98.1032 47.0086 98.4188 46.8532 98.8656 47.2093C99.5566 47.76 99.4901 48.4771 98.6245 49.8111C98.4638 50.0586 98.5067 50.0696 99.292 49.9839C100.407 49.862 100.871 49.4918 101.125 48.5201C101.304 47.8374 101.349 47.7805 101.483 48.0675C101.67 48.4668 101.415 49.2718 100.95 49.7499C100.665 50.0427 100.442 50.1003 99.4129 50.1466C98.2785 50.1976 98.1595 50.2358 97.3569 50.8067C95.9319 51.8203 94.605 52.2372 91.6181 52.6105L90.9361 52.6959L91.4436 52.9648C91.7229 53.1127 92.2442 53.2978 92.6024 53.376C92.9603 53.4543 93.7847 53.708 94.4342 53.9398C97.7553 55.1251 98.9718 58.2053 97.0099 60.4615C96.441 61.1157 95.7375 61.3765 95.0568 61.186C94.6119 61.0615 94.5994 61.0406 94.9171 60.9533C96.0992 60.6287 96.3722 60.4553 96.8138 59.749C97.7675 58.2238 97.2607 56.3399 95.5879 55.1915C94.8427 54.68 92.9924 53.9287 92.4733 53.9269C92.1906 53.9258 90.61 53.2266 89.9342 52.8038C89.5924 52.5898 88.8074 52.1449 88.1896 51.815C85.8557 50.5683 84.9639 48.8144 84.9861 45.5147C84.9998 43.4765 85.2167 42.7164 86.1404 41.4689ZM37.8824 41.4469C37.1806 40.9358 36.5681 40.6441 35.648 40.3829L34.3802 40.023L35.2637 40.0695C36.9437 40.1582 38.7996 41.1488 39.6902 42.4322C40.7064 43.8965 41.051 47.098 40.4081 49.1011C39.8828 50.7382 38.9069 51.7494 37.2588 52.3643C36.4137 52.6796 36.0808 52.7216 34.4674 52.7159C32.2743 52.7081 30.8153 52.3571 28.9422 51.3863C27.9085 50.8506 27.5929 50.7589 26.5589 50.6942C25.5704 50.6324 25.2822 50.5548 24.8696 50.2399C24.3067 49.81 24.0856 49.0682 24.3314 48.4344L24.4933 48.0173L24.5083 48.534C24.5289 49.244 25.0111 49.9906 25.5542 50.1533C25.8028 50.2278 26.3419 50.3261 26.752 50.3718L27.4978 50.4548L27.0573 49.762C26.528 48.9296 26.4675 47.971 26.9221 47.6252C28.5795 46.365 29.7841 46.054 31.3272 46.488C32.1712 46.7253 33.7051 46.762 34.3689 46.5609C35.1049 46.3378 34.8748 46.6239 34.0557 46.95C33.1105 47.3262 32.294 47.333 31.111 46.9747C29.4528 46.4724 28.1465 46.7019 27.5631 47.598C26.5345 49.178 28.9519 51.4321 32.4179 52.1252C33.7488 52.3913 36.3212 52.2376 37.1715 51.8411C39.2769 50.8593 40.0845 49.3551 40.0824 46.4184C40.0804 43.8904 39.5304 42.6473 37.8824 41.4469ZM87.6455 47.0143C87.0841 45.836 87.2683 44.333 88.0726 43.5302C88.3419 43.2613 88.3526 43.3588 88.1493 44.2405C87.8144 45.6935 88.5206 47.4288 89.8424 48.4008C90.1387 48.6186 90.9591 49.0594 91.6655 49.3802C93.4281 50.1809 92.7315 50.2527 90.7292 49.4769C89.0595 48.8298 88.1736 48.1223 87.6455 47.0143ZM34.3558 49.9497C37.1853 48.6046 37.9388 47.5053 37.7268 45.0309C37.6354 43.9641 37.6509 43.8737 37.8835 44.122C38.1914 44.4507 38.6544 45.6401 38.6544 46.1023C38.6544 46.283 38.5276 46.833 38.3727 47.3245C38.0042 48.4939 37.0915 49.2639 35.2471 49.9614C33.6991 50.5467 33.1157 50.5391 34.3558 49.9497ZM92.3377 47.1735C93.1828 47.1692 93.5692 47.0736 94.7138 46.5849C95.4656 46.264 96.2899 46.0055 96.5456 46.0108L97.0106 46.0201L96.5744 46.1821C96.3345 46.2712 95.9027 46.5183 95.6149 46.7313C95.069 47.1352 93.6932 47.5383 92.9227 47.5201C92.6763 47.5143 92.2168 47.435 91.9016 47.344C91.3409 47.182 91.3501 47.1784 92.3377 47.1735ZM72.1249 51.5465C72.5427 51.4499 72.9253 51.2862 72.975 51.1828C73.1084 50.9057 73.4499 51.0497 73.5163 51.4112C73.5954 51.8408 73.0744 52.2578 72.4588 52.2578C72.1229 52.2578 71.7672 52.4027 71.4159 52.6827C70.92 53.0778 70.89 53.1579 70.9874 53.8297L71.0921 54.5518L70.7527 54.2042C70.5307 53.9768 70.4122 53.635 70.4096 53.2152C70.4047 52.4048 71.0258 51.8007 72.1249 51.5465ZM57.6703 70.8356C57.6703 70.441 57.965 70.2252 58.8463 69.9745C59.6298 69.7517 59.8214 69.7447 60.6993 69.9071C61.5557 70.0655 62.3081 70.6323 62.813 71.4992L63.2092 72.1799L63.4224 71.6649C63.727 70.9294 64.8044 70.1062 65.7207 69.9089C66.295 69.7852 66.6914 69.7839 67.3447 69.9036C68.359 70.0897 68.8356 70.3883 68.8356 70.8379V71.1617L68.1322 70.8695C67.5837 70.6418 67.2062 70.5902 66.4197 70.6355C65.0536 70.7142 64.4817 71.0662 63.7282 72.2918C63.3941 72.8351 63.0823 73.2265 63.0354 73.1614C62.9883 73.0964 62.8486 72.7928 62.7249 72.487C62.0679 70.8622 60.2059 70.1582 58.4971 70.8881C57.6813 71.2365 57.6703 71.2358 57.6703 70.8356Z" fill="#9C480D"/>
<path d="M12.8347 24.9437C9.97722 25.4176 7.41705 26.7707 5.53378 28.8025C5.13549 29.2321 4.8096 29.6283 4.8096 29.683C4.8096 29.7375 4.68975 29.8878 4.54321 30.0168C4.10235 30.4051 2.94901 32.805 2.4307 34.413C1.96681 35.8514 1.94448 36.07 1.9471 39.1192C1.94867 41.0624 2.03136 42.617 2.1575 43.0817C2.27177 43.5022 2.47623 44.2864 2.61196 44.824C2.91674 46.0318 3.33177 47.1361 3.77455 47.9168C3.95999 48.2438 4.11177 48.5772 4.11177 48.6577C4.11177 48.8978 5.59309 51.1993 6.30942 52.0723C7.20945 53.1691 8.77643 54.6946 9.78479 55.4555C10.2408 55.7996 10.7799 56.2105 10.9828 56.3687C11.5967 56.847 13.8922 58.139 15.1898 58.7367C16.2671 59.2328 17.052 59.5446 19.0279 60.2616C20.6678 60.8567 23.8513 61.5235 25.7042 61.6598L26.9724 61.7533L26.2276 60.7212C25.0068 59.0295 25.1695 59.1261 23.3588 59.0182C20.8543 58.8691 17.2635 57.8896 15.5224 56.8806C15.2254 56.7086 14.9276 56.5678 14.8606 56.5678C14.7938 56.5678 14.6441 56.5069 14.5283 56.4324C11.8108 54.6853 11.6906 54.5962 10.3193 53.3079C8.80172 51.8823 7.83034 50.5876 6.49068 48.2049C6.33367 47.9257 6.20178 47.6129 6.19759 47.5097C6.1934 47.4065 6.07442 47.0719 5.93311 46.766C5.48127 45.7875 4.9879 42.8165 4.98633 41.0657C4.98441 38.6614 5.83768 34.4771 6.55872 33.3568C6.63513 33.238 6.92037 32.7655 7.19252 32.3067C8.02329 30.9068 8.68676 30.2052 10.1327 29.198C11.8364 28.0113 13.8247 27.5358 16.3742 27.7053C18.4897 27.8458 19.7603 28.3253 21.3822 29.5955C22.1146 30.169 22.9691 30.9511 23.281 31.3334C23.9291 32.1276 25.4281 34.5658 25.9448 35.6664C26.1362 36.0743 26.3157 36.4081 26.3435 36.4081C26.3712 36.4081 26.7308 35.9857 27.1425 35.4696C27.5542 34.9536 28.0851 34.3634 28.322 34.1583C28.7098 33.8227 28.7328 33.7395 28.5526 33.3241C28.2089 32.5325 26.2555 29.8436 25.3893 28.9699C22.1097 25.6622 17.4712 24.1745 12.8347 24.9437Z" fill="#883806"/>
<path fill-rule="evenodd" clip-rule="evenodd" d="M113.916 23.2566C112.905 23.4523 112.063 23.8751 111.346 24.547C110.89 24.9741 107.216 29.5438 107.216 29.6838C107.216 29.7179 107.072 29.9153 106.895 30.1225C106.718 30.3298 105.956 31.2421 105.202 32.15C103.665 34.001 102.546 35.1592 101.258 36.2308L100.385 36.9572L101.076 38.1078C102.986 41.2856 103.718 43.3529 104.268 47.1136C104.631 49.603 104.132 54.2226 103.271 56.325C103.123 56.6886 103.03 57.0557 103.065 57.1406C103.144 57.3296 105.565 55.8001 106.17 55.1793C106.409 54.9329 106.686 54.6596 106.784 54.572C107.768 53.6955 109.042 51.6262 109.578 50.0333C110.152 48.3296 110.243 47.3434 110.202 43.2442C110.17 40.0238 110.209 39.4129 110.525 38.168C111.44 34.5664 113.753 31.9035 117.2 30.483C118.303 30.0285 120.614 29.4883 122.503 29.2438L124.443 28.9926L123.945 28.3555C123.671 28.0053 123.373 27.5935 123.281 27.4405C122.971 26.9196 120.905 25.0848 120.034 24.5573C117.831 23.222 116.051 22.8436 113.916 23.2566ZM113.963 24.4075L114.36 24.1513C115.027 23.7206 116.626 23.8 117.831 24.3239C119.075 24.8644 119.591 25.2462 120.758 26.4933C121.745 27.5472 122.167 28.1545 122.003 28.285C121.894 28.3723 120.42 27.9283 119.341 27.4829C118.229 27.024 116.475 26.0654 115.169 25.2038L113.963 24.4075Z" fill="#B54D04"/>
<path d="M87.9318 25.2327C87.2833 25.5035 85.5302 25.7975 83.0539 26.0508C81.9985 26.1588 80.5011 26.3124 79.7263 26.3924C78.3766 26.5317 76.1571 26.6405 68.3122 26.9525C60.2868 27.2716 51.0196 26.9877 43.5392 26.1934C41.2615 25.9516 39.2601 25.6292 38.1776 25.3296C37.4479 25.1277 37.4343 25.13 37.0011 25.5183C36.3638 26.0897 36.2734 26.5054 36.6646 27.0681C37.5365 28.3228 41.8418 29.2356 50.1686 29.931C50.6964 29.9751 53.6011 30.0764 56.6236 30.1563C66.4902 30.4165 77.6208 29.9698 82.7218 29.1085C83.3842 28.9967 84.0832 28.905 84.2751 28.9048C84.7259 28.9043 86.8901 28.3835 87.6724 28.0872C88.586 27.7411 89.3838 27.1294 89.5076 26.6802C89.6282 26.2431 89.324 25.6488 88.7783 25.2552C88.4759 25.0372 88.4046 25.0353 87.9318 25.2327Z" fill="#6A2202"/>
<path d="M40.4862 18.8901C39.3315 19.0014 37.4775 19.4694 36.7605 19.8303C35.7668 20.3308 35.4308 20.7306 35.4289 21.4143C35.4271 21.9762 35.5102 22.1262 36.0567 22.5491C37.3544 23.5535 39.772 24.1869 44.3243 24.7152C49.7257 25.3421 53.6217 25.4932 64.2125 25.4863C72.8836 25.4806 74.7374 25.4408 78.6925 25.1764C81.1872 25.0096 83.5032 24.8142 83.839 24.7423C84.1748 24.6705 84.8814 24.5704 85.4091 24.5199C87.6408 24.3063 90.1329 23.4593 90.7547 22.703C91.6627 21.5985 90.5244 20.6095 87.5026 19.8773C85.3416 19.3539 81.0583 19.0061 81.8549 19.4189C81.9575 19.4722 82.2964 19.9439 82.608 20.4671L83.1745 21.4186L83.7928 21.3262C85.5782 21.0592 86.2116 20.6691 85.7723 20.107C85.5394 19.8091 85.5438 19.8039 85.8608 20.0023C86.5876 20.4569 86.657 20.9201 86.0633 21.3509C85.5953 21.6906 84.0593 22.1561 82.9667 22.2894C82.5349 22.3422 81.9461 22.4422 81.6583 22.5117C81.194 22.6239 79.2317 22.8244 74.8991 23.2023C72.4022 23.42 64.079 23.5037 59.2404 23.3597C49.572 23.0719 41.7434 22.2145 40.0592 21.2587C39.4988 20.9408 39.2246 20.4184 39.4592 20.1159C39.5586 19.9877 39.6282 20.0343 39.7001 20.277C39.8456 20.7677 40.6514 21.074 42.0869 21.1839L43.3384 21.2797L44.1141 20.0154L44.8895 18.751L43.2113 18.7701C42.2882 18.7805 41.0619 18.8344 40.4862 18.8901Z" fill="#B1500A"/>
<path d="M67.9633 14.1507C68.4911 14.2974 69.6294 14.5902 70.493 14.8013C71.3565 15.0123 72.1809 15.232 72.3248 15.2894C72.4687 15.347 73.1147 15.5823 73.7606 15.8126C77.0173 16.9738 78.8144 18.7117 78.2663 20.1696C78.0508 20.7431 77.1018 21.5909 76.5076 21.7413C76.0252 21.8633 76.07 22.1398 76.5554 22.0375C76.7714 21.9919 77.9685 21.8824 79.2159 21.7943C80.4632 21.7062 81.5464 21.5892 81.623 21.5344C81.9374 21.3096 80.9652 19.9976 79.2768 18.3688C76.8664 16.0434 72.3558 14.2631 68.1141 13.9627L67.0038 13.8841L67.9633 14.1507Z" fill="#BB5711"/>
<path fill-rule="evenodd" clip-rule="evenodd" d="M47.6584 17.7736C49.9317 15.9007 52.4432 14.91 57.1469 14.031C58.6229 13.7552 58.5482 13.9105 57.0161 14.303C51.5163 15.7121 49.3911 17.0981 49.4167 19.2595C49.434 20.7293 50.4195 21.6092 52.2145 21.7575C53.6041 21.8723 54.4678 21.65 55.4856 20.9159C56.2207 20.3856 56.3638 20.2446 56.422 20.1873C56.4389 20.1706 56.4487 20.161 56.4638 20.1509C56.4653 20.1499 56.4669 20.1488 56.4686 20.1478C56.4697 20.1471 56.4709 20.1464 56.4721 20.1457C56.4731 20.145 56.4742 20.1444 56.4753 20.1438C56.2765 20.609 56.0838 21.0324 55.9898 21.2051C55.8586 21.446 55.7513 21.7395 55.7513 21.8573C55.7513 21.975 55.6532 22.1198 55.5332 22.1789C55.267 22.31 53.245 22.2596 51.1282 22.0692C50.2646 21.9914 48.5156 21.8474 47.2416 21.7491C45.9677 21.6508 44.881 21.535 44.8269 21.4919C44.5185 21.2461 46.3279 18.8698 47.6584 17.7736Z" fill="#BB5711"/>
<path d="M58.3053 17.8473C57.8249 18.7165 57.2279 19.9817 56.7965 21.0451C56.5793 21.5803 56.3647 22.0966 56.3195 22.1921C56.2546 22.3293 57.6649 22.3656 63.0162 22.3643C70.0293 22.3628 71.1036 22.3158 71.1036 22.0106C71.1036 21.7786 70.2114 20.0139 69.5963 19.0291L69.1186 18.2644L68.9647 19.0879C68.7156 20.4214 67.6805 21.4366 66.0443 21.9522C64.7275 22.3673 62.8543 22.2905 61.5733 21.7693C59.7814 21.04 58.9409 20.007 58.7319 18.2775L58.6127 17.2912L58.3053 17.8473Z" fill="#BB5711"/>
<path fill-rule="evenodd" clip-rule="evenodd" d="M61.5663 1.21864C60.0424 1.53188 58.3425 2.76843 57.5327 4.15263C57.1501 4.80692 57.0838 5.11807 57.0746 6.30763C57.0648 7.56699 57.1107 7.77331 57.5618 8.49725C58.1958 9.51455 59.2371 10.3444 60.4603 10.8071C61.2739 11.1151 61.6617 11.171 62.9913 11.1722C64.3939 11.1736 64.6706 11.1293 65.5856 10.7567C66.7915 10.2656 67.8269 9.38747 68.4546 8.3236C69.0943 7.23929 69.1076 5.57354 68.4867 4.30293C67.9577 3.22042 66.7013 2.12763 65.365 1.58804C64.3639 1.18374 62.5797 1.01023 61.5663 1.21864ZM59.5553 6.10812C58.8392 4.85711 59.5669 3.2987 61.1656 2.65943C62.7362 2.03156 64.6858 2.39679 65.6437 3.49849C66.0213 3.93254 66.1359 4.24398 66.1856 4.96987C66.2428 5.80475 66.2001 5.94768 65.7284 6.50395C64.9841 7.38166 64.1063 7.76594 62.8437 7.76677C61.3141 7.76789 60.1773 7.19438 59.5553 6.10812Z" fill="#A84B09"/>
<path d="M61.5473 3.04913C59.5672 3.85079 59.4102 6.02873 61.2666 6.94315C62.194 7.39987 63.6439 7.34454 64.4606 6.82136C65.268 6.30402 65.5392 5.84424 65.5478 4.97946C65.5637 3.3475 63.395 2.301 61.5473 3.04913Z" fill="#BB5711"/>
<path d="M41.564 73.2038C41.3859 73.3456 41.4218 73.8919 41.6336 74.2623C41.7369 74.443 42.1884 74.7809 42.6368 75.0131C44.3465 75.8984 47.3168 76.4185 52.96 76.8203C58.0267 77.1811 69.1973 77.1822 73.546 76.8224C80.1192 76.2784 83.4855 75.4368 84.343 74.1235C84.5769 73.765 84.4151 73.0667 84.119 73.1573C82.7132 73.5871 78.338 74.3211 76.0756 74.5066C75.0202 74.593 73.5892 74.7207 72.896 74.7901C70.711 75.0089 61.967 75.0961 58.1937 74.9366C50.8789 74.6277 46.0978 74.108 41.9566 73.1716C41.8057 73.1375 41.6289 73.152 41.564 73.2038Z" fill="#581210"/>
<path d="M62.9372 49.9538C62.3634 50.621 61.4308 52.2026 60.9634 53.3005C60.5927 54.1714 60.5496 54.5148 60.5525 56.5678C60.5559 58.7678 60.5794 58.9216 61.1288 60.3217C61.4438 61.1246 61.8578 62.1882 62.049 62.6852C62.2401 63.1822 62.5787 64.4023 62.8013 65.3963C63.1591 66.9944 63.2193 67.1394 63.32 66.6476C63.661 64.9823 64.6073 62.1828 65.1528 61.2254C65.5661 60.4996 66.0612 59.0141 66.2374 57.9706C66.4907 56.4709 66.2184 54.3675 65.5973 53.0247C65.1225 51.9982 64.0722 50.3043 63.6012 49.8054L63.3205 49.508L62.9372 49.9538Z" fill="#F6B721"/>
<path d="M58.5426 57.5083C58.5426 57.8305 57.316 59.7411 56.5969 60.5391C56.1297 61.0574 56.0932 61.1643 56.2846 61.4538C56.4038 61.634 56.5505 61.8128 56.6107 61.851C56.6707 61.8893 56.9866 62.2021 57.3125 62.5462C57.6386 62.8903 57.9966 63.2344 58.1082 63.3109C58.3518 63.4777 60.8685 66.1253 61.5797 66.963C61.8568 67.2894 62.1164 67.5302 62.1565 67.4984C62.2928 67.3897 61.8481 64.7044 61.5665 63.9365C61.152 62.8055 60.3753 60.9577 59.7842 59.696C59.4976 59.0843 59.1773 58.3204 59.0726 57.9987C58.8695 57.3754 58.5426 57.0729 58.5426 57.5083Z" fill="#D30000"/>
<path d="M67.6723 58.3587C67.3763 59.0178 66.6209 60.558 65.9937 61.7815C64.9311 63.8546 63.966 66.6838 64.1617 67.1519C64.1996 67.2424 64.593 66.9157 65.0359 66.4259C65.9934 65.3676 66.3175 65.0791 69.041 62.8623C70.4101 61.7481 71.0849 61.1016 70.9999 60.9854C70.9288 60.8879 70.6591 60.5893 70.4003 60.3217C70.1418 60.054 69.8007 59.6474 69.6423 59.4179C69.4841 59.1885 69.2805 58.907 69.19 58.7923C69.0994 58.6776 68.8419 58.2636 68.6179 57.8721L68.2107 57.1605L67.6723 58.3587Z" fill="#D30000"/>
<path d="M75.9919 56.2869C75.4491 56.7195 74.0615 57.2276 73.1487 57.3283C71.9729 57.4579 70.5544 57.1848 69.519 56.6295L68.6346 56.1553L68.7555 56.6049C69.0401 57.6624 71.0982 60.5997 71.5547 60.5997C71.676 60.5997 72.3895 60.0568 73.1404 59.3933C73.8912 58.7299 74.6233 58.086 74.7672 57.9627C75.1773 57.6112 76.5453 56.0117 76.4357 56.0117C76.3816 56.0117 76.1819 56.1355 75.9919 56.2869Z" fill="#FBDE00"/>
<path d="M57.9964 56.3231C57.865 56.4251 57.4435 56.6627 57.0597 56.851C56.4467 57.1519 56.1604 57.1934 54.7045 57.1934C53.3321 57.1934 52.8672 57.1337 52.0004 56.8459C51.4247 56.6547 50.9275 56.4514 50.8956 56.394C50.814 56.2477 50.5176 56.2636 50.5176 56.4143C50.5176 56.4827 51.2438 57.1323 52.1313 57.8576C53.0188 58.5831 54.1585 59.531 54.6639 59.9644C55.1693 60.3977 55.6611 60.7136 55.757 60.6665C56.134 60.4807 57.5157 58.3982 57.9477 57.3646C58.4121 56.2532 58.4243 55.9905 57.9964 56.3231Z" fill="#FBDE00"/>
<path d="M47.2337 40.5003C46.915 40.9917 46.1758 41.9769 45.5914 42.6896C43.489 45.2531 42.6722 46.7977 42.4201 48.6873C42.2919 49.6482 42.4311 49.6242 43.1882 48.5549C43.7366 47.7807 45.8145 46.0013 46.1704 46.0013C46.2716 46.0013 46.0014 46.2985 45.5699 46.6617C43.765 48.1812 42.4925 50.0345 42.4925 51.1436C42.4925 52.1019 43.2926 54.7761 43.9688 56.078C45.1715 58.3933 46.5144 59.8416 50.879 63.5298C51.1119 63.7267 51.7736 64.1959 52.3494 64.5726C52.9251 64.9492 53.4354 65.2887 53.4833 65.3272C54.0749 65.8013 56.9692 67.0272 58.2398 67.3418C58.7422 67.4661 59.2612 67.6033 59.3931 67.6466C60.0227 67.8529 59.491 67.4353 55.9992 64.9813C54.4982 63.9264 50.5495 60.8048 49.3096 59.693C47.4583 58.0328 45.8147 55.9695 45.5464 54.9689C45.44 54.5724 45.448 54.5652 45.7081 54.8217C45.8585 54.9702 45.9834 55.1891 45.9855 55.3083C45.9876 55.4276 46.1428 55.6815 46.3306 55.8726C46.5183 56.0638 46.6735 56.2765 46.6756 56.3455C46.6833 56.5966 49.3147 59.0409 51.2552 60.5997C53.2112 62.1709 54.0084 62.7785 56.2813 64.429C59.2546 66.5881 60.8912 67.7807 61.186 68.0032C61.6563 68.3581 61.5803 68.0508 61.0302 67.3746C60.5564 66.792 55.4786 61.6717 54.4528 60.742C54.1595 60.4761 53.1417 59.6315 52.1911 58.865C49.2976 56.5319 48.382 55.365 47.7159 53.1615C47.311 51.8218 47.292 50.7029 47.6428 48.8515C48.605 43.7749 48.6359 43.5498 48.5401 42.317C48.4469 41.1185 48.0914 39.6053 47.9029 39.6064C47.8538 39.6067 47.5526 40.0089 47.2337 40.5003Z" fill="#FC303A"/>
<path d="M77.3499 40.4748C77.2157 40.8313 77.1325 41.7828 77.1398 42.8731C77.1498 44.3571 77.2338 44.9293 77.61 46.0709C78.4751 48.6968 78.6053 49.3345 78.6053 50.948C78.6053 53.3624 77.8964 55.73 76.7771 57.0544C75.7496 58.2701 74.2799 59.582 70.3133 62.8242C68.5825 64.2389 66.8107 65.7404 66.3758 66.161C65.4473 67.0589 64.4421 68.2674 64.5513 68.3543C64.5933 68.3879 65.3625 67.8924 66.2605 67.2534C67.1586 66.6144 68.3573 65.7787 68.9244 65.3963C76.3361 60.3997 79.0573 57.9304 80.2466 55.1228C80.3078 54.9781 80.3952 54.8893 80.4406 54.9254C80.6194 55.0678 79.9372 56.5476 79.2855 57.4316C77.73 59.5411 74.4771 62.3418 70.5568 64.9466C65.8437 68.0783 65.5495 68.3323 67.3983 67.6741C75.9177 64.641 78.1616 63.2215 80.6677 59.2789C81.6377 57.7532 81.8619 57.2826 82.3866 55.6705C82.8683 54.1906 83.0091 52.5694 82.6841 52.2444C82.5768 52.1371 82.3899 51.799 82.269 51.4931C81.906 50.5741 80.8383 49.1397 79.8371 48.2259C79.066 47.5221 79.1803 47.3729 79.9816 48.0373C81.026 48.9036 81.8425 49.8061 82.3148 50.6165C82.5511 51.0222 82.8353 51.5105 82.9463 51.7017C83.1084 51.9807 83.1333 51.732 83.0733 50.4409C82.9742 48.309 82.5398 47.329 80.3423 44.2798C79.3811 42.9461 78.4498 41.4582 78.2237 40.895C78.0018 40.3423 77.7644 39.8886 77.6962 39.887C77.6278 39.8853 77.472 40.1499 77.3499 40.4748Z" fill="#FC303A"/>
<path d="M32.8973 57.3637C31.7607 57.5278 29.6852 57.9601 29.5664 58.0575C29.4933 58.1176 30.0652 58.6046 30.8373 59.1399C31.6095 59.6752 33.5159 61.1142 35.074 62.3376C39.9138 66.1379 40.2962 66.3919 41.9178 66.8843C43.7409 67.4376 46.0319 67.2442 48.2714 66.3477C48.7191 66.1685 49.1721 66.022 49.278 66.022C49.7538 66.022 49.4059 65.7468 48.8194 65.6591C47.1584 65.4108 43.9907 64.3262 40.1373 62.6865C39.4657 62.4006 38.2488 61.8954 37.4332 61.5636C35.5034 60.7785 34.7851 60.2811 36.4254 60.8656C36.8357 61.0118 37.6818 61.2988 38.3055 61.5033C39.6455 61.9428 40.135 62.1113 41.533 62.614C42.1087 62.821 42.8152 63.0716 43.1031 63.1707C43.391 63.2698 43.9797 63.4763 44.4115 63.6294C46.8623 64.4982 48.166 64.8451 50.2911 65.1936C51.2044 65.3434 52.016 65.4659 52.0945 65.4659C52.173 65.4659 51.4348 64.8246 50.454 64.0408C48.3872 62.3892 47.1795 61.2957 45.8705 59.8914C44.7306 58.6684 44.6195 58.6045 42.9033 58.18C40.3995 57.5608 37.9439 57.2613 35.5397 57.2819C34.3263 57.2923 33.1372 57.3291 32.8973 57.3637Z" fill="#6A8200"/>
<path d="M81.5916 59.3715C80.387 61.4537 78.304 63.5679 76.36 64.6816L75.5978 65.1183L76.36 65.2123C79.5869 65.61 82.6597 64.925 86.3686 62.9813C86.7524 62.7803 87.145 62.568 87.2409 62.5098C87.3369 62.4515 87.7205 62.2168 88.0937 61.9884C88.4667 61.7599 88.8451 61.573 88.9347 61.573C89.1921 61.573 87.8981 62.4975 86.3086 63.4493C83.5996 65.0716 80.9404 65.883 78.3322 65.883C77.7148 65.883 77.2112 65.9298 77.2131 65.9872C77.2185 66.1528 79.5208 66.9705 80.4576 67.1397C81.5421 67.3354 82.9473 67.199 84.1256 66.7837C85.238 66.3917 86.794 65.1707 88.5104 63.3427C89.1847 62.6246 89.8423 61.9478 89.9715 61.8388C90.101 61.7298 90.5978 61.2656 91.0759 60.8073C91.554 60.3491 92.3784 59.6068 92.9077 59.1578L93.8703 58.3416L93.0853 58.4627C92.1807 58.6023 89.7866 58.5996 85.3219 58.454L82.1816 58.3517L81.5916 59.3715Z" fill="#6A8200"/>
<path d="M69.0035 42.0741C69.2611 42.7616 69.6552 43.2277 70.6046 43.9676C71.1744 44.4116 71.699 44.992 71.9474 45.4531C72.7915 47.0198 72.9382 47.1799 73.5702 47.224L74.1566 47.2647L73.6008 46.988C73.2949 46.8359 72.9513 46.5721 72.837 46.4018L72.629 46.0923L73.0896 46.3809C73.62 46.7135 75.0013 47.0103 75.6395 46.929C75.8794 46.8984 76.2626 46.929 76.4912 46.997C76.8945 47.1171 76.9034 47.1046 76.7967 46.5726C76.472 44.9541 75.5489 44.1813 73.3031 43.6472C71.7646 43.2813 70.7255 42.8752 70.0027 42.3574C69.6966 42.1382 69.3143 41.8988 69.1533 41.8254C68.8977 41.7091 68.8785 41.7408 69.0035 42.0741Z" fill="#6A8200"/>
<path d="M59.8613 39.8144C58.8205 42.1322 57.5433 43.1535 53.9704 44.5247C53.039 44.8823 52.2297 45.2356 52.1719 45.3099C51.8686 45.7012 55.7131 45.1873 56.8123 44.6896C57.6232 44.3225 58.6028 43.6281 59.0126 43.1295C59.4618 42.5831 59.6202 42.7665 59.2281 43.3791C58.6501 44.2819 57.353 45.2247 56.2272 45.5605C55.0969 45.8975 53.4284 46.1377 52.2082 46.1393C51.7468 46.14 51.4102 46.1932 51.4603 46.2577C51.6472 46.4988 53.774 47.2252 54.5472 47.3121C56.9639 47.5838 59.268 46.1799 60.0152 43.9798C60.4343 42.7466 60.5401 40.9201 60.2366 40.162C60.0302 39.6463 59.9643 39.5851 59.8613 39.8144Z" fill="#6A8200"/>
<path d="M62.6532 13.6416C62.515 14.0086 62.2059 16.2083 62.2087 16.8046C62.2134 17.7897 62.6521 19.0599 63.0841 19.3387C63.6933 19.7319 64.5577 19.6603 64.9857 19.1815C65.2786 18.8535 65.3465 18.5671 65.3465 17.6573C65.3465 16.524 65.1582 15.9633 64.2582 14.4157C63.8118 13.648 62.8292 13.1742 62.6532 13.6416Z" fill="#F6B721"/>
<path d="M68.5603 15.0824C68.7229 15.2267 69.2245 15.7212 69.6746 16.1816C71.4586 18.0055 72.5179 18.7341 73.9294 19.1078C74.744 19.3233 74.8581 19.3241 75.4005 19.1181C75.9054 18.9261 75.9884 18.8247 75.9884 18.3997C75.9884 17.1485 72.4771 15.4122 68.9426 14.9154C68.287 14.8232 68.2742 14.8288 68.5603 15.0824Z" fill="#F6B721"/>
<path d="M59.1654 14.1472C59.1129 14.215 58.7746 14.3145 58.4137 14.3683C58.0527 14.4223 57.4282 14.5858 57.0257 14.7317C56.6232 14.8777 56.2059 14.9971 56.0986 14.9971C55.8811 14.9971 54.066 15.6192 53.6578 15.8336C53.5139 15.9092 53.2321 16.0281 53.0317 16.0977C52.4326 16.3061 51.2426 17.3603 51.0319 17.8694C50.8686 18.2637 50.8851 18.4055 51.1299 18.7032C51.393 19.023 51.5125 19.0548 52.236 18.9977C52.7571 18.9564 53.3279 18.7804 53.8322 18.5052C54.7321 18.0143 59.7336 14.0239 59.4491 14.0239C59.3456 14.0239 59.2179 14.0794 59.1654 14.1472Z" fill="#F6B721"/>
<path d="M66.8484 14.7379C68.407 16.0822 69.9321 18.1322 71.0952 20.4465L71.9551 22.1573L72.7943 22.1923L73.6332 22.2272L72.9544 21.9664L72.2756 21.7056L73.9139 21.6382C75.6342 21.5674 76.3092 21.3828 77.0046 20.7928C77.797 20.1208 77.8108 19.0506 77.0365 18.3103L76.6979 17.9863L76.692 18.3779C76.684 18.9195 76.4162 19.2675 75.8174 19.5143C74.069 20.2348 71.6559 19.0925 69.0973 16.333C67.859 14.9976 67.2426 14.4836 66.7421 14.3694C66.3137 14.2718 66.3156 14.2784 66.8484 14.7379Z" fill="#FC303A"/>
<path d="M61.6731 13.792C61.2423 14.0502 60.0142 15.3442 59.4378 16.1469C58.9215 16.866 58.9135 16.9058 59.0848 17.8906C59.2809 19.0185 59.843 20.0283 60.5803 20.5772C62.5046 22.0098 65.4564 22.0605 67.2107 20.6909C68.0005 20.0745 68.0778 19.9616 68.3906 18.9675C68.7372 17.8658 68.6952 17.6613 67.93 16.7323C67.1395 15.7724 64.8624 13.8072 64.6952 13.9405C64.668 13.9622 64.9384 14.4747 65.2962 15.0793C65.8698 16.0491 65.9543 16.3299 66.012 17.4573C66.0694 18.5824 66.0303 18.8026 65.6856 19.2914C65.2284 19.9396 64.5488 20.2099 63.6645 20.0956C61.9499 19.8738 61.2982 18.2353 61.7741 15.3424C61.922 14.4437 62.0206 13.6907 61.9934 13.669C61.9662 13.6473 61.8221 13.7026 61.6731 13.792Z" fill="#FC303A"/>
<path d="M56.4753 20.1438C56.5539 19.9598 56.6334 19.7694 56.7082 19.5852C57.1965 18.3826 58.5702 15.9319 58.9681 15.5533C59.0888 15.4386 59.2418 15.2196 59.3083 15.0667C59.375 14.9137 58.4074 15.6414 57.1583 16.6837C54.1956 19.1557 53.0045 19.7532 51.4893 19.5267C51.0713 19.4643 50.8304 19.3115 50.5908 18.9571C50.2913 18.5137 50.2526 18.4969 50.1313 18.758C49.7915 19.4901 50.5767 20.8418 51.5055 21.1232C52.0782 21.2967 53.6918 21.2893 54.2822 21.1104C54.5395 21.0325 56.0701 20.393 56.4638 20.1509C56.4653 20.1499 56.4669 20.1488 56.4686 20.1478L56.4721 20.1457L56.4753 20.1438Z" fill="#FC303A"/>
</svg>
