<svg width="190" height="91" viewBox="0 0 190 91" fill="none" xmlns="http://www.w3.org/2000/svg">
<path d="M136.916 9.9891C136.916 9.9891 128.684 3.87673 122.576 1.98906C116.197 0.0174753 112.187 -0.111806 105.561 0.623201C101.293 1.09651 99.1155 2.63455 94.8541 3.1598C90.1101 3.74453 87.3782 2.73213 82.6181 3.1598C77.6288 3.60806 74.6986 3.73187 69.9997 5.50127C66.5219 6.81084 61.5874 9.9891 61.5874 9.9891L55.2782 14.0867L53.4414 16.4275L49.9199 20.9153C49.9199 20.9153 48.4855 26.6886 45.905 29.1111C43.988 30.9107 41.8689 30.4043 39.9781 32.2324C38.5347 33.628 37.7497 34.6044 37.1103 36.5258C36.342 38.8344 37.8529 40.4517 37.1103 42.769L39.4046 45.891L41.89 46.4764L44.3755 43.3544L44.949 39.452H47.6257L50.4935 41.0129L52.9789 37.891V34.5739L48.7728 35.3544L50.4935 32.2324L52.8858 31.7446C52.8858 31.7446 57.4215 27.6927 60.0529 24.8178C61.9092 22.7896 64.2704 19.7601 65.5114 18.1365C65.9867 17.4811 66.3621 17.0128 66.3621 17.0128C66.3621 17.0128 66.0373 17.4484 65.5114 18.1365C64.5477 19.4654 63.1733 21.5635 63.6855 22.0867C64.4502 22.8679 68.6564 21.6958 68.6564 21.6958C68.6564 21.6958 66.8743 22.3302 65.7886 22.8665C63.3276 24.0823 60.0529 26.9641 60.0529 26.9641L55.2782 31.2568L52.8858 31.7446L50.4935 32.2324L48.7728 35.3544L52.9789 34.5739V37.891L50.4935 41.0129L47.6257 39.452H44.949L44.3755 43.3544L41.89 46.4764L39.4046 45.891L37.1103 42.769C35.8414 46.7286 32.5387 47.3852 29.0804 49.5983C26.3362 51.3545 21.624 53.3057 21.624 53.3057L22.1976 55.8423C22.1976 55.8423 27.5955 55.51 30.9923 54.8667C35.6612 53.9824 42.6548 51.3545 42.6548 51.3545C42.6548 51.3545 47.8152 47.6898 51.6406 47.0617C53.8521 46.6987 55.1982 46.5283 57.3763 47.0617C59.4867 47.5787 60.2928 48.8839 62.3472 49.5983C66.5223 51.0502 69.2196 50.3553 73.6273 50.1837C79.5579 49.9528 88.6356 47.7447 88.6356 47.7447L83.1867 49.5983C83.1867 49.5983 81.3911 50.3261 79.4954 51.3545C79.4954 51.3545 82.3369 51.1692 84.1426 51.3545C85.7308 51.5173 86.621 51.6943 88.1576 52.1349C89.7729 52.5981 92.1725 53.6959 92.1725 53.6959C92.6778 50.8311 94.24 49.4237 96.5699 47.7447C98.8161 46.126 100.593 46.1861 103.261 45.5085C105.764 44.8732 109.762 44.33 109.762 44.33V51.7447C109.762 54.6403 108.141 55.0285 106.512 56.6228C104.27 58.8161 102.336 59.1917 99.4377 60.3301C97.829 60.962 95.2316 61.696 95.2316 61.696L92.1725 60.3301L88.9223 61.696L87.2017 64.4277C87.2017 64.4277 88.6033 66.239 89.8783 66.7692C91.3995 67.4017 92.5813 67.4452 94.0844 66.7692C95.2932 66.2255 95.4228 65.2082 96.5699 64.4277C97.717 63.6472 101.984 64.2643 105.173 63.0618C109.624 61.3838 111.317 57.9293 113.467 54.4764L119.321 44.33L125.248 40.0373L132.896 35.3551L129.837 32.6227C129.837 32.6227 137.404 36.7934 142.646 36.7202C146.25 36.67 151.632 34.5739 151.632 34.5739L158.897 32.6227C159.375 31.4201 160.675 31.3405 161 30.0861C161.289 28.9713 161.07 28.2161 160.618 27.1592C160.06 25.8541 159.234 25.1567 158.133 24.6086C157.724 24.4054 157.278 24.2227 156.794 24.0373C154.767 23.2606 152.97 24.4275 151.25 24.0373C149.529 23.647 144.749 17.061 144.749 17.061C140.771 14.2652 136.916 9.9891 136.916 9.9891Z" fill="#B45408"/>
<path d="M42.6548 51.3545C42.6548 51.3545 43.6954 51.8494 44.3755 52.1349C45.6202 52.6576 46.2907 53.1301 47.6257 53.3057C48.4402 53.4128 48.7728 53.1106 49.7287 53.3057C50.6847 53.5008 53.4104 56.4584 55.8468 58.3789C57.8323 59.9439 58.8657 60.9504 61.0088 62.2813C62.5209 63.2203 63.3212 63.9338 65.0238 64.4277L62.9151 59.1594C62.9151 59.1594 63.0701 57.6473 63.6855 57.013C64.7361 55.93 66.056 56.6625 67.5092 57.013C70.4451 57.7212 73.3405 62.1838 73.3405 62.1838L73.6273 60.7203C73.6273 60.7203 72.7321 58.4415 73.0537 57.013C73.4912 55.0693 74.9852 54.5717 76.4951 53.3057C77.3239 52.6108 78.4256 51.9348 79.4954 51.3545C81.3911 50.3261 83.1867 49.5983 83.1867 49.5983L88.6356 47.7447C88.6356 47.7447 79.5579 49.9528 73.6273 50.1837C69.2196 50.3553 66.5223 51.0502 62.3472 49.5983C62.3472 49.5983 55.8095 49.7854 51.6406 50.1837C48.1183 50.5202 42.6548 51.3545 42.6548 51.3545Z" fill="#B45408"/>
<path d="M62.3472 49.5983C60.2928 48.8839 59.4867 47.5787 57.3763 47.0617C55.1982 46.5283 53.8521 46.6987 51.6406 47.0617C47.8152 47.6898 42.6548 51.3545 42.6548 51.3545C42.6548 51.3545 48.1183 50.5202 51.6406 50.1837C55.8095 49.7854 62.3472 49.5983 62.3472 49.5983Z" fill="#B45408"/>
<path d="M73.0537 57.013C72.7321 58.4415 73.6273 60.7203 73.6273 60.7203C73.6273 60.7203 77.6024 63.8077 80.5101 63.6472C83.5155 63.4812 87.2017 59.7447 87.2017 59.7447C87.2017 59.7447 90.5503 56.4761 89.8783 55.2569L88.1576 52.1349C86.621 51.6943 85.7308 51.5173 84.1426 51.3545C82.3369 51.1692 79.4954 51.3545 79.4954 51.3545C78.4256 51.9348 77.3239 52.6108 76.4951 53.3057C74.9852 54.5717 73.4912 55.0693 73.0537 57.013Z" fill="#DD6C11"/>
<path d="M65.0238 64.4277C68.0539 65.3066 71.7154 63.0618 73.0537 63.6472L73.3405 62.1838C73.3405 62.1838 70.4451 57.7212 67.5092 57.013C66.056 56.6625 64.7361 55.93 63.6855 57.013C63.0701 57.6473 62.9151 59.1594 62.9151 59.1594L65.0238 64.4277Z" fill="#B45408"/>
<path d="M73.0537 63.6472C74.392 64.2326 75.4333 65.6211 77.2599 66.1838C79.4757 66.8664 80.9349 66.7304 83.1867 66.1838C84.8463 65.7809 87.2017 64.4277 87.2017 64.4277L88.9223 61.696L92.1725 60.3301V56.6228C92.1725 55.4798 91.9742 54.8209 92.1725 53.6959C92.1725 53.6959 89.7729 52.5981 88.1576 52.1349L89.8783 55.2569C90.5503 56.4761 87.2017 59.7447 87.2017 59.7447C87.2017 59.7447 83.5155 63.4812 80.5101 63.6472C77.6024 63.8077 73.6273 60.7203 73.6273 60.7203L73.3405 62.1838L73.0537 63.6472Z" fill="#B45408"/>
<path d="M92.1725 56.6228V60.3301L95.2316 61.696C95.2316 61.696 97.829 60.962 99.4377 60.3301C102.336 59.1917 104.27 58.8161 106.512 56.6228C108.141 55.0285 109.762 54.6403 109.762 51.7447V44.33C109.762 44.33 105.764 44.8732 103.261 45.5085C100.593 46.1861 98.8161 46.126 96.5699 47.7447C94.24 49.4237 92.6778 50.8311 92.1725 53.6959C91.9742 54.8209 92.1725 55.4798 92.1725 56.6228Z" fill="#DD6C11"/>
<path d="M131.175 41.9886C131.175 41.9886 134.703 40.4475 137.102 40.0373C139.826 39.5714 141.432 40.3642 144.176 40.0373C144.483 40.0007 144.803 39.952 145.132 39.8935C148.668 39.2636 153.167 37.5007 153.167 37.5007L158.515 34.5739C158.515 34.5739 158.611 33.3428 158.897 32.6227L151.632 34.5739C151.632 34.5739 146.25 36.67 142.646 36.7202C137.404 36.7934 129.837 32.6227 129.837 32.6227L132.896 35.3551L125.248 40.0373L119.321 44.33L113.467 54.4764C114.763 52.3947 116.225 50.3136 118.557 48.6227C120.031 47.5535 121.887 46.4756 123.719 45.5085C127.499 43.5123 131.175 41.9886 131.175 41.9886Z" fill="#B45408"/>
<path d="M55.2782 31.2568L60.0529 26.9641C60.0529 26.9641 63.3276 24.0823 65.7886 22.8665C66.8743 22.3302 68.6564 21.6958 68.6564 21.6958C68.6564 21.6958 64.4502 22.8679 63.6855 22.0867C63.1733 21.5635 64.5477 19.4654 65.5114 18.1365C64.2704 19.7601 61.9092 22.7896 60.0529 24.8178C57.4215 27.6927 52.8858 31.7446 52.8858 31.7446L55.2782 31.2568Z" fill="#6E2A01"/>
<path d="M20.2857 67.1594C29.1427 72.2739 35.0414 73.3731 44.949 75.7448C50.9243 77.1751 54.3595 77.5911 60.4353 78.4765C74.0011 80.4535 81.7194 81.1743 95.4228 81.2082C107.993 81.2393 115.119 81.019 127.542 79.0619C139.927 77.1109 146.989 75.7913 158.706 71.257C165.235 68.7304 169.349 67.8922 174.957 63.6472C178.943 60.6301 181.538 58.9066 183.943 54.4764C185.328 51.9253 186.498 50.3677 186.428 47.452C186.381 45.4743 185.862 44.3887 185.09 42.5739C183.507 38.8508 181.57 37.2606 178.59 34.5739C177.748 33.8155 176.974 33.1811 176.22 32.6227C176.22 32.6227 178.812 36.4444 179.546 39.2568C180.564 43.1624 180.581 45.8249 179.163 49.5983C177.96 52.8 176.693 54.5707 174.001 56.6228C171.668 58.4012 167.118 59.5496 167.118 59.5496L162.912 63.0618C162.912 63.0618 159.051 66.9229 156.029 68.5253C152.526 70.3833 150.226 71.1456 146.279 71.257C143.101 71.3466 138.249 69.8911 138.249 69.8911C138.249 69.8911 136.235 71.4602 134.808 72.2326C133.178 73.1144 132.203 73.546 130.41 73.9887C127.29 74.7595 125.392 74.2214 122.189 73.9887C119.787 73.8142 116.071 73.2082 116.071 73.2082C116.071 73.2082 112.835 72.2306 110.909 71.257C109.589 70.59 108.871 70.1593 107.659 69.3057C107.539 69.2215 107.417 69.1322 107.293 69.0386C106.813 69.9 106.229 70.7227 105.556 71.257C102.77 73.4674 99.7305 70.6304 96.5699 72.2326C95.1784 72.938 94.7305 73.91 93.3197 74.5741C90.8639 75.73 86.4369 75.3546 86.4369 75.3546L89.4959 76.7204C89.4959 76.7204 83.4038 77.7631 79.4954 77.5009C76.4925 77.2995 74.6982 77.2819 71.9066 76.135C69.3514 75.0853 68.5677 73.1952 65.9797 72.2326C61.9812 70.7453 59.335 72.0729 55.082 72.2326C53.6832 72.2851 51.8547 72.3981 50.4935 72.489C49.3817 72.5633 48.5816 72.6228 48.5816 72.6228C48.5816 72.6228 44.9044 72.8086 42.6548 72.2326C40.515 71.6847 39.6676 70.2681 37.4927 69.8911C36.0205 69.6359 34.8456 70.8294 33.6689 69.8911C32.9828 69.344 33.0589 68.6393 32.5218 67.9399C31.4715 66.5723 29.94 66.7081 29.0804 65.2082C28.3485 63.931 29.0476 62.778 28.3156 61.5008C27.8617 60.7088 27.5232 60.2702 26.7861 59.7447C25.3057 58.6893 23.8752 59.8417 22.1976 59.1594C20.7358 58.5648 18.8736 56.8346 18.8736 56.8346C16.3068 57.2414 13.0206 57.013 13.0206 57.013C13.0206 57.013 12.6133 56.9575 12.2046 56.8346C12.2046 56.8346 14.3745 58.7548 15.3122 60.3301C15.8674 61.2629 15.921 61.9251 16.4619 62.8667C17.5437 64.7496 20.0945 67.0493 20.0945 67.0493C20.158 67.0858 20.2217 67.1224 20.2857 67.1594Z" fill="#FDD566"/>
<path d="M45.905 29.1111C48.4855 26.6886 49.9199 20.9153 49.9199 20.9153L53.4414 16.4275L43.4195 18.5745C43.4195 18.5745 34.7616 20.7435 29.4628 22.8665C23.3086 25.3322 19.6199 26.585 14.3589 30.6714C9.90483 34.131 6.22265 35.801 4.41708 41.2081C3.30686 44.5328 3.12261 46.7502 3.84847 50.1837C4.59035 53.693 5.97198 55.4665 8.13562 58.2438L8.24085 58.3789C11.7921 62.9383 15.1677 64.2217 20.0945 67.0493C20.0945 67.0493 17.5437 64.7496 16.4619 62.8667C15.921 61.9251 15.8674 61.2629 15.3122 60.3301C14.3745 58.7548 12.2046 56.8346 12.2046 56.8346C12.0179 56.7785 11.8308 56.7082 11.6822 56.6228C10.3653 55.8651 10.2714 54.4566 10.3439 52.9154C10.4257 51.1772 11.1278 50.1095 12.4519 49.013C13.3977 48.2298 15.3122 47.7447 15.3122 47.7447C15.3744 46.6266 15.6716 45.5189 14.7413 44.7203C13.3116 43.4931 11.787 44.9303 9.96154 44.5252C8.64626 44.2333 7.25601 44.6106 6.71134 43.3544C6.24232 42.2726 6.45357 40.9846 7.4761 40.4276C8.13476 40.0687 8.6556 40.5758 9.38798 40.4276C11.2072 40.0595 11.4216 38.2646 13.0206 37.3056C15.1787 36.0112 19.1386 35.3544 19.1386 35.3544C19.1386 35.3544 18.2895 33.09 19.1386 32.2324C20.107 31.2543 22.58 32.8178 22.58 32.8178C22.58 32.8178 23.9307 30.2913 25.2616 29.1111C26.5469 27.9714 27.4219 27.3575 29.0804 26.9641C30.4622 26.6364 32.713 26.9641 32.713 26.9641C32.713 26.9641 32.2472 25.0767 32.713 24.0373C33.1985 22.9535 33.948 22.577 35.0122 22.0867C36.2429 21.5197 37.1076 21.8571 38.4486 21.6958C40.7663 21.4169 42.1071 21.4753 44.3755 20.9153C46.3721 20.4224 49.3464 19.1592 49.3464 19.1592C49.3464 19.1592 46.1933 22.749 45.905 25.5982C45.8283 26.3562 45.905 27.5495 45.905 27.5495C45.905 27.5495 45.0189 27.7948 43.9931 28.1705C43.2753 28.4334 42.489 28.7601 41.89 29.1111C39.6463 30.426 37.1103 33.7934 37.1103 33.7934L35.3171 35.3544L30.6099 39.452C30.6099 39.452 27.2041 41.6409 25.2616 43.3544C23.7427 44.6942 22.5693 45.2542 21.624 47.0617C20.6242 48.9738 20.6681 52.5252 20.6681 52.5252L21.624 53.3057C21.624 53.3057 26.3362 51.3545 29.0804 49.5983C32.5387 47.3852 35.8414 46.7286 37.1103 42.769C37.8529 40.4517 36.342 38.8344 37.1103 36.5258C37.7497 34.6044 38.5347 33.628 39.9781 32.2324C41.8689 30.4043 43.988 30.9107 45.905 29.1111Z" fill="#FDD566"/>
<path d="M25.2616 72.6228C38.5544 79.1419 48.4114 81.4331 63.1169 82.5748C80.7012 83.94 95.9963 84.5253 116.071 83.7448C131.293 83.153 138.637 81.3916 153.167 76.7204C163.284 73.4675 175.882 67.549 178.399 65.4033C180.114 63.9406 186.267 59.1865 187.963 53.5015C188.47 51.8007 188.781 50.4266 188.86 49.013C188.926 47.815 188.826 46.5887 188.536 45.1112C187.667 40.6755 185.384 38.7167 182.418 35.3551C177.26 29.5083 172.669 27.9422 165.594 24.8184C161.542 23.0293 154.887 21.1111 154.887 21.1111C154.887 21.1111 150.064 19.9767 147.24 18.5745C146.427 18.1711 145.586 17.6487 144.749 17.061C144.749 17.061 149.529 23.647 151.25 24.0373C152.97 24.4275 154.767 23.2606 156.794 24.0373C157.278 24.2227 157.724 24.4054 158.133 24.6086C158.133 24.6086 165.214 26.6167 169.413 28.7202L169.517 28.7727C172.248 30.1403 174.16 31.0982 176.22 32.6227C176.974 33.1811 177.748 33.8155 178.59 34.5739C181.57 37.2606 183.507 38.8508 185.09 42.5739C185.862 44.3887 186.381 45.4743 186.428 47.452C186.498 50.3677 185.328 51.9253 183.943 54.4764C181.538 58.9066 178.943 60.6301 174.957 63.6472C169.349 67.8922 165.235 68.7304 158.706 71.257C146.989 75.7913 139.927 77.1109 127.542 79.0619C115.119 81.019 107.993 81.2393 95.4228 81.2082C81.7194 81.1743 74.0011 80.4535 60.4353 78.4765C54.3595 77.5911 50.9243 77.1751 44.949 75.7448C35.0414 73.3731 29.1427 72.2739 20.2857 67.1594C20.2217 67.1224 20.158 67.0858 20.0945 67.0493C15.1677 64.2217 11.7921 62.9383 8.24085 58.3789L8.13562 58.2438C5.97198 55.4665 4.59035 53.693 3.84847 50.1837C3.12261 46.7502 3.30686 44.5328 4.41708 41.2081C6.22265 35.801 9.90483 34.131 14.3589 30.6714C19.6199 26.585 23.3086 25.3322 29.4628 22.8665C34.7616 20.7435 43.4195 18.5745 43.4195 18.5745L53.4414 16.4275L55.2782 14.0867C55.2782 14.0867 50.2412 14.6374 47.057 15.2574C42.2713 16.1893 39.6594 17.0815 35.0122 18.5745C31.1605 19.812 28.9759 20.4698 25.2616 22.0867C20.038 24.3606 17.1052 25.7889 12.4519 29.1111C8.84861 31.6838 6.34561 32.8315 3.84847 36.5258C1.5807 39.8807 0.306334 42.2072 0.215889 46.2819V47.1551C0.316538 51.4973 1.94823 54.2935 4.80441 57.7942C10.5351 64.8179 16.0948 68.1273 25.2616 72.6228Z" fill="#FBAD37"/>
<path d="M63.1169 82.5748C48.4114 81.4331 38.5544 79.1419 25.2616 72.6228C16.0948 68.1273 10.5351 64.8179 4.80441 57.7942C1.94823 54.2935 0.316538 51.4973 0.215889 47.1551V54.0862C0.215889 54.0862 3.59827 60.8335 6.71134 64.4277C10.9542 69.3263 14.3399 71.1373 19.9033 74.3789C25.131 77.4249 28.3919 78.5295 34.0513 80.6229C39.7596 82.7343 43.0605 83.6624 48.964 85.1107C61.4802 88.1813 68.8066 88.6337 81.6572 89.4034C97.016 90.3234 105.767 90.3079 121.042 88.4278C133.75 86.8636 141.054 86.4066 153.167 82.1839C161.515 79.2732 167.118 77.3058 174.957 72.818C180.827 69.4575 183.862 67.1857 187.002 61.1106C188.115 58.957 189.105 55.2569 189.105 55.2569L188.86 49.013C188.781 50.4266 188.47 51.8007 187.963 53.5015C186.267 59.1865 180.114 63.9406 178.399 65.4033C175.882 67.549 163.284 73.4675 153.167 76.7204C138.637 81.3916 131.293 83.153 116.071 83.7448C95.9963 84.5253 80.7012 83.94 63.1169 82.5748Z" fill="#471702"/>
<path d="M105.173 63.0618C101.984 64.2643 97.717 63.6472 96.5699 64.4277L100.665 65.0248C101.29 64.8951 101.732 64.8179 101.732 64.8179L101.894 65.2039L103.261 65.4033C103.261 65.4033 104.522 66.6937 105.923 67.9161C106.641 67.3752 107.331 66.7775 107.856 66.3009C107.061 65.7847 106.512 65.4033 106.512 65.4033V62.8667C106.512 62.8667 110.372 65.9047 113.203 67.1594C116.376 68.5654 118.361 69.0024 121.807 69.3057C123.741 69.476 124.85 69.5434 126.778 69.3057C129.242 69.002 130.571 68.4383 132.896 67.5496C135.46 66.5692 139.205 64.4277 139.205 64.4277C139.205 64.4277 140.079 63.0697 140.352 62.0862C140.658 60.9842 140.718 60.291 140.543 59.1594C140.263 57.3387 139.344 56.5276 138.249 55.0618C136.936 53.3042 135.927 52.5374 134.234 51.1593C130.606 48.2055 123.719 45.5085 123.719 45.5085C121.887 46.4756 120.031 47.5535 118.557 48.6227C116.225 50.3136 114.763 52.3947 113.467 54.4764C111.317 57.9293 109.624 61.3838 105.173 63.0618Z" fill="#FEE47E"/>
<path d="M137.102 40.0373C134.703 40.4475 131.175 41.9886 131.175 41.9886C131.175 41.9886 127.499 43.5123 123.719 45.5085C123.719 45.5085 130.606 48.2055 134.234 51.1593C135.927 52.5374 136.936 53.3042 138.249 55.0618C139.344 56.5276 140.263 57.3387 140.543 59.1594C140.718 60.291 140.658 60.9842 140.352 62.0862C140.079 63.0697 139.205 64.4277 139.205 64.4277L139.034 65.4033C139.034 65.4033 141.823 65.5403 143.602 65.4033C146.8 65.1569 148.666 64.8925 151.632 63.6472C154.582 62.4087 156.616 61.8242 158.897 59.5496C160.265 58.1859 161.004 57.1199 161.574 55.2569C162.041 53.7294 161.912 52.7219 161.574 51.1593C161.075 48.8543 160.069 47.5999 158.515 46.066C158.331 45.8848 158.14 45.6997 157.941 45.5085C155.897 43.5436 151.632 41.9886 151.632 41.9886L148.382 40.3591L145.132 39.8935C144.803 39.952 144.483 40.0007 144.176 40.0373C141.432 40.3642 139.826 39.5714 137.102 40.0373Z" fill="#FEE47E"/>
<path d="M158.515 34.5739L153.167 37.5007C153.167 37.5007 148.668 39.2636 145.132 39.8935L148.382 40.3591C148.382 40.3591 152.045 40.6145 154.309 41.2081C158.416 42.2851 161.023 43.0652 164.059 46.0861L164.102 46.1283C165.961 47.978 167.171 49.1815 167.883 51.7447C168.702 54.6918 167.118 59.5496 167.118 59.5496C167.118 59.5496 171.668 58.4012 174.001 56.6228C176.693 54.5707 177.96 52.8 179.163 49.5983C180.581 45.8249 180.564 43.1624 179.546 39.2568C178.812 36.4444 176.22 32.6227 176.22 32.6227C174.16 31.0982 172.248 30.1403 169.517 28.7727L169.413 28.7202C165.214 26.6167 158.133 24.6086 158.133 24.6086C159.234 25.1567 160.06 25.8541 160.618 27.1592C161.07 28.2161 161.289 28.9713 161 30.0861C160.675 31.3405 159.375 31.4201 158.897 32.6227C158.611 33.3428 158.515 34.5739 158.515 34.5739Z" fill="#FEE47E"/>
<path d="M139.034 65.4033L139.205 64.4277C139.205 64.4277 135.46 66.5692 132.896 67.5496C130.571 68.4383 129.242 69.002 126.778 69.3057C124.85 69.5434 123.741 69.476 121.807 69.3057C118.361 69.0024 116.376 68.5654 113.203 67.1594C110.372 65.9047 106.512 62.8667 106.512 62.8667V65.4033C106.512 65.4033 107.061 65.7847 107.856 66.3009C108.429 65.7798 108.806 65.4033 108.806 65.4033C108.806 65.4033 108.66 65.9108 108.385 66.6415C109.396 67.2834 110.643 68.0338 111.674 68.5253C113.963 69.6162 115.32 70.1369 117.792 70.6716C120.067 71.1638 121.396 71.5312 123.719 71.6472C124.866 71.7045 127.51 71.8135 129.837 71.257C131.66 70.8208 134.234 69.3057 134.234 69.3057L138.795 66.7692L139.034 65.4033Z" fill="#DC6209"/>
<path d="M143.602 65.4033C141.823 65.5403 139.034 65.4033 139.034 65.4033L138.795 66.7692C138.795 66.7692 141.122 67.3785 142.646 67.5496C144.576 67.7663 145.702 67.8749 147.617 67.5496C149.903 67.1613 151.45 66.8076 153.544 65.7935C155.81 64.6961 157.156 63.9129 159.088 62.2813L159.199 62.1879C161.512 60.2362 163.117 58.8817 163.677 55.8423C163.898 54.6441 163.884 53.9211 163.677 52.7203C163.411 51.1731 163.052 50.2841 162.147 49.013C161.083 47.5164 158.515 46.066 158.515 46.066C160.069 47.5999 161.075 48.8543 161.574 51.1593C161.912 52.7219 162.041 53.7294 161.574 55.2569C161.004 57.1199 160.265 58.1859 158.897 59.5496C156.616 61.8242 154.582 62.4087 151.632 63.6472C148.666 64.8925 146.8 65.1569 143.602 65.4033Z" fill="#DC6209"/>
<path d="M167.118 59.5496C167.118 59.5496 168.702 54.6918 167.883 51.7447C167.171 49.1815 165.961 47.978 164.102 46.1283L164.059 46.0861C161.023 43.0652 158.416 42.2851 154.309 41.2081C152.045 40.6145 148.382 40.3591 148.382 40.3591L151.632 41.9886C151.632 41.9886 155.897 43.5436 157.941 45.5085C158.14 45.6997 158.331 45.8848 158.515 46.066C158.515 46.066 161.083 47.5164 162.147 49.013C163.052 50.2841 163.411 51.1731 163.677 52.7203C163.884 53.9211 163.898 54.6441 163.677 55.8423C163.117 58.8817 161.512 60.2362 159.199 62.1879L159.088 62.2813C157.156 63.9129 155.81 64.6961 153.544 65.7935C151.45 66.8076 149.903 67.1613 147.617 67.5496C145.702 67.8749 144.576 67.7663 142.646 67.5496C141.122 67.3785 138.795 66.7692 138.795 66.7692L138.249 69.8911C138.249 69.8911 143.101 71.3466 146.279 71.257C150.226 71.1456 152.526 70.3833 156.029 68.5253C159.051 66.9229 162.912 63.0618 162.912 63.0618L167.118 59.5496Z" fill="#FBAB2F"/>
<path d="M138.249 69.8911L138.795 66.7692L134.234 69.3057C134.234 69.3057 131.66 70.8208 129.837 71.257C127.51 71.8135 124.866 71.7045 123.719 71.6472C121.396 71.5312 120.067 71.1638 117.792 70.6716C115.32 70.1369 113.963 69.6162 111.674 68.5253C110.643 68.0338 109.396 67.2834 108.385 66.6415C108.129 67.3232 107.76 68.1993 107.293 69.0386C107.417 69.1322 107.539 69.2215 107.659 69.3057C108.871 70.1593 109.589 70.59 110.909 71.257C112.835 72.2306 116.071 73.2082 116.071 73.2082C116.071 73.2082 119.787 73.8142 122.189 73.9887C125.392 74.2214 127.29 74.7595 130.41 73.9887C132.203 73.546 133.178 73.1144 134.808 72.2326C136.235 71.4602 138.249 69.8911 138.249 69.8911Z" fill="#FBAB2F"/>
<path d="M30.9923 54.8667C27.5955 55.51 22.1976 55.8423 22.1976 55.8423C22.1976 55.8423 21.4351 56.1403 20.6681 56.3923L24.3007 56.2325C24.3007 56.2325 29.1788 55.4334 31.757 56.8346C33.1687 57.6019 33.7913 58.635 34.5499 59.7447C34.942 60.3184 35.3705 60.9125 35.9632 61.5008C37.9369 63.4603 39.0222 65.5984 41.3164 66.1838C43.6107 66.7692 48.4369 65.8397 52.9789 66.1838C53.1089 66.1936 53.2363 66.2029 53.3613 66.2117C55.9064 66.3904 57.4854 66.3715 60.0529 67.0493C62.0554 67.578 65.0238 68.9155 65.0238 68.9155C65.0238 68.9155 65.3957 69.1514 65.9797 69.4956C67.1501 70.1854 69.1723 71.31 70.7594 71.8423C76.438 73.7468 86.0545 71.257 86.0545 71.257C86.0545 71.257 88.9086 70.7346 90.643 70.0862C93.661 68.9581 94.6811 66.8704 97.717 65.7935C98.5986 65.4808 99.8054 65.2031 100.665 65.0248L96.5699 64.4277C95.4228 65.2082 95.2932 66.2255 94.0844 66.7692C92.5813 67.4452 91.3995 67.4017 89.8783 66.7692C88.6033 66.239 87.2017 64.4277 87.2017 64.4277C87.2017 64.4277 84.8463 65.7809 83.1867 66.1838C80.9349 66.7304 79.4757 66.8664 77.2599 66.1838C75.4333 65.6211 74.392 64.2326 73.0537 63.6472C71.7154 63.0618 68.0539 65.3066 65.0238 64.4277C63.3212 63.9338 62.5209 63.2203 61.0088 62.2813C58.8657 60.9504 57.8323 59.9439 55.8468 58.3789C53.4104 56.4584 50.6847 53.5008 49.7287 53.3057C48.7728 53.1106 48.4402 53.4128 47.6257 53.3057C46.2907 53.1301 45.6202 52.6576 44.3755 52.1349C43.6954 51.8494 42.6548 51.3545 42.6548 51.3545C42.6548 51.3545 35.6612 53.9824 30.9923 54.8667Z" fill="url(#paint0_linear_2751_624)"/>
<path d="M45.905 25.5982C46.1933 22.749 49.3464 19.1592 49.3464 19.1592C49.3464 19.1592 46.3721 20.4224 44.3755 20.9153C42.1071 21.4753 40.7663 21.4169 38.4486 21.6958L37.1103 23.2568L35.3896 25.5982L35.0122 26.9641C35.0122 26.9641 38.4046 27.2344 40.5517 26.9641C42.6904 26.6949 45.905 25.5982 45.905 25.5982Z" fill="#8AA60C"/>
<path d="M20.6681 52.5252C20.6681 52.5252 20.6242 48.9738 21.624 47.0617C22.5693 45.2542 23.7427 44.6942 25.2616 43.3544C27.2041 41.6409 30.6099 39.452 30.6099 39.452L35.3171 35.3544L37.1103 33.7934C37.1103 33.7934 39.6463 30.426 41.89 29.1111C42.489 28.7601 43.2753 28.4334 43.9931 28.1705C43.9931 28.1705 41.5017 28.2855 39.9781 28.7202C37.8895 29.3161 36.9988 30.3693 35.0122 31.2568C33.7581 31.817 31.757 32.5843 31.757 32.5843L27.1685 32.701L22.58 32.8178C22.58 32.8178 20.107 31.2543 19.1386 32.2324C18.2895 33.09 19.1386 35.3544 19.1386 35.3544C19.1386 35.3544 15.1787 36.0112 13.0206 37.3056C11.4216 38.2646 11.2072 40.0595 9.38798 40.4276C8.6556 40.5758 8.13476 40.0687 7.4761 40.4276C6.45357 40.9846 6.24232 42.2726 6.71134 43.3544C7.25601 44.6106 8.64626 44.2333 9.96154 44.5252C11.787 44.9303 13.3116 43.4931 14.7413 44.7203C15.6716 45.5189 15.3744 46.6266 15.3122 47.7447C15.277 48.3773 15.317 49.0133 15.6972 49.5983C16.9359 51.5045 20.6681 52.5252 20.6681 52.5252Z" fill="#8AA60C"/>
<path d="M45.905 27.5495C45.905 27.5495 45.8283 26.3562 45.905 25.5982C45.905 25.5982 42.6904 26.6949 40.5517 26.9641C38.4046 27.2344 35.0122 26.9641 35.0122 26.9641C35.0122 26.9641 29.9365 26.855 28.3156 29.1111C27.4613 30.3003 27.1685 32.701 27.1685 32.701L31.757 32.5843C31.757 32.5843 33.7581 31.817 35.0122 31.2568C36.9988 30.3693 37.8895 29.3161 39.9781 28.7202C41.5017 28.2855 43.9931 28.1705 43.9931 28.1705C45.0189 27.7948 45.905 27.5495 45.905 27.5495Z" fill="#6E8E44"/>
<path d="M38.4486 21.6958C37.1076 21.8571 36.2429 21.5197 35.0122 22.0867C33.948 22.577 33.1985 22.9535 32.713 24.0373C32.2472 25.0767 32.713 26.9641 32.713 26.9641C32.713 26.9641 30.4622 26.6364 29.0804 26.9641C27.4219 27.3575 26.5469 27.9714 25.2616 29.1111C23.9307 30.2913 22.58 32.8178 22.58 32.8178L27.1685 32.701C27.1685 32.701 27.4613 30.3003 28.3156 29.1111C29.9365 26.855 35.0122 26.9641 35.0122 26.9641L35.3896 25.5982L37.1103 23.2568L38.4486 21.6958Z" fill="#6E8E44"/>
<path d="M22.1976 55.8423L21.624 53.3057L20.6681 52.5252C20.6681 52.5252 16.9359 51.5045 15.6972 49.5983C15.317 49.0133 15.277 48.3773 15.3122 47.7447C15.3122 47.7447 13.3977 48.2298 12.4519 49.013C11.1278 50.1095 10.4257 51.1772 10.3439 52.9154C10.2714 54.4566 10.3653 55.8651 11.6822 56.6228C11.8308 56.7082 12.0179 56.7785 12.2046 56.8346C12.6133 56.9575 13.0206 57.013 13.0206 57.013C13.0206 57.013 16.3068 57.2414 18.8736 56.8346C19.2348 56.7774 19.5818 56.7076 19.9033 56.6228C20.138 56.5609 20.4033 56.4794 20.6681 56.3923C21.4351 56.1403 22.1976 55.8423 22.1976 55.8423Z" fill="#6A8200"/>
<path d="M19.9033 56.6228C19.5818 56.7076 19.2348 56.7774 18.8736 56.8346C18.8736 56.8346 20.7358 58.5648 22.1976 59.1594C23.8752 59.8417 25.3057 58.6893 26.7861 59.7447C27.5232 60.2702 27.8617 60.7088 28.3156 61.5008C29.0476 62.778 28.3485 63.931 29.0804 65.2082C29.94 66.7081 31.4715 66.5723 32.5218 67.9399C33.0589 68.6393 32.9828 69.344 33.6689 69.8911C34.8456 70.8294 36.0205 69.6359 37.4927 69.8911C39.6676 70.2681 40.515 71.6847 42.6548 72.2326C44.9044 72.8086 48.5816 72.6228 48.5816 72.6228C48.5816 72.6228 49.3817 72.5633 50.4935 72.489C50.4935 72.489 46.4909 69.8277 43.6107 68.9155C41.7227 68.3175 40.4695 68.7035 38.6398 67.9399C36.873 67.2025 35.4987 66.8986 34.5499 65.2082C33.5107 63.3568 34.5499 59.7447 34.5499 59.7447C33.7913 58.635 33.1687 57.6019 31.757 56.8346C29.1788 55.4334 24.3007 56.2325 24.3007 56.2325L20.6681 56.3923C20.4033 56.4794 20.138 56.5609 19.9033 56.6228Z" fill="#6A8200"/>
<path d="M55.082 72.2326C59.335 72.0729 61.9812 70.7453 65.9797 72.2326C68.5677 73.1952 69.3514 75.0853 71.9066 76.135C74.6982 77.2819 76.4925 77.2995 79.4954 77.5009C83.4038 77.7631 89.4959 76.7204 89.4959 76.7204L86.4369 75.3546C86.4369 75.3546 90.8639 75.73 93.3197 74.5741C94.7305 73.91 95.1784 72.938 96.5699 72.2326C99.7305 70.6304 102.77 73.4674 105.556 71.257C106.229 70.7227 106.813 69.9 107.293 69.0386C106.847 68.7026 106.378 68.3129 105.923 67.9161C105.416 68.2984 104.895 68.6524 104.409 68.9155C103.135 69.6047 102.383 70.0001 100.967 70.2814C99.1336 70.6457 96.1875 70.0862 96.1875 70.0862C96.1875 70.0862 98.0598 68.3753 99.4377 67.5496C100.504 66.911 102.306 66.1838 102.306 66.1838L101.894 65.2039L100.665 65.0248C99.8054 65.2031 98.5986 65.4808 97.717 65.7935C94.6811 66.8704 93.661 68.9581 90.643 70.0862C88.9086 70.7346 86.0545 71.257 86.0545 71.257C86.0545 71.257 76.438 73.7468 70.7594 71.8423C69.1723 71.31 67.1501 70.1854 65.9797 69.4956C65.9797 69.4956 64.1107 69.5694 62.9151 69.6508C60.5212 69.8138 59.0878 71.0274 56.8027 70.2814C55.7527 69.9386 54.3172 68.9155 54.3172 68.9155L53.3613 66.2117C53.2363 66.2029 53.1089 66.1936 52.9789 66.1838C48.4369 65.8397 43.6107 66.7692 41.3164 66.1838C39.0222 65.5984 37.9369 63.4603 35.9632 61.5008C35.3705 60.9125 34.942 60.3184 34.5499 59.7447C34.5499 59.7447 33.5107 63.3568 34.5499 65.2082C35.4987 66.8986 36.873 67.2025 38.6398 67.9399C40.4695 68.7035 41.7227 68.3175 43.6107 68.9155C46.4909 69.8277 50.4935 72.489 50.4935 72.489C51.8547 72.3981 53.6832 72.2851 55.082 72.2326Z" fill="#6A8200"/>
<path d="M65.0238 68.9155C65.0238 68.9155 62.0554 67.578 60.0529 67.0493C57.4854 66.3715 55.9064 66.3904 53.3613 66.2117L54.3172 68.9155C54.3172 68.9155 55.7527 69.9386 56.8027 70.2814C59.0878 71.0274 60.5212 69.8138 62.9151 69.6508C64.1107 69.5694 65.9797 69.4956 65.9797 69.4956C65.3957 69.1514 65.0238 68.9155 65.0238 68.9155Z" fill="#96C25D"/>
<path d="M100.967 70.2814C102.383 70.0001 103.135 69.6047 104.409 68.9155C104.895 68.6524 105.416 68.2984 105.923 67.9161C104.522 66.6937 103.261 65.4033 103.261 65.4033L101.894 65.2039L102.306 66.1838C102.306 66.1838 100.504 66.911 99.4377 67.5496C98.0598 68.3753 96.1875 70.0862 96.1875 70.0862C96.1875 70.0862 99.1336 70.6457 100.967 70.2814Z" fill="#96C25D"/>
<path d="M55.2782 14.0867L61.5874 9.9891C61.5874 9.9891 66.5219 6.81084 69.9997 5.50127C74.6986 3.73187 77.6288 3.60806 82.6181 3.1598C87.3782 2.73213 90.1101 3.74453 94.8541 3.1598C99.1155 2.63455 101.293 1.09651 105.561 0.623201C112.187 -0.111806 116.197 0.0174753 122.576 1.98906C128.684 3.87673 136.916 9.9891 136.916 9.9891C136.916 9.9891 140.771 14.2652 144.749 17.061M55.2782 14.0867C55.2782 14.0867 50.2412 14.6374 47.057 15.2574C42.2713 16.1893 39.6594 17.0815 35.0122 18.5745C31.1605 19.812 28.9759 20.4698 25.2616 22.0867C20.038 24.3606 17.1052 25.7889 12.4519 29.1111C8.84861 31.6838 6.34561 32.8315 3.84847 36.5258C1.5807 39.8807 0.306334 42.2072 0.215889 46.2819M55.2782 14.0867L53.4414 16.4275M0.215889 46.2819V47.1551M0.215889 46.2819C0.209273 46.58 0.209301 46.8709 0.215889 47.1551M188.86 49.013C188.781 50.4266 188.47 51.8007 187.963 53.5015C186.267 59.1865 180.114 63.9406 178.399 65.4033C175.882 67.549 163.284 73.4675 153.167 76.7204C138.637 81.3916 131.293 83.153 116.071 83.7448C95.9963 84.5253 80.7012 83.94 63.1169 82.5748C48.4114 81.4331 38.5544 79.1419 25.2616 72.6228C16.0948 68.1273 10.5351 64.8179 4.80441 57.7942C1.94823 54.2935 0.316538 51.4973 0.215889 47.1551M188.86 49.013C188.926 47.815 188.826 46.5887 188.536 45.1112C187.667 40.6755 185.384 38.7167 182.418 35.3551C177.26 29.5083 172.669 27.9422 165.594 24.8184C161.542 23.0293 154.887 21.1111 154.887 21.1111C154.887 21.1111 150.064 19.9767 147.24 18.5745C146.427 18.1711 145.586 17.6487 144.749 17.061M188.86 49.013L189.105 55.2569C189.105 55.2569 188.115 58.957 187.002 61.1106C183.862 67.1857 180.827 69.4575 174.957 72.818C167.118 77.3058 161.515 79.2732 153.167 82.1839C141.054 86.4066 133.75 86.8636 121.042 88.4278C105.767 90.3079 97.016 90.3234 81.6572 89.4034C68.8066 88.6337 61.4802 88.1813 48.964 85.1107C43.0605 83.6624 39.7596 82.7343 34.0513 80.6229C28.3919 78.5295 25.131 77.4249 19.9033 74.3789C14.3399 71.1373 10.9542 69.3263 6.71134 64.4277C3.59827 60.8335 0.215889 54.0862 0.215889 54.0862V47.1551M37.1103 42.769C37.8529 40.4517 36.342 38.8344 37.1103 36.5258C37.7497 34.6044 38.5347 33.628 39.9781 32.2324C41.8689 30.4043 43.988 30.9107 45.905 29.1111C48.4855 26.6886 49.9199 20.9153 49.9199 20.9153L53.4414 16.4275M37.1103 42.769C35.8414 46.7286 32.5387 47.3852 29.0804 49.5983C26.3362 51.3545 21.624 53.3057 21.624 53.3057M37.1103 42.769L39.4046 45.891L41.89 46.4764L44.3755 43.3544L44.949 39.452H47.6257L50.4935 41.0129L52.9789 37.891V34.5739L48.7728 35.3544L50.4935 32.2324L52.8858 31.7446M21.624 53.3057L22.1976 55.8423M21.624 53.3057L20.6681 52.5252M22.1976 55.8423C22.1976 55.8423 27.5955 55.51 30.9923 54.8667C35.6612 53.9824 42.6548 51.3545 42.6548 51.3545M22.1976 55.8423C22.1976 55.8423 21.4351 56.1403 20.6681 56.3923M42.6548 51.3545C42.6548 51.3545 43.6954 51.8494 44.3755 52.1349C45.6202 52.6576 46.2907 53.1301 47.6257 53.3057C48.4402 53.4128 48.7728 53.1106 49.7287 53.3057C50.6847 53.5008 53.4104 56.4584 55.8468 58.3789C57.8323 59.9439 58.8657 60.9504 61.0088 62.2813C62.5209 63.2203 63.3212 63.9338 65.0238 64.4277M42.6548 51.3545C42.6548 51.3545 47.8152 47.6898 51.6406 47.0617C53.8521 46.6987 55.1982 46.5283 57.3763 47.0617C59.4867 47.5787 60.2928 48.8839 62.3472 49.5983M42.6548 51.3545C42.6548 51.3545 48.1183 50.5202 51.6406 50.1837C55.8095 49.7854 62.3472 49.5983 62.3472 49.5983M65.0238 64.4277C68.0539 65.3066 71.7154 63.0618 73.0537 63.6472M65.0238 64.4277L62.9151 59.1594M73.0537 63.6472C74.392 64.2326 75.4333 65.6211 77.2599 66.1838C79.4757 66.8664 80.9349 66.7304 83.1867 66.1838C84.8463 65.7809 87.2017 64.4277 87.2017 64.4277M73.0537 63.6472L73.3405 62.1838M87.2017 64.4277C87.2017 64.4277 88.6033 66.239 89.8783 66.7692C91.3995 67.4017 92.5813 67.4452 94.0844 66.7692C95.2932 66.2255 95.4228 65.2082 96.5699 64.4277M87.2017 64.4277L88.9223 61.696L92.1725 60.3301M96.5699 64.4277C97.717 63.6472 101.984 64.2643 105.173 63.0618C109.624 61.3838 111.317 57.9293 113.467 54.4764M96.5699 64.4277L100.665 65.0248M158.897 32.6227C158.611 33.3428 158.515 34.5739 158.515 34.5739L153.167 37.5007C153.167 37.5007 148.668 39.2636 145.132 39.8935M158.897 32.6227C159.375 31.4201 160.675 31.3405 161 30.0861C161.289 28.9713 161.07 28.2161 160.618 27.1592C160.06 25.8541 159.234 25.1567 158.133 24.6086M158.897 32.6227L151.632 34.5739C151.632 34.5739 146.25 36.67 142.646 36.7202C137.404 36.7934 129.837 32.6227 129.837 32.6227L132.896 35.3551L125.248 40.0373L119.321 44.33L113.467 54.4764M144.749 17.061C144.749 17.061 149.529 23.647 151.25 24.0373C152.97 24.4275 154.767 23.2606 156.794 24.0373C157.278 24.2227 157.724 24.4054 158.133 24.6086M53.4414 16.4275L43.4195 18.5745C43.4195 18.5745 34.7616 20.7435 29.4628 22.8665C23.3086 25.3322 19.6199 26.585 14.3589 30.6714C9.90483 34.131 6.22265 35.801 4.41708 41.2081C3.30686 44.5328 3.12261 46.7502 3.84847 50.1837C4.59035 53.693 5.97198 55.4665 8.13562 58.2438M8.24085 58.3789C11.7921 62.9383 15.1677 64.2217 20.0945 67.0493M8.24085 58.3789L8.13562 58.2438M8.24085 58.3789C8.20557 58.3336 8.17049 58.2885 8.13562 58.2438M169.413 28.7202C165.214 26.6167 158.133 24.6086 158.133 24.6086M169.413 28.7202L169.517 28.7727M169.413 28.7202C169.448 28.7378 169.483 28.7553 169.517 28.7727M176.22 32.6227C176.974 33.1811 177.748 33.8155 178.59 34.5739C181.57 37.2606 183.507 38.8508 185.09 42.5739C185.862 44.3887 186.381 45.4743 186.428 47.452C186.498 50.3677 185.328 51.9253 183.943 54.4764C181.538 58.9066 178.943 60.6301 174.957 63.6472C169.349 67.8922 165.235 68.7304 158.706 71.257C146.989 75.7913 139.927 77.1109 127.542 79.0619C115.119 81.019 107.993 81.2393 95.4228 81.2082C81.7194 81.1743 74.0011 80.4535 60.4353 78.4765C54.3595 77.5911 50.9243 77.1751 44.949 75.7448C35.0414 73.3731 29.1427 72.2739 20.2857 67.1594C20.2217 67.1224 20.158 67.0858 20.0945 67.0493M176.22 32.6227C176.22 32.6227 178.812 36.4444 179.546 39.2568C180.564 43.1624 180.581 45.8249 179.163 49.5983C177.96 52.8 176.693 54.5707 174.001 56.6228C171.668 58.4012 167.118 59.5496 167.118 59.5496M176.22 32.6227C174.16 31.0982 172.248 30.1403 169.517 28.7727M167.118 59.5496C167.118 59.5496 168.702 54.6918 167.883 51.7447C167.171 49.1815 165.961 47.978 164.102 46.1283M167.118 59.5496L162.912 63.0618C162.912 63.0618 159.051 66.9229 156.029 68.5253C152.526 70.3833 150.226 71.1456 146.279 71.257C143.101 71.3466 138.249 69.8911 138.249 69.8911M164.059 46.0861C161.023 43.0652 158.416 42.2851 154.309 41.2081C152.045 40.6145 148.382 40.3591 148.382 40.3591M164.059 46.0861L164.102 46.1283M164.059 46.0861C164.074 46.1002 164.088 46.1143 164.102 46.1283M145.132 39.8935C144.803 39.952 144.483 40.0007 144.176 40.0373C141.432 40.3642 139.826 39.5714 137.102 40.0373C134.703 40.4475 131.175 41.9886 131.175 41.9886C131.175 41.9886 127.499 43.5123 123.719 45.5085M145.132 39.8935L148.382 40.3591M138.249 69.8911L138.795 66.7692M138.249 69.8911C138.249 69.8911 136.235 71.4602 134.808 72.2326C133.178 73.1144 132.203 73.546 130.41 73.9887C127.29 74.7595 125.392 74.2214 122.189 73.9887C119.787 73.8142 116.071 73.2082 116.071 73.2082C116.071 73.2082 112.835 72.2306 110.909 71.257C109.589 70.59 108.871 70.1593 107.659 69.3057C107.539 69.2215 107.417 69.1322 107.293 69.0386M139.205 64.4277C139.205 64.4277 140.079 63.0697 140.352 62.0862C140.658 60.9842 140.718 60.291 140.543 59.1594C140.263 57.3387 139.344 56.5276 138.249 55.0618C136.936 53.3042 135.927 52.5374 134.234 51.1593C130.606 48.2055 123.719 45.5085 123.719 45.5085M139.205 64.4277L139.034 65.4033M139.205 64.4277C139.205 64.4277 135.46 66.5692 132.896 67.5496C130.571 68.4383 129.242 69.002 126.778 69.3057C124.85 69.5434 123.741 69.476 121.807 69.3057C118.361 69.0024 116.376 68.5654 113.203 67.1594C110.372 65.9047 106.512 62.8667 106.512 62.8667V65.4033C106.512 65.4033 107.061 65.7847 107.856 66.3009M123.719 45.5085C121.887 46.4756 120.031 47.5535 118.557 48.6227C116.225 50.3136 114.763 52.3947 113.467 54.4764M139.034 65.4033C139.034 65.4033 141.823 65.5403 143.602 65.4033C146.8 65.1569 148.666 64.8925 151.632 63.6472C154.582 62.4087 156.616 61.8242 158.897 59.5496C160.265 58.1859 161.004 57.1199 161.574 55.2569C162.041 53.7294 161.912 52.7219 161.574 51.1593C161.075 48.8543 160.069 47.5999 158.515 46.066M139.034 65.4033L138.795 66.7692M148.382 40.3591L151.632 41.9886C151.632 41.9886 155.897 43.5436 157.941 45.5085C158.14 45.6997 158.331 45.8848 158.515 46.066M138.795 66.7692C138.795 66.7692 141.122 67.3785 142.646 67.5496C144.576 67.7663 145.702 67.8749 147.617 67.5496C149.903 67.1613 151.45 66.8076 153.544 65.7935C155.81 64.6961 157.156 63.9129 159.088 62.2813M138.795 66.7692L134.234 69.3057C134.234 69.3057 131.66 70.8208 129.837 71.257C127.51 71.8135 124.866 71.7045 123.719 71.6472C121.396 71.5312 120.067 71.1638 117.792 70.6716C115.32 70.1369 113.963 69.6162 111.674 68.5253C110.643 68.0338 109.396 67.2834 108.385 66.6415M159.088 62.2813L159.199 62.1879M159.088 62.2813C159.126 62.25 159.162 62.2189 159.199 62.1879M158.515 46.066C158.515 46.066 161.083 47.5164 162.147 49.013C163.052 50.2841 163.411 51.1731 163.677 52.7203C163.884 53.9211 163.898 54.6441 163.677 55.8423C163.117 58.8817 161.512 60.2362 159.199 62.1879M20.6681 52.5252C20.6681 52.5252 20.6242 48.9738 21.624 47.0617C22.5693 45.2542 23.7427 44.6942 25.2616 43.3544C27.2041 41.6409 30.6099 39.452 30.6099 39.452L35.3171 35.3544M20.6681 52.5252C20.6681 52.5252 16.9359 51.5045 15.6972 49.5983C15.317 49.0133 15.277 48.3773 15.3122 47.7447M45.905 25.5982C45.8283 26.3562 45.905 27.5495 45.905 27.5495C45.905 27.5495 45.0189 27.7948 43.9931 28.1705M45.905 25.5982C46.1933 22.749 49.3464 19.1592 49.3464 19.1592C49.3464 19.1592 46.3721 20.4224 44.3755 20.9153C42.1071 21.4753 40.7663 21.4169 38.4486 21.6958M45.905 25.5982C45.905 25.5982 42.6904 26.6949 40.5517 26.9641C38.4046 27.2344 35.0122 26.9641 35.0122 26.9641M38.4486 21.6958C37.1076 21.8571 36.2429 21.5197 35.0122 22.0867C33.948 22.577 33.1985 22.9535 32.713 24.0373C32.2472 25.0767 32.713 26.9641 32.713 26.9641C32.713 26.9641 30.4622 26.6364 29.0804 26.9641C27.4219 27.3575 26.5469 27.9714 25.2616 29.1111C23.9307 30.2913 22.58 32.8178 22.58 32.8178M38.4486 21.6958L37.1103 23.2568L35.3896 25.5982L35.0122 26.9641M22.58 32.8178C22.58 32.8178 20.107 31.2543 19.1386 32.2324C18.2895 33.09 19.1386 35.3544 19.1386 35.3544C19.1386 35.3544 15.1787 36.0112 13.0206 37.3056C11.4216 38.2646 11.2072 40.0595 9.38798 40.4276C8.6556 40.5758 8.13476 40.0687 7.4761 40.4276C6.45357 40.9846 6.24232 42.2726 6.71134 43.3544C7.25601 44.6106 8.64626 44.2333 9.96154 44.5252C11.787 44.9303 13.3116 43.4931 14.7413 44.7203C15.6716 45.5189 15.3744 46.6266 15.3122 47.7447M22.58 32.8178L27.1685 32.701M120.851 21.8909C120.851 21.8909 116.212 22.8025 113.203 22.8665C108.99 22.9561 106.613 22.4182 102.497 21.5007C97.6526 20.421 95.3645 18.088 90.4519 17.4031C85.3389 16.6903 82.2627 16.892 77.2599 18.1836C73.7517 19.0893 68.6564 21.6958 68.6564 21.6958M52.8858 31.7446L55.2782 31.2568L60.0529 26.9641C60.0529 26.9641 63.3276 24.0823 65.7886 22.8665C66.8743 22.3302 68.6564 21.6958 68.6564 21.6958M52.8858 31.7446C52.8858 31.7446 57.4215 27.6927 60.0529 24.8178C61.9092 22.7896 64.2704 19.7601 65.5114 18.1365M66.3621 17.0128C66.3621 17.0128 69.2624 13.7265 71.5242 12.1348C73.9159 10.4516 75.4957 9.85913 78.2158 8.81768C81.8104 7.44141 83.9887 7.12293 87.7752 6.47621C91.7687 5.79413 94.0504 5.47898 98.0994 5.50127C101.925 5.52233 104.051 6.00936 107.85 6.47621C111.068 6.87175 113.023 6.52173 116.071 7.64695C119.13 8.77604 120.14 10.8647 123.145 12.1348C127.205 13.8506 134.234 14.0867 134.234 14.0867H139.205L131.175 16.4275L119.321 19.1592M66.3621 17.0128C66.3621 17.0128 65.9867 17.4811 65.5114 18.1365M66.3621 17.0128C66.3621 17.0128 66.0373 17.4484 65.5114 18.1365M68.6564 21.6958C68.6564 21.6958 64.4502 22.8679 63.6855 22.0867C63.1733 21.5635 64.5477 19.4654 65.5114 18.1365M73.6273 60.7203C73.6273 60.7203 72.7321 58.4415 73.0537 57.013C73.4912 55.0693 74.9852 54.5717 76.4951 53.3057C77.3239 52.6108 78.4256 51.9348 79.4954 51.3545M73.6273 60.7203C73.6273 60.7203 77.6024 63.8077 80.5101 63.6472C83.5155 63.4812 87.2017 59.7447 87.2017 59.7447C87.2017 59.7447 90.5503 56.4761 89.8783 55.2569M73.6273 60.7203L73.3405 62.1838M117.792 34.5739C117.792 34.5739 112.024 39.7864 107.659 41.9886C102.722 44.4793 94.0844 45.891 94.0844 45.891L88.6356 47.7447M88.6356 47.7447L83.1867 49.5983C83.1867 49.5983 81.3911 50.3261 79.4954 51.3545M88.6356 47.7447C88.6356 47.7447 79.5579 49.9528 73.6273 50.1837C69.2196 50.3553 66.5223 51.0502 62.3472 49.5983M92.1725 60.3301C92.1725 60.3301 92.1725 58.0706 92.1725 56.6228M92.1725 60.3301L95.2316 61.696C95.2316 61.696 97.829 60.962 99.4377 60.3301C102.336 59.1917 104.27 58.8161 106.512 56.6228C108.141 55.0285 109.762 54.6403 109.762 51.7447M92.1725 60.3301V56.6228M92.1725 56.6228C92.1725 55.4798 91.9742 54.8209 92.1725 53.6959M92.1725 53.6959C92.6778 50.8311 94.24 49.4237 96.5699 47.7447C98.8161 46.126 100.593 46.1861 103.261 45.5085C105.764 44.8732 109.762 44.33 109.762 44.33M92.1725 53.6959C92.1725 53.6959 89.7729 52.5981 88.1576 52.1349M109.762 44.33C109.762 47.2256 109.762 48.8491 109.762 51.7447M109.762 44.33V51.7447M79.4954 51.3545C79.4954 51.3545 82.3369 51.1692 84.1426 51.3545C85.7308 51.5173 86.621 51.6943 88.1576 52.1349M88.1576 52.1349C88.8296 53.3541 89.2063 54.0377 89.8783 55.2569M88.1576 52.1349L89.8783 55.2569M55.8468 50.1837C55.8468 50.1837 60.0561 53.0718 61.5874 55.8423C62.261 57.0611 62.9151 59.1594 62.9151 59.1594M62.9151 59.1594C62.9151 59.1594 63.0701 57.6473 63.6855 57.013C64.7361 55.93 66.056 56.6625 67.5092 57.013C70.4451 57.7212 73.3405 62.1838 73.3405 62.1838M15.3122 47.7447C15.3122 47.7447 13.3977 48.2298 12.4519 49.013C11.1278 50.1095 10.4257 51.1772 10.3439 52.9154C10.2714 54.4566 10.3653 55.8651 11.6822 56.6228C11.8308 56.7082 12.0179 56.7785 12.2046 56.8346M12.2046 56.8346C12.6133 56.9575 13.0206 57.013 13.0206 57.013C13.0206 57.013 16.3068 57.2414 18.8736 56.8346M12.2046 56.8346C12.2046 56.8346 14.3745 58.7548 15.3122 60.3301C15.8674 61.2629 15.921 61.9251 16.4619 62.8667C17.5437 64.7496 20.0945 67.0493 20.0945 67.0493M18.8736 56.8346C19.2348 56.7774 19.5818 56.7076 19.9033 56.6228C20.138 56.5609 20.4033 56.4794 20.6681 56.3923M18.8736 56.8346C18.8736 56.8346 20.7358 58.5648 22.1976 59.1594C23.8752 59.8417 25.3057 58.6893 26.7861 59.7447C27.5232 60.2702 27.8617 60.7088 28.3156 61.5008C29.0476 62.778 28.3485 63.931 29.0804 65.2082C29.94 66.7081 31.4715 66.5723 32.5218 67.9399C33.0589 68.6393 32.9828 69.344 33.6689 69.8911C34.8456 70.8294 36.0205 69.6359 37.4927 69.8911C39.6676 70.2681 40.515 71.6847 42.6548 72.2326C44.9044 72.8086 48.5816 72.6228 48.5816 72.6228C48.5816 72.6228 49.3817 72.5633 50.4935 72.489M86.4369 75.3546L89.4959 76.7204C89.4959 76.7204 83.4038 77.7631 79.4954 77.5009C76.4925 77.2995 74.6982 77.2819 71.9066 76.135C69.3514 75.0853 68.5677 73.1952 65.9797 72.2326C61.9812 70.7453 59.335 72.0729 55.082 72.2326C53.6832 72.2851 51.8547 72.3981 50.4935 72.489M86.4369 75.3546C86.4369 75.3546 90.8639 75.73 93.3197 74.5741C94.7305 73.91 95.1784 72.938 96.5699 72.2326C99.7305 70.6304 102.77 73.4674 105.556 71.257C106.229 70.7227 106.813 69.9 107.293 69.0386M86.4369 75.3546C86.4369 75.3546 82.8628 74.3032 80.5101 73.9887C77.1786 73.5434 71.9066 73.9887 71.9066 73.9887M96.1875 70.0862C96.1875 70.0862 99.1336 70.6457 100.967 70.2814C102.383 70.0001 103.135 69.6047 104.409 68.9155C104.895 68.6524 105.416 68.2984 105.923 67.9161M96.1875 70.0862C96.1875 70.0862 98.0598 68.3753 99.4377 67.5496C100.504 66.911 102.306 66.1838 102.306 66.1838L101.894 65.2039M96.1875 70.0862C96.1875 70.0862 95.2205 70.0626 94.658 70.2814C93.8179 70.6081 93.687 71.3359 92.9373 71.8423C91.5592 72.7734 88.9223 73.2082 88.9223 73.2082M20.6681 56.3923L24.3007 56.2325C24.3007 56.2325 29.1788 55.4334 31.757 56.8346C33.1687 57.6019 33.7913 58.635 34.5499 59.7447M16.4619 44.7203C16.4619 44.7203 16.8133 41.8699 17.8003 40.4276C19.0692 38.5733 20.6738 38.4593 22.58 37.3056C25.4813 35.5497 30.2275 33.208 30.2275 33.208L31.757 32.5843M43.9931 28.1705C43.2753 28.4334 42.489 28.7601 41.89 29.1111C39.6463 30.426 37.1103 33.7934 37.1103 33.7934L35.3171 35.3544M43.9931 28.1705C43.9931 28.1705 41.5017 28.2855 39.9781 28.7202C37.8895 29.3161 36.9988 30.3693 35.0122 31.2568C33.7581 31.817 31.757 32.5843 31.757 32.5843M31.757 32.5843L27.1685 32.701M27.1685 32.701C27.1685 32.701 27.4613 30.3003 28.3156 29.1111C29.9365 26.855 35.0122 26.9641 35.0122 26.9641M19.521 46.4764C19.521 46.4764 19.1743 43.6936 19.9033 42.1837C20.5567 40.8304 21.3513 40.2908 22.58 39.452C24.8686 37.8895 29.4628 37.891 29.4628 37.891L35.3171 35.3544M34.5499 59.7447C34.942 60.3184 35.3705 60.9125 35.9632 61.5008C37.9369 63.4603 39.0222 65.5984 41.3164 66.1838C43.6107 66.7692 48.4369 65.8397 52.9789 66.1838C53.1089 66.1936 53.2363 66.2029 53.3613 66.2117M34.5499 59.7447C34.5499 59.7447 33.5107 63.3568 34.5499 65.2082C35.4987 66.8986 36.873 67.2025 38.6398 67.9399C40.4695 68.7035 41.7227 68.3175 43.6107 68.9155C46.4909 69.8277 50.4935 72.489 50.4935 72.489M46.6697 68.9155C46.6697 68.9155 50.5688 69.85 52.9789 69.3057C53.5097 69.1859 54.3172 68.9155 54.3172 68.9155M54.3172 68.9155L53.3613 66.2117M54.3172 68.9155C54.3172 68.9155 55.7527 69.9386 56.8027 70.2814C59.0878 71.0274 60.5212 69.8138 62.9151 69.6508C64.1107 69.5694 65.9797 69.4956 65.9797 69.4956M53.3613 66.2117C55.9064 66.3904 57.4854 66.3715 60.0529 67.0493C62.0554 67.578 65.0238 68.9155 65.0238 68.9155C65.0238 68.9155 65.3957 69.1514 65.9797 69.4956M65.9797 69.4956C67.1501 70.1854 69.1723 71.31 70.7594 71.8423C76.438 73.7468 86.0545 71.257 86.0545 71.257C86.0545 71.257 88.9086 70.7346 90.643 70.0862C93.661 68.9581 94.6811 66.8704 97.717 65.7935C98.5986 65.4808 99.8054 65.2031 100.665 65.0248M107.293 69.0386C106.847 68.7026 106.378 68.3129 105.923 67.9161M107.293 69.0386C107.76 68.1993 108.129 67.3232 108.385 66.6415M100.665 65.0248C101.29 64.8951 101.732 64.8179 101.732 64.8179L101.894 65.2039M100.665 65.0248L101.894 65.2039M101.894 65.2039L103.261 65.4033C103.261 65.4033 104.522 66.6937 105.923 67.9161M105.923 67.9161C106.641 67.3752 107.331 66.7775 107.856 66.3009M107.856 66.3009C108.429 65.7798 108.806 65.4033 108.806 65.4033C108.806 65.4033 108.66 65.9108 108.385 66.6415M107.856 66.3009C108.022 66.4092 108.2 66.5235 108.385 66.6415" stroke="#6E2A01" stroke-width="0.423529"/>
<defs>
<linearGradient id="paint0_linear_2751_624" x1="94.658" y1="0.210937" x2="94.658" y2="89.9992" gradientUnits="userSpaceOnUse">
<stop offset="0.461538" stop-color="#9E500B"/>
<stop offset="0.735577" stop-color="#FEE062"/>
</linearGradient>
</defs>
</svg>
