<svg width="144" height="148" viewBox="0 0 144 148" fill="none" xmlns="http://www.w3.org/2000/svg">
<path d="M71.6328 146.633C110.845 146.633 142.633 113.95 142.633 73.6328C142.633 33.316 110.845 0.632812 71.6328 0.632812C54.3614 0.632812 38.5304 6.9735 26.2216 17.5144C26.2216 17.5144 44.4202 6.93066 57.2166 5.9836C65.977 5.33523 71.2798 5.56198 79.5618 8.65899C86.8235 11.3745 91.7609 12.9254 96.5008 19.3606C100.885 25.3121 101.862 30.1664 102.267 37.7061C102.757 46.8156 101.586 52.8956 96.5008 60.2558C91.7711 67.1018 86.8873 69.0693 79.5618 72.4862C72.2805 75.8824 67.1717 74.449 59.7394 77.4548C52.7385 80.2861 48.089 81.3813 42.8003 87.0098C37.4237 92.7319 34.7151 97.3372 33.7902 105.355C32.9152 112.94 34.2628 117.781 37.7546 124.465C41.1307 130.928 44.7669 133.45 50.3689 137.842C55.6464 141.98 65.1455 146.332 65.1455 146.332C67.282 146.531 69.4459 146.633 71.6328 146.633Z" fill="black"/>
<path d="M0.632812 73.6328C0.632812 111.701 28.9737 142.963 65.1455 146.332C65.1455 146.332 55.6464 141.98 50.3689 137.842C44.7669 133.45 41.1307 130.928 37.7546 124.465C34.2628 117.781 32.9152 112.94 33.7902 105.355C34.7151 97.3372 37.4237 92.7319 42.8003 87.0098C48.089 81.3813 52.7385 80.2861 59.7394 77.4548C67.1717 74.449 72.2805 75.8824 79.5618 72.4862C86.8873 69.0693 91.7711 67.1018 96.5008 60.2558C101.586 52.8956 102.757 46.8156 102.267 37.7061C101.862 30.1664 100.885 25.3121 96.5008 19.3606C91.7609 12.9254 86.8235 11.3745 79.5618 8.65899C71.2798 5.56198 65.977 5.33523 57.2166 5.9836C44.4202 6.93066 26.2216 17.5144 26.2216 17.5144C10.5851 30.905 0.632812 51.0739 0.632812 73.6328Z" fill="#FAF8ED"/>
<path d="M65.1455 146.332C67.282 146.531 69.4459 146.633 71.6328 146.633C110.845 146.633 142.633 113.95 142.633 73.6328C142.633 33.316 110.845 0.632812 71.6328 0.632812C54.3614 0.632812 38.5304 6.9735 26.2216 17.5144M65.1455 146.332C28.9737 142.963 0.632812 111.701 0.632812 73.6328C0.632812 51.0739 10.5851 30.905 26.2216 17.5144M65.1455 146.332C65.1455 146.332 55.6464 141.98 50.3689 137.842C44.7669 133.45 41.1307 130.928 37.7546 124.465C34.2628 117.781 32.9152 112.94 33.7902 105.355C34.7151 97.3372 37.4237 92.7319 42.8003 87.0098C48.089 81.3813 52.7385 80.2861 59.7394 77.4548C67.1717 74.449 72.2805 75.8824 79.5618 72.4862C86.8873 69.0693 91.7711 67.1018 96.5008 60.2558C101.586 52.8956 102.757 46.8156 102.267 37.7061C101.862 30.1664 100.885 25.3121 96.5008 19.3606C91.7609 12.9254 86.8235 11.3745 79.5618 8.65899C71.2798 5.56198 65.977 5.33523 57.2166 5.9836C44.4202 6.93066 26.2216 17.5144 26.2216 17.5144" stroke="black" stroke-width="1.27059"/>
<path d="M66.1328 23.2686C74.3829 23.2686 80.9971 29.5148 80.9971 37.1328C80.9971 44.7508 74.3829 50.9971 66.1328 50.9971C57.8827 50.9971 51.2686 44.7508 51.2686 37.1328C51.2686 29.5148 57.8827 23.2686 66.1328 23.2686Z" fill="black" stroke="black" stroke-width="1.27059"/>
<path d="M76.6328 93.2686C85.1002 93.2686 91.9971 100.352 91.9971 109.133C91.9971 117.913 85.1002 124.997 76.6328 124.997C68.1654 124.997 61.2686 117.913 61.2686 109.133C61.2686 100.352 68.1654 93.2686 76.6328 93.2686Z" fill="#FAF8ED" stroke="black" stroke-width="1.27059"/>
</svg>
