<svg width="173" height="177" viewBox="0 0 173 177" fill="none" xmlns="http://www.w3.org/2000/svg">
<path d="M35.9543 106.692C35.9543 106.692 40.0832 108.718 42.9085 109.408C45.5677 110.058 49.8626 110.207 49.8626 110.207C49.8626 110.207 54.4318 109.545 56.5077 107.65C58.5119 105.821 59.753 101.418 59.753 101.418C59.753 101.418 58.3909 102.019 57.5895 102.537C56.0673 103.519 55.6884 104.712 54.1897 105.733C52.7462 106.715 51.8996 107.617 50.1717 107.65C47.3051 107.706 45.9209 105.332 44.6084 102.696C43.0059 99.4784 43.5664 96.8833 44.6084 93.4278C45.7153 89.7571 47.2082 87.7598 50.1717 85.4375C52.6286 83.5123 57.435 82.2414 57.435 82.2414L58.4394 81.2826C58.4394 81.2826 59.1272 80.7681 59.4439 80.3238C60.1392 79.3484 59.4378 78.3129 60.0621 77.2875C60.7051 76.2312 61.4482 75.9136 62.5347 75.3698C63.5495 74.8618 64.1891 74.5919 65.3163 74.5708C66.9196 74.5407 69.1798 76.009 69.1798 76.009C69.1798 76.009 72.3249 75.6143 74.2795 76.009C75.7219 76.3003 76.7377 76.2752 77.8339 77.2875C78.3471 77.7614 78.4496 78.2022 78.9156 78.7257C79.5385 79.4255 80.2961 79.4657 80.6928 80.3238C81.1485 81.3095 80.6155 83.1204 80.6155 83.1204C80.6155 83.1204 81.8777 83.3794 82.3154 83.9993C82.96 84.9121 82.0064 86.8758 82.0064 86.8758L80.6928 88.4738C80.6928 88.4738 81.6995 88.9829 82.0064 89.5925C82.3687 90.3121 82.3836 90.9586 82.0064 91.6699C81.4832 92.6564 80.4215 92.3062 79.3792 92.6288C77.2589 93.285 75.858 92.8648 73.8159 93.7474C71.3881 94.7967 70.7255 96.6154 68.4071 97.9023C66.0356 99.2187 61.9165 100.299 61.9165 100.299L59.753 101.418C59.753 101.418 58.5119 105.821 56.5077 107.65C54.4318 109.545 49.8626 110.207 49.8626 110.207C49.8626 110.207 54.8903 112.907 58.3622 113.883C62.0028 114.906 67.9435 115.161 67.9435 115.161L92.5149 84.1591L76.5976 74.8904L62.9983 65.2078L61.9165 64.8227C61.9165 64.8227 57.171 62.5568 54.6533 60.3481C52.6658 58.6046 50.1717 55.2344 50.1717 55.2344L44.6084 60.3481L37.4997 65.7815C37.4997 65.7815 32.7975 69.9656 30.5455 73.2923C28.3786 76.4933 27.2872 78.4936 26.2184 82.2414C25.1873 85.8574 24.4547 88.1264 25.1367 91.8297C25.9112 96.0353 27.9099 97.9566 30.5455 101.258C32.4202 103.607 35.9543 106.692 35.9543 106.692Z" fill="#F00000"/>
<path d="M92.5149 84.1591L67.9435 115.161L76.3868 116.12L76.5976 115.641C76.5976 115.641 79.4032 113.862 81.3882 113.883C83.0298 113.9 85.4062 115.161 85.4062 115.161L90.9695 113.084L100.86 110.207L107.969 103.815C107.969 103.815 110.596 99.6602 110.905 97.9023C111.214 96.1445 109.566 90.3915 109.566 90.3915C109.566 90.3915 113.779 89.9586 116.468 89.5925C119.252 89.2134 120.99 89.604 123.577 88.4738C126.156 87.3468 129.295 83.9993 129.295 83.9993L130.056 82.7208C130.056 82.7208 127.262 83.5199 125.431 83.5199C121.862 83.5198 119.701 82.6004 116.777 80.4836C114.784 79.0405 113.824 77.9254 112.45 75.8492C111.062 73.7521 110.276 72.434 109.823 69.9364C109.263 66.8476 109.501 64.8112 110.75 61.9462C111.273 60.7474 112.45 59.0742 112.45 59.0742L111.677 58.4396H111.059H108.896L98.5418 65.7815C98.5418 65.7815 98.5768 69.216 98.2328 71.3747C97.3678 76.8022 92.5149 84.1591 92.5149 84.1591Z" fill="#F00000"/>
<path d="M61.9165 134.658L66.5526 123.951C66.5526 123.951 60.5605 122.936 56.8168 121.873C53.6882 120.985 51.9451 120.409 48.9354 119.156C45.7052 117.812 43.7712 117.198 40.8995 115.161C38.5724 113.511 35.4907 110.207 35.4907 110.207L24.6731 120.754L27.7638 124.43C27.7638 124.43 35.8103 131.268 41.8267 134.018C48.9781 137.288 61.3756 138.493 61.3756 138.493L61.9165 134.658Z" fill="#F00000"/>
<path d="M73.5068 123.951L70.7251 138.972L80.6155 139.931L82.0064 124.43L77.2157 123.156L73.5068 123.951Z" fill="#F00000"/>
<path d="M82.0064 124.43L82.3154 138.972L94.2148 134.658L87.8788 123.951L86.1789 122.992L82.0064 124.43Z" fill="#F00000"/>
<path d="M94.2148 120.754L100.86 130.662L103.023 132.462C103.023 132.462 109.09 130.043 112.605 127.786C116.504 125.282 121.722 120.115 121.722 120.115V117.079L109.978 108.609L105.341 114.682L94.2148 120.754Z" fill="#F00000"/>
<path d="M116.468 59.7089C116.468 59.7089 114.323 60.3597 113.223 59.7089C112.888 59.511 112.45 59.0742 112.45 59.0742C112.45 59.0742 111.273 60.7474 110.75 61.9462C109.501 64.8112 109.263 66.8476 109.823 69.9364C110.276 72.434 111.062 73.7521 112.45 75.8492C113.824 77.9254 114.784 79.0405 116.777 80.4836C119.701 82.6004 121.862 83.5198 125.431 83.5199C127.262 83.5199 130.056 82.7208 130.056 82.7208L133.004 77.7669L131.613 76.8081C131.613 76.8081 131.383 77.4249 131.149 77.7669C130.084 79.3263 128.356 78.8474 126.513 78.7257C122.241 78.4437 120.255 75.2402 118.168 71.3747C117.228 69.6335 116.468 66.5805 116.468 66.5805L115.541 65.0624L114.614 63.5442L116.468 59.7089Z" fill="#F00000"/>
<path d="M54.6533 90.2317C54.8393 88.3321 55.5805 85.4375 55.5805 85.4375C55.5805 85.4375 53.096 87.6437 52.4898 89.5925C51.8037 91.7978 51.6905 93.5009 52.4898 95.6651C53.3037 97.8689 54.3955 100.299 56.5077 100.299H61.9165C61.9165 100.299 59.2994 100.162 57.8986 99.3406C56.1846 98.3355 55.3209 97.2625 54.6533 95.3455C53.9989 93.4665 54.4587 92.2186 54.6533 90.2317Z" fill="#F00000"/>
<path d="M125.895 0.580978H122.495L120.95 37.8156L122.898 38.2304L125.895 0.580978Z" fill="#BE0D0D"/>
<path d="M136.713 5.05552C136.713 5.05552 132.998 4.98362 130.84 4.09669C128.662 3.20141 125.895 0.580978 125.895 0.580978L122.898 38.2304L126.125 38.9174L136.713 5.05552Z" fill="#BE0D0D"/>
<path d="M148.457 12.087C148.457 12.087 144.181 11.1311 141.812 9.68987C139.527 8.29957 136.713 5.05552 136.713 5.05552L126.125 38.9174L126.204 38.9342L130.085 40.9409L148.457 12.087Z" fill="#BE0D0D"/>
<path d="M158.193 21.5155C158.193 21.5155 154.369 20.1833 152.475 18.4792C150.304 16.5245 148.457 12.087 148.457 12.087L130.085 40.9409L131.149 41.4911L134.616 44.6105L158.193 21.5155Z" fill="#BE0D0D"/>
<path d="M165.456 32.542C165.456 32.542 161.841 29.8518 160.357 27.4282C159.079 25.3425 158.193 21.5155 158.193 21.5155L134.616 44.6105L134.701 44.6872L136.841 49.1074L165.456 32.542Z" fill="#BE0D0D"/>
<path d="M170.093 44.6872C170.093 44.6872 167.619 41.7997 166.693 39.5734C165.626 37.0096 165.456 32.542 165.456 32.542L136.841 49.1074L137.176 49.801L139.295 54.3201L170.093 44.6872Z" fill="#BE0D0D"/>
<path d="M172.102 58.5903C172.102 58.5903 170.467 54.2964 170.093 51.399C169.757 48.801 170.093 44.6872 170.093 44.6872L139.295 54.3201L139.649 55.0745L140.112 59.7089V59.7343L172.102 58.5903Z" fill="#BE0D0D"/>
<path d="M171.638 70.8953C171.638 70.8953 170.559 66.9245 170.711 64.3432C170.847 62.0317 172.102 58.5903 172.102 58.5903L140.112 59.7343V65.0924L171.638 70.8953Z" fill="#BE0D0D"/>
<path d="M168.238 83.5199C168.238 83.5199 167.78 79.1201 168.547 76.4884C169.25 74.0799 171.638 70.8953 171.638 70.8953L140.112 65.0924V65.1423L139.185 69.2972L138.916 69.7687L168.238 83.5199Z" fill="#BE0D0D"/>
<path d="M161.748 93.1082C161.748 93.1082 162.654 89.5657 163.911 87.6748C165.218 85.7098 168.238 83.5199 168.238 83.5199L138.916 69.7687L137.176 72.8129L136.665 73.5718L161.748 93.1082Z" fill="#BE0D0D"/>
<path d="M162.211 94.2268L161.748 93.1082L136.665 73.5718L134.701 76.4884L154.484 99.0904L162.211 94.2268Z" fill="#BE0D0D"/>
<path d="M118.168 51.7186C118.168 51.7186 119.192 53.1124 119.095 54.1157C119.058 54.5032 118.83 55.0745 118.83 55.0745L120.276 54.0358L120.95 37.8156L122.495 0.580978L122.341 0.101562L119.713 0.261368L118.168 51.7186Z" fill="#813004"/>
<path d="M131.613 76.8081L133.004 77.7669L151.548 100.939L154.484 99.0904L134.701 76.4884L129.604 70.6644L127.595 70.8953L127.904 72.3335L131.613 76.8081Z" fill="#813004"/>
<path d="M120.276 54.0358L121.722 52.9971L122.898 38.2304L120.95 37.8156L120.276 54.0358Z" fill="#FDF7D8"/>
<path d="M122.898 38.2304L121.722 52.9971L126.125 38.9174L122.898 38.2304Z" fill="#FDF7D8"/>
<path d="M121.722 52.9971L123.731 50.9196L130.085 40.9409L126.204 38.9342L126.125 38.9174L121.722 52.9971Z" fill="#FDF7D8"/>
<path d="M123.731 50.9196C124.697 51.1068 125.463 50.7322 126.204 51.399C126.506 51.6708 126.822 52.2451 126.822 52.2451L134.616 44.6105L131.149 41.4911L130.085 40.9409L123.731 50.9196Z" fill="#FDF7D8"/>
<path d="M126.822 52.2451L128.189 54.1157L136.841 49.1074L134.701 44.6872L134.616 44.6105L126.822 52.2451Z" fill="#FDF7D8"/>
<path d="M128.189 54.1157L130.376 57.1097L139.295 54.3201L137.176 49.801L136.841 49.1074L128.189 54.1157Z" fill="#FDF7D8"/>
<path d="M140.112 59.7089L139.649 55.0745L139.295 54.3201L130.376 57.1097C130.799 57.6879 131.151 57.9391 131.458 58.5903C131.708 59.1183 131.886 60.0285 131.886 60.0285L140.112 59.7343V59.7089Z" fill="#FDF7D8"/>
<path d="M131.886 60.0285L133.004 63.7839L140.112 65.0924V59.7343L131.886 60.0285Z" fill="#FDF7D8"/>
<path d="M139.185 69.2972L140.112 65.1423V65.0924L133.004 63.7839C133.004 63.7839 133.241 64.4048 133.313 64.8227C133.461 65.6857 133.14 67.0599 133.14 67.0599L138.916 69.7687L139.185 69.2972Z" fill="#FDF7D8"/>
<path d="M133.14 67.0599C133.14 67.0599 133.357 68.2341 133.004 68.8178C132.679 69.3533 131.69 69.6967 131.69 69.6967L136.665 73.5718L137.176 72.8129L138.916 69.7687L133.14 67.0599Z" fill="#FDF7D8"/>
<path d="M130.376 70.5756L129.604 70.6644L134.701 76.4884L136.665 73.5718L131.69 69.6967L130.376 70.5756Z" fill="#FDF7D8"/>
<path d="M118.168 57.4716C117.735 58.705 116.777 60.5079 116.777 60.5079L118.168 62.2658L118.83 65.1423L120.641 66.9001L121.413 68.8178L123.731 69.9364C123.731 69.9364 124.51 70.6622 125.122 70.8953C126.028 71.24 127.595 70.8953 127.595 70.8953L129.604 70.6644L130.376 70.5756L131.69 69.6967C131.69 69.6967 132.679 69.3533 133.004 68.8178C133.357 68.2341 133.14 67.0599 133.14 67.0599C133.14 67.0599 133.461 65.6857 133.313 64.8227C133.241 64.4048 133.004 63.7839 133.004 63.7839L131.886 60.0285C131.886 60.0285 131.708 59.1183 131.458 58.5903C131.151 57.9391 130.799 57.6879 130.376 57.1097L128.189 54.1157L126.822 52.2451C126.822 52.2451 126.506 51.6708 126.204 51.399C125.463 50.7322 124.697 51.1068 123.731 50.9196L121.722 52.9971L120.276 54.0358L118.83 55.0745C118.83 55.0745 118.489 56.5565 118.168 57.4716Z" fill="#24161A"/>
<path d="M116.468 66.5805C116.468 66.5805 117.228 69.6335 118.168 71.3747C120.255 75.2402 122.241 78.4437 126.513 78.7257C128.356 78.8474 130.084 79.3263 131.149 77.7669C131.383 77.4249 131.613 76.8081 131.613 76.8081L127.904 72.3335C127.904 72.3335 126.411 72.7371 125.431 72.8129C124.769 72.8641 124.381 72.9559 123.731 72.8129C122.503 72.5425 122.076 71.7184 121.104 70.8953C120.41 70.3072 119.711 70.1689 119.404 69.2972C119.114 68.4716 119.636 67.0599 119.636 67.0599C119.636 67.0599 119.021 67.3018 118.632 67.2197C118.086 67.1047 117.601 66.8339 117.55 66.2609C117.49 65.5868 118.83 65.1423 118.83 65.1423L115.541 65.0624L116.468 66.5805Z" fill="#24161A"/>
<path d="M113.223 59.7089C114.323 60.3597 116.468 59.7089 116.468 59.7089L114.614 63.5442L115.541 65.0624L118.83 65.1423L118.168 62.2658L116.777 60.5079C116.777 60.5079 117.735 58.705 118.168 57.4716C118.489 56.5565 118.83 55.0745 118.83 55.0745C118.83 55.0745 119.058 54.5032 119.095 54.1157C119.192 53.1124 118.168 51.7186 118.168 51.7186C118.168 51.7186 117.251 50.6967 116.468 50.4402C115.013 49.963 113.861 50.6259 112.759 51.7186C111.843 52.6268 111.711 53.4915 111.368 54.7549C110.992 56.1458 111.059 58.4396 111.059 58.4396H111.677L112.45 59.0742C112.45 59.0742 112.888 59.511 113.223 59.7089Z" fill="#24161A"/>
<path d="M120.641 66.9001L118.83 65.1423C118.83 65.1423 117.49 65.5868 117.55 66.2609C117.601 66.8339 118.086 67.1047 118.632 67.2197C119.021 67.3018 119.636 67.0599 119.636 67.0599L120.641 66.9001Z" fill="#24161A"/>
<path d="M127.595 70.8953C127.595 70.8953 126.028 71.24 125.122 70.8953C124.51 70.6622 123.731 69.9364 123.731 69.9364L121.413 68.8178L120.641 66.9001L119.636 67.0599C119.636 67.0599 119.114 68.4716 119.404 69.2972C119.711 70.1689 120.41 70.3072 121.104 70.8953C122.076 71.7184 122.503 72.5425 123.731 72.8129C124.381 72.9559 124.769 72.8641 125.431 72.8129C126.411 72.7371 127.904 72.3335 127.904 72.3335L127.595 70.8953Z" fill="#24161A"/>
<path d="M57.435 82.2414L55.5805 85.4375C55.5805 85.4375 54.8393 88.3321 54.6533 90.2317C54.4587 92.2186 53.9989 93.4665 54.6533 95.3455C55.3209 97.2625 56.1846 98.3355 57.8986 99.3406C59.2994 100.162 61.9165 100.299 61.9165 100.299C61.9165 100.299 66.0356 99.2187 68.4071 97.9023C70.7255 96.6154 71.3881 94.7967 73.8159 93.7474C75.858 92.8648 77.2589 93.285 79.3792 92.6288C80.4215 92.3062 81.4832 92.6564 82.0064 91.6699C82.3836 90.9586 82.3687 90.3121 82.0064 89.5925C81.6995 88.9829 80.6928 88.4738 80.6928 88.4738L82.0064 86.8758C82.0064 86.8758 82.96 84.9121 82.3154 83.9993C81.8777 83.3794 80.6155 83.1204 80.6155 83.1204C80.6155 83.1204 81.1485 81.3095 80.6928 80.3238C80.2961 79.4657 79.5385 79.4255 78.9156 78.7257C78.4496 78.2022 78.3471 77.7614 77.8339 77.2875C76.7377 76.2752 75.7219 76.3003 74.2795 76.009C72.3249 75.6143 69.1798 76.009 69.1798 76.009C69.1798 76.009 66.9196 74.5407 65.3163 74.5708C64.1891 74.5919 63.5495 74.8618 62.5347 75.3698C61.4482 75.9136 60.7051 76.2312 60.0621 77.2875C59.4378 78.3129 60.1392 79.3484 59.4439 80.3238C59.1272 80.7681 58.4394 81.2826 58.4394 81.2826L57.435 82.2414Z" fill="#24161A"/>
<path d="M44.6084 102.696C45.9209 105.332 47.3051 107.706 50.1717 107.65C51.8996 107.617 52.7462 106.715 54.1897 105.733C55.6884 104.712 56.0673 103.519 57.5895 102.537C58.3909 102.019 59.753 101.418 59.753 101.418L61.9165 100.299H56.5077C54.3955 100.299 53.3037 97.8689 52.4898 95.6651C51.6905 93.5009 51.8037 91.7978 52.4898 89.5925C53.096 87.6437 55.5805 85.4375 55.5805 85.4375L57.435 82.2414C57.435 82.2414 52.6286 83.5123 50.1717 85.4375C47.2082 87.7598 45.7153 89.7571 44.6084 93.4278C43.5664 96.8833 43.0059 99.4784 44.6084 102.696Z" fill="#24161A"/>
<path d="M56.6623 27.5881C57.6882 28.8362 57.7319 31.0835 59.2894 30.7842C59.911 30.6647 60.6802 29.9273 60.6802 29.9273C60.6802 29.9273 59.0883 27.4734 58.8258 25.6704C58.5348 23.6716 58.4387 22.1836 59.5985 20.5566C60.5934 19.1609 61.6826 18.748 63.3074 18.3194C64.7693 17.9337 65.7335 17.8447 67.1708 18.3194C68.5743 18.7828 70.2615 20.5566 70.2615 20.5566L70.8797 21.5719C70.8797 21.5719 71.5955 21.0562 71.8069 20.5566C72.3051 19.3794 70.865 18.8035 70.2615 17.6801C69.2526 16.7103 68.5031 16.2841 67.1708 15.9223C65.1725 15.3796 63.811 15.709 61.9165 16.5615C60.0318 17.4096 59.0238 18.2985 57.8986 20.0772C56.3234 22.5671 57.1451 24.6549 56.6623 27.5881Z" fill="#24161A"/>
<path d="M104.105 28.2273C104.105 28.2273 106.877 25.3392 107.196 22.9537C107.585 20.0376 106.8 17.7503 104.569 15.9223C103.028 14.6599 101.744 14.2895 99.7781 14.3242C97.5594 14.3635 96.0847 14.9304 94.5239 16.5615C93.7586 17.3612 92.9785 18.9586 92.9785 18.9586L94.7959 20.0772C94.7959 20.0772 95.5404 18.8711 96.2238 18.3194C97.5046 17.2852 98.628 17.0037 100.242 17.2007C101.716 17.3807 102.637 17.8281 103.642 18.9586C104.988 20.4746 104.871 22.0138 104.878 24.0723C104.883 25.7247 104.105 28.2273 104.105 28.2273Z" fill="#24161A"/>
<path d="M99.4691 22.9537C101.583 24.6763 104.105 28.2273 104.105 28.2273C104.105 28.2273 104.883 25.7247 104.878 24.0723C104.871 22.0138 104.988 20.4746 103.642 18.9586C102.637 17.8281 101.716 17.3807 100.242 17.2007C98.628 17.0037 97.5046 17.2852 96.2238 18.3194C95.5404 18.8711 94.7959 20.0772 94.7959 20.0772C94.7959 20.0772 97.8009 21.5944 99.4691 22.9537Z" fill="#581210"/>
<path d="M60.6802 29.9273C60.6802 29.9273 64.4791 28.0481 66.5526 26.3096C68.4643 24.7068 70.8797 21.5719 70.8797 21.5719L70.2615 20.5566C70.2615 20.5566 68.5743 18.7828 67.1708 18.3194C65.7335 17.8447 64.7693 17.9337 63.3074 18.3194C61.6826 18.748 60.5934 19.1609 59.5985 20.5566C58.4387 22.1836 58.5348 23.6716 58.8258 25.6704C59.0883 27.4734 60.6802 29.9273 60.6802 29.9273Z" fill="#581210"/>
<path fill-rule="evenodd" clip-rule="evenodd" d="M79.0702 35.2587C76.3039 36.0075 74.9858 37.8341 73.8159 40.5323C72.9429 42.5456 72.6084 43.9653 73.0432 46.1255C73.629 49.0358 74.9462 51.1167 77.6793 52.0382C79.7576 52.739 83.2427 51.399 83.2427 51.399C83.2427 51.399 87.2778 49.8345 88.4969 47.5637C89.672 45.3751 89.7072 43.5528 88.9605 41.1715C88.2716 38.9742 87.2882 37.7813 85.4062 36.5371C83.2821 35.133 81.509 34.5985 79.0702 35.2587ZM77.6793 43.4088L80.1518 49.0019L80.7701 43.7284L82.1608 42.2901L85.7152 41.9705L81.0791 39.7332L77.6793 43.4088Z" fill="black"/>
<path d="M92.824 50.1206C93.2876 48.8421 93.5966 49.0019 94.6784 48.6823C95.7602 48.3627 97.9237 48.2029 99.4691 48.6823C101.014 49.1618 100.551 48.8421 100.86 50.1206C101.169 51.399 97.6146 54.0358 97.6146 54.0358C97.6146 54.0358 92.3604 51.399 92.824 50.1206Z" fill="black"/>
<path fill-rule="evenodd" clip-rule="evenodd" d="M100.551 34.4597C99.0334 35.1224 98.9335 36.6404 98.5418 38.295C98.0818 40.2386 98.8509 43.4088 98.8509 43.4088C98.8509 43.4088 99.6214 47.6064 101.787 48.6823C102.989 49.2793 103.604 49.8879 104.878 49.4814C106.267 49.0382 106.82 48.41 107.041 46.9245C107.35 44.847 107.324 43.3654 106.732 41.1715C106.193 39.1732 106.098 37.8644 104.878 36.2175C104.307 35.4469 104.039 34.8476 103.178 34.4597C102.237 34.0357 101.496 34.0469 100.551 34.4597ZM102.714 38.9342L100.242 40.5323L102.405 41.1715L103.642 42.2901L104.105 45.646L104.878 40.8519L102.714 38.9342Z" fill="black"/>
<path fill-rule="evenodd" clip-rule="evenodd" d="M109.359 58.1108C109.359 58.1108 111.296 53.9983 111.059 51.2392C110.811 48.3474 107.969 44.5274 107.969 44.5274L106.732 32.3822L104.105 28.2273C104.105 28.2273 101.583 24.6763 99.4691 22.9537C97.8009 21.5944 94.7959 20.0772 94.7959 20.0772L92.9785 18.9586C92.9785 18.9586 85.6726 16.0302 80.7701 15.9223C76.6138 15.8308 74.1779 16.2383 70.2615 17.6801C70.865 18.8035 72.3051 19.3794 71.8069 20.5566C71.5955 21.0562 70.8797 21.5719 70.8797 21.5719C70.8797 21.5719 68.4643 24.7068 66.5526 26.3096C64.4791 28.0481 60.6802 29.9273 60.6802 29.9273C60.6802 29.9273 59.911 30.6647 59.2894 30.7842C57.7319 31.0835 57.6882 28.8362 56.6623 27.5881C55.2742 28.8362 54.3012 29.3365 53.1079 30.7842C51.1835 33.1188 50.6262 34.8929 49.7103 37.8087L49.7081 37.8156C48.6534 41.1732 47.8079 43.4571 48.4718 46.7647L50.1717 55.2344C50.1717 55.2344 52.6658 58.6046 54.6533 60.3481C57.171 62.5568 61.9165 64.8227 61.9165 64.8227L62.9983 65.2078C62.9983 65.2078 67.9906 67.3522 71.3433 68.1786C76.7599 69.5136 80.0176 69.8445 85.5607 69.2972C90.7774 68.7821 98.5418 65.7815 98.5418 65.7815L108.896 58.4396L109.359 58.1108ZM73.8159 40.5323C74.9858 37.8341 76.3039 36.0075 79.0702 35.2587C81.509 34.5985 83.2821 35.133 85.4062 36.5371C87.2882 37.7813 88.2716 38.9742 88.9605 41.1715C89.7072 43.5528 89.672 45.3751 88.4969 47.5637C87.2778 49.8345 83.2427 51.399 83.2427 51.399C83.2427 51.399 79.7576 52.739 77.6793 52.0382C74.9462 51.1167 73.629 49.0358 73.0432 46.1255C72.6084 43.9653 72.9429 42.5456 73.8159 40.5323ZM98.5418 38.295C98.9335 36.6404 99.0334 35.1224 100.551 34.4597C101.496 34.0469 102.237 34.0357 103.178 34.4597C104.039 34.8476 104.307 35.4469 104.878 36.2175C106.098 37.8644 106.193 39.1732 106.732 41.1715C107.324 43.3654 107.35 44.847 107.041 46.9245C106.82 48.41 106.267 49.0382 104.878 49.4814C103.604 49.8879 102.989 49.2793 101.787 48.6823C99.6214 47.6064 98.8509 43.4088 98.8509 43.4088C98.8509 43.4088 98.0818 40.2386 98.5418 38.295ZM94.6784 48.6823C93.5966 49.0019 93.2876 48.8421 92.824 50.1206C92.3604 51.399 97.6146 54.0358 97.6146 54.0358C97.6146 54.0358 101.169 51.399 100.86 50.1206C100.551 48.8421 101.014 49.1618 99.4691 48.6823C97.9237 48.2029 95.7602 48.3627 94.6784 48.6823Z" fill="#FDF7D8"/>
<path d="M92.5149 84.1591C92.5149 84.1591 97.3678 76.8022 98.2328 71.3747C98.5768 69.216 98.5418 65.7815 98.5418 65.7815C98.5418 65.7815 90.7774 68.7821 85.5607 69.2972C80.0176 69.8445 76.7599 69.5136 71.3433 68.1786C67.9906 67.3522 62.9983 65.2078 62.9983 65.2078L76.5976 74.8904L92.5149 84.1591Z" fill="#24161A"/>
<path d="M94.2148 134.658L82.3154 138.972L103.951 147.442L107.969 151.277C107.969 151.277 113.407 152.475 116.932 152.396C120.92 152.306 123.291 152.057 126.977 150.478C128.682 149.747 131.149 148.179 131.149 148.179C131.149 148.179 133.248 144.787 133.776 142.328C134.553 138.715 134.218 136.319 132.849 132.9C131.439 129.378 129.425 128.087 126.822 125.389C124.95 123.448 121.722 120.754 121.722 120.754V120.115C121.722 120.115 116.504 125.282 112.605 127.786C109.09 130.043 103.023 132.462 103.023 132.462L107.969 136.575L103.023 138.493L101.478 142.808L94.2148 134.658Z" fill="#24161A"/>
<path d="M29.6183 161.984L65.0073 142.328H60.8348L61.3756 138.493C61.3756 138.493 48.9781 137.288 41.8267 134.018C35.8103 131.268 27.7638 124.43 27.7638 124.43C27.7638 124.43 24.1665 132.386 20.6551 136.575C17.4009 140.458 12.001 141.21 10.9193 145.045C9.8375 148.88 10.6102 149.679 10.6102 149.679C10.6102 149.679 13.98 156.106 17.5644 158.628C21.5946 161.465 29.6183 161.984 29.6183 161.984Z" fill="#24161A"/>
<path d="M107.969 158.628C109.823 160.866 117.29 163.252 123.731 164.062C127.626 164.551 130.176 165.673 133.776 164.062C135.682 163.209 137.705 162.973 138.103 160.866C138.45 159.03 137.141 158.076 136.094 156.551C134.391 154.068 130.222 151.663 130.222 151.663C130.222 151.663 127.645 152.967 125.895 153.515C124.071 154.085 123.004 154.314 121.104 154.473C119.178 154.635 118.084 154.481 116.159 154.314C114.033 154.129 112.776 154.208 110.75 153.515C109.622 153.128 107.969 152.236 107.969 152.236C107.969 152.236 106.114 156.391 107.969 158.628Z" fill="#24161A"/>
<path d="M7.98305 155.752C7.98305 155.752 0.132118 161.314 0.101652 166.619C0.0818831 170.061 3.34693 174.769 3.34693 174.769L7.98305 168.376L6.1286 174.769C6.1286 174.769 9.1883 175.846 11.2283 176.047C18.0915 176.723 26.5275 170.933 27.4547 168.856C28.382 166.778 26.5275 164.062 26.5275 164.062C26.5275 164.062 19.3728 163.979 15.4008 161.984C12.0433 160.298 7.98305 155.752 7.98305 155.752Z" fill="#24161A"/>
<path d="M26.5275 164.062L29.6183 161.984C29.6183 161.984 21.5946 161.465 17.5644 158.628C13.98 156.106 10.6102 149.679 10.6102 149.679C10.6102 149.679 9.55354 150.554 9.06481 151.277C8.06739 152.754 7.98305 155.752 7.98305 155.752C7.98305 155.752 12.0433 160.298 15.4008 161.984C19.3728 163.979 26.5275 164.062 26.5275 164.062Z" fill="#F8780F"/>
<path d="M116.932 152.396C113.407 152.475 107.969 151.277 107.969 151.277V152.236C107.969 152.236 109.622 153.128 110.75 153.515C112.776 154.208 114.033 154.129 116.159 154.314C118.084 154.481 119.178 154.635 121.104 154.473C123.004 154.314 124.071 154.085 125.895 153.515C127.645 152.967 130.222 151.663 130.222 151.663L129.758 151.277L131.149 148.179C131.149 148.179 128.682 149.747 126.977 150.478C123.291 152.057 120.92 152.306 116.932 152.396Z" fill="#F8780F"/>
<path d="M66.5526 123.951H73.5068L77.2157 123.156L76.5976 122.992C76.5976 122.992 74.9526 120.776 75.0522 119.156C75.1322 117.857 76.3868 116.12 76.3868 116.12L67.9435 115.161C67.9435 115.161 62.0028 114.906 58.3622 113.883C54.8903 112.907 49.8626 110.207 49.8626 110.207C49.8626 110.207 45.5677 110.058 42.9085 109.408C40.0832 108.718 35.9543 106.692 35.9543 106.692L35.4907 110.207C35.4907 110.207 38.5724 113.511 40.8995 115.161C43.7712 117.198 45.7052 117.812 48.9354 119.156C51.9451 120.409 53.6882 120.985 56.8168 121.873C60.5605 122.936 66.5526 123.951 66.5526 123.951Z" fill="#F8780F"/>
<path d="M87.1061 117.558C86.7144 116.47 85.4062 115.161 85.4062 115.161C85.4062 115.161 83.0298 113.9 81.3882 113.883C79.4032 113.862 76.5976 115.641 76.5976 115.641L76.3868 116.12C76.3868 116.12 75.1322 117.857 75.0522 119.156C74.9526 120.776 76.5976 122.992 76.5976 122.992L77.2157 123.156L82.0064 124.43L86.1789 122.992C86.1789 122.992 87.833 119.578 87.1061 117.558Z" fill="#F9B715"/>
<path d="M109.978 108.609L107.969 103.815L100.86 110.207L90.9695 113.084C90.9695 113.084 92.5418 114.138 93.133 115.161C94.3883 117.335 92.5149 121.612 92.5149 121.612L94.2148 120.754L105.341 114.682L109.978 108.609Z" fill="#F8780F"/>
<path d="M87.8788 123.951L92.5149 121.612C92.5149 121.612 94.3883 117.335 93.133 115.161C92.5418 114.138 90.9695 113.084 90.9695 113.084L85.4062 115.161C85.4062 115.161 86.7144 116.47 87.1061 117.558C87.833 119.578 86.1789 122.992 86.1789 122.992L87.8788 123.951Z" fill="#EE941F"/>
<path d="M87.8788 123.951L94.2148 134.658L101.478 142.808L103.023 138.493L107.969 136.575L103.023 132.462L100.86 130.662L94.2148 120.754L92.5149 121.612L87.8788 123.951Z" fill="#F8780F"/>
<path d="M65.0073 142.328L70.2615 144.565L70.7251 138.972L73.5068 123.951H66.5526L61.9165 134.658L61.3756 138.493L60.8348 142.328H65.0073Z" fill="#F8780F"/>
<path d="M100.242 40.5323L102.714 38.9342L104.878 40.8519L104.105 45.646L103.642 42.2901L102.405 41.1715L100.242 40.5323Z" fill="#FAF8ED"/>
<path d="M80.1518 49.0019L77.6793 43.4088L81.0791 39.7332L85.7152 41.9705L82.1608 42.2901L80.7701 43.7284L80.1518 49.0019Z" fill="#FDF7D8"/>
<path d="M7.98305 155.752C7.98305 155.752 0.132118 161.314 0.101652 166.619C0.0818831 170.061 3.34693 174.769 3.34693 174.769L7.98305 168.376L6.1286 174.769C6.1286 174.769 9.1883 175.846 11.2283 176.047C18.0915 176.723 26.5275 170.933 27.4547 168.856C28.382 166.778 26.5275 164.062 26.5275 164.062M7.98305 155.752C7.98305 155.752 8.06739 152.754 9.06481 151.277C9.55354 150.554 10.6102 149.679 10.6102 149.679M7.98305 155.752C7.98305 155.752 12.0433 160.298 15.4008 161.984C19.3728 163.979 26.5275 164.062 26.5275 164.062M26.5275 164.062L29.6183 161.984M29.6183 161.984L65.0073 142.328M29.6183 161.984C29.6183 161.984 21.5946 161.465 17.5644 158.628C13.98 156.106 10.6102 149.679 10.6102 149.679M65.0073 142.328L70.2615 144.565L70.7251 138.972M65.0073 142.328H60.8348L61.3756 138.493M70.7251 138.972L73.5068 123.951M70.7251 138.972L80.6155 139.931M73.5068 123.951H66.5526M73.5068 123.951L77.2157 123.156M66.5526 123.951L61.9165 134.658L61.3756 138.493M66.5526 123.951C66.5526 123.951 60.5605 122.936 56.8168 121.873C53.6882 120.985 51.9451 120.409 48.9354 119.156C45.7052 117.812 43.7712 117.198 40.8995 115.161C38.5724 113.511 35.4907 110.207 35.4907 110.207M10.6102 149.679C10.6102 149.679 9.8375 148.88 10.9193 145.045C12.001 141.21 17.4009 140.458 20.6551 136.575C24.1665 132.386 27.7638 124.43 27.7638 124.43M27.7638 124.43L24.6731 120.754L35.4907 110.207M27.7638 124.43C27.7638 124.43 35.8103 131.268 41.8267 134.018C48.9781 137.288 61.3756 138.493 61.3756 138.493M35.4907 110.207L35.9543 106.692M35.9543 106.692C35.9543 106.692 40.0832 108.718 42.9085 109.408C45.5677 110.058 49.8626 110.207 49.8626 110.207M35.9543 106.692C35.9543 106.692 32.4202 103.607 30.5455 101.258C27.9099 97.9566 25.9112 96.0353 25.1367 91.8297C24.4547 88.1264 25.1873 85.8574 26.2184 82.2414C27.2872 78.4936 28.3786 76.4933 30.5455 73.2923C32.7975 69.9656 37.4997 65.7815 37.4997 65.7815L44.6084 60.3481L50.1717 55.2344M49.8626 110.207C49.8626 110.207 54.8903 112.907 58.3622 113.883C62.0028 114.906 67.9435 115.161 67.9435 115.161M49.8626 110.207C49.8626 110.207 54.4318 109.545 56.5077 107.65C58.5119 105.821 59.753 101.418 59.753 101.418M67.9435 115.161L92.5149 84.1591M67.9435 115.161L76.3868 116.12M92.5149 84.1591C92.5149 84.1591 97.3678 76.8022 98.2328 71.3747C98.5768 69.216 98.5418 65.7815 98.5418 65.7815M92.5149 84.1591L76.5976 74.8904L62.9983 65.2078M98.5418 65.7815C98.5418 65.7815 90.7774 68.7821 85.5607 69.2972C80.0176 69.8445 76.7599 69.5136 71.3433 68.1786C67.9906 67.3522 62.9983 65.2078 62.9983 65.2078M98.5418 65.7815L108.896 58.4396M104.105 28.2273L106.732 32.3822L107.969 44.5274C107.969 44.5274 110.811 48.3474 111.059 51.2392C111.296 53.9983 109.359 58.1108 109.359 58.1108L108.896 58.4396M104.105 28.2273C104.105 28.2273 106.877 25.3392 107.196 22.9537C107.585 20.0376 106.8 17.7503 104.569 15.9223C103.028 14.6599 101.744 14.2895 99.7781 14.3242C97.5594 14.3635 96.0847 14.9304 94.5239 16.5615C93.7586 17.3612 92.9785 18.9586 92.9785 18.9586M104.105 28.2273C104.105 28.2273 101.583 24.6763 99.4691 22.9537C97.8009 21.5944 94.7959 20.0772 94.7959 20.0772M104.105 28.2273C104.105 28.2273 104.883 25.7247 104.878 24.0723C104.871 22.0138 104.988 20.4746 103.642 18.9586C102.637 17.8281 101.716 17.3807 100.242 17.2007C98.628 17.0037 97.5046 17.2852 96.2238 18.3194C95.5404 18.8711 94.7959 20.0772 94.7959 20.0772M92.9785 18.9586C92.9785 18.9586 85.6726 16.0302 80.7701 15.9223C76.6138 15.8308 74.1779 16.2383 70.2615 17.6801M92.9785 18.9586L94.7959 20.0772M70.2615 17.6801C70.865 18.8035 72.3051 19.3794 71.8069 20.5566C71.5955 21.0562 70.8797 21.5719 70.8797 21.5719M70.2615 17.6801C69.2526 16.7103 68.5031 16.2841 67.1708 15.9223C65.1725 15.3796 63.811 15.709 61.9165 16.5615C60.0318 17.4096 59.0238 18.2985 57.8986 20.0772C56.3234 22.5671 57.1451 24.6549 56.6623 27.5881M56.6623 27.5881C57.6882 28.8362 57.7319 31.0835 59.2894 30.7842C59.911 30.6647 60.6802 29.9273 60.6802 29.9273M56.6623 27.5881C55.2742 28.8362 54.3012 29.3365 53.1079 30.7842C51.1835 33.1188 50.6262 34.8929 49.7103 37.8087M49.7081 37.8156C48.6534 41.1732 47.8079 43.4571 48.4718 46.7647M49.7081 37.8156L49.7103 37.8087M49.7081 37.8156C49.7088 37.8133 49.7095 37.811 49.7103 37.8087M48.4718 46.7647C49.1356 50.0723 49.5078 51.9267 50.1717 55.2344M48.4718 46.7647L50.1717 55.2344M50.1717 55.2344C50.1717 55.2344 52.6658 58.6046 54.6533 60.3481C57.171 62.5568 61.9165 64.8227 61.9165 64.8227L62.9983 65.2078M57.435 82.2414C57.435 82.2414 52.6286 83.5123 50.1717 85.4375C47.2082 87.7598 45.7153 89.7571 44.6084 93.4278C43.5664 96.8833 43.0059 99.4784 44.6084 102.696C45.9209 105.332 47.3051 107.706 50.1717 107.65C51.8996 107.617 52.7462 106.715 54.1897 105.733C55.6884 104.712 56.0673 103.519 57.5895 102.537C58.3909 102.019 59.753 101.418 59.753 101.418M57.435 82.2414L55.5805 85.4375M57.435 82.2414L58.4394 81.2826M55.5805 85.4375C55.5805 85.4375 54.8393 88.3321 54.6533 90.2317C54.4587 92.2186 53.9989 93.4665 54.6533 95.3455C55.3209 97.2625 56.1846 98.3355 57.8986 99.3406C59.2994 100.162 61.9165 100.299 61.9165 100.299M55.5805 85.4375C55.5805 85.4375 53.096 87.6437 52.4898 89.5925C51.8037 91.7978 51.6905 93.5009 52.4898 95.6651C53.3037 97.8689 54.3955 100.299 56.5077 100.299M61.9165 100.299C61.9165 100.299 66.0356 99.2187 68.4071 97.9023C70.7255 96.6154 71.3881 94.7967 73.8159 93.7474C75.858 92.8648 77.2589 93.285 79.3792 92.6288C80.4215 92.3062 81.4832 92.6564 82.0064 91.6699C82.3836 90.9586 82.3687 90.3121 82.0064 89.5925C81.6995 88.9829 80.6928 88.4738 80.6928 88.4738M61.9165 100.299C59.8043 100.299 58.62 100.299 56.5077 100.299M61.9165 100.299L59.753 101.418M61.9165 100.299H56.5077M72.7341 87.3552C72.7341 87.3552 74.4295 86.8758 75.5158 86.8758C77.0246 86.8758 78.043 86.6307 79.3792 87.3552C79.9678 87.6743 80.6928 88.4738 80.6928 88.4738M80.6928 88.4738L82.0064 86.8758C82.0064 86.8758 82.96 84.9121 82.3154 83.9993C81.8777 83.3794 80.6155 83.1204 80.6155 83.1204M71.6524 82.4012C71.6524 82.4012 72.9699 81.9656 73.8159 81.9218C75.805 81.8188 77.0376 81.556 78.9156 82.2414C79.6155 82.4969 80.6155 83.1204 80.6155 83.1204M80.6155 83.1204C80.6155 83.1204 81.1485 81.3095 80.6928 80.3238C80.2961 79.4657 79.5385 79.4255 78.9156 78.7257C78.4496 78.2022 78.3471 77.7614 77.8339 77.2875C76.7377 76.2752 75.7219 76.3003 74.2795 76.009C72.3249 75.6143 69.1798 76.009 69.1798 76.009M69.1798 76.009L64.2346 77.2875M69.1798 76.009C69.1798 76.009 66.9196 74.5407 65.3163 74.5708C64.1891 74.5919 63.5495 74.8618 62.5347 75.3698C61.4482 75.9136 60.7051 76.2312 60.0621 77.2875C59.4378 78.3129 60.1392 79.3484 59.4439 80.3238C59.1272 80.7681 58.4394 81.2826 58.4394 81.2826M35.1816 77.7669C35.1816 77.7669 39.4674 75.3668 42.4448 75.3698C44.7429 75.3721 48.1627 76.8081 48.1627 76.8081L53.7261 79.6845L55.5805 80.3133M58.4394 81.2826L55.5805 80.3133M55.5805 80.3133C55.5805 80.3133 55.8858 78.14 55.5805 76.8081C55.2317 75.2863 53.7261 73.2923 53.7261 73.2923L50.6353 69.2972M80.6155 139.931C80.6155 139.931 81.4632 130.484 82.0064 124.43M80.6155 139.931L82.0064 124.43M82.0064 124.43C82.1271 130.109 82.3154 138.972 82.3154 138.972M82.0064 124.43C83.6358 123.868 86.1789 122.992 86.1789 122.992M82.0064 124.43C80.1355 123.933 77.2157 123.156 77.2157 123.156M82.0064 124.43L77.2157 123.156M82.0064 124.43L82.3154 138.972M82.0064 124.43L86.1789 122.992M82.3154 138.972L94.2148 134.658M82.3154 138.972L103.951 147.442L107.969 151.277M94.2148 134.658L87.8788 123.951M94.2148 134.658L101.478 142.808L103.023 138.493L107.969 136.575L103.023 132.462M87.8788 123.951L92.5149 121.612M87.8788 123.951L86.1789 122.992M94.2148 120.754L100.86 130.662L103.023 132.462M94.2148 120.754L105.341 114.682L109.978 108.609M94.2148 120.754L92.5149 121.612M107.969 151.277C107.969 151.277 113.407 152.475 116.932 152.396C120.92 152.306 123.291 152.057 126.977 150.478C128.682 149.747 131.149 148.179 131.149 148.179M107.969 151.277V152.236M109.978 108.609L121.722 117.079V120.115M109.978 108.609L107.969 103.815M107.969 103.815C107.969 103.815 110.596 99.6602 110.905 97.9023C111.214 96.1445 109.566 90.3915 109.566 90.3915M107.969 103.815L100.86 110.207L90.9695 113.084M105.805 69.2972L109.566 90.3915M103.023 132.462C103.023 132.462 109.09 130.043 112.605 127.786C116.504 125.282 121.722 120.115 121.722 120.115M121.722 120.115V120.754C121.722 120.754 124.95 123.448 126.822 125.389C129.425 128.087 131.439 129.378 132.849 132.9C134.218 136.319 134.553 138.715 133.776 142.328C133.248 144.787 131.149 148.179 131.149 148.179M92.5149 121.612C92.5149 121.612 94.3883 117.335 93.133 115.161C92.5418 114.138 90.9695 113.084 90.9695 113.084M90.9695 113.084L85.4062 115.161M85.4062 115.161C85.4062 115.161 86.7144 116.47 87.1061 117.558C87.833 119.578 86.1789 122.992 86.1789 122.992M85.4062 115.161C85.4062 115.161 83.0298 113.9 81.3882 113.883C79.4032 113.862 76.5976 115.641 76.5976 115.641L76.3868 116.12M76.3868 116.12C76.3868 116.12 75.1322 117.857 75.0522 119.156C74.9526 120.776 76.5976 122.992 76.5976 122.992L77.2157 123.156M131.149 148.179L129.758 151.277L130.222 151.663M130.222 151.663C130.222 151.663 134.391 154.068 136.094 156.551C137.141 158.076 138.45 159.03 138.103 160.866C137.705 162.973 135.682 163.209 133.776 164.062C130.176 165.673 127.626 164.551 123.731 164.062C117.29 163.252 109.823 160.866 107.969 158.628C106.114 156.391 107.969 152.236 107.969 152.236M130.222 151.663C130.222 151.663 127.645 152.967 125.895 153.515C124.071 154.085 123.004 154.314 121.104 154.473C119.178 154.635 118.084 154.481 116.159 154.314C114.033 154.129 112.776 154.208 110.75 153.515C109.622 153.128 107.969 152.236 107.969 152.236M108.896 58.4396H111.059M131.613 76.8081C131.613 76.8081 131.383 77.4249 131.149 77.7669C130.084 79.3263 128.356 78.8474 126.513 78.7257C122.241 78.4437 120.255 75.2402 118.168 71.3747C117.228 69.6335 116.468 66.5805 116.468 66.5805L115.541 65.0624M131.613 76.8081L133.004 77.7669M131.613 76.8081L127.904 72.3335M133.004 77.7669L130.056 82.7208M133.004 77.7669L151.548 100.939L154.484 99.0904M109.566 90.3915C109.566 90.3915 113.779 89.9586 116.468 89.5925C119.252 89.2134 120.99 89.604 123.577 88.4738C126.156 87.3468 129.295 83.9993 129.295 83.9993L130.056 82.7208M112.45 59.0742L111.677 58.4396H111.059M112.45 59.0742C112.45 59.0742 112.888 59.511 113.223 59.7089C114.323 60.3597 116.468 59.7089 116.468 59.7089L114.614 63.5442L115.541 65.0624M112.45 59.0742C112.45 59.0742 111.273 60.7474 110.75 61.9462C109.501 64.8112 109.263 66.8476 109.823 69.9364C110.276 72.434 111.062 73.7521 112.45 75.8492C113.824 77.9254 114.784 79.0405 116.777 80.4836C119.701 82.6004 121.862 83.5198 125.431 83.5199C127.262 83.5199 130.056 82.7208 130.056 82.7208M111.059 58.4396C111.059 58.4396 110.992 56.1458 111.368 54.7549C111.711 53.4915 111.843 52.6268 112.759 51.7186C113.861 50.6259 115.013 49.963 116.468 50.4402C117.251 50.6967 118.168 51.7186 118.168 51.7186M118.168 51.7186C118.168 51.7186 119.192 53.1124 119.095 54.1157C119.058 54.5032 118.83 55.0745 118.83 55.0745M118.168 51.7186L119.713 0.261368L122.341 0.101562L122.495 0.580978M118.168 62.2658L116.777 60.5079C116.777 60.5079 117.735 58.705 118.168 57.4716C118.489 56.5565 118.83 55.0745 118.83 55.0745M118.168 62.2658L119.404 60.5079C119.404 60.5079 122.301 57.994 124.35 56.6726C125.061 56.2137 126.204 55.554 126.204 55.554M118.168 62.2658L118.83 65.1423M118.83 55.0745L120.276 54.0358M121.722 52.9971C122.507 52.1858 122.947 51.7309 123.731 50.9196M121.722 52.9971C121.158 53.4027 120.276 54.0358 120.276 54.0358M121.722 52.9971C122.082 48.4784 122.486 43.4005 122.898 38.2304M121.722 52.9971C123.067 48.6971 124.585 43.8435 126.125 38.9174M121.722 52.9971L120.276 54.0358M121.722 52.9971L122.898 38.2304M121.722 52.9971L126.125 38.9174M121.722 52.9971L123.731 50.9196M123.731 50.9196C124.697 51.1068 125.463 50.7322 126.204 51.399C126.506 51.6708 126.822 52.2451 126.822 52.2451M123.731 50.9196C125.684 47.8525 127.859 44.4375 130.085 40.9409M123.731 50.9196L130.085 40.9409M127.595 70.8953C127.595 70.8953 126.028 71.24 125.122 70.8953C124.51 70.6622 123.731 69.9364 123.731 69.9364M127.595 70.8953L127.904 72.3335M127.595 70.8953L129.604 70.6644M123.731 69.9364C123.731 69.9364 124.918 68.8155 125.74 68.1786C127.149 67.0882 129.604 65.7815 129.604 65.7815M123.731 69.9364L121.413 68.8178L120.641 66.9001M120.641 66.9001C120.641 66.9001 122.499 65.3079 123.731 64.3432C125.32 63.0998 127.904 61.3069 127.904 61.3069M120.641 66.9001L118.83 65.1423M120.641 66.9001L119.636 67.0599M118.83 65.1423L115.541 65.0624M118.83 65.1423C118.83 65.1423 117.49 65.5868 117.55 66.2609C117.601 66.8339 118.086 67.1047 118.632 67.2197C119.021 67.3018 119.636 67.0599 119.636 67.0599M119.636 67.0599C119.636 67.0599 119.114 68.4716 119.404 69.2972C119.711 70.1689 120.41 70.3072 121.104 70.8953C122.076 71.7184 122.503 72.5425 123.731 72.8129C124.381 72.9559 124.769 72.8641 125.431 72.8129C126.411 72.7371 127.904 72.3335 127.904 72.3335M161.748 93.1082L162.211 94.2268L154.484 99.0904M161.748 93.1082C161.748 93.1082 162.654 89.5657 163.911 87.6748C165.218 85.7098 168.238 83.5199 168.238 83.5199M161.748 93.1082L136.665 73.5718M168.238 83.5199C168.238 83.5199 167.78 79.1201 168.547 76.4884C169.25 74.0799 171.638 70.8953 171.638 70.8953M168.238 83.5199L138.916 69.7687M171.638 70.8953C171.638 70.8953 170.559 66.9245 170.711 64.3432C170.847 62.0317 172.102 58.5903 172.102 58.5903M171.638 70.8953L140.112 65.0924M172.102 58.5903C172.102 58.5903 170.467 54.2964 170.093 51.399C169.757 48.801 170.093 44.6872 170.093 44.6872M172.102 58.5903L140.112 59.7343M170.093 44.6872C170.093 44.6872 167.619 41.7997 166.693 39.5734C165.626 37.0096 165.456 32.542 165.456 32.542M170.093 44.6872L139.295 54.3201M170.093 44.6872C170.093 44.6872 153.733 49.8041 139.295 54.3201M165.456 32.542C165.456 32.542 161.841 29.8518 160.357 27.4282C159.079 25.3425 158.193 21.5155 158.193 21.5155M165.456 32.542L136.841 49.1074M158.193 21.5155C158.193 21.5155 154.369 20.1833 152.475 18.4792C150.304 16.5245 148.457 12.087 148.457 12.087M158.193 21.5155L134.616 44.6105M148.457 12.087C148.457 12.087 144.181 11.1311 141.812 9.68987C139.527 8.29957 136.713 5.05552 136.713 5.05552M148.457 12.087L130.085 40.9409M148.457 12.087C148.457 12.087 138.867 27.1491 130.085 40.9409M136.713 5.05552C136.713 5.05552 132.998 4.98362 130.84 4.09669C128.662 3.20141 125.895 0.580978 125.895 0.580978M136.713 5.05552L126.125 38.9174M136.713 5.05552C136.713 5.05552 131.291 22.3945 126.125 38.9174M125.895 0.580978H122.495M125.895 0.580978L122.898 38.2304M125.895 0.580978C125.895 0.580978 124.351 19.9798 122.898 38.2304M122.495 0.580978L120.95 37.8156M120.276 54.0358L120.95 37.8156M129.604 70.6644L130.376 70.5756L131.69 69.6967M129.604 70.6644L134.701 76.4884M154.484 99.0904L134.701 76.4884M134.701 76.4884L136.665 73.5718M120.95 37.8156L122.898 38.2304M126.822 52.2451L128.189 54.1157M126.822 52.2451L134.616 44.6105M128.189 54.1157C128.189 54.1157 129.522 55.9405 130.376 57.1097M128.189 54.1157L136.841 49.1074M128.189 54.1157L130.376 57.1097M130.376 57.1097C130.799 57.6879 131.151 57.9391 131.458 58.5903C131.708 59.1183 131.886 60.0285 131.886 60.0285M130.376 57.1097C133.136 56.2466 136.17 55.2975 139.295 54.3201M130.376 57.1097L139.295 54.3201M131.886 60.0285L133.004 63.7839M131.886 60.0285L140.112 59.7343M133.004 63.7839C133.004 63.7839 133.241 64.4048 133.313 64.8227C133.461 65.6857 133.14 67.0599 133.14 67.0599M133.004 63.7839L140.112 65.0924M133.14 67.0599C133.14 67.0599 133.357 68.2341 133.004 68.8178C132.679 69.3533 131.69 69.6967 131.69 69.6967M133.14 67.0599L138.916 69.7687M131.69 69.6967L136.665 73.5718M60.6802 29.9273C60.6802 29.9273 64.4791 28.0481 66.5526 26.3096C68.4643 24.7068 70.8797 21.5719 70.8797 21.5719M60.6802 29.9273C60.6802 29.9273 59.0883 27.4734 58.8258 25.6704C58.5348 23.6716 58.4387 22.1836 59.5985 20.5566C60.5934 19.1609 61.6826 18.748 63.3074 18.3194C64.7693 17.9337 65.7335 17.8447 67.1708 18.3194C68.5743 18.7828 70.2615 20.5566 70.2615 20.5566L70.8797 21.5719M97.6146 54.0358C97.6146 54.0358 101.169 51.399 100.86 50.1206C100.551 48.8421 101.014 49.1618 99.4691 48.6823C97.9237 48.2029 95.7602 48.3627 94.6784 48.6823C93.5966 49.0019 93.2876 48.8421 92.824 50.1206C92.3604 51.399 97.6146 54.0358 97.6146 54.0358ZM97.6146 54.0358L97.3055 57.4716M97.3055 57.4716C97.3055 57.4716 98.4331 58.9874 99.4691 59.0742C100.88 59.1925 102.251 56.6726 102.251 56.6726M97.3055 57.4716C97.3055 57.4716 94.1713 59.6647 91.8967 59.7089C89.5097 59.7553 86.1789 57.4716 86.1789 57.4716M122.898 38.2304L126.125 38.9174M126.125 38.9174L126.204 38.9342L130.085 40.9409M130.085 40.9409L131.149 41.4911L134.616 44.6105M134.616 44.6105L134.701 44.6872L136.841 49.1074M136.841 49.1074L137.176 49.801L139.295 54.3201M139.295 54.3201L139.649 55.0745L140.112 59.7089V59.7343M140.112 59.7343V65.0924M140.112 65.0924V65.1423L139.185 69.2972L138.916 69.7687M138.916 69.7687L137.176 72.8129L136.665 73.5718M79.0702 35.2587C76.3039 36.0075 74.9858 37.8341 73.8159 40.5323C72.9429 42.5456 72.6084 43.9653 73.0432 46.1255C73.629 49.0358 74.9462 51.1167 77.6793 52.0382C79.7576 52.739 83.2427 51.399 83.2427 51.399C83.2427 51.399 87.2778 49.8345 88.4969 47.5637C89.672 45.3751 89.7072 43.5528 88.9605 41.1715C88.2716 38.9742 87.2882 37.7813 85.4062 36.5371C83.2821 35.133 81.509 34.5985 79.0702 35.2587ZM100.551 34.4597C99.0334 35.1224 98.9335 36.6404 98.5418 38.295C98.0818 40.2386 98.8509 43.4088 98.8509 43.4088C98.8509 43.4088 99.6214 47.6064 101.787 48.6823C102.989 49.2793 103.604 49.8879 104.878 49.4814C106.267 49.0382 106.82 48.41 107.041 46.9245C107.35 44.847 107.324 43.3654 106.732 41.1715C106.193 39.1732 106.098 37.8644 104.878 36.2175C104.307 35.4469 104.039 34.8476 103.178 34.4597C102.237 34.0357 101.496 34.0469 100.551 34.4597ZM80.1518 49.0019L77.6793 43.4088L81.0791 39.7332L85.7152 41.9705L82.1608 42.2901L80.7701 43.7284L80.1518 49.0019ZM100.242 40.5323L102.714 38.9342L104.878 40.8519L104.105 45.646L103.642 42.2901L102.405 41.1715L100.242 40.5323Z" stroke="black" stroke-width="0.2"/>
</svg>
