<svg width="46" height="39" viewBox="0 0 46 39" fill="none" xmlns="http://www.w3.org/2000/svg">
<path d="M21.4889 31.3373L22.3693 31.0376L22.1384 21.9646L19.9238 22.4316L21.4889 31.3373Z" fill="#EEDFA8"/>
<path d="M22.3693 31.0376C22.3693 31.0376 22.9059 31.027 23.2497 30.91C23.7323 28.3202 24.2738 25.4061 24.8257 22.4316L22.1384 21.9646L22.3693 31.0376Z" fill="#EEDFA8"/>
<path d="M23.2497 30.91C23.4298 31.144 23.7108 31.3373 23.7108 31.3373L26.9709 24.2009L24.8257 22.4316C24.2738 25.4061 23.7323 28.3202 23.2497 30.91Z" fill="#EEDFA8"/>
<path d="M23.7108 31.3373L24.6052 32.4999L28.6209 26.6093L26.9709 24.2009L23.7108 31.3373Z" fill="#EEDFA8"/>
<path d="M24.6052 32.4999L25.0524 33.0812L29.9995 28.9465L28.6209 26.6093L24.6052 32.4999Z" fill="#EEDFA8"/>
<path d="M25.0524 33.0812L25.4997 33.6624L30.4886 32.0038L29.9995 28.9465L25.0524 33.0812Z" fill="#EEDFA8"/>
<path d="M18.5551 23.8569L21.4889 31.3373L19.9238 22.4316L18.5551 23.8569Z" fill="#EEDFA8"/>
<path d="M20.2173 31.7701L21.4889 31.3373L18.5551 23.8569L16.6763 26.6093L20.2173 31.7701Z" fill="#EEDFA8"/>
<path d="M19.612 33.3184L20.2173 31.7701L16.6763 26.6093L15.0327 29.2877L19.612 33.3184Z" fill="#EEDFA8"/>
<path d="M19.1412 34.5226L19.612 33.3184L15.0327 29.2877L14.0055 32.4999L19.1412 34.5226Z" fill="#EEDFA8"/>
<path d="M25.4018 37.275C25.9888 36.4149 25.4997 33.6624 25.4997 33.6624L25.0524 33.0812L24.6052 32.4999L23.7108 31.3373C23.7108 31.3373 23.4298 31.144 23.2497 30.91C22.9059 31.027 22.3693 31.0376 22.3693 31.0376L21.4889 31.3373L20.2173 31.7701L19.612 33.3184L19.1412 34.5226C19.1412 34.5226 19.612 36.0917 20.1194 37.103C20.902 37.9631 21.8274 38.64 22.6628 38.4792C23.9252 38.2362 24.1301 38.3072 25.4018 37.275Z" fill="#F8780F"/>
<path d="M1.82671 17.6639V22.8247L0.359375 27.1254L14.0055 32.4999L15.0327 29.2877L1.82671 17.6639Z" fill="#D62E00"/>
<path d="M5.93523 10.9548L4.37008 14.3953L1.82671 17.6639L15.0327 29.2877L16.6763 26.6093L5.93523 10.9548Z" fill="#D62E00"/>
<path d="M10.7285 3.90164L8.38079 7.68626L5.93523 10.9548L16.6763 26.6093L18.5551 23.8569L10.7285 3.90164Z" fill="#D62E00"/>
<path d="M16.3044 1.83731L13.6632 3.90164H10.7285L18.5551 23.8569L19.9238 22.4316L16.3044 1.83731Z" fill="#D62E00"/>
<path d="M21.5868 0.289062L19.1412 1.83731H16.3044L19.9238 22.4316L22.1384 21.9646L21.5868 0.289062Z" fill="#D62E00"/>
<path d="M28.9234 0.289062H25.4997H21.5868L22.1384 21.9646L24.8257 22.4316C26.8077 11.7489 28.9234 0.289062 28.9234 0.289062Z" fill="#D62E00"/>
<path d="M34.3036 3.90164L31.2712 3.04151L28.9234 0.289062C28.9234 0.289062 26.8077 11.7489 24.8257 22.4316L26.9709 24.2009L35.3797 5.79395L34.3036 3.90164Z" fill="#D62E00"/>
<path d="M39.2926 10.9548L36.4557 7.68626L35.3797 5.79395L26.9709 24.2009L28.6209 26.6093L39.2926 10.9548Z" fill="#D62E00"/>
<path d="M43.4989 17.6639L40.8577 14.3953L39.2926 10.9548L28.6209 26.6093L29.9995 28.9465L43.4989 17.6639Z" fill="#D62E00"/>
<path d="M45.1619 27.1254L44.575 24.3729L43.4989 17.6639L29.9995 28.9465L30.4886 32.0038L45.1619 27.1254Z" fill="#D62E00"/>
<path d="M0.359375 27.1254L1.82671 22.8247V17.6639M0.359375 27.1254C0.359375 27.1254 7.42107 29.9066 14.0055 32.4999M0.359375 27.1254L14.0055 32.4999M19.1412 34.5226C19.5614 35.8662 19.4347 35.8988 20.1194 37.103M19.1412 34.5226C19.3251 34.0523 19.612 33.3184 19.612 33.3184M19.1412 34.5226C17.5674 33.9027 15.8042 33.2083 14.0055 32.4999M19.1412 34.5226L14.0055 32.4999M19.1412 34.5226L19.612 33.3184M19.1412 34.5226C19.1412 34.5226 19.612 36.0917 20.1194 37.103M20.2173 31.7701C19.9809 32.3748 19.612 33.3184 19.612 33.3184M20.2173 31.7701C20.7139 31.6011 21.4889 31.3373 21.4889 31.3373M20.2173 31.7701C19.127 30.1811 17.9172 28.4179 16.6763 26.6093M20.2173 31.7701L21.4889 31.3373M20.2173 31.7701L16.6763 26.6093M20.2173 31.7701L19.612 33.3184M23.2497 30.91C22.9059 31.027 22.3693 31.0376 22.3693 31.0376M23.2497 30.91C23.4298 31.144 23.7108 31.3373 23.7108 31.3373M23.2497 30.91C23.7323 28.3202 24.2738 25.4061 24.8257 22.4316M25.4997 33.6624C25.7931 34.6946 25.9888 36.2429 25.4018 37.275M25.4997 33.6624C25.325 33.4354 25.0524 33.0812 25.0524 33.0812M25.4997 33.6624C27.034 33.1523 28.7403 32.585 30.4886 32.0038M25.4997 33.6624L25.0524 33.0812M25.4997 33.6624L30.4886 32.0038M25.4997 33.6624C25.4997 33.6624 25.9888 36.4149 25.4018 37.275M25.4018 37.275C24.1301 38.3072 23.9252 38.2362 22.6628 38.4792C21.8274 38.64 20.902 37.9631 20.1194 37.103M45.1619 27.1254L44.575 24.3729L43.4989 17.6639M45.1619 27.1254C45.1619 27.1254 37.4891 29.6764 30.4886 32.0038M45.1619 27.1254L30.4886 32.0038M43.4989 17.6639L40.8577 14.3953L39.2926 10.9548M43.4989 17.6639L29.9995 28.9465M39.2926 10.9548L36.4557 7.68626L35.3797 5.79395M39.2926 10.9548L28.6209 26.6093M28.9234 0.289062L31.2712 3.04151L34.3036 3.90164L35.3797 5.79395M28.9234 0.289062H25.4997H21.5868M28.9234 0.289062C28.9234 0.289062 26.8077 11.7489 24.8257 22.4316M21.5868 0.289062L19.1412 1.83731H16.3044M21.5868 0.289062L22.1384 21.9646M16.3044 1.83731L13.6632 3.90164H10.7285M16.3044 1.83731L19.9238 22.4316M10.7285 3.90164L8.38079 7.68626L5.93523 10.9548M10.7285 3.90164L18.5551 23.8569M5.93523 10.9548L4.37008 14.3953L1.82671 17.6639M5.93523 10.9548C5.93523 10.9548 11.5692 19.1661 16.6763 26.6093M5.93523 10.9548L16.6763 26.6093M1.82671 17.6639L15.0327 29.2877M19.612 33.3184L15.0327 29.2877M21.4889 31.3373L22.3693 31.0376M21.4889 31.3373L18.5551 23.8569M21.4889 31.3373L19.9238 22.4316M22.3693 31.0376L22.1384 21.9646M35.3797 5.79395L26.9709 24.2009M23.7108 31.3373L24.6052 32.4999M23.7108 31.3373L26.9709 24.2009M24.6052 32.4999L25.0524 33.0812M24.6052 32.4999L28.6209 26.6093M25.0524 33.0812L29.9995 28.9465M14.0055 32.4999L15.0327 29.2877M15.0327 29.2877L16.6763 26.6093M16.6763 26.6093L18.5551 23.8569M18.5551 23.8569L19.9238 22.4316M19.9238 22.4316L22.1384 21.9646M22.1384 21.9646L24.8257 22.4316M24.8257 22.4316L26.9709 24.2009M26.9709 24.2009L28.6209 26.6093M28.6209 26.6093L29.9995 28.9465M29.9995 28.9465L30.4886 32.0038" stroke="#EE941F" stroke-width="0.571013"/>
</svg>
