<svg width="740" height="159" viewBox="0 0 740 159" fill="none" xmlns="http://www.w3.org/2000/svg">
<path d="M44.8955 100.63H54.1367C54.1367 100.63 50.0554 93.793 49.1415 88.8977C48.3657 84.7425 48.1718 81.9771 48.2985 77.752C48.3159 77.1694 48.3312 76.6099 48.346 76.0697C48.4969 70.5419 48.5927 67.0332 50.4214 61.3554C51.7063 57.3663 52.4142 55.2792 54.6674 51.7456C57.662 47.0492 60.0281 44.2609 64.4862 40.9218C66.2452 39.6043 69.2629 37.9462 69.2629 37.9462C69.2629 37.9462 65.5915 36.7864 63.1593 36.6757C58.4554 36.4617 54.8597 37.6879 50.4214 39.2611C45.0298 41.1721 42.6681 42.3741 38.2143 45.9638C33.1252 50.0655 30.8097 53.5337 28.6609 59.7067C26.9049 64.7514 26.4731 67.9943 27.1156 73.2971C27.8238 79.1424 29.6458 82.2662 32.6913 87.3054C36.3411 93.3447 44.8955 100.63 44.8955 100.63Z" fill="#F7630E"/>
<path d="M56.525 99.5689C56.525 99.5689 63.724 98.7053 68.2014 99.5689C72.9366 100.482 79.6124 104.289 79.6124 104.289C79.6124 104.289 87.9195 98.6443 91.8195 93.6744C96.226 88.0589 97.6006 84.0182 99.7806 77.2213C99.8529 76.9959 99.9242 76.7742 99.9943 76.556C99.997 76.5477 99.9996 76.5394 100.002 76.5312C101.674 71.3303 102.724 68.0639 102.7 62.4168C102.683 58.5476 102.611 56.264 101.373 52.5981C100.059 48.707 96.0654 43.519 96.0654 43.519C96.0654 43.519 90.1168 41.7901 86.2467 40.9218C85.4819 40.7503 84.7933 40.5868 84.1459 40.433C81.918 39.904 80.1767 39.4905 77.4894 39.2611C74.5982 39.0142 70.059 39.2611 70.059 39.2611C70.059 39.2611 64.4248 43.9934 61.3017 47.4996C60.8826 47.9702 60.4875 48.4056 60.1119 48.8195C58.1529 50.9784 56.7266 52.5503 55.1981 55.4608C53.6402 58.4273 53.1618 60.3695 52.3891 63.5065C52.3531 63.6525 52.3164 63.8012 52.279 63.9527C50.8393 69.7843 50.8794 73.3618 50.9446 79.1871C50.9455 79.2659 50.9463 79.3452 50.9472 79.4249C50.9489 79.5734 50.9506 79.7235 50.9522 79.875C50.9607 80.6612 50.9548 81.3741 50.9493 82.0453C50.93 84.388 50.9149 86.2229 51.5299 88.8977C52.5608 93.382 56.525 99.5689 56.525 99.5689Z" fill="#F7630E"/>
<path d="M84.1237 105.881L92.3502 110.924C92.3502 110.924 98.8487 109.679 102.7 108.004C109.219 105.169 112.686 102.537 117.295 97.1242C121.492 92.1957 123.859 88.9059 125.256 82.5851C126.335 77.7064 126.247 74.6881 125.256 69.7909C124.025 63.7031 122.406 60.1709 118.357 55.4608C114.987 51.5404 112.28 50.0306 107.773 47.517L107.742 47.4996C104.31 45.5856 98.5007 43.519 98.5007 43.519C98.5007 43.519 102.548 49.536 103.761 53.9251C104.651 57.1464 104.823 62.4168 104.823 62.4168L103.761 70.8524C103.761 70.8524 103.365 75.3022 102.7 78.0738C101.022 85.0589 98.6111 88.6546 94.4732 94.5269C91.0173 99.4314 84.1237 105.881 84.1237 105.881Z" fill="#F7630E"/>
<path d="M47.7262 112.781C48.4808 116.81 60.771 120.268 60.771 120.268C60.771 120.268 67.4701 122.446 71.9166 122.656C72.5367 122.686 73.2003 122.725 73.8857 122.766C78.5078 123.041 84.1237 123.375 84.1237 121.064C84.1237 118.449 80.5163 116.81 77.6179 115.493L77.4894 115.435C74.5703 114.108 70.65 112.961 66.0784 112.25C65.359 112.139 64.5887 112.013 63.786 111.883C56.6839 110.728 47.0482 109.161 47.7262 112.781Z" fill="#D16D05"/>
<path d="M66.0784 28.9236C63.6901 29.6633 63.9554 33.813 65.2823 35.0835C66.6091 36.354 103.761 41.6614 104.823 40.9218C105.884 40.1822 105.884 39.6512 104.823 36.6757C103.761 33.7003 95.0509 31.8991 95.0509 31.8991L91.8195 31.5672L80.5646 30.4113C80.5646 30.4113 68.4667 28.1838 66.0784 28.9236Z" fill="#D16D05"/>
<path d="M39.5881 132.21C42.6689 133.21 47.8146 133.271 47.8146 133.271L49.1415 130.617L47.7262 129.291L51.5299 122.656C51.5299 122.656 46.9499 121.684 44.8955 119.737C44.1609 119.041 43.8754 118.218 43.598 117.418C43.2762 116.49 42.9651 115.593 41.9765 114.961C39.7072 113.508 37.3321 116.435 35.0768 114.961C32.2996 113.145 34.6674 109.575 32.9538 106.734C31.0554 103.586 25.7888 100.63 25.7888 100.63C25.7888 100.63 22.042 101.538 19.9506 100.63C17.8656 99.7255 18.1148 95.6322 15.97 96.3845C14.5596 96.8792 14.3627 98.1661 13.847 99.5689C12.5456 103.11 13.9736 106.056 16.5007 108.857C19.289 111.947 22.4301 112.058 26.5849 112.307C27.5159 112.363 28.0872 112.015 28.9732 112.307C31.7454 113.219 28.1771 119.737 28.1771 119.737C28.1771 119.737 29.1643 124.721 31.0962 127.168C33.4862 130.195 35.92 131.018 39.5881 132.21Z" fill="#813202"/>
<path d="M27.1156 86.5657C27.1156 88.5565 25.8672 90.0827 23.9312 90.5463C21.9029 91.0319 21.2064 87.7849 19.1545 88.1579C17.625 88.436 16.4481 89.0671 15.97 90.5463C15.715 91.3352 15.3117 92.1653 15.97 92.6693C16.673 93.2075 17.2277 92.0609 18.093 91.8732C21.1997 91.199 24.2153 91.7645 25.7888 94.5269C26.9685 96.598 25.7888 100.63 25.7888 100.63C25.7888 100.63 31.0554 103.586 32.9538 106.734C34.6674 109.575 32.2996 113.145 35.0768 114.961C37.3321 116.435 39.7072 113.508 41.9765 114.961V103.758L27.1156 86.5657Z" fill="#813202"/>
<path d="M22.8697 118.676L28.1771 119.737C28.1771 119.737 31.7454 113.219 28.9732 112.307C28.0872 112.015 27.5159 112.363 26.5849 112.307C22.4301 112.058 19.289 111.947 16.5007 108.857C13.9736 106.056 12.5456 103.11 13.847 99.5689C14.3627 98.1661 14.5596 96.8792 15.97 96.3845C18.1148 95.6322 17.8656 99.7255 19.9506 100.63C22.042 101.538 25.7888 100.63 25.7888 100.63C25.7888 100.63 26.9685 96.598 25.7888 94.5269C24.2153 91.7645 21.1997 91.199 18.093 91.8732C17.2277 92.0609 16.673 93.2075 15.97 92.6693C15.3117 92.1653 15.715 91.3352 15.97 90.5463C16.4481 89.0671 17.625 88.436 19.1545 88.1579C21.2064 87.7849 21.9029 91.0319 23.9312 90.5463C25.8672 90.0827 27.1156 88.5565 27.1156 86.5657C27.1156 84.575 23.9312 82.5851 23.9312 82.5851C23.9312 82.5851 20.0152 82.3044 17.5622 81.789C15.6675 81.3909 12.7855 80.4621 12.7855 80.4621C12.7855 80.4621 10.1133 79.9397 8.53958 80.4621C5.3454 81.5227 5.55663 84.7645 5.78105 88.2088C5.85497 89.3434 5.93033 90.5 5.88586 91.6078C5.66982 96.9894 8.53958 105.142 8.53958 105.142L13.847 113.368L22.8697 118.676Z" fill="#813202"/>
<path d="M14.6431 78.8699C17.9161 81.0028 23.9312 82.5851 23.9312 82.5851L22.0764 71.705C22.0764 71.705 18.9267 68.0623 17.5622 65.3361C16.8129 63.8388 15.7018 62.1514 15.97 61.3554C16.2382 60.5594 19.1545 61.3554 19.1545 61.3554C19.1545 61.3554 21.1566 59.5095 22.4852 59.2485C21.3611 59.4366 20.2254 59.173 19.1545 58.4364C17.2073 57.0971 17.5168 54.9609 17.5622 52.5981C17.6229 49.4417 18.9897 47.7907 20.7467 45.1678C21.9733 43.3366 22.3446 41.4526 24.4647 40.9218C26.5849 40.3911 32.6913 44.637 32.6913 44.637C32.6913 44.637 40.5455 38.9869 46.2253 36.6757C50.9988 34.7333 58.9631 33.226 58.9631 33.226L60.0218 30.3068C59.1631 30.8232 57.2411 30.6697 55.0915 30.4981C53.9268 30.4051 52.6953 30.3068 51.5299 30.3068C50.583 30.3068 49.7815 30.284 49.0235 30.2624C47.6245 30.2225 46.3736 30.1869 44.6302 30.3068C40.8568 30.5664 38.673 30.7272 35.0768 31.8991C32.2552 32.8185 28.1771 35.0835 28.1771 35.0835C28.1771 35.0835 32.9567 38.0026 32.9538 39.2611C32.9509 40.5195 25.7888 36.6757 25.7888 36.6757C25.7888 36.6757 20.4468 37.9769 17.5622 39.8602C12.5737 43.1172 10.9993 46.8174 8.70093 52.219C8.64755 52.3444 8.59379 52.4708 8.53958 52.5981C8.47993 52.7382 8.42109 52.8761 8.3631 53.012C6.90803 56.4233 5.98032 58.5982 5.88586 62.4168C5.7777 66.7891 6.13935 69.641 8.53958 73.2971C10.3109 75.9953 11.9389 77.1078 14.6431 78.8699Z" fill="#813202"/>
<path d="M17.5622 65.3361C18.9267 68.0623 22.0764 71.705 22.0764 71.705C22.0764 71.705 23.8842 59.0303 22.5574 59.2358C22.5336 59.2395 22.5095 59.2437 22.4852 59.2485C21.1566 59.5095 19.1545 61.3554 19.1545 61.3554C19.1545 61.3554 16.2382 60.5594 15.97 61.3554C15.7018 62.1514 16.8129 63.8388 17.5622 65.3361Z" fill="#813202"/>
<path d="M24.4647 58.4364C26.0868 57.3601 27.4437 55.672 26.5849 53.9251C26.1731 53.0875 24.8064 53.1853 23.6681 53.2668C22.568 53.3455 21.6814 53.409 22.0764 52.5981C22.3007 52.1376 22.8331 52.0579 23.339 51.9821C23.8869 51.9001 24.4038 51.8227 24.4647 51.2713C24.5217 50.7563 24.1364 50.5206 23.7238 50.2682C23.3751 50.0549 23.0069 49.8297 22.8697 49.4137C22.4099 48.0203 24.4259 48.5436 26.292 49.028C27.4573 49.3304 28.5641 49.6177 28.9732 49.4137C30.0376 48.883 32.6913 44.637 32.6913 44.637C32.6913 44.637 26.5849 40.3911 24.4647 40.9218C22.3446 41.4526 21.9733 43.3366 20.7467 45.1678C18.9897 47.7907 17.6229 49.4417 17.5622 52.5981C17.5168 54.9609 17.2073 57.0971 19.1545 58.4364C20.2254 59.173 21.3611 59.4366 22.4852 59.2485C22.5095 59.2437 22.5336 59.2395 22.5574 59.2358C23.2024 59.1167 23.843 58.8489 24.4647 58.4364Z" fill="#813202"/>
<path d="M686.034 121.064H89.478L98.5007 130.352H131.407H184.481H244.721H291.957H371.303H464.979H549.633C549.633 130.352 661.358 129.556 666.928 130.352C669.589 130.732 671.55 131.485 673.469 132.221C675.566 133.026 677.611 133.81 680.462 134.067C685.22 134.496 688.108 134.692 692.669 133.271C696.637 132.035 698.657 128.03 700.531 124.314C702.721 119.97 704.713 116.02 709.387 117.349C710.716 117.726 711.563 118.466 712.407 119.204C713.269 119.956 714.128 120.705 715.491 121.064C723.052 123.054 726.827 114.927 730.194 107.679C730.329 107.389 730.462 107.101 730.596 106.815C730.692 106.61 730.787 106.406 730.882 106.203C732.487 102.789 733.294 100.68 733.536 96.9152C733.849 92.0468 733.922 88.5239 730.882 84.7081C728.787 82.0778 723.717 79.9314 723.717 79.9314C723.717 79.9314 725.047 103.815 723.717 104.876C723.275 105.229 721.837 106.168 720.114 107.265C720.096 107.276 720.078 107.288 720.06 107.299C719.962 107.362 719.863 107.425 719.763 107.488L719.749 107.497L719.438 107.694C716.083 109.819 712.041 112.307 712.041 112.307H697.445L686.034 121.064Z" fill="#E48F19"/>
<path fill-rule="evenodd" clip-rule="evenodd" d="M37.6556 134.542C38.9645 135.262 40.1527 135.915 41.9765 136.19C43.7185 136.453 46.4878 136.19 46.4878 136.19C46.4878 136.19 44.8613 140.144 44.6302 142.825C44.5609 143.628 44.5815 144.206 44.6045 144.852C44.617 145.202 44.6302 145.572 44.6302 146.009C44.6302 146.446 44.5869 146.822 44.5459 147.177C44.4703 147.833 44.4027 148.42 44.6302 149.194C45.1292 150.891 46.3232 151.556 47.7201 152.333C48.1779 152.588 48.6574 152.855 49.1415 153.174C51.5042 154.733 52.978 155.663 55.7758 156.093C56.6345 156.225 57.3066 156.169 57.9889 156.111C58.6088 156.059 59.2372 156.006 60.0218 156.093C61.1714 156.221 62.0497 156.652 62.8995 157.069C63.953 157.587 64.9626 158.082 66.3907 157.951C69.7395 157.643 71.4417 155.789 73.5557 153.174C76.5737 149.44 76.4748 141.232 76.4748 141.232H89.478H97.1269H100.311H653.659H668.52C671.128 141.232 673.003 140.281 674.958 139.288C676.582 138.464 678.261 137.611 680.462 137.252C682.755 136.877 684.634 137.126 686.477 137.37C688.579 137.648 690.634 137.919 693.199 137.252C695.732 136.593 697.369 135.55 699.139 134.423C700.284 133.693 701.484 132.928 703.018 132.21C705.335 131.125 707.331 130.473 709.256 129.844C711.878 128.988 714.367 128.175 717.348 126.372C725.94 121.173 731.165 117.022 735.128 107.795C738.142 100.779 739.009 95.96 737.782 88.4233C737.373 85.909 736.508 84.1229 735.629 82.3074C734.834 80.665 734.028 78.9985 733.536 76.7469C732.533 72.1569 733.604 68.3088 734.652 64.5451C735.827 60.3235 736.972 56.2082 735.128 51.2712C732.303 43.7052 728.198 40.4203 721.901 35.3821L721.86 35.3489C715.996 30.6565 711.936 28.8891 704.876 26.3262C698.874 24.1474 695.327 22.9947 688.954 22.611C683.926 22.3083 679.155 23.6277 675 24.7769C672.044 25.5946 669.398 26.3262 667.193 26.3262C661.888 26.3262 97.9728 25.5308 97.1738 24.4686C96.7569 23.9144 96.4487 23.306 96.1179 22.653C95.8149 22.0548 95.4928 21.4191 95.0509 20.7534C94.5545 20.0058 94.1579 19.2303 93.7779 18.4874C92.7587 16.4944 91.8597 14.7367 89.478 14.3845C87.9015 14.1514 86.8533 14.6774 85.6113 15.3006C85.1669 15.5237 84.6977 15.7591 84.1706 15.9767C82.5395 16.6501 81.4351 17.5065 80.3314 18.3623C79.2228 19.222 78.115 20.0811 76.4748 20.7534C73.7586 21.8668 70.4168 21.9156 67.6945 21.9553C65.4694 21.9878 63.6583 22.0143 62.9408 22.611C61.3457 23.9379 60.0218 26.5916 60.0218 26.5916C60.0218 26.5916 43.4984 23.9227 33.4845 26.5916C28.2773 27.9795 25.367 29.1253 20.7467 31.8991C13.8958 36.0118 9.69615 38.9401 5.88586 45.9638C2.97315 51.3329 1.37746 61.3554 1.37746 61.3554C1.37746 61.3554 -0.230383 69.0351 1.90528 73.2971C2.39204 74.2685 3.1495 74.8493 3.87852 75.4083C4.77873 76.0986 5.63558 76.7557 5.88586 78.0738C6.23232 79.8985 5.17962 80.9964 4.03574 82.1893C3.20824 83.0524 2.33302 83.9651 1.90528 85.2388C0.123714 90.5439 0.790564 94.0848 1.90528 99.5689C2.78714 103.907 3.70824 106.329 5.88586 110.184C6.01589 110.414 6.14377 110.641 6.26991 110.865C8.98125 115.678 10.8851 119.058 15.97 121.595C17.5278 122.372 19.1061 122.316 20.6154 122.262C22.5072 122.195 24.2905 122.131 25.7888 123.718C26.765 124.751 26.8702 125.959 26.9753 127.164C27.081 128.376 27.1865 129.587 28.1771 130.617C29.4526 131.945 30.8182 132.219 32.3344 132.524C33.1962 132.697 34.1066 132.88 35.0768 133.271C36.0795 133.676 36.8883 134.121 37.6556 134.542ZM96.1124 28.1838H671.127C671.127 28.1838 679.326 26.3786 684.661 26.3262C690.406 26.2699 693.825 26.3076 699.256 28.1838C704.481 29.9889 711.463 35.3489 711.463 35.3489L721.786 40.882C721.801 40.8888 721.815 40.8957 721.828 40.9026C721.84 40.909 721.85 40.9153 721.86 40.9217C722.611 41.2881 723.02 41.5223 723.717 41.9832C728.033 44.8376 729.232 48.2248 730.882 53.1288C732.248 57.1856 732.406 59.7331 732.209 64.0091C732.168 64.8917 732.167 65.7318 732.165 66.5373V66.5383V66.5393C732.157 69.6984 732.151 72.324 729.821 74.8893C727.98 76.9159 723.717 78.3392 723.717 78.3392V79.9314C723.717 79.9314 728.787 82.0778 730.882 84.7081C733.922 88.5239 733.849 92.0468 733.536 96.9152C733.294 100.68 732.487 102.789 730.882 106.203C730.787 106.406 730.692 106.61 730.596 106.815C730.462 107.101 730.329 107.389 730.194 107.679C726.827 114.927 723.052 123.054 715.491 121.064C714.128 120.705 713.269 119.956 712.407 119.204C711.563 118.466 710.716 117.726 709.387 117.349C704.713 116.02 702.721 119.97 700.531 124.314C698.657 128.03 696.637 132.035 692.669 133.271C688.108 134.692 685.22 134.496 680.462 134.067C677.611 133.81 675.566 133.026 673.469 132.221C671.55 131.485 669.589 130.732 666.928 130.352C661.358 129.556 549.633 130.352 549.633 130.352H464.979H371.303H291.957H244.721H184.481H131.407H98.5007L86.0282 129.821L81.5169 124.486L89.478 121.064C89.478 121.064 88.9004 118.032 91.8195 116.496C92.5317 116.122 93.946 115.641 95.7912 115.014C101.509 113.071 111.365 109.721 117.295 103.758C124.91 96.1016 129.03 89.8526 129.768 79.0789C130.312 71.1278 127.91 62.3605 125.256 59.176C124.266 57.9875 122.167 56.0227 119.827 53.8335C115.899 50.1571 111.294 45.8477 110.13 43.519C108.273 39.8038 109.072 36.6757 109.072 36.6757C109.072 36.6757 110.13 34.553 108.538 33.226C106.946 31.8991 95.938 28.7942 95.938 28.7942L96.1124 28.1838ZM95.0509 31.8991C95.0509 31.8991 103.761 33.7003 104.823 36.6757C105.884 39.6512 105.884 40.1822 104.823 40.9218C103.761 41.6614 66.6091 36.354 65.2823 35.0835C63.9554 33.813 63.6901 29.6633 66.0784 28.9236C68.4667 28.1838 80.5646 30.4113 80.5646 30.4113C80.5646 30.4113 80.2992 26.3239 81.47 24.1469C83.0222 21.2606 85.1663 18.6784 88.3696 19.3702C90.9684 19.9314 92.0945 21.929 92.881 24.4686C93.7101 27.1462 91.8195 31.5672 91.8195 31.5672L95.0509 31.8991ZM60.0218 30.3068L58.9631 33.226C58.9631 33.226 50.9988 34.7333 46.2253 36.6757C40.5455 38.9869 32.6913 44.637 32.6913 44.637C32.6913 44.637 30.0376 48.883 28.9732 49.4137C28.5641 49.6177 27.4573 49.3304 26.292 49.028C24.4259 48.5436 22.4099 48.0203 22.8697 49.4137C23.0069 49.8297 23.3751 50.0549 23.7238 50.2682C24.1364 50.5206 24.5217 50.7563 24.4647 51.2713C24.4038 51.8227 23.8869 51.9001 23.339 51.9821C22.8331 52.0579 22.3007 52.1376 22.0764 52.5981C21.6814 53.409 22.568 53.3455 23.6681 53.2668C24.8064 53.1853 26.1731 53.0875 26.5849 53.9251C27.4437 55.672 26.0868 57.3601 24.4647 58.4364C23.843 58.8489 23.2024 59.1167 22.5574 59.2358C23.8842 59.0303 22.0764 71.705 22.0764 71.705L23.9312 82.5851C23.9312 82.5851 17.9161 81.0028 14.6431 78.8699C11.9389 77.1078 10.3109 75.9953 8.53958 73.2971C6.13935 69.641 5.7777 66.7891 5.88586 62.4168C5.98032 58.5982 6.90803 56.4233 8.3631 53.012C8.42109 52.8761 8.47993 52.7382 8.53958 52.5981L8.70093 52.219C10.9993 46.8174 12.5737 43.1172 17.5622 39.8602C20.4468 37.9769 25.7888 36.6757 25.7888 36.6757C25.7888 36.6757 32.9509 40.5195 32.9538 39.2611C32.9567 38.0026 28.1771 35.0835 28.1771 35.0835C28.1771 35.0835 32.2552 32.8185 35.0768 31.8991C38.673 30.7272 40.8568 30.5664 44.6302 30.3068C46.3736 30.1869 47.6245 30.2225 49.0235 30.2624C49.7815 30.284 50.583 30.3068 51.5299 30.3068C52.6953 30.3068 53.9268 30.4051 55.0915 30.4981C57.2411 30.6697 59.1631 30.8232 60.0218 30.3068ZM17.5622 81.789C20.0152 82.3044 23.9312 82.5851 23.9312 82.5851C23.9312 82.5851 27.1156 84.575 27.1156 86.5657L41.9765 103.758V114.961C42.9651 115.593 43.2762 116.49 43.598 117.418C43.8754 118.218 44.1609 119.041 44.8955 119.737C46.9499 121.684 51.5299 122.656 51.5299 122.656L47.7262 129.291L49.1415 130.617L47.8146 133.271C47.8146 133.271 42.6689 133.21 39.5881 132.21C35.92 131.018 33.4862 130.195 31.0962 127.168C29.1643 124.721 28.1771 119.737 28.1771 119.737L22.8697 118.676L13.847 113.368L8.53958 105.142C8.53958 105.142 5.66982 96.9894 5.88586 91.6078C5.93033 90.5 5.85497 89.3434 5.78105 88.2088C5.55663 84.7645 5.3454 81.5227 8.53958 80.4621C10.1133 79.9397 12.7855 80.4621 12.7855 80.4621C12.7855 80.4621 15.6675 81.3909 17.5622 81.789ZM46.9716 103.758L44.8955 108.801C44.8955 108.801 56.0816 108.426 63.1593 109.331C63.8388 109.418 64.4742 109.495 65.0784 109.568C68.3829 109.968 70.756 110.256 74.3049 111.454C79.3124 113.146 86.2467 117.823 86.2467 117.823L88.3696 113.312C88.3696 113.312 85.0967 110.696 82.7968 109.331C77.9467 106.452 74.7595 105.554 69.2629 104.289C60.7768 102.337 46.9716 103.758 46.9716 103.758ZM60.771 120.268C60.771 120.268 48.4808 116.81 47.7262 112.781C47.0482 109.161 56.6839 110.728 63.786 111.883C64.5887 112.013 65.359 112.139 66.0784 112.25C70.65 112.961 74.5703 114.108 77.4894 115.435L77.6179 115.493C80.5163 116.81 84.1237 118.449 84.1237 121.064C84.1237 123.375 78.5078 123.041 73.8857 122.766C73.2003 122.725 72.5367 122.686 71.9166 122.656C67.4701 122.446 60.771 120.268 60.771 120.268ZM51.5299 135.603C52.2977 133.778 52.8693 131.33 53.3846 129.123C54.1522 125.836 54.7951 123.083 55.7758 123.718C56.527 124.204 57.0184 124.682 57.4869 125.137C58.0407 125.675 58.5626 126.182 59.4441 126.637C60.1228 126.987 60.9775 127.069 61.7435 127.142C62.7137 127.235 63.5418 127.314 63.69 127.907C63.9554 128.969 59.4441 145.422 59.4441 145.422C59.4441 145.422 58.1172 151.26 57.3211 152.056C56.525 152.852 53.6059 152.056 53.0752 151.26C52.5444 150.464 53.0752 147.545 53.0752 147.545L58.9134 127.907L52.279 146.009C52.279 146.009 49.8907 149.668 49.1415 149.194C48.3923 148.719 47.8146 145.157 47.8146 143.564C47.8146 142.623 48.6489 141.116 49.6058 139.388C50.2668 138.194 50.9863 136.895 51.5299 135.603ZM61.3017 149.194C61.0363 147.28 64.7515 128.703 66.0784 127.907C67.4053 127.111 73.5557 127.907 73.5557 127.907C73.5557 127.907 73.2434 146.749 72.4473 147.545C71.6512 148.341 69.2629 150.199 67.6706 150.729C66.5625 151.099 67.7681 143.627 68.6036 139.05C68.0802 141.586 67.2888 145.019 66.3907 147.545C65.4856 150.09 63.69 153.914 63.69 153.914C63.69 153.914 61.5671 151.108 61.3017 149.194ZM54.1367 100.63H44.8955C44.8955 100.63 36.3411 93.3447 32.6913 87.3054C29.6458 82.2662 27.8238 79.1424 27.1156 73.2971C26.4731 67.9943 26.9049 64.7514 28.6609 59.7067C30.8097 53.5337 33.1252 50.0655 38.2143 45.9638C42.6681 42.3741 45.0298 41.1721 50.4214 39.2611C54.8597 37.6879 58.4554 36.4617 63.1593 36.6757C65.5915 36.7864 69.2629 37.9462 69.2629 37.9462C69.2629 37.9462 66.2452 39.6043 64.4862 40.9218C60.0281 44.2609 57.662 47.0492 54.6674 51.7456C52.4142 55.2792 51.7063 57.3663 50.4214 61.3554C48.5927 67.0332 48.4969 70.5419 48.346 76.0697C48.3312 76.6099 48.3159 77.1694 48.2985 77.752C48.1718 81.9771 48.3657 84.7425 49.1415 88.8977C50.0554 93.793 54.1367 100.63 54.1367 100.63ZM68.2014 99.5689C63.724 98.7053 56.525 99.5689 56.525 99.5689C56.525 99.5689 52.5608 93.382 51.5299 88.8977C50.9149 86.2229 50.93 84.388 50.9493 82.0453C50.9548 81.3741 50.9607 80.6612 50.9522 79.875C50.9506 79.7235 50.9489 79.5734 50.9472 79.4249L50.9446 79.1871C50.8794 73.3618 50.8393 69.7843 52.279 63.9527C52.3164 63.8012 52.3531 63.6525 52.3891 63.5065C53.1618 60.3695 53.6402 58.4273 55.1981 55.4608C56.7266 52.5503 58.1529 50.9784 60.1119 48.8195C60.4875 48.4056 60.8826 47.9702 61.3017 47.4996C64.4248 43.9934 70.059 39.2611 70.059 39.2611C70.059 39.2611 74.5982 39.0142 77.4894 39.2611C80.1767 39.4905 81.918 39.904 84.1459 40.433C84.7933 40.5868 85.4819 40.7503 86.2467 40.9218C90.1168 41.7901 96.0654 43.519 96.0654 43.519C96.0654 43.519 100.059 48.707 101.373 52.5981C102.611 56.264 102.683 58.5476 102.7 62.4168C102.724 68.0639 101.674 71.3303 100.002 76.5312L99.9943 76.556C99.9242 76.7742 99.8529 76.9959 99.7806 77.2213C97.6006 84.0182 96.226 88.0589 91.8195 93.6744C87.9195 98.6443 79.6124 104.289 79.6124 104.289C79.6124 104.289 72.9366 100.482 68.2014 99.5689ZM92.3502 110.924L84.1237 105.881C84.1237 105.881 91.0173 99.4314 94.4732 94.5269C98.6111 88.6546 101.022 85.0589 102.7 78.0738C103.365 75.3022 103.761 70.8524 103.761 70.8524L104.823 62.4168C104.823 62.4168 104.651 57.1464 103.761 53.9251C102.548 49.536 98.5007 43.519 98.5007 43.519C98.5007 43.519 104.31 45.5856 107.742 47.4996L107.773 47.517C112.28 50.0306 114.987 51.5404 118.357 55.4608C122.406 60.1709 124.025 63.7031 125.256 69.7909C126.247 74.6881 126.335 77.7064 125.256 82.5851C123.859 88.9059 121.492 92.1957 117.295 97.1242C112.686 102.537 109.219 105.169 102.7 108.004C98.8487 109.679 92.3502 110.924 92.3502 110.924Z" fill="#3B1103"/>
<path d="M89.478 121.064L81.5169 124.486L86.0282 129.821L98.5007 130.352L89.478 121.064Z" fill="#E48F19"/>
<path d="M95.938 28.7942C95.938 28.7942 106.946 31.8991 108.538 33.226C110.13 34.553 109.072 36.6757 109.072 36.6757L711.463 35.3489C711.463 35.3489 704.481 29.9889 699.256 28.1838C693.825 26.3076 690.406 26.2699 684.661 26.3262C679.326 26.3786 671.127 28.1838 671.127 28.1838H96.1124L95.938 28.7942Z" fill="#E48F19"/>
<path d="M721.86 40.9217L723.717 76.7469V78.3392C723.717 78.3392 727.98 76.9159 729.821 74.8893C732.151 72.324 732.157 69.6984 732.165 66.5393V66.5383V66.5373C732.167 65.7318 732.168 64.8917 732.209 64.0091C732.406 59.7331 732.248 57.1856 730.882 53.1288C729.232 48.2248 728.033 44.8376 723.717 41.9832C723.02 41.5223 722.611 41.2881 721.86 40.9217Z" fill="#E48F19"/>
<path d="M44.8955 108.801L46.9716 103.758C46.9716 103.758 60.7768 102.337 69.2629 104.289C74.7595 105.554 77.9467 106.452 82.7968 109.331C85.0967 110.696 88.3696 113.312 88.3696 113.312L86.2467 117.823C86.2467 117.823 79.3124 113.146 74.3049 111.454C70.756 110.256 68.3829 109.968 65.0784 109.568C64.4742 109.495 63.8388 109.418 63.1593 109.331C56.0816 108.426 44.8955 108.801 44.8955 108.801Z" fill="#F9B715"/>
<path d="M66.0784 127.907C64.7515 128.703 61.0363 147.28 61.3017 149.194C61.5671 151.108 63.69 153.914 63.69 153.914C63.69 153.914 65.4856 150.09 66.3907 147.545C67.2888 145.019 68.0802 141.586 68.6036 139.05C68.9685 137.05 69.2629 135.603 69.2629 135.603C69.2629 135.603 69.0167 137.047 68.6036 139.05C67.7681 143.627 66.5625 151.099 67.6706 150.729C69.2629 150.199 71.6512 148.341 72.4473 147.545C73.2434 146.749 73.5557 127.907 73.5557 127.907C73.5557 127.907 67.4053 127.111 66.0784 127.907Z" fill="#F9B715"/>
<path d="M47.8146 143.564C47.8146 145.157 48.3923 148.719 49.1415 149.194C49.8907 149.668 52.279 146.009 52.279 146.009L58.9134 127.907L53.0752 147.545C53.0752 147.545 52.5444 150.464 53.0752 151.26C53.6059 152.056 56.525 152.852 57.3211 152.056C58.1172 151.26 59.4441 145.422 59.4441 145.422C59.4441 145.422 63.9554 128.969 63.69 127.907C63.5418 127.314 62.7137 127.235 61.7435 127.142C60.9775 127.069 60.1228 126.987 59.4441 126.637C58.5626 126.182 58.0407 125.675 57.4869 125.137C57.0184 124.682 56.527 124.204 55.7758 123.718C54.7951 123.083 54.1522 125.836 53.3846 129.123C52.8693 131.33 52.2977 133.778 51.5299 135.603C50.9863 136.895 50.2668 138.194 49.6058 139.388C48.6489 141.116 47.8146 142.623 47.8146 143.564Z" fill="#F9B715"/>
<path d="M81.47 24.1469C80.2992 26.3239 80.5646 30.4113 80.5646 30.4113L91.8195 31.5672C91.8195 31.5672 93.7101 27.1462 92.881 24.4686C92.0945 21.929 90.9684 19.9314 88.3696 19.3702C85.1663 18.6784 83.0222 21.2606 81.47 24.1469Z" fill="#F9B715"/>
<path d="M89.478 121.064H686.034L697.445 112.307H712.041C712.041 112.307 716.083 109.819 719.438 107.694L719.749 107.497L719.763 107.488L720.06 107.299L720.114 107.265C721.837 106.168 723.275 105.229 723.717 104.876C725.047 103.815 723.717 79.9314 723.717 79.9314V78.3392V76.7469L721.86 40.9217L721.786 40.882L711.463 35.3489L109.072 36.6757C109.072 36.6757 108.273 39.8038 110.13 43.519C111.294 45.8477 115.899 50.1571 119.827 53.8335C122.167 56.0227 124.266 57.9875 125.256 59.176C127.91 62.3605 130.312 71.1278 129.768 79.0789C129.03 89.8526 124.91 96.1016 117.295 103.758C111.365 109.721 101.509 113.071 95.7912 115.014C93.946 115.641 92.5317 116.122 91.8195 116.496C88.9004 118.032 89.478 121.064 89.478 121.064Z" fill="#862B01"/>
<path d="M60.0218 26.5916C60.0218 26.5916 43.4984 23.9227 33.4845 26.5916C28.2773 27.9795 25.367 29.1253 20.7467 31.8991C13.8958 36.0118 9.69615 38.9401 5.88586 45.9638C2.97315 51.3329 1.37746 61.3554 1.37746 61.3554C1.37746 61.3554 -0.230383 69.0351 1.90528 73.2971C2.39204 74.2685 3.1495 74.8493 3.87852 75.4083C4.77873 76.0986 5.63558 76.7557 5.88586 78.0738C6.23232 79.8985 5.17962 80.9964 4.03574 82.1893C3.20824 83.0524 2.33302 83.9651 1.90528 85.2388C0.123714 90.5439 0.790564 94.0848 1.90528 99.5689C2.78714 103.907 3.70824 106.329 5.88586 110.184C6.01589 110.414 6.14377 110.641 6.26991 110.865C8.98125 115.678 10.8851 119.058 15.97 121.595C17.5278 122.372 19.1061 122.316 20.6154 122.262C22.5072 122.195 24.2905 122.131 25.7888 123.718C26.765 124.751 26.8702 125.959 26.9753 127.164C27.081 128.376 27.1865 129.587 28.1771 130.617C29.4526 131.945 30.8182 132.219 32.3344 132.524C33.1962 132.697 34.1066 132.88 35.0768 133.271C36.0795 133.676 36.8883 134.121 37.6556 134.542C38.9645 135.262 40.1527 135.915 41.9765 136.19C43.7185 136.453 46.4878 136.19 46.4878 136.19C46.4878 136.19 44.8613 140.144 44.6302 142.825C44.5609 143.628 44.5815 144.206 44.6045 144.852C44.617 145.202 44.6302 145.572 44.6302 146.009C44.6302 146.446 44.5869 146.822 44.5459 147.177C44.4703 147.833 44.4027 148.42 44.6302 149.194C45.1292 150.891 46.3232 151.556 47.7201 152.333C48.1779 152.588 48.6574 152.855 49.1415 153.174C51.5042 154.733 52.978 155.663 55.7758 156.093C56.6345 156.225 57.3066 156.169 57.9889 156.111C58.6088 156.059 59.2372 156.006 60.0218 156.093C61.1714 156.221 62.0497 156.652 62.8995 157.069C63.953 157.587 64.9626 158.082 66.3907 157.951C69.7395 157.643 71.4417 155.789 73.5557 153.174C76.5737 149.44 76.4748 141.232 76.4748 141.232H89.478H97.1269H100.311H653.659M60.0218 26.5916C60.0218 26.5916 61.3457 23.9379 62.9408 22.611C63.6583 22.0143 65.4694 21.9878 67.6945 21.9553C70.4168 21.9156 73.7586 21.8668 76.4748 20.7534C78.115 20.0811 79.2228 19.222 80.3314 18.3623C81.4351 17.5065 82.5395 16.6501 84.1706 15.9767C84.6977 15.7591 85.1669 15.5237 85.6113 15.3006C86.8533 14.6774 87.9015 14.1514 89.478 14.3845C91.8597 14.7367 92.7587 16.4944 93.7779 18.4874C94.1579 19.2303 94.5545 20.0058 95.0509 20.7534C95.4928 21.4191 95.8149 22.0548 96.1179 22.653C96.4487 23.306 96.7569 23.9144 97.1738 24.4686M60.0218 26.5916C60.0218 26.5916 61.3457 29.5107 60.0218 30.3068M97.1738 24.4686C97.9728 25.5308 661.888 26.3262 667.193 26.3262C669.398 26.3262 672.044 25.5946 675 24.7769C679.155 23.6277 683.926 22.3083 688.954 22.611C695.327 22.9947 698.874 24.1474 704.876 26.3262C711.936 28.8891 715.996 30.6565 721.86 35.3489M97.1738 24.4686L96.1124 28.1838M721.86 35.3489L721.901 35.3821M721.86 35.3489C721.874 35.36 721.887 35.371 721.901 35.3821M668.52 141.232C663.746 141.232 653.659 141.232 653.659 141.232M668.52 141.232H653.659M668.52 141.232C671.128 141.232 673.003 140.281 674.958 139.288C676.582 138.464 678.261 137.611 680.462 137.252C682.755 136.877 684.634 137.126 686.477 137.37C688.579 137.648 690.634 137.919 693.199 137.252C695.732 136.593 697.369 135.55 699.139 134.423C700.284 133.693 701.484 132.928 703.018 132.21C705.335 131.125 707.331 130.473 709.256 129.844C711.878 128.988 714.367 128.175 717.348 126.372C725.94 121.173 731.165 117.022 735.128 107.795C738.142 100.779 739.009 95.96 737.782 88.4233C737.373 85.909 736.508 84.1229 735.629 82.3074C734.834 80.665 734.028 78.9985 733.536 76.7469C732.533 72.1569 733.604 68.3088 734.652 64.5451C735.827 60.3235 736.972 56.2082 735.128 51.2712C732.303 43.7052 728.198 40.4203 721.901 35.3821M89.478 121.064H686.034L697.445 112.307H712.041C712.041 112.307 716.083 109.819 719.438 107.694M89.478 121.064C89.478 121.064 88.9004 118.032 91.8195 116.496C92.5317 116.122 93.946 115.641 95.7912 115.014C101.509 113.071 111.365 109.721 117.295 103.758C124.91 96.1016 129.03 89.8526 129.768 79.0789C130.312 71.1278 127.91 62.3605 125.256 59.176C124.266 57.9875 122.167 56.0227 119.827 53.8335C115.899 50.1571 111.294 45.8477 110.13 43.519C108.273 39.8038 109.072 36.6757 109.072 36.6757M89.478 121.064L81.5169 124.486M89.478 121.064L98.5007 130.352M723.717 104.876C725.047 103.815 723.717 79.9314 723.717 79.9314M723.717 104.876C723.275 105.229 721.837 106.168 720.114 107.265M723.717 104.876C723.271 105.233 721.807 106.188 720.06 107.299M723.717 76.7469C723.717 76.7469 722.585 54.9123 721.86 40.9217M723.717 76.7469V78.3392M723.717 76.7469L721.86 40.9217M721.86 40.9217C722.611 41.2881 723.02 41.5223 723.717 41.9832C728.033 44.8376 729.232 48.2248 730.882 53.1288C732.248 57.1856 732.406 59.7331 732.209 64.0091C732.168 64.8917 732.167 65.7318 732.165 66.5373V66.5383V66.5393C732.157 69.6984 732.151 72.324 729.821 74.8893C727.98 76.9159 723.717 78.3392 723.717 78.3392M721.86 40.9217L721.786 40.882M721.86 40.9217C721.85 40.9153 721.84 40.909 721.828 40.9026C721.815 40.8957 721.801 40.8888 721.786 40.882M720.114 107.265C720.096 107.276 720.078 107.288 720.06 107.299M720.114 107.265L720.06 107.299M73.5557 129.291L86.0282 129.821M98.5007 130.352H131.407H184.481H244.721H291.957H371.303H464.979H549.633C549.633 130.352 661.358 129.556 666.928 130.352C669.589 130.732 671.55 131.485 673.469 132.221C675.566 133.026 677.611 133.81 680.462 134.067C685.22 134.496 688.108 134.692 692.669 133.271C696.637 132.035 698.657 128.03 700.531 124.314C702.721 119.97 704.713 116.02 709.387 117.349C710.716 117.726 711.563 118.466 712.407 119.204C713.269 119.956 714.128 120.705 715.491 121.064C723.052 123.054 726.827 114.927 730.194 107.679C730.329 107.389 730.462 107.101 730.596 106.815C730.692 106.61 730.787 106.406 730.882 106.203C732.487 102.789 733.294 100.68 733.536 96.9152C733.849 92.0468 733.922 88.5239 730.882 84.7081C728.787 82.0778 723.717 79.9314 723.717 79.9314M98.5007 130.352L86.0282 129.821M723.717 79.9314V78.3392M28.1771 119.737C28.1771 119.737 29.1643 124.721 31.0962 127.168C33.4862 130.195 35.92 131.018 39.5881 132.21C42.6689 133.21 47.8146 133.271 47.8146 133.271L49.1415 130.617L47.7262 129.291M28.1771 119.737L22.8697 118.676L13.847 113.368L8.53958 105.142C8.53958 105.142 5.66982 96.9894 5.88586 91.6078C5.93033 90.5 5.85497 89.3434 5.78105 88.2088C5.55663 84.7645 5.3454 81.5227 8.53958 80.4621C10.1133 79.9397 12.7855 80.4621 12.7855 80.4621C12.7855 80.4621 15.6675 81.3909 17.5622 81.789C20.0152 82.3044 23.9312 82.5851 23.9312 82.5851M28.1771 119.737C28.1771 119.737 31.7454 113.219 28.9732 112.307C28.0872 112.015 27.5159 112.363 26.5849 112.307C22.4301 112.058 19.289 111.947 16.5007 108.857C13.9736 106.056 12.5456 103.11 13.847 99.5689C14.3627 98.1661 14.5596 96.8792 15.97 96.3845C18.1148 95.6322 17.8656 99.7255 19.9506 100.63C22.042 101.538 25.7888 100.63 25.7888 100.63M23.9312 82.5851C23.9312 82.5851 27.1156 84.575 27.1156 86.5657M23.9312 82.5851C23.9312 82.5851 17.9161 81.0028 14.6431 78.8699C11.9389 77.1078 10.3109 75.9953 8.53958 73.2971C6.13935 69.641 5.7777 66.7891 5.88586 62.4168C5.98032 58.5982 6.90803 56.4233 8.3631 53.012C8.42109 52.8761 8.47993 52.7382 8.53958 52.5981M23.9312 82.5851L22.0764 71.705M27.1156 86.5657C27.1156 88.5565 25.8672 90.0827 23.9312 90.5463C21.9029 91.0319 21.2064 87.7849 19.1545 88.1579C17.625 88.436 16.4481 89.0671 15.97 90.5463C15.715 91.3352 15.3117 92.1653 15.97 92.6693C16.673 93.2075 17.2277 92.0609 18.093 91.8732C21.1997 91.199 24.2153 91.7645 25.7888 94.5269C26.9685 96.598 25.7888 100.63 25.7888 100.63M27.1156 86.5657L41.9765 103.758V114.961M25.7888 100.63C25.7888 100.63 31.0554 103.586 32.9538 106.734C34.6674 109.575 32.2996 113.145 35.0768 114.961C37.3321 116.435 39.7072 113.508 41.9765 114.961M30.0347 121.595C30.0347 121.595 33.1808 121.613 34.2807 120.268C34.7208 119.73 34.6517 119.226 35.0768 118.676C36.6813 116.6 34.3708 123.371 36.1383 125.31C37.7499 127.078 39.5845 127.221 41.9765 127.168C43.1348 127.142 43.7647 126.385 44.8955 126.637C46.3744 126.967 47.7262 129.291 47.7262 129.291M47.7262 129.291L51.5299 122.656C51.5299 122.656 46.9499 121.684 44.8955 119.737C44.1609 119.041 43.8754 118.218 43.598 117.418C43.2762 116.49 42.9651 115.593 41.9765 114.961M8.53958 52.5981C8.59379 52.4708 8.64755 52.3444 8.70093 52.219M8.53958 52.5981L8.70093 52.219M60.0218 30.3068L58.9631 33.226C58.9631 33.226 50.9988 34.7333 46.2253 36.6757C40.5455 38.9869 32.6913 44.637 32.6913 44.637M60.0218 30.3068C59.1631 30.8232 57.2411 30.6697 55.0915 30.4981C53.9268 30.4051 52.6953 30.3068 51.5299 30.3068C50.583 30.3068 49.7815 30.284 49.0235 30.2624C47.6245 30.2225 46.3736 30.1869 44.6302 30.3068C40.8568 30.5664 38.673 30.7272 35.0768 31.8991C32.2552 32.8185 28.1771 35.0835 28.1771 35.0835C28.1771 35.0835 32.9567 38.0026 32.9538 39.2611C32.9509 40.5195 25.7888 36.6757 25.7888 36.6757C25.7888 36.6757 20.4468 37.9769 17.5622 39.8602C12.5737 43.1172 10.9993 46.8174 8.70093 52.219M22.0764 71.705C22.0764 71.705 18.9267 68.0623 17.5622 65.3361C16.8129 63.8388 15.7018 62.1514 15.97 61.3554C16.2382 60.5594 19.1545 61.3554 19.1545 61.3554C19.1545 61.3554 21.1566 59.5095 22.4852 59.2485M22.0764 71.705C22.0764 71.705 23.8842 59.0303 22.5574 59.2358M22.5574 59.2358C23.2024 59.1167 23.843 58.8489 24.4647 58.4364M22.5574 59.2358C22.5336 59.2395 22.5095 59.2437 22.4852 59.2485M24.4647 58.4364C26.0868 57.3601 27.4437 55.672 26.5849 53.9251C26.1731 53.0875 24.8064 53.1853 23.6681 53.2668C22.568 53.3455 21.6814 53.409 22.0764 52.5981C22.3007 52.1376 22.8331 52.0579 23.339 51.9821C23.8869 51.9001 24.4038 51.8227 24.4647 51.2713C24.5217 50.7563 24.1364 50.5206 23.7238 50.2682C23.3751 50.0549 23.0069 49.8297 22.8697 49.4137C22.4099 48.0203 24.4259 48.5436 26.292 49.028C27.4573 49.3304 28.5641 49.6177 28.9732 49.4137C30.0376 48.883 32.6913 44.637 32.6913 44.637M24.4647 58.4364C23.8198 58.8643 23.1546 59.1365 22.4852 59.2485M32.6913 44.637C32.6913 44.637 26.5849 40.3911 24.4647 40.9218C22.3446 41.4526 21.9733 43.3366 20.7467 45.1678C18.9897 47.7907 17.6229 49.4417 17.5622 52.5981C17.5168 54.9609 17.2073 57.0971 19.1545 58.4364C20.2254 59.173 21.3611 59.4366 22.4852 59.2485M95.0509 31.8991C95.0509 31.8991 103.761 33.7003 104.823 36.6757C105.884 39.6512 105.884 40.1822 104.823 40.9218C103.761 41.6614 66.6091 36.354 65.2823 35.0835C63.9554 33.813 63.6901 29.6633 66.0784 28.9236C68.4667 28.1838 80.5646 30.4113 80.5646 30.4113M95.0509 31.8991L91.8195 31.5672M95.0509 31.8991L96.1124 28.1838M95.0509 31.8991L95.938 28.7942M95.938 28.7942C95.938 28.7942 106.946 31.8991 108.538 33.226C110.13 34.553 109.072 36.6757 109.072 36.6757M95.938 28.7942L96.1124 28.1838M77.4894 115.435C74.5703 114.108 70.65 112.961 66.0784 112.25C65.359 112.139 64.5887 112.013 63.786 111.883C56.6839 110.728 47.0482 109.161 47.7262 112.781C48.4808 116.81 60.771 120.268 60.771 120.268C60.771 120.268 67.4701 122.446 71.9166 122.656C72.5367 122.686 73.2003 122.725 73.8857 122.766C78.5078 123.041 84.1237 123.375 84.1237 121.064C84.1237 118.449 80.5163 116.81 77.6179 115.493M77.4894 115.435L77.6179 115.493M77.4894 115.435C77.532 115.454 77.5749 115.474 77.6179 115.493M73.5557 127.907C73.5557 127.907 73.2434 146.749 72.4473 147.545C71.6512 148.341 69.2629 150.199 67.6706 150.729C66.5625 151.099 67.7681 143.627 68.6036 139.05M73.5557 127.907C73.5557 127.907 67.4053 127.111 66.0784 127.907C64.7515 128.703 61.0363 147.28 61.3017 149.194C61.5671 151.108 63.69 153.914 63.69 153.914C63.69 153.914 65.4856 150.09 66.3907 147.545C67.2888 145.019 68.0802 141.586 68.6036 139.05M73.5557 127.907L81.5169 124.486M80.5646 30.4113C80.5646 30.4113 80.2992 26.3239 81.47 24.1469C83.0222 21.2606 85.1663 18.6784 88.3696 19.3702C90.9684 19.9314 92.0945 21.929 92.881 24.4686C93.7101 27.1462 91.8195 31.5672 91.8195 31.5672M80.5646 30.4113L91.8195 31.5672M96.1124 28.1838H671.127C671.127 28.1838 679.326 26.3786 684.661 26.3262C690.406 26.2699 693.825 26.3076 699.256 28.1838C704.481 29.9889 711.463 35.3489 711.463 35.3489M711.463 35.3489L109.072 36.6757M711.463 35.3489L721.786 40.882M107.742 47.4996C104.31 45.5856 98.5007 43.519 98.5007 43.519C98.5007 43.519 102.548 49.536 103.761 53.9251C104.651 57.1464 104.823 62.4168 104.823 62.4168L103.761 70.8524C103.761 70.8524 103.365 75.3022 102.7 78.0738C101.022 85.0589 98.6111 88.6546 94.4732 94.5269C91.0173 99.4314 84.1237 105.881 84.1237 105.881L92.3502 110.924C92.3502 110.924 98.8487 109.679 102.7 108.004C109.219 105.169 112.686 102.537 117.295 97.1242C121.492 92.1957 123.859 88.9059 125.256 82.5851C126.335 77.7064 126.247 74.6881 125.256 69.7909C124.025 63.7031 122.406 60.1709 118.357 55.4608C114.987 51.5404 112.28 50.0306 107.773 47.517M107.742 47.4996L107.773 47.517M107.742 47.4996C107.752 47.5054 107.763 47.5112 107.773 47.517M719.438 107.694C719.543 107.628 719.646 107.562 719.749 107.497M719.438 107.694L719.749 107.497M68.6036 139.05C68.9685 137.05 69.2629 135.603 69.2629 135.603C69.2629 135.603 69.0167 137.047 68.6036 139.05ZM81.5169 124.486L86.0282 129.821M719.749 107.497L719.763 107.488M719.749 107.497C719.754 107.494 719.759 107.491 719.763 107.488M719.763 107.488C719.863 107.425 719.962 107.362 720.06 107.299M719.763 107.488L720.06 107.299M100.002 76.5312C101.674 71.3303 102.724 68.0639 102.7 62.4168C102.683 58.5476 102.611 56.264 101.373 52.5981C100.059 48.707 96.0654 43.519 96.0654 43.519C96.0654 43.519 90.1168 41.7901 86.2467 40.9218C85.4819 40.7503 84.7933 40.5868 84.1459 40.433C81.918 39.904 80.1767 39.4905 77.4894 39.2611C74.5982 39.0142 70.059 39.2611 70.059 39.2611C70.059 39.2611 64.4248 43.9934 61.3017 47.4996C60.8826 47.9702 60.4875 48.4056 60.1119 48.8195C58.1529 50.9784 56.7266 52.5503 55.1981 55.4608C53.6402 58.4273 53.1618 60.3695 52.3891 63.5065C52.3531 63.6525 52.3164 63.8012 52.279 63.9527C50.8393 69.7843 50.8794 73.3618 50.9446 79.1871M100.002 76.5312L99.9943 76.556M100.002 76.5312C99.9996 76.5394 99.997 76.5477 99.9943 76.556M50.9446 79.1871L50.9472 79.4249M50.9446 79.1871C50.9455 79.2659 50.9463 79.3452 50.9472 79.4249M50.9472 79.4249C50.9489 79.5734 50.9506 79.7235 50.9522 79.875C50.9607 80.6612 50.9548 81.3741 50.9493 82.0453C50.93 84.388 50.9149 86.2229 51.5299 88.8977C52.5608 93.382 56.525 99.5689 56.525 99.5689C56.525 99.5689 63.724 98.7053 68.2014 99.5689C72.9366 100.482 79.6124 104.289 79.6124 104.289C79.6124 104.289 87.9195 98.6443 91.8195 93.6744C96.226 88.0589 97.6006 84.0182 99.7806 77.2213C99.8529 76.9959 99.9242 76.7742 99.9943 76.556M44.8955 108.801L46.9716 103.758C46.9716 103.758 60.7768 102.337 69.2629 104.289C74.7595 105.554 77.9467 106.452 82.7968 109.331C85.0967 110.696 88.3696 113.312 88.3696 113.312L86.2467 117.823C86.2467 117.823 79.3124 113.146 74.3049 111.454C70.756 110.256 68.3829 109.968 65.0784 109.568C64.4742 109.495 63.8388 109.418 63.1593 109.331C56.0816 108.426 44.8955 108.801 44.8955 108.801ZM55.7758 123.718C56.527 124.204 57.0184 124.682 57.4869 125.137C58.0407 125.675 58.5626 126.182 59.4441 126.637C60.1228 126.987 60.9775 127.069 61.7435 127.142C62.7137 127.235 63.5418 127.314 63.69 127.907C63.9554 128.969 59.4441 145.422 59.4441 145.422C59.4441 145.422 58.1172 151.26 57.3211 152.056C56.525 152.852 53.6059 152.056 53.0752 151.26C52.5444 150.464 53.0752 147.545 53.0752 147.545L58.9134 127.907L52.279 146.009C52.279 146.009 49.8907 149.668 49.1415 149.194C48.3923 148.719 47.8146 145.157 47.8146 143.564C47.8146 142.623 48.6489 141.116 49.6058 139.388C50.2668 138.194 50.9863 136.895 51.5299 135.603C52.2977 133.778 52.8693 131.33 53.3846 129.123C54.1522 125.836 54.7951 123.083 55.7758 123.718ZM44.8955 100.63H54.1367C54.1367 100.63 50.0554 93.793 49.1415 88.8977C48.3657 84.7425 48.1718 81.9771 48.2985 77.752C48.3159 77.1694 48.3312 76.6099 48.346 76.0697C48.4969 70.5419 48.5927 67.0332 50.4214 61.3554C51.7063 57.3663 52.4142 55.2792 54.6674 51.7456C57.662 47.0492 60.0281 44.2609 64.4862 40.9218C66.2452 39.6043 69.2629 37.9462 69.2629 37.9462C69.2629 37.9462 65.5915 36.7864 63.1593 36.6757C58.4554 36.4617 54.8597 37.6879 50.4214 39.2611C45.0298 41.1721 42.6681 42.3741 38.2143 45.9638C33.1252 50.0655 30.8097 53.5337 28.6609 59.7067C26.9049 64.7514 26.4731 67.9943 27.1156 73.2971C27.8238 79.1424 29.6458 82.2662 32.6913 87.3054C36.3411 93.3447 44.8955 100.63 44.8955 100.63Z" stroke="black" stroke-width="1.59223"/>
<g filter="url(#filter0_f_3137_294)">
<path d="M88.1995 39.0054L86.4903 65.7992L124.048 65.7514L86.952 77.9288L93.0716 105.195L73.8628 80.8421L44.9756 88.7132L65.3116 70.513L34.9214 43.2186L73.1158 61.216L88.1995 39.0054Z" fill="#FBDE00"/>
</g>
<path d="M327.28 102.717C324.945 102.717 323.141 102.08 321.867 100.806C320.593 99.479 319.956 97.6214 319.956 95.233V57.8156H305.308V66.9709C305.308 71.0576 304.989 74.8259 304.352 78.2757C303.715 81.7256 302.787 84.8835 301.566 87.7495C300.345 90.6155 298.832 93.1896 297.028 95.4718C295.223 97.754 293.18 99.7178 290.898 101.363C289.306 102.531 287.66 102.955 285.962 102.637C284.264 102.372 282.777 101.443 281.504 99.8505C280.283 98.2052 279.858 96.5599 280.23 94.9146C280.601 93.2693 281.583 91.8097 283.176 90.5359C284.768 89.2621 286.095 87.7761 287.156 86.0777C288.271 84.3262 289.173 82.3359 289.863 80.1068C290.606 77.8246 291.137 75.277 291.455 72.4641C291.774 69.6511 291.933 66.5463 291.933 63.1495V53.4369C291.933 50.9955 292.57 49.1379 293.843 47.8641C295.17 46.5372 297.054 45.8738 299.496 45.8738H326.962C329.403 45.8738 331.287 46.5372 332.614 47.8641C333.941 49.1379 334.605 50.9955 334.605 53.4369V95.233C334.605 97.6214 333.968 99.479 332.694 100.806C331.42 102.08 329.616 102.717 327.28 102.717ZM364.351 102.876C359.999 102.876 356.204 102.053 352.967 100.408C349.729 98.7625 347.208 96.4006 345.404 93.3223C343.599 90.244 342.697 86.6084 342.697 82.4155C342.697 79.2311 343.201 76.3916 344.21 73.8971C345.218 71.3495 346.678 69.2 348.588 67.4486C350.499 65.644 352.781 64.2906 355.435 63.3884C358.089 62.433 361.061 61.9554 364.351 61.9554C368.703 61.9554 372.498 62.778 375.736 64.4233C378.973 66.0686 381.468 68.4304 383.219 71.5087C385.024 74.534 385.926 78.1696 385.926 82.4155C385.926 85.5469 385.422 88.3864 384.414 90.934C383.405 93.4816 381.946 95.6576 380.035 97.4621C378.177 99.2136 375.895 100.567 373.188 101.522C370.535 102.425 367.589 102.876 364.351 102.876ZM364.351 92.4466C365.784 92.4466 367.058 92.1016 368.173 91.4117C369.287 90.6686 370.136 89.5806 370.72 88.1476C371.357 86.6615 371.676 84.7508 371.676 82.4155C371.676 78.8596 370.986 76.312 369.606 74.7728C368.226 73.1806 366.474 72.3845 364.351 72.3845C362.918 72.3845 361.645 72.7295 360.53 73.4194C359.415 74.1094 358.54 75.1974 357.903 76.6835C357.266 78.1165 356.947 80.0272 356.947 82.4155C356.947 85.9185 357.637 88.466 359.017 90.0583C360.397 91.6505 362.175 92.4466 364.351 92.4466ZM400.586 102C398.357 102 396.658 101.416 395.491 100.249C394.323 99.0809 393.739 97.3825 393.739 95.1534V69.5981C393.739 67.422 394.323 65.7502 395.491 64.5825C396.658 63.4149 398.357 62.8311 400.586 62.8311H417.304C421.02 62.8311 423.992 63.2557 426.221 64.1049C428.45 64.901 430.042 66.0686 430.997 67.6078C431.953 69.1469 432.431 70.9515 432.431 73.0214C432.431 75.4628 431.608 77.5062 429.963 79.1515C428.37 80.7968 426.221 81.8317 423.514 82.2563V81.0621C427.176 81.3806 429.83 82.4155 431.475 84.167C433.12 85.8654 433.943 88.0945 433.943 90.8544C433.943 94.2511 432.59 96.9579 429.883 98.9748C427.176 100.992 423.196 102 417.941 102H400.586ZM406.716 93.8H416.269C417.968 93.8 419.215 93.4816 420.011 92.8447C420.86 92.2078 421.285 91.2259 421.285 89.899C421.285 88.6252 420.86 87.6699 420.011 87.033C419.215 86.3961 417.968 86.0777 416.269 86.0777H406.716V93.8ZM406.716 77.8777H415.553C416.88 77.8777 417.915 77.5858 418.658 77.002C419.401 76.3651 419.772 75.4893 419.772 74.3748C419.772 73.2071 419.401 72.3579 418.658 71.8272C417.915 71.2434 416.88 70.9515 415.553 70.9515H406.716V77.8777ZM447.537 102.717C446.104 102.717 444.883 102.451 443.875 101.92C442.919 101.39 442.203 100.567 441.725 99.4524C441.247 98.3379 441.009 96.9314 441.009 95.233V68.802C441.009 66.6259 441.566 64.9806 442.681 63.866C443.795 62.6984 445.387 62.1146 447.457 62.1146C449.474 62.1146 451.013 62.6984 452.075 63.866C453.189 64.9806 453.747 66.6259 453.747 68.802V86.9534H451.517L466.962 66.5728C467.705 65.6175 468.66 64.6356 469.828 63.6272C471.049 62.6188 472.747 62.1146 474.923 62.1146C476.409 62.1146 477.63 62.3799 478.585 62.9107C479.541 63.4414 480.257 64.2641 480.735 65.3787C481.213 66.4401 481.451 67.8466 481.451 69.5981V96.0291C481.451 98.1521 480.894 99.7974 479.78 100.965C478.718 102.133 477.152 102.717 475.082 102.717C473.013 102.717 471.42 102.133 470.306 100.965C469.244 99.7974 468.714 98.1521 468.714 96.0291V77.7981H470.943L455.498 98.2583C454.808 99.2136 453.853 100.195 452.632 101.204C451.464 102.212 449.766 102.717 447.537 102.717Z" fill="#FDD43D"/>
<defs>
<filter id="filter0_f_3137_294" x="13.6921" y="17.778" width="131.585" height="108.647" filterUnits="userSpaceOnUse" color-interpolation-filters="sRGB">
<feFlood flood-opacity="0" result="BackgroundImageFix"/>
<feBlend mode="normal" in="SourceGraphic" in2="BackgroundImageFix" result="shape"/>
<feGaussianBlur stdDeviation="10.6149" result="effect1_foregroundBlur_3137_294"/>
</filter>
</defs>
</svg>
