<svg width="242" height="222" viewBox="0 0 242 222" fill="none" xmlns="http://www.w3.org/2000/svg">
<g filter="url(#filter0_d_3138_296)">
<path d="M219.151 80.7011C212.517 80.7008 124.679 81.1514 124.679 81.1514C126.616 82.2366 127.814 83.347 129.434 84.8472L129.455 84.8666C129.455 84.8666 214.64 83.8051 217.824 84.8671C221.009 85.9292 229.952 92.5367 231.889 100.525C233.579 107.497 232.955 112.994 228.439 118.57C224.666 123.229 222.135 123.861 214.92 125.664L214.64 125.734C207.209 127.592 131.578 125.734 131.578 125.734L129.167 127.375C127.31 129.036 125.237 130.452 122.997 131.573C122.997 131.573 209.332 133.431 217.824 131.573C226.316 129.715 231.302 126.071 235.339 118.57C238.707 112.31 239.26 107.466 237.727 100.525C235.439 90.1649 225.785 80.7013 219.151 80.7011Z" fill="#FDD26A"/>
<path d="M131.578 125.734C131.578 125.734 207.209 127.592 214.64 125.734L214.92 125.664C222.135 123.861 224.666 123.229 228.439 118.57C232.955 112.994 233.579 107.497 231.889 100.525C229.952 92.5367 221.009 85.9292 217.824 84.8671C214.64 83.8051 129.455 84.8666 129.455 84.8666C135.116 90.1093 138.743 97.4238 138.743 105.832C138.743 114.418 135.038 122.122 129.167 127.375L131.578 125.734Z" fill="#581210"/>
<path d="M82.4844 105.832C82.4844 121.661 95.0784 134.492 110.614 134.492C115.057 134.492 119.26 133.442 122.997 131.573L129.167 127.375C135.038 122.122 138.743 114.418 138.743 105.832C138.743 97.4238 135.116 90.1093 129.455 84.8666L124.679 81.1514C120.663 78.9019 115.52 77.1719 110.614 77.1719C95.0784 77.1719 82.4844 90.0035 82.4844 105.832Z" fill="#581210"/>
<path d="M110.614 76.9062C115.551 76.9064 120.711 78.6366 124.745 80.8848C124.787 80.8845 124.849 80.8852 124.93 80.8848C125.096 80.8839 125.343 80.8825 125.665 80.8809C126.31 80.8776 127.257 80.8724 128.465 80.8662C130.88 80.8539 134.337 80.8365 138.506 80.8154C146.844 80.7732 158.031 80.7174 169.426 80.6611C192.214 80.5485 215.833 80.4354 219.151 80.4355C222.577 80.4359 226.714 82.8651 230.26 86.5439C233.816 90.2334 236.83 95.2319 237.986 100.468C238.757 103.958 239.006 106.936 238.634 109.837C238.261 112.738 237.268 115.545 235.572 118.695C233.54 122.471 231.262 125.292 228.41 127.401C225.559 129.511 222.152 130.898 217.881 131.832C216.792 132.07 214.49 132.245 211.322 132.372C208.145 132.499 204.073 132.579 199.428 132.622C190.137 132.709 178.546 132.651 167.223 132.535C155.899 132.419 144.841 132.245 136.614 132.1C132.501 132.027 129.095 131.962 126.718 131.915C125.529 131.891 124.597 131.872 123.963 131.858C123.646 131.852 123.403 131.847 123.239 131.844C123.158 131.842 123.095 131.841 123.054 131.84C119.297 133.708 115.076 134.758 110.614 134.758C94.9276 134.758 82.2188 121.802 82.2188 105.832C82.2188 89.8616 94.9276 76.9062 110.614 76.9062Z" stroke="black" stroke-width="0.530744"/>
</g>
<path d="M111.94 83.2812C123.659 83.2812 133.17 93.0179 133.17 105.042C133.17 117.066 123.659 126.802 111.94 126.802C100.222 126.802 90.7112 117.066 90.7109 105.042C90.7109 93.0179 100.222 83.2813 111.94 83.2812Z" fill="#FED11F" stroke="#F59D19" stroke-width="0.530744"/>
<path d="M113.002 87.7881C120.69 87.7882 127.066 95.1871 127.066 104.507C127.066 113.827 120.69 121.225 113.002 121.226C105.314 121.226 98.9365 113.827 98.9365 104.507C98.9366 95.187 105.314 87.7881 113.002 87.7881Z" fill="#FBEA5B" stroke="#F59D19" stroke-width="1.06149"/>
<g filter="url(#filter1_f_3138_296)">
<path d="M127.068 107.791C127.068 112.984 118.432 121.761 113.4 121.761C108.368 121.761 100 116.208 100 111.015C100 105.822 112.924 100 117.956 100C122.988 100 127.068 102.598 127.068 107.791Z" fill="#F59D19"/>
</g>
<defs>
<filter id="filter0_d_3138_296" x="79.8301" y="76.6406" width="161.363" height="62.6288" filterUnits="userSpaceOnUse" color-interpolation-filters="sRGB">
<feFlood flood-opacity="0" result="BackgroundImageFix"/>
<feColorMatrix in="SourceAlpha" type="matrix" values="0 0 0 0 0 0 0 0 0 0 0 0 0 0 0 0 0 0 127 0" result="hardAlpha"/>
<feOffset dy="2.12298"/>
<feGaussianBlur stdDeviation="1.06149"/>
<feComposite in2="hardAlpha" operator="out"/>
<feColorMatrix type="matrix" values="0 0 0 0 0 0 0 0 0 0 0 0 0 0 0 0 0 0 0.25 0"/>
<feBlend mode="normal" in2="BackgroundImageFix" result="effect1_dropShadow_3138_296"/>
<feBlend mode="normal" in="SourceGraphic" in2="effect1_dropShadow_3138_296" result="shape"/>
</filter>
<filter id="filter1_f_3138_296" x="0" y="0" width="227.07" height="221.758" filterUnits="userSpaceOnUse" color-interpolation-filters="sRGB">
<feFlood flood-opacity="0" result="BackgroundImageFix"/>
<feBlend mode="normal" in="SourceGraphic" in2="BackgroundImageFix" result="shape"/>
<feGaussianBlur stdDeviation="50" result="effect1_foregroundBlur_3138_296"/>
</filter>
</defs>
</svg>
