<svg width="178" height="246" viewBox="0 0 178 246" fill="none" xmlns="http://www.w3.org/2000/svg">
<path d="M58.6782 156.616C58.9094 158.352 59.0673 161.087 59.0673 161.087C59.0673 161.087 59.2889 161.472 59.6514 162.064L63.1523 155.396L72.8793 144.625L88.6361 134.057L98.5571 128.366H89.8033C89.8033 128.366 82.371 132.233 77.9365 135.276C76.2013 136.467 74.7932 137.408 73.4629 138.391C71.8726 139.566 70.3935 140.801 68.5997 142.593C63.8884 147.299 58.6782 156.616 58.6782 156.616Z" fill="#EE941F"/>
<path d="M77.9365 135.276C77.9365 135.276 74.5879 130.358 72.8793 126.944C71.8715 124.929 70.5444 121.659 70.5444 121.659L67.238 119.627C67.238 119.627 68.761 126.155 70.1559 130.195C71.2839 133.463 73.4629 138.391 73.4629 138.391C74.7932 137.408 76.2013 136.467 77.9365 135.276Z" fill="#EE941F"/>
<path d="M85.3286 184.459H88.0519C88.0519 184.459 93.4929 185.324 97.0002 185.272C102.158 185.196 105.084 184.553 110.034 183.036C114.705 181.605 117.484 180.814 121.511 177.956C123.12 176.813 125.401 174.704 125.401 174.704V166.981L121.511 168.607C121.511 168.607 113.431 172.951 107.894 174.704C103.73 176.022 101.326 176.653 97.0002 177.143C92.4687 177.656 89.8866 177.143 85.3286 177.143C86.5044 177.876 87.0779 178.775 87.2738 180.191C87.5267 182.018 85.3286 184.459 85.3286 184.459Z" fill="#FF0E0E"/>
<path d="M59.0673 161.087C59.0673 161.087 57.7141 162.136 57.3165 163.119C56.8436 164.289 57.3165 166.371 57.3165 166.371C57.3165 166.371 59.0826 170.593 60.818 172.875C63.692 176.653 70.3499 180.191 70.3499 180.191L71.5171 181.049C70.4694 179.915 70.1586 178.667 70.5444 177.143C70.9995 175.345 72.2712 174.238 74.0459 174.094C69.7917 171.316 66.6143 170.774 63.1523 166.981C61.87 165.576 60.4331 163.34 59.6514 162.064C59.2889 161.472 59.0673 161.087 59.0673 161.087Z" fill="#FF0E0E"/>
<path d="M82.7997 185.272C83.8247 185.136 85.3286 184.459 85.3286 184.459C85.3286 184.459 87.5267 182.018 87.2738 180.191C87.0779 178.775 86.5044 177.876 85.3286 177.143L77.9387 175.146C80.0756 175.724 81.3994 177.479 81.438 179.785C81.4775 182.144 77.9365 184.595 77.9365 184.595L80.8544 185.272C80.8544 185.272 82.0461 185.372 82.7997 185.272Z" fill="#D62E00"/>
<path d="M71.5171 181.049L75.6021 184.053L77.9365 184.595C77.9365 184.595 81.4775 182.144 81.438 179.785C81.3994 177.479 80.0756 175.724 77.9387 175.146L77.9365 175.145L74.0459 174.094C72.2712 174.238 70.9995 175.345 70.5444 177.143C70.1586 178.667 70.4694 179.915 71.5171 181.049Z" fill="#BE0D0D"/>
<path d="M70.3499 180.191L67.6265 184.459L65.4867 189.337L63.9527 194.011L63.1523 196.45V200.108L66.4593 199.295L71.128 203.36C71.128 203.36 71.0219 200.035 71.316 197.263C71.369 196.763 71.435 196.281 71.5171 195.84C72.0852 192.785 73.0118 191.24 74.0459 188.32C74.6385 186.648 75.6021 184.053 75.6021 184.053L71.5171 181.049L70.3499 180.191Z" fill="#FF0E0E"/>
<path d="M95.6385 205.799L94.2768 201.328L88.0519 184.459H85.3286C85.3286 184.459 83.8247 185.136 82.7997 185.272C82.0461 185.372 80.8544 185.272 80.8544 185.272L84.1614 197.669L85.2224 200.718L87.0559 205.985L92.3316 205.871L95.6385 205.799Z" fill="#FF0E0E"/>
<path d="M125.401 193.401C129.151 190.769 133.961 185.272 133.961 185.272L135.517 181.614L125.401 174.704C125.401 174.704 123.12 176.813 121.511 177.956C117.484 180.814 114.705 181.605 110.034 183.036C105.084 184.553 102.158 185.196 97.0002 185.272C93.4929 185.324 88.0519 184.459 88.0519 184.459L94.2768 201.328C94.2768 201.328 98.5287 202.199 101.28 202.14C105.812 202.045 108.256 200.772 112.563 199.295C117.766 197.511 120.856 196.592 125.401 193.401Z" fill="#F9B715"/>
<path d="M57.3165 166.371L52.2588 169.826C52.2588 169.826 50.3208 171.807 48.7573 171.858C47.9829 171.884 46.812 171.452 46.812 171.452V176.533L51.2861 184.459L59.6508 192.182L63.9527 194.011L65.4867 189.337L67.6265 184.459L70.3499 180.191C70.3499 180.191 63.692 176.653 60.818 172.875C59.0826 170.593 57.3165 166.371 57.3165 166.371Z" fill="#F9B715"/>
<path d="M74.0459 188.32C73.0118 191.24 72.0852 192.785 71.5171 195.84C71.435 196.281 71.369 196.763 71.316 197.263C71.316 197.263 75.5187 199.868 78.5203 200.515C81.0848 201.067 85.2224 200.718 85.2224 200.718L84.1614 197.669L80.8544 185.272L77.9365 184.595L75.6021 184.053C75.6021 184.053 74.6385 186.648 74.0459 188.32Z" fill="#F9B715"/>
<path d="M142.714 229.984L143.492 231.813L146.021 232.321C146.021 232.321 147.552 232.702 148.55 232.829C151.89 233.252 153.916 232.917 157.109 231.813C159.723 230.909 161.311 230.308 163.334 228.358C165.27 226.492 167.03 222.464 167.03 222.464L166.252 219.619L163.334 217.79C163.334 217.79 162.356 221.75 160.806 223.683C159.074 225.844 157.402 226.326 154.97 227.545C152.37 228.847 150.824 229.583 147.967 229.984C145.934 230.269 142.714 229.984 142.714 229.984Z" fill="#F9B715"/>
<path d="M43.505 217.79C39.2924 217.125 36.19 216.876 33.3895 213.522L33.7788 216.367C33.7788 216.367 36.1902 217.908 37.8639 218.603C40.6747 219.769 42.4311 220.046 45.4505 220.228C49.1945 220.455 54.9824 219.009 54.9824 219.009L57.7058 215.411C57.043 215.764 56.5384 215.96 56.5384 215.96C56.5384 215.96 48.5831 218.59 43.505 217.79Z" fill="#EE941F"/>
<path d="M125.401 166.981V163.119L131.432 165.761H138.435L133.182 161.087C133.182 161.087 131.739 157.709 131.432 155.396C131.044 152.478 131.368 150.744 132.015 147.877L132.043 147.753C132.808 144.365 133.3 142.183 135.517 139.544C137.393 137.31 138.723 135.627 141.547 135.276C143.308 135.058 144.546 135.061 146.021 136.089C146.736 136.587 147.578 137.715 147.578 137.715L149.62 136.902C149.62 136.902 147.172 133.267 144.854 132.024C142.587 130.809 140.915 131.417 138.435 130.805C133.501 129.587 126.179 126.334 126.179 126.334L124.818 125.48L117.426 120.846C117.426 120.846 112.645 125.434 108.867 126.944C105.074 128.459 98.5571 128.366 98.5571 128.366L88.6361 134.057L72.8793 144.625L63.1523 155.396L59.6514 162.064C60.4331 163.34 61.87 165.576 63.1523 166.981C66.6143 170.774 69.7917 171.316 74.0459 174.094L77.9365 175.145L77.9387 175.146L85.3286 177.143C89.8866 177.143 92.4687 177.656 97.0002 177.143C101.326 176.653 103.73 176.022 107.894 174.704C113.431 172.951 121.511 168.607 121.511 168.607L125.401 166.981Z" fill="#FDF7D8"/>
<path d="M48.7573 88.5321C43.6599 93.1346 40.198 104.181 40.198 104.181C40.198 104.181 39.0308 105.604 39.6144 109.465C40.198 113.327 50.508 119.627 50.508 119.627L54.9822 126.944C54.9822 126.944 54.0323 137.054 54.9822 143.406C55.7763 148.716 57.9695 151.292 58.6782 156.616C58.6782 156.616 63.8884 147.299 68.5997 142.593C70.3935 140.801 71.8726 139.566 73.4629 138.391C73.4629 138.391 71.2839 133.463 70.1559 130.195C68.761 126.155 67.238 119.627 67.238 119.627C67.238 119.627 60.3046 114.454 58.4842 109.465C57.4431 106.612 56.8605 104.203 57.3165 101.742C57.7725 99.282 57.1226 98.4906 58.4842 95.4421C59.8459 92.3936 61.5023 92.9226 62.7639 90.7677C64.3701 88.0241 64.9031 82.8415 64.9031 82.8415C64.9031 82.8415 61.3169 82.4606 59.0673 82.8415C54.5723 83.6027 52.2025 85.4213 48.7573 88.5321Z" fill="#FDF7D8"/>
<path d="M77.9365 135.276C82.371 132.233 89.8033 128.366 89.8033 128.366C89.8033 128.366 82.975 127.865 78.9097 126.334C75.4246 125.021 70.5444 121.659 70.5444 121.659C70.5444 121.659 71.8715 124.929 72.8793 126.944C74.5879 130.358 77.9365 135.276 77.9365 135.276Z" fill="#101010"/>
<path d="M31.8333 64.5504C31.4903 66.5514 34.9457 68.6151 34.9457 68.6151C34.9457 68.6151 33.427 77.2775 33.7786 82.8415C34.3294 91.5581 40.198 104.181 40.198 104.181C40.198 104.181 43.6599 93.1346 48.7573 88.5321C52.2025 85.4213 54.5723 83.6027 59.0673 82.8415C61.3169 82.4606 64.9031 82.8415 64.9031 82.8415C64.9031 82.8415 62.0182 81.2047 60.4289 79.793C55.5627 75.4707 53.0369 64.5504 53.0369 64.5504C53.0369 64.5504 49.6829 64.9479 47.5901 64.5504C45.9356 64.2361 43.505 63.1278 43.505 63.1278L44.8726 57.2339C44.8726 57.2339 41.7542 56.421 41.1707 57.2339C40.5871 58.0469 41.7542 60.2825 41.7542 60.2825C41.7542 60.2825 40.4215 58.3383 39.2254 58.4534L39.1996 58.4558C38.5308 58.5201 37.8343 58.587 37.6691 59.2663C37.5738 59.6585 37.7263 59.9041 37.8637 60.2825C38.2066 61.227 39.6144 62.1116 39.6144 62.1116H37.2801C36.3685 62.1116 36.1129 62.7213 36.1129 62.7213C36.1129 62.7213 35.5002 61.9259 34.9457 61.7051C34.2681 61.4352 33.6289 61.6465 33.1045 62.1116C32.4609 62.6823 31.9902 63.6352 31.8333 64.5504Z" fill="#24161A"/>
<path fill-rule="evenodd" clip-rule="evenodd" d="M98.5571 128.366C98.5571 128.366 105.074 128.459 108.867 126.944C112.645 125.434 117.426 120.846 117.426 120.846C117.426 120.846 119.386 118.366 120.344 116.579C123.104 111.431 123.003 107.641 123.068 101.742C123.11 97.9123 122.095 91.9871 122.095 91.9871C122.095 91.9871 120.131 92.4043 118.983 91.9871C118.481 91.8048 118.118 91.5399 117.815 91.2242C117.2 90.582 116.835 89.7301 116.065 88.9386C114.264 87.0885 112.929 86.3609 111.396 84.2642C110.651 83.2451 109.938 82.5312 109.451 81.6358C109.167 81.1149 108.96 80.5326 108.867 79.793C108.644 78.0176 109.84 75.3218 109.84 75.3218C109.84 75.3218 104.131 71.8573 100.113 70.6474C95.7763 69.3413 93.1348 68.8419 88.6361 69.2248C87.7867 69.2971 87.0196 69.3913 86.3018 69.51C84.9706 69.7302 83.8089 70.0345 82.6057 70.4391C81.4698 70.8211 80.2969 71.2925 78.9097 71.8668L78.7938 71.9148C76.2931 72.9501 74.3904 73.7378 72.5438 74.9154C71.8151 75.38 71.0951 75.9054 70.3505 76.5307C69.9076 76.9026 69.456 77.3098 68.9888 77.7606C67.1664 79.5188 64.9031 82.8415 64.9031 82.8415C64.9031 82.8415 64.3701 88.0241 62.7639 90.7677C61.5023 92.9226 59.8459 92.3936 58.4842 95.4421C57.1226 98.4906 57.7725 99.282 57.3165 101.742C56.8605 104.203 57.4431 106.612 58.4842 109.465C60.3046 114.454 67.238 119.627 67.238 119.627L70.5444 121.659C70.5444 121.659 75.4246 125.021 78.9097 126.334C82.975 127.865 89.8033 128.366 89.8033 128.366H98.5571ZM89.8033 100.523C89.3627 102.616 89.1085 103.994 89.8033 106.01C90.6767 108.545 92.1736 109.667 94.472 110.888C96.8661 112.16 98.7279 112.777 101.28 111.904C103.782 111.048 105.094 109.549 106.144 107.026C106.937 105.122 106.874 103.814 106.727 101.742C106.505 98.6111 106.24 96.3199 104.004 94.2227C102.303 92.6279 100.842 91.9871 98.5571 91.9871C96.2717 91.9871 94.8691 92.6981 93.1103 94.2227C91.0433 96.0145 90.3802 97.7824 89.8033 100.523ZM80.0769 95.4421C79.0974 98.1774 77.722 99.6403 75.2137 100.929C72.88 102.129 71.0121 102.758 68.5997 101.742C66.7553 100.966 65.721 99.9777 64.9031 98.0841C63.8442 95.6327 64.4685 93.6942 65.4873 91.2242C66.6195 88.4793 67.4361 87.7011 69.9614 86.2965C72.0274 85.1474 74.165 84.2897 76.3808 85.0771C78.4176 85.8009 79.2335 86.4643 80.0769 88.5321C81.0894 91.0146 80.9819 92.9147 80.0769 95.4421ZM76.3808 104.181C76.3808 104.791 79.6878 108.856 79.6878 108.856C81.8149 108.538 83.7729 108.246 84.551 108.043C85.3291 107.839 85.5237 107.026 85.5237 106.01C85.5237 104.994 83.6251 103.852 82.0222 103.165C80.1892 102.38 77.548 102.149 76.9644 102.759C76.3808 103.368 76.3808 103.572 76.3808 104.181Z" fill="#FDF7D8"/>
<path d="M79.6878 108.856C79.6878 108.856 76.3808 104.791 76.3808 104.181C76.3808 103.572 76.3808 103.368 76.9644 102.759C77.548 102.149 80.1892 102.38 82.0222 103.165C83.6251 103.852 85.5237 104.994 85.5237 106.01C85.5237 107.026 85.3291 107.839 84.551 108.043C83.7729 108.246 81.8149 108.538 79.6878 108.856Z" fill="black"/>
<path fill-rule="evenodd" clip-rule="evenodd" d="M89.8033 106.01C89.1085 103.994 89.3627 102.616 89.8033 100.523C90.3802 97.7824 91.0433 96.0145 93.1103 94.2227C94.8691 92.6981 96.2717 91.9871 98.5571 91.9871C100.842 91.9871 102.303 92.6279 104.004 94.2227C106.24 96.3199 106.505 98.6111 106.727 101.742C106.874 103.814 106.937 105.122 106.144 107.026C105.094 109.549 103.782 111.048 101.28 111.904C98.7279 112.777 96.8661 112.16 94.472 110.888C92.1736 109.667 90.6767 108.545 89.8033 106.01ZM97.3899 97.4744L92.3322 100.523H97.0008L98.168 103.775L98.9461 109.465L100.697 100.929L97.3899 97.4744Z" fill="black"/>
<path fill-rule="evenodd" clip-rule="evenodd" d="M75.2137 100.929C77.722 99.6403 79.0974 98.1774 80.0769 95.4421C80.9819 92.9147 81.0894 91.0146 80.0769 88.5321C79.2335 86.4643 78.4176 85.8009 76.3808 85.0771C74.165 84.2897 72.0274 85.1474 69.9614 86.2965C67.4361 87.7011 66.6195 88.4793 65.4873 91.2242C64.4685 93.6942 63.8442 95.6327 64.9031 98.0841C65.721 99.9777 66.7553 100.966 68.5997 101.742C71.0121 102.758 72.88 102.129 75.2137 100.929ZM70.7395 92.5968L71.5176 99.9132L73.0739 94.2227L75.6027 92.5968L79.1042 93.613L74.241 88.9386L70.7395 92.5968Z" fill="black"/>
<path d="M117.426 74.1024C114.484 73.5016 109.84 75.3218 109.84 75.3218C109.84 75.3218 108.644 78.0176 108.867 79.793C108.96 80.5326 109.167 81.1149 109.451 81.6358C109.451 81.6358 110.364 79.6217 111.396 78.7768C112.875 77.5659 114.2 77.3133 116.065 77.5574C117.954 77.8047 119.159 78.44 120.344 79.9962C121.391 81.3709 121.619 82.5096 121.706 84.2642C121.795 86.0524 121.674 87.2385 120.733 88.7353C119.926 90.02 117.815 91.2242 117.815 91.2242C118.118 91.5399 118.481 91.8048 118.983 91.9871C120.131 92.4043 122.095 91.9871 122.095 91.9871C122.095 91.9871 125.169 88.4967 125.596 85.6868C126.12 82.2405 125.365 79.6836 123.068 77.1509C121.361 75.27 119.86 74.5996 117.426 74.1024Z" fill="black"/>
<path d="M86.3018 69.51C86.3018 69.51 85.3437 66.0074 83.7729 64.5504C82.2433 63.1315 80.9409 62.7708 78.9097 62.518C76.8507 62.2618 75.523 62.3853 73.6575 63.331C71.772 64.2867 70.6862 65.2249 69.7669 67.1924C69.1849 68.438 69.067 69.2637 68.9888 70.6474C68.8553 73.0071 70.3505 76.5307 70.3505 76.5307C71.0951 75.9054 71.8151 75.38 72.5438 74.9154C72.5438 74.9154 71.3786 73.2863 71.3231 72.0701C71.261 70.7075 71.7476 69.8994 72.5438 68.8183C73.7342 67.2017 75.0535 66.7973 76.9644 66.3795C78.6763 66.0052 80.1064 65.3989 81.4386 66.5827C82.5902 67.6061 82.6057 70.4391 82.6057 70.4391C83.8089 70.0345 84.9706 69.7302 86.3018 69.51Z" fill="black"/>
<path d="M111.396 84.2642C112.929 86.3609 114.264 87.0885 116.065 88.9386C116.835 89.7301 117.2 90.582 117.815 91.2242C117.815 91.2242 119.926 90.02 120.733 88.7353C121.674 87.2385 121.795 86.0524 121.706 84.2642C121.619 82.5096 121.391 81.3709 120.344 79.9962C119.159 78.44 117.954 77.8047 116.065 77.5574C114.2 77.3133 112.875 77.5659 111.396 78.7768C110.364 79.6217 109.451 81.6358 109.451 81.6358C109.938 82.5312 110.651 83.2451 111.396 84.2642Z" fill="#24161A"/>
<path d="M71.3231 72.0701C71.3786 73.2863 72.5438 74.9154 72.5438 74.9154C74.3904 73.7378 76.2931 72.9501 78.7938 71.9148L78.9097 71.8668C80.2969 71.2925 81.4698 70.8211 82.6057 70.4391C82.6057 70.4391 82.5902 67.6061 81.4386 66.5827C80.1064 65.3989 78.6763 66.0052 76.9644 66.3795C75.0535 66.7973 73.7342 67.2017 72.5438 68.8183C71.7476 69.8994 71.261 70.7075 71.3231 72.0701Z" fill="#24161A"/>
<path d="M92.3322 100.523L97.3899 97.4744L100.697 100.929L98.9461 109.465L98.168 103.775L97.0008 100.523H92.3322Z" fill="#FAF8ED"/>
<path d="M71.5176 99.9132L70.7395 92.5968L74.241 88.9386L79.1042 93.613L75.6027 92.5968L73.0739 94.2227L71.5176 99.9132Z" fill="#FAF8ED"/>
<path d="M47.5901 64.5504C49.6829 64.9479 53.0369 64.5504 53.0369 64.5504C53.0369 64.5504 56.5474 60.4477 57.7056 57.2339C58.2315 55.7746 58.8418 54.9224 58.6782 53.3725C58.5622 52.2737 58.2218 51.6954 57.7056 50.7304C56.6307 48.7213 55.6579 47.5412 53.6205 46.6657C52.4767 46.1743 51.7435 46.1121 50.508 46.056C49.9197 46.0293 49.3197 45.9407 48.7573 45.8985C48.4114 45.8725 48.0796 45.8642 47.7735 45.8985C47.2151 45.9611 46.7418 46.1659 46.4229 46.6657C45.6448 47.8851 45.7546 48.1268 45.8393 49.1045C45.9405 50.2716 47.201 51.7466 47.201 51.7466L52.8423 53.1692L47.5901 53.3725L45.0612 56.421L44.8726 57.2339L43.505 63.1278C43.505 63.1278 45.9356 64.2361 47.5901 64.5504Z" fill="#24161A"/>
<path d="M45.0612 56.421L47.5901 53.3725L52.8423 53.1692L47.201 51.7466V52.7628C47.201 52.7628 46.1185 53.2812 45.0612 53.8867C43.9228 54.5388 42.8135 55.292 43.1159 55.6081C43.6993 56.2178 45.0612 56.421 45.0612 56.421Z" fill="#24161A"/>
<path d="M47.201 51.7466C47.201 51.7466 45.9405 50.2716 45.8393 49.1045C45.7546 48.1268 45.6448 47.8851 46.4229 46.6657C46.7418 46.1659 47.2151 45.9611 47.7735 45.8985C48.0796 45.8642 48.4114 45.8725 48.7573 45.8985C49.3197 45.9407 49.9197 46.0293 50.508 46.056C50.508 46.056 50.4611 45.0877 50.1195 44.6333C49.6673 44.0317 49.056 44.0712 48.3688 44.1517C48.118 44.181 47.8571 44.2158 47.5901 44.2269C47.1688 44.2443 46.7833 44.2804 46.4229 44.3432C45.8586 44.4415 45.3556 44.605 44.8726 44.8644C44.4105 45.1125 43.9667 45.4483 43.505 45.8985C42.704 46.6795 42.1238 47.3345 41.877 48.2916C41.813 48.5398 41.7714 48.8083 41.7542 49.1045C41.6973 50.0845 41.8868 50.6824 42.3384 51.5433C42.5892 52.0215 43.0408 52.4737 43.505 52.851C44.2661 53.4696 45.0612 53.8867 45.0612 53.8867C46.1185 53.2812 47.201 52.7628 47.201 52.7628V51.7466Z" fill="#EE941F"/>
<path d="M34.9457 61.7051C35.5002 61.9259 36.1129 62.7213 36.1129 62.7213C36.1129 62.7213 36.3685 62.1116 37.2801 62.1116H39.6144C39.6144 62.1116 38.2066 61.227 37.8637 60.2825C37.7263 59.9041 37.5738 59.6585 37.6691 59.2663C37.8343 58.587 38.5308 58.5201 39.1996 58.4558L39.2254 58.4534C40.4215 58.3383 41.7542 60.2825 41.7542 60.2825C41.7542 60.2825 40.5871 58.0469 41.1707 57.2339C41.7542 56.421 44.8726 57.2339 44.8726 57.2339L45.0612 56.421C45.0612 56.421 43.6993 56.2178 43.1159 55.6081C42.8135 55.292 43.9228 54.5388 45.0612 53.8867C45.0612 53.8867 44.2661 53.4696 43.505 52.851L30.735 58.0146C31.7079 60.0617 33.1045 62.1116 33.1045 62.1116C33.6289 61.6465 34.2681 61.4352 34.9457 61.7051Z" fill="#FDD26A"/>
<path d="M29.4052 53.9205C29.5667 54.7045 29.7911 55.5243 30.0831 56.421C30.2477 56.9263 30.4764 57.4703 30.735 58.0146L43.505 52.851C43.0408 52.4737 42.5892 52.0215 42.3384 51.5433L29.4052 53.9205Z" fill="#FDD26A"/>
<path d="M42.3384 51.5433C41.8868 50.6824 41.6973 50.0845 41.7542 49.1045L29.3027 48.0663C28.9912 50.2228 29.0014 51.9599 29.4052 53.9205L42.3384 51.5433Z" fill="#FDD26A"/>
<path d="M30.4637 43.0762C30.0614 44.1998 29.7615 45.4313 29.4995 46.8689C29.424 47.2838 29.3582 47.6817 29.3027 48.0663L41.7542 49.1045C41.7714 48.8083 41.813 48.5398 41.877 48.2916L30.4637 43.0762Z" fill="#FDD26A"/>
<path d="M43.505 45.8985L33.5002 38.0455C32.0366 39.7176 31.1157 41.2551 30.4637 43.0762L41.877 48.2916C42.1238 47.3345 42.704 46.6795 43.505 45.8985Z" fill="#FDD26A"/>
<path d="M36.4387 35.254C35.6084 35.8856 34.7935 36.6353 33.9737 37.5201C33.8098 37.697 33.6521 37.872 33.5002 38.0455L43.505 45.8985L36.4387 35.254Z" fill="#FDD26A"/>
<path d="M43.505 45.8985C43.9667 45.4483 44.4105 45.1125 44.8726 44.8644L40.6606 33.0488C39.1565 33.5243 37.7775 34.2356 36.4387 35.254L43.505 45.8985Z" fill="#FDD26A"/>
<path d="M46.4229 44.3432L45.5138 32.2634C43.7232 32.3441 42.132 32.5837 40.6606 33.0488L44.8726 44.8644C45.3556 44.605 45.8586 44.4415 46.4229 44.3432Z" fill="#FDD26A"/>
<path d="M50.4124 32.6417C49.2178 32.3551 47.9718 32.2112 46.4229 32.236C46.1141 32.241 45.8112 32.25 45.5138 32.2634L46.4229 44.3432C46.7833 44.2804 47.1688 44.2443 47.5901 44.2269C47.8571 44.2158 48.118 44.181 48.3688 44.1517L50.4124 32.6417Z" fill="#FDD26A"/>
<path d="M50.1195 44.6333L54.7551 34.1745C53.1146 33.4987 51.798 32.9742 50.4124 32.6417L48.3688 44.1517C49.056 44.0712 49.6673 44.0317 50.1195 44.6333Z" fill="#FDD26A"/>
<path d="M50.1195 44.6333C50.4611 45.0877 50.508 46.056 50.508 46.056L58.2097 35.9554C57.1346 35.3078 55.9954 34.6863 54.9827 34.2684L54.7551 34.1745L50.1195 44.6333Z" fill="#FDD26A"/>
<path d="M50.508 46.056C51.7435 46.1121 52.4767 46.1743 53.6205 46.6657L62.1826 38.5986C61.6394 38.2034 60.0147 37.0426 58.2097 35.9554L50.508 46.056Z" fill="#FDD26A"/>
<path d="M4.01635 68.8183L7.71238 74.3056L11.2139 80.4027L31.8333 64.5504C31.9902 63.6352 32.4609 62.6823 33.1045 62.1116C33.1045 62.1116 31.7079 60.0617 30.735 58.0146L4.01635 68.8183Z" fill="#BB2F11"/>
<path d="M0.320312 59.2663L4.01635 65.7698V68.8183L30.735 58.0146C30.4764 57.4703 30.2477 56.9263 30.0831 56.421C29.7911 55.5243 29.5667 54.7045 29.4052 53.9205L0.320312 59.2663Z" fill="#BB2F11"/>
<path d="M0.320312 45.6495L0.709369 54.1854L0.320312 59.2663L29.4052 53.9205C29.0014 51.9599 28.9912 50.2228 29.3027 48.0663L0.320312 45.6495Z" fill="#BB2F11"/>
<path d="M3.62729 30.8134V35.8942L1.87654 38.3331V42.601L0.320312 45.6495L29.3027 48.0663C29.3582 47.6817 29.424 47.2838 29.4995 46.8689C29.7615 45.4313 30.0614 44.1998 30.4637 43.0762L3.62729 30.8134Z" fill="#BB2F11"/>
<path d="M9.72988 19.3878L7.51786 25.9357L3.62729 30.8134L30.4637 43.0762C31.1157 41.2551 32.0366 39.7176 33.5002 38.0455L9.72988 19.3878Z" fill="#BB2F11"/>
<path d="M19.1895 9.27046L15.1045 15.5707L9.8522 19.0257L9.72988 19.3878L33.5002 38.0455C33.6521 37.872 33.8098 37.697 33.9737 37.5201C34.7935 36.6353 35.6084 35.8856 36.4387 35.254L19.1895 9.27046Z" fill="#BB2F11"/>
<path d="M30.0831 3.37665L25.4145 7.44135L19.1895 9.27046L36.4387 35.254C37.7775 34.2356 39.1565 33.5243 40.6606 33.0488L30.0831 3.37665Z" fill="#BB2F11"/>
<path d="M42.5329 0.328125L37.4752 2.97018L30.0831 3.37665L40.6606 33.0488C42.132 32.5837 43.7232 32.3441 45.5138 32.2634L43.1165 0.408349L42.5329 0.328125Z" fill="#BB2F11"/>
<path d="M56.1499 0.328125L49.925 1.3443L43.1165 0.408349L45.5138 32.2634C45.8112 32.25 46.1141 32.241 46.4229 32.236C47.9718 32.2112 49.2178 32.3551 50.4124 32.6417L56.1499 0.328125Z" fill="#BB2F11"/>
<path d="M68.4052 3.37665L61.2076 2.97018L56.1499 0.328125L50.4124 32.6417C51.798 32.9742 53.1146 33.4987 54.7551 34.1745L68.4052 3.37665Z" fill="#BB2F11"/>
<path d="M77.9371 10.0834L76.3808 9.67693L68.4052 3.37665L54.7551 34.1745L54.9827 34.2684C55.9954 34.6863 57.1346 35.3078 58.2097 35.9554L77.9371 10.0834Z" fill="#BB2F11"/>
<path d="M85.3291 16.7902V14.7578H82.8003L77.9371 10.0834L58.2097 35.9554C60.0147 37.0426 61.6394 38.2034 62.1826 38.5986L85.3291 16.7902Z" fill="#BB2F11"/>
<path d="M95.6385 205.799C95.6385 205.799 104.947 211.264 110.812 214.944C117.425 219.094 120.4 222.871 127.541 225.919C133.204 228.336 142.714 229.984 142.714 229.984C142.714 229.984 145.934 230.269 147.967 229.984C150.824 229.583 152.37 228.847 154.97 227.545C157.402 226.326 159.074 225.844 160.806 223.683C162.356 221.75 163.334 217.79 163.334 217.79V213.318L158.082 208.847L150.885 203.97L148.55 199.295L143.492 194.418L133.961 185.272C133.961 185.272 129.151 190.769 125.401 193.401C120.856 196.592 117.766 197.511 112.563 199.295C108.256 200.772 105.812 202.045 101.28 202.14C98.5287 202.199 94.2768 201.328 94.2768 201.328L95.6385 205.799Z" fill="#24161A"/>
<path d="M46.812 176.533C46.812 176.533 35.0396 182.627 31.8333 189.946C29.2629 195.814 28.9446 200.156 30.4716 206.408C31.1868 209.337 31.488 211.244 33.3895 213.522C36.19 216.876 39.2924 217.125 43.505 217.79C48.5831 218.59 56.5384 215.96 56.5384 215.96C56.5384 215.96 57.043 215.764 57.7058 215.411C58.9943 214.726 60.8804 213.453 60.818 211.896C60.7808 210.968 60.0399 209.66 60.0399 209.66L67.6265 206.408L87.0559 205.985L85.2224 200.718C85.2224 200.718 81.0848 201.067 78.5203 200.515C75.5187 199.868 71.316 197.263 71.316 197.263C71.0219 200.035 71.128 203.36 71.128 203.36L66.4593 199.295L63.1523 200.108V196.45L63.9527 194.011L59.6508 192.182L51.2861 184.459L46.812 176.533Z" fill="#24161A"/>
<path d="M37.8639 218.603C36.1902 217.908 33.7788 216.367 33.7788 216.367C33.7788 216.367 29.6333 218.22 27.3594 220.025C25.6906 221.35 24.1734 221.825 23.4688 223.887C22.8283 225.761 22.8658 227.268 23.8579 228.967C25.079 231.059 27.0324 231.003 29.3047 231.609C33.0651 232.613 35.6551 231.873 39.2256 231L48.3685 228.764C51.9389 227.891 54.9821 226.935 55.566 225.919C56.1499 224.903 54.9824 219.009 54.9824 219.009C54.9824 219.009 49.1945 220.455 45.4505 220.228C42.4311 220.046 40.6747 219.769 37.8639 218.603Z" fill="#24161A"/>
<path d="M157.109 231.813C153.916 232.917 151.89 233.252 148.55 232.829C147.552 232.702 146.021 232.321 146.021 232.321C146.021 232.321 144.465 233.439 145.243 236.487C146.021 239.536 149.235 240.737 152.441 242.381C156.735 244.583 159.726 244.901 164.502 244.617C167.045 244.465 170.921 243.397 170.921 243.397L175.395 241.568C175.395 241.568 177.22 238.621 177.34 236.487C177.478 234.04 176.664 232.614 175.481 230.54L175.395 230.39C174.103 228.124 172.83 227.239 170.921 225.512C169.485 224.214 167.03 222.464 167.03 222.464C167.03 222.464 165.27 226.492 163.334 228.358C161.311 230.308 159.723 230.909 157.109 231.813Z" fill="#24161A"/>
<path d="M140.964 161.697C142.783 161.349 145.438 160.071 145.438 160.071C145.438 160.071 141.936 156.816 141.353 153.974C141.161 153.039 141.158 151.535 141.158 151.535C141.158 151.535 141.642 152.021 141.936 152.348C143.281 153.838 143.373 155.274 144.854 156.616C146.679 158.268 150.495 159.258 150.495 159.258L158.471 156.616L157.304 154.823L155.164 151.535H159.638L157.304 154.823L158.471 156.616C158.471 156.616 161.564 157.809 163.529 157.429C166.446 156.864 168.124 155.163 169.365 152.348C170.572 149.609 170.931 147.159 169.365 144.625C168.301 142.904 165.28 141.576 165.28 141.576C165.28 141.576 166.921 144.183 166.447 145.844C166.001 147.405 165.086 148.608 163.529 148.69C162.341 148.752 160.806 147.267 160.806 147.267C160.806 147.267 158.833 149.077 157.304 149.096C155.5 149.118 153.316 146.657 153.316 146.657C153.316 146.657 153.826 147.872 153.802 148.69C153.736 151.007 151.495 151.849 149.328 152.348C147.025 152.878 145.609 151.809 143.492 150.722C141.828 149.867 139.213 149.096 139.602 147.877C139.991 146.657 142.504 147.781 143.492 146.454C144.612 144.951 142.814 143.345 143.492 141.576C144.293 139.49 147.578 137.715 147.578 137.715C147.578 137.715 146.736 136.587 146.021 136.089C144.546 135.061 143.308 135.058 141.547 135.276C138.723 135.627 137.393 137.31 135.517 139.544C133.3 142.183 132.808 144.365 132.043 147.753L132.015 147.877C131.368 150.744 131.044 152.478 131.432 155.396C131.739 157.709 133.182 161.087 133.182 161.087C133.182 161.087 137.966 162.269 140.964 161.697Z" fill="#24161A"/>
<path d="M147.578 137.715C147.578 137.715 144.293 139.49 143.492 141.576C142.814 143.345 144.612 144.951 143.492 146.454C142.504 147.781 139.991 146.657 139.602 147.877C139.213 149.096 141.828 149.867 143.492 150.722C145.609 151.809 147.025 152.878 149.328 152.348C151.495 151.849 153.736 151.007 153.802 148.69C153.826 147.872 153.316 146.657 153.316 146.657C153.316 146.657 155.5 149.118 157.304 149.096C158.833 149.077 160.806 147.267 160.806 147.267C160.806 147.267 162.341 148.752 163.529 148.69C165.086 148.608 166.001 147.405 166.447 145.844C166.921 144.183 165.28 141.576 165.28 141.576C165.28 141.576 163.905 139.542 162.751 138.528C161.293 137.248 160.294 136.661 158.471 136.089C155.925 135.29 154.221 135.331 151.663 136.089C150.841 136.332 149.62 136.902 149.62 136.902L147.578 137.715Z" fill="#24161A"/>
<path d="M138.435 165.761H143.492L148.55 160.071H145.438C145.438 160.071 142.783 161.349 140.964 161.697C137.966 162.269 133.182 161.087 133.182 161.087L138.435 165.761Z" fill="#24161A"/>
<path d="M145.438 160.071H148.55L150.495 159.258C150.495 159.258 146.679 158.268 144.854 156.616C143.373 155.274 143.281 153.838 141.936 152.348C141.642 152.021 141.158 151.535 141.158 151.535C141.158 151.535 141.161 153.039 141.353 153.974C141.936 156.816 145.438 160.071 145.438 160.071Z" fill="#581210"/>
<path d="M31.8333 64.5504C31.4903 66.5514 34.9457 68.6151 34.9457 68.6151C34.9457 68.6151 33.427 77.2775 33.7786 82.8415C34.3294 91.5581 40.198 104.181 40.198 104.181M31.8333 64.5504L11.2139 80.4027L7.71238 74.3056L4.01635 68.8183M31.8333 64.5504C31.9902 63.6352 32.4609 62.6823 33.1045 62.1116M40.198 104.181C40.198 104.181 43.6599 93.1346 48.7573 88.5321C52.2025 85.4213 54.5723 83.6027 59.0673 82.8415C61.3169 82.4606 64.9031 82.8415 64.9031 82.8415M40.198 104.181C40.198 104.181 39.0308 105.604 39.6144 109.465C40.198 113.327 50.508 119.627 50.508 119.627M64.9031 82.8415C64.9031 82.8415 62.0182 81.2047 60.4289 79.793C55.5627 75.4707 53.0369 64.5504 53.0369 64.5504M64.9031 82.8415C64.9031 82.8415 64.3701 88.0241 62.7639 90.7677C61.5023 92.9226 59.8459 92.3936 58.4842 95.4421C57.1226 98.4906 57.7725 99.282 57.3165 101.742C56.8605 104.203 57.4431 106.612 58.4842 109.465C60.3046 114.454 67.238 119.627 67.238 119.627M64.9031 82.8415C64.9031 82.8415 67.1664 79.5188 68.9888 77.7606C69.456 77.3098 69.9076 76.9026 70.3505 76.5307M53.0369 64.5504C53.0369 64.5504 49.6829 64.9479 47.5901 64.5504C45.9356 64.2361 43.505 63.1278 43.505 63.1278L44.8726 57.2339M53.0369 64.5504C53.0369 64.5504 56.5474 60.4477 57.7056 57.2339C58.2315 55.7746 58.8418 54.9224 58.6782 53.3725C58.5622 52.2737 58.2218 51.6954 57.7056 50.7304C56.6307 48.7213 55.6579 47.5412 53.6205 46.6657M45.0612 56.421L47.5901 53.3725L52.8423 53.1692L47.201 51.7466M45.0612 56.421L44.8726 57.2339M45.0612 56.421C45.0612 56.421 43.6993 56.2178 43.1159 55.6081C42.8135 55.292 43.9228 54.5388 45.0612 53.8867M47.201 51.7466C47.201 51.7466 45.9405 50.2716 45.8393 49.1045C45.7546 48.1268 45.6448 47.8851 46.4229 46.6657C46.7418 46.1659 47.2151 45.9611 47.7735 45.8985C48.0796 45.8642 48.4114 45.8725 48.7573 45.8985C49.3197 45.9407 49.9197 46.0293 50.508 46.056M47.201 51.7466V52.7628C47.201 52.7628 46.1185 53.2812 45.0612 53.8867M50.508 46.056C51.7435 46.1121 52.4767 46.1743 53.6205 46.6657M50.508 46.056C50.508 46.056 50.4611 45.0877 50.1195 44.6333M50.508 46.056L58.2097 35.9554M53.6205 46.6657L62.1826 38.5986M37.2801 62.1116C36.3685 62.1116 36.1129 62.7213 36.1129 62.7213C36.1129 62.7213 35.5002 61.9259 34.9457 61.7051C34.2681 61.4352 33.6289 61.6465 33.1045 62.1116M37.2801 62.1116C38.1917 62.1116 38.7028 62.1116 39.6144 62.1116M37.2801 62.1116H39.6144M39.6144 62.1116C39.6144 62.1116 38.2066 61.227 37.8637 60.2825C37.7263 59.9041 37.5738 59.6585 37.6691 59.2663C37.8343 58.587 38.5308 58.5201 39.1996 58.4558M39.2254 58.4534C40.4215 58.3383 41.7542 60.2825 41.7542 60.2825C41.7542 60.2825 40.5871 58.0469 41.1707 57.2339C41.7542 56.421 44.8726 57.2339 44.8726 57.2339M39.2254 58.4534L39.1996 58.4558M39.2254 58.4534C39.2168 58.4542 39.2082 58.455 39.1996 58.4558M50.508 119.627L54.9822 126.944M50.508 119.627C50.508 119.627 49.3618 114.568 49.5354 111.294C49.6549 109.04 50.508 105.604 50.508 105.604M54.9822 126.944L57.3165 115.156M54.9822 126.944C54.9822 126.944 54.9822 121.741 54.9822 118.408C54.9822 116.423 54.9822 113.327 54.9822 113.327M54.9822 126.944C54.9822 126.944 54.0323 137.054 54.9822 143.406C55.7763 148.716 57.9695 151.292 58.6782 156.616M58.6782 156.616C58.9094 158.352 59.0673 161.087 59.0673 161.087M58.6782 156.616C58.6782 156.616 63.8884 147.299 68.5997 142.593C70.3935 140.801 71.8726 139.566 73.4629 138.391M59.0673 161.087C59.0673 161.087 57.7141 162.136 57.3165 163.119C56.8436 164.289 57.3165 166.371 57.3165 166.371M59.0673 161.087C59.0673 161.087 59.2889 161.472 59.6514 162.064M57.3165 166.371L52.2588 169.826C52.2588 169.826 50.3208 171.807 48.7573 171.858C47.9829 171.884 46.812 171.452 46.812 171.452V176.533M57.3165 166.371C57.3165 166.371 59.0826 170.593 60.818 172.875C63.692 176.653 70.3499 180.191 70.3499 180.191M46.812 176.533C46.812 176.533 35.0396 182.627 31.8333 189.946C29.2629 195.814 28.9446 200.156 30.4716 206.408C31.1868 209.337 31.488 211.244 33.3895 213.522M46.812 176.533L51.2861 184.459L59.6508 192.182L63.9527 194.011M33.3895 213.522C36.19 216.876 39.2924 217.125 43.505 217.79C48.5831 218.59 56.5384 215.96 56.5384 215.96C56.5384 215.96 57.043 215.764 57.7058 215.411M33.3895 213.522L33.7788 216.367M95.6385 205.799C95.6385 205.799 104.947 211.264 110.812 214.944C117.425 219.094 120.4 222.871 127.541 225.919C133.204 228.336 142.714 229.984 142.714 229.984M95.6385 205.799L94.2768 201.328M95.6385 205.799L92.3316 205.871M142.714 229.984L143.492 231.813L146.021 232.321M142.714 229.984C142.714 229.984 145.934 230.269 147.967 229.984C150.824 229.583 152.37 228.847 154.97 227.545C157.402 226.326 159.074 225.844 160.806 223.683C162.356 221.75 163.334 217.79 163.334 217.79M167.03 222.464C167.03 222.464 165.27 226.492 163.334 228.358C161.311 230.308 159.723 230.909 157.109 231.813C153.916 232.917 151.89 233.252 148.55 232.829C147.552 232.702 146.021 232.321 146.021 232.321M167.03 222.464L166.252 219.619L163.334 217.79M167.03 222.464C167.03 222.464 169.485 224.214 170.921 225.512C172.83 227.239 174.103 228.124 175.395 230.39M163.334 217.79V213.318L158.082 208.847L150.885 203.97L148.55 199.295L143.492 194.418L133.961 185.272M133.961 185.272C133.961 185.272 129.151 190.769 125.401 193.401C120.856 196.592 117.766 197.511 112.563 199.295C108.256 200.772 105.812 202.045 101.28 202.14C98.5287 202.199 94.2768 201.328 94.2768 201.328M133.961 185.272L135.517 181.614L125.401 174.704M94.2768 201.328L88.0519 184.459M146.021 232.321C146.021 232.321 144.465 233.439 145.243 236.487C146.021 239.536 149.235 240.737 152.441 242.381C156.735 244.583 159.726 244.901 164.502 244.617C167.045 244.465 170.921 243.397 170.921 243.397M170.921 243.397C170.921 243.397 171.115 243.194 171.699 241.162C172.283 239.129 168.198 236.487 168.198 236.487M170.921 243.397L175.395 241.568C175.395 241.568 177.22 238.621 177.34 236.487C177.478 234.04 176.664 232.614 175.481 230.54M175.395 230.39L175.481 230.54M175.395 230.39C175.424 230.441 175.452 230.49 175.481 230.54M125.401 174.704C125.401 174.704 123.12 176.813 121.511 177.956C117.484 180.814 114.705 181.605 110.034 183.036C105.084 184.553 102.158 185.196 97.0002 185.272C93.4929 185.324 88.0519 184.459 88.0519 184.459M125.401 174.704V166.981M70.3499 180.191L67.6265 184.459L65.4867 189.337L63.9527 194.011M70.3499 180.191C70.3499 180.191 71.0612 180.714 71.5171 181.049M70.3499 180.191L71.5171 181.049M75.6021 184.053C75.6021 184.053 74.6385 186.648 74.0459 188.32C73.0118 191.24 72.0852 192.785 71.5171 195.84C71.435 196.281 71.369 196.763 71.316 197.263M75.6021 184.053C75.6021 184.053 73.1124 182.222 71.5171 181.049M75.6021 184.053L77.9365 184.595M75.6021 184.053L71.5171 181.049M63.9527 194.011L63.1523 196.45V200.108L66.4593 199.295L71.128 203.36C71.128 203.36 71.0219 200.035 71.316 197.263M80.8544 185.272L84.1614 197.669L85.2224 200.718M80.8544 185.272C80.8544 185.272 82.0461 185.372 82.7997 185.272C83.8247 185.136 85.3286 184.459 85.3286 184.459M80.8544 185.272L77.9365 184.595M92.3316 205.871L88.0519 208.847L87.0559 205.985M92.3316 205.871L87.0559 205.985M88.0519 184.459H85.3286M85.3286 184.459C85.3286 184.459 87.5267 182.018 87.2738 180.191C87.0779 178.775 86.5044 177.876 85.3286 177.143M125.401 166.981V163.119M125.401 166.981L121.511 168.607C121.511 168.607 113.431 172.951 107.894 174.704C103.73 176.022 101.326 176.653 97.0002 177.143C92.4687 177.656 89.8866 177.143 85.3286 177.143M125.401 163.119L116.648 156.616M125.401 163.119L131.432 165.761M116.648 156.616L107.31 149.096M116.648 156.616C116.648 156.616 112.57 158.029 110.034 157.429C108.017 156.952 105.365 154.823 105.365 154.823M131.432 165.761H138.435M131.432 165.761C131.432 165.761 128.828 162.378 127.347 160.071C125.584 157.324 123.262 152.754 123.262 152.754M138.435 165.761H143.492L148.55 160.071M138.435 165.761C136.384 163.936 135.234 162.912 133.182 161.087M138.435 165.761L133.182 161.087M148.55 160.071H145.438M148.55 160.071L150.495 159.258M145.438 160.071C145.438 160.071 142.783 161.349 140.964 161.697C137.966 162.269 133.182 161.087 133.182 161.087M145.438 160.071C145.438 160.071 141.936 156.816 141.353 153.974C141.161 153.039 141.158 151.535 141.158 151.535C141.158 151.535 141.642 152.021 141.936 152.348C143.281 153.838 143.373 155.274 144.854 156.616C146.679 158.268 150.495 159.258 150.495 159.258M133.182 161.087C133.182 161.087 131.739 157.709 131.432 155.396C131.044 152.478 131.368 150.744 132.015 147.877M132.015 147.877L132.043 147.753M132.015 147.877C132.025 147.835 132.034 147.794 132.043 147.753M147.578 137.715C147.578 137.715 146.736 136.587 146.021 136.089C144.546 135.061 143.308 135.058 141.547 135.276C138.723 135.627 137.393 137.31 135.517 139.544C133.3 142.183 132.808 144.365 132.043 147.753M147.578 137.715C147.578 137.715 144.293 139.49 143.492 141.576C142.814 143.345 144.612 144.951 143.492 146.454C142.504 147.781 139.991 146.657 139.602 147.877C139.213 149.096 141.828 149.867 143.492 150.722C145.609 151.809 147.025 152.878 149.328 152.348C151.495 151.849 153.736 151.007 153.802 148.69C153.826 147.872 153.316 146.657 153.316 146.657M147.578 137.715L149.62 136.902M147.578 140.967C147.578 140.967 148.658 140.827 149.328 140.967C151.225 141.363 152.08 142.763 152.83 144.625C153.134 145.379 153.316 146.657 153.316 146.657M153.316 146.657C153.316 146.657 155.5 149.118 157.304 149.096C158.833 149.077 160.806 147.267 160.806 147.267M160.806 147.267C160.806 147.267 161.29 144.587 160.806 142.999C160.325 141.426 159.668 140.623 158.471 139.544C157.365 138.547 155.164 137.715 155.164 137.715M160.806 147.267C160.806 147.267 162.341 148.752 163.529 148.69C165.086 148.608 166.001 147.405 166.447 145.844C166.921 144.183 165.28 141.576 165.28 141.576M165.28 141.576C165.28 141.576 163.905 139.542 162.751 138.528C161.293 137.248 160.294 136.661 158.471 136.089C155.925 135.29 154.221 135.331 151.663 136.089C150.841 136.332 149.62 136.902 149.62 136.902M165.28 141.576C165.28 141.576 168.301 142.904 169.365 144.625C170.931 147.159 170.572 149.609 169.365 152.348C168.124 155.163 166.446 156.864 163.529 157.429C161.564 157.809 158.471 156.616 158.471 156.616M158.471 156.616L157.304 154.823M158.471 156.616L150.495 159.258M157.304 154.823L155.164 151.535H159.638L157.304 154.823ZM117.426 120.846L124.818 125.48M117.426 120.846C117.426 120.846 112.645 125.434 108.867 126.944C105.074 128.459 98.5571 128.366 98.5571 128.366M117.426 120.846C117.426 120.846 119.386 118.366 120.344 116.579C123.104 111.431 123.003 107.641 123.068 101.742C123.11 97.9123 122.095 91.9871 122.095 91.9871M149.62 136.902C149.62 136.902 147.172 133.267 144.854 132.024C142.587 130.809 140.915 131.417 138.435 130.805C133.501 129.587 126.179 126.334 126.179 126.334L124.818 125.48M117.426 126.334L124.818 125.48M74.0459 174.094C69.7917 171.316 66.6143 170.774 63.1523 166.981C61.87 165.576 60.4331 163.34 59.6514 162.064M74.0459 174.094C72.2712 174.238 70.9995 175.345 70.5444 177.143C70.1586 178.667 70.4694 179.915 71.5171 181.049M74.0459 174.094C75.5653 174.505 76.4171 174.735 77.9365 175.145M74.0459 174.094L77.9365 175.145M85.3286 177.143L77.9387 175.146M85.3286 177.143C82.4425 176.363 80.8241 175.925 77.9387 175.146M77.9365 175.145C77.9372 175.145 77.938 175.146 77.9387 175.146M77.9365 175.145L77.9387 175.146M77.9365 184.595C77.9365 184.595 81.4775 182.144 81.438 179.785C81.3994 177.479 80.0756 175.724 77.9387 175.146M71.316 197.263C71.316 197.263 75.5187 199.868 78.5203 200.515C81.0848 201.067 85.2224 200.718 85.2224 200.718M85.2224 200.718L87.0559 205.985M33.7788 216.367C33.7788 216.367 36.1902 217.908 37.8639 218.603C40.6747 219.769 42.4311 220.046 45.4505 220.228C49.1945 220.455 54.9824 219.009 54.9824 219.009M33.7788 216.367C33.7788 216.367 29.6333 218.22 27.3594 220.025C25.6906 221.35 24.1734 221.825 23.4688 223.887C22.8283 225.761 22.8658 227.268 23.8579 228.967C25.079 231.059 27.0324 231.003 29.3047 231.609C33.0651 232.613 35.6551 231.873 39.2256 231M54.9824 219.009L57.7058 215.411M54.9824 219.009C54.9824 219.009 56.1499 224.903 55.566 225.919C54.9821 226.935 51.9389 227.891 48.3685 228.764M57.7058 215.411C58.9943 214.726 60.8804 213.453 60.818 211.896C60.7808 210.968 60.0399 209.66 60.0399 209.66L67.6265 206.408L87.0559 205.985M48.3685 228.764C44.798 229.637 42.7961 230.127 39.2256 231M48.3685 228.764L39.2256 231M86.6908 167.997C86.6908 167.997 95.5756 171.15 101.475 171.249C107.257 171.345 116.065 168.607 116.065 168.607M59.6514 162.064L63.1523 155.396L72.8793 144.625L88.6361 134.057L98.5571 128.366M98.5571 128.366H89.8033M89.8033 128.366C89.8033 128.366 82.371 132.233 77.9365 135.276M89.8033 128.366C89.8033 128.366 82.975 127.865 78.9097 126.334C75.4246 125.021 70.5444 121.659 70.5444 121.659M77.9365 135.276C77.9365 135.276 74.5879 130.358 72.8793 126.944C71.8715 124.929 70.5444 121.659 70.5444 121.659M77.9365 135.276C76.2013 136.467 74.7932 137.408 73.4629 138.391M70.5444 121.659L67.238 119.627M67.238 119.627C67.238 119.627 68.761 126.155 70.1559 130.195C71.2839 133.463 73.4629 138.391 73.4629 138.391M78.9097 71.8668C80.2969 71.2925 81.4698 70.8211 82.6057 70.4391M78.9097 71.8668L78.7938 71.9148M78.9097 71.8668C78.8709 71.8829 78.8323 71.8989 78.7938 71.9148M109.84 75.3218C109.84 75.3218 104.131 71.8573 100.113 70.6474C95.7763 69.3413 93.1348 68.8419 88.6361 69.2248C87.7867 69.2971 87.0196 69.3913 86.3018 69.51M109.84 75.3218C109.84 75.3218 114.484 73.5016 117.426 74.1024C119.86 74.5996 121.361 75.27 123.068 77.1509C125.365 79.6836 126.12 82.2405 125.596 85.6868C125.169 88.4967 122.095 91.9871 122.095 91.9871M109.84 75.3218C109.84 75.3218 108.644 78.0176 108.867 79.793C108.96 80.5326 109.167 81.1149 109.451 81.6358M122.095 91.9871C122.095 91.9871 120.131 92.4043 118.983 91.9871C118.481 91.8048 118.118 91.5399 117.815 91.2242M109.451 81.6358C109.938 82.5312 110.651 83.2451 111.396 84.2642C112.929 86.3609 114.264 87.0885 116.065 88.9386C116.835 89.7301 117.2 90.582 117.815 91.2242M109.451 81.6358C109.451 81.6358 110.364 79.6217 111.396 78.7768C112.875 77.5659 114.2 77.3133 116.065 77.5574C117.954 77.8047 119.159 78.44 120.344 79.9962C121.391 81.3709 121.619 82.5096 121.706 84.2642C121.795 86.0524 121.674 87.2385 120.733 88.7353C119.926 90.02 117.815 91.2242 117.815 91.2242M86.3018 69.51C86.3018 69.51 85.3437 66.0074 83.7729 64.5504C82.2433 63.1315 80.9409 62.7708 78.9097 62.518C76.8507 62.2618 75.523 62.3853 73.6575 63.331C71.772 64.2867 70.6862 65.2249 69.7669 67.1924C69.1849 68.438 69.067 69.2637 68.9888 70.6474C68.8553 73.0071 70.3505 76.5307 70.3505 76.5307M86.3018 69.51C84.9706 69.7302 83.8089 70.0345 82.6057 70.4391M70.3505 76.5307C71.0951 75.9054 71.8151 75.38 72.5438 74.9154M72.5438 74.9154C72.5438 74.9154 71.3786 73.2863 71.3231 72.0701C71.261 70.7075 71.7476 69.8994 72.5438 68.8183C73.7342 67.2017 75.0535 66.7973 76.9644 66.3795C78.6763 66.0052 80.1064 65.3989 81.4386 66.5827C82.5902 67.6061 82.6057 70.4391 82.6057 70.4391M72.5438 74.9154C74.3904 73.7378 76.2931 72.9501 78.7938 71.9148M79.6878 108.856C79.6878 108.856 76.3808 104.791 76.3808 104.181C76.3808 103.572 76.3808 103.368 76.9644 102.759C77.548 102.149 80.1892 102.38 82.0222 103.165C83.6251 103.852 85.5237 104.994 85.5237 106.01C85.5237 107.026 85.3291 107.839 84.551 108.043C83.7729 108.246 81.8149 108.538 79.6878 108.856ZM79.6878 108.856L79.1042 112.514M79.1042 112.514C79.1042 112.514 80.2594 114.765 81.4386 115.766C82.4933 116.661 83.213 117.143 84.551 117.391C86.6574 117.782 89.8033 115.766 89.8033 115.766M79.1042 112.514C79.1042 112.514 77.001 113.414 75.6027 113.327C74.6647 113.268 74.0685 113.232 73.2684 112.717C72.2981 112.093 72.0714 111.319 71.5176 110.278C71.1541 109.595 70.7395 108.449 70.7395 108.449M77.9371 10.0834L82.8003 14.7578H85.3291V16.7902L62.1826 38.5986M77.9371 10.0834L76.3808 9.67693L68.4052 3.37665M77.9371 10.0834L58.2097 35.9554M68.4052 3.37665L61.2076 2.97018L56.1499 0.328125M68.4052 3.37665L54.7551 34.1745M56.1499 0.328125L49.925 1.3443L43.1165 0.408349M56.1499 0.328125L50.4124 32.6417M30.0831 3.37665L37.4752 2.97018L42.5329 0.328125L43.1165 0.408349M30.0831 3.37665L25.4145 7.44135L19.1895 9.27046M30.0831 3.37665L40.6606 33.0488M19.1895 9.27046L15.1045 15.5707L9.8522 19.0257L9.72988 19.3878M19.1895 9.27046L36.4387 35.254M3.62729 30.8134L7.51786 25.9357L9.72988 19.3878M3.62729 30.8134V35.8942L1.87654 38.3331V42.601L0.320312 45.6495M3.62729 30.8134L30.4637 43.0762M0.320312 45.6495L0.709369 54.1854L0.320312 59.2663M0.320312 45.6495L29.3027 48.0663M0.320312 59.2663L4.01635 65.7698V68.8183M0.320312 59.2663L29.4052 53.9205M4.01635 68.8183L30.735 58.0146M45.0612 53.8867C45.0612 53.8867 44.2661 53.4696 43.505 52.851M42.3384 51.5433C41.8868 50.6824 41.6973 50.0845 41.7542 49.1045M42.3384 51.5433C42.5892 52.0215 43.0408 52.4737 43.505 52.851M42.3384 51.5433L29.4052 53.9205M41.7542 49.1045C41.7714 48.8083 41.813 48.5398 41.877 48.2916M41.7542 49.1045L29.3027 48.0663M43.505 45.8985C43.9667 45.4483 44.4105 45.1125 44.8726 44.8644M43.505 45.8985C42.704 46.6795 42.1238 47.3345 41.877 48.2916M43.505 45.8985L33.5002 38.0455M43.505 45.8985L36.4387 35.254M50.1195 44.6333C49.6673 44.0317 49.056 44.0712 48.3688 44.1517M50.1195 44.6333L54.7551 34.1745M33.1045 62.1116C33.1045 62.1116 31.7079 60.0617 30.735 58.0146M54.9827 34.2684C54.9061 34.2368 54.8303 34.2055 54.7551 34.1745M54.9827 34.2684C55.9954 34.6863 57.1346 35.3078 58.2097 35.9554M54.9827 34.2684L54.7551 34.1745M62.3748 38.7395C62.3748 38.7395 62.3071 38.6892 62.1826 38.5986M48.3688 44.1517C48.118 44.181 47.8571 44.2158 47.5901 44.2269C47.1688 44.2443 46.7833 44.2804 46.4229 44.3432M48.3688 44.1517L50.4124 32.6417M43.1165 0.408349L45.5138 32.2634M46.4229 44.3432C45.8586 44.4415 45.3556 44.605 44.8726 44.8644M46.4229 44.3432L45.5138 32.2634M44.8726 44.8644L40.6606 33.0488M9.26861 19.0257L9.72988 19.3878M41.877 48.2916L30.4637 43.0762M43.505 52.851L30.735 58.0146M30.735 58.0146C30.4764 57.4703 30.2477 56.9263 30.0831 56.421C29.7911 55.5243 29.5667 54.7045 29.4052 53.9205M29.4052 53.9205C29.0014 51.9599 28.9912 50.2228 29.3027 48.0663M29.3027 48.0663C29.3582 47.6817 29.424 47.2838 29.4995 46.8689C29.7615 45.4313 30.0614 44.1998 30.4637 43.0762M30.4637 43.0762C31.1157 41.2551 32.0366 39.7176 33.5002 38.0455M33.5002 38.0455C33.6521 37.872 33.8098 37.697 33.9737 37.5201C34.7935 36.6353 35.6084 35.8856 36.4387 35.254M33.5002 38.0455L9.72988 19.3878M36.4387 35.254C37.7775 34.2356 39.1565 33.5243 40.6606 33.0488M40.6606 33.0488C42.132 32.5837 43.7232 32.3441 45.5138 32.2634M45.5138 32.2634C45.8112 32.25 46.1141 32.241 46.4229 32.236C47.9718 32.2112 49.2178 32.3551 50.4124 32.6417M50.4124 32.6417C51.798 32.9742 53.1146 33.4987 54.7551 34.1745M58.2097 35.9554C60.0147 37.0426 61.6394 38.2034 62.1826 38.5986M89.8033 106.01C89.1085 103.994 89.3627 102.616 89.8033 100.523C90.3802 97.7824 91.0433 96.0145 93.1103 94.2227C94.8691 92.6981 96.2717 91.9871 98.5571 91.9871C100.842 91.9871 102.303 92.6279 104.004 94.2227C106.24 96.3199 106.505 98.6111 106.727 101.742C106.874 103.814 106.937 105.122 106.144 107.026C105.094 109.549 103.782 111.048 101.28 111.904C98.7279 112.777 96.8661 112.16 94.472 110.888C92.1736 109.667 90.6767 108.545 89.8033 106.01ZM75.2137 100.929C77.722 99.6403 79.0974 98.1774 80.0769 95.4421C80.9819 92.9147 81.0894 91.0146 80.0769 88.5321C79.2335 86.4643 78.4176 85.8009 76.3808 85.0771C74.165 84.2897 72.0274 85.1474 69.9614 86.2965C67.4361 87.7011 66.6195 88.4793 65.4873 91.2242C64.4685 93.6942 63.8442 95.6327 64.9031 98.0841C65.721 99.9777 66.7553 100.966 68.5997 101.742C71.0121 102.758 72.88 102.129 75.2137 100.929ZM92.3322 100.523L97.3899 97.4744L100.697 100.929L98.9461 109.465L98.168 103.775L97.0008 100.523H92.3322ZM71.5176 99.9132L70.7395 92.5968L74.241 88.9386L79.1042 93.613L75.6027 92.5968L73.0739 94.2227L71.5176 99.9132Z" stroke="black" stroke-width="0.635294"/>
</svg>
