<svg width="194" height="184" viewBox="0 0 194 184" fill="none" xmlns="http://www.w3.org/2000/svg">
<path d="M145.742 71.6171C150.15 75.9621 153.049 85.8049 153.049 85.8049C153.049 85.8049 155.742 87.094 159.233 88.223C159.233 88.223 158.196 83.0293 158.296 79.6696L158.297 79.6322C158.406 75.9995 158.472 73.7671 159.982 70.4668C161.567 67.0024 166.166 62.9894 166.166 62.9894L157.493 60.6887L136.935 55.2351L135.811 54.9369C135.811 54.9369 137.221 51.6925 136.935 49.5686C136.653 47.4786 134.499 44.7754 134.499 44.7754C134.499 44.7754 126.974 49.6104 121.757 51.8693C116.877 53.9825 114.066 55.262 108.828 56.0873C103.693 56.8963 100.651 56.9462 95.5242 56.0873C92.2307 55.5355 87.2795 53.7865 87.2795 53.7865C87.2795 53.7865 83.1933 52.8645 80.5339 52.8279C77.8836 52.7914 76.4185 53.2598 73.7882 53.5948C70.194 54.0527 68.0925 53.9303 64.6067 54.9369C62.1922 55.6342 58.6106 57.2966 58.6106 57.2966C58.6106 57.2966 63.9007 61.4177 65.9183 65.0984C67.1417 67.3302 67.7921 69.5081 68.3543 71.6171C68.9164 73.7261 68.729 77.1772 67.6047 80.82C66.4805 84.4628 65.3562 85.8049 65.3562 85.8049H80.5339V91.9401H83.5319L86.9047 89.8311L93.2756 84.0794C93.2756 84.0794 97.5645 79.2308 100.583 76.4103C104.626 72.6332 106.755 70.1225 111.639 67.5909C115.747 65.4611 118.297 64.4022 122.881 63.9481C127.201 63.5202 129.765 63.8738 133.937 65.0984C138.972 66.5767 141.969 67.8985 145.742 71.6171Z" fill="#24161A"/>
<path d="M153.612 103.635L153.049 85.8049C153.049 85.8049 150.15 75.9621 145.742 71.6171C141.969 67.8985 138.972 66.5767 133.937 65.0984C129.765 63.8738 127.201 63.5202 122.881 63.9481C118.297 64.4022 115.747 65.4611 111.639 67.5909C106.755 70.1225 104.626 72.6332 100.583 76.4103C97.5645 79.2308 93.2756 84.0794 93.2756 84.0794L86.9047 89.8311L83.5319 91.9401H80.5339V100.76C80.5339 100.76 86.1037 104.878 90.0902 106.703C94.3384 108.648 96.007 109.863 100.583 110.729C105.203 111.604 108.87 112.333 113.565 112.51C117.806 112.671 119.896 112.654 124.137 112.51C129.197 112.34 133.384 111.914 138.363 110.976C142.396 110.216 143.685 108.992 147.428 107.278C149.971 106.114 153.612 103.635 153.612 103.635Z" fill="#FDF7D8"/>
<path d="M153.612 114.756V103.635C153.612 103.635 149.971 106.114 147.428 107.278C143.685 108.992 142.396 110.216 138.363 110.976C133.384 111.914 129.197 112.34 124.137 112.51C119.896 112.654 117.806 112.671 113.565 112.51C108.87 112.333 105.203 111.604 100.583 110.729C96.007 109.863 94.3384 108.648 90.0902 106.703C86.1037 104.878 80.5339 100.76 80.5339 100.76L78.8475 110.729C78.8475 110.729 88.7371 117.637 95.8989 120.124C104.15 122.989 109.659 124.586 118.371 124.787L118.634 124.793C130.064 125.058 137.551 125.231 147.428 119.357C150.016 117.818 153.612 114.756 153.612 114.756Z" fill="#870303"/>
<path d="M103.019 155.21C103.019 155.21 119.91 146.731 131.313 147.541C131.313 147.541 145.72 141.9 153.612 136.037C159.758 131.471 167.799 122.425 167.799 122.425C167.714 122.235 167.608 122.043 167.478 121.849C165.858 119.453 163.508 119.804 160.919 118.59C159.609 117.976 157.546 117.056 157.546 117.056C157.546 117.056 156.991 115.239 156.047 114.756C155.197 114.32 153.612 114.756 153.612 114.756C153.612 114.756 150.016 117.818 147.428 119.357C137.551 125.231 130.064 125.058 118.634 124.793L118.371 124.787C109.659 124.586 104.15 122.989 95.8989 120.124C88.7371 117.637 78.8475 110.729 78.8475 110.729L70.0407 121.849L64.6067 128.752C63.4824 129.902 61.9834 135.462 61.9834 135.462C61.9834 135.462 72.5086 135.404 78.8475 137.379C89.9795 140.849 103.019 155.21 103.019 155.21Z" fill="#870303"/>
<path d="M179.845 152.334C179.845 152.334 181.907 145.288 181.156 140.83C180.593 137.487 179.954 135.497 177.971 132.778C175.385 129.233 170.806 130.363 168.789 126.451C168.043 125.003 168.394 123.747 167.799 122.425C167.799 122.425 159.758 131.471 153.612 136.037C145.72 141.9 131.313 147.541 131.313 147.541C141.63 148.273 156.047 157.217 156.047 157.217L167.478 157.511L174.036 155.977L179.845 152.334Z" fill="#24161A"/>
<path d="M67.4174 169.781C67.4174 169.781 77.9127 167.802 84.2814 165.371C92.0409 162.41 103.019 155.21 103.019 155.21C103.019 155.21 89.9795 140.849 78.8475 137.379C72.5086 135.404 61.9834 135.462 61.9834 135.462C61.9834 135.462 57.8989 142.422 54.863 146.582C51.9423 150.584 46.8057 157.511 46.8057 157.511C46.8057 157.511 48.9287 161.58 50.928 163.646C52.9274 165.712 67.4174 169.781 67.4174 169.781Z" fill="#24161A"/>
<path d="M155.298 168.631L177.971 174.766L186.965 173.807L189.963 168.631V163.646L185.653 161.729L179.845 157.511V154.443L176.097 157.511L165.979 159.811L156.668 158.469L155.298 168.631Z" fill="#24161A"/>
<path d="M31.628 177.834C31.628 177.834 36.6873 182.435 39.3106 183.01C41.9339 183.585 48.2544 181.308 53.9261 179.943C59.2303 178.666 67.4174 176.3 67.4174 176.3V169.781C67.4174 169.781 59.4572 171.533 54.863 169.781C51.1876 168.38 46.8057 163.646 46.8057 163.646C46.8057 163.646 30.5038 172.274 30.5038 174.766C30.5038 177.258 31.628 177.834 31.628 177.834Z" fill="#24161A"/>
<path d="M172.162 75.2599C168.931 73.6997 166.915 67.5909 166.915 67.5909C166.915 67.5909 163.699 69.6208 162.418 71.6171C160.504 74.6016 161.072 77.062 160.919 80.6282C160.781 83.8591 161.481 88.8893 161.481 88.8893C164.055 89.578 166.821 90.0493 169.164 89.8311C174.115 89.3702 177.516 88.924 181.156 85.4598C185.572 81.2579 186.028 70.4668 186.028 70.4668C186.028 70.4668 182.836 74.2534 180.032 75.2599C177.132 76.3009 174.941 76.602 172.162 75.2599Z" fill="#24161A"/>
<path d="M166.166 62.9894L166.915 67.5909C166.915 67.5909 168.931 73.6997 172.162 75.2599C174.941 76.602 177.132 76.3009 180.032 75.2599C182.836 74.2534 186.028 70.4668 186.028 70.4668C186.028 70.4668 187.59 65.987 187.902 62.9894C188.267 59.483 188.839 55.5121 187.34 53.9783C186.09 52.7001 185.315 52.6914 184.154 52.5537C183.922 52.5262 183.675 52.4935 183.405 52.4445C181.892 52.1695 180.931 51.9566 179.47 52.4445C178.775 52.6766 177.795 53.3013 177.795 53.3013L177.596 53.4031L178.346 55.5121L176.284 57.0459L178.346 61.0722L174.973 62.2225L176.284 66.2488L170.288 62.9894H166.166Z" fill="#24161A"/>
<path d="M43.8077 81.3952L50.928 84.0794L60.6717 85.4598C60.6717 85.4598 63.4332 82.213 64.2319 79.6696C65.2169 76.5331 64.8784 74.461 64.2319 71.2337C63.7298 68.7269 63.3092 67.2681 61.9834 65.0984C60.0309 61.9032 54.863 58.7714 54.863 58.7714L49.6164 60.6887C49.6164 60.6887 48.8366 63.4302 48.1174 65.0984C47.2711 67.0613 47.0539 68.4579 45.4941 69.8916C43.0492 72.1387 37.2494 71.6171 37.2494 71.6171L43.8077 81.3952Z" fill="#24161A"/>
<path d="M29.3795 69.1247L37.2494 71.6171C37.2494 71.6171 41.2273 69.2756 43.0581 67.0157C44.2115 65.592 45.1213 64.7989 45.4941 62.9894C45.7205 61.8905 45.964 61.1285 45.4941 60.1135C45.2053 59.4897 44.3698 58.7714 44.3698 58.7714L40.997 58.388L42.496 56.0873L41.9339 52.8279L38.7484 52.1569L35.563 51.4858L35.0009 52.5403L34.4387 53.5948L35.563 56.0873L34.4387 58.7714C34.4387 58.7714 32.5927 58.1272 31.4407 58.388C30.2515 58.6572 28.8174 60.1135 28.8174 60.1135L26.9436 59.3466L25.2572 60.6887L24.695 65.0984L29.3795 69.1247Z" fill="#24161A"/>
<path d="M44.3698 58.7714C44.3698 58.7714 45.2053 59.4897 45.4941 60.1135C45.964 61.1285 45.7205 61.8905 45.4941 62.9894C45.1213 64.7989 44.2115 65.592 43.0581 67.0157C41.2273 69.2756 37.2494 71.6171 37.2494 71.6171C37.2494 71.6171 43.0492 72.1387 45.4941 69.8916C47.0539 68.4579 47.2711 67.0613 48.1174 65.0984C48.8366 63.4302 49.6164 60.6887 49.6164 60.6887L46.8057 56.0873L44.3698 58.7714Z" fill="#24161A"/>
<path d="M166.915 67.5909L166.166 62.9894C166.166 62.9894 161.567 67.0024 159.982 70.4668C158.472 73.7671 158.406 75.9995 158.297 79.6322L158.296 79.6696C158.196 83.0293 159.233 88.223 159.233 88.223C159.954 88.4562 160.709 88.6825 161.481 88.8893C161.481 88.8893 160.781 83.8591 160.919 80.6282C161.072 77.062 160.504 74.6016 162.418 71.6171C163.699 69.6208 166.915 67.5909 166.915 67.5909Z" fill="#FDA119"/>
<path d="M54.863 58.7714C54.863 58.7714 60.0309 61.9032 61.9834 65.0984C63.3092 67.2681 63.7298 68.7269 64.2319 71.2337C64.8784 74.461 65.2169 76.5331 64.2319 79.6696C63.4332 82.213 60.6717 85.4598 60.6717 85.4598L63.1077 85.8049H65.3562C65.3562 85.8049 66.4805 84.4628 67.6047 80.82C68.729 77.1772 68.9164 73.7261 68.3543 71.6171C67.7921 69.5081 67.1417 67.3302 65.9183 65.0984C63.9007 61.4177 58.6106 57.2966 58.6106 57.2966L54.863 58.7714Z" fill="#FDA119"/>
<path fill-rule="evenodd" clip-rule="evenodd" d="M87.2795 53.7865C87.2795 53.7865 92.2307 55.5355 95.5242 56.0873C100.651 56.9462 103.693 56.8963 108.828 56.0873C114.066 55.262 116.877 53.9825 121.757 51.8693C126.974 49.6104 134.499 44.7754 134.499 44.7754C134.499 44.7754 135.565 41.3164 135.811 39.0236C136.276 34.6754 135.661 32.1128 134.499 27.9035C133.315 23.6159 132.335 21.1831 129.814 17.5502C128.344 15.431 125.505 12.5653 125.505 12.5653L124.38 14.6743C124.38 14.6743 121.817 14.1341 120.258 13.524C118.24 12.7339 117.22 12.0103 115.386 10.8398C113.871 9.87212 113.344 8.70047 111.639 8.15562C109.962 7.61999 107.142 8.15562 107.142 8.15562L108.172 6.71767C108.172 6.71767 101.847 5.70731 97.9601 6.6218C95.1804 7.27582 91.2145 9.48685 91.2145 9.48685C91.2145 9.48685 89.2052 10.1683 88.029 10.8398C84.9551 12.5947 83.7127 14.497 81.8455 17.5502C81.1856 18.6292 80.3465 20.4261 80.3465 20.4261C80.3465 20.4261 79.2876 22.1115 78.8475 23.302C77.6713 26.4835 79.6362 28.7679 78.9305 31.977C79.2412 30.9751 79.597 30.2041 79.597 30.2041C79.597 30.2041 79.3028 26.7729 80.5339 25.2192C81.3964 24.1307 82.1414 23.314 83.5319 23.302C85.3654 23.2862 86.7584 25.588 86.9047 26.5613L87.2795 29.0538C87.4259 30.0271 87.0725 31.8339 86.1552 33.2718C85.0768 34.9623 83.9957 35.9155 82.0329 36.3394C81.0316 36.5557 80.3501 36.7448 79.4096 36.3394C78.265 35.8461 78.359 34.2121 78.7143 32.7544C78.192 34.3536 77.1611 36.3394 77.1611 36.3394C77.1611 36.3394 75.4151 40.4146 75.8494 43.0499C76.2524 45.4952 75.5545 46.5883 78.8475 48.6099L87.2795 53.7865ZM94.2125 32.3132C93.2747 30.2712 93.4114 28.6605 94.2125 26.5613C95.1077 24.2156 96.3258 22.7612 98.7096 21.9599C100.726 21.2822 102.114 21.7058 104.144 22.3433C106.68 23.1403 108.211 24.0242 109.765 26.1779C111.065 27.9797 111.785 29.331 111.639 31.5462C111.502 33.6085 111.043 35.0933 109.39 36.3394C107.843 37.5061 106.456 37.3846 104.518 37.298C102.938 37.2274 100.583 36.3394 100.583 36.3394C100.583 36.3394 95.4395 34.9847 94.2125 32.3132ZM82.0329 40.1928C82.4077 41.5539 85.8835 42.8783 85.8835 42.8783C85.8835 42.8783 91.9554 40.4045 91.5049 38.852C91.0543 37.2996 90.1126 37.1236 90.1126 37.1236C90.1126 37.1236 86.5049 36.4658 84.2814 36.9146C83.4622 37.0799 82.4077 37.892 82.4077 37.892C82.4077 37.892 81.6581 38.8316 82.0329 40.1928Z" fill="#FDF7D8"/>
<path d="M124.38 14.6743L125.505 12.5653C125.505 12.5653 126.773 7.59556 125.505 4.89627C124.807 3.41012 122.881 1.63691 122.881 1.63691C122.881 1.63691 121.133 0.567906 119.883 0.294827C118.307 -0.0495289 117.327 0.0982459 115.761 0.486554C112.702 1.24494 111.203 2.79339 109.203 5.27972C108.77 5.81735 108.172 6.71767 108.172 6.71767L107.142 8.15562C107.142 8.15562 109.962 7.61999 111.639 8.15562C113.344 8.70047 113.871 9.87212 115.386 10.8398C117.22 12.0103 118.24 12.7339 120.258 13.524C121.817 14.1341 124.38 14.6743 124.38 14.6743Z" fill="#24161A"/>
<path d="M81.8455 17.5502C83.7127 14.497 84.9551 12.5947 88.029 10.8398C89.2052 10.1683 91.2145 9.48685 91.2145 9.48685C91.2145 9.48685 90.3368 6.96107 89.1533 5.8549C87.4092 4.22485 85.6998 3.94533 83.3445 4.12936C81.4743 4.27549 80.2706 4.60477 78.8475 5.8549C77.083 7.4049 76.6015 9.04339 76.4115 11.415C76.2129 13.8956 76.871 15.4011 78.098 17.5502C78.807 18.7921 80.3465 20.4261 80.3465 20.4261C80.3465 20.4261 81.1856 18.6292 81.8455 17.5502Z" fill="#24161A"/>
<path d="M6.89407 35.3808L0.148438 46.3092L19.7412 54.1599L23.553 49.2938L6.89407 35.3808Z" fill="#D62E00"/>
<path d="M16.0862 27.5724L6.89407 35.3808L23.553 49.2938L26.8438 45.0927L16.0862 27.5724Z" fill="#D62E00"/>
<path d="M27.6931 23.302L16.8251 26.9448L16.0862 27.5724L26.8438 45.0927L27.6931 44.0085L32.1424 43.0867L27.6931 23.302Z" fill="#D62E00"/>
<path d="M38.0409 22.0241L27.6931 23.302L32.1424 43.0867L36.0227 42.2829L38.0409 22.0241Z" fill="#D62E00"/>
<path d="M60.6717 30.5876L50.928 24.2606L42.4386 43.705L43.8077 44.0085L46.9325 46.8949L60.6717 30.5876Z" fill="#D62E00"/>
<path d="M50.928 24.2606L38.5611 21.9599L38.0409 22.0241L36.0227 42.2829L42.4386 43.705L50.928 24.2606Z" fill="#D62E00"/>
<path d="M68.3543 39.2153L60.6717 30.5876L46.9325 46.8949L50.928 50.5855L68.3543 39.2153Z" fill="#D62E00"/>
<path d="M193.148 29.629L182.468 25.2192L179.649 44.8153C182.38 45.4573 186.028 47.7777 186.028 47.7777L193.148 29.629Z" fill="#FBDE00"/>
<path d="M182.468 25.2192H169.164L173.525 44.5921C175.344 44.2636 177.242 44.3063 179.47 44.7754C179.529 44.7878 179.588 44.8011 179.649 44.8153L182.468 25.2192Z" fill="#FBDE00"/>
<path d="M169.164 25.2192L158.296 28.4786L168.1 46.613C169.992 45.6098 171.719 44.9181 173.525 44.5921L169.164 25.2192Z" fill="#FBDE00"/>
<path d="M158.296 28.4786L149.489 34.9973L163.623 49.4592C164.557 48.6955 165.62 48.0101 166.915 47.2678C167.319 47.0368 167.713 46.8184 168.1 46.613L158.296 28.4786Z" fill="#FBDE00"/>
<path d="M149.489 34.9973L141.807 43.0499L160.234 53.3816C161.305 51.6966 162.344 50.5046 163.623 49.4592L149.489 34.9973Z" fill="#FBDE00"/>
<path d="M141.807 43.0499L136.935 55.2351L157.493 60.6887C157.493 60.6887 158.495 56.2236 159.982 53.7865C160.067 53.6484 160.151 53.5135 160.234 53.3816L141.807 43.0499Z" fill="#FBDE00"/>
<path d="M31.4407 52.5794L34.1175 51.8693L32.1424 43.0867L27.6931 44.0085L26.8438 45.0927L31.4407 52.5794Z" fill="#EEDFA8"/>
<path d="M30.5038 52.8279L31.4407 52.5794L26.8438 45.0927L23.553 49.2938L29.3795 54.1599L30.5038 52.8279Z" fill="#EEDFA8"/>
<path d="M26.9436 57.0459L29.3795 54.1599L23.553 49.2938L19.7412 54.1599L26.9436 57.0459Z" fill="#EEDFA8"/>
<path d="M35.563 51.4858L38.7484 52.1569L42.4386 43.705L36.0227 42.2829L35.0935 51.6104L35.563 51.4858Z" fill="#EEDFA8"/>
<path d="M36.0227 42.2829L32.1424 43.0867L34.1175 51.8693L35.0935 51.6104L36.0227 42.2829Z" fill="#EEDFA8"/>
<path d="M38.7484 52.1569L41.9339 52.8279L46.9325 46.8949L43.8077 44.0085L42.4386 43.705L38.7484 52.1569Z" fill="#EEDFA8"/>
<path d="M41.9339 52.8279L42.496 56.0873L50.928 50.5855L46.9325 46.8949L41.9339 52.8279Z" fill="#EEDFA8"/>
<path d="M166.166 62.9894C166.166 62.9894 166.308 61.5092 166.728 60.6887C167.329 59.5152 167.904 58.6916 169.164 58.388L160.234 53.3816C160.151 53.5135 160.067 53.6484 159.982 53.7865C158.495 56.2236 157.493 60.6887 157.493 60.6887L166.166 62.9894Z" fill="#EEDFA8"/>
<path d="M169.164 58.388C170.339 58.1049 172.162 59.1549 172.162 59.1549L171.038 57.0459L163.623 49.4592C162.344 50.5046 161.305 51.6966 160.234 53.3816L169.164 58.388Z" fill="#EEDFA8"/>
<path d="M171.038 57.0459C171.038 57.0459 171.989 55.6788 172.912 55.5121L168.1 46.613C167.713 46.8184 167.319 47.0368 166.915 47.2678C165.62 48.0101 164.557 48.6955 163.623 49.4592L171.038 57.0459Z" fill="#EEDFA8"/>
<path d="M172.912 55.5121C173.733 55.3637 174.973 56.0873 174.973 56.0873C174.973 56.0873 174.372 55.192 174.411 54.5535C174.443 54.0106 174.936 53.6992 175.535 53.5219L173.525 44.5921C171.719 44.9181 169.992 45.6098 168.1 46.613L172.912 55.5121Z" fill="#EEDFA8"/>
<path d="M177.795 53.3013L179.47 44.7754C177.242 44.3063 175.344 44.2636 173.525 44.5921L175.535 53.5219C176.52 53.2304 177.795 53.3013 177.795 53.3013Z" fill="#EEDFA8"/>
<path d="M179.47 52.4445C180.931 51.9566 181.892 52.1695 183.405 52.4445C183.675 52.4935 183.922 52.5262 184.154 52.5537L186.028 47.7777C186.028 47.7777 182.38 45.4573 179.649 44.8153C179.588 44.8011 179.529 44.7878 179.47 44.7754L177.795 53.3013C177.795 53.3013 178.775 52.6766 179.47 52.4445Z" fill="#EEDFA8"/>
<path fill-rule="evenodd" clip-rule="evenodd" d="M94.2125 26.5613C93.4114 28.6605 93.2747 30.2712 94.2125 32.3132C95.4395 34.9847 100.583 36.3394 100.583 36.3394C100.583 36.3394 102.938 37.2274 104.518 37.298C106.456 37.3846 107.843 37.5061 109.39 36.3394C111.043 35.0933 111.502 33.6085 111.639 31.5462C111.785 29.331 111.065 27.9797 109.765 26.1779C108.211 24.0242 106.68 23.1403 104.144 22.3433C102.114 21.7058 100.726 21.2822 98.7096 21.9599C96.3258 22.7612 95.1077 24.2156 94.2125 26.5613ZM101.646 26.3814L96.8407 29.4506L100.583 29.0538L102.8 30.4097L104.144 34.438L105.491 28.2997L101.646 26.3814Z" fill="black"/>
<path d="M26.9436 59.3466L28.8174 60.1135C28.8174 60.1135 30.2515 58.6572 31.4407 58.388C32.5927 58.1272 34.4387 58.7714 34.4387 58.7714L35.563 56.0873L34.4387 53.5948L35.0009 52.5403L35.0935 51.6104L34.1175 51.8693L31.4407 52.5794L30.5038 52.8279L29.3795 54.1599L26.9436 57.0459V59.3466Z" fill="#F8780F"/>
<path d="M178.346 55.5121L177.596 53.4031L177.795 53.3013C177.795 53.3013 176.52 53.2304 175.535 53.5219C174.936 53.6992 174.443 54.0106 174.411 54.5535C174.372 55.192 174.973 56.0873 174.973 56.0873C174.973 56.0873 173.733 55.3637 172.912 55.5121C171.989 55.6788 171.038 57.0459 171.038 57.0459L172.162 59.1549C172.162 59.1549 170.339 58.1049 169.164 58.388C167.904 58.6916 167.329 59.5152 166.728 60.6887C166.308 61.5092 166.166 62.9894 166.166 62.9894H170.288L176.284 66.2488L174.973 62.2225L178.346 61.0722L176.284 57.0459L178.346 55.5121Z" fill="#F8780F"/>
<path fill-rule="evenodd" clip-rule="evenodd" d="M79.4096 36.3394C80.3501 36.7448 81.0316 36.5557 82.0329 36.3394C83.9957 35.9155 85.0768 34.9623 86.1552 33.2718C87.0725 31.8339 87.4259 30.0271 87.2795 29.0538L86.9047 26.5613C86.7584 25.588 85.3654 23.2862 83.5319 23.302C82.1414 23.314 81.3964 24.1307 80.5339 25.2192C79.3028 26.7729 79.597 30.2041 79.597 30.2041C79.597 30.2041 79.2412 30.9751 78.9305 31.977C78.9061 32.0879 78.8785 32.2 78.8475 32.3132C78.8085 32.4554 78.7637 32.6032 78.7143 32.7544C78.359 34.2121 78.265 35.8461 79.4096 36.3394ZM80.5339 28.8751L82.0329 34.6299L82.6156 29.8343L83.5319 28.6703L86.1552 29.0538L82.6156 26.3814L80.5339 28.8751Z" fill="black"/>
<path d="M82.0329 34.6299L80.5339 28.8751L82.6156 26.3814L86.1552 29.0538L83.5319 28.6703L82.6156 29.8343L82.0329 34.6299Z" fill="#FAF8ED"/>
<path d="M96.8407 29.4506L101.646 26.3814L105.491 28.2997L104.144 34.438L102.8 30.4097L100.583 29.0538L96.8407 29.4506Z" fill="#FAF8ED"/>
<path d="M85.8835 42.8783C85.8835 42.8783 82.4077 41.5539 82.0329 40.1928C81.6581 38.8316 82.4077 37.892 82.4077 37.892C82.4077 37.892 83.4622 37.0799 84.2814 36.9146C86.5049 36.4658 90.1126 37.1236 90.1126 37.1236C90.1126 37.1236 91.0543 37.2996 91.5049 38.852C91.9554 40.4045 85.8835 42.8783 85.8835 42.8783Z" fill="black"/>
<path d="M46.8057 163.646C46.8057 163.646 51.1876 168.38 54.863 169.781C59.4572 171.533 67.4174 169.781 67.4174 169.781C67.4174 169.781 52.9274 165.712 50.928 163.646C48.9287 161.58 46.8057 157.511 46.8057 157.511V163.646Z" fill="#870303"/>
<path d="M156.797 157.511L156.668 158.469L165.979 159.811L176.097 157.511L179.845 154.443V152.334L174.036 155.977L167.478 157.511L156.047 157.217L156.797 157.511Z" fill="#870303"/>
<path d="M67.4174 169.781V176.3C67.4174 176.3 59.2303 178.666 53.9261 179.943C48.2544 181.308 41.9339 183.585 39.3106 183.01C36.6873 182.435 31.628 177.834 31.628 177.834C31.628 177.834 30.5038 177.258 30.5038 174.766C30.5038 172.274 46.8057 163.646 46.8057 163.646M67.4174 169.781C67.4174 169.781 77.9127 167.802 84.2814 165.371C92.0409 162.41 103.019 155.21 103.019 155.21M67.4174 169.781C67.4174 169.781 59.4572 171.533 54.863 169.781C51.1876 168.38 46.8057 163.646 46.8057 163.646M67.4174 169.781C67.4174 169.781 52.9274 165.712 50.928 163.646C48.9287 161.58 46.8057 157.511 46.8057 157.511M103.019 155.21C103.019 155.21 119.91 146.731 131.313 147.541M103.019 155.21C103.019 155.21 89.9795 140.849 78.8475 137.379C72.5086 135.404 61.9834 135.462 61.9834 135.462M131.313 147.541C141.63 148.273 156.047 157.217 156.047 157.217M131.313 147.541C131.313 147.541 145.72 141.9 153.612 136.037C159.758 131.471 167.799 122.425 167.799 122.425M179.845 152.334C179.845 152.334 181.907 145.288 181.156 140.83C180.593 137.487 179.954 135.497 177.971 132.778C175.385 129.233 170.806 130.363 168.789 126.451C168.043 125.003 168.394 123.747 167.799 122.425M179.845 152.334V154.443M179.845 152.334L174.036 155.977L167.478 157.511L156.047 157.217M153.612 114.756C153.612 114.756 155.197 114.32 156.047 114.756C156.991 115.239 157.546 117.056 157.546 117.056C157.546 117.056 159.609 117.976 160.919 118.59C163.508 119.804 165.858 119.453 167.478 121.849C167.608 122.043 167.714 122.235 167.799 122.425M153.612 114.756L144.992 126.451M153.612 114.756V103.635M153.612 114.756C153.612 114.756 150.016 117.818 147.428 119.357C137.551 125.231 130.064 125.058 118.634 124.793M153.612 103.635L153.049 85.8049M153.612 103.635C153.612 103.635 149.971 106.114 147.428 107.278C143.685 108.992 142.396 110.216 138.363 110.976C133.384 111.914 129.197 112.34 124.137 112.51C119.896 112.654 117.806 112.671 113.565 112.51C108.87 112.333 105.203 111.604 100.583 110.729C96.007 109.863 94.3384 108.648 90.0902 106.703C86.1037 104.878 80.5339 100.76 80.5339 100.76M153.049 85.8049C153.049 85.8049 150.15 75.9621 145.742 71.6171C141.969 67.8985 138.972 66.5767 133.937 65.0984C129.765 63.8738 127.201 63.5202 122.881 63.9481C118.297 64.4022 115.747 65.4611 111.639 67.5909C106.755 70.1225 104.626 72.6332 100.583 76.4103C97.5645 79.2308 93.2756 84.0794 93.2756 84.0794L86.9047 89.8311L83.5319 91.9401H80.5339M153.049 85.8049C153.049 85.8049 155.742 87.094 159.233 88.223M80.5339 91.9401V100.76M80.5339 91.9401V85.8049M80.5339 100.76L78.8475 110.729M80.5339 85.8049C80.5339 85.8049 81.6288 84.0112 82.0329 82.7373C82.8687 80.1022 82.498 78.3725 82.0329 75.6434C81.4633 72.3013 78.8475 67.5909 78.8475 67.5909M80.5339 85.8049H65.3562M37.2494 71.6171L43.8077 81.3952L50.928 84.0794L60.6717 85.4598M37.2494 71.6171L29.3795 69.1247L24.695 65.0984L25.2572 60.6887L26.9436 59.3466M37.2494 71.6171C37.2494 71.6171 41.2273 69.2756 43.0581 67.0157C44.2115 65.592 45.1213 64.7989 45.4941 62.9894C45.7205 61.8905 45.964 61.1285 45.4941 60.1135C45.2053 59.4897 44.3698 58.7714 44.3698 58.7714M37.2494 71.6171C37.2494 71.6171 43.0492 72.1387 45.4941 69.8916C47.0539 68.4579 47.2711 67.0613 48.1174 65.0984C48.8366 63.4302 49.6164 60.6887 49.6164 60.6887M26.9436 59.3466L28.8174 60.1135C28.8174 60.1135 30.2515 58.6572 31.4407 58.388C32.5927 58.1272 34.4387 58.7714 34.4387 58.7714L35.563 56.0873L34.4387 53.5948L35.0009 52.5403M26.9436 59.3466V57.0459M35.563 51.4858L38.7484 52.1569M35.563 51.4858L35.0009 52.5403M35.563 51.4858L35.0935 51.6104M41.9339 52.8279L42.496 56.0873M41.9339 52.8279L38.7484 52.1569M41.9339 52.8279L46.9325 46.8949M42.496 56.0873L40.997 58.388L44.3698 58.7714M42.496 56.0873L50.928 50.5855M44.3698 58.7714L46.8057 56.0873L49.6164 60.6887M26.9436 57.0459L29.3795 54.1599M26.9436 57.0459L19.7412 54.1599M49.6164 60.6887L54.863 58.7714M54.863 58.7714C54.863 58.7714 60.0309 61.9032 61.9834 65.0984C63.3092 67.2681 63.7298 68.7269 64.2319 71.2337C64.8784 74.461 65.2169 76.5331 64.2319 79.6696C63.4332 82.213 60.6717 85.4598 60.6717 85.4598M54.863 58.7714L58.6106 57.2966M87.2795 53.7865C87.2795 53.7865 83.1933 52.8645 80.5339 52.8279C77.8836 52.7914 76.4185 53.2598 73.7882 53.5948C70.194 54.0527 68.0925 53.9303 64.6067 54.9369C62.1922 55.6342 58.6106 57.2966 58.6106 57.2966M87.2795 53.7865C87.2795 53.7865 92.2307 55.5355 95.5242 56.0873C100.651 56.9462 103.693 56.8963 108.828 56.0873C114.066 55.262 116.877 53.9825 121.757 51.8693C126.974 49.6104 134.499 44.7754 134.499 44.7754M87.2795 53.7865C83.9866 51.765 82.1404 50.6315 78.8475 48.6099M87.2795 53.7865L78.8475 48.6099M134.499 44.7754C134.499 44.7754 136.653 47.4786 136.935 49.5686C137.221 51.6925 135.811 54.9369 135.811 54.9369L136.935 55.2351M134.499 44.7754C134.499 44.7754 135.565 41.3164 135.811 39.0236C136.276 34.6754 135.661 32.1128 134.499 27.9035C133.315 23.6159 132.335 21.1831 129.814 17.5502C128.344 15.431 125.505 12.5653 125.505 12.5653M166.166 62.9894L166.915 67.5909M166.166 62.9894H170.288L176.284 66.2488L174.973 62.2225L178.346 61.0722L176.284 57.0459L178.346 55.5121L177.596 53.4031L177.795 53.3013M166.166 62.9894C166.166 62.9894 166.308 61.5092 166.728 60.6887C167.329 59.5152 167.904 58.6916 169.164 58.388M166.166 62.9894C166.166 62.9894 161.567 67.0024 159.982 70.4668C158.472 73.7671 158.406 75.9995 158.297 79.6322M166.166 62.9894L157.493 60.6887M166.915 67.5909C166.915 67.5909 168.931 73.6997 172.162 75.2599C174.941 76.602 177.132 76.3009 180.032 75.2599C182.836 74.2534 186.028 70.4668 186.028 70.4668M166.915 67.5909C166.915 67.5909 163.699 69.6208 162.418 71.6171C160.504 74.6016 161.072 77.062 160.919 80.6282C160.781 83.8591 161.481 88.8893 161.481 88.8893M186.028 70.4668C186.028 70.4668 187.59 65.987 187.902 62.9894C188.267 59.483 188.839 55.5121 187.34 53.9783C186.09 52.7001 185.315 52.6914 184.154 52.5537M186.028 70.4668C186.028 70.4668 185.572 81.2579 181.156 85.4598C177.516 88.924 174.115 89.3702 169.164 89.8311C166.821 90.0493 164.055 89.578 161.481 88.8893M169.164 58.388C170.339 58.1049 172.162 59.1549 172.162 59.1549L171.038 57.0459M169.164 58.388L160.234 53.3816M171.038 57.0459C171.038 57.0459 171.989 55.6788 172.912 55.5121M171.038 57.0459L163.623 49.4592M172.912 55.5121C173.733 55.3637 174.973 56.0873 174.973 56.0873C174.973 56.0873 174.372 55.192 174.411 54.5535C174.443 54.0106 174.936 53.6992 175.535 53.5219M172.912 55.5121L168.1 46.613M177.795 53.3013C177.795 53.3013 178.775 52.6766 179.47 52.4445C180.931 51.9566 181.892 52.1695 183.405 52.4445C183.675 52.4935 183.922 52.5262 184.154 52.5537M177.795 53.3013L179.47 44.7754M177.795 53.3013C177.795 53.3013 176.52 53.2304 175.535 53.5219M125.505 12.5653L124.38 14.6743C124.38 14.6743 121.817 14.1341 120.258 13.524C118.24 12.7339 117.22 12.0103 115.386 10.8398C113.871 9.87212 113.344 8.70047 111.639 8.15562C109.962 7.61999 107.142 8.15562 107.142 8.15562L108.172 6.71767M125.505 12.5653C125.505 12.5653 126.773 7.59556 125.505 4.89627C124.807 3.41012 122.881 1.63691 122.881 1.63691C122.881 1.63691 121.133 0.567906 119.883 0.294827C118.307 -0.0495289 117.327 0.0982459 115.761 0.486554C112.702 1.24494 111.203 2.79339 109.203 5.27972C108.77 5.81735 108.172 6.71767 108.172 6.71767M78.8475 48.6099C75.5545 46.5883 76.2524 45.4952 75.8494 43.0499C75.4151 40.4146 77.1611 36.3394 77.1611 36.3394C77.1611 36.3394 78.192 34.3536 78.7143 32.7544M108.172 6.71767C108.172 6.71767 101.847 5.70731 97.9601 6.6218C95.1804 7.27582 91.2145 9.48685 91.2145 9.48685M91.2145 9.48685C91.2145 9.48685 89.2052 10.1683 88.029 10.8398C84.9551 12.5947 83.7127 14.497 81.8455 17.5502C81.1856 18.6292 80.3465 20.4261 80.3465 20.4261M91.2145 9.48685C91.2145 9.48685 90.3368 6.96107 89.1533 5.8549C87.4092 4.22485 85.6998 3.94533 83.3445 4.12936C81.4743 4.27549 80.2706 4.60477 78.8475 5.8549C77.083 7.4049 76.6015 9.04339 76.4115 11.415C76.2129 13.8956 76.871 15.4011 78.098 17.5502C78.807 18.7921 80.3465 20.4261 80.3465 20.4261M80.3465 20.4261C80.3465 20.4261 79.2876 22.1115 78.8475 23.302C77.6713 26.4835 79.6362 28.7679 78.9305 31.977M46.8057 163.646V157.511M46.8057 157.511C46.8057 157.511 51.9423 150.584 54.863 146.582C57.8989 142.422 61.9834 135.462 61.9834 135.462M61.9834 135.462C61.9834 135.462 63.4824 129.902 64.6067 128.752M64.6067 128.752C65.731 127.601 71.0537 127.572 73.7882 124.725C75.6715 122.765 77.1611 118.59 77.1611 118.59M64.6067 128.752L70.0407 121.849L78.8475 110.729M78.8475 110.729C78.8475 110.729 88.7371 117.637 95.8989 120.124C104.15 122.989 109.659 124.586 118.371 124.787M118.371 124.787L118.634 124.793M118.371 124.787C118.459 124.789 118.547 124.791 118.634 124.793M60.6717 85.4598L63.1077 85.8049H65.3562M65.3562 85.8049C65.3562 85.8049 66.4805 84.4628 67.6047 80.82C68.729 77.1772 68.9164 73.7261 68.3543 71.6171C67.7921 69.5081 67.1417 67.3302 65.9183 65.0984C63.9007 61.4177 58.6106 57.2966 58.6106 57.2966M156.668 158.469L156.797 157.511L156.047 157.217M156.668 158.469L155.298 168.631L177.971 174.766L186.965 173.807L189.963 168.631V163.646L185.653 161.729L179.845 157.511V154.443M156.668 158.469L165.979 159.811L176.097 157.511L179.845 154.443M158.296 79.6696C158.196 83.0293 159.233 88.223 159.233 88.223M158.296 79.6696L158.297 79.6322M158.296 79.6696C158.296 79.6571 158.297 79.6447 158.297 79.6322M159.233 88.223C159.954 88.4562 160.709 88.6825 161.481 88.8893M136.935 55.2351L141.807 43.0499M136.935 55.2351L157.493 60.6887M141.807 43.0499L149.489 34.9973M141.807 43.0499L160.234 53.3816M149.489 34.9973L158.296 28.4786M149.489 34.9973L163.623 49.4592M158.296 28.4786L169.164 25.2192M158.296 28.4786L168.1 46.613M169.164 25.2192H182.468M169.164 25.2192L173.525 44.5921M182.468 25.2192L193.148 29.629L186.028 47.7777M182.468 25.2192L179.649 44.8153M184.154 52.5537L186.028 47.7777M157.493 60.6887C157.493 60.6887 158.495 56.2236 159.982 53.7865C160.067 53.6484 160.151 53.5135 160.234 53.3816M179.47 44.7754C179.529 44.7878 179.588 44.8011 179.649 44.8153M179.47 44.7754C177.242 44.3063 175.344 44.2636 173.525 44.5921M186.028 47.7777C186.028 47.7777 182.38 45.4573 179.649 44.8153M175.535 53.5219L173.525 44.5921M6.89407 35.3808L0.148438 46.3092L19.7412 54.1599M6.89407 35.3808L23.553 49.2938M6.89407 35.3808L16.0862 27.5724M27.6931 23.302L16.8251 26.9448L16.0862 27.5724M27.6931 23.302L38.0409 22.0241M27.6931 23.302L32.1424 43.0867M50.928 24.2606L38.5611 21.9599L38.0409 22.0241M50.928 24.2606L60.6717 30.5876M50.928 24.2606L42.4386 43.705M60.6717 30.5876L68.3543 39.2153L50.928 50.5855M60.6717 30.5876L46.9325 46.8949M38.7484 52.1569L42.4386 43.705M38.0409 22.0241L36.0227 42.2829M35.0009 52.5403L35.0935 51.6104M34.1175 51.8693L31.4407 52.5794M34.1175 51.8693L32.1424 43.0867M34.1175 51.8693L35.0935 51.6104M15.7009 26.9448L16.0862 27.5724M31.4407 52.5794L30.5038 52.8279L29.3795 54.1599M31.4407 52.5794L26.8438 45.0927M29.3795 54.1599L23.553 49.2938M19.7412 54.1599L23.553 49.2938M36.0227 42.2829L32.1424 43.0867M36.0227 42.2829L42.4386 43.705M36.0227 42.2829L35.0935 51.6104M50.928 50.5855L46.9325 46.8949M87.2795 29.0538C87.4259 30.0271 87.0725 31.8339 86.1552 33.2718C85.0768 34.9623 83.9957 35.9155 82.0329 36.3394C81.0316 36.5557 80.3501 36.7448 79.4096 36.3394C78.265 35.8461 78.359 34.2121 78.7143 32.7544M87.2795 29.0538C87.1332 28.0804 87.0511 27.5347 86.9047 26.5613M87.2795 29.0538L86.9047 26.5613M86.9047 26.5613C86.7584 25.588 85.3654 23.2862 83.5319 23.302C82.1414 23.314 81.3964 24.1307 80.5339 25.2192C79.3028 26.7729 79.597 30.2041 79.597 30.2041C79.597 30.2041 79.2412 30.9751 78.9305 31.977M85.8835 42.8783C85.8835 42.8783 82.4077 41.5539 82.0329 40.1928C81.6581 38.8316 82.4077 37.892 82.4077 37.892C82.4077 37.892 83.4622 37.0799 84.2814 36.9146C86.5049 36.4658 90.1126 37.1236 90.1126 37.1236C90.1126 37.1236 91.0543 37.2996 91.5049 38.852C91.9554 40.4045 85.8835 42.8783 85.8835 42.8783ZM85.8835 42.8783L86.1552 44.7754M86.1552 44.7754L90.8397 46.5009C90.8397 46.5009 93.7794 47.0496 95.5242 46.5009C98.1723 45.6681 100.583 41.516 100.583 41.516M86.1552 44.7754C86.1552 44.7754 85.3556 46.6384 84.2814 47.0761C82.8639 47.6537 80.5339 45.9257 80.5339 45.9257M78.9305 31.977C78.8536 32.2247 78.7795 32.4866 78.7143 32.7544M78.9305 31.977C78.9061 32.0879 78.8785 32.2 78.8475 32.3132C78.8085 32.4554 78.7637 32.6032 78.7143 32.7544M23.553 49.2938L26.8438 45.0927M16.0862 27.5724L26.8438 45.0927M26.8438 45.0927L27.6931 44.0085L32.1424 43.0867M42.4386 43.705L43.8077 44.0085L46.9325 46.8949M173.525 44.5921C171.719 44.9181 169.992 45.6098 168.1 46.613M168.1 46.613C167.713 46.8184 167.319 47.0368 166.915 47.2678C165.62 48.0101 164.557 48.6955 163.623 49.4592M163.623 49.4592C162.344 50.5046 161.305 51.6966 160.234 53.3816M94.2125 26.5613C93.4114 28.6605 93.2747 30.2712 94.2125 32.3132C95.4395 34.9847 100.583 36.3394 100.583 36.3394C100.583 36.3394 102.938 37.2274 104.518 37.298C106.456 37.3846 107.843 37.5061 109.39 36.3394C111.043 35.0933 111.502 33.6085 111.639 31.5462C111.785 29.331 111.065 27.9797 109.765 26.1779C108.211 24.0242 106.68 23.1403 104.144 22.3433C102.114 21.7058 100.726 21.2822 98.7096 21.9599C96.3258 22.7612 95.1077 24.2156 94.2125 26.5613ZM96.8407 29.4506L101.646 26.3814L105.491 28.2997L104.144 34.438L102.8 30.4097L100.583 29.0538L96.8407 29.4506ZM82.0329 34.6299L80.5339 28.8751L82.6156 26.3814L86.1552 29.0538L83.5319 28.6703L82.6156 29.8343L82.0329 34.6299Z" stroke="black" stroke-width="0.2"/>
</svg>
