<svg width="214" height="305" viewBox="0 0 214 305" fill="none" xmlns="http://www.w3.org/2000/svg">
<path d="M137.048 180.245C138.112 179.13 138.339 176.639 138.339 176.639L163.71 175.287L187.218 168.225L198.398 140.43L212.589 134.12V113.987L203.702 91.9003L188.078 70.265C187.043 78.1955 184.47 82.5625 179.621 88.7452C175.084 94.5289 171.5 97.0493 165.143 100.464C159.992 103.232 156.719 103.984 151.096 105.423C145.265 106.914 135.902 107.842 135.902 107.842C135.902 107.842 126.368 109.063 120.278 108.578C114.246 108.097 110.971 106.879 105.084 105.423C99.493 104.039 96.3141 103.356 90.8928 101.366C86.2518 99.6619 79.2822 96.2575 79.2822 96.2575L69.3917 105.423L63.3566 106.963C63.8769 107.785 64.3139 108.742 64.8048 109.78C65.6305 111.525 66.0751 114.588 66.0751 114.588C66.0751 114.588 67.8108 117.762 68.3884 119.996C69.3553 123.737 68.3884 129.921 68.3884 129.921L78.2699 140.43L81.4323 126.307C81.4323 126.307 87.0642 123.287 90.8928 121.95C97.7731 119.547 102.011 119.548 109.24 118.945C116.829 118.312 121.214 117.706 128.735 118.945C136.045 120.149 146.796 124.955 146.796 124.955L142.352 135.171L121.568 146.612C117.44 145.831 113.728 147.156 109.24 149.144C103.575 151.654 97.3431 159.962 97.3431 159.962C97.3431 159.962 95.2923 160.763 94.6197 161.915C94.3223 162.425 94.0959 163.342 94.0959 163.342L93.1863 165.822C93.1863 165.822 93.2922 169.594 94.0463 171.831C94.7308 173.863 95.2897 175.003 96.6264 176.639C97.4935 177.701 98.3972 178.424 99.3499 178.96C101.566 180.209 104.046 180.449 106.947 181.597C108.133 182.067 109.142 182.489 110.1 182.866C111.981 183.607 113.668 184.177 116.121 184.602C118.89 185.082 123.296 185.053 123.296 185.053C125.818 184.517 128.458 183.906 131.458 183.25C133.417 182.253 135.089 181.243 137.048 180.245Z" fill="#24161A"/>
<path d="M189.368 204.885V243.799C189.368 243.799 187.017 246.033 183.777 248.82C183.777 248.82 193.459 255.479 196.391 262.129C199.362 268.866 197.825 281.074 197.825 281.074C205.442 276.862 212.159 270.092 212.159 270.092L211.442 197.373L210.725 197.116L205.995 195.42L198.398 195.054L192.808 201.28L189.368 204.885Z" fill="#24161A"/>
<path d="M180.051 284.215C191.231 283.464 185.763 284.735 189.368 284.215C190.493 284.053 191.646 283.756 192.808 283.356C194.483 282.778 196.175 281.986 197.825 281.074C197.825 281.074 199.362 268.866 196.391 262.129C193.459 255.479 183.777 248.82 183.777 248.82C181.882 250.451 179.682 252.272 177.47 253.945C177.47 253.945 174.686 262.796 175.034 268.59C175.419 275.015 180.051 284.215 180.051 284.215Z" fill="#24161A"/>
<path d="M61.938 135.171V129.312L60.0746 124.955L58.0678 118.945L54.771 115.339C54.771 115.339 55.0056 112.938 54.771 111.433C54.5228 109.839 54.6082 108.626 53.481 107.526C52.4782 106.548 51.3884 106.663 50.1841 106.963C49.4202 107.154 48.6103 107.419 47.7473 107.526C46.7798 107.647 45.86 107.736 44.9841 107.842C42.0076 108.202 39.5379 108.759 37.4268 111.433C35.1414 114.327 35.3791 117 35.1334 120.748C34.7977 125.868 35.3566 129.018 37.4268 133.669C39.9417 137.346 41.8131 139.202 45.4539 141.632C48.0526 143.366 49.6139 144.385 52.6209 145.088L52.7343 145.114C55.7863 145.828 57.8646 146.314 60.7913 145.088C63.2949 144.039 65.8455 143.246 66.0751 140.43C66.2316 138.511 64.1644 135.923 64.1644 135.923L58.0678 139.378L61.938 135.171Z" fill="#24161A"/>
<path d="M53.481 107.526C54.6082 108.626 54.5228 109.839 54.771 111.433C55.0056 112.938 54.771 115.339 54.771 115.339C54.771 115.339 58.3562 117.373 60.7913 117.142C63.0543 116.926 66.0751 114.588 66.0751 114.588C66.0751 114.588 65.6305 111.525 64.8048 109.78C64.3139 108.742 63.8769 107.785 63.3566 106.963C62.5901 105.752 61.6426 104.832 60.0746 104.371C58.7271 103.975 57.8022 103.858 56.4911 104.371C54.9335 104.98 53.481 107.526 53.481 107.526Z" fill="#24161A"/>
<path d="M54.771 115.339L58.0678 118.945L68.3884 129.921C68.3884 129.921 69.3553 123.737 68.3884 119.996C67.8108 117.762 66.0751 114.588 66.0751 114.588C66.0751 114.588 63.0543 116.926 60.7913 117.142C58.3562 117.373 54.771 115.339 54.771 115.339Z" fill="#24161A"/>
<path d="M76.4154 153.501L77.1321 145.088L61.938 129.312V135.171L58.0678 139.378L64.1644 135.923C64.1644 135.923 66.2316 138.511 66.0751 140.43C65.8455 143.246 63.2949 144.039 60.7913 145.088C57.8646 146.314 55.7863 145.828 52.7343 145.114L52.6209 145.088C49.6139 144.385 48.0526 143.366 45.4539 141.632C41.8131 139.202 39.9417 137.346 37.4268 133.669C39.8339 138.128 40.3364 141.264 43.5905 145.088C48.0069 150.276 51.6634 152.589 58.0678 154.403C64.9926 156.364 76.4154 153.501 76.4154 153.501Z" fill="#24161A"/>
<path d="M156.543 12.1199C152.985 10.8742 150.676 12.4511 146.939 12.1199C146.939 12.1199 142.878 13.858 140.775 15.7258C139.597 16.7721 138.383 17.1498 138.052 18.7307C137.649 20.6528 138.291 22.1161 139.199 23.8391C139.199 23.8391 141.325 20.4748 143.355 19.1815C146.077 17.4483 148.268 16.9815 151.382 17.679C153.908 18.2448 155.239 19.2745 157.116 21.1347C159.091 23.0919 160.025 24.5783 160.843 27.2947C161.804 30.484 161.816 32.6736 160.843 35.8587C160.54 36.8513 159.84 38.3114 159.84 38.3114C161.125 38.7483 162.279 39.0696 163.71 38.4129C166.085 37.3228 166.465 35.129 167.293 32.5533C168.565 28.5994 166.72 21.8858 166.72 21.8858C165.864 20.666 165.496 19.8931 164.57 18.7307C162.015 15.5228 160.324 13.444 156.543 12.1199Z" fill="#24161A"/>
<path d="M81.6697 24.4399C82.0086 24.0468 82.3593 23.6468 82.7224 23.2381C82.7224 23.2381 82.1841 18.2425 82.7224 15.1247C83.0917 12.986 83.0622 11.5546 84.2992 9.81026C86.2727 7.02721 88.891 6.21593 92.1829 6.56077C95.5116 6.90946 99.3499 11.4786 99.3499 11.4786C100.697 10.8257 101.935 10.2895 103.22 9.81026C103.22 9.81026 101.123 4.41567 98.3465 2.50406C95.9748 0.870809 94.1603 0.502989 91.3228 0.55086C88.6473 0.595999 87.0565 1.11993 84.7292 2.50406C81.8011 4.24548 80.2474 5.90336 78.8522 9.11487C77.4303 12.3879 77.0746 14.8144 77.9922 18.2799C78.7162 21.0143 81.6697 24.4399 81.6697 24.4399Z" fill="#24161A"/>
<path d="M82.7224 23.2381C87.2627 18.1258 90.6861 16.0356 96.6264 12.8711C97.6041 12.3503 98.4988 11.8912 99.3499 11.4786C99.3499 11.4786 95.5116 6.90946 92.1829 6.56077C88.891 6.21593 86.2727 7.02721 84.2992 9.81026C83.0622 11.5546 83.0917 12.986 82.7224 15.1247C82.1841 18.2425 82.7224 23.2381 82.7224 23.2381Z" fill="#813004"/>
<path d="M139.199 23.8391C141.435 28.0854 143.274 30.494 146.939 33.4548C150.488 36.3223 153.298 36.7243 157.689 37.6616C158.479 37.8301 159.177 38.0861 159.84 38.3114C159.84 38.3114 160.54 36.8513 160.843 35.8587C161.816 32.6736 161.804 30.484 160.843 27.2947C160.025 24.5783 159.091 23.0919 157.116 21.1347C155.239 19.2745 153.908 18.2448 151.382 17.679C148.268 16.9815 146.077 17.4483 143.355 19.1815C141.325 20.4748 139.199 23.8391 139.199 23.8391Z" fill="#813004"/>
<path fill-rule="evenodd" clip-rule="evenodd" d="M69.3917 83.9374C71.2918 89.9017 79.2822 96.2575 79.2822 96.2575C79.2822 96.2575 86.2518 99.6619 90.8928 101.366C96.3141 103.356 99.493 104.039 105.084 105.423C110.971 106.879 114.246 108.097 120.278 108.578C126.368 109.063 135.902 107.842 135.902 107.842C135.902 107.842 145.265 106.914 151.096 105.423C156.719 103.984 159.992 103.232 165.143 100.464C171.5 97.0493 175.084 94.5289 179.621 88.7452C184.47 82.5625 187.043 78.1955 188.078 70.265C188.902 63.9479 187.876 60.2125 186.358 54.0384C184.699 47.2942 183.073 43.6128 179.621 37.6616C175.599 30.7283 171.307 28.4226 166.72 21.8858C166.72 21.8858 168.565 28.5994 167.293 32.5533C166.465 35.129 166.085 37.3228 163.71 38.4129C162.279 39.0696 161.125 38.7483 159.84 38.3114C159.177 38.0861 158.479 37.8301 157.689 37.6616C153.298 36.7243 150.488 36.3223 146.939 33.4548C143.274 30.494 141.435 28.0854 139.199 23.8391C138.291 22.1161 137.649 20.6528 138.052 18.7307C138.383 17.1498 139.597 16.7721 140.775 15.7258C142.878 13.858 146.939 12.1199 146.939 12.1199C139.023 11.4183 135.217 7.26166 127.301 6.56077C120.14 5.92664 115.934 6.26972 108.954 8.06322C106.716 8.63826 104.926 9.17403 103.22 9.81026C101.935 10.2895 100.697 10.8257 99.3499 11.4786C98.4988 11.8912 97.6041 12.3503 96.6264 12.8711C90.6861 16.0356 87.2627 18.1258 82.7224 23.2381C82.3593 23.6468 82.0086 24.0468 81.6697 24.4399C81.4918 24.6463 81.3171 24.8507 81.1457 25.0536C77.1223 29.8127 74.8408 33.6908 73.2619 40.3661C71.7263 46.8584 74.121 50.8661 73.2619 57.4941C72.3366 64.6338 68.4448 68.0181 68.3884 75.2231C68.3615 78.6508 68.3559 80.686 69.3917 83.9374ZM116.837 74.3217C116.054 71.2008 115.908 69.1349 116.837 66.0582C117.794 62.8912 119.19 61.3427 121.568 59.1469C123.954 56.9427 125.593 55.6144 128.735 55.0902C133.245 54.3375 136.226 56.1289 139.772 59.1469C143.491 62.3124 145.12 65.3165 145.936 70.265C146.548 73.9817 146.764 76.5504 145.076 79.8808C143.157 83.6633 140.549 85.1672 136.618 86.3413C131.644 87.8274 127.884 86.9357 123.574 83.9374C119.871 81.3606 117.968 78.8273 116.837 74.3217ZM94.6197 57.4941C92.3248 54.2525 90.155 52.0671 86.3059 51.9351C81.2628 51.7621 78.7 55.9336 76.4154 60.6493C74.2768 65.0637 73.7973 68.5653 75.2687 73.27C76.1781 76.1778 76.9037 78.1063 79.2822 79.8808C82.1846 82.046 84.8108 81.9183 88.3127 81.233C92.0122 80.509 94.6358 79.4724 96.6264 76.1246C98.6158 72.7791 97.8487 69.9645 97.3431 66.0582L97.3248 65.9165C96.8834 62.5038 96.5967 60.2867 94.6197 57.4941ZM97.3431 84.6886C98.0209 88.2685 104.51 90.2477 104.51 90.2477C104.51 90.2477 111.677 89.196 112.251 86.9423C112.824 84.6886 112.65 85.0336 112.251 83.9374C111.635 82.2488 110.221 82.0167 108.667 81.233C105.625 79.6988 103.223 79.0788 100.067 80.3315C98.9172 80.7876 97.6298 81.233 97.3431 81.9842C97.0565 82.7354 97.147 83.6527 97.3431 84.6886Z" fill="#FDF7D8"/>
<path d="M104.51 90.2477C104.51 90.2477 98.0209 88.2685 97.3431 84.6886C97.147 83.6527 97.0565 82.7354 97.3431 81.9842C97.6298 81.233 98.9172 80.7876 100.067 80.3315C103.223 79.0788 105.625 79.6988 108.667 81.233C110.221 82.0167 111.635 82.2488 112.251 83.9374C112.65 85.0336 112.824 84.6886 112.251 86.9423C111.677 89.196 104.51 90.2477 104.51 90.2477Z" fill="black"/>
<path fill-rule="evenodd" clip-rule="evenodd" d="M116.837 66.0582C115.908 69.1349 116.054 71.2008 116.837 74.3217C117.968 78.8273 119.871 81.3606 123.574 83.9374C127.884 86.9357 131.644 87.8274 136.618 86.3413C140.549 85.1672 143.157 83.6633 145.076 79.8808C146.764 76.5504 146.548 73.9817 145.936 70.265C145.12 65.3165 143.491 62.3124 139.772 59.1469C136.226 56.1289 133.245 54.3375 128.735 55.0902C125.593 55.6144 123.954 56.9427 121.568 59.1469C119.19 61.3427 117.794 62.8912 116.837 66.0582ZM123.574 64.5557L120.421 69.9645L124.578 69.3636L127.875 71.1665L131.028 81.233L132.318 71.1665L128.735 65.1567L123.574 64.5557Z" fill="black"/>
<path fill-rule="evenodd" clip-rule="evenodd" d="M86.3059 51.9351C90.155 52.0671 92.3248 54.2525 94.6197 57.4941C96.5967 60.2867 96.8834 62.5038 97.3248 65.9165L97.3431 66.0582C97.8487 69.9645 98.6158 72.7791 96.6264 76.1246C94.6358 79.4724 92.0122 80.509 88.3127 81.233C84.8108 81.9183 82.1846 82.046 79.2822 79.8808C76.9037 78.1063 76.1781 76.1778 75.2687 73.27C73.7973 68.5653 74.2768 65.0637 76.4154 60.6493C78.7 55.9336 81.2628 51.7621 86.3059 51.9351ZM83.1524 67.8611L85.7326 75.2231L87.3093 67.1099L89.1727 64.5557L94.1896 64.105L89.1727 60.6493L84.4425 63.0532L83.1524 67.8611Z" fill="black"/>
<path d="M120.421 69.9645L123.574 64.5557L128.735 65.1567L132.318 71.1665L131.028 81.233L127.875 71.1665L124.578 69.3636L120.421 69.9645Z" fill="#FAF8ED"/>
<path d="M85.7326 75.2231L83.1524 67.8611L84.4425 63.0532L89.1727 60.6493L94.1896 64.105L89.1727 64.5557L87.3093 67.1099L85.7326 75.2231Z" fill="#FAF8ED"/>
<path d="M87.4526 150.196C87.4526 150.196 91.3228 149.144 91.8962 150.196C92.4696 151.248 94.0463 155.905 94.0463 155.905L97.3431 159.962C97.3431 159.962 103.575 151.654 109.24 149.144C113.728 147.156 117.44 145.831 121.568 146.612L142.352 135.171L146.796 124.955C146.796 124.955 136.045 120.149 128.735 118.945C121.214 117.706 116.829 118.312 109.24 118.945C102.011 119.548 97.7731 119.547 90.8928 121.95C87.0642 123.287 81.4323 126.307 81.4323 126.307L78.2699 140.43L87.4526 150.196Z" fill="#FDF7D8"/>
<path d="M79.7123 163.342L93.1863 165.822L94.0959 163.342C94.0959 163.342 91.7708 159.302 89.3161 158.159C87.5579 157.341 85.3701 159.174 84.4425 157.408C83.7325 156.056 85.0159 153.501 85.0159 153.501L77.1321 145.088L76.4154 153.501L79.7123 163.342Z" fill="#FDF7D8"/>
<path d="M138.339 176.639L201.982 191.063L198.398 195.054L205.995 195.42L210.725 197.116L212.589 134.12L198.398 140.43L187.218 168.225L163.71 175.287L138.339 176.639Z" fill="#FDF7D8"/>
<path d="M11.0522 243.799C11.0522 243.799 24.5281 253.111 33.9866 257.321C48.0831 263.596 57.3331 266.902 72.4019 268.59C87.4707 270.277 94.9142 271.266 110.53 270.092C126.147 268.918 151.772 270.065 172.597 257.321C174.145 256.374 175.811 255.201 177.47 253.945C179.682 252.272 181.882 250.451 183.777 248.82C187.017 246.033 189.368 243.799 189.368 243.799V204.885C189.368 204.885 180.125 216.417 172.597 221.713C160.264 230.39 151.024 231.443 136.332 233.733C122.656 235.864 114.746 234.194 100.927 233.733C88.7638 233.327 81.8905 233.414 69.8218 231.779C58.7379 230.279 52.317 229.814 41.727 226.07L41.2611 225.905C33.6854 223.228 29.1431 221.623 22.3761 216.905C13.0801 210.424 2.59509 195.27 2.59509 195.27C2.59509 195.27 0.875 221.713 3.16845 229.225C5.4619 236.738 11.0522 243.799 11.0522 243.799Z" fill="#481909"/>
<path d="M126.585 302.545C148.391 299.754 168.87 284.966 180.051 284.215C180.051 284.215 175.419 275.015 175.034 268.59C174.686 262.796 177.47 253.945 177.47 253.945C175.811 255.201 174.145 256.374 172.597 257.321C151.772 270.065 126.147 268.918 110.53 270.092C94.9142 271.266 87.4707 270.277 72.4019 268.59C57.3331 266.902 48.0831 263.596 33.9866 257.321C24.5281 253.111 11.0522 243.799 11.0522 243.799V264.533C11.0522 264.533 21.3746 277.921 29.8298 284.215C41.4108 292.836 49.7776 295.005 63.4843 298.557L63.8015 298.639C74.3303 301.368 80.5077 301.69 91.3228 302.545L91.9156 302.592C105.283 303.65 113.113 304.269 126.585 302.545Z" fill="#291500"/>
<path d="M172.597 221.713C180.125 216.417 189.368 204.885 189.368 204.885C189.368 204.885 186.477 204.28 184.781 204.885C182.074 205.851 180.051 210.745 180.051 210.745C180.051 210.745 175.391 211.551 172.597 212.698C169.61 213.924 165.43 216.905 165.43 216.905C165.43 216.905 156.419 221 150.379 222.765C137.437 226.547 129.551 225.692 116.121 226.07C100.321 226.515 75.6987 223.967 75.6987 223.967C75.6987 223.967 61.9873 221.755 53.481 219.159C44.1388 216.308 38.3291 215.392 30.2598 209.693C25.4908 206.325 19.2226 199.477 19.2226 199.477C19.2226 199.477 18.3293 193.3 15.7824 190.762C13.6936 188.682 9.04541 187.607 9.04541 187.607C9.04541 187.607 9.20019 184.212 8.04202 182.649C7.14675 181.441 4.88853 180.546 4.88853 180.546C4.88853 180.546 2.74336 182.213 1.87838 183.701C-0.379528 187.585 2.59509 195.27 2.59509 195.27C2.59509 195.27 13.0801 210.424 22.3761 216.905C29.1431 221.623 33.6854 223.228 41.2611 225.905L41.727 226.07C52.317 229.814 58.7379 230.279 69.8218 231.779C81.8905 233.414 88.7638 233.327 100.927 233.733C114.746 234.194 122.656 235.864 136.332 233.733C151.024 231.443 160.264 230.39 172.597 221.713Z" fill="#8E4902"/>
<path d="M29.1131 200.679C25.5439 199.061 19.2226 199.477 19.2226 199.477C19.2226 199.477 25.4908 206.325 30.2598 209.693C38.3291 215.392 44.1388 216.308 53.481 219.159C61.9873 221.755 75.6987 223.967 75.6987 223.967C75.6987 223.967 100.321 226.515 116.121 226.07C129.551 225.692 137.437 226.547 150.379 222.765C156.419 221 165.43 216.905 165.43 216.905C165.43 216.905 157.663 211.421 152.529 212.698C149.07 213.559 144.932 217.957 144.932 217.957C144.932 217.957 137.382 215.701 132.748 216.905C129.101 217.852 124.291 221.713 124.291 221.713H113.254H100.927C100.927 221.713 94.8028 218.762 90.6061 217.957C85.6505 217.006 77.7055 217.957 77.7055 217.957C77.7055 217.957 73.3464 213.69 69.8218 212.698C64.7636 211.276 56.6344 215.252 56.6344 215.252C56.6344 215.252 51.8131 209.96 47.7473 208.642C43.8968 207.393 37.4268 208.642 37.4268 208.642C37.4268 208.642 33.1501 202.508 29.1131 200.679Z" fill="#7E440D"/>
<path d="M23.2361 150.196L18.5059 154.403L64.1644 164.62C65.1254 162.503 66.2383 160.863 66.2383 160.863L23.2361 150.196Z" fill="#CC0000"/>
<path d="M8.90207 156.356C8.16645 157.94 9.04541 160.863 9.04541 160.863L63.494 166.272C63.695 165.704 63.925 165.147 64.1644 164.62L18.5059 154.403L14.2057 153.802C14.2057 153.802 9.89995 154.208 8.90207 156.356Z" fill="#CC0000"/>
<path d="M0.875 167.174L62.854 168.826C62.9603 167.989 63.1951 167.118 63.494 166.272L9.04541 160.863L0.875 167.174Z" fill="#CC0000"/>
<path d="M63.2887 172.583C63.0102 171.795 62.8392 170.946 62.7981 170.028C62.7807 169.641 62.8019 169.238 62.854 168.826L0.875 167.174C0.875 167.174 4.35599 170.083 4.17183 172.583C4.03653 174.419 1.87838 176.639 1.87838 176.639L63.2887 172.583Z" fill="#CC0000"/>
<path d="M4.88853 180.546C4.88853 180.546 7.14675 181.441 8.04202 182.649C9.20019 184.212 9.04541 187.607 9.04541 187.607L66.0751 176.639C64.834 175.491 63.846 174.159 63.2887 172.583L1.87838 176.639L4.88853 180.546Z" fill="#CC0000"/>
<path d="M9.04541 187.607C9.04541 187.607 13.6936 188.682 15.7824 190.762C18.3293 193.3 19.2226 199.477 19.2226 199.477L71.6589 180.245C69.632 179.257 67.6499 178.096 66.0751 176.639L9.04541 187.607Z" fill="#CC0000"/>
<path d="M19.2226 199.477C19.2226 199.477 25.5439 199.061 29.1131 200.679C33.1501 202.508 37.4268 208.642 37.4268 208.642L77.1321 182.649C75.463 181.931 73.5417 181.163 71.6589 180.245L19.2226 199.477Z" fill="#CC0000"/>
<path d="M37.4268 208.642C37.4268 208.642 43.8968 207.393 47.7473 208.642C51.8131 209.96 56.6344 215.252 56.6344 215.252L84.4425 185.318C82.1569 184.651 79.7606 183.779 77.1321 182.649L37.4268 208.642Z" fill="#CC0000"/>
<path d="M56.6344 215.252C56.6344 215.252 64.7636 211.276 69.8218 212.698C73.3464 213.69 77.7055 217.957 77.7055 217.957L93.6163 187.05C90.5556 186.771 87.605 186.241 84.4425 185.318L56.6344 215.252Z" fill="#CC0000"/>
<path d="M77.7055 217.957C77.7055 217.957 85.6505 217.006 90.6061 217.957C94.8028 218.762 100.927 221.713 100.927 221.713L101.643 187.304C98.7695 187.339 96.155 187.281 93.6163 187.05L77.7055 217.957Z" fill="#CC0000"/>
<path d="M124.291 221.713C124.291 221.713 129.101 217.852 132.748 216.905C137.382 215.701 144.932 217.957 144.932 217.957L117.697 186.124C115.427 186.497 113.1 186.788 110.53 186.977L124.291 221.713Z" fill="#CC0000"/>
<path d="M100.927 221.713H113.254H124.291L110.53 186.977C109.477 187.055 108.382 187.115 107.234 187.156C105.246 187.228 103.396 187.283 101.643 187.304L100.927 221.713Z" fill="#CC0000"/>
<path d="M144.932 217.957C144.932 217.957 149.07 213.559 152.529 212.698C157.663 211.421 165.43 216.905 165.43 216.905L123.296 185.053C121.398 185.456 119.567 185.818 117.697 186.124L144.932 217.957Z" fill="#CC0000"/>
<path d="M165.43 216.905C165.43 216.905 169.61 213.924 172.597 212.698C175.391 211.551 180.051 210.745 180.051 210.745C180.051 210.745 150.771 194.457 131.458 183.25C128.458 183.906 125.818 184.517 123.296 185.053L165.43 216.905Z" fill="#CC0000"/>
<path d="M180.051 210.745C180.051 210.745 182.074 205.851 184.781 204.885C186.477 204.28 189.368 204.885 189.368 204.885L192.808 201.28C192.808 201.28 159.384 188.753 137.048 180.245C135.089 181.243 133.417 182.253 131.458 183.25C150.771 194.457 180.051 210.745 180.051 210.745Z" fill="#CC0000"/>
<path d="M201.982 191.063L138.339 176.639C138.339 176.639 138.112 179.13 137.048 180.245C159.384 188.753 192.808 201.28 192.808 201.28L198.398 195.054L201.982 191.063Z" fill="#CC0000"/>
<path d="M91.8962 150.196C91.3228 149.144 87.4526 150.196 87.4526 150.196L85.0159 153.501C85.0159 153.501 83.7325 156.056 84.4425 157.408C85.3701 159.174 87.5579 157.341 89.3161 158.159C91.7708 159.302 94.0959 163.342 94.0959 163.342C94.0959 163.342 94.3223 162.425 94.6197 161.915C95.2923 160.763 97.3431 159.962 97.3431 159.962L94.0463 155.905C94.0463 155.905 92.4696 151.248 91.8962 150.196Z" fill="#813004"/>
<path d="M61.938 129.312L77.1321 145.088L85.0159 153.501L87.4526 150.196L78.2699 140.43L68.3884 129.921L58.0678 118.945L60.0746 124.955L61.938 129.312Z" fill="#813004"/>
<path d="M44.9841 107.842C45.86 107.736 46.7798 107.647 47.7473 107.526C48.6103 107.419 49.4202 107.154 50.1841 106.963L32.1232 87.0927C32.1232 87.0927 29.4274 84.5412 28.3964 85.7404C27.6469 86.6122 28.3964 88.7454 28.3964 88.7454L44.9841 107.842Z" fill="#813004"/>
<path d="M117.697 186.124C119.567 185.818 121.398 185.456 123.296 185.053C123.296 185.053 118.89 185.082 116.121 184.602C113.668 184.177 111.981 183.607 110.1 182.866C109.142 182.489 108.133 182.067 106.947 181.597C104.046 180.449 101.566 180.209 99.3499 178.96C98.3972 178.424 97.4935 177.701 96.6264 176.639C95.2897 175.003 94.7308 173.863 94.0463 171.831C93.2922 169.594 93.1863 165.822 93.1863 165.822L79.7123 163.342L66.2383 160.863C66.2383 160.863 65.1254 162.503 64.1644 164.62C63.925 165.147 63.695 165.704 63.494 166.272C63.1951 167.118 62.9603 167.989 62.854 168.826C62.8019 169.238 62.7807 169.641 62.7981 170.028C62.8392 170.946 63.0102 171.795 63.2887 172.583C63.846 174.159 64.834 175.491 66.0751 176.639C67.6499 178.096 69.632 179.257 71.6589 180.245C73.5417 181.163 75.463 181.931 77.1321 182.649C79.7606 183.779 82.1569 184.651 84.4425 185.318C87.605 186.241 90.5556 186.771 93.6163 187.05C96.155 187.281 98.7695 187.339 101.643 187.304C103.396 187.283 105.246 187.228 107.234 187.156C108.382 187.115 109.477 187.055 110.53 186.977C113.1 186.788 115.427 186.497 117.697 186.124Z" fill="#FDF7D8"/>
<path d="M180.051 284.215C191.231 283.464 185.763 284.735 189.368 284.215C190.493 284.053 191.646 283.756 192.808 283.356M180.051 284.215C168.87 284.966 148.391 299.754 126.585 302.545C113.113 304.269 105.283 303.65 91.9156 302.592M180.051 284.215C180.051 284.215 175.419 275.015 175.034 268.59C174.686 262.796 177.47 253.945 177.47 253.945M91.3228 302.545C80.5077 301.69 74.3303 301.368 63.8015 298.639M91.3228 302.545L91.9156 302.592M91.3228 302.545C91.5216 302.561 91.7192 302.577 91.9156 302.592M63.8015 298.639L63.4843 298.557M63.8015 298.639C63.6954 298.611 63.5897 298.584 63.4843 298.557M11.0522 243.799V264.533C11.0522 264.533 21.3746 277.921 29.8298 284.215C41.4108 292.836 49.7776 295.005 63.4843 298.557M11.0522 243.799C11.0522 243.799 24.5281 253.111 33.9866 257.321C48.0831 263.596 57.3331 266.902 72.4019 268.59C87.4707 270.277 94.9142 271.266 110.53 270.092C126.147 268.918 151.772 270.065 172.597 257.321C174.145 256.374 175.811 255.201 177.47 253.945M11.0522 243.799C11.0522 243.799 5.4619 236.738 3.16845 229.225C0.875 221.713 2.59509 195.27 2.59509 195.27M189.368 204.885V243.799C189.368 243.799 187.017 246.033 183.777 248.82M189.368 204.885C189.368 204.885 180.125 216.417 172.597 221.713C160.264 230.39 151.024 231.443 136.332 233.733C122.656 235.864 114.746 234.194 100.927 233.733C88.7638 233.327 81.8905 233.414 69.8218 231.779C58.7379 230.279 52.317 229.814 41.727 226.07M189.368 204.885C189.368 204.885 186.477 204.28 184.781 204.885C182.074 205.851 180.051 210.745 180.051 210.745M189.368 204.885L192.808 201.28M41.727 226.07L41.2611 225.905M41.727 226.07C41.5704 226.015 41.4152 225.96 41.2611 225.905M2.59509 195.27C2.59509 195.27 13.0801 210.424 22.3761 216.905C29.1431 221.623 33.6854 223.228 41.2611 225.905M2.59509 195.27C2.59509 195.27 -0.379528 187.585 1.87838 183.701C2.74336 182.213 4.88853 180.546 4.88853 180.546M4.88853 180.546C4.88853 180.546 7.14675 181.441 8.04202 182.649C9.20019 184.212 9.04541 187.607 9.04541 187.607M4.88853 180.546L1.87838 176.639M9.04541 187.607C9.04541 187.607 13.6936 188.682 15.7824 190.762C18.3293 193.3 19.2226 199.477 19.2226 199.477M9.04541 187.607L66.0751 176.639M19.2226 199.477C19.2226 199.477 25.5439 199.061 29.1131 200.679C33.1501 202.508 37.4268 208.642 37.4268 208.642M19.2226 199.477C19.2226 199.477 25.4908 206.325 30.2598 209.693C38.3291 215.392 44.1388 216.308 53.481 219.159C61.9873 221.755 75.6987 223.967 75.6987 223.967C75.6987 223.967 100.321 226.515 116.121 226.07C129.551 225.692 137.437 226.547 150.379 222.765C156.419 221 165.43 216.905 165.43 216.905M19.2226 199.477L71.6589 180.245M37.4268 208.642C37.4268 208.642 43.8968 207.393 47.7473 208.642C51.8131 209.96 56.6344 215.252 56.6344 215.252M37.4268 208.642L77.1321 182.649M56.6344 215.252C56.6344 215.252 64.7636 211.276 69.8218 212.698C73.3464 213.69 77.7055 217.957 77.7055 217.957M56.6344 215.252L84.4425 185.318M77.7055 217.957C77.7055 217.957 85.6505 217.006 90.6061 217.957C94.8028 218.762 100.927 221.713 100.927 221.713M77.7055 217.957L93.6163 187.05M100.927 221.713C100.927 221.713 108.44 221.713 113.254 221.713M100.927 221.713L101.643 187.304M100.927 221.713H113.254M113.254 221.713C117.564 221.713 124.291 221.713 124.291 221.713M113.254 221.713H124.291M124.291 221.713C124.291 221.713 129.101 217.852 132.748 216.905C137.382 215.701 144.932 217.957 144.932 217.957M124.291 221.713L110.53 186.977M144.932 217.957C144.932 217.957 149.07 213.559 152.529 212.698C157.663 211.421 165.43 216.905 165.43 216.905M144.932 217.957L117.697 186.124M165.43 216.905C165.43 216.905 169.61 213.924 172.597 212.698C175.391 211.551 180.051 210.745 180.051 210.745M165.43 216.905L123.296 185.053M180.051 210.745C180.051 210.745 150.771 194.457 131.458 183.25M192.808 201.28C192.808 201.28 159.384 188.753 137.048 180.245M192.808 201.28L198.398 195.054M138.339 176.639L201.982 191.063L198.398 195.054M138.339 176.639C138.339 176.639 138.112 179.13 137.048 180.245M138.339 176.639L163.71 175.287L187.218 168.225L198.398 140.43L212.589 134.12M137.048 180.245C135.089 181.243 133.417 182.253 131.458 183.25M131.458 183.25C128.458 183.906 125.818 184.517 123.296 185.053M66.2383 160.863L23.2361 150.196L18.5059 154.403M66.2383 160.863C66.2383 160.863 65.1254 162.503 64.1644 164.62M66.2383 160.863L79.7123 163.342M77.1321 182.649C79.7606 183.779 82.1569 184.651 84.4425 185.318M77.1321 182.649C75.463 181.931 73.5417 181.163 71.6589 180.245M123.296 185.053C121.398 185.456 119.567 185.818 117.697 186.124M123.296 185.053C123.296 185.053 118.89 185.082 116.121 184.602C113.668 184.177 111.981 183.607 110.1 182.866M117.697 186.124C115.427 186.497 113.1 186.788 110.53 186.977M110.53 186.977C109.477 187.055 108.382 187.115 107.234 187.156C105.246 187.228 103.396 187.283 101.643 187.304M101.643 187.304C98.7695 187.339 96.155 187.281 93.6163 187.05M93.6163 187.05C90.5556 186.771 87.605 186.241 84.4425 185.318M71.6589 180.245C69.632 179.257 67.6499 178.096 66.0751 176.639M66.0751 176.639C64.834 175.491 63.846 174.159 63.2887 172.583M1.87838 176.639L63.2887 172.583M1.87838 176.639C1.87838 176.639 4.03653 174.419 4.17183 172.583C4.35599 170.083 0.875 167.174 0.875 167.174M63.2887 172.583C63.0102 171.795 62.8392 170.946 62.7981 170.028C62.7807 169.641 62.8019 169.238 62.854 168.826M0.875 167.174L62.854 168.826M0.875 167.174L9.04541 160.863M62.854 168.826C62.9603 167.989 63.1951 167.118 63.494 166.272M9.04541 160.863C9.04541 160.863 8.16645 157.94 8.90207 156.356C9.89995 154.208 14.2057 153.802 14.2057 153.802L18.5059 154.403M9.04541 160.863L63.494 166.272M18.5059 154.403L64.1644 164.62M93.1863 165.822C93.1863 165.822 93.2922 169.594 94.0463 171.831C94.7308 173.863 95.2897 175.003 96.6264 176.639C97.4935 177.701 98.3972 178.424 99.3499 178.96M93.1863 165.822L79.7123 163.342M93.1863 165.822L94.0959 163.342M64.1644 164.62C63.925 165.147 63.695 165.704 63.494 166.272M177.47 253.945C179.682 252.272 181.882 250.451 183.777 248.82M79.7123 163.342L76.4154 153.501M76.4154 153.501L77.1321 145.088M76.4154 153.501C76.4154 153.501 64.9926 156.364 58.0678 154.403C51.6634 152.589 48.0069 150.276 43.5905 145.088C40.3364 141.264 39.8339 138.128 37.4268 133.669M77.1321 145.088C77.1321 145.088 67.8717 135.473 61.938 129.312M77.1321 145.088L85.0159 153.501M77.1321 145.088L61.938 129.312M61.938 129.312C61.938 131.6 61.938 135.171 61.938 135.171M61.938 129.312C61.2103 127.61 60.0746 124.955 60.0746 124.955M61.938 129.312V135.171M61.938 129.312L60.0746 124.955M61.938 135.171L58.0678 139.378L64.1644 135.923C64.1644 135.923 66.2316 138.511 66.0751 140.43C65.8455 143.246 63.2949 144.039 60.7913 145.088C57.8646 146.314 55.7863 145.828 52.7343 145.114M52.6209 145.088C49.6139 144.385 48.0526 143.366 45.4539 141.632C41.8131 139.202 39.9417 137.346 37.4268 133.669M52.6209 145.088L52.7343 145.114M52.6209 145.088C52.6589 145.096 52.6966 145.105 52.7343 145.114M37.4268 133.669C35.3566 129.018 34.7977 125.868 35.1334 120.748C35.3791 117 35.1414 114.327 37.4268 111.433C39.5379 108.759 42.0076 108.202 44.9841 107.842M53.481 107.526C54.6082 108.626 54.5228 109.839 54.771 111.433C55.0056 112.938 54.771 115.339 54.771 115.339M53.481 107.526C52.4782 106.548 51.3884 106.663 50.1841 106.963M53.481 107.526C53.481 107.526 54.9335 104.98 56.4911 104.371C57.8022 103.858 58.7271 103.975 60.0746 104.371C61.6426 104.832 62.5901 105.752 63.3566 106.963M54.771 115.339L43.5905 120.748M54.771 115.339C54.771 115.339 56.7804 117.537 58.0678 118.945M54.771 115.339C54.771 115.339 58.3562 117.373 60.7913 117.142C63.0543 116.926 66.0751 114.588 66.0751 114.588M54.771 115.339L58.0678 118.945M58.0678 118.945C58.8515 121.292 60.0746 124.955 60.0746 124.955M58.0678 118.945C61.164 122.238 64.9413 126.255 68.3884 129.921M58.0678 118.945L60.0746 124.955M58.0678 118.945L68.3884 129.921M60.0746 124.955L49.0374 130.664M87.4526 150.196C87.4526 150.196 91.3228 149.144 91.8962 150.196C92.4696 151.248 94.0463 155.905 94.0463 155.905L97.3431 159.962M87.4526 150.196L78.2699 140.43M87.4526 150.196L85.0159 153.501M97.3431 159.962C97.3431 159.962 103.575 151.654 109.24 149.144C113.728 147.156 117.44 145.831 121.568 146.612M97.3431 159.962C97.3431 159.962 95.2923 160.763 94.6197 161.915C94.3223 162.425 94.0959 163.342 94.0959 163.342M130.025 151.248C130.025 151.248 127.252 148.769 125.151 147.792C123.907 147.213 122.721 146.831 121.568 146.612M121.568 146.612L142.352 135.171M142.352 135.171L146.796 124.955M142.352 135.171C142.352 135.171 149.696 133.65 154.393 134.12C157.705 134.451 162.706 136.073 162.706 136.073M142.352 135.171C142.352 135.171 147.486 132.117 151.096 131.115C154.365 130.207 159.696 130.063 159.696 130.063M146.796 124.955C146.796 124.955 136.045 120.149 128.735 118.945C121.214 117.706 116.829 118.312 109.24 118.945C102.011 119.548 97.7731 119.547 90.8928 121.95C87.0642 123.287 81.4323 126.307 81.4323 126.307M146.796 124.955L155.826 112.484M146.796 124.955L150.666 113.987M81.4323 126.307L78.2699 140.43M81.4323 126.307L83.4391 108.578M78.2699 140.43C78.2699 140.43 73.7249 135.596 68.3884 129.921M78.2699 140.43L68.3884 129.921M94.0959 163.342C94.0959 163.342 91.7708 159.302 89.3161 158.159C87.5579 157.341 85.3701 159.174 84.4425 157.408C83.7325 156.056 85.0159 153.501 85.0159 153.501M102.647 164.169C102.647 164.169 97.2429 167.376 96.6264 170.93C96.0583 174.204 99.3499 178.96 99.3499 178.96M99.3499 178.96C101.566 180.209 104.046 180.449 106.947 181.597C108.133 182.067 109.142 182.489 110.1 182.866M109.67 171.831C109.67 171.831 106.936 174.852 106.947 177.24C106.958 179.788 110.1 182.866 110.1 182.866M44.9841 107.842C45.86 107.736 46.7798 107.647 47.7473 107.526C48.6103 107.419 49.4202 107.154 50.1841 106.963M44.9841 107.842L28.3964 88.7454C28.3964 88.7454 27.6469 86.6122 28.3964 85.7404C29.4274 84.5412 32.1232 87.0927 32.1232 87.0927L50.1841 106.963M68.3884 129.921C68.3884 129.921 69.3553 123.737 68.3884 119.996C67.8108 117.762 66.0751 114.588 66.0751 114.588M66.0751 114.588C66.0751 114.588 65.6305 111.525 64.8048 109.78C64.3139 108.742 63.8769 107.785 63.3566 106.963M63.3566 106.963L69.3917 105.423L79.2822 96.2575M79.2822 96.2575C79.2822 96.2575 71.2918 89.9017 69.3917 83.9374C68.3559 80.686 68.3615 78.6508 68.3884 75.2231C68.4448 68.0181 72.3366 64.6338 73.2619 57.4941C74.121 50.8661 71.7263 46.8584 73.2619 40.3661C74.8408 33.6908 77.1223 29.8127 81.1457 25.0536C81.3171 24.8507 81.4918 24.6463 81.6697 24.4399M79.2822 96.2575C79.2822 96.2575 86.2518 99.6619 90.8928 101.366C96.3141 103.356 99.493 104.039 105.084 105.423C110.971 106.879 114.246 108.097 120.278 108.578C126.368 109.063 135.902 107.842 135.902 107.842C135.902 107.842 145.265 106.914 151.096 105.423C156.719 103.984 159.992 103.232 165.143 100.464C171.5 97.0493 175.084 94.5289 179.621 88.7452C184.47 82.5625 187.043 78.1955 188.078 70.265M82.7224 23.2381C87.2627 18.1258 90.6861 16.0356 96.6264 12.8711C97.6041 12.3503 98.4988 11.8912 99.3499 11.4786M82.7224 23.2381C82.3593 23.6468 82.0086 24.0468 81.6697 24.4399M82.7224 23.2381C82.7224 23.2381 82.1841 18.2425 82.7224 15.1247C83.0917 12.986 83.0622 11.5546 84.2992 9.81026C86.2727 7.02721 88.891 6.21593 92.1829 6.56077C95.5116 6.90946 99.3499 11.4786 99.3499 11.4786M146.939 12.1199C139.023 11.4183 135.217 7.26166 127.301 6.56077C120.14 5.92664 115.934 6.26972 108.954 8.06322C106.716 8.63826 104.926 9.17403 103.22 9.81026M146.939 12.1199C150.676 12.4511 152.985 10.8742 156.543 12.1199C160.324 13.444 162.015 15.5228 164.57 18.7307C165.496 19.8931 165.864 20.666 166.72 21.8858M146.939 12.1199C146.939 12.1199 142.878 13.858 140.775 15.7258C139.597 16.7721 138.383 17.1498 138.052 18.7307C137.649 20.6528 138.291 22.1161 139.199 23.8391M166.72 21.8858C171.307 28.4226 175.599 30.7283 179.621 37.6616C183.073 43.6128 184.699 47.2942 186.358 54.0384C187.876 60.2125 188.902 63.9479 188.078 70.265M166.72 21.8858C166.72 21.8858 168.565 28.5994 167.293 32.5533C166.465 35.129 166.085 37.3228 163.71 38.4129C162.279 39.0696 161.125 38.7483 159.84 38.3114M188.078 70.265L203.702 91.9003L212.589 113.987V134.12M180.441 251.612C180.441 251.612 188.312 258.099 190.944 263.932C194.054 270.824 192.08 275.77 192.808 283.356M192.808 283.356C194.483 282.778 196.175 281.986 197.825 281.074M197.825 281.074C205.442 276.862 212.159 270.092 212.159 270.092L211.442 197.373L210.725 197.116M197.825 281.074C197.825 281.074 199.362 268.866 196.391 262.129C193.459 255.479 183.777 248.82 183.777 248.82M198.398 195.054L205.995 195.42L210.725 197.116M212.589 134.12L210.725 197.116M81.6697 24.4399C81.6697 24.4399 78.7162 21.0143 77.9922 18.2799C77.0746 14.8144 77.4303 12.3879 78.8522 9.11487C80.2474 5.90336 81.8011 4.24548 84.7292 2.50406C87.0565 1.11993 88.6473 0.595999 91.3228 0.55086C94.1603 0.502989 95.9748 0.870809 98.3465 2.50406C101.123 4.41567 103.22 9.81026 103.22 9.81026M103.22 9.81026C101.935 10.2895 100.697 10.8257 99.3499 11.4786M139.199 23.8391C141.435 28.0854 143.274 30.494 146.939 33.4548C150.488 36.3223 153.298 36.7243 157.689 37.6616C158.479 37.8301 159.177 38.0861 159.84 38.3114M139.199 23.8391C139.199 23.8391 141.325 20.4748 143.355 19.1815C146.077 17.4483 148.268 16.9815 151.382 17.679C153.908 18.2448 155.239 19.2745 157.116 21.1347C159.091 23.0919 160.025 24.5783 160.843 27.2947C161.804 30.484 161.816 32.6736 160.843 35.8587C160.54 36.8513 159.84 38.3114 159.84 38.3114M97.3431 66.0582C97.8487 69.9645 98.6158 72.7791 96.6264 76.1246C94.6358 79.4724 92.0122 80.509 88.3127 81.233C84.8108 81.9183 82.1846 82.046 79.2822 79.8808C76.9037 78.1063 76.1781 76.1778 75.2687 73.27C73.7973 68.5653 74.2768 65.0637 76.4154 60.6493C78.7 55.9336 81.2628 51.7621 86.3059 51.9351C90.155 52.0671 92.3248 54.2525 94.6197 57.4941C96.5967 60.2867 96.8834 62.5038 97.3248 65.9165M97.3431 66.0582L97.3248 65.9165M97.3431 66.0582C97.337 66.0107 97.3309 65.9635 97.3248 65.9165M91.6095 90.2477C91.6095 90.2477 93.4628 93.4319 95.193 94.9053C97.0778 96.5104 98.3931 98.2101 100.783 97.76C102.558 97.426 104.51 94.9053 104.51 94.9053M104.51 94.9053V90.2477M104.51 94.9053C104.51 94.9053 107.852 97.6691 110.387 98.5113C113.856 99.6635 116.321 99.9146 119.704 98.5113C121.87 97.6127 124.578 94.9053 124.578 94.9053M104.51 90.2477C104.51 90.2477 98.0209 88.2685 97.3431 84.6886C97.147 83.6527 97.0565 82.7354 97.3431 81.9842C97.6298 81.233 98.9172 80.7876 100.067 80.3315C103.223 79.0788 105.625 79.6988 108.667 81.233C110.221 82.0167 111.635 82.2488 112.251 83.9374C112.65 85.0336 112.824 84.6886 112.251 86.9423C111.677 89.196 104.51 90.2477 104.51 90.2477ZM116.837 66.0582C115.908 69.1349 116.054 71.2008 116.837 74.3217C117.968 78.8273 119.871 81.3606 123.574 83.9374C127.884 86.9357 131.644 87.8274 136.618 86.3413C140.549 85.1672 143.157 83.6633 145.076 79.8808C146.764 76.5504 146.548 73.9817 145.936 70.265C145.12 65.3165 143.491 62.3124 139.772 59.1469C136.226 56.1289 133.245 54.3375 128.735 55.0902C125.593 55.6144 123.954 56.9427 121.568 59.1469C119.19 61.3427 117.794 62.8912 116.837 66.0582ZM120.421 69.9645L123.574 64.5557L128.735 65.1567L132.318 71.1665L131.028 81.233L127.875 71.1665L124.578 69.3636L120.421 69.9645ZM85.7326 75.2231L83.1524 67.8611L84.4425 63.0532L89.1727 60.6493L94.1896 64.105L89.1727 64.5557L87.3093 67.1099L85.7326 75.2231Z" stroke="black" stroke-width="1.0981"/>
</svg>
