<svg width="157" height="156" viewBox="0 0 157 156" fill="none" xmlns="http://www.w3.org/2000/svg">
<path d="M114.574 82.1307L116.254 72.6957C116.254 72.6957 116.982 65.7413 115.881 61.5277C114.709 57.0426 113.299 54.5773 110.281 51.1299C107.877 48.384 103.002 45.3534 103.002 45.3534L98.8954 43.4279C98.8954 43.4279 91.6498 48.9211 86.203 49.9746C82.5492 50.6814 80.4012 49.9746 76.6837 49.9746H66.7911L69.2176 53.0554L49.4028 61.5277L50.0605 64.0308C50.0605 64.0308 52.2912 62.5481 53.9121 62.1053C56.0928 61.5096 59.6984 62.1053 59.6984 62.1053L58.9517 58.4469C58.9517 58.4469 63.6762 58.6663 66.4178 59.7947C69.2987 60.9804 72.9507 64.3881 72.9507 64.3881L83.0299 65.1862C83.0299 65.1862 85.9821 69.5728 87.2706 72.6957C89.1148 77.1651 90.7542 80.0428 89.936 84.8264C89.4537 87.6462 87.1362 91.5657 87.1362 91.5657C87.1362 91.5657 91.0107 91.7517 93.4824 91.5657C98.4738 91.1901 101.476 90.9119 105.988 88.6774C109.747 86.8158 114.574 82.1307 114.574 82.1307Z" fill="#F6B718"/>
<path d="M50.9257 84.2487L51.4856 92.9135C51.4856 92.9135 58.0827 97.5177 62.8714 99.0752C67.158 100.469 69.773 100.494 74.2572 100.808C78.1117 101.078 80.2882 100.925 84.1498 100.808C89.4084 100.649 92.4598 101.053 97.5888 99.8454C104.741 98.1614 114.574 91.5657 114.574 91.5657V82.1307C114.574 82.1307 109.747 86.8158 105.988 88.6774C101.476 90.9119 98.4738 91.1901 93.4824 91.5657C91.0107 91.7517 87.1362 91.5657 87.1362 91.5657C87.1362 91.5657 79.3681 94.8877 75.0038 92.9135C73.0012 92.0076 71.9317 91.174 70.5242 89.4476C68.7806 87.309 67.7244 82.9009 67.7244 82.9009C67.7244 82.9009 61.9759 83.2793 58.5784 82.1307C55.7899 81.1879 52.0454 78.3577 52.0454 78.3577L50.9257 84.2487Z" fill="#F6B718"/>
<path d="M126.707 110.243L127.453 106.97C127.453 106.97 123.843 106.102 121.854 104.852C119.123 103.135 116.254 98.6901 116.254 98.6901L114.574 99.0752C114.574 99.0752 110.486 103.162 107.295 104.852C103.347 106.942 96.2822 107.74 96.2822 107.74L87.5767 107.547L87.2706 110.243L90.7648 125.262C90.7648 125.262 95.7537 125.737 98.8954 125.262C105.669 124.238 114.574 117.175 114.574 117.175L126.707 110.243Z" fill="#F6B718"/>
<path d="M50.9257 99.8454L47.1926 102.541L38.9799 105.044V107.74L49.9924 117.175L58.5784 122.181L72.0174 125.262L75.0038 114.672L77.9903 108.895C77.9903 108.895 70.8477 108.16 66.4178 106.97C63.295 106.13 58.5784 104.274 58.5784 104.274L50.9257 99.8454Z" fill="#F6B718"/>
<path d="M70.5242 132.194L81.35 135.467V111.013L77.9903 108.895L75.0038 114.672L72.0174 125.262L70.5242 132.194Z" fill="#F00000"/>
<path d="M81.35 111.013V135.467L92.7358 133.734L91.8847 130.076L90.7648 125.262L87.2706 110.243L87.1362 109.665L81.35 111.013Z" fill="#F00000"/>
<path d="M81.35 111.013L87.1362 109.665L87.2706 110.243L87.5767 107.547C87.5767 107.547 88.0961 105.889 87.8829 104.852C87.4129 102.567 85.2812 101.829 83.0299 101.578C80.9673 101.349 79.3585 101.703 77.9903 103.311C77.0169 104.456 76.3075 105.497 76.6837 106.97C76.9105 107.857 77.9903 108.895 77.9903 108.895L81.35 111.013Z" fill="#BE0D0D"/>
<path d="M51.4856 92.9135L50.9257 99.8454L58.5784 104.274C58.5784 104.274 63.295 106.13 66.4178 106.97C70.8477 108.16 77.9903 108.895 77.9903 108.895C77.9903 108.895 76.9105 107.857 76.6837 106.97C76.3075 105.497 77.0169 104.456 77.9903 103.311C79.3585 101.703 80.9673 101.349 83.0299 101.578C85.2812 101.829 87.4129 102.567 87.8829 104.852C88.0961 105.889 87.5767 107.547 87.5767 107.547L96.2822 107.74C96.2822 107.74 103.347 106.942 107.295 104.852C110.486 103.162 114.574 99.0752 114.574 99.0752V91.5657C114.574 91.5657 104.741 98.1614 97.5888 99.8454C92.4598 101.053 89.4084 100.649 84.1498 100.808C80.2882 100.925 78.1117 101.078 74.2572 100.808C69.773 100.494 67.158 100.469 62.8714 99.0752C58.0827 97.5177 51.4856 92.9135 51.4856 92.9135Z" fill="#F00000"/>
<path d="M83.0299 65.1862L72.9507 64.3881L76.6837 72.6957C76.6837 72.6957 78.2516 77.8285 77.9903 81.1679C77.7509 84.2263 78.5857 87.75 75.7505 88.6774C74.7082 89.0183 73.9807 89.0557 72.9507 88.6774C70.7055 87.8528 70.5242 82.9009 70.5242 82.9009H67.7244C67.7244 82.9009 68.7806 87.309 70.5242 89.4476C71.9317 91.174 73.0012 92.0076 75.0038 92.9135C79.3681 94.8877 87.1362 91.5657 87.1362 91.5657C87.1362 91.5657 89.4537 87.6462 89.936 84.8264C90.7542 80.0428 89.1148 77.1651 87.2706 72.6957C85.9821 69.5728 83.0299 65.1862 83.0299 65.1862Z" fill="#FEF0F0"/>
<path d="M48.1259 84.2487H50.9257L52.0454 78.3577C52.0454 78.3577 52.6851 75.9871 52.7922 74.4286C53.0802 70.2386 50.0605 64.0308 50.0605 64.0308L49.4028 61.5277L46.0579 62.9579C46.0579 62.9579 48.5033 68.0306 48.8725 71.5403C49.2122 74.769 49.6204 76.9424 48.1259 79.82C46.7962 82.3803 42.713 84.8264 42.713 84.8264L48.1259 84.2487Z" fill="#F6B718"/>
<path d="M42.713 64.3881C42.713 64.3881 45.7591 69.7102 45.8861 73.4659C45.9792 76.2196 46.2026 78.1783 44.5795 80.3977C43.6799 81.6278 42.9326 82.1824 41.5931 82.9009C39.2586 84.153 34.8736 83.7673 34.8736 83.7673L37.3001 85.404L42.713 84.8264C42.713 84.8264 46.7962 82.3803 48.1259 79.82C49.6204 76.9424 49.2122 74.769 48.8725 71.5403C48.5033 68.0306 46.0579 62.9579 46.0579 62.9579L42.713 64.3881Z" fill="#FEF0F0"/>
<path d="M91.8847 130.076L93.4824 129.691L124.28 142.014C124.28 142.014 130.345 142.556 134.173 142.014C138.468 141.405 144.812 138.741 144.812 138.741C144.812 138.741 144.897 136.274 144.812 134.697C144.566 130.161 144.368 127.393 142.385 123.337C139.879 118.209 137.076 115.899 132.306 112.939C130.238 111.656 126.707 110.243 126.707 110.243L114.574 117.175C114.574 117.175 105.669 124.238 98.8954 125.262C95.7537 125.737 90.7648 125.262 90.7648 125.262L91.8847 130.076Z" fill="#24161A"/>
<path d="M47.5659 138.356L70.5242 132.194L72.0174 125.262L58.5784 122.181L49.9924 117.175L38.9799 107.74C38.9799 107.74 34.2687 111.055 31.5138 113.517C29.4486 115.362 27.9546 116.154 26.4742 118.523C23.4992 123.284 25.1677 132.964 25.1677 132.964C25.1677 132.964 27.7906 135.559 29.834 136.623C31.9971 137.749 33.4228 137.909 35.8069 138.356C40.3251 139.202 47.5659 138.356 47.5659 138.356Z" fill="#24161A"/>
<path d="M123.72 149.716L136.039 153.375C136.039 153.375 151.531 156.84 154.331 153.952C157.131 151.064 155.824 151.834 156.011 149.331C156.198 146.828 144.812 141.436 144.812 141.436C144.812 141.436 138.423 143.625 134.173 144.132C130.275 144.597 124.126 144.132 124.126 144.132L123.72 149.716Z" fill="#24161A"/>
<path d="M13.4086 149.524C14.5688 152.959 18.5261 151.753 21.9946 152.412C26.7259 153.311 29.5161 152.781 34.3136 152.412C38.4976 152.09 44.9528 150.871 44.9528 150.871V141.629C44.9528 141.629 40.6209 141.859 37.86 141.629C34.8381 141.377 33.0692 141.313 30.2073 140.281C27.8069 139.415 24.4211 137.2 24.4211 137.2L20.3147 140.281C20.3147 140.281 14.2986 142.306 13.4086 145.673C13.0249 147.123 12.929 148.103 13.4086 149.524Z" fill="#24161A"/>
<path d="M44.9528 141.629L47.5659 138.356C47.5659 138.356 40.3251 139.202 35.8069 138.356C33.4228 137.909 31.9971 137.749 29.834 136.623C27.7906 135.559 25.1677 132.964 25.1677 132.964L24.4211 133.734V137.2C24.4211 137.2 27.8069 139.415 30.2073 140.281C33.0692 141.313 34.8381 141.377 37.86 141.629C40.6209 141.859 44.9528 141.629 44.9528 141.629Z" fill="#FF0000"/>
<path d="M134.173 142.014C130.345 142.556 124.28 142.014 124.28 142.014L124.126 144.132C124.126 144.132 130.275 144.597 134.173 144.132C138.423 143.625 144.812 141.436 144.812 141.436V138.741C144.812 138.741 138.468 141.405 134.173 142.014Z" fill="#FF0000"/>
<path d="M76.6837 72.6957L72.9507 64.3881C72.9507 64.3881 69.2987 60.9804 66.4178 59.7947C63.6762 58.6663 58.9517 58.4469 58.9517 58.4469L59.6984 62.1053C59.6984 62.1053 56.0928 61.5096 53.9121 62.1053C52.2912 62.5481 50.0605 64.0308 50.0605 64.0308C50.0605 64.0308 53.0802 70.2386 52.7922 74.4286C52.6851 75.9871 52.0454 78.3577 52.0454 78.3577C52.0454 78.3577 55.7899 81.1879 58.5784 82.1307C61.9759 83.2793 67.7244 82.9009 67.7244 82.9009H70.5242C70.5242 82.9009 70.7055 87.8528 72.9507 88.6774C73.9807 89.0557 74.7082 89.0183 75.7505 88.6774C78.5857 87.75 77.7509 84.2263 77.9903 81.1679C78.2516 77.8285 76.6837 72.6957 76.6837 72.6957Z" fill="#24161A"/>
<path d="M40.8465 65.1862L38.9799 62.0228L38.2333 60.7575L35.9935 60.1201L34.8502 59.7947L32.8204 59.2171L31.3272 61.5277L33.227 65.1862H40.4732L39.7266 69.8074V73.4659L35.9935 77.702L30.3939 78.4722L30.2701 78.3577L32.4471 82.1307L34.8736 83.7673C34.8736 83.7673 39.2586 84.153 41.5931 82.9009C42.9326 82.1824 43.6799 81.6278 44.5795 80.3977C46.2026 78.1783 45.9792 76.2196 45.8861 73.4659C45.7591 69.7102 42.713 64.3881 42.713 64.3881L40.8465 65.1862Z" fill="#24161A"/>
<path d="M37.3001 72.6957L34.127 66.9191L33.227 65.1862H25.3543H22.9278L24.981 73.4659L30.2701 78.3577L30.3939 78.4722L35.9935 77.702L39.7266 73.4659V69.8074L37.3001 72.6957Z" fill="#24161A"/>
<path fill-rule="evenodd" clip-rule="evenodd" d="M98.8954 43.4279L100.575 37.2662C100.575 37.2662 101.449 33.4595 100.949 31.1046C100.452 28.7715 99.0521 27.9125 98.1487 25.7132C96.652 22.0692 97.5601 19.367 95.7223 15.8931C95.4612 15.3996 95.127 14.8735 94.7642 14.3526C93.4668 12.4902 91.8026 10.6942 91.8026 10.6942C91.8026 10.6942 87.3274 5.83626 83.5899 4.33998C79.4357 2.6769 76.6534 3.31892 72.2041 3.56977C68.7455 3.76477 64.738 4.34006 63.4314 4.91763C62.1248 5.4952 60.0313 9.03303 57.6452 11.4644C55.1818 13.9744 52.9256 14.7604 50.8943 17.2409C50.6527 17.5359 50.4143 17.8549 50.1791 18.2037C48.7454 20.3294 47.9955 21.6624 47.3793 24.1728C46.6278 27.2344 47.3793 32.2599 47.3793 32.2599L51.299 33.6078L56.8986 37.8439L62.6848 43.4279L66.7911 49.9746H76.6837C80.4012 49.9746 82.5492 50.6814 86.203 49.9746C91.6498 48.9211 98.8954 43.4279 98.8954 43.4279ZM66.4178 30.1418C66.1025 29.0618 66.2586 28.3695 66.4178 27.2535C66.7078 25.2216 67.228 24.0441 68.471 22.4398C69.8095 20.7122 70.9844 20.0477 72.9507 19.1664C74.1353 18.6354 74.8321 18.2058 76.1238 18.2037C78.0482 18.2005 80.6034 20.3217 80.6034 20.3217C80.6034 20.3217 83.5362 24.3392 82.6566 26.8684C82.0819 28.5208 80.9947 29.0398 79.6702 30.1418C77.1296 32.2556 75.2551 34.0333 72.0174 33.6078C69.4877 33.2753 67.1533 32.6608 66.4178 30.1418ZM89.1894 26.0982C88.4947 24.4351 88.252 23.1919 88.8161 21.477C89.3395 19.8859 89.9099 18.4385 91.5226 18.2037C92.6296 18.0425 93.3061 18.5155 94.229 19.1664C96.1734 20.5375 96.2478 22.524 96.4689 24.9429C96.6556 26.9863 97.564 29.3656 95.7223 30.1418C94.9125 30.4831 93.4824 30.1418 93.4824 30.1418C93.4824 30.1418 90.0878 28.249 89.1894 26.0982ZM85.643 33.0301C85.2793 35.2948 90.496 36.1109 90.496 36.1109C90.496 36.1109 94.9884 35.1159 94.7642 33.0301C94.6407 31.8813 94.0055 31.306 93.1091 30.6125C91.3596 29.2591 89.3217 29.3498 87.5096 30.6125C86.54 31.2881 85.8342 31.8393 85.643 33.0301Z" fill="#FDF7D8"/>
<path d="M57.6452 11.4644C60.0313 9.03303 62.1248 5.4952 63.4314 4.91763C63.4314 4.91763 61.3723 3.56587 59.885 3.18462C57.6169 2.60321 56.2176 2.01909 53.9121 2.41443C51.9065 2.75836 50.3887 3.52019 48.8725 4.91763C46.9739 6.66758 46.9691 8.8722 47.3793 11.4644C47.7953 14.0931 50.8943 17.2409 50.8943 17.2409C52.9256 14.7604 55.1818 13.9744 57.6452 11.4644Z" fill="#24161A"/>
<path d="M83.5899 4.33998C87.3274 5.83626 91.8026 10.6942 91.8026 10.6942C91.8026 10.6942 93.4668 12.4902 94.7642 14.3526L96.4689 9.73136C96.4689 9.73136 97.083 6.68754 96.4689 4.91763C95.7732 2.91267 94.7859 1.79021 92.9225 0.87401C90.8168 -0.161248 89.0601 -0.150578 86.9496 0.87401C85.2707 1.68907 83.5899 4.33998 83.5899 4.33998Z" fill="#24161A"/>
<path d="M34.127 66.9191L37.3001 72.6957L39.7266 69.8074L40.4732 65.1862H33.227L34.127 66.9191Z" fill="#F8780F"/>
<path d="M31.3272 61.5277L32.8204 59.2171L30.3939 58.832L27.0342 60.7575L25.7276 61.9128L24.4211 63.0681L25.3543 65.1862H33.227L31.3272 61.5277Z" fill="#F8780F"/>
<path d="M38.2333 60.7575L38.9799 62.0228L40.8465 65.1862L42.713 64.3881L46.0579 62.9579L49.4028 61.5277L46.0579 56.8102C46.0579 56.8102 44.4101 53.5572 42.713 52.0927C40.9203 50.5458 39.2251 49.8251 37.3001 49.5349C36.1076 49.3551 34.827 49.3405 33.3804 49.397C30.8047 49.4975 28.8816 50.0944 27.0342 51.1253C25.6985 51.8706 24.4024 52.8428 22.9278 54.0182C22.1924 54.6044 21.4126 55.3885 20.688 56.1895C19.0943 57.9512 17.7678 59.7947 17.7678 59.7947L24.4211 63.0681L25.7276 61.9128L27.0342 60.7575L30.3939 58.832L32.8204 59.2171L34.8502 59.7947L35.9935 60.1201L38.2333 60.7575Z" fill="#EEDFA8"/>
<path d="M0.15625 51.1299L17.7678 59.7947C17.7678 59.7947 19.0943 57.9512 20.688 56.1895L6.24888 43.7356L0.15625 51.1299Z" fill="#C75600"/>
<path d="M12.662 37.8439L6.50243 43.4279L6.24888 43.7356L20.688 56.1895C21.4126 55.3885 22.1924 54.6044 22.9278 54.0182L12.662 37.8439Z" fill="#C75600"/>
<path d="M19.0081 33.6078L12.662 37.8439L22.9278 54.0182C24.4024 52.8428 25.6985 51.8706 27.0342 51.1253L19.0081 33.6078Z" fill="#C75600"/>
<path d="M27.9675 31.1046L19.0081 33.6078L27.0342 51.1253C28.8816 50.0944 30.8047 49.4975 33.3804 49.397L30.3939 30.8925L27.9675 31.1046Z" fill="#C75600"/>
<path d="M38.9799 30.1418L30.3939 30.8925L33.3804 49.397C34.827 49.3405 36.1076 49.3551 37.3001 49.5349L40.8465 30.6125L38.9799 30.1418Z" fill="#C75600"/>
<path d="M51.299 33.6078L47.3793 32.2599L40.8465 30.6125L37.3001 49.5349C39.2251 49.8251 40.9203 50.5458 42.713 52.0927L51.299 33.6078Z" fill="#C75600"/>
<path d="M56.8986 37.8439L51.299 33.6078L42.713 52.0927C44.4101 53.5572 46.0579 56.8102 46.0579 56.8102L62.6848 43.4279L56.8986 37.8439Z" fill="#C75600"/>
<path d="M66.7911 49.9746L62.6848 43.4279L46.0579 56.8102L49.4028 61.5277L69.2176 53.0554L66.7911 49.9746Z" fill="#C75600"/>
<path d="M90.496 36.1109C90.496 36.1109 85.2793 35.2948 85.643 33.0301C85.8342 31.8393 86.54 31.2881 87.5096 30.6125C89.3217 29.3498 91.3596 29.2591 93.1091 30.6125C94.0055 31.306 94.6407 31.8813 94.7642 33.0301C94.9884 35.1159 90.496 36.1109 90.496 36.1109Z" fill="black"/>
<path fill-rule="evenodd" clip-rule="evenodd" d="M66.4178 27.2535C66.2586 28.3695 66.1025 29.0618 66.4178 30.1418C67.1533 32.6608 69.4877 33.2753 72.0174 33.6078C75.2551 34.0333 77.1296 32.2556 79.6702 30.1418C80.9947 29.0398 82.0819 28.5208 82.6566 26.8684C83.5362 24.3392 80.6034 20.3217 80.6034 20.3217C80.6034 20.3217 78.0482 18.2005 76.1238 18.2037C74.8321 18.2058 74.1353 18.6354 72.9507 19.1664C70.9844 20.0477 69.8095 20.7122 68.471 22.4398C67.228 24.0441 66.7078 25.2216 66.4178 27.2535ZM72.0174 24.3926V29.5978L74.3233 26.0982L76.1238 24.9429L80.0727 25.7132L74.8983 22.0792L72.0174 24.3926Z" fill="black"/>
<path fill-rule="evenodd" clip-rule="evenodd" d="M88.8161 21.477C88.252 23.1919 88.4947 24.4351 89.1894 26.0982C90.0878 28.249 93.4824 30.1418 93.4824 30.1418C93.4824 30.1418 94.9125 30.4831 95.7223 30.1418C97.564 29.3656 96.6556 26.9863 96.4689 24.9429C96.2478 22.524 96.1734 20.5375 94.229 19.1664C93.3061 18.5155 92.6296 18.0425 91.5226 18.2037C89.9099 18.4385 89.3395 19.8859 88.8161 21.477ZM93.1091 21.8864L90.496 23.2359L92.5297 24.3926L93.6796 25.3565L94.7642 28.0555L95.0211 24.3926L93.1091 21.8864Z" fill="black"/>
<path d="M72.0174 29.5978V24.3926L74.8983 22.0792L80.0727 25.7132L76.1238 24.9429L74.3233 26.0982L72.0174 29.5978Z" fill="#FAF8ED"/>
<path d="M90.496 23.2359L93.1091 21.8864L95.0211 24.3926L94.7642 28.0555L93.6796 25.3565L92.5297 24.3926L90.496 23.2359Z" fill="#FAF8ED"/>
<path d="M44.9528 141.629V150.871C44.9528 150.871 38.4976 152.09 34.3136 152.412C29.5161 152.781 26.7259 153.311 21.9946 152.412C18.5261 151.753 14.5688 152.959 13.4086 149.524C12.929 148.103 13.0249 147.123 13.4086 145.673C14.2986 142.306 20.3147 140.281 20.3147 140.281L24.4211 137.2M44.9528 141.629L47.5659 138.356M44.9528 141.629C44.9528 141.629 40.6209 141.859 37.86 141.629C34.8381 141.377 33.0692 141.313 30.2073 140.281C27.8069 139.415 24.4211 137.2 24.4211 137.2M47.5659 138.356L70.5242 132.194M47.5659 138.356C47.5659 138.356 40.3251 139.202 35.8069 138.356C33.4228 137.909 31.9971 137.749 29.834 136.623C27.7906 135.559 25.1677 132.964 25.1677 132.964M70.5242 132.194L81.35 135.467M70.5242 132.194L72.0174 125.262M81.35 135.467V111.013M81.35 135.467L92.7358 133.734L91.8847 130.076M81.35 111.013L87.1362 109.665L87.2706 110.243M81.35 111.013L77.9903 108.895M91.8847 130.076L93.4824 129.691L124.28 142.014M91.8847 130.076L90.7648 125.262M124.28 142.014C124.28 142.014 130.345 142.556 134.173 142.014C138.468 141.405 144.812 138.741 144.812 138.741M124.28 142.014L124.126 144.132M144.812 141.436C144.812 141.436 156.198 146.828 156.011 149.331C155.824 151.834 157.131 151.064 154.331 153.952C151.531 156.84 136.039 153.375 136.039 153.375L123.72 149.716L124.126 144.132M144.812 141.436V138.741M144.812 141.436C144.812 141.436 138.423 143.625 134.173 144.132C130.275 144.597 124.126 144.132 124.126 144.132M126.707 110.243C126.707 110.243 130.238 111.656 132.306 112.939C137.076 115.899 139.879 118.209 142.385 123.337C144.368 127.393 144.566 130.161 144.812 134.697C144.897 136.274 144.812 138.741 144.812 138.741M126.707 110.243L127.453 106.97C127.453 106.97 123.843 106.102 121.854 104.852C119.123 103.135 116.254 98.6901 116.254 98.6901L114.574 99.0752M126.707 110.243L114.574 117.175C114.574 117.175 105.669 124.238 98.8954 125.262C95.7537 125.737 90.7648 125.262 90.7648 125.262M114.574 99.0752C114.574 99.0752 110.486 103.162 107.295 104.852C103.347 106.942 96.2822 107.74 96.2822 107.74L87.5767 107.547M114.574 99.0752V91.5657M114.574 82.1307L116.254 72.6957C116.254 72.6957 116.982 65.7413 115.881 61.5277C114.709 57.0426 113.299 54.5773 110.281 51.1299C107.877 48.384 103.002 45.3534 103.002 45.3534L98.8954 43.4279M114.574 82.1307V91.5657M114.574 82.1307C114.574 82.1307 109.747 86.8158 105.988 88.6774C101.476 90.9119 98.4738 91.1901 93.4824 91.5657C91.0107 91.7517 87.1362 91.5657 87.1362 91.5657M98.8954 43.4279L100.575 37.2662C100.575 37.2662 101.449 33.4595 100.949 31.1046C100.452 28.7715 99.0521 27.9125 98.1487 25.7132C96.652 22.0692 97.5601 19.367 95.7223 15.8931C95.4612 15.3996 95.127 14.8735 94.7642 14.3526M98.8954 43.4279C98.8954 43.4279 91.6498 48.9211 86.203 49.9746C82.5492 50.6814 80.4012 49.9746 76.6837 49.9746M98.8954 43.4279L91.8847 52.0927C91.8847 52.0927 87.831 56.8254 84.3365 58.2543C79.8641 60.083 76.7976 58.8141 72.0174 58.2543C68.6226 57.8568 63.4314 56.5214 63.4314 56.5214M83.5899 4.33998C87.3274 5.83626 91.8026 10.6942 91.8026 10.6942C91.8026 10.6942 93.4668 12.4902 94.7642 14.3526M83.5899 4.33998C79.4357 2.6769 76.6534 3.31892 72.2041 3.56977C68.7455 3.76477 64.738 4.34006 63.4314 4.91763M83.5899 4.33998C83.5899 4.33998 85.2707 1.68907 86.9496 0.87401C89.0601 -0.150578 90.8168 -0.161248 92.9225 0.87401C94.7859 1.79021 95.7732 2.91267 96.4689 4.91763C97.083 6.68754 96.4689 9.73136 96.4689 9.73136L94.7642 14.3526M63.4314 4.91763C62.1248 5.4952 60.0313 9.03303 57.6452 11.4644C55.1818 13.9744 52.9256 14.7604 50.8943 17.2409M63.4314 4.91763C63.4314 4.91763 61.3723 3.56587 59.885 3.18462C57.6169 2.60321 56.2176 2.01909 53.9121 2.41443C51.9065 2.75836 50.3887 3.52019 48.8725 4.91763C46.9739 6.66758 46.9691 8.8722 47.3793 11.4644C47.7953 14.0931 50.8943 17.2409 50.8943 17.2409M47.3793 32.2599C47.3793 32.2599 46.6278 27.2344 47.3793 24.1728C47.9955 21.6624 48.7454 20.3294 50.1791 18.2037C50.4143 17.8549 50.6527 17.5359 50.8943 17.2409M47.3793 32.2599L51.299 33.6078M47.3793 32.2599L40.8465 30.6125M51.299 33.6078L56.8986 37.8439L62.6848 43.4279M51.299 33.6078L42.713 52.0927M62.6848 43.4279L66.7911 49.9746M62.6848 43.4279L46.0579 56.8102M66.7911 49.9746L69.2176 53.0554L49.4028 61.5277M66.7911 49.9746C66.7911 49.9746 72.8204 49.9746 76.6837 49.9746M66.7911 49.9746H76.6837M38.2333 60.7575L35.9935 60.1201M38.2333 60.7575L42.713 52.0927M38.2333 60.7575L38.9799 62.0228M32.8204 59.2171L31.3272 61.5277L33.227 65.1862M32.8204 59.2171L30.3939 58.832M32.8204 59.2171L34.8502 59.7947M39.7266 69.8074L37.3001 72.6957L34.127 66.9191L33.227 65.1862M39.7266 69.8074L40.4732 65.1862H33.227M39.7266 69.8074V73.4659L35.9935 77.702L30.3939 78.4722L30.2701 78.3577M25.3543 65.1862H22.9278L24.981 73.4659L30.2701 78.3577M25.3543 65.1862L24.4211 63.0681M25.3543 65.1862H33.227M24.4211 63.0681L17.7678 59.7947M24.4211 63.0681L25.7276 61.9128M27.0342 60.7575L30.3939 58.832M27.0342 60.7575L22.9278 54.0182M27.0342 60.7575L25.7276 61.9128M30.3939 58.832L27.0342 51.1253M30.2701 78.3577L32.4471 82.1307L34.8736 83.7673M50.9257 84.2487H48.1259L42.713 84.8264M50.9257 84.2487L51.4856 92.9135M50.9257 84.2487L52.0454 78.3577M51.4856 92.9135L50.9257 99.8454M51.4856 92.9135C51.4856 92.9135 58.0827 97.5177 62.8714 99.0752C67.158 100.469 69.773 100.494 74.2572 100.808C78.1117 101.078 80.2882 100.925 84.1498 100.808C89.4084 100.649 92.4598 101.053 97.5888 99.8454C104.741 98.1614 114.574 91.5657 114.574 91.5657M50.9257 99.8454L47.1926 102.541L38.9799 105.044V107.74M50.9257 99.8454L58.5784 104.274C58.5784 104.274 63.295 106.13 66.4178 106.97C70.8477 108.16 77.9903 108.895 77.9903 108.895M38.9799 107.74C38.9799 107.74 34.2687 111.055 31.5138 113.517C29.4486 115.362 27.9546 116.154 26.4742 118.523C23.4992 123.284 25.1677 132.964 25.1677 132.964M38.9799 107.74L49.9924 117.175L58.5784 122.181L72.0174 125.262M25.1677 132.964L24.4211 133.734V137.2M72.0174 125.262L75.0038 114.672L77.9903 108.895M77.9903 108.895C77.9903 108.895 76.9105 107.857 76.6837 106.97C76.3075 105.497 77.0169 104.456 77.9903 103.311C79.3585 101.703 80.9673 101.349 83.0299 101.578C85.2812 101.829 87.4129 102.567 87.8829 104.852C88.0961 105.889 87.5767 107.547 87.5767 107.547M87.2706 110.243L87.5767 107.547M87.2706 110.243L90.7648 125.262M49.4028 61.5277L46.0579 62.9579M49.4028 61.5277L50.0605 64.0308M49.4028 61.5277L46.0579 56.8102M42.713 64.3881L40.8465 65.1862L38.9799 62.0228M42.713 64.3881C42.713 64.3881 45.7591 69.7102 45.8861 73.4659C45.9792 76.2196 46.2026 78.1783 44.5795 80.3977C43.6799 81.6278 42.9326 82.1824 41.5931 82.9009C39.2586 84.153 34.8736 83.7673 34.8736 83.7673M42.713 64.3881L46.0579 62.9579M34.8736 83.7673L37.3001 85.404L42.713 84.8264M46.0579 62.9579C46.0579 62.9579 48.5033 68.0306 48.8725 71.5403C49.2122 74.769 49.6204 76.9424 48.1259 79.82C46.7962 82.3803 42.713 84.8264 42.713 84.8264M72.9507 64.3881L83.0299 65.1862M72.9507 64.3881C74.4085 67.6324 75.2259 69.4513 76.6837 72.6957M72.9507 64.3881C72.9507 64.3881 69.2987 60.9804 66.4178 59.7947C63.6762 58.6663 58.9517 58.4469 58.9517 58.4469L59.6984 62.1053M72.9507 64.3881L76.6837 72.6957M83.0299 65.1862C83.0299 65.1862 85.9821 69.5728 87.2706 72.6957C89.1148 77.1651 90.7542 80.0428 89.936 84.8264C89.4537 87.6462 87.1362 91.5657 87.1362 91.5657M83.0299 65.1862C83.0299 65.1862 86.4187 63.0324 88.8161 63.0681C89.8885 63.0841 91.5226 63.5495 91.5226 63.5495M87.1362 91.5657C87.1362 91.5657 79.3681 94.8877 75.0038 92.9135C73.0012 92.0076 71.9317 91.174 70.5242 89.4476C68.7806 87.309 67.7244 82.9009 67.7244 82.9009M94.229 64.0308L100.762 68.6521M94.229 64.0308C94.229 64.0308 97.1613 63.2622 99.082 63.0681C101.113 62.8628 104.308 63.0681 104.308 63.0681M94.229 64.0308L91.5226 63.5495M91.5226 63.5495C91.5226 63.5495 91.1958 61.2218 91.5226 59.7947C92.1934 56.8654 96.4689 54.0182 96.4689 54.0182M76.6837 72.6957C76.6837 72.6957 78.2516 77.8285 77.9903 81.1679C77.7509 84.2263 78.5857 87.75 75.7505 88.6774C74.7082 89.0183 73.9807 89.0557 72.9507 88.6774C70.7055 87.8528 70.5242 82.9009 70.5242 82.9009H67.7244M67.7244 82.9009C67.7244 82.9009 61.9759 83.2793 58.5784 82.1307C55.7899 81.1879 52.0454 78.3577 52.0454 78.3577M52.0454 78.3577C52.0454 78.3577 52.6851 75.9871 52.7922 74.4286C53.0802 70.2386 50.0605 64.0308 50.0605 64.0308M50.0605 64.0308C50.0605 64.0308 52.2912 62.5481 53.9121 62.1053C56.0928 61.5096 59.6984 62.1053 59.6984 62.1053M59.6984 62.1053L69.2176 66.9191M19.0081 33.6078L27.9675 31.1046L30.3939 30.8925M19.0081 33.6078L12.662 37.8439M19.0081 33.6078L27.0342 51.1253M12.662 37.8439L6.50243 43.4279L6.24888 43.7356M12.662 37.8439L22.9278 54.0182M17.7678 59.7947L0.15625 51.1299L6.24888 43.7356M17.7678 59.7947C17.7678 59.7947 19.0943 57.9512 20.688 56.1895M22.9278 54.0182C24.4024 52.8428 25.6985 51.8706 27.0342 51.1253M22.9278 54.0182C22.1924 54.6044 21.4126 55.3885 20.688 56.1895M33.3804 49.397L30.3939 30.8925M33.3804 49.397C34.827 49.3405 36.1076 49.3551 37.3001 49.5349M33.3804 49.397C30.8047 49.4975 28.8816 50.0944 27.0342 51.1253M33.3804 49.397L34.8502 59.7947M42.713 52.0927C44.4101 53.5572 46.0579 56.8102 46.0579 56.8102M42.713 52.0927C40.9203 50.5458 39.2251 49.8251 37.3001 49.5349M46.0579 56.8102L38.9799 62.0228M30.3939 30.8925L38.9799 30.1418L40.8465 30.6125M37.3001 49.5349L40.8465 30.6125M37.3001 49.5349L35.9935 60.1201M20.688 56.1895L6.24888 43.7356M20.688 56.1895L25.7276 61.9128M77.4303 37.2662C77.4303 37.2662 80.5604 40.0566 83.0299 40.5396C85.7971 41.0808 90.1227 39.1917 90.1227 39.1917M90.1227 39.1917L90.496 36.1109M90.1227 39.1917C90.1227 39.1917 91.9798 41.1457 93.1091 40.5396C93.8086 40.1642 94.229 38.8066 94.229 38.8066M90.496 36.1109C90.496 36.1109 85.2793 35.2948 85.643 33.0301C85.8342 31.8393 86.54 31.2881 87.5096 30.6125C89.3217 29.3498 91.3596 29.2591 93.1091 30.6125C94.0055 31.306 94.6407 31.8813 94.7642 33.0301C94.9884 35.1159 90.496 36.1109 90.496 36.1109ZM34.8502 59.7947L35.9935 60.1201M66.4178 27.2535C66.2586 28.3695 66.1025 29.0618 66.4178 30.1418C67.1533 32.6608 69.4877 33.2753 72.0174 33.6078C75.2551 34.0333 77.1296 32.2556 79.6702 30.1418C80.9947 29.0398 82.0819 28.5208 82.6566 26.8684C83.5362 24.3392 80.6034 20.3217 80.6034 20.3217C80.6034 20.3217 78.0482 18.2005 76.1238 18.2037C74.8321 18.2058 74.1353 18.6354 72.9507 19.1664C70.9844 20.0477 69.8095 20.7122 68.471 22.4398C67.228 24.0441 66.7078 25.2216 66.4178 27.2535ZM88.8161 21.477C88.252 23.1919 88.4947 24.4351 89.1894 26.0982C90.0878 28.249 93.4824 30.1418 93.4824 30.1418C93.4824 30.1418 94.9125 30.4831 95.7223 30.1418C97.564 29.3656 96.6556 26.9863 96.4689 24.9429C96.2478 22.524 96.1734 20.5375 94.229 19.1664C93.3061 18.5155 92.6296 18.0425 91.5226 18.2037C89.9099 18.4385 89.3395 19.8859 88.8161 21.477ZM72.0174 29.5978V24.3926L74.8983 22.0792L80.0727 25.7132L76.1238 24.9429L74.3233 26.0982L72.0174 29.5978ZM90.496 23.2359L93.1091 21.8864L95.0211 24.3926L94.7642 28.0555L93.6796 25.3565L92.5297 24.3926L90.496 23.2359Z" stroke="black" stroke-width="0.2"/>
</svg>
