<svg width="316" height="389" viewBox="0 0 316 389" fill="none" xmlns="http://www.w3.org/2000/svg">
<g filter="url(#filter0_i_2863_831)">
<path d="M90.5664 97.2683C90.5664 97.2683 85.4437 98.4454 82.4976 100.008C76.402 103.242 74.5412 107.44 70.3945 113.023C62.5267 123.616 59.9776 131.11 56.2742 143.847C51.406 160.59 52.2398 188.372 52.2398 188.372C52.2398 188.372 52.8447 196.037 54.257 200.701C55.9875 206.417 59.436 208.63 60.9809 214.401L76.4455 227.416C76.4455 227.416 89.9692 228.251 98.6346 228.786C86.8225 227.41 78.5316 219.475 76.4455 207.551C75.1262 200.01 77.2314 195.28 80.4799 188.372C84.2576 180.337 87.5861 175.495 95.2726 171.247C102.748 167.116 108.554 165.658 116.789 167.822C122.025 169.198 128.892 174.672 128.892 174.672L131.582 184.262C131.582 184.262 133.396 180.21 135.616 178.782C138.947 176.639 143.015 175.849 145.702 178.782C148.211 181.52 147.126 184.919 145.702 188.372C143.811 192.959 135.616 195.906 135.616 195.906L129.994 204.759L120.824 219.196C120.824 219.196 107.3 225.041 98.6346 228.786C89.9692 228.251 76.4455 227.416 76.4455 227.416C76.4455 227.416 89.6876 234.026 98.6346 237.006C109.111 240.495 126.203 243.171 126.203 243.171L137.634 227.416L151.082 207.551C151.082 207.551 164.314 194.118 171.254 184.262C177.975 174.718 186.046 158.232 186.046 158.232C186.046 158.232 156.54 143.203 137.634 133.573C125.555 125.547 106.703 113.023 106.703 113.023L90.5664 97.2683Z" fill="#A3150C"/>
<path d="M233.114 200.701C237.821 200.016 250.344 207.474 261.355 205.496C264.185 204.988 266.569 204.322 268.751 203.475C268.751 203.475 266.157 183.78 267.406 171.247C268.025 165.034 268.416 161.498 270.096 155.492C271.966 148.803 273.087 144.876 276.82 139.053C279.468 134.923 284.889 129.463 284.889 129.463C281.526 128.093 266.061 128.093 261.355 129.463C258.624 130.257 255.304 133.573 255.304 133.573L233.114 116.448L226.39 119.873L212.27 128.093L199.494 158.232L186.046 182.207L173.943 198.647L152.426 223.991L137.634 243.171H155.788L163.185 237.006H171.254C171.254 237.006 180.914 235.902 186.887 234.213C197.46 231.224 203.491 228.644 212.27 221.936C218.508 217.169 226.39 207.551 226.39 207.551C226.39 207.551 228.72 198.841 229.08 193.114C229.5 186.439 228.909 182.623 227.735 176.042C226.309 168.05 221.683 156.177 221.683 156.177V134.943L224.541 156.177L231.937 176.042L233.114 200.701Z" fill="#A3150C"/>
<path d="M248.58 259.61C241.553 249.526 230.425 239.061 229.08 234.951L221.683 241.116C221.683 241.116 211.982 248.821 204.873 252.076C197.899 255.269 186.046 257.556 186.046 257.556L196.805 271.94L210.252 297.97L233.786 277.42L248.58 259.61Z" fill="#A3150C"/>
<path d="M166.547 263.035H147.72C147.72 263.035 142.807 277.449 140.996 287.01C139.692 293.895 138.754 304.82 138.754 304.82L186.046 302.764L177.305 281.53L166.547 263.035Z" fill="#A3150C"/>
<path d="M60.9809 234.951C58.2576 243.67 51.2017 245.435 46.8606 253.445C44.4938 257.813 43.6454 261.828 42.9627 265.775L72.4111 285.64L114.311 304.82L120.824 278.79L125.195 261.323L112.083 259.61C112.083 259.61 96.3348 258.681 87.2039 254.816C81.0075 252.192 77.7552 250.045 72.4111 245.911C67.529 242.134 60.9809 234.951 60.9809 234.951Z" fill="#A3150C"/>
<path d="M138.307 263.035L125.195 261.323L120.824 278.79L114.311 304.82L112.94 310.299L112.083 313.724H137.634L138.754 304.82C138.754 304.82 139.692 293.895 140.996 287.01C142.807 277.449 147.72 263.035 147.72 263.035H138.307Z" fill="#C76100"/>
<path d="M186.046 257.556L166.547 263.035L177.305 281.53L186.046 302.764L210.252 297.97L196.805 271.94L186.046 257.556Z" fill="#C76100"/>
<path d="M171.254 237.006L163.185 243.171L157.133 252.076L166.547 263.035L186.046 257.556L187.391 245.911L181.339 241.116L171.254 237.006Z" fill="#C76100"/>
<path d="M199.494 232.896L181.339 241.116L187.391 245.911L186.046 257.556C186.046 257.556 197.899 255.269 204.873 252.076C211.982 248.821 221.683 241.116 221.683 241.116L229.08 234.951C228.246 232.402 228.188 220.112 229.386 210.976L214.959 223.991L199.494 232.896Z" fill="#C76100"/>
<path d="M60.9809 214.401C63.0537 222.143 63.3695 227.303 60.9809 234.951C60.9809 234.951 67.529 242.134 72.4111 245.911C77.7552 250.045 81.0075 252.192 87.2039 254.816C96.3348 258.681 112.083 259.61 112.083 259.61L125.195 261.323L138.307 263.035H147.72H166.547L157.133 252.076L163.185 243.171H155.788H137.634H126.203C126.203 243.171 109.111 240.495 98.6346 237.006C89.6876 234.026 76.4455 227.416 76.4455 227.416L60.9809 214.401Z" fill="#C76100"/>
<path d="M198.149 136.313L186.046 158.232C186.046 158.232 177.975 174.718 171.254 184.262C164.314 194.118 151.082 207.551 151.082 207.551L137.634 227.416L126.203 243.171H137.634L152.426 223.991L173.943 198.647L186.046 182.207L199.494 158.232L212.27 128.093L198.149 136.313Z" fill="#E06F05"/>
<path d="M166.547 140.422C154.973 139.748 148.925 136.248 137.634 133.573C156.54 143.203 186.046 158.232 186.046 158.232L198.149 136.313C198.149 136.313 178.968 141.146 166.547 140.422Z" fill="#E47A15"/>
<path d="M248.58 349.344V340.439L214.959 343.864H196.294C196.562 345.564 196.731 347.376 196.805 349.344L222.356 351.399L248.58 349.344Z" fill="#DD9847"/>
<path d="M54.257 369.893C54.257 369.893 58.4484 362.905 62.3257 359.618L38.7913 352.769L16.6028 345.234C17.6905 349.644 18.6205 352.083 16.6028 356.878L33.4127 362.359L54.257 369.893Z" fill="#E49D48"/>
<path fill-rule="evenodd" clip-rule="evenodd" d="M162.512 56.8543C157.137 58.2178 153.917 60.0219 150.409 64.3891C146.252 69.5648 144.536 74.2477 145.702 80.8288C146.559 85.6613 147.843 88.9177 151.754 91.7884C156.871 95.5447 161.758 93.9716 167.891 92.4736C174.767 90.7945 181.507 86.2562 183.357 82.8838C185.206 79.5114 184.949 74.2823 183.357 69.184C181.541 63.3712 179.496 59.1378 173.943 56.8543C169.804 55.1519 166.844 55.7555 162.512 56.8543ZM165.37 74.6114L171.422 82.8313L170.581 74.6114L172.094 72.609L175.456 73.2415L175.96 76.0339H177.977L178.145 71.8715L173.943 67.1291H170.581L166.547 69.869L165.37 74.6114Z" fill="black"/>
<path fill-rule="evenodd" clip-rule="evenodd" d="M214.959 54.1143C212.851 54.3163 211.824 55.4098 210.252 56.8543C207.809 59.0992 207.104 61.161 206.218 64.3891C205.158 68.2536 205.263 70.7712 206.218 74.6639C207.072 78.1457 207.982 80.1396 210.252 82.8838C211.813 84.7696 213.783 86.2562 214.959 86.9937C216.136 87.7312 218.875 88.0243 221.011 86.9937C223.578 85.755 223.98 83.5113 225.045 80.8288C227.416 74.8562 223.7 64.3891 223.7 64.3891C223.7 64.3891 222.997 58.3507 220.338 56.1693C218.591 54.7356 217.193 53.9002 214.959 54.1143ZM210.252 74.6639H211.597L212.438 68.4465L212.942 67.7616L215.127 68.4465V69.8165V73.9264L217.817 73.2415V70.5015L219.162 69.8165V65.0216L216.304 62.3342H212.942L208.908 65.7591V71.239L210.252 74.6639Z" fill="black"/>
<path d="M186.719 91.7884L190.753 88.3637H204.201L208.908 91.1036V94.5286L201.511 100.008V103.433L205.714 108.176L212.27 108.913C212.27 108.913 219.034 102.231 217.144 104.118C216.359 104.903 215.127 106.121 215.127 106.121L212.27 108.913L205.714 108.176L201.511 106.173H199.494L192.266 109.546L187.811 109.23C187.811 109.23 185.096 109.037 183.357 108.913C182.109 107.989 180.163 106.547 180.163 106.547C180.163 106.547 178.523 105.452 177.473 104.751C179.771 106.376 181.059 107.288 183.357 108.913C186.836 109.16 192.266 109.546 192.266 109.546L198.149 104.118V100.008L190.753 97.2683L186.719 94.5286V91.7884Z" fill="black"/>
<path d="M228.408 44.5242C228.408 44.5242 234.243 26.7853 231.77 15.7548C230.901 11.8779 231.141 9.00441 228.408 6.16496C225.326 2.96318 222.048 2.56008 217.649 2.74003C213.749 2.89961 211.381 3.80986 208.236 6.16496C205.062 8.54128 202.184 14.3848 202.184 14.3848L208.236 21.2349L221.011 34.2497L228.408 44.5242Z" fill="black"/>
<path d="M144.358 11.6449C144.358 11.6449 137.154 1.17003 130.238 0.685064C126.171 0.399894 123.641 1.27764 120.152 3.42501C115.834 6.08214 114.334 9.10113 112.083 13.6998C108.201 21.6325 110.066 36.3044 110.066 36.3044L113.427 45.2095L124.858 39.0446L138.978 23.2899L145.702 15.7548L144.358 11.6449Z" fill="black"/>
<path d="M16.6028 356.878C14.585 361.674 5.16651 367.153 2.48245 371.948C-0.201611 376.743 0.244199 379.286 2.48245 382.908C4.42587 386.053 6.90383 387.636 10.5512 387.703C13.0419 387.749 14.457 386.937 16.6028 385.648C18.0511 384.778 19.9648 382.908 19.9648 382.908C19.9648 382.908 17.9481 387.703 19.9648 387.703H27.3611C29.3789 387.703 30.0507 382.908 30.0507 382.908C30.0507 382.908 31.396 387.703 33.4127 387.703C35.4293 387.703 38.3485 388.047 41.4814 387.703C44.9646 387.32 47.0862 387.238 50.2226 385.648C51.9178 384.788 53.5851 386.333 54.257 382.908C54.9288 379.483 54.257 369.893 54.257 369.893L33.4127 362.359L16.6028 356.878Z" fill="#24161A"/>
<path d="M196.805 349.344C197.019 355.014 194.788 360.989 194.788 363.728C194.788 366.468 194.115 369.208 202.184 371.948C210.253 374.688 221.011 376.058 233.114 378.113C245.218 380.168 251.942 380.853 253.286 378.113C254.631 375.373 253.286 369.893 253.286 369.893C253.286 369.893 255.976 378.113 258.666 378.113C261.355 378.113 269.327 377.143 271.441 371.948C272.648 368.983 273.458 369.208 271.441 363.728C269.424 358.249 248.58 349.344 248.58 349.344L222.356 351.399L196.805 349.344Z" fill="#24161A"/>
<path d="M62.3257 359.618C68.3979 354.471 74.1937 355.891 81.1528 352.083C92.1721 346.054 95.811 338.88 106.032 331.534C113.651 326.058 122.169 318.519 126.203 318.519C130.238 318.519 136.289 319.889 138.307 318.519C140.324 317.149 137.634 312.354 140.996 310.299C144.358 308.245 165.202 308.93 171.254 310.299C177.306 311.669 182.425 317.815 187.391 324.684C192.26 331.418 195.16 336.642 196.294 343.864H214.959L248.58 340.439C248.58 340.439 262.893 325.795 266.734 313.724C268.945 306.779 269.862 302.517 269.424 295.23C268.452 279.065 257.781 272.816 248.58 259.61L233.786 277.42L210.252 297.97L186.046 302.764L138.754 304.82L137.634 313.724H112.083L112.94 310.299L93.9278 304.82C93.9278 304.82 74.399 294.437 62.3257 287.01C54.0528 281.92 41.4814 273.42 41.4814 273.42C40.7992 276.046 39.8082 278.722 38.1195 281.53C32.0073 291.692 22.6026 292.533 16.6028 302.764C13.526 308.011 11.8117 311.174 10.5512 317.149C9.17195 323.687 8.6344 327.878 10.5512 334.274C11.9587 338.971 15.4282 340.471 16.6028 345.234L38.7913 352.769L62.3257 359.618Z" fill="#24161A"/>
<path d="M114.311 304.82L72.4111 285.64L42.9627 265.775C42.5215 268.327 42.1495 270.849 41.4814 273.42C41.4814 273.42 54.0528 281.92 62.3257 287.01C74.399 294.437 93.9278 304.82 93.9278 304.82L112.94 310.299L114.311 304.82Z" fill="black"/>
<path d="M155.788 243.171H163.185L171.254 237.006H163.185L155.788 243.171Z" fill="#CA8953"/>
<path d="M171.254 237.006L181.339 241.116L199.494 232.896L214.959 223.991L229.386 210.976C230.12 205.377 231.326 200.962 233.114 200.701L231.937 176.042L224.541 156.177L221.683 134.943V156.177C221.683 156.177 226.309 168.05 227.735 176.042C228.909 182.623 229.5 186.439 229.08 193.114C228.72 198.841 226.39 207.551 226.39 207.551C226.39 207.551 218.508 217.169 212.27 221.936C203.491 228.644 197.46 231.224 186.887 234.213C180.914 235.902 171.254 237.006 171.254 237.006Z" fill="black"/>
<path fill-rule="evenodd" clip-rule="evenodd" d="M233.114 116.448C233.114 116.448 237.388 108.832 238.494 103.433C239.89 96.6197 238.547 92.5444 237.821 85.6235C236.651 74.4581 234.434 68.4347 231.77 57.539C230.522 52.4393 228.408 44.5242 228.408 44.5242L221.011 34.2497L208.236 21.2349L202.184 14.3848C202.184 14.3848 192.822 8.13688 186.047 6.16496C175.947 3.2254 169.4 3.82519 159.151 6.16496C153.153 7.53428 144.358 11.6449 144.358 11.6449L145.702 15.7548L138.978 23.2899L124.858 39.0446L113.427 45.2095L110.066 36.3044C110.066 36.3044 103.677 46.2003 99.4751 52.6918C95.5961 58.684 92.482 63.6465 90.5664 70.554C89.6166 73.979 87.9926 82.7964 90.5664 91.7884C91.1945 93.9825 90.5664 97.2683 90.5664 97.2683L106.703 113.023C106.703 113.023 125.555 125.547 137.634 133.573C148.925 136.248 154.973 139.748 166.547 140.422C178.968 141.146 198.149 136.313 198.149 136.313L212.27 128.093L226.39 119.873L233.114 116.448ZM150.409 64.3891C153.917 60.0219 157.137 58.2178 162.512 56.8543C166.844 55.7555 169.804 55.1519 173.943 56.8543C179.496 59.1378 181.541 63.3712 183.357 69.184C184.949 74.2823 185.206 79.5114 183.357 82.8838C181.507 86.2562 174.767 90.7945 167.891 92.4736C161.758 93.9716 156.871 95.5447 151.754 91.7884C147.843 88.9177 146.559 85.6613 145.702 80.8288C144.536 74.2477 146.252 69.5648 150.409 64.3891ZM210.252 56.8543C211.824 55.4098 212.851 54.3163 214.959 54.1143C217.193 53.9002 218.591 54.7356 220.338 56.1693C222.997 58.3507 223.7 64.3891 223.7 64.3891C223.7 64.3891 227.416 74.8562 225.045 80.8288C223.98 83.5113 223.578 85.755 221.011 86.9937C218.875 88.0243 216.136 87.7312 214.959 86.9937C213.783 86.2562 211.813 84.7696 210.252 82.8838C207.982 80.1396 207.072 78.1457 206.218 74.6639C205.263 70.7712 205.158 68.2536 206.218 64.3891C207.104 61.161 207.809 59.0992 210.252 56.8543ZM190.753 88.3637L186.719 91.7884V94.5286L190.753 97.2683L198.149 100.008V104.118L192.266 109.546C192.266 109.546 186.836 109.16 183.357 108.913C181.059 107.288 179.771 106.376 177.473 104.751C178.523 105.452 180.163 106.547 180.163 106.547C180.163 106.547 182.109 107.989 183.357 108.913C185.096 109.037 187.811 109.23 187.811 109.23L192.266 109.546L199.494 106.173H201.511L205.714 108.176L212.27 108.913L215.127 106.121C215.127 106.121 216.359 104.903 217.144 104.118C219.034 102.231 212.27 108.913 212.27 108.913L205.714 108.176L201.511 103.433V100.008L208.908 94.5286V91.1036L204.201 88.3637H190.753Z" fill="#FDF7D8"/>
<path d="M171.422 82.8313L165.37 74.6114L166.547 69.869L170.581 67.1291H173.943L178.145 71.8715L177.977 76.0339H175.96L175.456 73.2415L172.094 72.609L170.581 74.6114L171.422 82.8313Z" fill="#FAF8ED"/>
<path d="M211.597 74.6639H210.252L208.908 71.239V65.7591L212.942 62.3342H216.304L219.162 65.0216V69.8165L217.817 70.5015V73.2415L215.127 73.9264V69.8165V68.4465L212.942 67.7616L212.438 68.4465L211.597 74.6639Z" fill="#FAF8ED"/>
<path d="M295.647 182.207C295.647 182.207 304.388 183.577 307.75 182.207C311.112 180.836 312.457 171.247 312.457 171.247C312.457 171.247 310.591 165.031 307.75 162.342C304.101 158.887 300.511 157.131 295.647 158.232C292.658 158.909 290.882 159.944 288.923 162.342C286.639 165.139 285.919 167.623 286.234 171.247C286.726 176.912 295.647 182.207 295.647 182.207Z" fill="#24161A"/>
<path d="M281.527 195.906C287.77 191.465 295.647 182.207 295.647 182.207C295.647 182.207 286.726 176.912 286.234 171.247C285.919 167.623 286.639 165.139 288.923 162.342C290.882 159.944 292.658 158.909 295.647 158.232C300.511 157.131 304.101 158.887 307.75 162.342C310.591 165.031 312.457 171.247 312.457 171.247C312.457 171.247 316.134 162.074 315.147 156.177C314.63 153.091 312.457 148.642 312.457 148.642C312.457 148.642 303.845 145.742 298.337 146.587C295.626 147.003 291.613 148.642 291.613 148.642C291.613 148.642 289.172 145.989 288.923 143.847C288.522 140.384 293.63 136.313 293.63 136.313C293.63 136.313 288.888 131.092 284.889 129.463C284.889 129.463 279.468 134.923 276.82 139.053C273.087 144.876 271.966 148.803 270.096 155.492C268.416 161.498 268.025 165.034 267.406 171.247C266.157 183.78 268.751 203.475 268.751 203.475C273.169 201.759 276.756 199.301 281.527 195.906Z" fill="#24161A"/>
<path d="M298.337 146.587C303.845 145.742 312.457 148.642 312.457 148.642C312.457 148.642 315.764 143.747 315.147 140.422C314.687 137.943 313.675 136.573 311.785 134.943C308.379 132.005 304.82 132.7 300.449 133.554L300.354 133.573C297.577 134.115 293.63 136.313 293.63 136.313C293.63 136.313 288.522 140.384 288.923 143.847C289.172 145.989 291.613 148.642 291.613 148.642C291.613 148.642 295.626 147.003 298.337 146.587Z" fill="#24161A"/>
<path d="M131.582 184.262L135.616 195.906C135.616 195.906 143.811 192.959 145.702 188.372C147.126 184.919 148.211 181.52 145.702 178.782C143.015 175.849 138.947 176.639 135.616 178.782C133.396 180.21 131.582 184.262 131.582 184.262Z" fill="#24161A"/>
<path d="M98.6346 228.786L120.824 219.196L129.994 204.759L135.616 195.906L131.582 184.262L128.892 174.672C128.892 174.672 122.025 169.198 116.789 167.822C108.554 165.658 102.748 167.116 95.2726 171.247C87.5861 175.495 84.2576 180.337 80.4799 188.372C77.2314 195.28 75.1262 200.01 76.4455 207.551C78.5316 219.475 86.8225 227.41 98.6346 228.786Z" fill="#24161A"/>
</g>
<path d="M16.6028 356.878C14.585 361.674 5.16651 367.153 2.48245 371.948C-0.201611 376.743 0.244199 379.286 2.48245 382.908C4.42587 386.053 6.90383 387.636 10.5512 387.703C13.0419 387.749 14.457 386.937 16.6028 385.648C18.0511 384.778 19.9648 382.908 19.9648 382.908C19.9648 382.908 17.9481 387.703 19.9648 387.703M16.6028 356.878C18.6205 352.083 17.6905 349.644 16.6028 345.234M16.6028 356.878L33.4127 362.359L54.257 369.893M19.9648 387.703C21.9814 387.703 25.3434 387.703 27.3611 387.703M19.9648 387.703H27.3611M27.3611 387.703C29.3789 387.703 30.0507 382.908 30.0507 382.908C30.0507 382.908 31.396 387.703 33.4127 387.703C35.4293 387.703 38.3485 388.047 41.4814 387.703C44.9646 387.32 47.0862 387.238 50.2226 385.648C51.9178 384.788 53.5851 386.333 54.257 382.908C54.9288 379.483 54.257 369.893 54.257 369.893M54.257 369.893C54.257 369.893 58.4484 362.905 62.3257 359.618M62.3257 359.618C68.3979 354.471 74.1937 355.891 81.1528 352.083C92.1721 346.054 95.811 338.88 106.032 331.534C113.651 326.058 122.169 318.519 126.203 318.519C130.238 318.519 136.289 319.889 138.307 318.519C140.324 317.149 137.634 312.354 140.996 310.299C144.358 308.245 165.202 308.93 171.254 310.299C177.306 311.669 182.425 317.815 187.391 324.684C192.26 331.418 195.16 336.642 196.294 343.864M62.3257 359.618L38.7913 352.769L16.6028 345.234M196.805 349.344C197.019 355.014 194.788 360.989 194.788 363.728C194.788 366.468 194.115 369.208 202.184 371.948C210.253 374.688 221.011 376.058 233.114 378.113C245.218 380.168 251.942 380.853 253.286 378.113C254.631 375.373 253.286 369.893 253.286 369.893C253.286 369.893 255.976 378.113 258.666 378.113C261.355 378.113 269.327 377.143 271.441 371.948C272.648 368.983 273.458 369.208 271.441 363.728C269.424 358.249 248.58 349.344 248.58 349.344M196.805 349.344C196.731 347.376 196.562 345.564 196.294 343.864M196.805 349.344L222.356 351.399L248.58 349.344M248.58 349.344V340.439M248.58 340.439C248.58 340.439 262.893 325.795 266.734 313.724C268.945 306.779 269.862 302.517 269.424 295.23C268.452 279.065 257.781 272.816 248.58 259.61M248.58 340.439L214.959 343.864H196.294M248.58 259.61C241.553 249.526 230.425 239.061 229.08 234.951M248.58 259.61L233.786 277.42L210.252 297.97M229.08 234.951C228.246 232.402 228.188 220.112 229.386 210.976M229.08 234.951L221.683 241.116C221.683 241.116 211.982 248.821 204.873 252.076C197.899 255.269 186.046 257.556 186.046 257.556M233.114 200.701C237.821 200.016 250.344 207.474 261.355 205.496C264.185 204.988 266.569 204.322 268.751 203.475M233.114 200.701C231.326 200.962 230.12 205.377 229.386 210.976M233.114 200.701L231.937 176.042L224.541 156.177L221.683 134.943V156.177C221.683 156.177 226.309 168.05 227.735 176.042C228.909 182.623 229.5 186.439 229.08 193.114C228.72 198.841 226.39 207.551 226.39 207.551C226.39 207.551 218.508 217.169 212.27 221.936C203.491 228.644 197.46 231.224 186.887 234.213C180.914 235.902 171.254 237.006 171.254 237.006M295.647 182.207C295.647 182.207 287.77 191.465 281.527 195.906C276.756 199.301 273.169 201.759 268.751 203.475M295.647 182.207C295.647 182.207 304.388 183.577 307.75 182.207C311.112 180.836 312.457 171.247 312.457 171.247M295.647 182.207C295.647 182.207 286.726 176.912 286.234 171.247C285.919 167.623 286.639 165.139 288.923 162.342C290.882 159.944 292.658 158.909 295.647 158.232C300.511 157.131 304.101 158.887 307.75 162.342C310.591 165.031 312.457 171.247 312.457 171.247M312.457 171.247C312.457 171.247 316.134 162.074 315.147 156.177C314.63 153.091 312.457 148.642 312.457 148.642M312.457 148.642C312.457 148.642 303.845 145.742 298.337 146.587C295.626 147.003 291.613 148.642 291.613 148.642M312.457 148.642C312.457 148.642 315.764 143.747 315.147 140.422C314.687 137.943 313.675 136.573 311.785 134.943C308.379 132.005 304.82 132.7 300.449 133.554M291.613 148.642C291.613 148.642 288.888 152.926 286.906 155.492C285.409 157.431 285.199 159.606 282.872 160.287C280.478 160.988 276.82 158.232 276.82 158.232M291.613 148.642C291.613 148.642 289.172 145.989 288.923 143.847C288.522 140.384 293.63 136.313 293.63 136.313M300.354 133.573C297.577 134.115 293.63 136.313 293.63 136.313M300.354 133.573L300.449 133.554M300.354 133.573C300.386 133.566 300.417 133.56 300.449 133.554M293.63 136.313C293.63 136.313 288.888 131.092 284.889 129.463M284.889 129.463C281.526 128.093 266.061 128.093 261.355 129.463C258.624 130.257 255.304 133.573 255.304 133.573M284.889 129.463C284.889 129.463 279.468 134.923 276.82 139.053C273.087 144.876 271.966 148.803 270.096 155.492C268.416 161.498 268.025 165.034 267.406 171.247C266.157 183.78 268.751 203.475 268.751 203.475M255.304 133.573L233.114 116.448M255.304 133.573L246.562 148.642C246.562 148.642 242.309 160.117 241.183 167.822C239.906 176.553 241.183 190.427 241.183 190.427M233.114 116.448C233.114 116.448 237.388 108.832 238.494 103.433C239.89 96.6197 238.547 92.5444 237.821 85.6235C236.651 74.4581 234.434 68.4347 231.77 57.539C230.522 52.4393 228.408 44.5242 228.408 44.5242M233.114 116.448L226.39 119.873L212.27 128.093M228.408 44.5242C228.408 44.5242 234.243 26.7853 231.77 15.7548C230.901 11.8779 231.141 9.00441 228.408 6.16496C225.326 2.96318 222.048 2.56008 217.649 2.74003C213.749 2.89961 211.381 3.80986 208.236 6.16496C205.062 8.54128 202.184 14.3848 202.184 14.3848M228.408 44.5242L221.011 34.2497L208.236 21.2349L202.184 14.3848M202.184 14.3848C202.184 14.3848 192.822 8.13688 186.047 6.16496C175.947 3.2254 169.4 3.82519 159.151 6.16496C153.153 7.53428 144.358 11.6449 144.358 11.6449M144.358 11.6449C144.358 11.6449 137.154 1.17003 130.238 0.685064C126.171 0.399894 123.641 1.27764 120.152 3.42501C115.834 6.08214 114.334 9.10113 112.083 13.6998C108.201 21.6325 110.066 36.3044 110.066 36.3044M144.358 11.6449L145.702 15.7548L138.978 23.2899L124.858 39.0446L113.427 45.2095L110.066 36.3044M110.066 36.3044C110.066 36.3044 103.677 46.2003 99.4751 52.6918C95.5961 58.684 92.482 63.6465 90.5664 70.554C89.6166 73.979 87.9926 82.7964 90.5664 91.7884C91.1945 93.9825 90.5664 97.2683 90.5664 97.2683M90.5664 97.2683C90.5664 97.2683 85.4437 98.4454 82.4976 100.008C76.402 103.242 74.5412 107.44 70.3945 113.023C62.5267 123.616 59.9776 131.11 56.2742 143.847C51.406 160.59 52.2398 188.372 52.2398 188.372C52.2398 188.372 52.8447 196.037 54.257 200.701C55.9875 206.417 59.436 208.63 60.9809 214.401M90.5664 97.2683L106.703 113.023C106.703 113.023 125.555 125.547 137.634 133.573M60.9809 214.401C63.0537 222.143 63.3695 227.303 60.9809 234.951M60.9809 214.401L76.4455 227.416M60.9809 234.951C58.2576 243.67 51.2017 245.435 46.8606 253.445C44.4938 257.813 43.6454 261.828 42.9627 265.775M60.9809 234.951C60.9809 234.951 67.529 242.134 72.4111 245.911C77.7552 250.045 81.0075 252.192 87.2039 254.816C96.3348 258.681 112.083 259.61 112.083 259.61L125.195 261.323M16.6028 345.234C15.4282 340.471 11.9587 338.971 10.5512 334.274C8.6344 327.878 9.17195 323.687 10.5512 317.149C11.8117 311.174 13.526 308.011 16.6028 302.764C22.6026 292.533 32.0073 291.692 38.1195 281.53C39.8082 278.722 40.7992 276.046 41.4814 273.42M76.4455 227.416C76.4455 227.416 89.9692 228.251 98.6346 228.786M76.4455 227.416C76.4455 227.416 89.6876 234.026 98.6346 237.006C109.111 240.495 126.203 243.171 126.203 243.171M98.6346 228.786C107.3 225.041 120.824 219.196 120.824 219.196M98.6346 228.786C86.8225 227.41 78.5316 219.475 76.4455 207.551C75.1262 200.01 77.2314 195.28 80.4799 188.372C84.2576 180.337 87.5861 175.495 95.2726 171.247C102.748 167.116 108.554 165.658 116.789 167.822C122.025 169.198 128.892 174.672 128.892 174.672M98.6346 228.786L120.824 219.196M120.824 219.196C120.824 219.196 116.535 210.32 112.083 206.129C107.249 201.58 97.2904 197.909 97.2904 197.909M120.824 219.196L129.994 204.759M135.616 195.906L131.582 184.262M135.616 195.906C135.616 195.906 143.811 192.959 145.702 188.372C147.126 184.919 148.211 181.52 145.702 178.782C143.015 175.849 138.947 176.639 135.616 178.782C133.396 180.21 131.582 184.262 131.582 184.262M135.616 195.906L129.994 204.759M131.582 184.262L128.892 174.672M128.892 174.672L126.203 160.287M126.203 160.287C126.203 160.287 118.241 153.649 112.083 152.067C106.481 150.629 103.005 151.208 97.2904 152.067C92.4373 152.797 89.5534 153.215 85.1867 155.492C79.0691 158.683 76.7949 162.43 72.4111 167.822C69.159 171.822 65.0148 178.782 65.0148 178.782M126.203 160.287C126.203 160.287 120.522 150.336 115.445 145.218C111.45 141.191 109.02 138.913 104.014 136.313C101.494 135.004 97.2904 133.573 97.2904 133.573M126.203 160.287C126.203 160.287 126.85 149.152 124.858 142.478C122.736 135.366 120.278 131.606 115.445 126.038C109.702 119.422 97.2904 113.023 97.2904 113.023M137.634 133.573C148.925 136.248 154.973 139.748 166.547 140.422C178.968 141.146 198.149 136.313 198.149 136.313M137.634 133.573C156.54 143.203 186.046 158.232 186.046 158.232M198.149 136.313L186.046 158.232M198.149 136.313L212.27 128.093M186.046 158.232C186.046 158.232 177.975 174.718 171.254 184.262C164.314 194.118 151.082 207.551 151.082 207.551L137.634 227.416L126.203 243.171M126.203 243.171H137.634M137.634 243.171L152.426 223.991L173.943 198.647L186.046 182.207L199.494 158.232L212.27 128.093M137.634 243.171H155.788M155.788 243.171H163.185M155.788 243.171L163.185 237.006H171.254M163.185 243.171L171.254 237.006M163.185 243.171L157.133 252.076L166.547 263.035M171.254 237.006L181.339 241.116M181.339 241.116L199.494 232.896L214.959 223.991L229.386 210.976M181.339 241.116L187.391 245.911L186.046 257.556M166.547 263.035L186.046 257.556M166.547 263.035H147.72M166.547 263.035L177.305 281.53L186.046 302.764M186.046 257.556L196.805 271.94L210.252 297.97M125.195 261.323L138.307 263.035H147.72M125.195 261.323L120.824 278.79L114.311 304.82M147.72 263.035C147.72 263.035 142.807 277.449 140.996 287.01C139.692 293.895 138.754 304.82 138.754 304.82M186.046 302.764L210.252 297.97M186.046 302.764L138.754 304.82M138.754 304.82L137.634 313.724H112.083L112.94 310.299M114.311 304.82L72.4111 285.64L42.9627 265.775M114.311 304.82L112.94 310.299M42.9627 265.775C42.5215 268.327 42.1495 270.849 41.4814 273.42M41.4814 273.42C41.4814 273.42 54.0528 281.92 62.3257 287.01C74.399 294.437 93.9278 304.82 93.9278 304.82L112.94 310.299M205.714 108.176L201.511 103.433V100.008L208.908 94.5286V91.1036L204.201 88.3637H190.753L186.719 91.7884V94.5286L190.753 97.2683L198.149 100.008V104.118L192.266 109.546M205.714 108.176L212.27 108.913M205.714 108.176L201.511 106.173H199.494L192.266 109.546M212.27 108.913C212.27 108.913 219.034 102.231 217.144 104.118C216.359 104.903 215.127 106.121 215.127 106.121L212.27 108.913ZM192.266 109.546L187.811 109.23C187.811 109.23 185.096 109.037 183.357 108.913M192.266 109.546C192.266 109.546 186.836 109.16 183.357 108.913M183.357 108.913C182.109 107.989 180.163 106.547 180.163 106.547C180.163 106.547 178.523 105.452 177.473 104.751M183.357 108.913C181.059 107.288 179.771 106.376 177.473 104.751M177.473 104.751C176.095 104.236 174.784 102.011 176.128 103.381M108.216 186.264C108.216 186.264 116.56 188.952 120.824 192.429C125.453 196.204 129.994 204.759 129.994 204.759M162.512 56.8543C157.137 58.2178 153.917 60.0219 150.409 64.3891C146.252 69.5648 144.536 74.2477 145.702 80.8288C146.559 85.6613 147.843 88.9177 151.754 91.7884C156.871 95.5447 161.758 93.9716 167.891 92.4736C174.767 90.7945 181.507 86.2562 183.357 82.8838C185.206 79.5114 184.949 74.2823 183.357 69.184C181.541 63.3712 179.496 59.1378 173.943 56.8543C169.804 55.1519 166.844 55.7555 162.512 56.8543ZM214.959 54.1143C212.851 54.3163 211.824 55.4098 210.252 56.8543C207.809 59.0992 207.104 61.161 206.218 64.3891C205.158 68.2536 205.263 70.7712 206.218 74.6639C207.072 78.1457 207.982 80.1396 210.252 82.8838C211.813 84.7696 213.783 86.2562 214.959 86.9937C216.136 87.7312 218.875 88.0243 221.011 86.9937C223.578 85.755 223.98 83.5113 225.045 80.8288C227.416 74.8562 223.7 64.3891 223.7 64.3891C223.7 64.3891 222.997 58.3507 220.338 56.1693C218.591 54.7356 217.193 53.9002 214.959 54.1143ZM171.422 82.8313L165.37 74.6114L166.547 69.869L170.581 67.1291H173.943L178.145 71.8715L177.977 76.0339H175.96L175.456 73.2415L172.094 72.609L170.581 74.6114L171.422 82.8313ZM211.597 74.6639H210.252L208.908 71.239V65.7591L212.942 62.3342H216.304L219.162 65.0216V69.8165L217.817 70.5015V73.2415L215.127 73.9264V69.8165V68.4465L212.942 67.7616L212.438 68.4465L211.597 74.6639Z" stroke="black" stroke-width="1.27299"/>
<defs>
<filter id="filter0_i_2863_831" x="0" y="0" width="315.953" height="390.186" filterUnits="userSpaceOnUse" color-interpolation-filters="sRGB">
<feFlood flood-opacity="0" result="BackgroundImageFix"/>
<feBlend mode="normal" in="SourceGraphic" in2="BackgroundImageFix" result="shape"/>
<feColorMatrix in="SourceAlpha" type="matrix" values="0 0 0 0 0 0 0 0 0 0 0 0 0 0 0 0 0 0 127 0" result="hardAlpha"/>
<feOffset dy="1.69412"/>
<feGaussianBlur stdDeviation="6.35294"/>
<feComposite in2="hardAlpha" operator="arithmetic" k2="-1" k3="1"/>
<feColorMatrix type="matrix" values="0 0 0 0 0 0 0 0 0 0 0 0 0 0 0 0 0 0 1 0"/>
<feBlend mode="normal" in2="shape" result="effect1_innerShadow_2863_831"/>
</filter>
</defs>
</svg>
