<svg width="330" height="322" viewBox="0 0 330 322" fill="none" xmlns="http://www.w3.org/2000/svg">
<path d="M29.3725 166.917C26.3862 178.801 30.2799 197.024 29.3725 198.294C29.151 198.604 28.6211 199.059 27.9215 199.64C27.9215 199.64 27.2264 207.684 29.3725 212.078C32.0671 217.596 41.5316 222.054 41.5316 222.054L52.7478 233.661L61.1293 245.846L63.8514 249.803L68.388 255.063C74.5835 257.093 81.6765 262.392 86.1726 266.127C86.1726 266.127 84.3546 259.336 83.8136 254.882C83.0535 248.624 83.0975 245.003 83.8136 238.74C84.5746 232.083 85.2708 228.256 87.8058 222.054C90.8314 214.651 92.7766 210.217 98.5124 204.642C103.205 200.081 106.689 197.789 112.848 195.573C118.886 193.401 122.826 192.865 129.18 193.76C129.18 193.76 120.935 189.537 115.207 188.319C113.843 188.028 112.589 187.782 111.397 187.582C111.397 187.582 111.891 184.408 110.852 182.877C110.231 181.962 110.489 182.696 108.675 181.064C106.86 179.431 107.108 172.825 105.227 167.824C103.476 163.169 102.096 160.7 99.6012 156.397C96.8912 151.723 95.1233 149.23 91.7981 144.971C85.9409 137.468 82.5016 133.072 74.7402 127.559C71.1142 124.984 69.3639 122.23 64.9409 121.755C63.3186 121.582 60.7672 121.947 60.7672 121.947C57.2655 125.311 51.5627 130.968 47.8822 135.54C38.9601 146.622 32.8393 153.12 29.3725 166.917Z" fill="#B83C02"/>
<path d="M61.8552 115.589C63.8514 118.309 63.8514 119.035 63.8514 119.035C63.8514 119.035 62.6161 120.172 60.7672 121.947C60.7672 121.947 63.3186 121.582 64.9409 121.755C69.3639 122.23 71.1142 124.984 74.7402 127.559C82.5016 133.072 85.9409 137.468 91.7981 144.971C95.1233 149.23 96.8912 151.723 99.6012 156.397C102.096 160.7 103.476 163.169 105.227 167.824C107.108 172.825 106.86 179.431 108.675 181.064C110.489 182.696 110.231 181.962 110.852 182.877C111.891 184.408 111.397 187.582 111.397 187.582C112.589 187.782 113.843 188.028 115.207 188.319C120.935 189.537 129.18 193.76 129.18 193.76C131.159 194.038 133.422 194.755 135.535 195.573L146.42 182.877L147.025 181.971L137.709 171.088L119.381 148.78L99.6012 124.718C96.7626 123.152 93.9193 121.339 90.5279 119.035C84.4495 114.905 76.0097 107.064 76.0097 107.064C76.0097 107.064 59.8591 112.868 61.8552 115.589Z" fill="#B83C02"/>
<path d="M226.265 137.897C226.905 134.029 228.035 132.039 229.168 128.285C227.998 129.853 226.754 131.061 225.578 132.203C223.407 134.311 221.466 136.196 220.639 139.711C220.089 142.052 220.812 143.967 221.528 145.862C222.279 147.85 223.021 149.815 222.273 152.226C221.682 154.126 220.56 155.236 219.412 156.372C218.393 157.38 217.354 158.407 216.647 160.025C215.816 161.928 215.855 163.66 215.893 165.361C215.936 167.246 215.978 169.092 214.832 171.088C213.781 172.922 212.987 173.882 211.385 175.26L218.462 169.819C219.927 168.793 220.762 168.237 222.273 167.28C224.712 163.784 225.672 161.343 226.265 157.123C226.62 154.598 226.265 153.143 226.265 150.593C226.265 145.635 225.456 142.789 226.265 137.897Z" fill="#B83C02"/>
<path d="M211.385 175.26C211.081 169.276 210.68 165.913 209.57 160.025C209.196 158.04 208.73 156.477 208.277 154.956C207.717 153.074 207.175 151.256 206.848 148.78C206.288 144.549 206.454 141.689 206.662 138.09C206.727 136.97 206.795 135.778 206.848 134.451C207.087 128.415 208.118 119.035 208.118 119.035C208.118 119.035 204.895 125.01 203.944 129.192C203.12 132.82 203.365 135.508 203.639 138.515C203.787 140.144 203.944 141.867 203.944 143.883C203.944 146.222 203.866 148.205 203.792 150.079C203.656 153.539 203.534 156.633 203.944 160.932C204.694 168.786 208.118 180.701 208.118 180.701L211.385 175.26Z" fill="#B83C02"/>
<path fill-rule="evenodd" clip-rule="evenodd" d="M203.944 102.893C203.944 102.893 209.626 107.364 213.562 109.785C214.631 110.443 215.569 111.081 216.454 111.684C219.053 113.454 221.187 114.907 224.813 115.589C226.376 115.883 227.632 115.734 228.887 115.586C230.148 115.437 231.409 115.288 232.979 115.589C235.334 116.04 238.786 117.584 238.786 117.584L229.168 128.285C227.998 129.853 226.754 131.061 225.578 132.203C223.407 134.311 221.466 136.196 220.639 139.711C220.089 142.052 220.812 143.967 221.528 145.862C222.279 147.85 223.021 149.815 222.273 152.226C221.682 154.126 220.56 155.236 219.412 156.372C218.393 157.38 217.354 158.407 216.647 160.025C215.816 161.928 215.855 163.66 215.893 165.361C215.936 167.246 215.978 169.092 214.832 171.088C213.781 172.922 212.987 173.882 211.385 175.26C211.081 169.276 210.68 165.913 209.57 160.025C209.196 158.04 208.73 156.477 208.277 154.956C207.717 153.074 207.175 151.256 206.848 148.78C206.288 144.549 206.454 141.689 206.662 138.09C206.727 136.97 206.795 135.778 206.848 134.451C207.087 128.415 208.118 119.035 208.118 119.035C208.118 119.035 204.895 125.01 203.944 129.192C203.12 132.82 203.365 135.508 203.639 138.515C203.787 140.144 203.944 141.867 203.944 143.883C203.944 146.222 203.866 148.205 203.792 150.079C203.656 153.539 203.534 156.633 203.944 160.932C204.694 168.786 208.118 180.701 208.118 180.701C208.118 180.701 203.64 193.984 203.944 202.738C204.214 210.482 208.482 222.054 208.482 222.054H200.538C200.299 219.977 199.59 218.063 199.59 218.063C199.59 218.063 198.522 213.945 196.868 211.897C195.31 209.968 194.009 209.189 191.787 208.088C189.217 206.815 187.416 206.629 184.737 206.353C184.493 206.328 184.243 206.302 183.984 206.274C181.306 205.99 177.088 206.274 177.088 206.274C177.088 206.274 172.673 203.134 169.466 201.921C166.255 200.707 163.786 200.637 160.978 200.557C159.581 200.518 158.099 200.476 156.401 200.289C151.165 199.714 142.972 199.02 142.972 199.02C142.972 199.02 139.52 197.117 135.535 195.573L146.42 182.877L147.025 181.971L155.13 169.819L166.018 150.593L173.096 131.187C173.096 131.187 183.748 126.444 189.428 121.755C194.301 117.732 196.923 115.116 200.316 109.785C201.949 107.219 203.944 102.893 203.944 102.893Z" fill="#B83C02"/>
<path d="M1.60796 298.592C3.25526 307.731 10.3184 320.719 10.3184 320.719L26.6505 317.102C26.6505 317.102 23.2926 309.443 22.8397 304.215C21.8409 292.686 25.3219 284.728 33.5463 276.583C41.7299 268.478 49.6857 267.456 61.1293 266.127C72.7076 264.782 79.8992 265.758 90.7086 270.117C90.7086 270.117 88.9284 268.416 86.1726 266.127C81.6765 262.392 74.5835 257.093 68.388 255.063L63.8514 249.803C63.8514 249.803 44.8585 253.28 33.5463 249.803C27.4294 247.924 18.8474 242.563 18.8474 242.563C16.5382 245.726 12.7378 250.24 10.3184 254.882C2.27203 270.318 -1.47965 281.463 1.60796 298.592Z" fill="#B83C02"/>
<path d="M20.6621 208.088C19.1118 212.423 20.6621 215.273 20.6621 219.877C20.6621 219.877 25.6992 224.363 29.3725 226.588C37.5299 231.528 52.7478 233.661 52.7478 233.661L41.5316 222.054C41.5316 222.054 32.0671 217.596 29.3725 212.078C27.2264 207.684 27.9215 199.64 27.9215 199.64C25.7559 201.439 21.9645 204.446 20.6621 208.088Z" fill="#B83C02"/>
<path d="M211.385 264.313C213.544 260.387 216.207 258.937 220.276 257.058C220.276 257.058 216.259 253.045 214.832 249.803C207.817 252.637 204.018 254.584 196.868 257.058C186.407 260.677 180.392 262.531 169.466 264.313C158.393 266.119 152.009 265.801 140.794 266.127C131.231 266.405 116.296 266.127 116.296 266.127C114.595 272.501 113.084 272.07 109.4 273.382C106.664 274.356 104.842 273.753 101.96 273.382C95.23 272.515 86.1726 266.127 86.1726 266.127C88.9284 268.416 90.7086 270.117 90.7086 270.117C100.48 274.058 112.848 285.533 112.848 285.533L122.647 295.837L209.57 276.583C209.57 276.583 209.177 272.611 209.57 270.117C209.939 267.771 210.24 266.394 211.385 264.313Z" fill="#B83C02"/>
<path d="M124.825 133.89C121.126 133.125 117.345 132.028 112.848 130.461C107.473 128.588 103.541 126.891 99.6012 124.718L119.381 148.78L137.709 171.088L147.025 181.971L155.13 169.819L140.25 152.226L124.825 133.89Z" fill="#FFBE0A" fill-opacity="0.8"/>
<path d="M86.1726 266.127C86.1726 266.127 95.23 272.515 101.96 273.382C104.842 273.753 106.664 274.356 109.4 273.382C113.084 272.07 114.595 272.501 116.296 266.127L119.78 253.068L120.651 249.803C121.722 245.79 121.804 244.745 121.718 244.522L121.559 244.544L118.111 244.32C118.111 244.32 116.962 247.981 116.296 250.348C115.445 253.374 115.279 255.159 114.3 258.146C113.35 261.046 113.087 262.86 111.397 265.401C110.119 267.322 109.7 269.525 107.404 269.754C106.241 269.87 105.953 269.754 104.501 269.029C103.049 268.303 102.53 262.473 101.96 258.146C101.201 252.388 101.96 243.274 101.96 243.274C101.96 243.274 102.173 236.025 103.049 231.485C104.433 224.313 105.112 219.806 109.4 213.892C113.975 207.583 117.75 203.56 124.825 200.289C129.077 198.324 132.12 198.42 136.802 198.294C139.227 198.229 142.972 199.02 142.972 199.02C142.972 199.02 139.52 197.117 135.535 195.573C133.422 194.755 131.159 194.038 129.18 193.76C122.826 192.865 118.886 193.401 112.848 195.573C106.689 197.789 103.205 200.081 98.5124 204.642C92.7766 210.217 90.8314 214.651 87.8058 222.054C85.2708 228.256 84.5746 232.083 83.8136 238.74C83.0975 245.003 83.0535 248.624 83.8136 254.882C84.3546 259.336 86.1726 266.127 86.1726 266.127Z" fill="#FFBE0A" fill-opacity="0.8"/>
<path d="M251.126 111.417C245.813 112.309 238.786 117.584 238.786 117.584L229.168 128.285C228.035 132.039 226.905 134.029 226.265 137.897C225.456 142.789 226.265 145.635 226.265 150.593C226.265 153.143 226.62 154.598 226.265 157.123C225.672 161.343 224.712 163.784 222.273 167.28L230.257 165.829L238.786 164.74C238.786 164.74 238.434 158.993 238.242 155.309C237.888 148.513 236.54 144.633 237.516 137.897L237.55 137.661C238.182 133.296 238.568 130.637 240.601 126.652C242.662 122.612 244.421 120.543 247.86 117.584C251.61 114.357 254.21 112.908 258.929 111.417C255.882 111.417 254.131 110.913 251.126 111.417Z" fill="#FFBE0A" fill-opacity="0.8"/>
<path d="M29.3725 226.588C25.6992 224.363 20.6621 219.877 20.6621 219.877C20.6621 225.059 21.1526 230.966 21.1459 235.112C21.1459 235.112 28.3363 240.377 33.5463 242.563C43.5489 246.759 61.1293 245.846 61.1293 245.846L52.7478 233.661C52.7478 233.661 37.5299 231.528 29.3725 226.588Z" fill="#FFBE0A" fill-opacity="0.8"/>
<path d="M20.6621 239.647C20.3657 240.387 19.7108 241.38 18.8474 242.563C18.8474 242.563 27.4294 247.924 33.5463 249.803C44.8585 253.28 63.8514 249.803 63.8514 249.803L61.1293 245.846C61.1293 245.846 43.5489 246.759 33.5463 242.563C28.3363 240.377 21.1459 235.112 21.1459 235.112C21.1426 237.143 21.02 238.752 20.6621 239.647Z" fill="#FFBE0A" fill-opacity="0.8"/>
<path d="M214.832 249.803C213.774 247.397 214.318 245.653 213.2 243.274C212.289 241.336 210.825 240.76 210.115 238.74C206.288 240.51 204.26 241.783 200.316 243.274C193.034 246.027 180.899 247.79 180.899 247.79C180.13 248.489 179.166 249.093 178.177 249.803C174.796 252.231 171.542 251.685 168.015 250.539C168.015 250.539 154.523 251.339 145.875 251.798C135.687 252.34 119.78 253.068 119.78 253.068L116.296 266.127C116.296 266.127 131.231 266.405 140.794 266.127C152.009 265.801 158.393 266.119 169.466 264.313C180.392 262.531 186.407 260.677 196.868 257.058C204.018 254.584 207.817 252.637 214.832 249.803Z" fill="#FFBE0A" fill-opacity="0.8"/>
<path d="M160.574 248.171C153.419 246.572 142.972 241.642 142.972 241.642L121.718 244.522C121.804 244.745 121.722 245.79 120.651 249.803L119.78 253.068C119.78 253.068 135.687 252.34 145.875 251.798C154.523 251.339 168.015 250.539 168.015 250.539C165.691 249.784 163.249 248.769 160.574 248.171Z" fill="#FFBE0A" fill-opacity="0.8"/>
<path d="M210.115 238.74C209.081 235.796 210.735 233.869 210.478 230.759C210.191 227.283 209.738 225.308 208.482 222.054H200.538C200.669 223.189 200.659 224.372 200.316 225.318C199.184 228.439 193.783 230.759 193.783 230.759C193.783 230.759 194.759 234.828 193.783 237.107C192.124 240.982 188.169 241.126 183.984 241.642C183.029 241.759 182.021 241.71 180.995 241.539C181.979 242.219 182.611 243.118 182.532 244.544C182.452 245.99 181.813 246.958 180.899 247.79C180.899 247.79 193.034 246.027 200.316 243.274C204.26 241.783 206.288 240.51 210.115 238.74Z" fill="#FFBE0A" fill-opacity="0.8"/>
<path d="M22.8397 304.215C23.2926 309.443 26.6505 317.102 26.6505 317.102L122.647 295.837L112.848 285.533C112.848 285.533 100.48 274.058 90.7086 270.117C79.8992 265.758 72.7076 264.782 61.1293 266.127C49.6857 267.456 41.7299 268.478 33.5463 276.583C25.3219 284.728 21.8409 292.686 22.8397 304.215Z" fill="#24161A"/>
<path d="M248.585 267.94C248.585 267.94 241.534 259.598 235.338 257.058C232.428 255.865 230.68 255.007 227.535 255.063C224.596 255.116 222.946 255.826 220.276 257.058C216.207 258.937 213.544 260.387 211.385 264.313C210.24 266.394 209.939 267.771 209.57 270.117C209.177 272.611 209.57 276.583 209.57 276.583L248.585 267.94Z" fill="#24161A"/>
<path d="M142.972 241.642C142.972 241.642 153.419 246.572 160.574 248.171C163.249 248.769 165.691 249.784 168.015 250.539C171.542 251.685 174.796 252.231 178.177 249.803C179.166 249.093 180.13 248.489 180.899 247.79C181.813 246.958 182.452 245.99 182.532 244.544C182.611 243.118 181.979 242.219 180.995 241.539C174.835 240.515 168.015 235.112 168.015 235.112C168.015 235.112 172.46 237.09 175.092 238.74C177.004 239.938 179.44 240.466 180.995 241.539C182.021 241.71 183.029 241.759 183.984 241.642C188.169 241.126 192.124 240.982 193.783 237.107C194.759 234.828 193.783 230.759 193.783 230.759C193.783 230.759 199.184 228.439 200.316 225.318C200.659 224.372 200.669 223.189 200.538 222.054C200.299 219.977 199.59 218.063 199.59 218.063C199.59 218.063 193.683 213.753 189.428 211.897C186.819 210.759 185.104 210.757 182.532 209.539C180.291 208.478 177.088 206.274 177.088 206.274C177.088 206.274 172.673 203.134 169.466 201.921C166.255 200.707 163.786 200.637 160.978 200.557C159.581 200.518 158.099 200.476 156.401 200.289C151.165 199.714 142.972 199.02 142.972 199.02C142.972 199.02 139.227 198.229 136.802 198.294C132.12 198.42 129.077 198.324 124.825 200.289C117.75 203.56 113.975 207.583 109.4 213.892C105.112 219.806 104.433 224.313 103.049 231.485C102.173 236.025 101.96 243.274 101.96 243.274L118.111 244.32L121.559 244.544C121.559 244.544 121.668 244.391 121.718 244.522L142.972 241.642Z" fill="#24161A"/>
<path d="M293.952 127.197C287.601 120.123 271.995 111.417 266.732 111.417H258.929C254.21 112.908 251.61 114.357 247.86 117.584C244.421 120.543 242.662 122.612 240.601 126.652C238.568 130.637 238.182 133.296 237.55 137.661L237.516 137.897C236.54 144.633 237.888 148.513 238.242 155.309C238.434 158.993 238.786 164.74 238.786 164.74C238.786 164.74 245.138 163.652 246.226 162.564C247.315 161.476 247.308 159.055 248.585 157.123C249.692 155.449 250.478 154.581 252.033 153.314C254.631 152.361 256.071 151.162 257.477 148.78C258.491 147.062 258.929 143.883 258.929 143.883L256.389 132.275C256.389 132.275 265.643 138.804 265.462 140.799C265.28 142.794 263.647 145.515 263.647 145.515C263.647 145.515 263.119 148.816 264.01 150.593C264.422 151.415 264.937 152.108 265.54 152.663C267.17 152.97 268.762 153.464 270.724 154.221L278.709 153.314L286.694 155.672C286.694 155.672 288.508 157.848 290.141 158.03C291.775 158.211 296.92 154.558 299.215 150.593C301.178 147.202 301.629 144.71 301.392 140.799C301.026 134.756 300.304 134.27 293.952 127.197Z" fill="#24161A"/>
<path d="M69.1139 34.6974C70.3907 38.9314 75.1024 44.31 75.1024 44.31C75.1024 44.31 79.4184 45.5908 82.1796 45.2169C86.2387 44.6672 91.253 39.9571 91.253 39.9571L102.141 30.8886C102.141 30.8886 109.551 26.0492 109.218 21.4573C109.031 18.8664 106.315 15.4721 106.315 15.4721C106.315 15.4721 99.3503 8.67594 93.6121 7.49173C87.7017 6.27202 83.5298 6.90447 78.3688 10.0309C73.2657 13.1223 70.8309 16.471 69.1139 22.1828C67.707 26.8634 67.7029 30.018 69.1139 34.6974Z" fill="#24161A"/>
<path d="M156.4 9.12407C155.804 10.4034 155.311 12.5701 155.311 12.5701C155.311 12.5701 162.97 16.07 167.651 18.7367C171.136 20.7222 173.178 21.7378 176.361 24.1779C179.425 26.5268 183.62 30.8886 183.62 30.8886C183.62 30.8886 185.424 27.639 186.342 25.4475C187.77 22.0366 189.006 20.0759 189.064 16.3789C189.125 12.478 188.757 9.83119 186.342 6.76625C183.927 3.70181 181.368 2.9953 177.632 1.86923C172.678 0.376598 169.132 -0.184183 164.384 1.86923C160.517 3.54189 158.179 5.30598 156.4 9.12407Z" fill="#24161A"/>
<path fill-rule="evenodd" clip-rule="evenodd" d="M139.524 58.0942C133.589 59.0019 130.352 61.4865 126.277 65.8932C122.491 69.9874 120.551 73.0724 119.744 78.5891C119.136 82.7455 118.904 85.5583 120.833 89.2901C123.261 93.9863 126.831 95.5898 131.902 97.089C136.388 98.4148 139.394 98.4148 143.879 97.089C148.951 95.5898 151.698 93.4595 154.949 89.2901C158.34 84.9418 159.688 81.5605 159.848 76.05C159.985 71.3793 159.738 68.1893 156.945 64.4422C155.014 61.8517 153.353 60.7033 150.412 59.3638C146.517 57.5896 143.756 57.4471 139.524 58.0942ZM136.621 74.2362L139.524 90.0155L142.972 77.1382L146.783 75.5058L154.949 76.05L143.879 70.0647L136.621 74.2362Z" fill="black"/>
<path fill-rule="evenodd" clip-rule="evenodd" d="M177.995 60.8148C175.541 65.4813 176.544 71.8784 177.269 74.2362C179.141 80.3162 180.593 83.8988 186.524 86.2067C189.837 87.4957 192.232 88.8767 195.415 87.295C198.637 85.6938 199.308 82.9486 200.316 79.496C201.348 75.9602 201.099 73.6636 200.316 70.0647C199.406 65.8861 198.229 63.4923 195.415 60.2707C193.085 57.6029 191.587 56.6249 188.157 55.7364C185.894 55.1499 183.621 55.545 182.35 56.0991C179.915 57.1618 179.291 58.348 178.085 60.6444L177.995 60.8148ZM186.524 68.9765L181.262 74.2362L187.069 73.3294L190.154 77.1382L193.057 82.9421V72.2412L186.524 68.9765Z" fill="black"/>
<path d="M180.536 102.167L170.374 97.089L169.648 93.6429L173.096 90.9224L184.528 89.2901L188.157 90.9224V95.0939L180.536 102.167Z" fill="black"/>
<path d="M155.13 169.819L166.018 150.593L173.096 131.187C173.096 131.187 154.299 135.793 142.065 135.54C135.248 135.399 130.121 134.984 124.825 133.89L140.25 152.226L155.13 169.819Z" fill="#24161A"/>
<path fill-rule="evenodd" clip-rule="evenodd" d="M68.388 95.2753C70.4578 100.351 76.0097 107.064 76.0097 107.064C76.0097 107.064 84.4495 114.905 90.5279 119.035C93.9193 121.339 96.7626 123.152 99.6012 124.718C103.541 126.891 107.473 128.588 112.848 130.461C117.345 132.028 121.126 133.125 124.825 133.89C130.121 134.984 135.248 135.399 142.065 135.54C154.299 135.793 173.096 131.187 173.096 131.187C173.096 131.187 183.748 126.444 189.428 121.755C194.301 117.732 196.923 115.116 200.316 109.785C201.949 107.219 203.944 102.893 203.944 102.893C203.944 102.893 207.367 94.7955 208.118 89.2901C209.196 81.3921 206.122 68.9765 206.122 68.9765L195.415 44.31L183.62 30.8886C183.62 30.8886 179.425 26.5268 176.361 24.1779C173.178 21.7378 171.136 20.7222 167.651 18.7367C162.97 16.07 155.311 12.5701 155.311 12.5701C155.311 12.5701 151.628 10.8102 149.141 10.0309C141.83 7.73968 137.185 8.57284 129.543 9.12407C123.523 9.55825 119.982 9.63165 114.299 11.6633C111.046 12.8264 106.315 15.4721 106.315 15.4721C106.315 15.4721 109.031 18.8664 109.218 21.4573C109.551 26.0492 102.141 30.8886 102.141 30.8886L91.253 39.9571C91.253 39.9571 86.2387 44.6672 82.1796 45.2169C79.4184 45.5908 75.1024 44.31 75.1024 44.31C75.1024 44.31 67.8234 60.5676 66.7548 71.6971C65.8727 80.8848 64.9029 86.7279 68.388 95.2753ZM126.277 65.8932C130.352 61.4865 133.589 59.0019 139.524 58.0942C143.756 57.4471 146.517 57.5896 150.412 59.3638C153.353 60.7033 155.014 61.8517 156.945 64.4422C159.738 68.1893 159.985 71.3793 159.848 76.05C159.688 81.5605 158.34 84.9418 154.949 89.2901C151.698 93.4595 148.951 95.5898 143.879 97.089C139.394 98.4148 136.388 98.4148 131.902 97.089C126.831 95.5898 123.261 93.9863 120.833 89.2901C118.904 85.5583 119.136 82.7455 119.744 78.5891C120.551 73.0724 122.491 69.9874 126.277 65.8932ZM177.269 74.2362C176.544 71.8784 175.541 65.4813 177.995 60.8148L178.085 60.6444C179.291 58.348 179.915 57.1618 182.35 56.0991C183.621 55.545 185.894 55.1499 188.157 55.7364C191.587 56.6249 193.085 57.6029 195.415 60.2707C198.229 63.4923 199.406 65.8861 200.316 70.0647C201.099 73.6636 201.348 75.9602 200.316 79.496C199.308 82.9486 198.637 85.6938 195.415 87.295C192.232 88.8767 189.837 87.4957 186.524 86.2067C180.593 83.8988 179.141 80.3162 177.269 74.2362ZM170.374 97.089L180.536 102.167L188.157 95.0939V90.9224L184.528 89.2901L173.096 90.9224L169.648 93.6429L170.374 97.089Z" fill="#FDF7D8"/>
<path d="M139.524 90.0155L136.621 74.2362L143.879 70.0647L154.949 76.05L146.783 75.5058L142.972 77.1382L139.524 90.0155Z" fill="#FAF8ED"/>
<path d="M181.262 74.2362L186.524 68.9765L193.057 72.2412V82.9421L190.154 77.1382L187.069 73.3294L181.262 74.2362Z" fill="#FAF8ED"/>
<path d="M230.257 165.829L222.273 167.28C220.762 168.237 219.927 168.793 218.462 169.819L211.385 175.26L208.118 180.701C208.118 180.701 203.64 193.984 203.944 202.738C204.214 210.482 208.482 222.054 208.482 222.054C210.909 226.017 212.53 228.124 215.741 231.485C221.97 238.008 226.66 240.643 234.795 244.544C242.17 248.08 246.646 249.818 254.756 250.892C263.127 252 268.145 251.793 276.351 249.803C285.776 247.518 291.669 245.628 298.671 238.921C302.888 234.882 303.601 231.219 307.382 226.769L297.764 233.48C297.764 233.48 293.388 235.069 290.687 234.387C287.979 233.703 286.483 232.501 284.88 230.215C282.431 226.723 283.624 223.583 283.972 219.333C284.491 212.993 283.86 207.324 289.235 203.917C290.784 202.934 293.59 202.159 293.59 202.159C293.59 202.159 296.857 199.926 298.671 200.108C300.486 200.289 303.752 203.917 303.752 203.917L308.289 202.738C308.289 202.738 308.054 197.523 306.837 194.485C305.205 190.408 299.941 185.598 299.941 185.598C299.941 185.598 301.551 191.512 299.941 194.667C298.037 198.4 294.628 198.678 290.687 200.108C285.397 202.027 281.961 201.998 276.351 201.559C268.754 200.964 264.345 199.778 257.477 196.48L257.268 196.38C250.935 193.339 245.938 190.94 241.327 185.598C237.208 180.825 233.987 177.246 235.338 171.088C235.943 168.333 238.786 164.74 238.786 164.74L230.257 165.829Z" fill="#5E2E13"/>
<path fill-rule="evenodd" clip-rule="evenodd" d="M290.141 158.03C288.508 157.848 286.694 155.672 286.694 155.672L278.709 153.314L270.724 154.221C268.677 154.458 266.889 153.907 265.54 152.663C263.928 152.36 262.279 152.239 260.199 152.226C256.982 152.205 255.133 152.452 252.033 153.314C250.478 154.581 249.692 155.449 248.585 157.123C247.308 159.055 247.315 161.476 246.226 162.564C246.226 162.564 246.598 167.139 247.679 169.819C250.345 176.432 254.948 178.737 261.107 182.333C266.973 185.759 271.09 186.729 277.802 187.774C286.386 189.112 299.941 185.598 299.941 185.598C299.941 185.598 301.133 181.318 301.03 178.525C300.921 175.537 300.446 173.812 299.215 171.088C297.17 166.564 291.775 164.196 290.687 161.657C289.598 159.118 290.141 158.03 290.141 158.03ZM276.532 162.745C274.988 160.444 274.5 158.009 275.988 155.672C276.526 154.827 276.889 154.27 277.802 153.858C279.401 153.138 280.53 154.296 282.158 154.946C284.076 155.713 286.694 157.667 286.694 157.667C286.694 157.667 288.941 159.343 289.235 160.932C289.627 163.05 288.54 164.717 286.694 165.829C284.913 166.9 283.362 166.446 281.387 165.868L281.25 165.829C279.137 165.211 277.758 164.573 276.532 162.745Z" fill="#5E2E13"/>
<path d="M275.988 155.672C274.5 158.009 274.988 160.444 276.532 162.745C277.758 164.573 279.137 165.211 281.25 165.829L281.387 165.868C283.362 166.446 284.913 166.9 286.694 165.829C288.54 164.717 289.627 163.05 289.235 160.932C288.941 159.343 286.694 157.667 286.694 157.667C286.694 157.667 284.076 155.713 282.158 154.946C280.53 154.296 279.401 153.138 277.802 153.858C276.889 154.27 276.526 154.827 275.988 155.672Z" fill="#FF0000"/>
<path d="M246.226 162.564C245.138 163.652 238.786 164.74 238.786 164.74C238.786 164.74 235.943 168.333 235.338 171.088C233.987 177.246 237.208 180.825 241.327 185.598C245.938 190.94 250.935 193.339 257.268 196.38L257.477 196.48C264.345 199.778 268.754 200.964 276.351 201.559C281.961 201.998 285.397 202.027 290.687 200.108C294.628 198.678 298.037 198.4 299.941 194.667C301.551 191.512 299.941 185.598 299.941 185.598C299.941 185.598 286.386 189.112 277.802 187.774C271.09 186.729 266.973 185.759 261.107 182.333C254.948 178.737 250.345 176.432 247.679 169.819C246.598 167.139 246.226 162.564 246.226 162.564Z" fill="#FF0E0E"/>
<path d="M307.382 226.769C309.977 223.714 311.352 221.867 314.459 219.333C316.835 217.396 318.441 216.68 320.992 214.98C319.513 213.905 318.808 212.918 318.27 211.171C317.77 209.547 317.504 208.47 317.907 206.818C318.2 205.617 318.709 204.833 319.54 203.917C320.584 202.766 322.444 202.284 323.895 202.466L320.266 201.559C320.266 201.559 315.696 201.107 312.826 201.559C311.017 201.843 308.289 202.738 308.289 202.738L303.752 203.917C303.752 203.917 300.656 204.925 298.671 204.642C296.484 204.331 293.59 202.159 293.59 202.159C293.59 202.159 290.784 202.934 289.235 203.917C283.86 207.324 284.491 212.993 283.972 219.333C283.624 223.583 282.431 226.723 284.88 230.215C286.483 232.501 287.979 233.703 290.687 234.387C293.388 235.069 297.764 233.48 297.764 233.48L307.382 226.769Z" fill="#5E2E13"/>
<path d="M303.752 203.917C303.752 203.917 300.486 200.289 298.671 200.108C296.857 199.926 293.59 202.159 293.59 202.159C293.59 202.159 296.484 204.331 298.671 204.642C300.656 204.925 303.752 203.917 303.752 203.917Z" fill="#5E2E13"/>
<path d="M324.803 214.799C326.073 214.799 326.354 214.78 327.162 214.255C328.729 213.234 329.032 211.767 329.158 209.902C329.305 207.71 328.997 205.851 327.162 204.642C326.013 203.885 325.04 203.549 323.714 203.917C322.216 204.332 321.607 205.392 320.992 206.818C320.119 208.844 320.346 210.583 321.536 212.441C322.408 213.801 322.806 214.255 324.803 214.799Z" fill="#F00000"/>
<path d="M320.992 214.98C322.48 214.98 323.314 214.799 324.803 214.799C322.806 214.255 322.408 213.801 321.536 212.441C320.346 210.583 320.119 208.844 320.992 206.818C321.607 205.392 322.216 204.332 323.714 203.917C325.04 203.549 326.013 203.885 327.162 204.642C327.162 204.642 325.347 202.647 323.895 202.466C322.444 202.284 320.584 202.766 319.54 203.917C318.709 204.833 318.2 205.617 317.907 206.818C317.504 208.47 317.77 209.547 318.27 211.171C318.808 212.918 319.513 213.905 320.992 214.98Z" fill="#5E2E13"/>
<path d="M20.6621 219.877C20.6621 215.273 19.1118 212.423 20.6621 208.088C21.9645 204.446 25.7559 201.439 27.9215 199.64M20.6621 219.877C20.6621 219.877 25.6992 224.363 29.3725 226.588C37.5299 231.528 52.7478 233.661 52.7478 233.661M20.6621 219.877C20.6621 225.059 21.1526 230.966 21.1459 235.112M76.0097 107.064C76.0097 107.064 59.8591 112.868 61.8552 115.589C63.8514 118.309 63.8514 119.035 63.8514 119.035C63.8514 119.035 62.6161 120.172 60.7672 121.947M76.0097 107.064C76.0097 107.064 70.4578 100.351 68.388 95.2753C64.9029 86.7279 65.8727 80.8848 66.7548 71.6971C67.8234 60.5676 75.1024 44.31 75.1024 44.31M76.0097 107.064C76.0097 107.064 84.4495 114.905 90.5279 119.035C93.9193 121.339 96.7626 123.152 99.6012 124.718M75.1024 44.31C75.1024 44.31 70.3907 38.9314 69.1139 34.6974C67.7029 30.018 67.707 26.8634 69.1139 22.1828C70.8309 16.471 73.2657 13.1223 78.3688 10.0309C83.5298 6.90447 87.7017 6.27201 93.612 7.49173C99.3503 8.67594 106.315 15.4721 106.315 15.4721M75.1024 44.31C75.1024 44.31 79.4184 45.5908 82.1796 45.2169C86.2387 44.6672 91.253 39.9571 91.253 39.9571L102.141 30.8886C102.141 30.8886 109.551 26.0492 109.218 21.4573C109.031 18.8664 106.315 15.4721 106.315 15.4721M106.315 15.4721C106.315 15.4721 111.046 12.8264 114.299 11.6633C119.982 9.63165 123.523 9.55825 129.543 9.12407C137.185 8.57284 141.83 7.73968 149.141 10.0309C151.628 10.8102 155.311 12.5701 155.311 12.5701M155.311 12.5701C155.311 12.5701 155.804 10.4034 156.4 9.12407C158.179 5.30598 160.517 3.54189 164.384 1.86923C169.132 -0.184183 172.678 0.376598 177.632 1.86923C181.368 2.9953 183.927 3.70181 186.342 6.76625C188.757 9.83119 189.125 12.478 189.064 16.3789C189.006 20.0759 187.77 22.0367 186.342 25.4475C185.424 27.639 183.62 30.8886 183.62 30.8886M155.311 12.5701C155.311 12.5701 162.97 16.07 167.651 18.7367C171.136 20.7222 173.178 21.7378 176.361 24.1779C179.425 26.5268 183.62 30.8886 183.62 30.8886M183.62 30.8886L195.415 44.31L206.122 68.9765C206.122 68.9765 209.196 81.3921 208.118 89.2901C207.367 94.7955 203.944 102.893 203.944 102.893M203.944 102.893C203.944 102.893 209.626 107.364 213.562 109.785C214.631 110.443 215.569 111.081 216.454 111.684C219.053 113.454 221.187 114.907 224.813 115.589C226.376 115.883 227.632 115.734 228.887 115.586C230.148 115.437 231.409 115.288 232.979 115.589C235.334 116.04 238.786 117.584 238.786 117.584M203.944 102.893C203.944 102.893 201.949 107.219 200.316 109.785C196.923 115.116 194.301 117.732 189.428 121.755C183.748 126.444 173.096 131.187 173.096 131.187M238.786 117.584C238.786 117.584 245.813 112.309 251.126 111.417C254.131 110.913 255.882 111.417 258.929 111.417M238.786 117.584C238.786 117.584 232.924 124.106 229.168 128.285M238.786 117.584L229.168 128.285M266.732 111.417C271.995 111.417 287.601 120.123 293.952 127.197C300.304 134.27 301.026 134.756 301.392 140.799C301.629 144.71 301.178 147.202 299.215 150.593C296.92 154.558 291.775 158.211 290.141 158.03M266.732 111.417C261.47 111.417 261.976 111.417 258.929 111.417M266.732 111.417H258.929M290.141 158.03C288.508 157.848 286.694 155.672 286.694 155.672M290.141 158.03C290.141 158.03 289.598 159.118 290.687 161.657C291.775 164.196 297.17 166.564 299.215 171.088M286.694 155.672C286.694 155.672 289.861 153.113 291.23 150.956C292.984 148.195 293.71 146.246 293.771 142.976C293.835 139.503 291.23 134.451 291.23 134.451M286.694 155.672L278.709 153.314M278.709 153.314C278.709 153.314 280.95 150.748 281.794 148.78C282.895 146.211 283.015 144.498 282.883 141.706C282.715 138.148 280.161 133 280.161 133M278.709 153.314C278.709 153.314 273.843 153.867 270.724 154.221M278.709 153.314L270.724 154.221M270.724 154.221C268.762 153.464 267.17 152.97 265.54 152.663M270.724 154.221C268.677 154.458 266.889 153.907 265.54 152.663M263.647 145.515C263.647 145.515 263.119 148.816 264.01 150.593C264.422 151.415 264.937 152.108 265.54 152.663M263.647 145.515C263.647 145.515 265.28 142.794 265.462 140.799C265.643 138.804 256.389 132.275 256.389 132.275L258.929 143.883M263.647 145.515L258.929 143.883M258.929 143.883C258.929 143.883 258.491 147.062 257.477 148.78C256.071 151.162 254.631 152.361 252.033 153.314M246.226 126.652C246.226 126.652 243.515 130.278 242.778 133C241.946 136.077 241.685 137.617 241.871 140.799C242.096 144.65 241.385 148.165 244.049 150.956C246.293 153.308 248.871 154.069 252.033 153.314M252.033 153.314C250.478 154.581 249.692 155.449 248.585 157.123C247.308 159.055 247.315 161.476 246.226 162.564M252.033 153.314C255.133 152.452 256.982 152.205 260.199 152.226M258.929 111.417C254.21 112.908 251.61 114.357 247.86 117.584C244.421 120.543 242.662 122.612 240.601 126.652C238.568 130.637 238.182 133.296 237.55 137.661M237.516 137.897C236.54 144.633 237.888 148.513 238.242 155.309C238.434 158.993 238.786 164.74 238.786 164.74M237.516 137.897L237.55 137.661M237.516 137.897C237.527 137.818 237.539 137.739 237.55 137.661M238.786 164.74C238.786 164.74 245.138 163.652 246.226 162.564M238.786 164.74L230.257 165.829M238.786 164.74C238.786 164.74 235.943 168.333 235.338 171.088C233.987 177.246 237.208 180.825 241.327 185.598C245.938 190.94 250.935 193.339 257.268 196.38M246.226 162.564C246.226 162.564 246.598 167.139 247.679 169.819C250.345 176.432 254.948 178.737 261.107 182.333C266.973 185.759 271.09 186.729 277.802 187.774C286.386 189.112 299.942 185.598 299.942 185.598M260.199 152.226C260.199 152.226 253.942 156.021 252.76 157.123C251.14 158.633 251.718 160.554 252.033 162.745C252.562 166.421 253.836 168.39 256.389 171.088C260.252 175.171 264.248 176.406 269.455 178.525C273.435 180.144 275.886 181.172 280.162 181.608C283.475 181.946 285.378 181.957 288.691 181.608C291.054 181.359 292.764 181.383 294.679 179.976C295.901 179.077 299.215 171.088 299.215 171.088M260.199 152.226C262.279 152.239 263.928 152.36 265.54 152.663M229.168 128.285C228.035 132.039 226.905 134.029 226.265 137.897C225.456 142.789 226.265 145.635 226.265 150.593C226.265 153.143 226.62 154.598 226.265 157.123C225.672 161.343 224.712 163.784 222.273 167.28M229.168 128.285C227.998 129.853 226.754 131.061 225.578 132.203C223.407 134.311 221.466 136.196 220.639 139.711C220.089 142.052 220.812 143.967 221.528 145.862C222.279 147.85 223.021 149.815 222.273 152.226C221.682 154.126 220.56 155.236 219.412 156.372C218.393 157.379 217.354 158.407 216.647 160.025C215.816 161.928 215.855 163.66 215.893 165.361C215.936 167.246 215.978 169.092 214.832 171.088C213.781 172.922 212.987 173.882 211.385 175.26M222.273 167.28C225.391 166.713 230.257 165.829 230.257 165.829M222.273 167.28C220.762 168.237 219.927 168.793 218.462 169.819M222.273 167.28L230.257 165.829M211.385 175.26C214.148 173.135 218.462 169.819 218.462 169.819M211.385 175.26C211.081 169.276 210.68 165.913 209.57 160.025C209.196 158.04 208.73 156.477 208.277 154.956C207.717 153.074 207.175 151.256 206.848 148.78C206.288 144.549 206.454 141.689 206.662 138.09C206.727 136.97 206.795 135.778 206.848 134.451C207.087 128.415 208.118 119.035 208.118 119.035C208.118 119.035 204.895 125.01 203.944 129.192C203.12 132.82 203.365 135.508 203.639 138.515C203.787 140.144 203.944 141.867 203.944 143.883C203.944 146.222 203.866 148.205 203.792 150.079C203.656 153.539 203.534 156.633 203.944 160.932C204.694 168.786 208.118 180.701 208.118 180.701M211.385 175.26C210.109 177.385 208.118 180.701 208.118 180.701M211.385 175.26L218.462 169.819M211.385 175.26L208.118 180.701M208.118 180.701C208.118 180.701 203.64 193.984 203.944 202.738C204.214 210.482 208.482 222.054 208.482 222.054M220.276 257.058C222.946 255.826 224.596 255.116 227.535 255.063C230.68 255.007 232.428 255.865 235.338 257.058C241.534 259.598 248.585 267.94 248.585 267.94L209.57 276.583M220.276 257.058C216.207 258.937 213.544 260.387 211.385 264.313C210.24 266.394 209.939 267.771 209.57 270.117C209.177 272.611 209.57 276.583 209.57 276.583M220.276 257.058C220.276 257.058 216.259 253.045 214.832 249.803M209.57 276.583L122.647 295.837M26.6505 317.102L10.3184 320.719C10.3184 320.719 3.25526 307.731 1.60796 298.592C-1.47965 281.463 2.27203 270.318 10.3184 254.882C12.7378 250.24 16.5382 245.726 18.8474 242.563M26.6505 317.102C26.6505 317.102 23.2926 309.443 22.8397 304.215C21.8409 292.686 25.3219 284.728 33.5463 276.583C41.7299 268.478 49.6857 267.456 61.1293 266.127C72.7076 264.782 79.8992 265.758 90.7086 270.117M26.6505 317.102L122.647 295.837M90.7086 270.117C100.48 274.058 112.848 285.533 112.848 285.533L122.647 295.837M90.7086 270.117C90.7086 270.117 88.9284 268.416 86.1726 266.127M18.8474 257.602C18.8474 257.602 36.3948 252.933 47.8822 252.887C55.9352 252.854 60.7355 252.556 68.388 255.063M68.388 255.063L63.8514 249.803M68.388 255.063C74.5835 257.093 81.6765 262.392 86.1726 266.127M214.832 249.803C213.774 247.397 214.318 245.653 213.2 243.274C212.289 241.336 210.825 240.76 210.115 238.74M214.832 249.803C207.817 252.637 204.018 254.584 196.868 257.058C186.407 260.677 180.392 262.531 169.466 264.313C158.393 266.119 152.009 265.801 140.794 266.127C131.231 266.405 116.296 266.127 116.296 266.127M210.115 238.74C209.081 235.796 210.735 233.869 210.478 230.759C210.191 227.283 209.738 225.308 208.482 222.054M210.115 238.74C206.288 240.51 204.26 241.783 200.316 243.274C193.034 246.027 180.899 247.79 180.899 247.79M208.482 222.054C210.909 226.017 212.53 228.124 215.741 231.485C221.97 238.008 226.66 240.643 234.795 244.544C242.17 248.08 246.646 249.818 254.756 250.892C263.127 252 268.145 251.793 276.351 249.803C285.776 247.518 291.669 245.628 298.671 238.921C302.888 234.882 303.601 231.219 307.382 226.769M208.482 222.054C205.38 222.054 200.538 222.054 200.538 222.054M208.482 222.054H200.538M307.382 226.769C309.977 223.714 311.352 221.867 314.459 219.333C316.835 217.396 318.441 216.68 320.992 214.98M307.382 226.769L297.764 233.48C297.764 233.48 293.388 235.069 290.687 234.387C287.979 233.703 286.483 232.501 284.88 230.215C282.431 226.723 283.624 223.583 283.972 219.333C284.491 212.993 283.86 207.324 289.235 203.917C290.784 202.934 293.59 202.159 293.59 202.159M320.992 214.98C322.48 214.98 323.314 214.799 324.803 214.799M320.992 214.98C319.513 213.905 318.808 212.918 318.27 211.171C317.77 209.547 317.504 208.47 317.907 206.818C318.2 205.617 318.709 204.833 319.54 203.917C320.584 202.766 322.443 202.284 323.895 202.466M324.803 214.799C326.073 214.799 326.354 214.78 327.162 214.255C328.729 213.234 329.032 211.767 329.158 209.902C329.305 207.71 328.997 205.851 327.162 204.642M324.803 214.799C322.806 214.255 322.408 213.801 321.536 212.441C320.346 210.583 320.119 208.844 320.992 206.818C321.607 205.392 322.216 204.332 323.714 203.917C325.04 203.549 326.013 203.885 327.162 204.642M327.162 204.642C327.162 204.642 325.347 202.647 323.895 202.466M323.895 202.466L320.266 201.559C320.266 201.559 315.696 201.107 312.826 201.559C311.017 201.843 308.289 202.738 308.289 202.738M18.8474 242.563C19.7108 241.38 20.3657 240.387 20.6621 239.647C21.02 238.752 21.1426 237.143 21.1459 235.112M18.8474 242.563C18.8474 242.563 27.4294 247.924 33.5463 249.803C44.8585 253.28 63.8514 249.803 63.8514 249.803M63.8514 249.803L61.1293 245.846M86.1726 266.127C86.1726 266.127 95.23 272.515 101.96 273.382C104.842 273.752 106.664 274.356 109.4 273.382C113.084 272.07 114.595 272.501 116.296 266.127M86.1726 266.127C86.1726 266.127 84.3546 259.336 83.8136 254.882C83.0535 248.624 83.0975 245.003 83.8136 238.74C84.5746 232.083 85.2708 228.256 87.8058 222.054C90.8314 214.651 92.7766 210.217 98.5124 204.642C103.205 200.082 106.689 197.789 112.848 195.573C118.886 193.401 122.826 192.865 129.18 193.76M116.296 266.127C117.685 260.923 118.575 257.586 119.78 253.068M116.296 266.127L119.78 253.068M120.651 249.803C120.339 250.975 120.052 252.051 119.78 253.068M120.651 249.803L119.78 253.068M120.651 249.803C121.722 245.79 121.804 244.745 121.718 244.522M121.559 244.544L118.111 244.32M121.559 244.544L121.718 244.522M121.559 244.544C121.559 244.544 121.668 244.391 121.718 244.522M142.972 241.642C142.972 241.642 140.029 239.22 138.98 237.107C138.352 235.843 137.891 233.661 137.891 233.661M142.972 241.642C142.972 241.642 153.419 246.572 160.574 248.171C163.249 248.769 165.691 249.784 168.015 250.539M142.972 241.642L121.718 244.522M193.783 230.759C193.783 230.759 194.759 234.828 193.783 237.107C192.124 240.982 188.169 241.126 183.984 241.642C183.029 241.759 182.021 241.71 180.995 241.539M193.783 230.759C193.783 230.759 188.656 227.12 185.072 225.318C182.063 223.805 177.088 222.054 177.088 222.054M193.783 230.759C193.783 230.759 199.184 228.439 200.316 225.318C200.659 224.372 200.669 223.189 200.538 222.054M199.59 218.063C199.59 218.063 198.522 213.945 196.868 211.897C195.31 209.968 194.009 209.189 191.787 208.088C189.217 206.815 187.416 206.629 184.737 206.353C184.493 206.328 184.243 206.302 183.984 206.274C181.306 205.99 177.088 206.274 177.088 206.274M199.59 218.063C199.59 218.063 193.683 213.753 189.428 211.897C186.819 210.759 185.104 210.757 182.532 209.539C180.291 208.478 177.088 206.274 177.088 206.274M199.59 218.063C199.59 218.063 200.299 219.977 200.538 222.054M177.088 206.274C177.088 206.274 172.673 203.134 169.466 201.921C166.255 200.707 163.786 200.637 160.978 200.557C159.581 200.518 158.099 200.476 156.401 200.289C151.165 199.714 142.972 199.019 142.972 199.019M101.96 243.274C101.96 243.274 102.173 236.025 103.049 231.485C104.433 224.313 105.112 219.806 109.4 213.892C113.975 207.583 117.75 203.56 124.825 200.289C129.077 198.324 132.12 198.42 136.802 198.294C139.227 198.229 142.972 199.019 142.972 199.019M101.96 243.274C101.96 243.274 101.201 252.388 101.96 258.146C102.53 262.473 103.049 268.303 104.501 269.029C105.953 269.754 106.241 269.87 107.404 269.754C109.7 269.525 110.119 267.322 111.397 265.401C113.087 262.86 113.35 261.046 114.3 258.146C115.279 255.159 115.445 253.374 116.296 250.347C116.962 247.981 118.111 244.32 118.111 244.32M101.96 243.274L118.111 244.32M142.972 199.019C142.972 199.019 139.52 197.117 135.535 195.573M129.18 193.76C129.18 193.76 120.935 189.537 115.207 188.319C113.843 188.028 112.589 187.782 111.397 187.582M129.18 193.76C131.159 194.038 133.422 194.755 135.535 195.573M37.3578 193.76C37.3578 193.76 37.741 204.276 39.7169 210.627C41.7966 217.312 44.1596 220.658 47.8822 226.588C49.6648 229.427 52.7478 233.661 52.7478 233.661M32.2767 205.73L41.5316 222.054M41.5316 222.054L52.7478 233.661M41.5316 222.054C41.5316 222.054 32.0671 217.596 29.3725 212.078C27.2264 207.684 27.9215 199.64 27.9215 199.64M52.7478 233.661L61.1293 245.846M27.9215 199.64C28.6211 199.059 29.151 198.604 29.3725 198.294C30.2798 197.024 26.3862 178.801 29.3725 166.917C32.8393 153.12 38.9601 146.622 47.8822 135.54C51.5627 130.968 57.2655 125.311 60.7672 121.947M21.1459 235.112C21.1459 235.112 28.3363 240.377 33.5463 242.563C43.5489 246.759 61.1293 245.846 61.1293 245.846M74.7402 196.843C74.7402 196.843 79.4853 193.223 82.9062 191.583C88.6874 188.813 92.3146 187.871 98.6939 187.23C103.655 186.732 107.135 186.866 111.397 187.582M111.397 187.582C111.397 187.582 111.891 184.408 110.852 182.877C110.231 181.962 110.489 182.696 108.675 181.064C106.86 179.431 107.108 172.825 105.227 167.824C103.476 163.169 102.096 160.7 99.6012 156.397C96.8912 151.723 95.1233 149.23 91.7981 144.971C85.9409 137.468 82.5016 133.072 74.7402 127.559C71.1142 124.984 69.3639 122.23 64.9409 121.755C63.3186 121.582 60.7672 121.947 60.7672 121.947M111.397 187.582C111.397 187.582 104.317 177.682 98.6939 172.358C93.1064 167.068 82.9062 160.569 82.9062 160.569M135.535 195.573L146.42 182.877L147.025 181.971M155.13 169.819L166.018 150.593L173.096 131.187M155.13 169.819L140.25 152.226L124.825 133.89M155.13 169.819L147.025 181.971M173.096 131.187C173.096 131.187 154.299 135.793 142.065 135.54C135.248 135.399 130.121 134.984 124.825 133.89M124.825 133.89C121.126 133.125 117.345 132.028 112.848 130.461C107.473 128.588 103.541 126.891 99.6012 124.718M99.6012 124.718L119.381 148.78L137.709 171.088L147.025 181.971M180.899 247.79C180.13 248.489 179.166 249.093 178.177 249.803C174.796 252.231 171.542 251.685 168.015 250.539M180.899 247.79C181.813 246.958 182.452 245.99 182.532 244.544C182.611 243.118 181.979 242.219 180.995 241.539M119.78 253.068C119.78 253.068 135.687 252.34 145.875 251.798C154.523 251.339 168.015 250.539 168.015 250.539M177.995 60.8148C175.541 65.4813 176.544 71.8784 177.269 74.2362C179.141 80.3162 180.593 83.8988 186.524 86.2067C189.837 87.4957 192.232 88.8767 195.415 87.295C198.637 85.6938 199.308 82.9486 200.316 79.496C201.348 75.9602 201.099 73.6636 200.316 70.0647C199.406 65.8861 198.229 63.4923 195.415 60.2707C193.085 57.6029 191.587 56.6249 188.157 55.7364C185.894 55.1499 183.621 55.545 182.35 56.0991C179.915 57.1618 179.291 58.348 178.085 60.6444M177.995 60.8148L178.085 60.6444M177.995 60.8148C178.025 60.7573 178.055 60.7006 178.085 60.6444M180.536 102.167L170.374 97.089L169.648 93.6429L173.096 90.9224L184.528 89.2901L188.157 90.9224V95.0939L180.536 102.167ZM180.536 102.167V106.883M180.536 106.883C180.536 106.883 182.772 108.799 184.528 109.241C186.04 109.621 187.035 109.714 188.52 109.241C190.669 108.556 191.889 107.357 192.694 105.251C193.177 103.987 193.057 101.805 193.057 101.805M180.536 106.883C180.536 106.883 177.793 109.286 175.818 110.51C174.39 111.395 173.63 112.071 172.007 112.506C170.09 113.019 168.862 112.941 166.926 112.506C165.1 112.095 164.029 111.681 162.571 110.51C161.233 109.437 159.848 107.064 159.848 107.064M303.752 203.917C303.752 203.917 300.486 200.289 298.671 200.108C296.857 199.926 293.59 202.159 293.59 202.159M303.752 203.917C303.752 203.917 300.656 204.925 298.671 204.642C296.484 204.331 293.59 202.159 293.59 202.159M303.752 203.917L308.289 202.738M257.477 196.48C264.345 199.778 268.754 200.964 276.351 201.559C281.961 201.998 285.397 202.027 290.687 200.108C294.628 198.678 298.037 198.4 299.942 194.667C301.551 191.512 299.942 185.598 299.942 185.598M257.477 196.48L257.268 196.38M257.477 196.48C257.407 196.447 257.338 196.413 257.268 196.38M299.942 185.598C299.942 185.598 305.205 190.408 306.837 194.485C308.054 197.523 308.289 202.738 308.289 202.738M299.942 185.598C299.942 185.598 301.133 181.318 301.03 178.525C300.921 175.537 300.446 173.812 299.215 171.088M281.25 165.829C279.137 165.211 277.758 164.573 276.532 162.745C274.988 160.444 274.5 158.009 275.988 155.672C276.526 154.827 276.889 154.27 277.802 153.858C279.401 153.138 280.53 154.296 282.158 154.946C284.076 155.713 286.694 157.667 286.694 157.667C286.694 157.667 288.941 159.343 289.235 160.932C289.627 163.05 288.54 164.717 286.694 165.829C284.913 166.9 283.362 166.446 281.387 165.868M281.25 165.829L281.387 165.868M281.25 165.829C281.296 165.842 281.341 165.855 281.387 165.868M180.995 241.539C174.835 240.515 168.015 235.112 168.015 235.112C168.015 235.112 172.46 237.09 175.092 238.74C177.004 239.938 179.44 240.466 180.995 241.539ZM139.524 58.0942C133.589 59.0019 130.352 61.4865 126.277 65.8932C122.491 69.9874 120.551 73.0724 119.744 78.5891C119.136 82.7455 118.904 85.5583 120.833 89.2901C123.261 93.9863 126.831 95.5898 131.902 97.089C136.388 98.4148 139.394 98.4148 143.879 97.089C148.951 95.5898 151.698 93.4595 154.949 89.2901C158.34 84.9418 159.688 81.5605 159.848 76.05C159.985 71.3793 159.738 68.1893 156.945 64.4422C155.014 61.8517 153.353 60.7033 150.412 59.3638C146.517 57.5896 143.756 57.4471 139.524 58.0942ZM139.524 90.0155L136.621 74.2362L143.879 70.0647L154.949 76.05L146.783 75.5058L142.972 77.1382L139.524 90.0155ZM181.262 74.2362L186.524 68.9765L193.057 72.2412V82.9421L190.154 77.1382L187.069 73.3294L181.262 74.2362Z" stroke="black" stroke-width="1.05882"/>
</svg>
