<svg width="385" height="507" viewBox="0 0 385 507" fill="none" xmlns="http://www.w3.org/2000/svg">
<g filter="url(#filter0_i_2863_842)">
<path d="M284.127 244.147C284.127 244.147 306.536 244.127 319.85 239.518C333.524 234.784 341.58 230.855 351.677 220.341C363.572 207.954 371.162 180.665 371.162 180.665H364.667C364.667 180.665 358.902 186.484 354.275 188.601C350.009 190.552 347.253 190.971 342.584 191.246C334.536 191.719 328.967 191.445 322.449 186.617C318.22 183.485 316.298 180.821 314.005 176.037C310.429 168.578 308.768 162.471 312.056 154.876C313.021 152.647 315.304 149.586 315.304 149.586L315.953 142.643L292.571 147.602L246.455 129.087L211.381 156.86L180.854 168.101H144.481L116.552 159.505L87.3236 137.022L83.9579 129.087L62.6419 132.393L71.0856 146.28C71.0856 146.28 80.976 153.051 80.8284 159.505C80.7006 165.09 73.0342 171.408 73.0342 171.408V178.682V204.471C89.0089 195.335 98.8184 191.31 116.552 186.617C135.34 181.644 150.327 178.02 165.915 180.665C181.503 183.31 199.69 189.923 213.979 201.165C228.269 212.406 228.826 220.615 241.259 229.599C251.25 236.818 257.076 242.268 269.188 244.147C274.956 245.041 284.127 244.147 284.127 244.147Z" fill="#24161A"/>
<path d="M356.223 176.037C354.395 173.44 354.275 168.101 354.275 168.101L350.702 165.456L347.13 162.811C347.13 162.811 341.951 158.47 338.037 156.86C335.128 155.664 330.243 154.876 330.243 154.876C330.243 154.876 325.41 153.948 322.449 152.892C319.556 151.861 315.304 149.586 315.304 149.586C315.304 149.586 313.021 152.647 312.056 154.876C308.768 162.471 310.429 168.578 314.005 176.037C316.298 180.821 318.22 183.485 322.449 186.617C328.967 191.445 334.536 191.719 342.584 191.246C347.253 190.971 350.009 190.552 354.275 188.601C358.902 186.484 364.667 180.665 364.667 180.665C364.667 180.665 358.405 179.135 356.223 176.037Z" fill="#24161A"/>
<path d="M371.162 180.665C371.162 180.665 383.432 171.337 383.503 162.811C383.558 156.228 376.358 147.602 376.358 147.602C376.358 147.602 372.237 148.87 369.863 150.247C366.228 152.357 361.878 157.521 361.878 157.521C361.878 157.521 358.945 159.672 357.522 161.489C355.755 163.747 354.275 168.101 354.275 168.101C354.275 168.101 354.395 173.44 356.223 176.037C358.405 179.135 364.667 180.665 364.667 180.665H371.162Z" fill="#24161A"/>
<path d="M354.275 168.101C354.275 168.101 355.755 163.747 357.522 161.489C358.945 159.672 361.878 157.521 361.878 157.521L351.677 150.247L350.702 165.456L354.275 168.101Z" fill="#24161A"/>
<path d="M338.037 149.586L330.243 154.876C330.243 154.876 335.128 155.664 338.037 156.86C341.951 158.47 347.13 162.811 347.13 162.811L350.702 165.456L351.677 150.247L339.661 144.296L338.037 149.586Z" fill="#24161A"/>
<path d="M326.346 129.087C321.897 130.163 318.447 131.439 316.603 135.7C315.524 138.192 315.953 142.643 315.953 142.643L315.304 149.586C315.304 149.586 319.556 151.861 322.449 152.892C325.41 153.948 330.243 154.876 330.243 154.876L338.037 149.586L339.661 144.296C339.661 144.296 341.428 141.165 341.284 139.006C341.072 135.811 336.521 132.393 336.521 132.393L334.14 129.087C334.14 129.087 329.307 128.371 326.346 129.087Z" fill="#24161A"/>
<path d="M336.521 132.393C336.521 132.393 341.072 135.811 341.284 139.006C341.428 141.165 339.661 144.296 339.661 144.296L351.677 150.247C351.951 147.238 352.586 145.459 354.275 142.974C356.49 139.714 362.351 137.022 362.351 137.022C362.351 137.022 358.843 133.84 356.223 132.393C352.058 130.093 349.24 128.537 344.532 129.087C341.178 129.479 336.521 132.393 336.521 132.393Z" fill="#24161A"/>
<path d="M369.863 150.247C372.237 148.87 376.358 147.602 376.358 147.602L362.351 137.022C362.351 137.022 356.49 139.714 354.275 142.974C352.586 145.459 351.951 147.238 351.677 150.247L361.878 157.521C361.878 157.521 366.228 152.357 369.863 150.247Z" fill="#24161A"/>
<path d="M47.0535 130.41C41.7146 131.504 34.7127 137.022 34.7127 137.022C34.7127 137.022 20.5599 141.296 13.9282 147.602C4.80017 156.283 2.09972 164.697 0.937854 177.359C-0.252413 190.33 1.9781 198.696 8.73205 209.761C15.6745 221.135 22.7517 226.012 34.7127 231.583C43.496 235.673 58.7448 237.534 58.7448 237.534L73.0342 204.471V178.682V171.408C73.0342 171.408 80.7006 165.09 80.8284 159.505C80.976 153.051 71.0856 146.28 71.0856 146.28L67.1885 152.892C67.1885 152.892 71.2667 162.124 68.4876 166.779C66.6957 169.78 61.3429 172.069 61.3429 172.069L57.4458 187.939C55.9239 194.137 47.0306 193.07 40.5584 191.246C34.4863 189.534 30.1388 186.774 28.2175 180.665C25.9905 173.584 28.8499 167.245 34.7127 162.811C38.7133 159.786 42.1096 158.868 47.0535 159.505C54.3685 160.448 61.3429 172.069 61.3429 172.069C61.3429 172.069 66.6957 169.78 68.4876 166.779C71.2667 162.124 67.1885 152.892 67.1885 152.892L71.0856 146.28L62.6419 132.393C62.6419 132.393 53.0678 129.176 47.0535 130.41Z" fill="#24161A"/>
<path d="M57.4458 187.939L61.3429 172.069C61.3429 172.069 54.3685 160.448 47.0535 159.505C42.1096 158.868 38.7133 159.786 34.7127 162.811C28.8499 167.245 25.9905 173.584 28.2175 180.665C30.1388 186.774 34.4863 189.534 40.5584 191.246C47.0306 193.07 55.9239 194.137 57.4458 187.939Z" fill="#24161A"/>
<path d="M62.6419 132.393C62.6419 132.393 59.3183 124.008 54.8477 121.152C51.0957 118.754 48.164 117.698 43.8059 118.507C39.6528 119.278 36.868 120.763 34.7127 124.458C32.2522 128.677 34.7127 137.022 34.7127 137.022C34.7127 137.022 41.7146 131.504 47.0535 130.41C53.0678 129.176 62.6419 132.393 62.6419 132.393Z" fill="#24161A"/>
<path d="M30.8156 351.932C30.8156 351.932 9.47824 372.94 8.73205 390.285C8.08899 405.233 22.3719 425.993 22.3719 425.993C22.3719 425.993 43.1727 435.841 57.4458 438.557C73.9022 441.689 100.314 438.888 100.314 438.888L110.057 419.381C102.945 411.158 98.6479 406.783 90.5711 399.543C78.5762 388.79 69.9709 385.183 57.4458 375.076C46.7297 366.429 30.8156 351.932 30.8156 351.932Z" fill="#24161A"/>
<path d="M215.278 430.622C215.278 430.622 245.96 433.265 258.146 446.493C264.173 453.034 269.513 466.33 269.513 466.33C269.513 466.33 295.468 465.872 311.407 461.702C326.399 457.779 348.122 446.493 348.122 446.493C348.122 446.493 348.348 438.401 347.78 433.267C345.933 416.587 331.542 393.592 331.542 393.592C331.542 393.592 300.926 381.628 280.879 383.673C261.289 385.671 248.698 389.383 234.114 402.849C224.525 411.704 215.278 430.622 215.278 430.622Z" fill="#24161A"/>
<path d="M2.23689 449.799C0.938435 453.105 1.99655 457.917 4.83495 461.702C8.53506 466.635 19.5573 466.992 19.5573 466.992C19.5573 466.992 23.9091 469.141 26.9185 469.637C30.9377 470.298 37.3108 468.79 37.3108 468.79C37.3108 468.79 61.4611 470.716 75.6323 465.669C81.7364 463.495 86.2805 463.321 90.5711 458.395C93.3559 455.198 95.4425 448.642 95.4425 448.642C95.4425 448.642 61.5692 450.886 40.5584 446.493C29.2778 444.134 12.3044 437.896 12.3044 437.896C12.3044 437.896 3.53534 446.493 2.23689 449.799Z" fill="#24161A"/>
<path d="M280.879 486.168C281.443 488.95 279.581 493.442 280.879 497.41C282.178 501.377 314.654 506.006 314.654 506.006L337.387 503L349.728 501.369L364.667 499.393C364.667 499.393 373.761 496.087 367.915 486.168C362.068 476.249 348.429 458.395 348.429 458.395C348.429 458.395 329.145 470.617 315.304 474.266C300.123 478.267 275.196 476.249 275.196 476.249C275.196 476.249 279.989 481.776 280.879 486.168Z" fill="#24161A"/>
<path fill-rule="evenodd" clip-rule="evenodd" d="M113.954 66.2672C108.419 71.7385 104.898 76.2673 104.86 84.1212C104.84 88.3802 105.23 91.0971 107.459 94.7014C110.382 99.4293 119.15 102.637 119.15 102.637L130.192 101.975C130.192 101.975 140.418 98.0314 144.481 92.7176C146.433 90.1644 148.378 85.4438 148.378 85.4438C148.378 85.4438 148.586 78.348 147.079 74.2023C144.711 67.6856 141.74 63.5178 135.388 60.9771C130.194 58.8997 126.258 58.8121 121.098 60.9771C117.98 62.2858 116.495 63.7535 114.117 66.1055L113.954 66.2672ZM132.79 83.46L133.439 88.0888L127.594 80.1537L128.243 73.541L131.491 70.896H136.037L141.233 74.2023L141.883 79.4924L139.285 85.4438V80.1537L137.986 78.8311L136.037 78.1699L133.439 80.1537L132.79 83.46Z" fill="black"/>
<path fill-rule="evenodd" clip-rule="evenodd" d="M176.957 70.2347C174.995 75.2764 175.252 78.9835 176.957 84.1212C179.196 90.8703 183.118 94.0052 189.298 97.3465C194.57 100.197 198.366 101.757 204.236 100.653C210.674 99.4419 215.266 96.8455 217.876 90.7338C219.899 85.9974 219.204 82.4934 217.876 77.5086C216.07 70.7287 213.195 66.904 207.484 62.9609C204.287 60.753 202.182 59.7508 198.391 58.9933C194.906 58.297 192.735 58.0841 189.298 58.9933C183.039 60.649 179.339 64.1139 176.957 70.2347ZM180.854 78.1699L182.802 81.4762L186.7 76.8474L189.298 78.1699L191.246 80.8149L189.298 84.7825L189.947 87.4275L195.143 82.1375V72.8798L191.246 68.9122H187.349L182.802 72.8798L180.854 78.1699Z" fill="black"/>
<path d="M148.378 100.653L160.719 111.894L161.368 117.846C161.368 117.846 158.328 120.473 155.632 121.551L163.012 118.999L168.858 120.005L164.616 117.846L163.966 111.894L175.658 100.653V98.0077L170.462 94.7014H155.523L148.378 98.669V100.653Z" fill="black"/>
<path d="M233.465 48.4131C233.465 48.4131 238.096 35.2208 237.362 26.5915L237.354 26.4961C236.859 20.6844 236.545 16.9901 233.465 12.0437C229.47 5.62927 225.289 1.6535 217.876 0.802272C210.528 -0.041539 205.021 2.24783 200.339 8.07615C198.185 10.7582 196.442 16.0113 196.442 16.0113C196.442 16.0113 205.683 23.0942 211.381 27.914C220.358 35.507 233.465 48.4131 233.465 48.4131Z" fill="black"/>
<path d="M123.696 17.9951C123.696 17.9951 116.313 10.036 110.057 8.07615C104.238 6.25348 99.8149 5.11268 94.4682 8.07615C90.8417 10.0862 87.5757 12.4543 85.375 16.0113C81.9954 21.4739 82.3838 25.438 82.7769 31.8816C83.213 39.029 90.5711 48.4131 90.5711 48.4131C90.5711 48.4131 98.3091 40.1634 103.561 35.1879C111.075 28.0705 123.696 17.9951 123.696 17.9951Z" fill="black"/>
<path fill-rule="evenodd" clip-rule="evenodd" d="M246.455 129.087C246.455 129.087 252.89 117.896 254.249 109.91C255.814 100.719 254.322 95.2041 252.301 86.105C248.723 69.9965 233.465 48.4131 233.465 48.4131C233.465 48.4131 220.358 35.507 211.381 27.914C205.683 23.0942 196.442 16.0113 196.442 16.0113C196.442 16.0113 179.005 8.81513 167.214 8.07615C155.72 7.35581 148.985 8.5722 137.986 12.0437C132.227 13.8613 123.696 17.9951 123.696 17.9951C123.696 17.9951 111.075 28.0705 103.561 35.1879C98.3091 40.1634 90.5711 48.4131 90.5711 48.4131C90.5711 48.4131 82.6454 61.1887 79.5294 70.2347C74.7088 84.2293 71.9607 93.4191 74.9827 107.927C76.8169 116.732 83.9579 129.087 83.9579 129.087L87.3236 137.022L116.552 159.505L144.481 168.101H180.854L211.381 156.86L246.455 129.087ZM104.86 84.1212C104.898 76.2673 108.419 71.7385 113.954 66.2672L114.117 66.1055C116.495 63.7535 117.98 62.2858 121.098 60.9771C126.258 58.8121 130.194 58.8997 135.388 60.9771C141.74 63.5178 144.711 67.6856 147.079 74.2023C148.586 78.348 148.378 85.4438 148.378 85.4438C148.378 85.4438 146.433 90.1644 144.481 92.7176C140.418 98.0314 130.192 101.975 130.192 101.975L119.15 102.637C119.15 102.637 110.382 99.4293 107.459 94.7014C105.23 91.0971 104.84 88.3802 104.86 84.1212ZM176.957 84.1212C175.252 78.9835 174.995 75.2764 176.957 70.2347C179.339 64.1139 183.039 60.649 189.298 58.9933C192.735 58.0841 194.906 58.297 198.391 58.9933C202.182 59.7508 204.287 60.753 207.484 62.9609C213.195 66.904 216.07 70.7287 217.876 77.5086C219.204 82.4934 219.899 85.9974 217.876 90.7338C215.266 96.8455 210.674 99.4419 204.236 100.653C198.366 101.757 194.57 100.197 189.298 97.3465C183.118 94.0052 179.196 90.8703 176.957 84.1212ZM160.719 111.894L148.378 100.653V98.669L155.523 94.7014H170.462L175.658 98.0077V100.653L163.966 111.894L164.616 117.846L168.858 120.005L172.41 121.813H178.905L185.401 117.846C185.401 117.846 187.694 114.37 188.648 113.878C189.603 113.386 188.546 113.938 188.546 113.938L185.401 117.846L178.905 121.813H172.41L168.858 120.005L163.012 118.999L155.632 121.551C155.375 121.653 155.121 121.742 154.873 121.813C151.943 122.652 150.008 122.658 147.079 121.813C145.846 121.457 144.486 120.49 143.194 119.33C141.881 118.41 140.928 117.676 140.928 117.676C140.928 117.676 139.59 116.693 137.986 113.878C136.821 111.835 139.769 116.257 143.194 119.33C144.346 120.138 145.775 121.089 147.079 121.813H154.873L155.632 121.551C158.328 120.473 161.368 117.846 161.368 117.846L160.719 111.894Z" fill="#FDF7D8"/>
<path d="M287.375 276.548L284.127 244.147C284.127 244.147 274.956 245.041 269.188 244.147C257.076 242.268 251.25 236.818 241.259 229.599C228.826 220.615 228.269 212.406 213.979 201.165C199.69 189.923 181.503 183.31 165.915 180.665C150.327 178.02 135.34 181.644 116.552 186.617C98.8184 191.31 89.0089 195.335 73.0342 204.471L58.7448 237.534C58.7448 237.534 52.991 257.939 53.5487 271.258C53.9217 280.166 57.4458 293.741 57.4458 293.741L67.8381 302.036L75.898 308.469L83.9579 314.902L97.7158 318.53L116.552 323.498H126.944H142.532H165.915C165.915 323.498 168.691 323.626 170.462 323.498C174.901 323.176 181.503 320.63 181.503 320.63L200.339 315.738L217.227 311.352L234.114 306.966L256.198 297.709L267.24 293.08C267.24 293.08 267.243 293.079 267.249 293.077C267.543 293.001 274.57 291.158 278.281 288.451C282.983 285.021 287.375 276.548 287.375 276.548Z" fill="#FDF7D8"/>
<path d="M182.802 81.4762L180.854 78.1699L182.802 72.8798L187.349 68.9122H191.246L195.143 72.8798V82.1375L189.947 87.4275L189.298 84.7825L191.246 80.8149L189.298 78.1699L186.7 76.8474L182.802 81.4762Z" fill="#FAF8ED"/>
<path d="M133.439 88.0888L132.79 83.46L133.439 80.1537L136.037 78.1699L137.986 78.8311L139.285 80.1537V85.4438L141.883 79.4924L141.233 74.2023L136.037 70.896H131.491L128.243 73.541L127.594 80.1537L133.439 88.0888Z" fill="#FAF8ED"/>
<path d="M53.5487 329.449L30.8156 351.932C30.8156 351.932 46.7297 366.429 57.4458 375.076C69.9709 385.183 78.5762 388.79 90.5711 399.543C98.6479 406.783 102.945 411.158 110.057 419.381L165.915 402.849L215.278 430.622C215.278 430.622 224.525 411.704 234.114 402.849C248.698 389.383 261.289 385.671 280.879 383.673C300.926 381.628 331.542 393.592 331.542 393.592C331.542 393.592 331.758 387.54 331.542 383.673C329.806 352.587 291.921 314.902 291.921 314.902L279.58 319.555L267.24 324.208L250.352 330.576L239.31 334.739L232.973 336.469L211.381 342.361L196.442 346.438L176.307 351.932H154.873H133.439C132.488 351.903 131.556 351.749 130.648 351.492L114.928 349.012L96.4168 346.093L87.3236 344.658L78.2303 340.564L69.1371 336.469L53.5487 329.449Z" fill="#C75600"/>
<path d="M57.4458 293.741C57.4458 293.741 48.8366 300.606 47.0535 306.966C44.5862 315.767 53.5487 329.449 53.5487 329.449L69.1371 336.469C69.1371 336.469 62.3172 329.346 60.6934 323.498C59.2443 318.279 58.4327 314.522 60.6934 309.611C62.4031 305.898 67.8381 302.036 67.8381 302.036L57.4458 293.741Z" fill="#DD5A06"/>
<path d="M142.532 323.498L176.307 351.932L196.442 346.438C196.442 346.438 186.166 340.94 180.204 336.469C174.185 331.954 165.915 323.498 165.915 323.498H142.532Z" fill="#DD5A06"/>
<path d="M126.944 323.498C126.944 323.498 132.955 333.385 137.986 338.707C143.755 344.811 147.599 347.821 154.873 351.932H176.307L142.532 323.498H126.944Z" fill="#C75600"/>
<path d="M60.6934 323.498C62.3172 329.346 69.1371 336.469 69.1371 336.469L78.2303 340.564C78.2303 340.564 70.4282 331.831 69.1371 324.82C68.4359 321.013 67.583 318.437 69.1371 314.902C70.6132 311.543 75.898 308.469 75.898 308.469L67.8381 302.036C67.8381 302.036 62.4031 305.898 60.6934 309.611C58.4327 314.522 59.2443 318.279 60.6934 323.498Z" fill="#DD5A06"/>
<path d="M83.9579 314.902L75.898 308.469C75.898 308.469 70.6132 311.543 69.1371 314.902C67.583 318.437 68.4359 321.013 69.1371 324.82C70.4282 331.831 78.2303 340.564 78.2303 340.564L87.3236 344.658L96.4168 346.093C96.4168 346.093 90.079 338.867 87.3236 333.417C84.8638 328.551 82.4021 325.65 82.7769 320.192C82.9221 318.078 83.4967 316.967 83.9579 314.902Z" fill="#DD5A06"/>
<path d="M87.3236 333.417C90.079 338.867 96.4168 346.093 96.4168 346.093L114.928 349.012C106.423 345.037 101.889 339.839 99.0148 330.772C97.5645 326.196 97.7158 318.53 97.7158 318.53L83.9579 314.902C83.4967 316.967 82.9221 318.078 82.7769 320.192C82.4021 325.65 84.8638 328.551 87.3236 333.417Z" fill="#DD5A06"/>
<path d="M116.552 323.498L97.7158 318.53C97.7158 318.53 97.5645 326.196 99.0148 330.772C101.889 339.839 106.423 345.037 114.928 349.012L130.648 351.492C121.622 348.936 114.898 336.129 114.603 332.756C114.278 329.042 115.791 327.113 116.552 323.498Z" fill="#DD5A06"/>
<path d="M116.552 323.498C115.791 327.113 114.278 329.042 114.603 332.756C114.898 336.129 121.622 348.936 130.648 351.492L133.439 351.932H154.873C147.599 347.821 143.755 344.811 137.986 338.707C132.955 333.385 126.944 323.498 126.944 323.498H116.552Z" fill="#DD5A06"/>
<path d="M170.462 323.498C168.691 323.626 165.915 323.498 165.915 323.498C165.915 323.498 174.185 331.954 180.204 336.469C186.166 340.94 196.442 346.438 196.442 346.438L211.381 342.361C211.381 342.361 206.531 336.593 202.937 333.417C195.611 326.942 181.503 320.63 181.503 320.63C181.503 320.63 174.901 323.176 170.462 323.498Z" fill="#DD5A06"/>
<path d="M181.503 320.63C181.503 320.63 195.611 326.942 202.937 333.417C206.531 336.593 211.381 342.361 211.381 342.361L232.973 336.469C232.973 336.469 225.767 331.763 221.124 328.788C213.053 323.617 208.456 320.834 200.339 315.738L181.503 320.63Z" fill="#DD5A06"/>
<path d="M200.339 315.738C208.456 320.834 213.053 323.617 221.124 328.788C225.767 331.763 232.973 336.469 232.973 336.469L239.31 334.739L250.352 330.576C250.352 330.576 241.789 322.617 235.413 318.869C228.775 314.967 224.329 314.288 217.227 311.352L200.339 315.738Z" fill="#DD5A06"/>
<path d="M234.114 306.966L217.227 311.352C224.329 314.288 228.775 314.967 235.413 318.869C241.789 322.617 250.352 330.576 250.352 330.576L267.24 324.208C267.24 324.208 259.57 314.826 252.95 311.352C246.243 307.832 241.47 308.679 234.114 306.966Z" fill="#DD5A06"/>
<path d="M234.114 306.966C241.47 308.679 246.243 307.832 252.95 311.352C259.57 314.826 267.24 324.208 267.24 324.208L279.58 319.555C279.58 319.555 276.402 309.444 271.786 304.983C266.93 300.289 256.198 297.709 256.198 297.709L234.114 306.966Z" fill="#DD5A06"/>
<path d="M291.921 314.902C291.921 314.902 301.03 302.465 299.715 293.741C298.477 285.521 287.375 276.548 287.375 276.548C287.375 276.548 282.983 285.021 278.281 288.451C274.57 291.158 267.543 293.001 267.249 293.077L267.24 293.08L256.198 297.709C256.198 297.709 266.93 300.289 271.786 304.983C276.402 309.444 279.58 319.555 279.58 319.555L291.921 314.902Z" fill="#DD5A06"/>
<path d="M57.4458 438.557C43.1727 435.841 22.3719 425.993 22.3719 425.993L12.3044 437.896C12.3044 437.896 29.2778 444.134 40.5584 446.493C61.5692 450.886 95.4425 448.642 95.4425 448.642L100.314 438.888C100.314 438.888 73.9022 441.689 57.4458 438.557Z" fill="#D05607"/>
<path d="M311.407 461.702C295.468 465.872 269.513 466.33 269.513 466.33L275.196 476.249C275.196 476.249 300.123 478.267 315.304 474.266C329.145 470.617 348.429 458.395 348.429 458.395L348.122 446.493C348.122 446.493 326.399 457.779 311.407 461.702Z" fill="#D05607"/>
</g>
<path d="M53.5487 329.449L30.8156 351.932M53.5487 329.449C53.5487 329.449 44.5862 315.767 47.0535 306.966C48.8366 300.606 57.4458 293.741 57.4458 293.741M53.5487 329.449L69.1371 336.469M30.8156 351.932C30.8156 351.932 9.47824 372.94 8.73205 390.285C8.08899 405.233 22.3719 425.993 22.3719 425.993M30.8156 351.932C30.8156 351.932 46.7297 366.429 57.4458 375.076C69.9709 385.183 78.5762 388.79 90.5711 399.543C98.6479 406.783 102.945 411.158 110.057 419.381M22.3719 425.993C22.3719 425.993 43.1727 435.841 57.4458 438.557C73.9022 441.689 100.314 438.888 100.314 438.888M22.3719 425.993L12.3044 437.896M110.057 419.381C131.871 412.925 165.915 402.849 165.915 402.849M110.057 419.381C106.252 426.999 100.314 438.888 100.314 438.888M110.057 419.381L100.314 438.888M110.057 419.381L165.915 402.849M165.915 402.849L215.278 430.622M165.915 402.849C165.915 402.849 142.564 397.142 128.893 390.285C120.112 385.882 115.558 382.655 107.459 377.06C95.9524 369.112 79.5294 354.577 79.5294 354.577M215.278 430.622C215.278 430.622 245.96 433.265 258.146 446.493C264.173 453.034 269.513 466.33 269.513 466.33M215.278 430.622C215.278 430.622 224.525 411.704 234.114 402.849C248.698 389.383 261.289 385.671 280.879 383.673C300.926 381.628 331.542 393.592 331.542 393.592M314.654 506.006C314.654 506.006 282.178 501.377 280.879 497.41C279.581 493.442 281.443 488.95 280.879 486.168C279.989 481.776 275.196 476.249 275.196 476.249M314.654 506.006C314.654 506.006 311.004 501.099 310.757 497.41C310.544 494.223 312.706 489.475 312.706 489.475M314.654 506.006L337.387 503M348.429 458.395C348.429 458.395 362.068 476.249 367.915 486.168C373.761 496.087 364.667 499.393 364.667 499.393L349.728 501.369M348.429 458.395L348.122 446.493M348.429 458.395C348.429 458.395 329.145 470.617 315.304 474.266C300.123 478.267 275.196 476.249 275.196 476.249M331.542 393.592C331.542 393.592 345.933 416.587 347.78 433.267C348.348 438.401 348.122 446.493 348.122 446.493M331.542 393.592C331.542 393.592 331.758 387.54 331.542 383.673C329.806 352.587 291.921 314.902 291.921 314.902M291.921 314.902C291.921 314.902 301.03 302.465 299.715 293.741C298.477 285.521 287.375 276.548 287.375 276.548M291.921 314.902L279.58 319.555M287.375 276.548L284.127 244.147M287.375 276.548C287.375 276.548 282.983 285.021 278.281 288.451C274.57 291.158 267.543 293.001 267.249 293.077M284.127 244.147C284.127 244.147 306.536 244.127 319.85 239.518C333.524 234.784 341.58 230.855 351.677 220.341C363.572 207.954 371.162 180.665 371.162 180.665M284.127 244.147C284.127 244.147 269.604 237.575 261.394 231.583C251.626 224.453 239.31 209.761 239.31 209.761M284.127 244.147C284.127 244.147 274.956 245.041 269.188 244.147C257.076 242.268 251.25 236.818 241.259 229.599C228.826 220.615 228.269 212.406 213.979 201.165C199.69 189.923 181.503 183.31 165.915 180.665C150.327 178.02 135.34 181.644 116.552 186.617C98.8184 191.31 89.0089 195.335 73.0342 204.471M371.162 180.665C371.162 180.665 383.432 171.337 383.503 162.811C383.558 156.228 376.358 147.602 376.358 147.602M371.162 180.665H364.667M376.358 147.602C376.358 147.602 372.237 148.87 369.863 150.247C366.228 152.357 361.878 157.521 361.878 157.521M376.358 147.602L362.351 137.022M354.275 168.101C354.275 168.101 355.755 163.747 357.522 161.489C358.945 159.672 361.878 157.521 361.878 157.521M354.275 168.101C354.275 168.101 354.395 173.44 356.223 176.037C358.405 179.135 364.667 180.665 364.667 180.665M354.275 168.101L350.702 165.456M364.667 180.665C364.667 180.665 358.902 186.484 354.275 188.601C350.009 190.552 347.253 190.971 342.584 191.246C334.536 191.719 328.967 191.445 322.449 186.617C318.22 183.485 316.298 180.821 314.005 176.037C310.429 168.578 308.768 162.471 312.056 154.876C313.021 152.647 315.304 149.586 315.304 149.586M315.304 149.586C315.304 149.586 319.556 151.861 322.449 152.892C325.41 153.948 330.243 154.876 330.243 154.876M315.304 149.586L315.953 142.643M330.243 154.876L338.037 149.586L339.661 144.296M330.243 154.876C330.243 154.876 335.128 155.664 338.037 156.86C341.951 158.47 347.13 162.811 347.13 162.811L350.702 165.456M336.521 132.393L334.14 129.087C334.14 129.087 329.307 128.371 326.346 129.087C321.897 130.163 318.447 131.439 316.603 135.7C315.524 138.192 315.953 142.643 315.953 142.643M336.521 132.393C336.521 132.393 341.072 135.811 341.284 139.006C341.428 141.165 339.661 144.296 339.661 144.296M336.521 132.393C336.521 132.393 341.178 129.479 344.532 129.087C349.24 128.537 352.058 130.093 356.223 132.393C358.843 133.84 362.351 137.022 362.351 137.022M362.351 137.022C362.351 137.022 356.49 139.714 354.275 142.974C352.586 145.459 351.951 147.238 351.677 150.247M351.677 150.247C351.296 156.187 350.702 165.456 350.702 165.456M351.677 150.247C346.984 147.923 339.661 144.296 339.661 144.296M351.677 150.247C355.661 153.088 361.878 157.521 361.878 157.521M351.677 150.247L361.878 157.521M351.677 150.247L350.702 165.456M351.677 150.247L339.661 144.296M315.953 142.643L292.571 147.602L246.455 129.087M246.455 129.087C246.455 129.087 252.89 117.896 254.249 109.91C255.814 100.719 254.322 95.2041 252.301 86.105C248.723 69.9965 233.465 48.4131 233.465 48.4131M246.455 129.087L211.381 156.86L180.854 168.101H144.481L116.552 159.505L87.3236 137.022L83.9579 129.087M233.465 48.4131C233.465 48.4131 238.096 35.2208 237.362 26.5915M233.465 48.4131C233.465 48.4131 220.358 35.507 211.381 27.914C205.683 23.0942 196.442 16.0113 196.442 16.0113M237.362 26.5915L237.354 26.4961M237.362 26.5915C237.359 26.5596 237.356 26.5278 237.354 26.4961M196.442 16.0113C196.442 16.0113 198.185 10.7582 200.339 8.07615C205.021 2.24783 210.528 -0.041539 217.876 0.802272C225.289 1.6535 229.47 5.62927 233.465 12.0437C236.545 16.9901 236.859 20.6844 237.354 26.4961M196.442 16.0113C196.442 16.0113 179.005 8.81513 167.214 8.07615C155.72 7.35581 148.985 8.5722 137.986 12.0437C132.227 13.8613 123.696 17.9951 123.696 17.9951M123.696 17.9951C123.696 17.9951 116.313 10.036 110.057 8.07615C104.238 6.25348 99.8149 5.11268 94.4682 8.07615C90.8417 10.0862 87.5757 12.4543 85.375 16.0113C81.9954 21.4739 82.3838 25.438 82.7769 31.8816C83.213 39.029 90.5711 48.4131 90.5711 48.4131M123.696 17.9951C123.696 17.9951 111.075 28.0705 103.561 35.1879C98.3091 40.1634 90.5711 48.4131 90.5711 48.4131M90.5711 48.4131C90.5711 48.4131 82.6454 61.1887 79.5294 70.2347C74.7088 84.2293 71.9607 93.4191 74.9827 107.927C76.8169 116.732 83.9579 129.087 83.9579 129.087M83.9579 129.087L62.6419 132.393M62.6419 132.393C62.6419 132.393 59.3183 124.008 54.8477 121.152C51.0957 118.754 48.164 117.698 43.8059 118.507C39.6528 119.278 36.868 120.763 34.7127 124.458C32.2522 128.677 34.7127 137.022 34.7127 137.022M62.6419 132.393C62.6419 132.393 53.0678 129.176 47.0535 130.41C41.7146 131.504 34.7127 137.022 34.7127 137.022M62.6419 132.393L71.0856 146.28M34.7127 137.022C34.7127 137.022 20.5599 141.296 13.9282 147.602C4.80017 156.283 2.09972 164.697 0.937854 177.359C-0.252413 190.33 1.9781 198.696 8.73205 209.761C15.6745 221.135 22.7517 226.012 34.7127 231.583C43.496 235.673 58.7448 237.534 58.7448 237.534M58.7448 237.534C58.7448 237.534 67.4538 217.383 73.0342 204.471M58.7448 237.534C58.7448 237.534 52.991 257.939 53.5487 271.258C53.9217 280.166 57.4458 293.741 57.4458 293.741M58.7448 237.534L73.0342 204.471M73.0342 204.471C73.0342 194.4 73.0342 178.682 73.0342 178.682M73.0342 204.471V178.682M71.0856 146.28C71.0856 146.28 80.976 153.051 80.8284 159.505C80.7006 165.09 73.0342 171.408 73.0342 171.408V178.682M71.0856 146.28L67.1885 152.892M67.1885 152.892C67.1885 152.892 62.4448 148.764 58.7448 147.602C54.3818 146.233 47.0535 147.602 47.0535 147.602M67.1885 152.892C67.1885 152.892 71.2667 162.124 68.4876 166.779C66.6957 169.78 61.3429 172.069 61.3429 172.069M61.3429 172.069C59.821 178.267 58.9677 181.742 57.4458 187.939M61.3429 172.069C61.3429 172.069 54.3685 160.448 47.0535 159.505C42.1096 158.868 38.7133 159.786 34.7127 162.811C28.8499 167.245 25.9905 173.584 28.2175 180.665C30.1388 186.774 34.4863 189.534 40.5584 191.246C47.0306 193.07 55.9239 194.137 57.4458 187.939M61.3429 172.069L57.4458 187.939M52.2497 199.181C52.2497 199.181 59.421 194.899 63.2914 191.246C67.7941 186.995 73.0342 178.682 73.0342 178.682M57.4458 293.741L67.8381 302.036M133.439 351.932C141.81 351.932 146.503 351.932 154.873 351.932M133.439 351.932H154.873M133.439 351.932C132.488 351.903 131.556 351.749 130.648 351.492M133.439 351.932C132.455 351.777 131.53 351.631 130.648 351.492M133.439 351.932L130.648 351.492M176.307 351.932C167.937 351.932 163.244 351.932 154.873 351.932M176.307 351.932C163.117 340.828 155.722 334.602 142.532 323.498M176.307 351.932C184.171 349.786 196.442 346.438 196.442 346.438M176.307 351.932L196.442 346.438M176.307 351.932H154.873M176.307 351.932L142.532 323.498M83.9579 314.902C80.8103 312.389 75.898 308.469 75.898 308.469M83.9579 314.902C83.4967 316.967 82.9221 318.078 82.7769 320.192C82.4021 325.65 84.8638 328.551 87.3236 333.417C90.079 338.867 96.4168 346.093 96.4168 346.093M83.9579 314.902C89.3307 316.319 97.7158 318.53 97.7158 318.53M83.9579 314.902L75.898 308.469M83.9579 314.902L97.7158 318.53M116.552 323.498C109.196 321.558 97.7158 318.53 97.7158 318.53M116.552 323.498C115.791 327.113 114.278 329.042 114.603 332.756C114.898 336.129 121.622 348.936 130.648 351.492M116.552 323.498C120.61 323.498 126.944 323.498 126.944 323.498M116.552 323.498L97.7158 318.53M116.552 323.498H126.944M234.114 306.966C227.519 308.679 223.822 309.639 217.227 311.352M234.114 306.966C241.47 308.679 246.243 307.832 252.95 311.352C259.57 314.826 267.24 324.208 267.24 324.208M234.114 306.966C242.738 303.351 256.198 297.709 256.198 297.709M234.114 306.966L217.227 311.352M234.114 306.966L256.198 297.709M100.314 438.888L95.4425 448.642M12.3044 437.896C12.3044 437.896 3.53534 446.493 2.23689 449.799C0.938435 453.105 1.99655 457.917 4.83495 461.702C8.53506 466.635 19.5573 466.992 19.5573 466.992M12.3044 437.896C12.3044 437.896 29.2778 444.134 40.5584 446.493C61.5692 450.886 95.4425 448.642 95.4425 448.642M95.4425 448.642C95.4425 448.642 93.3559 455.198 90.5711 458.395C86.2805 463.321 81.7364 463.495 75.6323 465.669C61.4611 470.716 37.3108 468.79 37.3108 468.79M24.3204 449.799C24.3204 449.799 18.8926 453.391 17.8253 457.073C16.7315 460.846 19.5573 466.992 19.5573 466.992M19.5573 466.992C19.5573 466.992 23.9091 469.141 26.9185 469.637C30.9377 470.298 37.3108 468.79 37.3108 468.79M37.3108 451.783C37.3108 451.783 33.3544 455.301 32.7642 458.395C31.9321 462.758 37.3108 468.79 37.3108 468.79M269.513 466.33C269.513 466.33 295.468 465.872 311.407 461.702C326.399 457.779 348.122 446.493 348.122 446.493M269.513 466.33L275.196 476.249M332.191 487.491C332.191 487.491 336.368 491.409 337.387 494.765C338.321 497.837 337.387 503 337.387 503M337.387 503L349.728 501.369M345.182 483.523C345.182 483.523 349.611 488.691 350.378 492.781C350.997 496.085 349.728 501.369 349.728 501.369M113.954 66.2672C108.419 71.7385 104.898 76.2673 104.86 84.1212C104.84 88.3802 105.23 91.0971 107.459 94.7014C110.382 99.4293 119.15 102.637 119.15 102.637L130.192 101.975C130.192 101.975 140.418 98.0314 144.481 92.7176C146.433 90.1644 148.378 85.4438 148.378 85.4438C148.378 85.4438 148.586 78.348 147.079 74.2023C144.711 67.6856 141.74 63.5178 135.388 60.9771C130.194 58.8997 126.258 58.8121 121.098 60.9771C117.98 62.2858 116.495 63.7535 114.117 66.1055M113.954 66.2672L114.117 66.1055M113.954 66.2672C114.009 66.2128 114.063 66.1589 114.117 66.1055M154.873 121.813C151.943 122.652 150.008 122.658 147.079 121.813M154.873 121.813C154.873 121.813 150.123 121.813 147.079 121.813M154.873 121.813L155.632 121.551M154.873 121.813C155.121 121.742 155.375 121.653 155.632 121.551M154.873 121.813H147.079M147.079 121.813C145.846 121.457 144.486 120.49 143.194 119.33M147.079 121.813C145.775 121.089 144.346 120.138 143.194 119.33M168.858 120.005L163.012 118.999L155.632 121.551M168.858 120.005L172.41 121.813M168.858 120.005L164.616 117.846M172.41 121.813H178.905L185.401 117.846M172.41 121.813L164.616 117.846M185.401 117.846L188.546 113.938C188.546 113.938 189.603 113.386 188.648 113.878C187.694 114.37 185.401 117.846 185.401 117.846ZM164.616 117.846L163.966 111.894L175.658 100.653V98.0077L170.462 94.7014H155.523L148.378 98.669V100.653L160.719 111.894L161.368 117.846C161.368 117.846 158.328 120.473 155.632 121.551M69.1371 336.469C69.1371 336.469 62.3172 329.346 60.6934 323.498C59.2443 318.279 58.4327 314.522 60.6934 309.611C62.4031 305.898 67.8381 302.036 67.8381 302.036M69.1371 336.469L78.2303 340.564M67.8381 302.036L75.898 308.469M75.898 308.469C75.898 308.469 70.6132 311.543 69.1371 314.902C67.583 318.437 68.4359 321.013 69.1371 324.82C70.4282 331.831 78.2303 340.564 78.2303 340.564M78.2303 340.564L87.3236 344.658L96.4168 346.093M96.4168 346.093C96.4168 346.093 107.699 347.872 114.928 349.012M96.4168 346.093L114.928 349.012M97.7158 318.53C97.7158 318.53 97.5645 326.196 99.0148 330.772C101.889 339.839 106.423 345.037 114.928 349.012M114.928 349.012L130.648 351.492M114.928 349.012C121.173 349.997 125.048 350.609 130.648 351.492M126.944 323.498C126.944 323.498 132.955 333.385 137.986 338.707C143.755 344.811 147.599 347.821 154.873 351.932M126.944 323.498H142.532M142.532 323.498H165.915M165.915 323.498C165.915 323.498 168.691 323.626 170.462 323.498C174.901 323.176 181.503 320.63 181.503 320.63M165.915 323.498C165.915 323.498 174.185 331.954 180.204 336.469C186.166 340.94 196.442 346.438 196.442 346.438M196.442 346.438L211.381 342.361M181.503 320.63C181.503 320.63 195.611 326.942 202.937 333.417C206.531 336.593 211.381 342.361 211.381 342.361M181.503 320.63C181.503 320.63 192.983 317.649 200.339 315.738M181.503 320.63L200.339 315.738M211.381 342.361L232.973 336.469M200.339 315.738C208.456 320.834 213.053 323.617 221.124 328.788C225.767 331.763 232.973 336.469 232.973 336.469M200.339 315.738C206.934 314.025 210.632 313.065 217.227 311.352M200.339 315.738L217.227 311.352M232.973 336.469L239.31 334.739L250.352 330.576M217.227 311.352C224.329 314.288 228.775 314.967 235.413 318.869C241.789 322.617 250.352 330.576 250.352 330.576M250.352 330.576L267.24 324.208M267.24 324.208L279.58 319.555M256.198 297.709C256.198 297.709 266.93 300.289 271.786 304.983C276.402 309.444 279.58 319.555 279.58 319.555M256.198 297.709L267.24 293.08M284.127 301.015C282.351 298.174 282.264 295.709 279.58 293.741C275.741 290.926 267.567 292.995 267.249 293.077M267.24 293.08C267.24 293.08 267.243 293.079 267.249 293.077M267.24 293.08L267.249 293.077M143.194 119.33C141.881 118.41 140.928 117.676 140.928 117.676C140.928 117.676 139.59 116.693 137.986 113.878C136.821 111.835 139.769 116.257 143.194 119.33ZM176.957 70.2347C174.995 75.2764 175.252 78.9835 176.957 84.1212C179.196 90.8703 183.118 94.0052 189.298 97.3465C194.57 100.197 198.366 101.757 204.236 100.653C210.674 99.4419 215.266 96.8455 217.876 90.7338C219.899 85.9974 219.204 82.4934 217.876 77.5086C216.07 70.7287 213.195 66.904 207.484 62.9609C204.287 60.753 202.182 59.7508 198.391 58.9933C194.906 58.297 192.735 58.0841 189.298 58.9933C183.039 60.649 179.339 64.1139 176.957 70.2347ZM182.802 81.4762L180.854 78.1699L182.802 72.8798L187.349 68.9122H191.246L195.143 72.8798V82.1375L189.947 87.4275L189.298 84.7825L191.246 80.8149L189.298 78.1699L186.7 76.8474L182.802 81.4762ZM133.439 88.0888L132.79 83.46L133.439 80.1537L136.037 78.1699L137.986 78.8311L139.285 80.1537V85.4438L141.883 79.4924L141.233 74.2023L136.037 70.896H131.491L128.243 73.541L127.594 80.1537L133.439 88.0888Z" stroke="black" stroke-width="1.27299"/>
<defs>
<filter id="filter0_i_2863_842" x="0" y="0" width="384.141" height="508.343" filterUnits="userSpaceOnUse" color-interpolation-filters="sRGB">
<feFlood flood-opacity="0" result="BackgroundImageFix"/>
<feBlend mode="normal" in="SourceGraphic" in2="BackgroundImageFix" result="shape"/>
<feColorMatrix in="SourceAlpha" type="matrix" values="0 0 0 0 0 0 0 0 0 0 0 0 0 0 0 0 0 0 127 0" result="hardAlpha"/>
<feOffset dy="1.69412"/>
<feGaussianBlur stdDeviation="6.35294"/>
<feComposite in2="hardAlpha" operator="arithmetic" k2="-1" k3="1"/>
<feColorMatrix type="matrix" values="0 0 0 0 0 0 0 0 0 0 0 0 0 0 0 0 0 0 1 0"/>
<feBlend mode="normal" in2="shape" result="effect1_innerShadow_2863_842"/>
</filter>
</defs>
</svg>
