<svg width="152" height="211" viewBox="0 0 152 211" fill="none" xmlns="http://www.w3.org/2000/svg">
<path d="M136.264 67.0192C134.394 91.3001 103.683 115.581 77.0458 113.997C42.1383 112.942 14.7109 91.4362 14.7109 64.9079C14.7109 38.3795 44.3405 17.9297 77.0458 17.9297C109.751 17.9297 136.264 40.4909 136.264 67.0192Z" fill="#F8780F"/>
<g filter="url(#filter0_f_2864_900)">
<ellipse cx="75.9136" cy="66.2148" rx="51.8824" ry="24.9882" fill="#FFBE0A" fill-opacity="0.8"/>
</g>
<path d="M49.3092 18.5904C48.7411 19.9534 49.3092 22.29 49.3092 22.29C49.3092 22.29 54.2929 21.5687 60.5814 20.8775C61.7946 20.7441 63.0565 20.6119 64.3404 20.4861C68.5963 20.0694 73.0955 19.7243 76.8756 19.6474C80.6961 19.5697 85.1763 19.8628 89.4008 20.2792C92.6046 20.5949 95.6613 20.9816 98.172 21.3312C101.91 21.8517 104.437 22.29 104.437 22.29C104.437 22.29 105.454 18.3985 104.437 16.4764C103.322 14.3691 102.653 14.0312 100.056 13.3052C96.0887 12.1956 89.4008 11.7197 89.4008 11.7197H86.2683H69.979H66.8465C66.8465 11.7197 59.9883 12.2655 56.1958 13.8338C53.0747 15.1244 50.3673 16.0516 49.3092 18.5904Z" fill="#BB2F11"/>
<path d="M69.979 11.7197H86.2683H89.4008C89.4008 11.7197 89.2185 7.80244 87.5263 5.37732C85.8565 2.9843 84.396 1.46761 81.2612 0.620613C78.9311 -0.00895431 77.3262 -0.00895431 74.9961 0.620613C71.8613 1.46761 70.4097 2.98873 68.731 5.37732C66.9278 7.943 66.8465 11.7197 66.8465 11.7197H69.979Z" fill="#BB2F11"/>
<path d="M96.919 117.953H58.7018C58.7018 117.953 56.5578 120.775 56.1958 122.709C55.8524 124.544 55.8228 125.811 56.8223 127.466C57.6897 128.902 58.744 129.666 60.5814 130.109C64.9669 131.166 70.6055 130.813 70.6055 130.813H79.3767H88.1503C88.1503 130.813 92.801 130.713 95.6659 130.109C98.172 129.58 99.0667 129.035 100.052 127.466C101.082 125.824 101.198 124.515 100.683 122.709C100.094 120.643 96.919 117.953 96.919 117.953Z" fill="#BB2F11"/>
<path d="M70.6055 143.322H88.1478H88.1503V139.15H70.6055V143.322Z" fill="#BB2F11"/>
<path d="M79.3767 130.813H70.6055V139.15H88.1503V130.813H79.3767Z" fill="#F8780F"/>
<path d="M70.6055 143.322C70.6055 143.322 67.8718 143.826 66.8465 144.907C65.318 146.519 65.5934 148.078 66.8465 150.193C69.1676 154.109 76.2441 158.12 76.2441 158.12H82.5092C82.5092 158.12 89.0353 153.98 91.2804 150.193C92.5334 148.078 93.1599 146.493 91.2804 144.907C90.2716 144.056 88.1478 143.322 88.1478 143.322H70.6055Z" fill="#F8780F"/>
<path d="M81.8827 169.748H76.2441C76.2441 169.748 72.7752 172.733 71.232 175.033C67.2392 180.985 70.0367 185.659 69.3525 192.474C68.8346 197.632 64.5906 201.441 68.0995 205.687C70.1173 208.129 72.2358 209.066 75.6176 209.916C78.9004 210.741 81.2231 211.019 84.3888 209.916C87.1116 208.966 88.5003 207.813 90.0273 205.687C93.2204 201.243 88.885 197.634 88.1478 192.474C87.1746 185.663 89.0511 181.262 85.6418 175.033C84.4457 172.848 81.8827 169.748 81.8827 169.748Z" fill="#F7630E"/>
<path d="M82.5092 158.12H76.2441C76.2441 158.12 71.998 160.477 71.232 162.877C70.7868 164.272 70.6037 165.233 71.232 166.577C72.1296 168.497 76.2441 169.748 76.2441 169.748H81.8827C81.8827 169.748 85.9972 168.497 86.8948 166.577C87.5231 165.233 87.3162 164.277 86.8948 162.877C86.2083 160.596 82.5092 158.12 82.5092 158.12Z" fill="#FBDE00"/>
<path d="M63.0874 111.61H54.3212C54.3212 111.61 54.1298 114.022 54.9428 115.31C55.8409 116.733 58.7018 117.953 58.7018 117.953H96.919C96.919 117.953 99.9162 116.788 100.683 115.31C101.37 113.986 100.683 111.61 100.683 111.61H94.4167H88.1503H75.6176H63.0874Z" fill="#EE941F"/>
<path d="M54.3212 111.61C54.3212 111.61 37.7724 103.792 29.8873 96.2832C22.5415 89.2882 18.1386 84.7424 15.4776 75.6708C13.2443 68.0572 13.4182 63.2353 15.4776 55.5869C17.5863 47.7553 20.2425 43.401 26.1283 37.0887C33.1471 29.5612 49.3092 22.29 49.3092 22.29M54.3212 111.61C54.3212 111.61 44.1379 101.022 38.6535 93.6406C33.0741 86.1314 30.2647 81.6829 28.0028 73.0283C26.1591 65.9737 25.9794 61.5495 28.0028 54.53C30.0194 47.5342 32.3713 45.0197 37.4005 39.2028C44.8292 30.6106 60.5814 20.8775 60.5814 20.8775M54.3212 111.61H63.0874M54.3212 111.61C54.3212 111.61 54.1298 114.022 54.9428 115.31C55.8409 116.733 58.7018 117.953 58.7018 117.953M49.3092 22.29C49.3092 22.29 48.7411 19.9534 49.3092 18.5904C50.3673 16.0516 53.0747 15.1244 56.1958 13.8338C59.9883 12.2655 66.8465 11.7197 66.8465 11.7197M49.3092 22.29C49.3092 22.29 54.2929 21.5687 60.5814 20.8775M76.8756 19.6474C73.0955 19.7243 68.5963 20.0694 64.3404 20.4861M76.8756 19.6474C76.8756 19.6474 74.3862 22.7782 73.1116 24.9327C67.6096 34.2329 66.9048 50.8303 66.8465 52.4159C66.7881 54.0015 66.2233 64.3729 66.8465 73.0283M76.8756 19.6474C80.6961 19.5697 85.1763 19.8628 89.4008 20.2792M104.437 22.29C104.437 22.29 119.121 30.7465 125.386 38.6743C131.137 45.9522 133.029 47.4838 135.136 55.0585C137.267 62.7181 137.059 65.3409 135.41 73.0845C133.514 81.9883 130.123 87.7661 123.232 94.6977C115.337 102.64 100.683 111.61 100.683 111.61M104.437 22.29C104.437 22.29 105.454 18.3985 104.437 16.4764C103.322 14.3691 102.653 14.0312 100.056 13.3052C96.0887 12.1956 89.4008 11.7197 89.4008 11.7197M104.437 22.29C104.437 22.29 101.91 21.8517 98.172 21.3312M100.683 111.61H94.4167M100.683 111.61C100.683 111.61 101.37 113.986 100.683 115.31C99.9162 116.788 96.919 117.953 96.919 117.953M69.979 11.7197C78.2145 11.7197 81.8827 11.7197 86.2683 11.7197M69.979 11.7197C68.721 11.7197 66.8465 11.7197 66.8465 11.7197M69.979 11.7197H86.2683M69.979 11.7197H66.8465M86.2683 11.7197C90.6539 11.7197 89.4008 11.7197 89.4008 11.7197M86.2683 11.7197H89.4008M66.8465 11.7197C66.8465 11.7197 66.9278 7.943 68.731 5.37732C70.4097 2.98873 71.8613 1.46761 74.9961 0.620613C77.3262 -0.00895431 78.9311 -0.00895431 81.2612 0.620613C84.396 1.46761 85.8565 2.9843 87.5263 5.37732C89.2185 7.80244 89.4008 11.7197 89.4008 11.7197M60.5814 20.8775C61.7946 20.7441 63.0565 20.6119 64.3404 20.4861M64.3404 20.4861C64.3404 20.4861 55.3654 26.0138 51.1837 30.7465C45.2101 37.5072 42.6282 42.5855 40.533 50.8303C38.1221 60.3178 38.7848 66.1769 41.1595 75.6709C42.8387 82.3841 45.1389 85.8775 48.6777 92.0551C53.3155 100.151 63.0874 111.61 63.0874 111.61M63.0874 111.61H75.6176M75.6176 111.61H88.1503M75.6176 111.61C75.6176 111.61 72.9523 103.424 70.5396 93.6406M66.8465 73.0283C67.2893 79.1792 68.8527 86.8005 70.5396 93.6406M66.8465 73.0283L70.5396 93.6406M89.4008 20.2792C89.4008 20.2792 97.1035 31.0767 100.056 38.6743C103.227 46.8316 104.062 51.765 104.437 60.3437C104.772 68.0004 104.365 72.3904 102.558 79.8991C100.602 88.0228 98.1497 92.3162 94.4129 99.9829C92.1646 104.596 88.1503 111.61 88.1503 111.61M89.4008 20.2792C92.6046 20.5949 95.6613 20.9816 98.172 21.3312M88.1503 111.61H94.4167M94.4167 111.61C94.4167 111.61 106.675 101.022 111.955 93.6406C116.956 86.6498 118.499 83.0885 120.726 75.1424C123.046 66.8679 123.941 59.2867 123.232 55.0585C121.834 46.7093 119.572 40.8227 113.835 33.9176C108.986 28.0818 98.172 21.3312 98.172 21.3312M58.7018 117.953H96.919M58.7018 117.953C58.7018 117.953 56.5578 120.775 56.1958 122.709C55.8524 124.544 55.8228 125.811 56.8223 127.466C57.6897 128.902 58.744 129.666 60.5814 130.109C64.9669 131.166 70.6055 130.813 70.6055 130.813M96.919 117.953C96.919 117.953 100.094 120.643 100.683 122.709C101.198 124.515 101.082 125.824 100.052 127.466C99.0667 129.035 98.172 129.58 95.6659 130.109C92.801 130.713 88.1503 130.813 88.1503 130.813M79.3767 130.813C75.9513 130.813 70.6055 130.813 70.6055 130.813M79.3767 130.813C82.803 130.813 88.1503 130.813 88.1503 130.813M79.3767 130.813H70.6055M79.3767 130.813H88.1503M70.6055 130.813V139.15M70.6055 143.322C70.6055 143.322 67.8718 143.826 66.8465 144.907C65.318 146.519 65.5934 148.078 66.8465 150.193C69.1676 154.109 76.2441 158.12 76.2441 158.12M70.6055 143.322H88.1478M70.6055 143.322V139.15M88.1503 130.813V139.15M76.2441 158.12H82.5092M76.2441 158.12C76.2441 158.12 71.998 160.477 71.232 162.877C70.7868 164.272 70.6037 165.233 71.232 166.577C72.1296 168.497 76.2441 169.748 76.2441 169.748M82.5092 158.12C82.5092 158.12 89.0353 153.98 91.2804 150.193C92.5334 148.078 93.1599 146.493 91.2804 144.907C90.2716 144.056 88.1478 143.322 88.1478 143.322M82.5092 158.12C82.5092 158.12 86.2083 160.596 86.8948 162.877C87.3162 164.277 87.5231 165.233 86.8948 166.577C85.9972 168.497 81.8827 169.748 81.8827 169.748M88.1478 143.322H88.1503V139.15M81.8827 169.748H76.2441M81.8827 169.748C81.8827 169.748 84.4457 172.848 85.6418 175.033C89.0511 181.262 87.1746 185.663 88.1478 192.474C88.885 197.634 93.2204 201.243 90.0273 205.687C88.5003 207.813 87.1116 208.966 84.3888 209.916C81.2231 211.019 78.9004 210.741 75.6176 209.916C72.2358 209.066 70.1173 208.129 68.0995 205.687C64.5906 201.441 68.8346 197.632 69.3525 192.474C70.0367 185.659 67.2392 180.985 71.232 175.033C72.7752 172.733 76.2441 169.748 76.2441 169.748M70.6055 139.15H88.1503" stroke="black" stroke-width="0.300385"/>
<defs>
<filter id="filter0_f_2864_900" x="0.000450134" y="17.1958" width="151.827" height="98.0382" filterUnits="userSpaceOnUse" color-interpolation-filters="sRGB">
<feFlood flood-opacity="0" result="BackgroundImageFix"/>
<feBlend mode="normal" in="SourceGraphic" in2="BackgroundImageFix" result="shape"/>
<feGaussianBlur stdDeviation="12.0154" result="effect1_foregroundBlur_2864_900"/>
</filter>
</defs>
</svg>
