<svg width="117" height="133" viewBox="0 0 117 133" fill="none" xmlns="http://www.w3.org/2000/svg">
<path d="M72.3242 12.0954C66.2483 11.2971 64.161 10.8683 61.441 10.8683C59.1989 10.8683 50.9819 12.0954 50.9819 12.0954C50.9819 12.0954 45.665 17.2118 43.0309 21.0865C41.2457 23.7123 41.1477 22.369 39.0553 28.1764C36.9629 33.9839 34.5545 69.4647 37.3814 75.7208C40.2083 81.977 45.5417 88.5531 45.5417 88.5531C50.4685 87.1108 59.3515 87.1899 59.3515 87.1899C59.3515 87.1899 67.4882 87.4956 71.2781 88.6796C71.2781 88.6796 74.2 87.0359 75.6721 85.5217C77.5346 83.6057 78.046 82.0755 79.229 79.6826C83.041 71.9725 82.9953 57.9956 82.9953 57.9956V39.2281C82.9953 34.912 83.0198 32.3586 81.9493 28.1764C80.9191 24.1521 76.9275 18.7927 76.9275 18.7927C76.9275 18.7927 74.1218 15.1085 72.3242 12.0954Z" fill="#FD5B01"/>
<path d="M25.0363 86.5643C28.0604 90.2274 35.0798 93.4457 35.0798 93.4457C35.0798 93.4457 39.8998 90.3825 43.2401 89.2752C44.059 89.0037 44.8211 88.7641 45.5417 88.5531C45.5417 88.5531 40.2083 81.977 37.3814 75.7208C34.5545 69.4647 36.9629 33.9839 39.0553 28.1764C41.1477 22.369 41.2457 23.7123 43.0309 21.0865C45.665 17.2118 50.9819 12.0954 50.9819 12.0954L36.9629 14.6221C29.0788 18.0688 24.8316 22.3588 21.4793 30.2617C18.6071 37.0328 18.653 41.0589 18.3348 48.4033C17.9365 57.597 17.6556 64.638 19.5932 73.6352C20.8136 79.3019 21.3415 82.0887 25.0363 86.5643Z" fill="#FD5B01"/>
<path d="M85.7156 15.8733C85.7156 15.8733 77.5538 13.9684 72.3242 12.0954C74.1218 15.1085 76.9275 18.7927 76.9275 18.7927C76.9275 18.7927 80.9191 24.1521 81.9493 28.1764C83.0198 32.3586 82.9953 34.912 82.9953 39.2281V57.9956C82.9953 57.9956 83.041 71.9725 79.229 79.6826C78.046 82.0755 77.5346 83.6057 75.6721 85.5217C74.2 87.0359 71.2781 88.6796 71.2781 88.6796C72.592 89.0901 73.9085 89.6225 75.2536 90.3178C78.6775 92.0876 82.9955 95.9481 82.9955 95.9481C82.9955 95.9481 91.5393 92.5421 95.1313 88.2325C99.2758 83.26 99.3066 78.933 100.572 72.5929C102.372 63.5674 101.827 58.2311 101.827 49.0289V49.0242C101.827 41.6966 101.827 34.4317 100.572 30.2617C99.316 26.0908 85.7156 15.8733 85.7156 15.8733Z" fill="#FD5B01"/>
<path d="M35.0798 99.7016C36.3352 100.953 38.323 101.578 38.323 101.578L41.5662 103.455L42.6124 103.545L49.0988 104.104L58.5145 104.915L67.0933 104.25L77.346 103.455C77.346 103.455 81.7184 102.298 82.8634 100.011C82.8634 100.011 77.0048 96.0427 72.7399 94.4884C69.4614 93.2936 68.2316 93.2034 64.7917 92.6116C59.6383 91.725 50.3542 92.6116 50.3542 92.6116C50.3542 92.6116 44.8503 93.2541 41.5662 94.4884C38.6579 95.5814 34.5545 98.2419 34.5545 98.2419C34.6165 98.8671 34.7734 99.3962 35.0798 99.7016Z" fill="#FD5B01"/>
<path d="M82.9955 95.9481C82.9955 95.9481 78.6775 92.0876 75.2536 90.3178C73.9085 89.6225 72.592 89.0901 71.2781 88.6796C67.4882 87.4956 59.3515 87.1899 59.3515 87.1899C59.3515 87.1899 50.4685 87.1108 45.5417 88.5531C44.8211 88.7641 44.059 89.0037 43.2401 89.2752C39.8998 90.3825 35.0798 93.4457 35.0798 93.4457C35.0798 93.4457 34.3624 96.3054 34.5545 98.2419C34.5545 98.2419 38.6579 95.5814 41.5662 94.4884C44.8503 93.2541 50.3542 92.6116 50.3542 92.6116C50.3542 92.6116 59.6383 91.725 64.7917 92.6116C68.2316 93.2034 69.4614 93.2936 72.7399 94.4884C77.0048 96.0427 82.8634 100.011 82.8634 100.011C82.9139 99.9101 82.9582 99.8069 82.9955 99.7016C83.485 98.3193 82.9955 95.9481 82.9955 95.9481Z" fill="#F9B715"/>
<path d="M41.5662 103.455L38.323 101.578C38.323 101.578 31.7291 119.094 32.9874 121.597C34.2457 124.1 35.1204 125.068 37.3814 125.559C38.9961 125.91 41.5662 124.933 41.5662 124.933L42.6124 103.545L41.5662 103.455Z" fill="#F9B715"/>
<path d="M42.6124 103.545L41.5662 124.933C41.5662 124.933 40.9414 125.976 41.5662 127.436C42.191 128.895 45.5388 129.312 46.3787 128.895C47.2185 128.479 46.6303 126.602 46.6303 126.602L49.0988 104.104L42.6124 103.545Z" fill="#F9B715"/>
<path d="M58.5145 104.915L49.0988 104.104L46.6303 126.602C46.6303 126.602 48.7193 129.666 50.7727 130.564C53.1674 131.61 57.047 131.398 57.4683 130.564C57.8896 129.73 57.4683 128.061 57.4683 128.061L58.5145 104.915Z" fill="#F9B715"/>
<path d="M58.5145 104.915L57.4683 128.061C57.4683 128.061 59.0243 129.946 60.3977 130.564C62.4086 131.468 64.2045 131.773 66.0471 130.564C67.5454 129.58 68.3487 126.602 68.3487 126.602L67.0933 104.25L58.5145 104.915Z" fill="#F9B715"/>
<path d="M77.346 103.455L67.0933 104.25L68.3487 126.602C68.3487 126.602 70.2264 127.298 71.4873 127.436C74.8017 127.798 77.7674 128.27 79.6476 124.933C81.5279 121.597 77.346 103.455 77.346 103.455Z" fill="#F9B715"/>
<path d="M61.441 10.8683C64.161 10.8683 66.2483 11.2971 72.3242 12.0954C77.5538 13.9684 85.7156 15.8733 85.7156 15.8733C85.7156 15.8733 86.7657 11.1048 85.7156 8.36626C83.7885 3.34079 75.2581 2.20807 73.0101 1.90956L72.9519 1.90183C69.8133 1.48452 59.477 0.852094 52.4465 1.90189C45.697 2.90972 39.9217 4.2258 38.4276 6.90656C36.9335 9.58733 37.5349 11.609 36.9629 14.6221L50.9819 12.0954C50.9819 12.0954 59.1989 10.8683 61.441 10.8683Z" fill="#D05607"/>
<path d="M35.0798 93.4457C35.0798 93.4457 28.0604 90.2274 25.0363 86.5643C21.3415 82.0887 20.8136 79.3019 19.5932 73.6352C17.6556 64.638 17.9365 57.597 18.3348 48.4033C18.653 41.0589 18.6071 37.0328 21.4793 30.2617C24.8316 22.3588 29.0788 18.0688 36.9629 14.6221M35.0798 93.4457C35.0798 93.4457 39.8998 90.3825 43.2401 89.2752C44.059 89.0037 44.8211 88.7641 45.5417 88.5531M35.0798 93.4457C35.0798 93.4457 34.3624 96.3054 34.5545 98.2419M36.9629 14.6221C37.5349 11.609 36.9335 9.58733 38.4276 6.90656C39.9217 4.2258 45.697 2.90972 52.4465 1.90189C59.477 0.852094 69.8133 1.48452 72.9519 1.90183M36.9629 14.6221C42.4377 13.6354 50.9819 12.0954 50.9819 12.0954M36.9629 14.6221L50.9819 12.0954M72.3242 12.0954C66.2483 11.2971 64.161 10.8683 61.441 10.8683C59.1989 10.8683 50.9819 12.0954 50.9819 12.0954M72.3242 12.0954C77.5538 13.9684 85.7156 15.8733 85.7156 15.8733M72.3242 12.0954C74.1218 15.1085 76.9275 18.7927 76.9275 18.7927C76.9275 18.7927 80.9191 24.1521 81.9493 28.1764C83.0198 32.3586 82.9953 34.912 82.9953 39.2281M85.7156 15.8733C85.7156 15.8733 86.7657 11.1048 85.7156 8.36626C83.7885 3.34079 75.2581 2.20807 73.0101 1.90956M85.7156 15.8733C85.7156 15.8733 99.316 26.0908 100.572 30.2617C101.827 34.4317 101.827 41.6966 101.827 49.0242M72.9519 1.90183L73.0101 1.90956M72.9519 1.90183C72.9708 1.90434 72.9902 1.90692 73.0101 1.90956M101.827 49.0289C101.827 58.2311 102.372 63.5674 100.572 72.5929C99.3066 78.933 99.2758 83.26 95.1313 88.2325C91.5393 92.5421 82.9955 95.9481 82.9955 95.9481M101.827 49.0289V49.0242M101.827 49.0289C101.827 49.0274 101.827 49.0258 101.827 49.0242M82.9955 95.9481C82.9955 95.9481 78.6775 92.0876 75.2536 90.3178C73.9085 89.6225 72.592 89.0901 71.2781 88.6796M82.9955 95.9481C82.9955 95.9481 83.485 98.3193 82.9955 99.7016C82.9582 99.8069 82.9139 99.9101 82.8634 100.011M58.5145 104.915L49.0988 104.104M58.5145 104.915L57.4683 128.061M58.5145 104.915L67.0933 104.25M77.346 103.455L67.0933 104.25M77.346 103.455C77.346 103.455 81.5279 121.597 79.6476 124.933C77.7674 128.27 74.8017 127.798 71.4873 127.436C70.2264 127.298 68.3487 126.602 68.3487 126.602M77.346 103.455C77.346 103.455 81.7184 102.298 82.8634 100.011M38.323 101.578C38.323 101.578 36.3352 100.953 35.0798 99.7016C34.7734 99.3962 34.6165 98.8671 34.5545 98.2419M38.323 101.578L41.5662 103.455L42.6124 103.545M38.323 101.578C38.323 101.578 31.7291 119.094 32.9874 121.597C34.2457 124.1 35.1204 125.068 37.3814 125.559C38.9961 125.91 41.5662 124.933 41.5662 124.933M41.5662 124.933L42.6124 103.545M41.5662 124.933C41.5662 124.933 40.9414 125.976 41.5662 127.436C42.191 128.895 45.5388 129.312 46.3787 128.895C47.2185 128.479 46.6303 126.602 46.6303 126.602M42.6124 103.545L49.0988 104.104M49.0988 104.104L46.6303 126.602M46.6303 126.602C46.6303 126.602 48.7193 129.666 50.7727 130.564C53.1674 131.61 57.047 131.398 57.4683 130.564C57.8896 129.73 57.4683 128.061 57.4683 128.061M57.4683 128.061C57.4683 128.061 59.0243 129.946 60.3977 130.564C62.4086 131.468 64.2045 131.773 66.0471 130.564C67.5454 129.58 68.3487 126.602 68.3487 126.602M68.3487 126.602L67.0933 104.25M34.5545 98.2419C34.5545 98.2419 38.6579 95.5814 41.5662 94.4884C44.8503 93.2541 50.3542 92.6116 50.3542 92.6116C50.3542 92.6116 59.6383 91.725 64.7917 92.6116C68.2316 93.2034 69.4614 93.2936 72.7399 94.4884C77.0048 96.0427 82.8634 100.011 82.8634 100.011M71.2781 88.6796C67.4882 87.4956 59.3515 87.1899 59.3515 87.1899C59.3515 87.1899 50.4685 87.1108 45.5417 88.5531M71.2781 88.6796C71.2781 88.6796 74.2 87.036 75.6721 85.5217C77.5346 83.6057 78.046 82.0755 79.229 79.6826C83.041 71.9725 82.9953 57.9956 82.9953 57.9956M82.9953 57.9956C82.9953 57.9956 82.9953 46.6387 82.9953 39.2281M82.9953 57.9956V39.2281M50.9819 12.0954C50.9819 12.0954 45.665 17.2118 43.0309 21.0865C41.2457 23.7123 41.1477 22.369 39.0553 28.1764C36.9629 33.9839 34.5545 69.4647 37.3814 75.7208C40.2083 81.977 45.5417 88.5531 45.5417 88.5531" stroke="black" stroke-width="2.65372"/>
<g filter="url(#filter0_f_3138_299)">
<path d="M60.995 22.0234L66.7281 47.9244L95.5307 35.7038L70.2713 59.2493L82.1351 83.059L60.995 66.2485L40.9015 83.059L51.7187 59.2493L21.2266 43.2807L55.2619 47.9244L60.995 22.0234Z" fill="#FBDE00"/>
</g>
<defs>
<filter id="filter0_f_3138_299" x="-0.00320244" y="0.793673" width="116.764" height="103.499" filterUnits="userSpaceOnUse" color-interpolation-filters="sRGB">
<feFlood flood-opacity="0" result="BackgroundImageFix"/>
<feBlend mode="normal" in="SourceGraphic" in2="BackgroundImageFix" result="shape"/>
<feGaussianBlur stdDeviation="10.6149" result="effect1_foregroundBlur_3138_299"/>
</filter>
</defs>
</svg>
