<svg width="237" height="153" viewBox="0 0 237 153" fill="none" xmlns="http://www.w3.org/2000/svg">
<path fill-rule="evenodd" clip-rule="evenodd" d="M137.919 1.08925C137.096 3.25511 134.395 12.302 133.825 14.802C133.509 16.1858 133.265 19.7496 133.283 22.7217L133.315 28.1257L130.629 29.8457C127.071 32.1233 124.695 34.5604 123.006 37.6663C122.185 39.1769 121.275 40.2146 120.77 40.2146C120.303 40.2146 118.924 39.4924 117.708 38.6098C115.04 36.6739 111.299 35.1854 109.079 35.1748C108.183 35.1703 107.198 35.0007 106.89 34.7974C106.061 34.2499 104.492 22.0383 104.856 18.9651C105.045 17.3649 105.751 15.4134 106.684 13.9113C107.52 12.5652 108.204 11.366 108.204 11.2462C108.204 11.126 107.328 11.0278 106.257 11.0278C102.219 11.0278 91.8533 15.2373 85.0426 19.6424C80.8686 22.3422 74.5879 28.7558 72.3171 32.6366C68.7822 38.6782 67.7957 42.4941 67.575 50.9744L67.3804 58.4633L65.6657 54.9151C63.6268 50.6966 60.8703 48.2661 54.402 44.9831C52.0513 43.7894 49.3486 42.2284 48.3962 41.5139C44.5682 38.642 43.5319 40.8164 45.6136 47.3517C47.0034 51.7161 47.0582 54.6565 45.8163 58.2223L45.2626 59.8119L42.8013 58.5639C35.8316 55.0293 27.9952 54.983 19.2043 58.4241C14.1957 60.3851 6.63368 64.3656 6.63368 65.0419C6.63368 65.4112 8.49515 66.4137 10.8257 67.2993C13.1317 68.1759 16.3563 69.7621 17.991 70.8244C20.7766 72.634 31.2791 82.1981 31.2665 82.9137C31.263 83.0929 28.3783 84.1401 24.8555 85.2401C14.1574 88.581 8.57959 88.2559 3.42364 83.9916C2.08663 82.8861 0.791365 81.9818 0.544981 81.9818C-0.367142 81.9818 -0.161005 84.2956 1.36557 91.1952C4.31715 104.532 10.9992 111.87 21.8698 113.713C27.0463 114.59 36.7885 114.019 43.0884 112.469C49.515 110.888 53.2439 109.463 62.9138 104.893C69.9468 101.57 75.1264 99.5944 76.8058 99.5944C77.205 99.5944 77.4796 100.999 77.6259 103.792C77.9125 109.254 78.8855 110.907 85.746 117.585C90.8296 122.532 91.1348 122.743 93.2451 122.743C95.7557 122.743 97.2888 121.469 99.0739 117.904C101.407 113.241 103.568 111.723 110.195 110.083C116.049 108.635 119.986 106.493 122.168 103.569L124.019 101.087L125.363 103.737C126.716 106.403 130.086 109.882 138.313 117.102C141.816 120.176 142.617 120.67 143.25 120.143C143.867 119.631 143.942 118.745 143.658 115.327C143.177 109.549 143.928 106.654 146.648 103.814C147.81 102.6 148.969 101.61 149.224 101.614C149.478 101.617 151.237 102.868 153.131 104.395C157.252 107.714 164.272 111.235 169.8 112.755C173.247 113.703 175.154 113.865 183.125 113.888C191.335 113.912 192.929 113.779 196.701 112.751C204.209 110.705 209.426 107.669 216.06 101.484C220.723 97.1362 222.1 96.3381 227.025 95.1263C229.234 94.5829 230.642 93.9785 230.642 93.5734C230.642 92.7164 222.88 88.5307 217.066 86.2516C210.66 83.7405 210.776 83.8859 213.617 81.9506C216.507 79.9805 226.941 69.3726 226.703 68.6465C226.612 68.3697 224.872 67.9752 222.836 67.7698C216.573 67.1378 208.769 64.7868 208.769 63.5317C208.769 62.798 214.431 59.8411 215.838 59.8406C216.269 59.8401 217.044 59.5311 217.559 59.1542C218.459 58.4955 218.448 58.4366 217.278 57.6853C215.241 56.3764 204.23 52.868 200.221 52.2495C195.33 51.4957 189.685 51.9828 184.571 53.5997C182.341 54.3047 180.449 54.8084 180.366 54.7189C180.283 54.6293 179.968 52.2481 179.664 49.4275C178.102 34.8981 169.747 23.8645 154.392 16.0535C150.975 14.3149 147.5 12.3302 146.67 11.6428C144.429 9.78588 142.008 6.16372 140.81 2.87267C139.693 -0.190933 138.65 -0.835057 137.919 1.08925ZM138.363 5.26245C136.341 10.5704 135.198 15.6826 134.994 20.3374C134.719 26.6065 135.154 27.4846 138.149 26.7087C139.24 26.4264 141.887 26.0394 144.03 25.8486C146.174 25.6584 147.927 25.4174 147.927 25.3132C147.927 25.2086 146.778 23.7064 145.374 21.9754C142.765 18.7593 140.559 15.0531 141.255 15.0546C141.467 15.0551 142.297 16.0927 143.097 17.3604C143.897 18.628 145.965 21.0656 147.693 22.7775C150.459 25.5185 151.284 26.0228 154.603 27C161.383 28.9963 163.764 31.7263 167.842 42.1806C168.857 44.7843 170.564 48.7864 171.636 51.074C173.317 54.6655 173.791 55.2794 175.106 55.5688C177.772 56.1545 178.24 55.2548 177.98 50.0455C177.576 41.9562 173.819 34.0833 167.035 27.1067C162.832 22.7856 160.309 21.0464 152.139 16.8415C145.005 13.17 143.339 11.7635 140.909 7.35936L138.931 3.77392L138.363 5.26245ZM99.7577 14.3174C84.0344 19.6777 72.3176 31.0605 69.7336 43.4855C68.9356 47.3235 68.7289 54.591 69.4062 55.0097C69.6385 55.1536 73.2513 52.2194 77.4343 48.49C84.0847 42.5606 85.1089 41.4409 85.5901 39.578C87.1338 33.6053 89.2784 29.4396 93.3593 24.489C97.0078 20.0616 98.0048 20.0621 94.4841 24.489C89.745 30.4491 87.0855 35.6524 87.0855 38.9666C87.0855 39.9297 87.17 40.7178 87.2736 40.7178C87.3772 40.7178 88.4517 40.1652 89.662 39.4899C92.1746 38.0875 100.552 35.1824 102.083 35.1824C102.644 35.1824 103.484 34.8019 103.948 34.3375C104.867 33.4181 104.856 33.2188 103.443 25.2383C102.687 20.9689 102.684 20.3178 103.412 17.4751C103.849 15.7682 104.455 14.0723 104.758 13.7065C105.611 12.6789 103.98 12.8782 99.7577 14.3174ZM139.128 27.9984C133.949 29.2731 127.834 33.2737 125.367 37.0005C122.995 40.5849 122.573 42.6818 123.581 45.8758C124.04 47.3291 124.597 50.8954 124.819 53.8015C125.042 56.7076 125.385 60.2744 125.583 61.7272L125.943 64.3691H124.088C122.056 64.3691 119.845 63.4135 118.727 62.0518C117.386 60.4188 113.56 58.3305 111.909 58.3305C109.836 58.3305 107.753 59.1195 106.347 60.4379C105.36 61.3634 105.318 61.5848 105.95 62.5504C106.339 63.1442 107.912 64.3912 109.447 65.3217C111.782 66.7377 112.976 67.0885 116.763 67.4684C119.252 67.7185 122.692 68.3601 124.408 68.8945C126.593 69.5754 127.629 69.7007 127.869 69.3132C128.057 69.0088 128.484 66.5853 128.818 63.9267C129.656 57.2646 130.948 52.5203 133.032 48.4492C135.461 43.7049 136.29 42.5656 140.209 38.5922C144.813 33.9233 150.386 31.0444 154.401 31.2603C157.378 31.4203 158.807 32.6663 156.014 32.6663C155.162 32.6663 154.464 32.8781 154.464 33.1368C154.464 33.6853 160.561 39.1709 162.171 40.0711C163.456 40.7897 165.526 40.912 165.526 40.2694C165.526 40.0228 164.77 38.721 163.847 37.3759C162.521 35.4456 161.832 34.8976 160.578 34.7733C158.836 34.6001 158.527 33.9817 159.821 33.2565C160.29 32.9944 160.525 32.4584 160.361 32.0287C159.947 30.9498 155.212 28.7482 152.007 28.1443C149.283 27.6311 141.001 27.5375 139.128 27.9984ZM147.663 34.9036C138.168 39.6469 130.461 53.485 129.64 67.2626C129.435 70.6976 130.017 71.543 130.505 68.5206C131.021 65.3232 134.073 59.7707 137.489 55.8144C139.281 53.7386 141.684 50.5899 142.829 48.8171C144.526 46.1898 144.91 45.8265 144.91 46.852C144.91 48.3622 142.048 52.9042 137.932 57.9269C134.569 62.0306 132.352 66.3221 132.345 68.7421L132.34 70.3473L134.916 67.6209C136.334 66.1213 139.264 63.498 141.429 61.7916C143.944 59.8089 145.566 58.1246 145.922 57.1257C146.229 56.2662 146.613 53.1287 146.776 50.1531C146.939 47.1776 147.245 44.7435 147.456 44.7435C148.176 44.7435 148.539 48.887 148.188 53.107C147.993 55.4525 148.032 57.324 148.277 57.324C148.52 57.324 150.067 56.8012 151.716 56.1621C153.642 55.4148 154.776 54.671 154.89 54.0793C154.987 53.573 154.092 51.1052 152.901 48.5957C150.896 44.3742 150.713 43.6435 150.462 38.8367L150.19 33.6415L147.663 34.9036ZM152.404 36.8178C152.243 42.2254 153.068 45.6876 155.551 50.0273C157.993 54.2946 157.568 54.0944 164.143 54.0828L170.051 54.0722L170.047 52.8046C170.043 51.4278 168.037 47.7397 166.024 45.4093C165.33 44.6051 163.407 42.9531 161.75 41.7373C160.094 40.521 157.529 38.5489 156.052 37.3543C154.575 36.1596 153.161 35.1824 152.909 35.1824C152.658 35.1824 152.43 35.9181 152.404 36.8178ZM99.1533 37.5027C91.7281 39.5835 84.3436 44.2323 75.9796 52.0895C71.3808 56.4102 70.6336 57.3497 69.8402 59.8084C66.1032 71.3865 63.1023 74.9025 54.6026 77.6586C53.1917 78.116 51.6078 78.81 51.0828 79.2005C50.1516 79.8934 50.1551 79.9382 51.2311 81.0297C52.1714 81.9838 53.1348 82.2092 57.7678 82.5584C66.6749 83.2297 74.9353 82.0356 81.5529 79.1195C88.0218 76.2692 92.243 72.9183 99.0779 65.209C104.971 58.5619 107.638 56.8017 111.893 56.7509C113.506 56.7312 115.376 57.0754 116.461 57.5902C117.47 58.0698 118.424 58.335 118.579 58.179C118.735 58.023 117.087 56.1032 114.916 53.9122C110.474 49.428 108.05 48.2661 103.139 48.2661C94.8878 48.2661 87.5517 53.2394 78.272 65.1239C72.2015 72.8992 67.5709 77.1987 61.8035 80.4178C57.7337 82.6888 57.889 81.2566 61.987 78.7249C66.3043 76.0584 70.8458 71.6547 76.7917 64.3691C86.4514 52.5329 92.3602 48.0728 100.114 46.764C106.278 45.7233 111.759 47.6949 116.127 52.5243C118.914 55.6065 121.278 59.2242 121.278 60.4077C121.278 61.1585 123.091 62.2666 123.511 61.773C123.928 61.2839 122.722 49.3399 122.052 47.321C120.961 44.033 117.342 40.0742 113.877 38.3778C111.5 37.2139 110.269 36.9602 106.472 36.8546C103.537 36.7725 100.936 37.003 99.1533 37.5027ZM46.3568 43.4065C46.3568 43.7784 46.8093 45.3992 47.3624 47.008C48.5803 50.5507 48.6336 54.0742 47.5555 59.8009C46.4413 65.7217 46.8405 70.1667 48.7945 73.5931C50.2089 76.074 50.3678 76.1892 52.2062 76.0704C54.4669 75.9245 58.2802 74.7007 59.6067 73.6953C60.4997 73.0189 60.4841 72.9319 59.218 71.5732C57.0976 69.2961 55.9396 66.3457 55.387 61.8127C54.8072 57.0553 53.6477 52.9802 52.4998 51.6628C51.9754 51.0615 51.9251 50.7822 52.3404 50.7822C53.342 50.7822 55.3241 55.8038 55.916 59.8401C56.6144 64.6056 57.1237 66.153 58.7815 68.5478C61.3097 72.1987 62.8761 71.9793 65.0754 67.6672C67.0802 63.736 65.3962 56.1218 61.5536 51.7418C60.6586 50.7218 57.8226 48.8443 54.8168 47.2828C51.9612 45.7993 49.0247 44.1684 48.2906 43.6581C46.7002 42.553 46.3568 42.5082 46.3568 43.4065ZM190.907 53.7954C188.044 54.2166 182.852 55.6568 181.404 56.4318C180.535 56.8968 180.66 57.0578 182.628 58.0175C185.615 59.4733 186.064 60.3443 184.991 62.5977C184.039 64.596 183.84 67.3884 184.651 67.3884C184.937 67.3884 186.997 66.3513 189.229 65.0842C195.264 61.6567 205.249 58.0391 205.249 59.279C205.249 59.5105 203.382 60.3267 201.101 61.0936C195.564 62.954 187.069 67.5509 183.958 70.37C183.171 71.0825 181.841 73.0245 181.003 74.6851C180.164 76.3457 179.054 78.3052 178.536 79.0399C178.018 79.7746 177.594 80.5858 177.594 80.8425C177.594 81.5415 188.653 79.6468 191.366 78.4829C194.911 76.9622 197.449 74.6675 201.337 69.4692C205.826 63.4668 208.107 61.1988 211.266 59.5971C212.658 58.891 213.797 58.2228 213.797 58.1121C213.797 57.5676 202.517 54.2463 199.215 53.8181C194.996 53.2711 194.48 53.2696 190.907 53.7954ZM159.687 55.7917C149.72 57.3396 139.574 63.8407 132.608 73.1432C130.213 76.3407 126.625 83.4965 125.535 87.248C124.31 91.465 124.667 98.4587 126.28 101.859C127.404 104.227 136.593 114.125 137.15 113.567C137.277 113.44 136.827 112.082 136.15 110.551C131.205 99.3604 133.649 88.6187 143.348 78.9121C147.695 74.5618 160.446 66.162 161.342 67.0588C161.505 67.2228 160.905 67.7603 160.006 68.2534C156.555 70.147 148.422 75.7886 146.132 77.878C138.191 85.1223 134.152 94.1637 135.36 101.993C135.648 103.857 136.126 106.061 136.424 106.891C137.348 109.469 141.093 116.704 141.503 116.704C141.718 116.704 141.893 114.975 141.893 112.862C141.893 107.036 142.56 105.418 146.645 101.331C150.024 97.9494 153 95.9355 164.509 89.2417C169.66 86.2466 176.695 79.5084 179.061 75.3055C180.088 73.4814 181.081 70.5833 181.735 67.5056C183.343 59.9342 183.467 60.364 179.217 58.7854C172.009 56.1077 164.783 55.0001 159.687 55.7917ZM27.2495 57.8695C25.7284 58.1322 23.692 58.5947 22.724 58.8966C20.31 59.6504 10.1535 64.4526 10.1535 64.8401C10.1535 65.0127 11.3301 65.6 12.7687 66.1455C16.9919 67.7467 22.2338 71.465 28.0158 76.9606C34.6827 83.2982 37.9999 85.062 43.894 85.4036C47.9045 85.6356 52.3987 85.2064 52.3801 84.593C52.3741 84.4023 51.4695 83.6092 50.3703 82.8312C48.2912 81.3588 47.375 79.3494 48.1926 78.0526C48.5325 77.5137 48.1127 76.1842 46.7203 73.3893C45.0444 70.0258 44.5019 69.3716 42.828 68.7018C39.7044 67.4508 35.0266 66.8932 27.6266 66.8892C23.1293 66.8867 20.7128 66.7 20.7128 66.3558C20.7128 65.6307 37.6066 66.2717 41.5749 67.1479C44.7201 67.8418 45.326 67.6299 45.3436 65.8279C45.3722 62.8031 41.9998 59.4431 37.8384 58.3511C34.8813 57.5751 30.187 57.3618 27.2495 57.8695ZM96.2621 70.3176C92.598 74.0968 89.5996 77.3612 89.5996 77.5721C89.5996 77.7834 89.9048 77.956 90.2784 77.956C90.6515 77.956 91.9192 78.6535 93.0948 79.5059L95.2323 81.0553L97.6253 80.0252C98.9411 79.4591 101.69 78.7279 103.734 78.4008C108.494 77.639 108.894 77.3169 108.515 74.5502C108.021 70.9436 104.365 63.2434 103.224 63.4049C103.059 63.4286 99.9261 66.539 96.2621 70.3176ZM167.16 64.113C166.262 64.504 165.526 65.0429 165.526 65.3106C165.526 65.9713 169.077 64.9966 170.033 64.0732C170.677 63.4522 170.645 63.3652 169.782 63.3823C169.239 63.3933 168.059 63.722 167.16 64.113ZM204.025 68.7395C202.763 70.3488 201.73 71.9491 201.73 72.2948C201.729 72.7608 203.328 72.9394 207.889 72.9832C215.115 73.0531 213.712 73.7783 206.172 73.8709L201.313 73.9303L197.756 76.5722C195.8 78.0255 194.197 79.3434 194.193 79.5014C194.19 79.6594 195.936 80.0605 198.074 80.3931C200.212 80.7257 202.9 81.4524 204.046 82.0079C206.036 82.9721 206.242 82.9807 208.546 82.1977C209.874 81.7468 211.881 80.8047 213.007 80.1048C215.036 78.8437 223.351 70.6578 223.351 69.9221C223.351 69.7118 222.137 69.3973 220.654 69.2226C219.171 69.048 216.06 68.3616 213.74 67.6969C206 65.4792 206.636 65.4113 204.025 68.7395ZM108.204 67.323C108.204 67.632 109.862 69.6861 111.888 71.8882C114.215 74.4179 115.789 76.618 116.162 77.8629C117.547 82.49 116.39 88.6313 113.194 93.6162C112.324 94.9724 109.296 97.9882 106.252 100.529C98.9386 106.634 96.163 110.527 96.155 114.691C96.1494 117.759 96.8529 118.041 98.3085 115.555C100.827 111.255 102.528 110.301 112.792 107.437C116.5 106.403 120.212 103.84 121.416 101.485C122.59 99.1863 123.164 95.5687 122.354 95.5687C122.044 95.5687 120.301 96.5892 118.481 97.8362C116.661 99.0832 113.302 100.996 111.016 102.088C108.731 103.18 106.569 104.424 106.213 104.853C105.421 105.809 104.684 105.864 104.684 104.966C104.684 103.884 106.696 102.344 110.718 100.345C116.21 97.6173 121.075 94.2558 122.212 92.4044C122.758 91.5152 123.367 89.8823 123.566 88.7752C123.765 87.6681 124.576 85.1148 125.368 83.1009C127.133 78.6132 127.176 77.9615 125.677 78.3229C123.393 78.8739 121.882 80.996 119.99 86.3125C118.117 91.5741 117.089 93.5573 116.528 92.9957C116.359 92.8267 116.772 91.5817 117.447 90.2285C118.121 88.8759 118.942 86.7513 119.273 85.5073C120.583 80.5763 122.885 77.8106 126.238 77.1393C127.077 76.9712 128.15 76.4061 128.622 75.8832C129.443 74.9759 129.392 74.8466 127.482 73.029C125.207 70.8626 123.04 70.0856 118.009 69.6312C114.418 69.3072 109.963 68.1563 108.833 67.2601C108.408 66.9234 108.204 66.9441 108.204 67.323ZM109.928 73.8674C110.086 74.8013 110.215 75.8611 110.215 76.2219C110.215 77.2772 111.695 78.4592 113.017 78.4592C114.834 78.4592 114.524 77.3506 111.94 74.6081L109.642 72.169L109.928 73.8674ZM84.143 79.7349C79.0162 82.1684 73.1995 83.9946 70.5733 83.9946C68.5831 83.9946 68.3911 84.0988 68.6369 85.0408C68.8552 85.8747 68.7395 86.013 68.0672 85.7222C66.9349 85.232 60.296 84.4702 59.9732 84.7932C59.4231 85.3438 60.906 86.8152 63.2044 87.9987C66.3445 89.6161 70.866 89.9316 74.7417 88.8039C76.9008 88.1759 78.0075 88.0934 79.2063 88.4698C83.0001 89.6624 83.5426 89.4823 88.7308 85.306C91.4209 83.1407 93.6222 81.2964 93.6222 81.2078C93.6222 80.847 89.0018 77.957 88.4431 77.9681C88.1113 77.9746 86.1764 78.7697 84.143 79.7349ZM104.182 79.7918C97.8339 80.9703 91.6356 84.5512 86.2031 90.1782C81.5434 95.0051 79.3511 99.3846 79.3617 103.846C79.3662 105.761 79.697 107.519 80.2531 108.584C81.287 110.565 84.8293 114.524 86.2458 115.283C87.1891 115.788 87.2183 115.662 86.9684 112.166C86.2729 102.439 90.5299 97.0597 103.176 91.6863C108.755 89.3162 110.434 88.3465 112.604 86.244C115.847 83.1019 116.157 81.3402 113.609 80.5405C111.638 79.9216 105.926 79.4677 104.182 79.7918ZM182.045 82.2475C180.206 82.6601 177.378 83.582 175.76 84.2951C172.208 85.8601 165.064 90.5647 165.04 91.3542C165.031 91.6657 165.73 92.0618 166.595 92.2349C169.567 92.8297 179.145 92.5494 183.02 91.7538C189.195 90.4867 201.588 85.2648 202.079 83.7234C202.628 81.9964 187.969 80.9165 182.045 82.2475ZM198.357 87.7633C186.648 93.0798 180.831 94.5622 171.679 94.5622C167.106 94.5622 158.38 95.4998 157.814 96.0518C157.582 96.2777 159.279 96.6209 161.585 96.8152C163.891 97.0089 168.719 97.7481 172.314 98.4577C179.633 99.9024 189.534 100.225 193.866 99.1597C195.21 98.829 199.47 97.3018 203.332 95.7654C210.134 93.0596 216.438 91.626 215.605 92.9741C215.408 93.2941 214.637 93.5588 213.893 93.5624C213.149 93.5659 210.051 94.6095 207.009 95.8812C191.948 102.177 187.048 102.738 173.118 99.7555C165.5 98.1245 156.454 97.654 153.835 98.752C152.799 99.1873 151.95 99.8752 151.95 100.281C151.95 101.58 156.546 105.122 161.231 107.435C170.178 111.85 181.737 113.602 191.17 111.971C200.813 110.303 206.685 107.486 213.19 101.407C219.246 95.7468 220.183 95.1636 226.368 93.2061C228.017 92.6842 216.277 87.4331 209.67 85.7378L205.292 84.6146L198.357 87.7633ZM30.5178 85.3503C29.9647 85.4776 27.1363 86.3341 24.2325 87.2525C21.3287 88.1714 17.9904 89.0792 16.8138 89.2709C14.3143 89.678 14.4556 90.2552 17.3806 91.5842C20.6952 93.0908 26.2127 92.8548 36.0137 90.7881C45.4965 88.7883 51.298 88.5256 58.3899 89.7751C60.722 90.1858 62.7393 90.4117 62.8736 90.2773C63.0078 90.143 62.7971 90.0292 62.4054 90.0242C62.0132 90.0192 60.6747 89.3147 59.4302 88.4582L57.1675 86.9017L50.3236 87.2132C44.0594 87.4986 43.0683 87.418 38.6268 86.2632C33.8792 85.0283 32.5558 84.8793 30.5178 85.3503ZM2.36268 87.7129C3.46739 94.8717 6.30235 101.688 9.71753 105.396C14.434 110.516 19.5643 112.383 28.7579 112.324C39.6878 112.253 47.2573 110.28 60.7556 103.982C69.192 100.046 71.493 99.1285 76.1491 97.8463C80.2491 96.7175 80.1123 95.5687 75.8776 95.5687C71.8042 95.5687 68.2015 96.5248 60.4358 99.6669C51.0175 103.477 46.7063 104.651 39.4968 105.365C32.8464 106.024 21.5263 103.253 13.7406 99.062C7.77259 95.849 3.08929 92.0462 5.10109 92.0462C5.36457 92.0462 7.00478 93.038 8.74656 94.2498C13.0834 97.2676 17.3051 99.3172 23.6437 101.48C28.8525 103.258 29.2301 103.313 36.5517 103.34C45.7051 103.375 47.9301 102.875 59.9632 98.0873C69.5405 94.2764 69.1905 94.8476 63.2014 92.8025C54.6051 89.8672 46.9717 89.6569 37.3059 92.0879C25.5836 95.0368 17.5153 94.5904 13.909 90.7936C12.8129 89.6392 11.7705 89.1063 10.1952 88.895C8.99092 88.7334 6.66383 87.9359 5.02412 87.1222L2.04339 85.6437L2.36268 87.7129ZM110.735 89.836C109.223 90.778 106.085 92.2676 103.761 93.1457C94.732 96.556 89.3 101.791 88.3008 108.046C87.9157 110.457 88.9153 117.017 89.9069 118.584C90.9014 120.155 92.8217 121.316 93.8028 120.939C94.4539 120.689 94.6279 119.913 94.6279 117.263C94.6279 109.783 96.7584 106.085 104.959 99.3358C110.175 95.0423 112.873 91.8927 113.509 89.3559C113.693 88.6212 113.763 88.0435 113.664 88.0717C113.565 88.0999 112.247 88.894 110.735 89.836ZM76.0576 90.3186C75.1088 90.7307 72.6515 91.2103 70.5969 91.3839L66.862 91.6999L69.8085 92.6203C73.9995 93.9297 79.5009 93.8779 81.2352 92.5126C82.9915 91.1303 82.9086 90.229 80.9888 89.8446C78.7598 89.3982 78.0111 89.4707 76.0576 90.3186ZM64.207 91.0397C65.5893 91.634 66.3833 91.634 65.4641 91.0397C65.0493 90.7715 64.3704 90.5642 63.9556 90.5798C63.4583 90.5979 63.5438 90.7544 64.207 91.0397ZM161.38 92.9751C159.343 93.8754 158.775 94.8536 160.624 94.2774C163.155 93.4879 164.018 93.0521 164.018 92.562C164.018 91.9043 163.685 91.9566 161.38 92.9751Z" fill="black"/>
<path fill-rule="evenodd" clip-rule="evenodd" d="M159.687 55.7917C149.72 57.3396 139.574 63.8407 132.608 73.1432C130.213 76.3407 126.625 83.4965 125.535 87.248C124.31 91.465 124.667 98.4587 126.28 101.859C127.404 104.227 136.593 114.125 137.15 113.567C137.277 113.44 136.827 112.082 136.15 110.551C131.205 99.3604 133.649 88.6187 143.348 78.9121C147.695 74.5618 160.446 66.162 161.342 67.0588C161.505 67.2228 160.905 67.7603 160.006 68.2534C156.555 70.147 148.422 75.7886 146.132 77.878C138.191 85.1223 134.152 94.1637 135.36 101.993C135.648 103.857 136.126 106.061 136.424 106.891C137.348 109.469 141.093 116.704 141.503 116.704C141.718 116.704 141.893 114.975 141.893 112.862C141.893 107.036 142.56 105.418 146.645 101.331C150.024 97.9494 153 95.9355 164.509 89.2417C169.66 86.2466 176.695 79.5084 179.061 75.3055C180.088 73.4814 181.081 70.5833 181.735 67.5056C183.343 59.9342 183.467 60.364 179.217 58.7854C172.009 56.1077 164.783 55.0001 159.687 55.7917ZM165.526 65.3106C165.526 65.0429 166.262 64.504 167.16 64.113C168.059 63.722 169.239 63.3933 169.782 63.3823C170.645 63.3652 170.677 63.4522 170.033 64.0732C169.077 64.9966 165.526 65.9713 165.526 65.3106Z" fill="#FFB2CC"/>
<path d="M190.907 53.7954C188.044 54.2166 182.852 55.6568 181.404 56.4318C180.535 56.8968 180.66 57.0578 182.628 58.0175C185.615 59.4733 186.064 60.3443 184.991 62.5977C184.039 64.596 183.84 67.3884 184.651 67.3884C184.937 67.3884 186.997 66.3513 189.229 65.0842C195.264 61.6567 205.249 58.0391 205.249 59.279C205.249 59.5105 203.382 60.3267 201.101 61.0936C195.564 62.954 187.069 67.5509 183.958 70.37C183.171 71.0825 181.841 73.0245 181.003 74.6851C180.164 76.3457 179.054 78.3052 178.536 79.0399C178.018 79.7746 177.594 80.5858 177.594 80.8425C177.594 81.5415 188.653 79.6468 191.366 78.4829C194.911 76.9622 197.449 74.6675 201.337 69.4692C205.826 63.4668 208.107 61.1988 211.266 59.5971C212.658 58.891 213.797 58.2228 213.797 58.1121C213.797 57.5676 202.517 54.2463 199.215 53.8181C194.996 53.2711 194.48 53.2696 190.907 53.7954Z" fill="#FFB2CC"/>
<path d="M204.025 68.7395C202.763 70.3488 201.73 71.9491 201.73 72.2948C201.729 72.7608 203.328 72.9394 207.889 72.9832C215.115 73.0531 213.712 73.7783 206.172 73.8709L201.313 73.9303L197.756 76.5722C195.8 78.0255 194.197 79.3434 194.193 79.5014C194.19 79.6594 195.936 80.0605 198.074 80.3931C200.212 80.7257 202.9 81.4524 204.046 82.0079C206.036 82.9721 206.242 82.9807 208.546 82.1977C209.874 81.7468 211.881 80.8047 213.007 80.1048C215.036 78.8437 223.351 70.6578 223.351 69.9221C223.351 69.7118 222.137 69.3973 220.654 69.2226C219.171 69.048 216.06 68.3616 213.74 67.6969C206 65.4792 206.636 65.4113 204.025 68.7395Z" fill="#FFB2CC"/>
<path d="M198.357 87.7633C186.648 93.0798 180.831 94.5622 171.679 94.5622C167.106 94.5622 158.38 95.4998 157.814 96.0518C157.582 96.2777 159.279 96.6209 161.585 96.8152C163.891 97.0089 168.719 97.7481 172.314 98.4577C179.633 99.9024 189.534 100.225 193.866 99.1597C195.21 98.829 199.47 97.3018 203.332 95.7654C210.134 93.0596 216.438 91.626 215.605 92.9741C215.408 93.2941 214.637 93.5588 213.893 93.5624C213.149 93.5659 210.051 94.6095 207.009 95.8812C191.948 102.177 187.048 102.738 173.118 99.7555C165.5 98.1245 156.454 97.654 153.835 98.752C152.799 99.1873 151.95 99.8752 151.95 100.281C151.95 101.58 156.546 105.122 161.231 107.435C170.178 111.85 181.737 113.602 191.17 111.971C200.813 110.303 206.685 107.486 213.19 101.407C219.246 95.7468 220.183 95.1636 226.368 93.2061C228.017 92.6842 216.277 87.4331 209.67 85.7378L205.292 84.6146L198.357 87.7633Z" fill="#FFB2CC"/>
<path d="M108.204 67.323C108.204 67.632 109.862 69.6861 111.888 71.8882C114.215 74.4179 115.789 76.618 116.162 77.8629C117.547 82.49 116.39 88.6313 113.194 93.6162C112.324 94.9724 109.296 97.9882 106.252 100.529C98.9386 106.634 96.163 110.527 96.155 114.691C96.1494 117.759 96.8529 118.041 98.3085 115.555C100.827 111.255 102.528 110.301 112.792 107.437C116.5 106.403 120.212 103.84 121.416 101.485C122.59 99.1863 123.164 95.5687 122.354 95.5687C122.044 95.5687 120.301 96.5892 118.481 97.8362C116.661 99.0832 113.302 100.996 111.016 102.088C108.731 103.18 106.569 104.424 106.213 104.853C105.421 105.809 104.684 105.864 104.684 104.966C104.684 103.884 106.696 102.344 110.718 100.345C116.21 97.6173 121.075 94.2558 122.212 92.4044C122.758 91.5152 123.367 89.8823 123.566 88.7752C123.765 87.6681 124.576 85.1148 125.368 83.1009C127.133 78.6132 127.176 77.9615 125.677 78.3229C123.393 78.8739 121.882 80.996 119.99 86.3125C118.117 91.5741 117.089 93.5573 116.528 92.9957C116.359 92.8267 116.772 91.5817 117.447 90.2285C118.121 88.8759 118.942 86.7513 119.273 85.5073C120.583 80.5763 122.885 77.8106 126.238 77.1393C127.077 76.9712 128.15 76.4061 128.622 75.8832C129.443 74.9759 129.392 74.8466 127.482 73.029C125.207 70.8626 123.04 70.0856 118.009 69.6312C114.418 69.3072 109.963 68.1563 108.833 67.2601C108.408 66.9234 108.204 66.9441 108.204 67.323Z" fill="#FFB2CC"/>
<path d="M110.735 89.836C109.223 90.778 106.085 92.2676 103.761 93.1457C94.732 96.556 89.3 101.791 88.3008 108.046C87.9157 110.457 88.9153 117.017 89.9069 118.584C90.9014 120.155 92.8217 121.316 93.8028 120.939C94.4539 120.689 94.6279 119.913 94.6279 117.263C94.6279 109.783 96.7584 106.085 104.959 99.3358C110.175 95.0423 112.873 91.8927 113.509 89.3559C113.693 88.6212 113.763 88.0435 113.664 88.0717C113.565 88.0999 112.247 88.894 110.735 89.836Z" fill="#FFB2CC"/>
<path d="M104.182 79.7918C97.8339 80.9703 91.6356 84.5512 86.2031 90.1782C81.5434 95.0051 79.3511 99.3846 79.3617 103.846C79.3662 105.761 79.697 107.519 80.2531 108.584C81.287 110.565 84.8293 114.524 86.2458 115.283C87.1891 115.788 87.2183 115.662 86.9684 112.166C86.2729 102.439 90.5299 97.0597 103.176 91.6863C108.755 89.3162 110.434 88.3465 112.604 86.244C115.847 83.1019 116.157 81.3402 113.609 80.5405C111.638 79.9216 105.926 79.4677 104.182 79.7918Z" fill="#FFB2CC"/>
<path d="M96.2621 70.3176C92.598 74.0968 89.5996 77.3612 89.5996 77.5721C89.5996 77.7834 89.9048 77.956 90.2784 77.956C90.6515 77.956 91.9192 78.6535 93.0948 79.5059L95.2323 81.0553L97.6253 80.0252C98.9411 79.4591 101.69 78.7279 103.734 78.4008C108.494 77.639 108.894 77.3169 108.515 74.5502C108.021 70.9436 104.365 63.2434 103.224 63.4049C103.059 63.4286 99.9261 66.539 96.2621 70.3176Z" fill="#FFB2CC"/>
<path d="M84.143 79.7349C79.0162 82.1684 73.1995 83.9946 70.5733 83.9946C68.5831 83.9946 68.3911 84.0988 68.6369 85.0408C68.8552 85.8747 68.7395 86.013 68.0672 85.7222C66.9349 85.232 60.296 84.4702 59.9732 84.7932C59.4231 85.3438 60.906 86.8152 63.2044 87.9987C66.3445 89.6161 70.866 89.9316 74.7417 88.8039C76.9008 88.1759 78.0075 88.0934 79.2063 88.4698C83.0001 89.6624 83.5426 89.4823 88.7308 85.306C91.4209 83.1407 93.6222 81.2964 93.6222 81.2078C93.6222 80.847 89.0018 77.957 88.4431 77.9681C88.1113 77.9746 86.1764 78.7697 84.143 79.7349Z" fill="#FFB2CC"/>
<path d="M76.0576 90.3186C75.1088 90.7307 72.6515 91.2103 70.5969 91.3839L66.862 91.6999L69.8085 92.6203C73.9995 93.9297 79.5009 93.8779 81.2352 92.5126C82.9915 91.1303 82.9086 90.229 80.9888 89.8446C78.7598 89.3982 78.0111 89.4707 76.0576 90.3186Z" fill="#FFB2CC"/>
<path d="M99.1533 37.5027C91.7281 39.5835 84.3436 44.2323 75.9796 52.0895C71.3808 56.4102 70.6336 57.3497 69.8402 59.8084C66.1032 71.3865 63.1023 74.9025 54.6026 77.6586C53.1917 78.116 51.6078 78.81 51.0828 79.2005C50.1516 79.8934 50.1551 79.9382 51.2311 81.0297C52.1714 81.9838 53.1348 82.2092 57.7678 82.5584C66.6749 83.2297 74.9353 82.0356 81.5529 79.1195C88.0218 76.2692 92.243 72.9183 99.0779 65.209C104.971 58.5619 107.638 56.8017 111.893 56.7509C113.506 56.7312 115.376 57.0754 116.461 57.5902C117.47 58.0698 118.424 58.335 118.579 58.179C118.735 58.023 117.087 56.1032 114.916 53.9122C110.474 49.428 108.05 48.2661 103.139 48.2661C94.8878 48.2661 87.5517 53.2394 78.272 65.1239C72.2015 72.8992 67.5709 77.1987 61.8035 80.4178C57.7337 82.6888 57.889 81.2566 61.987 78.7249C66.3043 76.0584 70.8458 71.6547 76.7917 64.3691C86.4514 52.5329 92.3602 48.0728 100.114 46.764C106.278 45.7233 111.759 47.6949 116.127 52.5243C118.914 55.6065 121.278 59.2242 121.278 60.4077C121.278 61.1585 123.091 62.2666 123.511 61.773C123.928 61.2839 122.722 49.3399 122.052 47.321C120.961 44.033 117.342 40.0742 113.877 38.3778C111.5 37.2139 110.269 36.9602 106.472 36.8546C103.537 36.7725 100.936 37.003 99.1533 37.5027Z" fill="#FFB2CC"/>
<path d="M99.7577 14.3174C84.0344 19.6777 72.3176 31.0605 69.7336 43.4855C68.9356 47.3235 68.7289 54.591 69.4062 55.0097C69.6385 55.1536 73.2513 52.2194 77.4343 48.49C84.0847 42.5606 85.1089 41.4409 85.5901 39.578C87.1338 33.6053 89.2784 29.4396 93.3593 24.489C97.0078 20.0616 98.0048 20.0621 94.4841 24.489C89.745 30.4491 87.0855 35.6524 87.0855 38.9666C87.0855 39.9297 87.17 40.7178 87.2736 40.7178C87.3772 40.7178 88.4517 40.1652 89.662 39.4899C92.1746 38.0875 100.552 35.1824 102.083 35.1824C102.644 35.1824 103.484 34.8019 103.948 34.3375C104.867 33.4181 104.856 33.2188 103.443 25.2383C102.687 20.9689 102.684 20.3178 103.412 17.4751C103.849 15.7682 104.455 14.0723 104.758 13.7065C105.611 12.6789 103.98 12.8782 99.7577 14.3174Z" fill="#FFB2CC"/>
<path d="M46.3568 43.4065C46.3568 43.7784 46.8093 45.3992 47.3624 47.008C48.5803 50.5507 48.6336 54.0742 47.5555 59.8009C46.4413 65.7217 46.8405 70.1667 48.7945 73.5931C50.2089 76.074 50.3678 76.1892 52.2062 76.0704C54.4669 75.9245 58.2802 74.7007 59.6067 73.6953C60.4997 73.0189 60.4841 72.9319 59.218 71.5732C57.0976 69.2961 55.9396 66.3457 55.387 61.8127C54.8072 57.0553 53.6477 52.9802 52.4998 51.6628C51.9754 51.0615 51.9251 50.7822 52.3404 50.7822C53.342 50.7822 55.3241 55.8038 55.916 59.8401C56.6144 64.6056 57.1237 66.153 58.7815 68.5478C61.3097 72.1987 62.8761 71.9793 65.0754 67.6672C67.0802 63.736 65.3962 56.1218 61.5536 51.7418C60.6586 50.7218 57.8226 48.8443 54.8168 47.2828C51.9612 45.7993 49.0247 44.1684 48.2906 43.6581C46.7002 42.553 46.3568 42.5082 46.3568 43.4065Z" fill="#FFB2CC"/>
<path d="M27.2495 57.8695C25.7284 58.1322 23.692 58.5947 22.724 58.8966C20.31 59.6504 10.1535 64.4526 10.1535 64.8401C10.1535 65.0127 11.3301 65.6 12.7687 66.1455C16.9919 67.7467 22.2338 71.465 28.0158 76.9606C34.6827 83.2982 37.9999 85.062 43.894 85.4036C47.9045 85.6356 52.3987 85.2064 52.3801 84.593C52.3741 84.4023 51.4695 83.6092 50.3703 82.8312C48.2912 81.3588 47.375 79.3494 48.1926 78.0526C48.5325 77.5137 48.1127 76.1842 46.7203 73.3893C45.0444 70.0258 44.5019 69.3716 42.828 68.7018C39.7044 67.4508 35.0266 66.8932 27.6266 66.8892C23.1293 66.8867 20.7128 66.7 20.7128 66.3558C20.7128 65.6307 37.6066 66.2717 41.5749 67.1479C44.7201 67.8418 45.326 67.6299 45.3436 65.8279C45.3722 62.8031 41.9998 59.4431 37.8384 58.3511C34.8813 57.5751 30.187 57.3618 27.2495 57.8695Z" fill="#FFB2CC"/>
<path d="M30.5178 85.3503C29.9647 85.4776 27.1363 86.3341 24.2325 87.2525C21.3287 88.1714 17.9904 89.0792 16.8138 89.2709C14.3143 89.678 14.4556 90.2552 17.3806 91.5842C20.6952 93.0908 26.2127 92.8548 36.0137 90.7881C45.4965 88.7883 51.298 88.5256 58.3899 89.7751C60.722 90.1858 62.7393 90.4117 62.8736 90.2773C63.0078 90.143 62.7971 90.0292 62.4054 90.0242C62.0132 90.0192 60.6747 89.3147 59.4302 88.4582L57.1675 86.9017L50.3236 87.2132C44.0594 87.4986 43.0683 87.418 38.6268 86.2632C33.8792 85.0283 32.5558 84.8793 30.5178 85.3503Z" fill="#FFB2CC"/>
<path d="M2.36268 87.7129C3.46739 94.8717 6.30235 101.688 9.71753 105.396C14.434 110.516 19.5643 112.383 28.7579 112.324C39.6878 112.253 47.2573 110.28 60.7556 103.982C69.192 100.046 71.493 99.1285 76.1491 97.8463C80.2491 96.7175 80.1123 95.5687 75.8776 95.5687C71.8042 95.5687 68.2015 96.5248 60.4358 99.6669C51.0175 103.477 46.7063 104.651 39.4968 105.365C32.8464 106.024 21.5263 103.253 13.7406 99.062C7.77259 95.849 3.08929 92.0462 5.10109 92.0462C5.36457 92.0462 7.00478 93.038 8.74656 94.2498C13.0834 97.2676 17.3051 99.3172 23.6437 101.48C28.8525 103.258 29.2301 103.313 36.5517 103.34C45.7051 103.375 47.9301 102.875 59.9632 98.0873C69.5405 94.2764 69.1905 94.8476 63.2014 92.8025C54.6051 89.8672 46.9717 89.6569 37.3059 92.0879C25.5836 95.0368 17.5153 94.5904 13.909 90.7936C12.8129 89.6392 11.7705 89.1063 10.1952 88.895C8.99092 88.7334 6.66383 87.9359 5.02412 87.1222L2.04339 85.6437L2.36268 87.7129Z" fill="#FFB2CC"/>
<path d="M139.128 27.9984C133.949 29.2731 127.834 33.2737 125.367 37.0005C122.995 40.5849 122.573 42.6818 123.581 45.8758C124.04 47.3291 124.597 50.8954 124.819 53.8015C125.042 56.7076 125.385 60.2744 125.583 61.7272L125.943 64.3691H124.088C122.056 64.3691 119.845 63.4135 118.727 62.0518C117.386 60.4188 113.56 58.3305 111.909 58.3305C109.836 58.3305 107.753 59.1195 106.347 60.4379C105.36 61.3634 105.318 61.5848 105.95 62.5504C106.339 63.1442 107.912 64.3912 109.447 65.3217C111.782 66.7377 112.976 67.0885 116.763 67.4684C119.252 67.7185 122.692 68.3601 124.408 68.8945C126.593 69.5754 127.629 69.7007 127.869 69.3132C128.057 69.0088 128.484 66.5853 128.818 63.9267C129.656 57.2646 130.948 52.5203 133.032 48.4492C135.461 43.7049 136.29 42.5656 140.209 38.5922C144.813 33.9233 150.386 31.0444 154.401 31.2603C157.378 31.4203 158.807 32.6663 156.014 32.6663C155.162 32.6663 154.464 32.8781 154.464 33.1368C154.464 33.6853 160.561 39.1709 162.171 40.0711C163.456 40.7897 165.526 40.912 165.526 40.2694C165.526 40.0228 164.77 38.721 163.847 37.3759C162.521 35.4456 161.832 34.8976 160.578 34.7733C158.836 34.6001 158.527 33.9817 159.821 33.2565C160.29 32.9944 160.525 32.4584 160.361 32.0287C159.947 30.9498 155.212 28.7482 152.007 28.1443C149.283 27.6311 141.001 27.5375 139.128 27.9984Z" fill="#FFB2CC"/>
<path d="M147.663 34.9036C138.168 39.6469 130.461 53.485 129.64 67.2626C129.435 70.6976 130.017 71.543 130.505 68.5206C131.021 65.3232 134.073 59.7707 137.489 55.8144C139.281 53.7386 141.684 50.5899 142.829 48.8171C144.526 46.1898 144.91 45.8265 144.91 46.852C144.91 48.3622 142.048 52.9042 137.932 57.9269C134.569 62.0306 132.352 66.3221 132.345 68.7421L132.34 70.3473L134.916 67.6209C136.334 66.1213 139.264 63.498 141.429 61.7916C143.944 59.8089 145.566 58.1246 145.922 57.1257C146.229 56.2662 146.613 53.1287 146.776 50.1531C146.939 47.1776 147.245 44.7435 147.456 44.7435C148.176 44.7435 148.539 48.887 148.188 53.107C147.993 55.4525 148.032 57.324 148.277 57.324C148.52 57.324 150.067 56.8012 151.716 56.1621C153.642 55.4148 154.776 54.671 154.89 54.0793C154.987 53.573 154.092 51.1052 152.901 48.5957C150.896 44.3742 150.713 43.6435 150.462 38.8367L150.19 33.6415L147.663 34.9036Z" fill="#FFB2CC"/>
<path d="M152.404 36.8178C152.243 42.2254 153.068 45.6876 155.551 50.0273C157.993 54.2946 157.568 54.0944 164.143 54.0828L170.051 54.0722L170.047 52.8046C170.043 51.4278 168.037 47.7397 166.024 45.4093C165.33 44.6051 163.407 42.9531 161.75 41.7373C160.094 40.521 157.529 38.5489 156.052 37.3543C154.575 36.1596 153.161 35.1824 152.909 35.1824C152.658 35.1824 152.43 35.9181 152.404 36.8178Z" fill="#FFB2CC"/>
<path d="M138.363 5.26245C136.341 10.5704 135.198 15.6826 134.994 20.3374C134.719 26.6065 135.154 27.4846 138.149 26.7087C139.24 26.4264 141.887 26.0394 144.03 25.8486C146.174 25.6584 147.927 25.4174 147.927 25.3132C147.927 25.2086 146.778 23.7064 145.374 21.9754C142.765 18.7593 140.559 15.0531 141.255 15.0546C141.467 15.0551 142.297 16.0927 143.097 17.3604C143.897 18.628 145.965 21.0656 147.693 22.7775C150.459 25.5185 151.284 26.0228 154.603 27C161.383 28.9963 163.764 31.7263 167.842 42.1806C168.857 44.7843 170.564 48.7864 171.636 51.074C173.317 54.6655 173.791 55.2794 175.106 55.5688C177.772 56.1545 178.24 55.2548 177.98 50.0455C177.576 41.9562 173.819 34.0833 167.035 27.1067C162.832 22.7856 160.309 21.0464 152.139 16.8415C145.005 13.17 143.339 11.7635 140.909 7.35936L138.931 3.77392L138.363 5.26245Z" fill="#FFB2CC"/>
<path fill-rule="evenodd" clip-rule="evenodd" d="M143.629 31.3471C142.807 33.5129 140.106 42.5598 139.535 45.0598C139.22 46.4436 138.976 50.0075 138.994 52.9795L139.026 58.3835L136.34 60.1035C132.782 62.3811 130.406 64.8182 128.717 67.9241C127.896 69.4347 126.985 70.4724 126.481 70.4724C126.014 70.4724 124.635 69.7503 123.418 68.8676C120.75 66.9317 117.01 65.4432 114.789 65.4326C113.894 65.4281 112.909 65.2585 112.601 65.0552C111.772 64.5077 110.203 52.2961 110.567 49.2229C110.756 47.6227 111.462 45.6712 112.395 44.1691C113.231 42.823 113.915 41.6238 113.915 41.504C113.915 41.3838 113.039 41.2856 111.968 41.2856C107.93 41.2856 97.5642 45.4951 90.7535 49.9003C86.5796 52.6 80.2988 59.0136 78.028 62.8944C74.4932 68.9361 73.5066 72.752 73.2859 81.2322L73.0913 88.7211L71.3767 85.1729C69.3377 80.9544 66.5812 78.5239 60.1129 75.2409C57.7622 74.0472 55.0595 72.4863 54.1072 71.7717C50.2792 68.8998 49.2428 71.0742 51.3245 77.6095C52.7143 81.974 52.7692 84.9143 51.5272 88.4801L50.9736 90.0697L48.5122 88.8218C41.5426 85.2871 33.7061 85.2409 24.9152 88.6819C19.9066 90.6429 12.3446 94.6234 12.3446 95.2997C12.3446 95.6691 14.2061 96.6715 16.5367 97.5571C18.8426 98.4338 22.0672 100.02 23.7019 101.082C26.4876 102.892 36.99 112.456 36.9775 113.172C36.974 113.351 34.0892 114.398 30.5665 115.498C19.8684 118.839 14.2905 118.514 9.13457 114.249C7.79756 113.144 6.5023 112.24 6.25592 112.24C5.3438 112.24 5.54993 114.553 7.07651 121.453C10.0281 134.79 16.7101 142.128 27.5807 143.971C32.7573 144.848 42.4995 144.277 48.7994 142.727C55.226 141.146 58.9549 139.721 68.6247 135.151C75.6577 131.828 80.8373 129.852 82.5167 129.852C82.916 129.852 83.1905 131.257 83.3368 134.05C83.6235 139.512 84.5964 141.165 91.457 147.842C96.5405 152.79 96.8457 153 98.9561 153C101.467 153 103 151.727 104.785 148.161C107.118 143.499 109.279 141.98 115.906 140.341C121.76 138.893 125.697 136.751 127.879 133.827L129.73 131.345L131.074 133.995C132.427 136.661 135.797 140.14 144.024 147.36C147.527 150.434 148.328 150.928 148.961 150.401C149.578 149.889 149.653 149.003 149.369 145.584C148.887 139.806 149.639 136.912 152.359 134.072C153.521 132.858 154.68 131.868 154.935 131.872C155.189 131.875 156.948 133.126 158.842 134.652C162.963 137.972 169.982 141.493 175.511 143.013C178.958 143.961 180.865 144.123 188.836 144.146C197.045 144.17 198.64 144.036 202.412 143.008C209.92 140.963 215.137 137.927 221.771 131.742C226.434 127.394 227.811 126.596 232.736 125.384C234.945 124.841 236.353 124.236 236.353 123.831C236.353 122.974 228.591 118.788 222.776 116.509C216.37 113.998 216.487 114.144 219.328 112.208C222.218 110.238 232.652 99.6304 232.414 98.9043C232.323 98.6275 230.583 98.233 228.547 98.0277C222.284 97.3956 214.48 95.0446 214.48 93.7895C214.48 93.0559 220.142 90.0989 221.549 90.0984C221.98 90.0979 222.755 89.7889 223.27 89.412C224.17 88.7533 224.159 88.6944 222.989 87.9431C220.952 86.6343 209.941 83.1258 205.932 82.5074C201.041 81.7535 195.396 82.2407 190.282 83.8575C188.052 84.5625 186.16 85.0662 186.077 84.9767C185.994 84.8871 185.679 82.5059 185.375 79.6853C183.813 65.1559 175.458 54.1223 160.103 46.3113C156.686 44.5727 153.211 42.588 152.381 41.9006C150.14 40.0437 147.719 36.4215 146.521 33.1305C145.404 30.0669 144.361 29.4228 143.629 31.3471ZM144.074 35.5203C142.052 40.8282 140.909 45.9404 140.705 50.5952C140.43 56.8643 140.865 57.7424 143.86 56.9665C144.951 56.6842 147.598 56.2972 149.741 56.1065C151.885 55.9162 153.638 55.6752 153.638 55.571C153.638 55.4664 152.489 53.9643 151.085 52.2332C148.476 49.0171 146.27 45.3109 146.966 45.3124C147.178 45.3129 148.008 46.3506 148.808 47.6182C149.608 48.8858 151.676 51.3234 153.404 53.0353C156.17 55.7764 156.995 56.2806 160.314 57.2578C167.094 59.2541 169.475 61.9841 173.552 72.4385C174.568 75.0421 176.275 79.0442 177.347 81.3318C179.028 84.9233 179.502 85.5372 180.817 85.8266C183.483 86.4123 183.951 85.5126 183.691 80.3033C183.287 72.214 179.53 64.3411 172.745 57.3645C168.543 53.0434 166.02 51.3042 157.85 47.0993C150.716 43.4279 149.05 42.0214 146.62 37.6172L144.642 34.0317L144.074 35.5203ZM105.469 44.5752C89.7453 49.9355 78.0285 61.3183 75.4445 73.7433C74.6465 77.5814 74.4398 84.8488 75.1172 85.2675C75.3495 85.4114 78.9623 82.4772 83.1453 78.7478C89.7956 72.8184 90.8199 71.6987 91.3011 69.8358C92.8447 63.8631 94.9893 59.6974 99.0702 54.7468C102.719 50.3194 103.716 50.3199 100.195 54.7468C95.4559 60.7069 92.7965 65.9102 92.7965 69.2244C92.7965 70.1875 92.881 70.9756 92.9845 70.9756C93.0881 70.9756 94.1627 70.4231 95.3729 69.7477C97.8856 68.3453 106.263 65.4402 107.794 65.4402C108.355 65.4402 109.195 65.0598 109.659 64.5953C110.578 63.6759 110.567 63.4766 109.154 55.4961C108.398 51.2268 108.395 50.5756 109.123 47.7329C109.56 46.026 110.165 44.3301 110.469 43.9643C111.321 42.9367 109.691 43.136 105.469 44.5752ZM144.839 58.2562C139.66 59.5309 133.545 63.5315 131.078 67.2583C128.706 70.8427 128.284 72.9397 129.292 76.1336C129.751 77.5869 130.308 81.1532 130.53 84.0593C130.753 86.9654 131.096 90.5322 131.294 91.985L131.654 94.6269H129.799C127.767 94.6269 125.556 93.6713 124.438 92.3096C123.097 90.6766 119.271 88.5883 117.62 88.5883C115.547 88.5883 113.464 89.3773 112.058 90.6957C111.071 91.6212 111.029 91.8426 111.661 92.8083C112.05 93.4021 113.623 94.649 115.158 95.5795C117.493 96.9956 118.687 97.3463 122.474 97.7262C124.963 97.9763 128.403 98.6179 130.119 99.1523C132.304 99.8332 133.34 99.9585 133.58 99.571C133.768 99.2666 134.195 96.8431 134.529 94.1846C135.367 87.5224 136.659 82.7781 138.743 78.7071C141.172 73.9627 142.001 72.8234 145.92 68.85C150.524 64.1811 156.096 61.3022 160.112 61.5181C163.089 61.6781 164.518 62.9241 161.725 62.9241C160.873 62.9241 160.175 63.1359 160.175 63.3946C160.175 63.9431 166.272 69.4287 167.882 70.329C169.167 71.0476 171.237 71.1698 171.237 70.5272C171.237 70.2807 170.481 68.9788 169.558 67.6337C168.232 65.7034 167.543 65.1554 166.289 65.0311C164.547 64.858 164.238 64.2395 165.532 63.5144C166.001 63.2522 166.236 62.7163 166.072 62.2865C165.658 61.2076 160.923 59.006 157.718 58.4022C154.994 57.8889 146.712 57.7953 144.839 58.2562ZM153.374 65.1614C143.879 69.9048 136.172 83.7428 135.35 97.5204C135.146 100.955 135.728 101.801 136.216 98.7785C136.732 95.581 139.784 90.0285 143.2 86.0722C144.992 83.9964 147.395 80.8478 148.54 79.0749C150.237 76.4476 150.621 76.0843 150.621 77.1098C150.621 78.62 147.759 83.1621 143.643 88.1847C140.28 92.2884 138.063 96.5799 138.056 98.9999L138.051 100.605L140.627 97.8787C142.045 96.3791 144.975 93.7558 147.14 92.0494C149.655 90.0667 151.277 88.3824 151.633 87.3836C151.94 86.5241 152.324 83.3865 152.487 80.411C152.65 77.4354 152.956 75.0013 153.167 75.0013C153.887 75.0013 154.25 79.1449 153.899 83.3649C153.704 85.7104 153.743 87.5818 153.988 87.5818C154.231 87.5818 155.778 87.059 157.426 86.4199C159.353 85.6726 160.487 84.9289 160.601 84.3371C160.698 83.8308 159.803 81.363 158.612 78.8535C156.607 74.632 156.424 73.9013 156.173 69.0946L155.901 63.8993L153.374 65.1614ZM158.115 67.0756C157.954 72.4832 158.779 75.9454 161.262 80.2852C163.704 84.5525 163.279 84.3522 169.854 84.3406L175.762 84.33L175.758 83.0624C175.754 81.6856 173.748 77.9975 171.735 75.6671C171.041 74.863 169.118 73.2109 167.461 71.9951C165.804 70.7788 163.24 68.8067 161.763 67.6121C160.285 66.4174 158.872 65.4402 158.62 65.4402C158.369 65.4402 158.141 66.1759 158.115 67.0756ZM104.864 67.7605C97.439 69.8413 90.0546 74.4901 81.6906 82.3473C77.0917 86.668 76.3446 87.6075 75.5511 90.0662C71.8141 101.644 68.8133 105.16 60.3135 107.916C58.9026 108.374 57.3187 109.068 56.7938 109.458C55.8626 110.151 55.866 110.196 56.9421 111.287C57.8824 112.242 58.8458 112.467 63.4788 112.816C72.3858 113.488 80.6462 112.293 87.2639 109.377C93.7327 106.527 97.9539 103.176 104.789 95.4668C110.682 88.8198 113.349 87.0595 117.604 87.0087C119.217 86.989 121.087 87.3332 122.171 87.848C123.181 88.3276 124.135 88.5928 124.29 88.4368C124.446 88.2808 122.797 86.361 120.627 84.17C116.185 79.6858 113.761 78.5239 108.85 78.5239C100.599 78.5239 93.2626 83.4972 83.983 95.3817C77.9124 103.157 73.2818 107.456 67.5145 110.676C63.4446 112.947 63.6 111.514 67.698 108.983C72.0152 106.316 76.5567 101.913 82.5026 94.6269C92.1624 82.7907 98.0711 78.3307 105.825 77.0218C111.989 75.9811 117.47 77.9527 121.838 82.7821C124.625 85.8643 126.988 89.482 126.988 90.6656C126.988 91.4164 128.802 92.5245 129.222 92.0308C129.639 91.5417 128.433 79.5978 127.763 77.5788C126.672 74.2908 123.053 70.332 119.588 68.6356C117.211 67.4717 115.98 67.2181 112.183 67.1124C109.248 67.0304 106.647 67.2608 104.864 67.7605ZM52.0677 73.6643C52.0677 74.0362 52.5203 75.657 53.0734 77.2658C54.2912 80.8085 54.3445 84.332 53.2665 90.0587C52.1522 95.9796 52.5514 100.424 54.5054 103.851C55.9199 106.332 56.0788 106.447 57.9171 106.328C60.1778 106.182 63.9912 104.959 65.3176 103.953C66.2106 103.277 66.1951 103.19 64.9289 101.831C62.8085 99.5539 61.6505 96.6036 61.0979 92.0706C60.5182 87.3131 59.3587 83.238 58.2107 81.9206C57.6863 81.3193 57.636 81.04 58.0513 81.04C59.053 81.04 61.0351 86.0616 61.6269 90.0979C62.3253 94.8634 62.8347 96.4108 64.4925 98.8056C67.0207 102.456 68.587 102.237 70.7864 97.925C72.7911 93.9939 71.1072 86.3796 67.2646 81.9996C66.3695 80.9796 63.5336 79.1021 60.5277 77.5406C57.6722 76.0571 54.7357 74.4262 54.0015 73.9159C52.4111 72.8108 52.0677 72.766 52.0677 73.6643ZM196.618 84.0533C193.755 84.4745 188.563 85.9147 187.115 86.6896C186.246 87.1546 186.37 87.3156 188.339 88.2753C191.326 89.7311 191.775 90.6021 190.702 92.8556C189.749 94.8538 189.551 97.6462 190.362 97.6462C190.648 97.6462 192.708 96.6091 194.94 95.342C200.975 91.9146 210.96 88.2969 210.96 89.5368C210.96 89.7683 209.093 90.5845 206.812 91.3514C201.275 93.2118 192.779 97.8087 189.669 100.628C188.882 101.34 187.552 103.282 186.713 104.943C185.875 106.604 184.765 108.563 184.247 109.298C183.729 110.032 183.305 110.844 183.305 111.1C183.305 111.799 194.364 109.905 197.077 108.741C200.622 107.22 203.16 104.925 207.048 99.727C211.537 93.7246 213.818 91.4566 216.977 89.8549C218.369 89.1489 219.508 88.4806 219.508 88.3699C219.508 87.8254 208.228 84.5041 204.926 84.0759C200.707 83.5289 200.191 83.5274 196.618 84.0533ZM165.398 86.0495C155.431 87.5974 145.285 94.0985 138.319 103.401C135.924 106.598 132.336 113.754 131.246 117.506C130.021 121.723 130.378 128.716 131.991 132.117C133.115 134.485 142.304 144.383 142.861 143.825C142.988 143.698 142.538 142.34 141.861 140.808C136.916 129.618 139.36 118.877 149.059 109.17C153.406 104.82 166.157 96.4199 167.053 97.3166C167.216 97.4806 166.616 98.0181 165.717 98.5112C162.266 100.405 154.133 106.046 151.843 108.136C143.902 115.38 139.863 124.422 141.071 132.251C141.359 134.115 141.837 136.319 142.135 137.149C143.059 139.727 146.804 146.962 147.214 146.962C147.429 146.962 147.604 145.233 147.604 143.12C147.604 137.293 148.271 135.676 152.355 131.589C155.735 128.207 158.711 126.193 170.22 119.5C175.371 116.504 182.406 109.766 184.772 105.563C185.799 103.739 186.792 100.841 187.446 97.7635C189.054 90.192 189.178 90.6218 184.928 89.0432C177.72 86.3655 170.494 85.258 165.398 86.0495ZM32.9604 88.1273C31.4394 88.39 29.4029 88.8525 28.435 89.1544C26.0209 89.9082 15.8644 94.7104 15.8644 95.0979C15.8644 95.2705 17.041 95.8578 18.4796 96.4033C22.7028 98.0045 27.9448 101.723 33.7267 107.218C40.3937 113.556 43.7108 115.32 49.6049 115.661C53.6154 115.893 58.1096 115.464 58.091 114.851C58.085 114.66 57.1805 113.867 56.0813 113.089C54.0021 111.617 53.0859 109.607 53.9035 108.31C54.2434 107.771 53.8236 106.442 52.4313 103.647C50.7554 100.284 50.2128 99.6294 48.5389 98.9596C45.4154 97.7086 40.7376 97.151 33.3375 97.147C28.8403 97.1445 26.4237 96.9578 26.4237 96.6136C26.4237 95.8885 43.3176 96.5296 47.2859 97.4057C50.431 98.0996 51.0369 97.8878 51.0545 96.0857C51.0832 93.0609 47.7107 89.7009 43.5494 88.6089C40.5922 87.8329 35.8979 87.6196 32.9604 88.1273ZM101.973 100.575C98.3089 104.355 95.3106 107.619 95.3106 107.83C95.3106 108.041 95.6158 108.214 95.9894 108.214C96.3625 108.214 97.6301 108.911 98.8057 109.764L100.943 111.313L103.336 110.283C104.652 109.717 107.401 108.986 109.444 108.659C114.205 107.897 114.605 107.575 114.226 104.808C113.732 101.201 110.076 93.5012 108.935 93.6627C108.77 93.6864 105.637 96.7968 101.973 100.575ZM172.871 94.3708C171.973 94.7618 171.237 95.3007 171.237 95.5684C171.237 96.2291 174.788 95.2544 175.744 94.331C176.388 93.71 176.356 93.623 175.493 93.6401C174.95 93.6512 173.77 93.9798 172.871 94.3708ZM209.736 98.9974C208.474 100.607 207.441 102.207 207.441 102.553C207.44 103.019 209.039 103.197 213.6 103.241C220.826 103.311 219.423 104.036 211.883 104.129L207.024 104.188L203.467 106.83C201.511 108.283 199.908 109.601 199.904 109.759C199.901 109.917 201.647 110.318 203.785 110.651C205.923 110.984 208.611 111.71 209.757 112.266C211.747 113.23 211.953 113.238 214.257 112.455C215.585 112.005 217.592 111.063 218.718 110.363C220.747 109.102 229.062 100.916 229.062 100.18C229.062 99.9696 227.848 99.6551 226.365 99.4805C224.882 99.3058 221.771 98.6194 219.451 97.9547C211.711 95.737 212.347 95.6691 209.736 98.9974ZM113.915 97.5808C113.915 97.8898 115.573 99.9439 117.599 102.146C119.926 104.676 121.5 106.876 121.873 108.121C123.258 112.748 122.101 118.889 118.905 123.874C118.035 125.23 115.007 128.246 111.963 130.787C104.65 136.892 101.874 140.785 101.866 144.949C101.86 148.016 102.564 148.299 104.019 145.813C106.538 141.513 108.239 140.559 118.503 137.695C122.211 136.661 125.923 134.098 127.127 131.743C128.301 129.444 128.875 125.826 128.065 125.826C127.755 125.826 126.012 126.847 124.192 128.094C122.372 129.341 119.013 131.254 116.727 132.346C114.442 133.438 112.28 134.682 111.924 135.111C111.132 136.067 110.395 136.121 110.395 135.224C110.395 134.142 112.407 132.601 116.429 130.603C121.921 127.875 126.786 124.514 127.923 122.662C128.469 121.773 129.078 120.14 129.277 119.033C129.476 117.926 130.287 115.373 131.079 113.359C132.844 108.871 132.887 108.219 131.388 108.581C129.104 109.132 127.593 111.254 125.701 116.57C123.828 121.832 122.8 123.815 122.239 123.254C122.07 123.084 122.483 121.839 123.157 120.486C123.832 119.134 124.653 117.009 124.984 115.765C126.294 110.834 128.596 108.068 131.949 107.397C132.788 107.229 133.861 106.664 134.333 106.141C135.154 105.234 135.103 105.104 133.193 103.287C130.918 101.12 128.751 100.343 123.72 99.889C120.128 99.565 115.674 98.4141 114.544 97.5179C114.119 97.1812 113.915 97.2019 113.915 97.5808ZM115.639 104.125C115.797 105.059 115.926 106.119 115.926 106.48C115.926 107.535 117.406 108.717 118.728 108.717C120.545 108.717 120.235 107.608 117.651 104.866L115.353 102.427L115.639 104.125ZM89.8539 109.993C84.7271 112.426 78.9105 114.252 76.2842 114.252C74.2941 114.252 74.102 114.357 74.3479 115.299C74.5661 116.132 74.4504 116.271 73.7782 115.98C72.6458 115.49 66.007 114.728 65.6842 115.051C65.1341 115.602 66.6169 117.073 68.9153 118.257C72.0555 119.874 76.5769 120.189 80.4527 119.062C82.6118 118.434 83.7185 118.351 84.9172 118.728C88.711 119.92 89.2536 119.74 94.4417 115.564C97.1318 113.398 99.3332 111.554 99.3332 111.466C99.3332 111.105 94.7127 108.215 94.1541 108.226C93.8222 108.232 91.8873 109.028 89.8539 109.993ZM109.892 110.05C103.545 111.228 97.3465 114.809 91.914 120.436C87.2543 125.263 85.062 129.642 85.0726 134.104C85.0771 136.019 85.408 137.777 85.9641 138.842C86.9979 140.822 90.5403 144.782 91.9567 145.541C92.9 146.046 92.9292 145.92 92.6793 142.424C91.9839 132.696 96.2408 127.318 108.887 121.944C114.466 119.574 116.145 118.604 118.315 116.502C121.557 113.36 121.868 111.598 119.32 110.798C117.349 110.179 111.637 109.726 109.892 110.05ZM187.756 112.505C185.917 112.918 183.089 113.84 181.471 114.553C177.919 116.118 170.775 120.822 170.751 121.612C170.742 121.924 171.441 122.32 172.305 122.493C175.278 123.087 184.856 122.807 188.731 122.012C194.906 120.744 207.299 115.523 207.79 113.981C208.339 112.254 193.68 111.174 187.756 112.505ZM204.068 118.021C192.359 123.338 186.542 124.82 177.39 124.82C172.817 124.82 164.091 125.758 163.525 126.31C163.293 126.536 164.99 126.879 167.296 127.073C169.602 127.267 174.43 128.006 178.025 128.715C185.344 130.16 195.245 130.483 199.577 129.417C200.921 129.087 205.181 127.56 209.043 126.023C215.845 123.317 222.149 121.884 221.316 123.232C221.119 123.552 220.348 123.817 219.604 123.82C218.86 123.824 215.762 124.867 212.72 126.139C197.659 132.435 192.759 132.995 178.829 130.013C171.211 128.382 162.165 127.912 159.546 129.01C158.51 129.445 157.661 130.133 157.661 130.539C157.661 131.837 162.257 135.38 166.942 137.692C175.889 142.108 187.448 143.859 196.881 142.228C206.524 140.561 212.396 137.744 218.901 131.664C224.957 126.005 225.893 125.421 232.079 123.464C233.728 122.942 221.988 117.691 215.381 115.996L211.003 114.872L204.068 118.021ZM36.2288 115.608C35.6757 115.735 32.8473 116.592 29.9435 117.51C27.0396 118.429 23.7014 119.337 22.5248 119.529C20.0252 119.936 20.1666 120.513 23.0915 121.842C26.4061 123.349 31.9236 123.113 41.7247 121.046C51.2074 119.046 57.009 118.783 64.1008 120.033C66.4329 120.444 68.4502 120.67 68.5845 120.535C68.7187 120.401 68.508 120.287 68.1163 120.282C67.7241 120.277 66.3856 119.572 65.1411 118.716L62.8784 117.16L56.0345 117.471C49.7703 117.756 48.7792 117.676 44.3378 116.521C39.5901 115.286 38.2667 115.137 36.2288 115.608ZM8.07362 117.971C9.17833 125.13 12.0133 131.946 15.4285 135.654C20.145 140.774 25.2752 142.641 34.4689 142.582C45.3988 142.511 52.9683 140.538 66.4666 134.239C74.903 130.304 77.2039 129.386 81.86 128.104C85.9601 126.975 85.8233 125.826 81.5885 125.826C77.5151 125.826 73.9124 126.783 66.1468 129.925C56.7284 133.735 52.4172 134.909 45.2077 135.623C38.5574 136.281 27.2373 133.511 19.4516 129.32C13.4835 126.107 8.80023 122.304 10.812 122.304C11.0755 122.304 12.7157 123.296 14.4575 124.508C18.7944 127.525 23.016 129.575 29.3546 131.738C34.5634 133.516 34.941 133.571 42.2626 133.598C51.4161 133.632 53.6411 133.133 65.6742 128.345C75.2514 124.534 74.9015 125.105 68.9123 123.06C60.316 120.125 52.6827 119.915 43.0169 122.346C31.2945 125.295 23.2262 124.848 19.62 121.051C18.5238 119.897 17.4815 119.364 15.9061 119.153C14.7019 118.991 12.3748 118.194 10.7351 117.38L7.75432 115.901L8.07362 117.971ZM116.446 120.094C114.934 121.036 111.796 122.525 109.472 123.403C100.443 126.814 95.0109 132.049 94.0118 138.303C93.6266 140.715 94.6262 147.275 95.6178 148.842C96.6124 150.413 98.5327 151.574 99.5137 151.197C100.165 150.947 100.339 150.171 100.339 147.521C100.339 140.04 102.469 136.343 110.67 129.594C115.886 125.3 118.584 122.15 119.22 119.614C119.404 118.879 119.474 118.301 119.375 118.33C119.276 118.358 117.958 119.152 116.446 120.094ZM81.7685 120.576C80.8197 120.989 78.3624 121.468 76.3079 121.642L72.5729 121.958L75.5194 122.878C79.7105 124.188 85.2119 124.136 86.9461 122.77C88.7025 121.388 88.6195 120.487 86.6997 120.102C84.4707 119.656 83.722 119.728 81.7685 120.576ZM69.918 121.298C71.3002 121.892 72.0942 121.892 71.175 121.298C70.7602 121.029 70.0814 120.822 69.6666 120.838C69.1693 120.856 69.2547 121.012 69.918 121.298ZM167.091 123.233C165.054 124.133 164.486 125.111 166.334 124.535C168.866 123.746 169.729 123.31 169.729 122.82C169.729 122.162 169.396 122.214 167.091 123.233Z" fill="black"/>
<path fill-rule="evenodd" clip-rule="evenodd" d="M165.398 86.0495C155.431 87.5974 145.285 94.0985 138.319 103.401C135.924 106.598 132.336 113.754 131.246 117.506C130.021 121.723 130.378 128.716 131.991 132.117C133.115 134.485 142.304 144.383 142.861 143.825C142.988 143.698 142.538 142.34 141.861 140.808C136.916 129.618 139.36 118.877 149.059 109.17C153.406 104.82 166.157 96.4199 167.053 97.3166C167.216 97.4806 166.616 98.0181 165.717 98.5112C162.266 100.405 154.133 106.046 151.843 108.136C143.902 115.38 139.863 124.422 141.071 132.251C141.359 134.115 141.837 136.319 142.135 137.149C143.059 139.727 146.804 146.962 147.214 146.962C147.429 146.962 147.604 145.233 147.604 143.12C147.604 137.293 148.271 135.676 152.355 131.589C155.735 128.207 158.711 126.193 170.22 119.5C175.371 116.504 182.406 109.766 184.772 105.563C185.799 103.739 186.792 100.841 187.446 97.7635C189.054 90.192 189.178 90.6218 184.928 89.0432C177.72 86.3655 170.494 85.258 165.398 86.0495ZM171.237 95.5684C171.237 95.3007 171.973 94.7618 172.871 94.3708C173.77 93.9798 174.95 93.6512 175.493 93.6401C176.356 93.623 176.388 93.71 175.744 94.331C174.788 95.2544 171.237 96.2291 171.237 95.5684Z" fill="#FFB2CC"/>
<path d="M196.618 84.0533C193.755 84.4745 188.563 85.9147 187.115 86.6896C186.246 87.1546 186.37 87.3156 188.339 88.2753C191.326 89.7311 191.775 90.6021 190.702 92.8556C189.749 94.8538 189.551 97.6462 190.362 97.6462C190.648 97.6462 192.708 96.6091 194.94 95.342C200.975 91.9146 210.96 88.2969 210.96 89.5368C210.96 89.7683 209.093 90.5845 206.812 91.3514C201.275 93.2118 192.779 97.8087 189.669 100.628C188.882 101.34 187.552 103.282 186.713 104.943C185.875 106.604 184.765 108.563 184.247 109.298C183.729 110.032 183.305 110.844 183.305 111.1C183.305 111.799 194.364 109.905 197.077 108.741C200.622 107.22 203.16 104.925 207.048 99.727C211.537 93.7246 213.818 91.4566 216.977 89.8549C218.369 89.1489 219.508 88.4806 219.508 88.3699C219.508 87.8254 208.228 84.5041 204.926 84.0759C200.707 83.5289 200.191 83.5274 196.618 84.0533Z" fill="#FFB2CC"/>
<path d="M209.736 98.9974C208.474 100.607 207.441 102.207 207.441 102.553C207.44 103.019 209.039 103.197 213.6 103.241C220.826 103.311 219.423 104.036 211.883 104.129L207.024 104.188L203.467 106.83C201.511 108.283 199.908 109.601 199.904 109.759C199.901 109.917 201.647 110.318 203.785 110.651C205.923 110.984 208.611 111.71 209.757 112.266C211.747 113.23 211.953 113.238 214.257 112.455C215.585 112.005 217.592 111.063 218.718 110.363C220.747 109.102 229.062 100.916 229.062 100.18C229.062 99.9696 227.848 99.6551 226.365 99.4805C224.882 99.3058 221.771 98.6194 219.451 97.9547C211.711 95.737 212.347 95.6691 209.736 98.9974Z" fill="#FFB2CC"/>
<path d="M204.068 118.021C192.359 123.338 186.542 124.82 177.39 124.82C172.817 124.82 164.091 125.758 163.525 126.31C163.293 126.536 164.99 126.879 167.296 127.073C169.602 127.267 174.43 128.006 178.025 128.715C185.344 130.16 195.245 130.483 199.577 129.417C200.921 129.087 205.181 127.56 209.043 126.023C215.845 123.317 222.149 121.884 221.316 123.232C221.119 123.552 220.348 123.817 219.604 123.82C218.86 123.824 215.762 124.867 212.72 126.139C197.659 132.435 192.759 132.995 178.829 130.013C171.211 128.382 162.165 127.912 159.546 129.01C158.51 129.445 157.661 130.133 157.661 130.539C157.661 131.837 162.257 135.38 166.942 137.692C175.889 142.108 187.448 143.859 196.881 142.228C206.524 140.561 212.396 137.744 218.901 131.664C224.957 126.005 225.893 125.421 232.079 123.464C233.728 122.942 221.988 117.691 215.381 115.996L211.003 114.872L204.068 118.021Z" fill="#FFB2CC"/>
<path d="M113.915 97.5808C113.915 97.8898 115.573 99.9439 117.599 102.146C119.926 104.676 121.5 106.876 121.873 108.121C123.258 112.748 122.101 118.889 118.905 123.874C118.035 125.23 115.007 128.246 111.963 130.787C104.65 136.892 101.874 140.785 101.866 144.949C101.86 148.016 102.564 148.299 104.019 145.813C106.538 141.513 108.239 140.559 118.503 137.695C122.211 136.661 125.923 134.098 127.127 131.743C128.301 129.444 128.875 125.826 128.065 125.826C127.755 125.826 126.012 126.847 124.192 128.094C122.372 129.341 119.013 131.254 116.727 132.346C114.442 133.438 112.28 134.682 111.924 135.111C111.132 136.067 110.395 136.121 110.395 135.224C110.395 134.142 112.407 132.601 116.429 130.603C121.921 127.875 126.786 124.514 127.923 122.662C128.469 121.773 129.078 120.14 129.277 119.033C129.476 117.926 130.287 115.373 131.079 113.359C132.844 108.871 132.887 108.219 131.388 108.581C129.104 109.132 127.593 111.254 125.701 116.57C123.828 121.832 122.8 123.815 122.239 123.254C122.07 123.084 122.483 121.839 123.157 120.486C123.832 119.134 124.653 117.009 124.984 115.765C126.294 110.834 128.596 108.068 131.949 107.397C132.788 107.229 133.861 106.664 134.333 106.141C135.154 105.234 135.103 105.104 133.193 103.287C130.918 101.12 128.751 100.343 123.72 99.889C120.128 99.565 115.674 98.4141 114.544 97.5179C114.119 97.1812 113.915 97.2019 113.915 97.5808Z" fill="#FFB2CC"/>
<path d="M116.446 120.094C114.934 121.036 111.796 122.525 109.472 123.403C100.443 126.814 95.0109 132.049 94.0118 138.303C93.6266 140.715 94.6262 147.275 95.6178 148.842C96.6124 150.413 98.5327 151.574 99.5137 151.197C100.165 150.947 100.339 150.171 100.339 147.521C100.339 140.04 102.469 136.343 110.67 129.594C115.886 125.3 118.584 122.15 119.22 119.614C119.404 118.879 119.474 118.301 119.375 118.33C119.276 118.358 117.958 119.152 116.446 120.094Z" fill="#FFB2CC"/>
<path d="M109.892 110.05C103.545 111.228 97.3465 114.809 91.914 120.436C87.2543 125.263 85.062 129.642 85.0726 134.104C85.0771 136.019 85.408 137.777 85.9641 138.842C86.9979 140.822 90.5403 144.782 91.9567 145.541C92.9 146.046 92.9292 145.92 92.6793 142.424C91.9839 132.696 96.2408 127.318 108.887 121.944C114.466 119.574 116.145 118.604 118.315 116.502C121.557 113.36 121.868 111.598 119.32 110.798C117.349 110.179 111.637 109.726 109.892 110.05Z" fill="#FFB2CC"/>
<path d="M101.973 100.575C98.3089 104.355 95.3106 107.619 95.3106 107.83C95.3106 108.041 95.6158 108.214 95.9894 108.214C96.3625 108.214 97.6301 108.911 98.8057 109.764L100.943 111.313L103.336 110.283C104.652 109.717 107.401 108.986 109.444 108.659C114.205 107.897 114.605 107.575 114.226 104.808C113.732 101.201 110.076 93.5012 108.935 93.6627C108.77 93.6864 105.637 96.7968 101.973 100.575Z" fill="#FFB2CC"/>
<path d="M89.8539 109.993C84.7271 112.426 78.9105 114.252 76.2842 114.252C74.2941 114.252 74.102 114.357 74.3479 115.299C74.5661 116.132 74.4504 116.271 73.7782 115.98C72.6458 115.49 66.007 114.728 65.6842 115.051C65.1341 115.602 66.6169 117.073 68.9153 118.257C72.0555 119.874 76.5769 120.189 80.4527 119.062C82.6118 118.434 83.7185 118.351 84.9172 118.728C88.711 119.92 89.2536 119.74 94.4417 115.564C97.1318 113.398 99.3332 111.554 99.3332 111.466C99.3332 111.105 94.7127 108.215 94.1541 108.226C93.8222 108.232 91.8873 109.028 89.8539 109.993Z" fill="#FFB2CC"/>
<path d="M81.7685 120.576C80.8197 120.989 78.3624 121.468 76.3079 121.642L72.5729 121.958L75.5194 122.878C79.7105 124.188 85.2119 124.136 86.9461 122.77C88.7025 121.388 88.6195 120.487 86.6997 120.102C84.4707 119.656 83.722 119.728 81.7685 120.576Z" fill="#FFB2CC"/>
<path d="M104.864 67.7605C97.439 69.8413 90.0546 74.4901 81.6906 82.3473C77.0917 86.668 76.3446 87.6075 75.5511 90.0662C71.8141 101.644 68.8133 105.16 60.3135 107.916C58.9026 108.374 57.3187 109.068 56.7938 109.458C55.8626 110.151 55.866 110.196 56.9421 111.287C57.8824 112.242 58.8458 112.467 63.4788 112.816C72.3858 113.488 80.6462 112.293 87.2639 109.377C93.7327 106.527 97.9539 103.176 104.789 95.4668C110.682 88.8198 113.349 87.0595 117.604 87.0087C119.217 86.989 121.087 87.3332 122.171 87.848C123.181 88.3276 124.135 88.5928 124.29 88.4368C124.446 88.2808 122.797 86.361 120.627 84.17C116.185 79.6858 113.761 78.5239 108.85 78.5239C100.599 78.5239 93.2626 83.4972 83.983 95.3817C77.9124 103.157 73.2818 107.456 67.5145 110.676C63.4446 112.947 63.6 111.514 67.698 108.983C72.0152 106.316 76.5567 101.913 82.5026 94.6269C92.1624 82.7907 98.0711 78.3307 105.825 77.0218C111.989 75.9811 117.47 77.9527 121.838 82.7821C124.625 85.8643 126.988 89.482 126.988 90.6656C126.988 91.4164 128.802 92.5245 129.222 92.0308C129.639 91.5417 128.433 79.5978 127.763 77.5788C126.672 74.2908 123.053 70.332 119.588 68.6356C117.211 67.4717 115.98 67.2181 112.183 67.1124C109.248 67.0304 106.647 67.2608 104.864 67.7605Z" fill="#FFB2CC"/>
<path d="M105.469 44.5752C89.7453 49.9355 78.0285 61.3183 75.4445 73.7433C74.6465 77.5814 74.4398 84.8488 75.1172 85.2675C75.3495 85.4114 78.9623 82.4772 83.1453 78.7478C89.7956 72.8184 90.8199 71.6987 91.3011 69.8358C92.8447 63.8631 94.9893 59.6974 99.0702 54.7468C102.719 50.3194 103.716 50.3199 100.195 54.7468C95.4559 60.7069 92.7965 65.9102 92.7965 69.2244C92.7965 70.1875 92.881 70.9756 92.9845 70.9756C93.0881 70.9756 94.1627 70.4231 95.3729 69.7477C97.8856 68.3453 106.263 65.4402 107.794 65.4402C108.355 65.4402 109.195 65.0598 109.659 64.5953C110.578 63.6759 110.567 63.4766 109.154 55.4961C108.398 51.2268 108.395 50.5756 109.123 47.7329C109.56 46.026 110.165 44.3301 110.469 43.9643C111.321 42.9367 109.691 43.136 105.469 44.5752Z" fill="#FFB2CC"/>
<path d="M52.0677 73.6643C52.0677 74.0362 52.5203 75.657 53.0734 77.2658C54.2912 80.8085 54.3445 84.332 53.2665 90.0587C52.1522 95.9796 52.5514 100.424 54.5054 103.851C55.9199 106.332 56.0788 106.447 57.9171 106.328C60.1778 106.182 63.9912 104.959 65.3176 103.953C66.2106 103.277 66.1951 103.19 64.9289 101.831C62.8085 99.5539 61.6505 96.6036 61.0979 92.0706C60.5182 87.3131 59.3587 83.238 58.2107 81.9206C57.6863 81.3193 57.636 81.04 58.0513 81.04C59.053 81.04 61.0351 86.0616 61.6269 90.0979C62.3253 94.8634 62.8347 96.4108 64.4925 98.8056C67.0207 102.456 68.587 102.237 70.7864 97.925C72.7911 93.9939 71.1072 86.3796 67.2646 81.9996C66.3695 80.9796 63.5336 79.1021 60.5277 77.5406C57.6722 76.0571 54.7357 74.4262 54.0015 73.9159C52.4111 72.8108 52.0677 72.766 52.0677 73.6643Z" fill="#FFB2CC"/>
<path d="M32.9604 88.1273C31.4394 88.39 29.4029 88.8525 28.435 89.1544C26.0209 89.9082 15.8644 94.7104 15.8644 95.0979C15.8644 95.2705 17.041 95.8578 18.4796 96.4033C22.7028 98.0045 27.9448 101.723 33.7267 107.218C40.3937 113.556 43.7108 115.32 49.6049 115.661C53.6154 115.893 58.1096 115.464 58.091 114.851C58.085 114.66 57.1805 113.867 56.0813 113.089C54.0021 111.617 53.0859 109.607 53.9035 108.31C54.2434 107.771 53.8236 106.442 52.4313 103.647C50.7554 100.284 50.2128 99.6294 48.5389 98.9596C45.4154 97.7086 40.7376 97.151 33.3375 97.147C28.8403 97.1445 26.4237 96.9578 26.4237 96.6136C26.4237 95.8885 43.3176 96.5296 47.2859 97.4057C50.431 98.0996 51.0369 97.8878 51.0545 96.0857C51.0832 93.0609 47.7107 89.7009 43.5494 88.6089C40.5922 87.8329 35.8979 87.6196 32.9604 88.1273Z" fill="#FFB2CC"/>
<path d="M36.2288 115.608C35.6757 115.735 32.8473 116.592 29.9435 117.51C27.0396 118.429 23.7014 119.337 22.5248 119.529C20.0252 119.936 20.1666 120.513 23.0915 121.842C26.4061 123.349 31.9236 123.113 41.7247 121.046C51.2074 119.046 57.009 118.783 64.1008 120.033C66.4329 120.444 68.4502 120.67 68.5845 120.535C68.7187 120.401 68.508 120.287 68.1163 120.282C67.7241 120.277 66.3856 119.572 65.1411 118.716L62.8784 117.16L56.0345 117.471C49.7703 117.756 48.7792 117.676 44.3378 116.521C39.5901 115.286 38.2667 115.137 36.2288 115.608Z" fill="#FFB2CC"/>
<path d="M8.07362 117.971C9.17833 125.13 12.0133 131.946 15.4285 135.654C20.145 140.774 25.2752 142.641 34.4689 142.582C45.3988 142.511 52.9683 140.538 66.4666 134.239C74.903 130.304 77.2039 129.386 81.86 128.104C85.9601 126.975 85.8233 125.826 81.5885 125.826C77.5151 125.826 73.9124 126.783 66.1468 129.925C56.7284 133.735 52.4172 134.909 45.2077 135.623C38.5574 136.281 27.2373 133.511 19.4516 129.32C13.4835 126.107 8.80023 122.304 10.812 122.304C11.0755 122.304 12.7157 123.296 14.4575 124.508C18.7944 127.525 23.016 129.575 29.3546 131.738C34.5634 133.516 34.941 133.571 42.2626 133.598C51.4161 133.632 53.6411 133.133 65.6742 128.345C75.2514 124.534 74.9015 125.105 68.9123 123.06C60.316 120.125 52.6827 119.915 43.0169 122.346C31.2945 125.295 23.2262 124.848 19.62 121.051C18.5238 119.897 17.4815 119.364 15.9061 119.153C14.7019 118.991 12.3748 118.194 10.7351 117.38L7.75432 115.901L8.07362 117.971Z" fill="#FFB2CC"/>
<path d="M144.839 58.2562C139.66 59.5309 133.545 63.5315 131.078 67.2583C128.706 70.8427 128.284 72.9397 129.292 76.1336C129.751 77.5869 130.308 81.1532 130.53 84.0593C130.753 86.9654 131.096 90.5322 131.294 91.985L131.654 94.6269H129.799C127.767 94.6269 125.556 93.6713 124.438 92.3096C123.097 90.6766 119.271 88.5883 117.62 88.5883C115.547 88.5883 113.464 89.3773 112.058 90.6957C111.071 91.6212 111.029 91.8426 111.661 92.8083C112.05 93.4021 113.623 94.649 115.158 95.5795C117.493 96.9956 118.687 97.3463 122.474 97.7262C124.963 97.9763 128.403 98.6179 130.119 99.1523C132.304 99.8332 133.34 99.9585 133.58 99.571C133.768 99.2666 134.195 96.8431 134.529 94.1846C135.367 87.5224 136.659 82.7781 138.743 78.7071C141.172 73.9627 142.001 72.8234 145.92 68.85C150.524 64.1811 156.096 61.3022 160.112 61.5181C163.089 61.6781 164.518 62.9241 161.725 62.9241C160.873 62.9241 160.175 63.1359 160.175 63.3946C160.175 63.9431 166.272 69.4287 167.882 70.329C169.167 71.0476 171.237 71.1698 171.237 70.5272C171.237 70.2807 170.481 68.9788 169.558 67.6337C168.232 65.7034 167.543 65.1554 166.289 65.0311C164.547 64.858 164.238 64.2395 165.532 63.5144C166.001 63.2522 166.236 62.7163 166.072 62.2865C165.658 61.2076 160.923 59.006 157.718 58.4022C154.994 57.8889 146.712 57.7953 144.839 58.2562Z" fill="#FFB2CC"/>
<path d="M153.374 65.1614C143.879 69.9048 136.172 83.7428 135.35 97.5204C135.146 100.955 135.728 101.801 136.216 98.7785C136.732 95.581 139.784 90.0285 143.2 86.0722C144.992 83.9964 147.395 80.8478 148.54 79.0749C150.237 76.4476 150.621 76.0843 150.621 77.1098C150.621 78.62 147.759 83.1621 143.643 88.1847C140.28 92.2884 138.063 96.5799 138.056 98.9999L138.051 100.605L140.627 97.8787C142.045 96.3791 144.975 93.7558 147.14 92.0494C149.655 90.0667 151.277 88.3824 151.633 87.3836C151.94 86.5241 152.324 83.3865 152.487 80.411C152.65 77.4354 152.956 75.0013 153.167 75.0013C153.887 75.0013 154.25 79.1449 153.899 83.3649C153.704 85.7104 153.743 87.5818 153.988 87.5818C154.231 87.5818 155.778 87.059 157.426 86.4199C159.353 85.6726 160.487 84.9289 160.601 84.3371C160.698 83.8308 159.803 81.363 158.612 78.8535C156.607 74.632 156.424 73.9013 156.173 69.0946L155.901 63.8993L153.374 65.1614Z" fill="#FFB2CC"/>
<path d="M158.115 67.0756C157.954 72.4832 158.779 75.9454 161.262 80.2852C163.704 84.5525 163.279 84.3522 169.854 84.3406L175.762 84.33L175.758 83.0624C175.754 81.6856 173.748 77.9975 171.735 75.6671C171.041 74.863 169.118 73.2109 167.461 71.9951C165.804 70.7788 163.24 68.8067 161.763 67.6121C160.285 66.4174 158.872 65.4402 158.62 65.4402C158.369 65.4402 158.141 66.1759 158.115 67.0756Z" fill="#FFB2CC"/>
<path d="M144.074 35.5203C142.052 40.8282 140.909 45.9404 140.705 50.5952C140.43 56.8643 140.865 57.7424 143.86 56.9665C144.951 56.6842 147.598 56.2972 149.741 56.1065C151.885 55.9162 153.638 55.6752 153.638 55.571C153.638 55.4664 152.489 53.9643 151.085 52.2332C148.476 49.0171 146.27 45.3109 146.966 45.3124C147.178 45.3129 148.008 46.3506 148.808 47.6182C149.608 48.8858 151.676 51.3234 153.404 53.0353C156.17 55.7764 156.995 56.2806 160.314 57.2578C167.094 59.2541 169.475 61.9841 173.552 72.4385C174.568 75.0421 176.275 79.0442 177.347 81.3318C179.028 84.9233 179.502 85.5372 180.817 85.8266C183.483 86.4123 183.951 85.5126 183.691 80.3033C183.287 72.214 179.53 64.3411 172.745 57.3645C168.543 53.0434 166.02 51.3042 157.85 47.0993C150.716 43.4279 149.05 42.0214 146.62 37.6172L144.642 34.0317L144.074 35.5203Z" fill="#FFB2CC"/>
</svg>
