<svg width="288" height="167" viewBox="0 0 288 167" fill="none" xmlns="http://www.w3.org/2000/svg">
<g filter="url(#filter0_f_3138_297)">
<ellipse cx="127.38" cy="83.0629" rx="84.9191" ry="40.6019" fill="#FFBE0A" fill-opacity="0.8"/>
</g>
<mask id="path-2-outside-1_3138_297" maskUnits="userSpaceOnUse" x="77.6719" y="53.4609" width="131" height="62" fill="black">
<rect fill="white" x="77.6719" y="53.4609" width="131" height="62"/>
<path d="M101.371 106.322C99.991 106.322 98.933 105.954 98.197 105.218C97.4611 104.436 97.0931 103.355 97.0931 101.975V92.7297H88.0545C86.7206 92.7297 85.6856 92.3847 84.9497 91.6947C84.2597 91.0048 83.9147 89.9928 83.9147 88.6589C83.9147 87.3249 84.2597 86.313 84.9497 85.623C85.6856 84.933 86.7206 84.5881 88.0545 84.5881H97.0931V75.6875C97.0931 74.3076 97.4611 73.2496 98.197 72.5136C98.933 71.7777 100.014 71.4097 101.44 71.4097C102.82 71.4097 103.855 71.7777 104.545 72.5136C105.281 73.2496 105.649 74.3076 105.649 75.6875V84.5881H114.687C116.021 84.5881 117.033 84.933 117.723 85.623C118.459 86.313 118.827 87.3249 118.827 88.6589C118.827 89.9928 118.459 91.0048 117.723 91.6947C117.033 92.3847 116.021 92.7297 114.687 92.7297H105.649V101.975C105.649 103.355 105.281 104.436 104.545 105.218C103.855 105.954 102.797 106.322 101.371 106.322ZM132.875 108.461C131.174 108.461 129.863 108.024 128.943 107.15C128.069 106.23 127.632 104.942 127.632 103.286C127.632 101.63 128.069 100.365 128.943 99.4914C129.863 98.6174 131.174 98.1804 132.875 98.1804H139.085V69.9608H144.881L134.876 76.1015C133.68 76.8374 132.553 77.1364 131.496 76.9984C130.438 76.8144 129.541 76.3545 128.805 75.6185C128.069 74.8825 127.586 73.9856 127.356 72.9276C127.126 71.8697 127.218 70.8117 127.632 69.7538C128.046 68.6958 128.874 67.7989 130.116 67.0629L139.637 61.1292C140.649 60.4852 141.684 60.0022 142.742 59.6802C143.846 59.3583 144.996 59.1973 146.192 59.1973C147.94 59.1973 149.297 59.6572 150.263 60.5772C151.229 61.4512 151.712 62.7391 151.712 64.441V98.1804H157.231C158.933 98.1804 160.221 98.6174 161.095 99.4914C162.015 100.365 162.475 101.63 162.475 103.286C162.475 104.942 162.015 106.23 161.095 107.15C160.221 108.024 158.933 108.461 157.231 108.461H132.875ZM184.113 109.22C178.133 109.22 173.534 107.035 170.314 102.665C167.14 98.2494 165.553 92.0167 165.553 83.9671C165.553 78.5394 166.266 73.9856 167.692 70.3057C169.118 66.5799 171.211 63.7741 173.971 61.8881C176.73 60.0022 180.111 59.0593 184.113 59.0593C190.139 59.0593 194.739 61.1752 197.912 65.407C201.086 69.6388 202.673 75.8025 202.673 83.8981C202.673 89.2798 201.96 93.8566 200.534 97.6284C199.108 101.4 197.015 104.275 194.256 106.253C191.496 108.231 188.115 109.22 184.113 109.22ZM184.113 99.1464C186.321 99.1464 187.954 97.9504 189.012 95.5585C190.116 93.1207 190.668 89.2338 190.668 83.8981C190.668 78.6083 190.116 74.8365 189.012 72.5826C187.954 70.2827 186.321 69.1328 184.113 69.1328C181.905 69.1328 180.249 70.2827 179.145 72.5826C178.087 74.8365 177.558 78.6083 177.558 83.8981C177.558 89.2338 178.087 93.1207 179.145 95.5585C180.249 97.9504 181.905 99.1464 184.113 99.1464Z"/>
</mask>
<path d="M101.371 106.322C99.991 106.322 98.933 105.954 98.197 105.218C97.4611 104.436 97.0931 103.355 97.0931 101.975V92.7297H88.0545C86.7206 92.7297 85.6856 92.3847 84.9497 91.6947C84.2597 91.0048 83.9147 89.9928 83.9147 88.6589C83.9147 87.3249 84.2597 86.313 84.9497 85.623C85.6856 84.933 86.7206 84.5881 88.0545 84.5881H97.0931V75.6875C97.0931 74.3076 97.4611 73.2496 98.197 72.5136C98.933 71.7777 100.014 71.4097 101.44 71.4097C102.82 71.4097 103.855 71.7777 104.545 72.5136C105.281 73.2496 105.649 74.3076 105.649 75.6875V84.5881H114.687C116.021 84.5881 117.033 84.933 117.723 85.623C118.459 86.313 118.827 87.3249 118.827 88.6589C118.827 89.9928 118.459 91.0048 117.723 91.6947C117.033 92.3847 116.021 92.7297 114.687 92.7297H105.649V101.975C105.649 103.355 105.281 104.436 104.545 105.218C103.855 105.954 102.797 106.322 101.371 106.322ZM132.875 108.461C131.174 108.461 129.863 108.024 128.943 107.15C128.069 106.23 127.632 104.942 127.632 103.286C127.632 101.63 128.069 100.365 128.943 99.4914C129.863 98.6174 131.174 98.1804 132.875 98.1804H139.085V69.9608H144.881L134.876 76.1015C133.68 76.8374 132.553 77.1364 131.496 76.9984C130.438 76.8144 129.541 76.3545 128.805 75.6185C128.069 74.8825 127.586 73.9856 127.356 72.9276C127.126 71.8697 127.218 70.8117 127.632 69.7538C128.046 68.6958 128.874 67.7989 130.116 67.0629L139.637 61.1292C140.649 60.4852 141.684 60.0022 142.742 59.6802C143.846 59.3583 144.996 59.1973 146.192 59.1973C147.94 59.1973 149.297 59.6572 150.263 60.5772C151.229 61.4512 151.712 62.7391 151.712 64.441V98.1804H157.231C158.933 98.1804 160.221 98.6174 161.095 99.4914C162.015 100.365 162.475 101.63 162.475 103.286C162.475 104.942 162.015 106.23 161.095 107.15C160.221 108.024 158.933 108.461 157.231 108.461H132.875ZM184.113 109.22C178.133 109.22 173.534 107.035 170.314 102.665C167.14 98.2494 165.553 92.0167 165.553 83.9671C165.553 78.5394 166.266 73.9856 167.692 70.3057C169.118 66.5799 171.211 63.7741 173.971 61.8881C176.73 60.0022 180.111 59.0593 184.113 59.0593C190.139 59.0593 194.739 61.1752 197.912 65.407C201.086 69.6388 202.673 75.8025 202.673 83.8981C202.673 89.2798 201.96 93.8566 200.534 97.6284C199.108 101.4 197.015 104.275 194.256 106.253C191.496 108.231 188.115 109.22 184.113 109.22ZM184.113 99.1464C186.321 99.1464 187.954 97.9504 189.012 95.5585C190.116 93.1207 190.668 89.2338 190.668 83.8981C190.668 78.6083 190.116 74.8365 189.012 72.5826C187.954 70.2827 186.321 69.1328 184.113 69.1328C181.905 69.1328 180.249 70.2827 179.145 72.5826C178.087 74.8365 177.558 78.6083 177.558 83.8981C177.558 89.2338 178.087 93.1207 179.145 95.5585C180.249 97.9504 181.905 99.1464 184.113 99.1464Z" fill="#FDD43D"/>
<path d="M98.197 105.218L94.3322 108.856L94.3873 108.914L94.4441 108.971L98.197 105.218ZM97.0931 92.7297H102.401V87.4222H97.0931V92.7297ZM84.9497 91.6947L81.1967 95.4477L81.2573 95.5082L81.3197 95.5667L84.9497 91.6947ZM84.9497 85.623L81.3197 81.751L81.2573 81.8096L81.1967 81.8701L84.9497 85.623ZM97.0931 84.5881V89.8955H102.401V84.5881H97.0931ZM98.197 72.5136L94.4441 68.7607L94.4441 68.7607L98.197 72.5136ZM104.545 72.5136L100.673 76.1436L100.731 76.206L100.792 76.2666L104.545 72.5136ZM105.649 84.5881H100.341V89.8955H105.649V84.5881ZM117.723 85.623L113.97 89.3759L114.031 89.4365L114.093 89.495L117.723 85.623ZM117.723 91.6947L114.093 87.8228L114.031 87.8813L113.97 87.9418L117.723 91.6947ZM105.649 92.7297V87.4222H100.341V92.7297H105.649ZM104.545 105.218L100.68 101.581L100.673 101.588L104.545 105.218ZM101.371 106.322V101.015C101.142 101.015 101.142 100.983 101.286 101.033C101.455 101.092 101.709 101.225 101.95 101.465L98.197 105.218L94.4441 108.971C96.4672 110.994 99.0581 111.629 101.371 111.629V106.322ZM98.197 105.218L102.062 101.581C102.147 101.671 102.221 101.77 102.28 101.87C102.339 101.969 102.374 102.053 102.393 102.111C102.431 102.222 102.401 102.201 102.401 101.975H97.0931H91.7857C91.7857 104.308 92.4279 106.832 94.3322 108.856L98.197 105.218ZM97.0931 101.975H102.401V92.7297H97.0931H91.7857V101.975H97.0931ZM97.0931 92.7297V87.4222H88.0545V92.7297V98.0371H97.0931V92.7297ZM88.0545 92.7297V87.4222C87.8356 87.4222 87.8275 87.3929 87.9562 87.4359C88.1056 87.4856 88.3443 87.6021 88.5797 87.8228L84.9497 91.6947L81.3197 95.5667C83.3225 97.4443 85.8181 98.0371 88.0545 98.0371V92.7297ZM84.9497 91.6947L88.7026 87.9418C88.9849 88.2241 89.133 88.518 89.197 88.7057C89.2524 88.8683 89.2222 88.8815 89.2222 88.6589H83.9147H78.6073C78.6073 90.8714 79.1911 93.4421 81.1967 95.4477L84.9497 91.6947ZM83.9147 88.6589H89.2222C89.2222 88.4363 89.2524 88.4494 89.197 88.612C89.133 88.7997 88.9849 89.0936 88.7026 89.3759L84.9497 85.623L81.1967 81.8701C79.1911 83.8757 78.6073 86.4463 78.6073 88.6589H83.9147ZM84.9497 85.623L88.5796 89.495C88.3443 89.7157 88.1056 89.8321 87.9562 89.8819C87.8275 89.9248 87.8356 89.8955 88.0545 89.8955V84.5881V79.2806C85.8181 79.2806 83.3225 79.8734 81.3197 81.751L84.9497 85.623ZM88.0545 84.5881V89.8955H97.0931V84.5881V79.2806H88.0545V84.5881ZM97.0931 84.5881H102.401V75.6875H97.0931H91.7857V84.5881H97.0931ZM97.0931 75.6875H102.401C102.401 75.4586 102.432 75.4582 102.382 75.6027C102.323 75.7712 102.191 76.026 101.95 76.2666L98.197 72.5136L94.4441 68.7607C92.421 70.7838 91.7857 73.3747 91.7857 75.6875H97.0931ZM98.197 72.5136L101.95 76.2666C101.828 76.3888 101.697 76.489 101.57 76.5665C101.444 76.643 101.338 76.6868 101.27 76.71C101.142 76.7535 101.17 76.7171 101.44 76.7171V71.4097V66.1022C99.1392 66.1022 96.4977 66.7071 94.4441 68.7607L98.197 72.5136ZM101.44 71.4097V76.7171C101.673 76.7171 101.651 76.7498 101.473 76.6864C101.266 76.6126 100.957 76.4466 100.673 76.1436L104.545 72.5136L108.417 68.8837C106.397 66.7289 103.729 66.1022 101.44 66.1022V71.4097ZM104.545 72.5136L100.792 76.2666C100.551 76.026 100.418 75.7712 100.36 75.6027C100.31 75.4582 100.341 75.4586 100.341 75.6875H105.649H110.956C110.956 73.3747 110.321 70.7838 108.298 68.7607L104.545 72.5136ZM105.649 75.6875H100.341V84.5881H105.649H110.956V75.6875H105.649ZM105.649 84.5881V89.8955H114.687V84.5881V79.2806H105.649V84.5881ZM114.687 84.5881V89.8955C114.91 89.8955 114.897 89.9258 114.734 89.8704C114.546 89.8064 114.253 89.6582 113.97 89.3759L117.723 85.623L121.476 81.8701C119.47 79.8645 116.9 79.2806 114.687 79.2806V84.5881ZM117.723 85.623L114.093 89.495C113.813 89.2319 113.644 88.9363 113.563 88.7132C113.492 88.5177 113.52 88.4683 113.52 88.6589H118.827H124.135C124.135 86.3528 123.474 83.739 121.353 81.751L117.723 85.623ZM118.827 88.6589H113.52C113.52 88.8495 113.492 88.8 113.563 88.6045C113.644 88.3814 113.813 88.0858 114.093 87.8228L117.723 91.6947L121.353 95.5667C123.474 93.5788 124.135 90.9649 124.135 88.6589H118.827ZM117.723 91.6947L113.97 87.9418C114.252 87.6595 114.546 87.5114 114.734 87.4474C114.897 87.392 114.91 87.4222 114.687 87.4222V92.7297V98.0371C116.9 98.0371 119.47 97.4533 121.476 95.4477L117.723 91.6947ZM114.687 92.7297V87.4222H105.649V92.7297V98.0371H114.687V92.7297ZM105.649 92.7297H100.341V101.975H105.649H110.956V92.7297H105.649ZM105.649 101.975H100.341C100.341 102.201 100.311 102.222 100.348 102.111C100.368 102.053 100.403 101.969 100.462 101.87C100.521 101.77 100.594 101.671 100.68 101.581L104.545 105.218L108.41 108.856C110.314 106.832 110.956 104.308 110.956 101.975H105.649ZM104.545 105.218L100.673 101.588C100.977 101.263 101.299 101.1 101.49 101.033C101.651 100.977 101.645 101.015 101.371 101.015V106.322V111.629C103.644 111.629 106.366 111.035 108.417 108.848L104.545 105.218ZM128.943 107.15L125.095 110.805L125.188 110.904L125.287 110.998L128.943 107.15ZM128.943 99.4914L125.287 95.6435L125.238 95.6903L125.19 95.7384L128.943 99.4914ZM139.085 98.1804V103.488H144.393V98.1804H139.085ZM139.085 69.9608V64.6533H133.778V69.9608H139.085ZM144.881 69.9608L147.657 74.4841L163.674 64.6533H144.881V69.9608ZM134.876 76.1015L132.1 71.5781L132.095 71.5813L134.876 76.1015ZM131.496 76.9984L130.586 82.2274L130.697 82.2467L130.809 82.2613L131.496 76.9984ZM127.356 72.9276L132.542 71.8002H132.542L127.356 72.9276ZM127.632 69.7538L122.689 67.8197L122.689 67.8197L127.632 69.7538ZM130.116 67.0629L132.821 71.6288L132.872 71.5986L132.923 71.5673L130.116 67.0629ZM139.637 61.1292L142.444 65.6335L142.465 65.6203L142.487 65.6069L139.637 61.1292ZM142.742 59.6802L141.256 54.5851L141.226 54.5938L141.197 54.6028L142.742 59.6802ZM150.263 60.5772L146.602 64.4205L146.651 64.4673L146.702 64.5129L150.263 60.5772ZM151.712 98.1804H146.404V103.488H151.712V98.1804ZM161.095 99.4914L157.342 103.244L157.39 103.292L157.44 103.339L161.095 99.4914ZM161.095 107.15L164.848 110.903V110.903L161.095 107.15ZM132.875 108.461V103.153C132.468 103.153 132.3 103.1 132.294 103.098C132.294 103.098 132.304 103.101 132.321 103.109C132.34 103.117 132.365 103.13 132.395 103.148C132.458 103.185 132.529 103.236 132.598 103.302L128.943 107.15L125.287 110.998C127.491 113.092 130.288 113.768 132.875 113.768V108.461ZM128.943 107.15L132.791 103.495C132.848 103.555 132.897 103.62 132.933 103.681C132.968 103.741 132.983 103.781 132.985 103.789C132.989 103.799 132.939 103.656 132.939 103.286H127.632H122.324C122.324 105.874 123.025 108.627 125.095 110.805L128.943 107.15ZM127.632 103.286H132.939C132.939 102.914 132.99 102.789 132.976 102.829C132.968 102.852 132.944 102.912 132.894 102.994C132.843 103.077 132.776 103.163 132.696 103.244L128.943 99.4914L125.19 95.7384C123.019 97.9093 122.324 100.716 122.324 103.286H127.632ZM128.943 99.4914L132.598 103.339C132.529 103.405 132.458 103.457 132.395 103.494C132.365 103.511 132.34 103.524 132.321 103.532C132.304 103.54 132.294 103.543 132.294 103.543C132.3 103.541 132.468 103.488 132.875 103.488V98.1804V92.873C130.288 92.873 127.491 93.5497 125.287 95.6435L128.943 99.4914ZM132.875 98.1804V103.488H139.085V98.1804V92.873H132.875V98.1804ZM139.085 98.1804H144.393V69.9608H139.085H133.778V98.1804H139.085ZM139.085 69.9608V75.2682H144.881V69.9608V64.6533H139.085V69.9608ZM144.881 69.9608L142.104 65.4374L132.1 71.5781L134.876 76.1015L137.653 80.6248L147.657 74.4841L144.881 69.9608ZM134.876 76.1015L132.095 71.5813C131.851 71.7313 131.746 71.7549 131.773 71.7477C131.789 71.7435 131.837 71.7324 131.912 71.7269C131.988 71.7213 132.08 71.7223 132.182 71.7356L131.496 76.9984L130.809 82.2613C133.409 82.6005 135.756 81.7923 137.658 80.6216L134.876 76.1015ZM131.496 76.9984L132.405 71.7695C132.384 71.7658 132.381 71.7639 132.393 71.7677C132.405 71.7716 132.425 71.7795 132.451 71.7928C132.477 71.8062 132.502 71.8215 132.523 71.8369C132.544 71.8521 132.555 71.8632 132.558 71.8656L128.805 75.6185L125.052 79.3714C126.587 80.9063 128.487 81.8624 130.586 82.2274L131.496 76.9984ZM128.805 75.6185L132.558 71.8656C132.55 71.8581 132.55 71.8568 132.553 71.8615C132.557 71.8662 132.561 71.8722 132.563 71.8775C132.566 71.8828 132.565 71.8821 132.562 71.8724C132.558 71.8625 132.551 71.8395 132.542 71.8002L127.356 72.9276L122.169 74.0551C122.606 76.0654 123.566 77.8859 125.052 79.3714L128.805 75.6185ZM127.356 72.9276L132.542 71.8002C132.539 71.7878 132.54 71.7847 132.54 71.7887C132.54 71.7929 132.54 71.7976 132.54 71.8005C132.539 71.8032 132.54 71.7975 132.543 71.7816C132.547 71.7654 132.556 71.7344 132.574 71.6878L127.632 69.7538L122.689 67.8197C121.914 69.8012 121.706 71.923 122.169 74.0551L127.356 72.9276ZM127.632 69.7538L132.574 71.6878C132.551 71.7476 132.524 71.7981 132.5 71.8365C132.476 71.8743 132.46 71.8909 132.463 71.8875C132.471 71.8789 132.565 71.7809 132.821 71.6288L130.116 67.0629L127.41 62.4969C125.429 63.6706 123.64 65.391 122.689 67.8197L127.632 69.7538ZM130.116 67.0629L132.923 71.5673L142.444 65.6335L139.637 61.1292L136.83 56.6248L127.309 62.5585L130.116 67.0629ZM139.637 61.1292L142.487 65.6069C143.127 65.1993 143.726 64.9285 144.287 64.7577L142.742 59.6802L141.197 54.6028C139.642 55.076 138.171 55.7711 136.788 56.6515L139.637 61.1292ZM142.742 59.6802L144.228 64.7754C144.83 64.5998 145.479 64.5047 146.192 64.5047V59.1973V53.8898C144.513 53.8898 142.862 54.1167 141.256 54.5851L142.742 59.6802ZM146.192 59.1973V64.5047C146.609 64.5047 146.792 64.5605 146.817 64.5687C146.826 64.572 146.801 64.5643 146.754 64.5365C146.706 64.5081 146.653 64.4688 146.602 64.4205L150.263 60.5772L153.923 56.7339C151.694 54.611 148.866 53.8898 146.192 53.8898V59.1973ZM150.263 60.5772L146.702 64.5129C146.622 64.4406 146.548 64.3557 146.488 64.2651C146.428 64.1757 146.395 64.1026 146.38 64.0622C146.352 63.9876 146.404 64.0809 146.404 64.441H151.712H157.019C157.019 61.7254 156.217 58.8072 153.823 56.6415L150.263 60.5772ZM151.712 64.441H146.404V98.1804H151.712H157.019V64.441H151.712ZM151.712 98.1804V103.488H157.231V98.1804V92.873H151.712V98.1804ZM157.231 98.1804V103.488C157.432 103.488 157.572 103.501 157.663 103.514C157.752 103.527 157.783 103.539 157.768 103.534C157.752 103.529 157.694 103.507 157.61 103.456C157.525 103.404 157.431 103.334 157.342 103.244L161.095 99.4914L164.848 95.7384C162.652 93.5422 159.799 92.873 157.231 92.873V98.1804ZM161.095 99.4914L157.44 103.339C157.363 103.266 157.294 103.183 157.239 103.097C157.184 103.013 157.155 102.945 157.142 102.909C157.118 102.844 157.168 102.939 157.168 103.286H162.475H167.782C167.782 100.641 167.021 97.8004 164.751 95.6435L161.095 99.4914ZM162.475 103.286H157.168C157.168 103.63 157.119 103.744 157.132 103.709C157.139 103.69 157.158 103.642 157.198 103.578C157.238 103.514 157.288 103.451 157.342 103.397L161.095 107.15L164.848 110.903C167.016 108.735 167.782 105.947 167.782 103.286H162.475ZM161.095 107.15L157.342 103.397C157.431 103.308 157.525 103.237 157.61 103.185C157.694 103.134 157.752 103.113 157.768 103.107C157.783 103.102 157.752 103.114 157.663 103.127C157.572 103.141 157.432 103.153 157.231 103.153V108.461V113.768C159.799 113.768 162.652 113.099 164.848 110.903L161.095 107.15ZM157.231 108.461V103.153H132.875V108.461V113.768H157.231V108.461ZM170.314 102.665L166.004 105.763L166.022 105.788L166.041 105.814L170.314 102.665ZM167.692 70.3057L172.641 72.2234L172.645 72.2131L172.649 72.2028L167.692 70.3057ZM173.971 61.8881L176.965 66.2702V66.2702L173.971 61.8881ZM197.912 65.407L193.666 68.5914H193.666L197.912 65.407ZM200.534 97.6284L205.499 99.5053H205.499L200.534 97.6284ZM194.256 106.253L191.164 101.939V101.939L194.256 106.253ZM189.012 95.5585L184.177 93.3692L184.167 93.3904L184.158 93.4117L189.012 95.5585ZM189.012 72.5826L184.19 74.8006L184.217 74.8593L184.245 74.9172L189.012 72.5826ZM179.145 72.5826L174.361 70.2859L174.351 70.3067L174.341 70.3275L179.145 72.5826ZM179.145 95.5585L174.277 97.6714L174.301 97.7273L174.326 97.7827L179.145 95.5585ZM184.113 109.22V103.912C179.621 103.912 176.694 102.377 174.587 99.5168L170.314 102.665L166.041 105.814C170.373 111.693 176.645 114.527 184.113 114.527V109.22ZM170.314 102.665L174.623 99.5676C172.342 96.3938 170.86 91.4127 170.86 83.9671H165.553H160.246C160.246 92.6207 161.937 100.105 166.004 105.763L170.314 102.665ZM165.553 83.9671H170.86C170.86 78.9658 171.523 75.1091 172.641 72.2234L167.692 70.3057L162.743 68.3881C161.009 72.862 160.246 78.1129 160.246 83.9671H165.553ZM167.692 70.3057L172.649 72.2028C173.765 69.2865 175.258 67.4366 176.965 66.2702L173.971 61.8881L170.976 57.5061C167.163 60.1115 164.471 63.8734 162.735 68.4087L167.692 70.3057ZM173.971 61.8881L176.965 66.2702C178.681 65.0978 180.965 64.3667 184.113 64.3667V59.0593V53.7518C179.257 53.7518 174.78 54.9067 170.976 57.5061L173.971 61.8881ZM184.113 59.0593V64.3667C188.734 64.3667 191.644 65.8951 193.666 68.5914L197.912 65.407L202.158 62.2225C197.833 56.4552 191.544 53.7518 184.113 53.7518V59.0593ZM197.912 65.407L193.666 68.5914C195.872 71.5321 197.366 76.3765 197.366 83.8981H202.673H207.981C207.981 75.2285 206.301 67.7454 202.158 62.2225L197.912 65.407ZM202.673 83.8981H197.366C197.366 88.8405 196.707 92.7431 195.57 95.7516L200.534 97.6284L205.499 99.5053C207.213 94.9702 207.981 89.7192 207.981 83.8981H202.673ZM200.534 97.6284L195.57 95.7516C194.443 98.7311 192.924 100.678 191.164 101.939L194.256 106.253L197.347 110.567C201.107 107.872 203.773 104.069 205.499 99.5053L200.534 97.6284ZM194.256 106.253L191.164 101.939C189.458 103.162 187.21 103.912 184.113 103.912V109.22V114.527C189.02 114.527 193.533 113.3 197.347 110.567L194.256 106.253ZM184.113 99.1464V104.454C186.237 104.454 188.32 103.857 190.13 102.531C191.884 101.246 193.068 99.5086 193.866 97.7054L189.012 95.5585L184.158 93.4117C183.898 94.0004 183.736 94.0565 183.858 93.9676C183.919 93.9227 184.001 93.8804 184.083 93.8547C184.161 93.8304 184.182 93.8389 184.113 93.8389V99.1464ZM189.012 95.5585L193.847 97.7479C195.44 94.2289 195.975 89.3857 195.975 83.8981H190.668H185.36C185.36 89.082 184.791 92.0124 184.177 93.3692L189.012 95.5585ZM190.668 83.8981H195.975C195.975 78.5035 195.454 73.6702 193.778 70.2481L189.012 72.5826L184.245 74.9172C184.777 76.0028 185.36 78.7132 185.36 83.8981H190.668ZM189.012 72.5826L193.834 70.3646C193.016 68.5881 191.811 66.896 190.05 65.6559C188.245 64.3848 186.19 63.8254 184.113 63.8254V69.1328V74.4402C184.201 74.4402 184.2 74.4511 184.139 74.4329C184.073 74.4131 183.999 74.3778 183.938 74.3346C183.81 74.2445 183.949 74.2773 184.19 74.8006L189.012 72.5826ZM184.113 69.1328V63.8254C182.035 63.8254 179.989 64.3849 178.188 65.6359C176.43 66.8563 175.206 68.5239 174.361 70.2859L179.145 72.5826L183.93 74.8793C184.188 74.3415 184.344 74.2842 184.243 74.3546C184.194 74.3884 184.132 74.4184 184.075 74.4353C184.022 74.451 184.025 74.4402 184.113 74.4402V69.1328ZM179.145 72.5826L174.341 70.3275C172.749 73.7178 172.251 78.5131 172.251 83.8981H177.558H182.866C182.866 78.7036 183.425 75.9552 183.95 74.8378L179.145 72.5826ZM177.558 83.8981H172.251C172.251 89.3752 172.763 94.1836 174.277 97.6714L179.145 95.5585L184.014 93.4457C183.412 92.0578 182.866 89.0925 182.866 83.8981H177.558ZM179.145 95.5585L174.326 97.7827C175.153 99.5729 176.356 101.287 178.108 102.552C179.914 103.857 181.989 104.454 184.113 104.454V99.1464V93.8389C184.045 93.8389 184.06 93.8305 184.13 93.852C184.204 93.8748 184.274 93.9115 184.323 93.9468C184.419 94.0161 184.242 93.9361 183.964 93.3344L179.145 95.5585Z" fill="#4D2206" mask="url(#path-2-outside-1_3138_297)"/>
<defs>
<filter id="filter0_f_3138_297" x="0.00140762" y="0.00140762" width="254.755" height="166.122" filterUnits="userSpaceOnUse" color-interpolation-filters="sRGB">
<feFlood flood-opacity="0" result="BackgroundImageFix"/>
<feBlend mode="normal" in="SourceGraphic" in2="BackgroundImageFix" result="shape"/>
<feGaussianBlur stdDeviation="21.2298" result="effect1_foregroundBlur_3138_297"/>
</filter>
</defs>
</svg>
