<svg width="115" height="25" viewBox="0 0 115 25" fill="none" xmlns="http://www.w3.org/2000/svg">
<path d="M0.762907 6.81749C0.719163 7.29706 0.853663 7.52345 1.25581 7.64673C1.55987 7.74013 5.231 8.32092 9.41359 8.9375C13.5962 9.55409 25.3186 11.31 35.4635 12.8398C58.8861 16.3714 99.2473 22.2279 99.3818 22.1143C99.4379 22.0668 99.6095 21.3381 99.7627 20.4948C99.9765 19.3177 99.963 18.9285 99.7039 18.8183C99.3604 18.6722 82.8191 16.5801 58.2644 13.5769C40.5483 11.4101 30.3643 10.1072 19.9244 8.67141C15.2577 8.02959 9.05089 7.20156 6.13126 6.83119L0.823088 6.15773L0.762907 6.81749Z" fill="#A35007"/>
<path d="M97.5384 9.62877C94.9337 9.4764 59.73 7.59581 55.1671 7.36514C53.3686 7.27443 45.6709 6.89579 38.0611 6.52391C22.9595 5.78621 5.40947 4.84348 3.61672 4.67376C2.66022 4.58321 2.4773 4.64389 2.43884 5.06552C2.40483 5.43841 2.62251 5.63098 3.30092 5.82829C4.17503 6.08249 24.1944 7.75582 28.8331 7.96225C30.0789 8.01789 34.8804 8.35842 39.5033 8.71961C44.1261 9.08054 50.5632 9.56663 53.8079 9.79967C59.5473 10.2117 75.7327 11.3944 89.201 12.3855C92.8593 12.6549 96.9014 12.9094 98.183 12.9509L100.513 13.0266L100.603 12.0463C100.715 10.8174 100.424 9.70324 99.999 9.73196C99.8208 9.74367 98.7135 9.69728 97.5384 9.62877Z" fill="#A35007"/>
<path d="M104.742 10.062C103.591 10.0262 103.294 10.0987 103.376 10.3955C103.433 10.6044 103.502 11.3564 103.53 12.0672L103.58 13.3596L108.133 13.6391C112.56 13.9108 112.705 13.9027 113.308 13.3451C114.038 12.6705 114.136 12.1186 113.671 11.2886C113.346 10.708 113.194 10.673 109.773 10.3959C107.815 10.2374 105.551 10.0871 104.742 10.062Z" fill="#A35007"/>
<path d="M102.94 19.6416C102.915 19.9059 102.772 20.6999 102.622 21.4063L102.351 22.6909L106.914 23.2995C111.388 23.8963 111.49 23.8982 112.115 23.4021C112.534 23.0698 112.779 22.6072 112.83 22.0534C112.956 20.6673 112.435 20.447 107.416 19.7639C103.182 19.1877 102.984 19.1821 102.94 19.6416Z" fill="#A35007"/>
<path fill-rule="evenodd" clip-rule="evenodd" d="M20.12 0.202262C19.3297 0.661346 18.7995 1.55129 18.2779 3.29438C18.0409 4.08619 17.8263 4.74059 17.8005 4.74896C17.775 4.75736 14.2795 4.58938 10.0328 4.37579C5.78644 4.16248 2.18618 4.05127 2.03254 4.12889C1.87888 4.20676 1.72843 4.54313 1.69802 4.87645C1.65502 5.34785 1.48805 5.48574 0.946433 5.49805C0.319501 5.51206 0.232219 5.62401 0.0693634 6.62543C-0.0301296 7.23693 -0.026875 7.84117 0.0762936 7.96781C0.266724 8.20157 11.6333 10.0661 14.5559 10.3431L16.149 10.4939L15.9079 11.179C15.0839 13.5216 14.8209 14.8847 14.7048 17.4146C14.5321 21.1778 14.462 21.1153 19.6313 21.8127C23.0408 22.2729 23.6168 22.2909 24.4931 21.9645C25.9401 21.4258 26.741 20.2224 28.2221 16.3615C28.9478 14.4696 29.6277 12.8534 29.7331 12.7702C29.8385 12.6868 31.4372 12.8636 33.2861 13.1632C38.6171 14.0273 90.0363 21.5863 101.606 23.2068C111.825 24.6383 111.757 24.634 112.612 23.9117C113.595 23.0801 113.809 21.3275 113.042 20.3863C112.554 19.7869 112.272 19.7221 107.35 19.079C97.6812 17.8154 69.506 14.264 55.0786 12.4904C32.989 9.77465 30.4616 9.43112 30.5526 9.1545C30.677 8.77679 35.974 9.09008 59.5222 10.8689C71.3235 11.7604 84.6526 12.7321 89.1423 13.0284C93.6321 13.3245 100.412 13.7931 104.209 14.0697C112.724 14.69 113.088 14.6835 113.819 13.8988C114.653 13.0034 114.726 11.4848 113.979 10.5676L113.387 9.84206L109.076 9.60506C106.704 9.47474 100.296 9.11261 94.8344 8.80026C89.3733 8.48791 83.5465 8.16795 81.8859 8.08901C80.2254 8.01032 74.7929 7.73028 69.8137 7.4669L68.08 7.3752C63.0527 7.10928 55.8897 6.73039 51.2046 6.48236C45.9488 6.20438 39.6659 5.89815 37.2425 5.80233C30.4711 5.53455 30.7841 5.59147 30.683 4.61139C30.2989 0.890209 30.1055 0.748073 24.7298 0.237873C21.4956 -0.0690821 20.599 -0.075983 20.12 0.202262ZM18.8586 3.75918C19.3876 1.69963 20.0948 0.730947 21.1418 0.632875C21.4104 0.607594 23.2068 0.765053 25.1339 0.983015C29.422 1.46775 29.786 1.67082 29.6203 3.48827C29.4352 5.51705 29.4907 5.50145 23.6935 5.15548L18.5782 4.85013L18.8586 3.75918ZM103.376 10.3955C103.294 10.0987 103.591 10.0262 104.742 10.062C105.551 10.0871 107.815 10.2374 109.773 10.3959C113.194 10.673 113.346 10.708 113.671 11.2886C114.136 12.1186 114.038 12.6705 113.308 13.3451C112.705 13.9027 112.56 13.9108 108.133 13.6391L103.58 13.3596L103.53 12.0672C103.502 11.3564 103.433 10.6044 103.376 10.3955ZM55.1671 7.36514C59.73 7.59581 94.9337 9.4764 97.5384 9.62877C98.7135 9.69728 99.8208 9.74367 99.999 9.73196C100.424 9.70324 100.715 10.8174 100.603 12.0463L100.513 13.0266L98.183 12.9509C96.9014 12.9094 92.8593 12.6549 89.201 12.3855C75.7327 11.3944 59.5473 10.2117 53.8079 9.79967C50.5632 9.56663 44.1261 9.08054 39.5033 8.71961C34.8804 8.35842 30.0789 8.01789 28.8331 7.96225C24.1944 7.75582 4.17503 6.08249 3.30092 5.82829C2.62251 5.63098 2.40483 5.43841 2.43884 5.06552C2.4773 4.64389 2.66022 4.58321 3.61672 4.67376C5.40947 4.84348 22.9595 5.78621 38.0611 6.52391C45.6709 6.89579 53.3686 7.27443 55.1671 7.36514ZM101.304 12.6707C101.328 12.4094 101.324 11.6561 101.296 10.9967C101.246 9.82918 101.262 9.79906 101.911 9.86049C102.693 9.93446 102.998 10.7184 102.855 12.2835C102.769 13.2293 102.72 13.2836 102.012 13.2166C101.447 13.1631 101.271 13.0281 101.304 12.6707ZM24.9853 8.75616C23.0548 8.57339 21.848 8.35978 21.8623 8.20307C21.8765 8.04713 23.0497 8.05806 24.877 8.23105C26.6012 8.39427 27.9243 8.62869 28.0001 8.78414C28.085 8.95848 27.0191 8.94869 24.9853 8.75616ZM29.2147 9.15655C28.8511 9.12214 28.6505 8.99168 28.7517 8.85529C28.8497 8.72298 29.1485 8.63543 29.416 8.66076C29.6836 8.68609 29.8918 8.82164 29.879 8.96202C29.8662 9.10239 29.5671 9.18992 29.2147 9.15655ZM1.25581 7.64673C0.853663 7.52345 0.719163 7.29706 0.762907 6.81749L0.823088 6.15773L6.13126 6.83119C9.05089 7.20156 15.2577 8.02959 19.9244 8.67141C30.3643 10.1072 40.5483 11.4101 58.2644 13.5769C82.8191 16.5801 99.3604 18.6722 99.7039 18.8183C99.963 18.9285 99.9765 19.3177 99.7627 20.4948C99.6095 21.3381 99.4379 22.0668 99.3818 22.1143C99.2473 22.2279 58.8861 16.3714 35.4635 12.8398C25.3186 11.31 13.5962 9.55409 9.41359 8.9375C5.231 8.32092 1.55987 7.74013 1.25581 7.64673ZM15.4796 14.4608C15.5059 14.1732 16.2569 12.0816 16.6906 11.0886C16.8136 10.8063 17.4737 10.8358 20.3893 11.2537C25.0568 11.9224 26.7963 12.286 26.7688 12.5869C26.7045 13.2918 25.6232 15.6224 25.1906 15.9882C24.543 16.5357 22.4552 16.5955 19.4044 16.1538C16.9556 15.7991 15.4181 15.1359 15.4796 14.4608ZM100.058 22.1703L100.413 20.595C100.761 19.0553 100.786 19.0214 101.529 19.0917L102.288 19.1636L102.041 20.6794C101.905 21.5129 101.721 22.2567 101.632 22.3319C101.542 22.4074 101.152 22.4018 100.764 22.3197L100.058 22.1703ZM102.622 21.4063C102.772 20.6999 102.915 19.9059 102.94 19.6416C102.984 19.1821 103.182 19.1877 107.416 19.7639C112.435 20.447 112.956 20.6673 112.83 22.0534C112.779 22.6072 112.534 23.0698 112.115 23.4021C111.49 23.8982 111.388 23.8963 106.914 23.2995L102.351 22.6909L102.622 21.4063ZM25.9415 19.9228C25.4859 20.308 26.1799 16.2598 26.9088 14.2799C27.539 12.5679 27.6847 12.3583 28.21 12.408C28.5355 12.4388 28.7857 12.6074 28.7664 12.7825C28.7018 13.3695 26.1934 19.7098 25.9415 19.9228ZM15.5851 20.1057C15.0965 19.5062 15.0479 19.1937 15.1939 17.5932C15.3567 15.8084 15.3735 15.7711 15.9061 16.019C16.8241 16.4457 24.227 17.2493 24.8358 16.9882C25.3626 16.7621 25.3725 16.814 25.1875 18.842C25.0336 20.5296 24.9076 20.9851 24.5279 21.2259C24.1848 21.4434 22.9941 21.4249 20.1008 21.1569C16.2274 20.7982 16.1309 20.7757 15.5851 20.1057Z" fill="black"/>
<path d="M100.413 20.595L100.058 22.1703L100.764 22.3197C101.152 22.4018 101.542 22.4074 101.632 22.3319C101.721 22.2567 101.905 21.5129 102.041 20.6794L102.288 19.1636L101.529 19.0917C100.786 19.0214 100.761 19.0553 100.413 20.595Z" fill="black"/>
<path d="M101.296 10.9967C101.324 11.6561 101.328 12.4094 101.304 12.6707C101.271 13.0281 101.447 13.1631 102.012 13.2166C102.72 13.2836 102.769 13.2293 102.855 12.2835C102.998 10.7184 102.693 9.93446 101.911 9.86049C101.262 9.79906 101.246 9.82918 101.296 10.9967Z" fill="black"/>
<path d="M16.6906 11.0886C16.2569 12.0816 15.5059 14.1732 15.4796 14.4608C15.4181 15.1359 16.9556 15.7991 19.4044 16.1538C22.4552 16.5955 24.543 16.5357 25.1906 15.9882C25.6232 15.6224 26.7045 13.2918 26.7688 12.5869C26.7963 12.286 25.0568 11.9224 20.3893 11.2537C17.4737 10.8358 16.8136 10.8063 16.6906 11.0886Z" fill="#FDA119"/>
<path d="M15.1939 17.5932C15.0479 19.1937 15.0965 19.5062 15.5851 20.1057C16.1309 20.7757 16.2274 20.7982 20.1008 21.1569C22.9941 21.4249 24.1848 21.4434 24.5279 21.2259C24.9076 20.9851 25.0336 20.5296 25.1875 18.842C25.3725 16.814 25.3626 16.7621 24.8358 16.9882C24.227 17.2493 16.8241 16.4457 15.9061 16.019C15.3735 15.7711 15.3567 15.8084 15.1939 17.5932Z" fill="#FDA119"/>
<path d="M26.9088 14.2799C26.1799 16.2598 25.4859 20.308 25.9415 19.9228C26.1934 19.7098 28.7018 13.3695 28.7664 12.7825C28.7857 12.6074 28.5355 12.4388 28.21 12.408C27.6847 12.3583 27.539 12.5679 26.9088 14.2799Z" fill="#FDA119"/>
<path d="M21.1418 0.632875C20.0948 0.730947 19.3876 1.69963 18.8586 3.75918L18.5782 4.85013L23.6935 5.15548C29.4907 5.50145 29.4352 5.51705 29.6203 3.48827C29.786 1.67082 29.422 1.46775 25.1339 0.983015C23.2068 0.765053 21.4104 0.607594 21.1418 0.632875Z" fill="#FDA119"/>
<path d="M21.8623 8.20307C21.848 8.35978 23.0548 8.57339 24.9853 8.75616C27.0191 8.94869 28.085 8.95848 28.0001 8.78414C27.9243 8.62869 26.6012 8.39427 24.877 8.23105C23.0497 8.05806 21.8765 8.04713 21.8623 8.20307Z" fill="#FDA119"/>
<path d="M28.7517 8.85529C28.6505 8.99168 28.8511 9.12214 29.2147 9.15655C29.5671 9.18992 29.8662 9.10239 29.879 8.96202C29.8918 8.82164 29.6836 8.68609 29.416 8.66076C29.1485 8.63543 28.8497 8.72298 28.7517 8.85529Z" fill="#FDA119"/>
</svg>
