<svg width="52" height="40" viewBox="0 0 52 40" fill="none" xmlns="http://www.w3.org/2000/svg">
<path d="M24.2839 32.0385L25.3124 31.8741L25.6711 22.5555L23.1037 22.6758L24.2839 32.0385Z" fill="#EEDFA8"/>
<path d="M25.3124 31.8741C25.3124 31.8741 25.9274 31.9499 26.329 31.8856C27.0593 29.3143 27.8794 26.4207 28.7154 23.467L25.6711 22.5555L25.3124 31.8741Z" fill="#EEDFA8"/>
<path d="M26.329 31.8856C26.5191 32.1541 26.8275 32.3972 26.8275 32.3972L31.0499 25.6232L28.7154 23.467C27.8794 26.4207 27.0593 29.3143 26.329 31.8856Z" fill="#EEDFA8"/>
<path d="M26.8275 32.3972L27.7716 33.7308L32.7734 28.3532L31.0499 25.6232L26.8275 32.3972Z" fill="#EEDFA8"/>
<path d="M27.7716 33.7308L28.2437 34.3976L34.1911 30.9665L32.7734 28.3532L27.7716 33.7308Z" fill="#EEDFA8"/>
<path d="M28.2437 34.3976L28.7157 35.0644L34.5411 34.1729L34.1911 30.9665L28.2437 34.3976Z" fill="#EEDFA8"/>
<path d="M21.4389 23.9129L24.2839 32.0385L23.1037 22.6758L21.4389 23.9129Z" fill="#EEDFA8"/>
<path d="M22.7983 32.2761L24.2839 32.0385L21.4389 23.9129L19.0989 26.4252L22.7983 32.2761Z" fill="#EEDFA8"/>
<path d="M21.999 33.7622L22.7983 32.2761L19.0989 26.4252L17.0334 28.8998L21.999 33.7622Z" fill="#EEDFA8"/>
<path d="M21.3774 34.918L21.999 33.7622L17.0334 28.8998L15.6368 32.0199L21.3774 34.918Z" fill="#EEDFA8"/>
<path d="M28.3557 38.7441C29.0867 37.959 28.7157 35.0644 28.7157 35.0644L28.2437 34.3976L27.7716 33.7308L26.8275 32.3972C26.8275 32.3972 26.5191 32.1541 26.329 31.8856C25.9274 31.9499 25.3124 31.8741 25.3124 31.8741L24.2839 32.0385L22.7983 32.2761L21.999 33.7622L21.3774 34.918C21.3774 34.918 21.8086 36.5992 22.3201 37.7155C23.1569 38.7217 24.1698 39.5635 25.1373 39.5339C26.5991 39.4891 26.8289 39.5947 28.3557 38.7441Z" fill="#F8780F"/>
<path d="M2.71314 14.8776L2.35871 20.1569L0.383513 24.3195L15.6368 32.0199L17.0334 28.8998L2.71314 14.8776Z" fill="#D62E00"/>
<path d="M7.87744 8.67771L5.84933 11.9446L2.71314 14.8776L17.0334 28.8998L19.0989 26.4252L7.87744 8.67771Z" fill="#D62E00"/>
<path d="M13.8493 2.23634L10.9016 5.72888L7.87744 8.67771L19.0989 26.4252L21.4389 23.9129L13.8493 2.23634Z" fill="#D62E00"/>
<path d="M20.3744 1.0246L17.209 2.71001L13.8493 2.23634L21.4389 23.9129L23.1037 22.6758L20.3744 1.0246Z" fill="#D62E00"/>
<path d="M26.5282 0.293423L23.6221 1.48248L20.3744 1.0246L23.1037 22.6758L25.6711 22.5555L26.5282 0.293423Z" fill="#D62E00"/>
<path d="M34.9274 1.47761L31.0077 0.924988L26.5282 0.293423L25.6711 22.5555L28.7154 23.467C31.7182 12.859 34.9274 1.47761 34.9274 1.47761Z" fill="#D62E00"/>
<path d="M40.8386 6.04151L37.4261 4.67217L34.9274 1.47761C34.9274 1.47761 31.7182 12.859 28.7154 23.467L31.0499 25.6232L41.9406 8.15093L40.8386 6.04151Z" fill="#D62E00"/>
<path d="M46.0657 14.0618L43.0425 10.2604L41.9406 8.15093L31.0499 25.6232L32.7734 28.3532L46.0657 14.0618Z" fill="#D62E00"/>
<path d="M50.4205 21.6038L47.6212 17.8339L46.0657 14.0618L32.7734 28.3532L34.1911 30.9665L50.4205 21.6038Z" fill="#D62E00"/>
<path d="M51.6745 31.5509L51.1916 28.6406L50.4205 21.6038L34.1911 30.9665L34.5411 34.1729L51.6745 31.5509Z" fill="#D62E00"/>
<path d="M0.383513 24.3195L2.35871 20.1569L2.71314 14.8776M0.383513 24.3195C0.383513 24.3195 8.2769 28.3044 15.6368 32.0199M0.383513 24.3195L15.6368 32.0199M21.3774 34.918C21.7662 36.3603 21.6188 36.3732 22.3201 37.7155M21.3774 34.918C21.6202 34.4666 21.999 33.7622 21.999 33.7622M21.3774 34.918C19.6182 34.0299 17.6474 33.035 15.6368 32.0199M21.3774 34.918L15.6368 32.0199M21.3774 34.918L21.999 33.7622M21.3774 34.918C21.3774 34.918 21.8086 36.5992 22.3201 37.7155M22.7983 32.2761C22.4862 32.8564 21.999 33.7622 21.999 33.7622M22.7983 32.2761C23.3785 32.1833 24.2839 32.0385 24.2839 32.0385M22.7983 32.2761C21.6592 30.4746 20.3953 28.4756 19.0989 26.4252M22.7983 32.2761L24.2839 32.0385M22.7983 32.2761L19.0989 26.4252M22.7983 32.2761L21.999 33.7622M26.329 31.8856C25.9274 31.9499 25.3124 31.8741 25.3124 31.8741M26.329 31.8856C26.5191 32.1541 26.8275 32.3972 26.8275 32.3972M26.329 31.8856C27.0593 29.3143 27.8794 26.4207 28.7154 23.467M28.7157 35.0644C28.9808 36.1676 29.0985 37.783 28.3557 38.7441M28.7157 35.0644C28.5314 34.804 28.2437 34.3976 28.2437 34.3976M28.7157 35.0644C30.5074 34.7902 32.4998 34.4853 34.5411 34.1729M28.7157 35.0644L28.2437 34.3976M28.7157 35.0644L34.5411 34.1729M28.7157 35.0644C28.7157 35.0644 29.0867 37.959 28.3557 38.7441M28.3557 38.7441C26.8289 39.5947 26.5991 39.4891 25.1373 39.5339C24.1698 39.5635 23.1569 38.7217 22.3201 37.7155M51.6745 31.5509L51.1916 28.6406L50.4205 21.6038M51.6745 31.5509C51.6745 31.5509 42.7152 32.922 34.5411 34.1729M51.6745 31.5509L34.5411 34.1729M50.4205 21.6038L47.6212 17.8339L46.0657 14.0618M50.4205 21.6038L34.1911 30.9665M46.0657 14.0618L43.0425 10.2604L41.9406 8.15093M46.0657 14.0618L32.7734 28.3532M34.9274 1.47761L37.4261 4.67217L40.8386 6.04151L41.9406 8.15093M34.9274 1.47761L31.0077 0.924988L26.5282 0.293423M34.9274 1.47761C34.9274 1.47761 31.7182 12.859 28.7154 23.467M26.5282 0.293423L23.6221 1.48248L20.3744 1.0246M26.5282 0.293423L25.6711 22.5555M20.3744 1.0246L17.209 2.71001L13.8493 2.23634M20.3744 1.0246L23.1037 22.6758M13.8493 2.23634L10.9016 5.72888L7.87744 8.67771M13.8493 2.23634L21.4389 23.9129M7.87744 8.67771L5.84933 11.9446L2.71314 14.8776M7.87744 8.67771C7.87744 8.67771 13.7635 17.9868 19.0989 26.4252M7.87744 8.67771L19.0989 26.4252M2.71314 14.8776L17.0334 28.8998M21.999 33.7622L17.0334 28.8998M24.2839 32.0385L25.3124 31.8741M24.2839 32.0385L21.4389 23.9129M24.2839 32.0385L23.1037 22.6758M25.3124 31.8741L25.6711 22.5555M41.9406 8.15093L31.0499 25.6232M26.8275 32.3972L27.7716 33.7308M26.8275 32.3972L31.0499 25.6232M27.7716 33.7308L28.2437 34.3976M27.7716 33.7308L32.7734 28.3532M28.2437 34.3976L34.1911 30.9665M15.6368 32.0199L17.0334 28.8998M17.0334 28.8998L19.0989 26.4252M19.0989 26.4252L21.4389 23.9129M21.4389 23.9129L23.1037 22.6758M23.1037 22.6758L25.6711 22.5555M25.6711 22.5555L28.7154 23.467M28.7154 23.467L31.0499 25.6232M31.0499 25.6232L32.7734 28.3532M32.7734 28.3532L34.1911 30.9665M34.1911 30.9665L34.5411 34.1729" stroke="#EE941F" stroke-width="0.571013"/>
</svg>
