<svg width="79" height="107" viewBox="0 0 79 107" fill="none" xmlns="http://www.w3.org/2000/svg">
<path d="M55.1912 40.5343L39.5885 7.45952C39.5885 7.45952 36.1394 4.87144 33.5515 4.12343C31.7052 3.58976 28.6668 3.52142 28.6668 3.52142C28.6668 3.52142 31.1077 5.55743 31.6868 7.38218C32.2737 9.23117 32.0698 10.5152 31.4189 12.3433C30.5072 14.9035 29.0825 16.5621 26.9727 18.2754C25.301 19.6328 24.1171 20.1486 22.2206 21.1685C20.2506 22.228 18.9712 22.2384 16.784 22.7057C13.9951 23.3016 9.48996 22.3719 9.48996 22.3719L11.6639 27.0249C11.6639 27.0249 13.1668 30.4709 14.2726 32.6085C17.2841 38.4301 20.2353 40.938 23.573 46.5786C26.5013 51.5272 28.0182 54.3861 30.4741 59.5855L33.1022 61.7317C34.2297 59.8633 33.2537 61.0585 34.8591 59.5803C36.4644 58.1021 41.8737 58.5761 45.3524 55.9964C48.1597 53.9144 49.6703 52.0535 51.5669 49.1175C53.5795 46.0018 55.1912 40.5343 55.1912 40.5343Z" fill="#FEE287"/>
<path d="M75.0323 95.9724C76.7925 93.153 77.5015 87.8281 77.5015 87.8281L74.7498 81.9949L60.8052 52.435C60.8052 52.435 58.4034 58.8777 55.7438 62.2906C52.7652 66.1129 50.8444 68.758 46.2412 70.2697C42.1643 71.6085 35.2569 70.0658 35.2569 70.0658L52.7551 104.477C52.7551 104.477 57.4965 105.67 60.5053 105.227C63.4927 104.788 65.0613 103.837 67.6669 102.31L67.7647 102.252C70.982 100.367 73.0429 99.159 75.0323 95.9724Z" fill="#FEE287"/>
<path d="M52.7551 104.477L35.2569 70.0658L30.6447 71.0808C30.6447 71.0808 31.4271 75.4955 32.1366 78.2759C33.6794 84.3224 35.2077 87.5279 37.5955 93.2928C39.1933 97.1505 38.8863 100.238 41.9762 103.046C43.3695 104.312 44.1983 105.386 46.0698 105.592C47.5668 105.757 48.3226 104.877 49.8138 104.665C50.9534 104.503 52.7551 104.477 52.7551 104.477Z" fill="#FEE287"/>
<path d="M27.7397 60.7395C28.5464 59.907 29.3153 59.5825 30.4741 59.5855C28.0182 54.3861 26.5013 51.5272 23.573 46.5786C20.2353 40.938 17.2841 38.4301 14.2726 32.6085C13.1668 30.4709 11.6639 27.0249 11.6639 27.0249L9.48996 22.3719C9.48996 22.3719 13.9951 23.3016 16.784 22.7057C18.9712 22.2384 20.2506 22.228 22.2206 21.1685C24.1171 20.1486 25.301 19.6328 26.9727 18.2754C29.0825 16.5621 30.5072 14.9035 31.4189 12.3433C32.0698 10.5152 32.2737 9.23117 31.6868 7.38218C31.1077 5.55743 28.6668 3.52142 28.6668 3.52142C28.6668 3.52142 26.7191 1.79874 25.1705 1.46316C23.4201 1.08387 22.143 1.55465 20.395 1.94643C17.4407 2.60857 15.9669 3.25446 13.3311 4.74476C10.5535 6.31524 9.14025 7.56364 7.06113 9.98443C4.67282 12.7652 3.46816 14.6252 2.39949 18.1313C1.47366 21.1688 1.00249 22.7681 1.56924 26.2193C2.13598 29.6705 9.76237 40.0821 9.76237 40.0821L17.5857 52.4476L21.3123 57.8815L26.3294 61.9785C26.3294 61.9785 27.2295 61.266 27.7397 60.7395Z" fill="#FEE287"/>
<path d="M35.2569 70.0658C35.2569 70.0658 42.1643 71.6085 46.2412 70.2697C50.8444 68.758 52.7652 66.1129 55.7438 62.2906C58.4034 58.8777 60.8052 52.435 60.8052 52.435L55.1912 40.5343C55.1912 40.5343 53.5795 46.0018 51.5669 49.1175C49.6703 52.0535 48.1597 53.9144 45.3524 55.9964C41.8737 58.5761 36.4644 58.1021 34.8591 59.5803C33.2537 61.0585 34.2297 59.8633 33.1022 61.7317L35.6225 64.9852L35.2569 70.0658Z" fill="#FD4B1B"/>
<path d="M35.6225 64.9852L33.1022 61.7317L30.4741 59.5855C29.3153 59.5825 28.5464 59.907 27.7397 60.7395C27.2295 61.266 26.3294 61.9785 26.3294 61.9785C26.3294 61.9785 25.468 63.193 25.5384 63.9226C25.5483 64.0246 25.1917 64.8348 25.1917 64.8348L25.9537 68.047C25.9537 68.047 26.54 67.9766 26.6268 68.1982C26.869 68.8164 27.865 69.6078 27.865 69.6078L30.6447 71.0808L35.2569 70.0658L35.6225 64.9852Z" fill="#FD4B1B"/>
<path d="M25.1917 64.8348C25.1917 64.8348 20.3165 64.5284 17.2042 66.082C14.7715 67.2963 12.8921 67.9143 11.715 70.3655C10.8467 72.1736 10.6697 73.5169 11.1324 75.468C11.5326 77.1557 12.5426 77.7794 13.3818 79.2971C14.3997 81.1384 14.4841 82.4818 15.838 84.0921C16.9621 85.4291 17.6431 86.3748 19.3023 86.9211C21.4929 87.6425 23.1215 87.0478 25.1193 85.8938C27.9677 84.2484 28.3398 81.7612 29.4342 78.6591C30.4314 75.8326 30.6447 71.0808 30.6447 71.0808L27.865 69.6078C27.865 69.6078 26.869 68.8164 26.6268 68.1982C26.54 67.9766 25.9537 68.047 25.9537 68.047L25.1917 64.8348Z" fill="#FD4B1B"/>
<path d="M25.5384 63.9226C25.468 63.193 26.3294 61.9785 26.3294 61.9785L21.3123 57.8815C21.3123 57.8815 17.4051 57.0687 14.8863 57.2162C12.2278 57.3719 10.7125 57.7631 8.24478 58.7656C7.02044 59.2629 6.24955 59.4524 5.21757 60.2781C1.74574 63.0558 2.16428 71.3322 3.94449 71.5906C5.72471 71.8489 6.01931 68.5666 7.89236 67.2438C9.9865 65.7649 11.5334 65.5223 14.0123 64.87C18.5164 63.6849 25.1917 64.8348 25.1917 64.8348C25.1917 64.8348 25.5483 64.0246 25.5384 63.9226Z" fill="#FD4B1B"/>
<path d="M67.6669 102.31C65.0613 103.837 63.4927 104.788 60.5053 105.227C57.4965 105.67 52.7551 104.477 52.7551 104.477M67.6669 102.31L67.7647 102.252M67.6669 102.31C67.6996 102.291 67.7322 102.271 67.7647 102.252M52.7551 104.477L35.2569 70.0658M52.7551 104.477C52.7551 104.477 50.9534 104.503 49.8138 104.665C48.3226 104.877 47.5668 105.757 46.0698 105.592C44.1983 105.386 43.3695 104.312 41.9762 103.046C38.8863 100.238 39.1933 97.1505 37.5955 93.2928C35.2077 87.5279 33.6794 84.3224 32.1366 78.2759C31.4271 75.4955 30.6447 71.0808 30.6447 71.0808M35.2569 70.0658C35.2569 70.0658 42.1643 71.6085 46.2412 70.2697C50.8444 68.758 52.7652 66.1129 55.7438 62.2906C58.4034 58.8777 60.8052 52.435 60.8052 52.435M35.2569 70.0658C35.2569 70.0658 35.4798 66.9693 35.6225 64.9852M35.2569 70.0658L30.6447 71.0808M35.2569 70.0658L35.6225 64.9852M60.8052 52.435L55.1912 40.5343M60.8052 52.435L74.7498 81.9949M55.1912 40.5343L39.5885 7.45952C39.5885 7.45952 36.1394 4.87144 33.5515 4.12343C31.7052 3.58976 28.6668 3.52142 28.6668 3.52142M55.1912 40.5343C55.1912 40.5343 53.5795 46.0018 51.5669 49.1175C49.6703 52.0535 48.1597 53.9144 45.3524 55.9964C41.8737 58.5761 36.4644 58.1021 34.8591 59.5803C33.2537 61.0585 34.2297 59.8633 33.1022 61.7317M33.1022 61.7317C34.0865 63.0023 34.6383 63.7146 35.6225 64.9852M33.1022 61.7317C32.0759 60.8936 31.5004 60.4237 30.4741 59.5855M33.1022 61.7317L30.4741 59.5855M33.1022 61.7317L35.6225 64.9852M35.6225 64.9852C38.3985 65.0602 40.0453 64.7645 42.6224 63.7284C44.9207 62.8045 47.9819 60.3352 47.9819 60.3352M30.6447 71.0808C30.6447 71.0808 30.4314 75.8326 29.4342 78.6591C28.3398 81.7612 27.9677 84.2484 25.1193 85.8938C23.1215 87.0478 21.4929 87.6425 19.3023 86.9211C17.6431 86.3748 16.9621 85.4291 15.838 84.0921C14.4841 82.4818 14.3997 81.1384 13.3818 79.2971C12.5426 77.7794 11.5326 77.1557 11.1324 75.468C10.6697 73.5169 10.8467 72.1736 11.715 70.3654C12.8921 67.9143 14.7715 67.2963 17.2042 66.082C20.3165 64.5284 25.1917 64.8348 25.1917 64.8348M30.6447 71.0808L27.865 69.6078M30.4741 59.5855C29.3153 59.5825 28.5464 59.907 27.7397 60.7395C27.2295 61.266 26.3294 61.9785 26.3294 61.9785M30.4741 59.5855C28.0182 54.3861 26.5013 51.5272 23.573 46.5786C20.2353 40.938 17.2841 38.4301 14.2726 32.6085C13.1668 30.4709 11.6639 27.0249 11.6639 27.0249M28.6668 3.52142C28.6668 3.52142 26.7191 1.79874 25.1705 1.46316C23.4201 1.08387 22.143 1.55464 20.395 1.94643C17.4407 2.60857 15.9669 3.25446 13.3311 4.74476C10.5535 6.31524 9.14025 7.56364 7.06113 9.98443C4.67282 12.7652 3.46816 14.6252 2.39949 18.1313C1.47366 21.1688 1.00249 22.7681 1.56924 26.2193C2.13598 29.6705 9.76237 40.0821 9.76237 40.0821L17.5857 52.4476L21.3123 57.8815M28.6668 3.52142C28.6668 3.52142 31.1077 5.55743 31.6868 7.38218C32.2737 9.23117 32.0698 10.5152 31.4189 12.3433C30.5072 14.9035 29.0825 16.5621 26.9727 18.2754C25.301 19.6328 24.1171 20.1486 22.2206 21.1685C20.2506 22.228 18.9712 22.2384 16.784 22.7057C13.9951 23.3016 9.48996 22.3719 9.48996 22.3719M21.3123 57.8815L26.3294 61.9785M21.3123 57.8815C21.3123 57.8815 17.4051 57.0687 14.8863 57.2162C12.2278 57.3719 10.7125 57.7631 8.24478 58.7656C7.02044 59.2629 6.24955 59.4524 5.21757 60.2781C1.74574 63.0558 2.16428 71.3322 3.94449 71.5906C5.72471 71.8489 6.0193 68.5666 7.89236 67.2438C9.98649 65.7649 11.5334 65.5223 14.0123 64.87C18.5164 63.6849 25.1917 64.8348 25.1917 64.8348M26.3294 61.9785C26.3294 61.9785 25.468 63.193 25.5384 63.9226C25.5483 64.0246 25.1917 64.8348 25.1917 64.8348M25.1917 64.8348L25.9537 68.047M11.4083 18.3159C11.4083 18.3159 14.4546 18.7387 16.3249 18.147C18.6718 17.4046 19.7043 17.3206 22.3037 15.4588C24.0917 14.1781 25.7061 12.959 26.1103 10.7974C26.3542 9.49299 26.2912 8.48792 25.4459 7.46567C24.3125 6.09496 22.9477 6.35303 21.1687 6.3636C17.7455 6.38392 15.427 7.66951 12.8679 9.94489C9.6449 12.8106 8.40299 20.0454 8.40299 20.0454L9.48996 22.3719M9.48996 22.3719L11.6639 27.0249M38.1041 11.228C38.1041 11.228 37.5447 14.0653 36.8047 15.7453C35.685 18.2874 34.6665 19.601 32.6733 21.536C30.5401 23.6069 29.0346 24.5385 26.294 25.6903C23.4486 26.8862 21.6449 27.1226 18.5672 27.3495C15.8754 27.548 11.6639 27.0249 11.6639 27.0249M27.865 69.6078C27.865 69.6078 26.869 68.8164 26.6268 68.1982C26.54 67.9766 25.9537 68.047 25.9537 68.047M27.865 69.6078C27.865 69.6078 26.3632 72.6413 24.4708 74.0083C22.8955 75.1462 19.8266 75.7941 19.8266 75.7941M25.9537 68.047L19.6386 70.6599M74.7498 81.9949L77.5015 87.8281C77.5015 87.8281 76.7925 93.153 75.0323 95.9724C73.0429 99.159 70.982 100.367 67.7647 102.252M74.7498 81.9949C74.7498 81.9949 73.6803 85.8641 72.4872 88.1164C71.0756 90.7811 70.0992 92.2837 67.8459 94.2876C66.0944 95.8453 64.9398 96.5806 62.8011 97.5393C60.9405 98.3734 59.8183 98.7562 57.7984 99.0325C55.8874 99.294 52.8599 98.9842 52.8599 98.9842" stroke="black" stroke-width="2.65372"/>
</svg>
