<svg width="138" height="326" viewBox="0 0 138 326" fill="none" xmlns="http://www.w3.org/2000/svg">
<path d="M53.801 27.6258C63.3754 27.702 73.1178 27.7646 82.809 27.8069M53.801 27.6258C53.801 27.6258 55.8173 24.3862 57.7747 23.5511C59.0901 22.9899 61.351 23.0999 61.351 23.0999C61.351 23.0999 61.0313 18.4029 61.351 15.4295C61.6918 12.261 63.1392 7.51187 63.1392 7.51187M53.801 27.6258L40.4867 46.1076C33.6105 53.1201 20.4195 60.3545 20.4195 60.3545M13.8654 70.0246L124.533 70.7014M13.8654 70.0246L13.2693 68.4454M13.8654 70.0246L14.6601 315.345M124.533 70.7014L125.228 68.7838M124.533 70.7014V315.67M13.2693 68.4454C13.2693 68.4454 12.8627 67.5018 12.6732 66.8662C12.2702 65.514 12.1646 63.2566 12.1646 63.2566M13.2693 68.4454C13.2693 68.4454 2.93771 69.1222 2.14297 68.4454C1.34823 67.7686 1.23309 67.1699 1.14953 66.1894C1.04543 64.968 1.34823 64.159 2.14297 63.2566C2.86041 62.442 10.4494 63.0982 11.919 63.2335M12.1646 63.2566C12.1646 63.2566 12.0773 63.2481 11.919 63.2335M12.1646 63.2566C12.1646 63.2566 12.0476 63.2811 11.919 63.2335M125.228 68.7838C125.228 68.7838 125.718 67.6417 125.924 66.8662C126.284 65.5067 126.305 63.2566 126.305 63.2566M125.228 68.7838C125.228 68.7838 134.467 69.799 135.46 68.7838C136.454 67.7686 136.642 67.3321 136.653 66.1894C136.665 64.8447 135.858 63.9334 135.063 63.2566C134.268 62.5798 126.305 63.2566 126.305 63.2566M126.305 63.2566C126.305 63.2566 126.52 62.5798 126.52 61.2262C126.52 60.9935 123.155 60.7742 117.579 60.5819M14.6601 315.345C12.5622 315.51 11.3616 315.703 11.2824 315.928M14.6601 315.345C14.7157 315.341 14.772 315.337 14.8288 315.332M11.2824 315.928C10.7491 317.442 11.0605 317.838 11.323 317.935M11.2824 315.928C11.3637 315.697 12.6266 315.5 14.8288 315.332M12.6732 323.147C12.6732 323.147 12.2666 322.204 12.0772 321.568C11.6741 320.216 11.5686 317.958 11.5686 317.958M12.6732 323.147L13.2693 324.727L123.937 325.403L124.632 323.486M12.6732 323.147C12.6732 323.147 2.34164 323.824 1.5469 323.147C0.752162 322.471 0.637053 321.872 0.553493 320.891C0.449393 319.67 0.752162 318.861 1.5469 317.958C2.26434 317.144 9.85352 317.8 11.323 317.935M11.323 317.935C11.4517 317.983 11.5686 317.958 11.5686 317.958M11.323 317.935C11.4813 317.95 11.5686 317.958 11.5686 317.958M124.632 323.486C124.632 323.486 125.122 322.344 125.328 321.568C125.688 320.209 125.709 317.958 125.709 317.958M124.632 323.486C124.632 323.486 133.871 324.501 134.864 323.486C135.858 322.471 136.046 322.034 136.057 320.891C136.069 319.547 135.262 318.635 134.467 317.958C133.672 317.282 125.709 317.958 125.709 317.958M125.709 317.958C125.709 317.958 125.924 317.282 125.924 315.928C125.924 315.84 125.439 315.753 124.533 315.67M124.533 315.67C112.97 314.601 32.7609 313.968 14.8288 315.332M20.4219 60.3579C15.1925 60.5701 12.0091 60.8555 11.8785 61.2262C11.3452 62.7402 11.6565 63.1366 11.919 63.2335M20.4219 60.3579C20.4219 60.3579 32.1944 51.8545 38.8997 45.2087M20.4219 60.3579C20.4219 60.3579 33.6129 53.1236 40.4891 46.1111M20.4219 60.3579C41.5447 59.501 96.0482 59.8395 117.579 60.5819M82.809 27.8069C82.809 27.8069 91.7052 39.4676 97.909 45.4343C105.197 52.4433 117.579 60.5819 117.579 60.5819M82.809 27.8069C82.809 27.8069 90.0508 39.7875 96.1208 45.8855C103.45 53.2486 117.579 60.5819 117.579 60.5819M82.809 27.8069C82.809 27.8069 82.8323 24.6175 81.6169 23.5511C80.5049 22.5755 78.0405 23.0999 78.0405 23.0999C78.0405 23.0999 77.8482 18.4015 77.4445 15.4295C77.0151 12.2686 75.855 7.44098 75.855 7.44098M63.1392 7.51187C63.1392 7.51187 64.9274 0.765561 68.5037 0.539961C72.08 0.314361 75.855 7.44098 75.855 7.44098M63.1392 7.51187C67.3743 7.48685 71.618 7.46314 75.855 7.44098M53.7985 27.6223C63.373 27.6985 73.1154 27.7612 82.8065 27.8034M53.7985 27.6223C53.7985 27.6223 55.8149 24.3827 57.7722 23.5476C59.0877 22.9864 61.3486 23.0965 61.3486 23.0965C61.3486 23.0965 61.0288 18.3994 61.3486 15.4261C61.6893 12.2575 63.1368 7.5084 63.1368 7.5084M53.7985 27.6223L38.8972 45.2052C32.1919 51.851 20.4195 60.3545 20.4195 60.3545M13.8629 70.0212L124.53 70.698M13.8629 70.0212L13.2668 68.442M13.8629 70.0212L14.6576 315.342M124.53 70.698L125.226 68.7804M124.53 70.698V315.666M13.2668 68.442C13.2668 68.442 12.8602 67.4983 12.6708 66.8628C12.2677 65.5106 12.1622 63.2532 12.1622 63.2532M13.2668 68.442C13.2668 68.442 2.93527 69.1188 2.14053 68.442C1.34579 67.7652 1.23065 67.1664 1.14709 66.186C1.04299 64.9645 1.34579 64.1556 2.14053 63.2532C2.85797 62.4385 10.447 63.0947 11.9165 63.2301M12.1622 63.2532C12.1622 63.2532 12.0748 63.2446 11.9165 63.2301M12.1622 63.2532C12.1622 63.2532 12.0452 63.2776 11.9165 63.2301M125.226 68.7804C125.226 68.7804 125.716 67.6383 125.921 66.8628C126.281 65.5032 126.303 63.2532 126.303 63.2532M125.226 68.7804C125.226 68.7804 134.465 69.7956 135.458 68.7804C136.451 67.7652 136.639 67.3287 136.65 66.186C136.663 64.8412 135.855 63.93 135.061 63.2532C134.266 62.5764 126.303 63.2532 126.303 63.2532M126.303 63.2532C126.303 63.2532 126.517 62.5764 126.517 61.2228C126.517 60.9901 123.153 60.7707 117.576 60.5784M14.6576 315.342C12.5598 315.507 11.3591 315.7 11.28 315.925M14.6576 315.342C14.7133 315.338 14.7695 315.333 14.8264 315.329M11.28 315.925C10.7467 317.439 11.0581 317.835 11.3206 317.932M11.28 315.925C11.3612 315.694 12.6242 315.496 14.8264 315.329M12.6708 323.144C12.6708 323.144 12.2642 322.2 12.0747 321.565C11.6717 320.212 11.5661 317.955 11.5661 317.955M12.6708 323.144L13.2668 324.723L123.934 325.4L124.63 323.482M12.6708 323.144C12.6708 323.144 2.3392 323.821 1.54446 323.144C0.74972 322.467 0.634612 321.868 0.551051 320.888C0.446952 319.666 0.74972 318.857 1.54446 317.955C2.2619 317.14 9.85108 317.797 11.3206 317.932M11.3206 317.932C11.4492 317.979 11.5661 317.955 11.5661 317.955M11.3206 317.932C11.4789 317.946 11.5661 317.955 11.5661 317.955M124.63 323.482C124.63 323.482 125.12 322.34 125.325 321.565C125.685 320.205 125.707 317.955 125.707 317.955M124.63 323.482C124.63 323.482 133.869 324.497 134.862 323.482C135.855 322.467 136.043 322.031 136.054 320.888C136.067 319.543 135.259 318.632 134.465 317.955C133.67 317.278 125.707 317.955 125.707 317.955M125.707 317.955C125.707 317.955 125.921 317.278 125.921 315.925C125.921 315.836 125.437 315.75 124.53 315.666M124.53 315.666C112.967 314.598 32.7585 313.965 14.8264 315.329M20.4195 60.3545C15.1901 60.5666 12.0067 60.852 11.8761 61.2228C11.3427 62.7367 11.654 63.1331 11.9165 63.2301M20.4195 60.3545C41.5423 59.4975 96.0458 59.836 117.576 60.5784M82.8065 27.8034C82.8065 27.8034 91.7027 39.4641 97.9066 45.4308C105.194 52.4399 117.576 60.5784 117.576 60.5784M82.8065 27.8034C82.8065 27.8034 90.0484 39.784 96.1184 45.882C103.448 53.2451 117.576 60.5784 117.576 60.5784M82.8065 27.8034C82.8065 27.8034 82.8298 24.614 81.6144 23.5476C80.5025 22.572 78.0381 23.0965 78.0381 23.0965C78.0381 23.0965 77.8458 18.398 77.4421 15.4261C77.0127 12.2651 75.8526 7.43751 75.8526 7.43751M63.1368 7.5084C63.1368 7.5084 64.9249 0.762095 68.5013 0.536495C72.0776 0.310896 75.8526 7.43751 75.8526 7.43751M63.1368 7.5084C67.3719 7.48338 71.6155 7.45967 75.8526 7.43751" stroke="black" stroke-width="1.05882"/>
<path d="M68.1194 100.169C62.3514 102.346 61.5609 103.726 63.6397 108.02L64.7523 110.289L64.6645 118.6C64.6059 123.384 64.6937 127.493 64.8694 128.29L65.1622 129.64L62.8784 132.154C58.7501 136.724 57.9596 138.594 59.5699 140.158C60.3019 140.864 60.5068 140.925 62.0879 140.741C63.0248 140.649 64.2253 140.281 64.723 139.974C65.5136 139.453 66.8311 139.208 68.0608 139.3C68.2365 139.33 68.4122 139.576 68.4122 139.913C68.4122 140.465 65.3964 143.47 64.1082 144.206C63.7568 144.39 62.205 146.108 60.6825 148.04C57.7839 151.689 56.5835 152.824 55.5587 152.824C54.9731 152.824 54.9438 152.67 54.9438 150.125C54.9438 148.653 54.7389 146.506 54.5046 145.31C53.7434 141.508 53.8312 141.078 55.8222 138.993C57.8132 136.908 58.0767 136.172 57.5789 134.27C57.1983 132.829 56.6713 132.185 55.5587 131.817C54.8853 131.602 54.8853 131.602 55.9393 130.468C56.5249 129.824 57.1398 128.842 57.2861 128.229C57.8424 126.205 58.7794 125.132 61.2095 123.813C62.4685 123.108 63.6397 122.31 63.7861 122.004C63.9618 121.728 64.0203 120.409 63.9618 119.06C63.8739 116.821 63.7861 116.576 62.9663 115.686C61.9708 114.644 60.5654 114.429 58.9551 115.073C58.4866 115.257 57.7839 115.41 57.374 115.41C56.7298 115.41 56.6713 115.318 56.847 114.705C56.9641 114.337 57.1398 113.356 57.1983 112.558C57.3154 111.332 57.2276 110.902 56.5542 109.89C55.6172 108.48 54.5046 107.866 52.3087 107.621C49.9957 107.314 48.1804 106.793 47.2727 106.149C46.8628 105.842 46.3651 105.597 46.1894 105.597C45.9844 105.597 45.311 105.321 44.6376 104.953C43.1151 104.125 41.1827 104.278 40.1579 105.29C39.3967 106.057 38.0205 108.878 37.757 110.228C37.3471 112.436 39.221 114.245 43.2908 115.625C44.6376 116.085 45.7795 116.484 45.838 116.545C46.3065 116.913 45.0475 117.22 40.5971 117.864C32.0183 119.121 32.3111 119.029 30.2909 120.685C28.944 121.789 28.8269 122.893 29.9102 124.242C30.9643 125.561 32.1355 125.684 34.7413 124.764C35.9417 124.365 37.2007 123.997 37.5521 123.997C38.1377 123.997 38.1377 123.997 37.4642 126.052C36.8787 127.769 36.7908 128.505 36.9372 130.253C37.0543 131.418 37.2593 132.676 37.4057 133.105C37.6985 133.933 37.7863 133.872 35.1805 134.424C30.5251 135.436 29.2954 136.325 29.4418 138.472C29.4711 139.054 31.462 139.944 32.8381 140.005C34.7413 140.066 40.3043 139.637 41.0363 139.33C41.4462 139.177 41.9439 139.024 42.0903 139.024C42.6466 139.024 42.3246 140.404 41.3583 142.213C39.3381 146.016 37.757 151.72 37.3764 156.504C37.1714 159.018 37.23 159.601 37.6985 160.766C37.9913 161.502 38.2548 162.33 38.2548 162.606C38.2548 163.312 39.2795 164.416 40.1579 164.661C41.1534 164.906 42.061 164.538 42.061 163.833C42.061 163.496 42.266 162.882 42.5295 162.453L43.0273 161.686L43.8471 163.434C44.3155 164.385 44.6962 165.366 44.6962 165.581C44.6962 165.826 44.9597 166.286 45.2817 166.624C45.6331 166.992 46.0137 167.605 46.1601 168.004C46.3065 168.402 46.775 168.985 47.1849 169.261C47.829 169.69 48.1218 169.721 49.0295 169.445C50.6105 168.954 51.5475 167.728 52.3087 165.09C53.2164 162.054 53.5092 161.41 55.5587 158.742C56.5249 157.485 57.4911 156.044 57.7546 155.522C58.4866 154.02 58.4866 154.725 57.7546 157.148C55.8515 163.312 55.4416 165.428 55.6465 167.942C55.8222 170.089 55.9686 170.518 56.8762 171.776C58.2524 173.677 58.9843 174.137 62.2636 175.18C65.6307 176.253 70.9595 176.866 74.3265 176.59C81.0607 176.008 85.5111 174.934 87.912 173.309C90.3715 171.622 94.207 167.329 95.2318 165.09C97.0471 161.196 97.9255 151.904 96.9885 146.966C96.4908 144.39 94.9683 140.557 94.4705 140.557C94.3241 140.557 93.475 139.392 92.5967 137.981C91.7183 136.57 90.6935 135.19 90.3129 134.914C89.6688 134.424 89.6102 134.454 89.0832 135.098C88.7026 135.589 88.4976 135.681 88.3805 135.405C87.9999 134.178 84.1643 131.48 80.7679 129.977C79.5968 129.456 78.6598 128.965 78.6598 128.873C78.6598 128.781 79.0405 128.352 79.4797 127.892C80.036 127.309 80.9143 126.941 82.3197 126.634C85.921 125.837 87.2093 125.346 87.7656 124.58C88.4976 123.537 89.0246 121.421 88.7904 120.286C88.5562 119.029 86.858 116.116 85.6868 114.95C84.8084 114.092 84.6328 114.03 82.4954 114.061C80.9436 114.061 79.5382 114.306 78.1328 114.797C76.9617 115.196 75.9369 115.441 75.8491 115.318C75.7612 115.226 75.8783 114.092 76.1711 112.834C77.0202 108.725 76.4054 104.861 74.268 101.365C73.4775 100.077 73.1554 99.7702 72.5112 99.7702C72.0721 99.7702 71.3401 99.7089 70.8716 99.6169C70.3739 99.5248 69.2613 99.7395 68.1194 100.169ZM73.6531 106.793C73.8581 107.774 73.8581 109.43 73.6824 111.761C73.536 113.693 73.3896 116.024 73.3603 116.944C73.3018 118.814 72.1599 122.126 70.5788 125.101C69.6419 126.88 68.8221 127.922 68.6171 127.646C67.3874 125.96 67.241 125.5 67.241 123.261C67.241 120.501 67.9437 118.048 69.5833 115.104C71.5158 111.608 72.1599 110.044 72.5112 108.02C73.1261 104.677 73.2139 104.585 73.6531 106.793ZM44.257 106.701C44.579 106.946 45.0182 107.13 45.2232 107.13C45.4574 107.13 45.9844 107.406 46.4236 107.713C47.3606 108.418 50.347 109.277 51.8402 109.277C53.5384 109.277 54.7682 109.982 55.3537 111.27C55.8808 112.405 55.8808 112.466 55.2366 114.092C54.6218 115.625 54.6218 115.778 55.0609 116.3C55.7929 117.158 57.1398 117.312 59.2771 116.79C61.1217 116.33 61.2388 116.33 61.7658 116.913C62.1757 117.342 62.3514 117.956 62.3807 119.274L62.41 121.022L61.0924 121.85C59.2186 122.985 58.0767 123.169 56.2614 122.586C55.0609 122.188 54.5339 122.157 53.8312 122.402C53.0992 122.678 52.6015 122.617 51.3132 122.126C48.2975 121.022 46.4236 121.605 43.9349 124.365C42.1196 126.389 40.3629 127.585 40.1286 126.941C40.0408 126.696 40.0994 125.99 40.275 125.316C40.7142 123.721 40.6849 123.2 40.1286 122.648C39.4552 121.912 37.3471 122.034 34.8584 122.954C32.4868 123.813 31.6084 123.813 31.1107 122.985C30.8472 122.556 30.935 122.31 31.667 121.697C32.7503 120.777 33.7751 120.47 37.3764 120.01C45.8673 118.968 46.8043 118.661 48.356 116.392C49.0295 115.349 49.1466 114.981 48.9123 114.552C48.4732 113.846 47.3898 113.693 47.1556 114.306C46.9506 114.858 45.7209 114.981 45.4281 114.49C45.3403 114.306 44.9304 114.184 44.5205 114.184C44.1106 114.184 43.1151 113.877 42.3246 113.54C41.212 113.018 40.7142 112.589 40.275 111.7C39.5723 110.197 39.5723 109.737 40.3921 108.05C41.3583 105.996 42.6466 105.536 44.257 106.701ZM79.9774 116.269C79.8017 116.422 78.6598 117.465 77.4008 118.63L75.1171 120.746L75.7027 119.121C76.0247 118.232 76.3175 117.434 76.3761 117.404C76.4346 117.342 77.1373 117.036 77.9279 116.698C79.4797 116.054 80.4166 115.84 79.9774 116.269ZM85.4233 117.802C87.2386 119.765 87.5314 120.9 86.7409 122.893C86.4481 123.629 86.0967 123.966 85.5111 124.089C80.7094 125.101 79.3625 125.592 78.2792 126.696C76.0247 128.965 76.1126 129.762 78.8062 131.02C79.8603 131.51 81.0022 132.032 81.3535 132.154C82.349 132.461 85.1012 134.332 86.2138 135.436C87.385 136.632 87.4143 137.49 86.3017 139.484C85.1012 141.63 84.3985 142.336 82.9639 142.704C82.2904 142.888 81.1486 143.256 80.4166 143.501C79.6846 143.746 78.6013 143.93 77.9571 143.93C74.2387 143.93 61.9708 152.916 59.892 157.178C59.16 158.712 58.8965 158.528 59.4528 156.902C61.7366 150.094 65.4257 145.586 70.0225 143.93C70.9887 143.593 72.277 143.01 72.8626 142.612C74.9121 141.324 78.6598 138.38 79.099 137.705C79.6846 136.846 79.6553 135.466 79.0698 135.221C78.8062 135.129 76.786 135.037 74.5315 135.037H70.4617L69.964 134.24C69.4662 133.442 69.4955 133.381 70.7838 130.866C71.4865 129.456 72.5698 127.616 73.1847 126.818C73.7995 126.021 74.7657 124.641 75.3513 123.752C76.8445 121.421 82.6125 116.637 83.9301 116.637C84.1643 116.637 84.8377 117.158 85.4233 117.802ZM51.606 124.15C52.133 124.549 52.1038 124.58 51.1083 124.61C49.8785 124.61 47.1263 125.438 46.3065 126.021C45.3696 126.726 45.1353 126.512 45.8966 125.653C47.3606 123.997 50.3763 123.2 51.606 124.15ZM55.7636 124.733C55.8515 125.193 55.7636 125.254 55.3537 125.07C55.0317 124.948 54.4168 124.764 53.9191 124.672C53.1578 124.549 53.0992 124.488 53.6263 124.273C54.5925 123.874 55.6465 124.089 55.7636 124.733ZM50.0249 127.984C50.6105 127.984 48.3853 130.498 47.2142 131.112C46.0723 131.725 42.6173 132.952 42.471 132.798C42.2953 132.614 44.3155 129.793 44.9597 129.333C45.838 128.658 48.8245 127.677 49.3222 127.861C49.5565 127.922 49.8493 127.984 50.0249 127.984ZM55.9979 135.16C56.2028 136.08 55.9686 136.54 55.2952 136.509C54.0947 136.509 50.5812 137 49.1173 137.368C47.9461 137.674 47.4191 137.705 47.1263 137.46C45.5745 136.08 48.9123 134.485 53.392 134.454C55.7344 134.424 55.8222 134.454 55.9979 135.16ZM90.7521 142.52C93.153 148.684 92.8602 153.713 89.7273 159.785C87.8535 163.404 85.1305 166.409 81.7927 168.525C79.0112 170.304 78.8062 170.396 76.4932 170.518C74.063 170.702 70.0225 170.181 69.7005 169.66C69.6126 169.506 69.232 169.476 68.8806 169.568C67.7388 169.844 65.9235 168.648 64.7816 166.838C64.196 165.918 63.7275 165.121 63.7275 165.029C63.7275 164.937 64.6059 164.876 65.7185 164.876C66.8311 164.906 68.5586 164.661 69.7297 164.324C71.8086 163.741 74.5608 163.618 80.8851 163.894C83.9886 164.017 84.8377 163.649 85.394 161.84C85.9503 160.122 85.3355 158.466 83.8422 157.669C82.8175 157.148 82.349 157.086 80.1531 157.27C78.777 157.393 75.3806 157.516 72.5991 157.577C69.8176 157.608 67.0946 157.761 66.509 157.853C65.1036 158.129 64.8109 157.884 65.3379 156.81C65.9235 155.614 66.8311 155.001 67.768 155.185C68.2072 155.277 70.8131 155.4 73.5946 155.492C78.8648 155.645 79.5968 155.553 84.2814 154.02C86.858 153.161 88.1755 151.812 87.912 150.309C87.6192 148.684 86.0967 147.334 84.2229 147.028C83.3445 146.874 82.1441 146.844 81.5292 146.936C80.9143 146.997 80.4166 146.966 80.4166 146.813C80.4166 146.568 82.3783 145.28 84.8084 143.93C86.3017 143.102 88.8197 139.054 88.9368 137.337C88.9661 137 89.1417 137.398 89.3467 138.257C89.5517 139.085 90.1665 141.017 90.7521 142.52ZM50.7569 140.496C51.8695 141.416 52.3673 143.685 52.5429 148.776C52.6893 153.928 52.4258 156.78 51.2254 161.717C50.3177 165.55 49.7029 167.206 49.0587 167.544C48.2389 168.034 47.9169 167.912 47.5362 166.992C47.3313 166.532 46.9214 165.765 46.6286 165.305C45.9552 164.232 46.1016 164.078 47.302 164.569C48.1804 164.906 48.2975 164.876 48.8245 164.201C49.293 163.618 49.3808 163.005 49.3808 160.736C49.3808 157.332 49.1466 156.81 47.6533 156.81C46.7164 156.81 46.3358 157.025 45.4574 158.037C44.8718 158.712 44.4034 159.417 44.4034 159.632C44.4034 159.908 44.3155 159.908 44.0813 159.662C43.6128 159.172 44.6083 157.546 46.9799 154.848C50.2592 151.106 51.1375 147.917 48.9416 147.672C48.1804 147.58 47.7412 147.948 45.1061 150.861C42.8516 153.345 42.0025 154.081 41.6219 153.928C41.1827 153.774 41.1241 153.468 41.2998 151.965C41.739 148.162 42.9101 145.034 44.8718 142.581C46.3943 140.71 47.2434 140.281 49.82 139.974C49.9957 139.974 50.4056 140.189 50.7569 140.496ZM85.6868 149.604C86.6237 150.646 86.331 150.892 83.1395 151.75C81.0314 152.333 80.1238 152.425 78.3671 152.272L76.1711 152.057L77.1959 151.628C77.7522 151.382 78.6013 150.922 79.0405 150.585C80.0652 149.849 82.8467 148.898 84.1057 148.868C84.6913 148.837 85.2184 149.082 85.6868 149.604ZM47.6826 160.828L47.5655 163.097L46.7164 162.024C46.2772 161.441 45.8673 160.797 45.8673 160.582C45.8673 160.122 47.3313 158.313 47.5655 158.466C47.6826 158.528 47.7119 159.601 47.6826 160.828ZM83.3738 159.448C84.0765 160.092 84.0765 161.196 83.4323 161.87C82.9931 162.33 82.5832 162.361 80.0067 162.146C75.3513 161.717 72.0721 161.87 69.2906 162.637C65.8063 163.588 62.3221 163.128 64.401 161.993C64.7523 161.778 65.8356 161.073 66.8018 160.398L68.5586 159.172L72.804 159.325C75.8783 159.448 77.4008 159.386 78.3671 159.08C80.036 158.558 82.6418 158.742 83.3738 159.448ZM91.6012 164.293C91.5133 167.574 91.1913 168.28 88.8782 170.304C85.9796 172.818 84.7206 173.34 78.8941 174.29C73.1847 175.241 65.8649 174.934 64.6059 173.708C64.3424 173.432 63.6983 173.002 63.2298 172.726C61.0631 171.5 59.9505 167.39 61.2681 165.642C61.9122 164.784 62.2636 164.814 62.2636 165.704C62.2636 166.593 64.8401 169.966 65.982 170.549C67.973 171.592 71.8671 172.205 75.9662 172.082C80.0945 171.99 79.2161 172.328 84.2521 168.893C86.2724 167.513 87.8242 165.918 89.0246 163.956C89.9908 162.361 90.957 161.349 91.3377 161.502C91.5719 161.594 91.6597 162.484 91.6012 164.293Z" fill="#FF0000"/>
<path d="M45.8175 142.8C43.5923 144.578 42.4504 147.308 43.7094 147.829C44.2364 148.044 49.0675 147.062 49.6238 146.602C50.0044 146.296 50.0922 144.854 49.7995 143.689C49.6531 143.137 47.8378 141.788 47.2229 141.788C47.1643 141.788 46.5202 142.248 45.8175 142.8ZM48.2184 144.701C48.2184 145.284 48.0134 145.437 46.8715 145.621C46.1396 145.713 45.4662 145.774 45.4076 145.682C45.3198 145.621 45.7297 145.13 46.3152 144.609C47.4571 143.566 48.2184 143.597 48.2184 144.701Z" fill="#FF0000"/>
<path d="M72.1233 192.856C71.3275 193.139 69.8155 193.989 68.781 194.758C67.7464 195.527 66.0354 196.66 65.0009 197.308C63.3297 198.401 59.3905 201.032 49.045 207.872C46.9759 209.248 43.5938 211.434 41.5247 212.77C36.4315 216.008 35.1185 217.344 35.1185 219.125C35.1185 220.663 36.1928 221.836 37.6252 221.836C38.7792 221.836 41.4849 220.055 44.2702 217.384C45.6629 216.048 46.9759 214.956 47.0953 214.956C47.2545 214.956 47.3341 216.291 47.3341 217.87C47.2943 221.229 48.0503 223.213 49.6419 223.941C50.1989 224.184 50.6366 224.508 50.6366 224.67C50.6366 224.953 45.2252 227.139 43.1561 227.705C42.599 227.867 41.4451 227.705 40.4106 227.301C38.8587 226.694 38.4211 226.653 37.0284 227.139C35.1583 227.746 32.7708 230.336 30.662 234.02C28.951 236.934 28.752 238.715 29.906 240.86C30.7813 242.6 33.3279 243.734 34.8001 243.005C35.3174 242.762 36.7897 242.034 38.1027 241.427C40.5697 240.212 42.9969 237.986 46.4189 233.817C48.7267 231.024 50.9947 229.486 56.6052 227.017C61.1015 224.994 61.6585 224.913 72.1233 224.022C81.673 223.253 88.8352 223.334 88.8352 224.224C88.8352 224.346 88.0394 224.791 87.0844 225.196C86.0897 225.601 84.2991 226.936 83.1054 228.11L80.8772 230.255L77.495 229.972C73.8741 229.608 72.9589 229.082 72.9191 227.26C72.9191 225.722 71.6856 225.074 68.8605 225.074C66.6323 225.074 65.8365 225.277 63.7276 226.41C61.5789 227.584 61.1412 227.989 60.9025 229.163C60.7433 229.932 60.7433 230.943 60.8229 231.389C61.1412 232.603 59.6292 233.453 52.8251 236.003C46.6178 238.351 45.066 239.443 45.066 241.508C45.066 243.329 45.9016 243.855 48.8063 243.855C50.756 243.855 51.8303 243.572 53.979 242.56C55.491 241.831 56.9235 241.265 57.2418 241.265C58.6345 241.265 55.1727 246.405 53.024 247.539C52.3874 247.862 51.3926 248.996 50.7958 250.088C48.488 254.136 43.7131 259.641 36.909 266.076C34.0839 268.748 31.7363 271.257 31.7363 271.581C31.7363 272.633 33.3677 272.391 35.5959 271.014C36.7499 270.286 39.0577 268.991 40.6891 268.141C44.2304 266.279 47.8911 262.838 52.0691 257.617C53.7005 255.553 55.2125 253.731 55.4115 253.61C55.6502 253.448 56.446 253.893 57.1622 254.541C57.9182 255.188 58.7538 255.836 59.0324 255.917C59.868 256.2 57.5601 258.953 55.0533 260.693C53.8199 261.543 52.467 262.596 52.0691 263.081C51.6314 263.567 50.6366 264.336 49.8806 264.822C47.4534 266.319 43.2357 269.922 42.7184 270.974C42.2011 271.905 42.3603 272.836 43.0765 272.836C43.8723 272.836 49.6021 269.193 53.7801 266.036C59.6292 261.584 61.8973 260.288 64.0459 260.288C64.9611 260.288 65.7967 260.45 65.9559 260.653C66.0752 260.855 66.6721 261.138 67.3087 261.3C67.9454 261.422 68.7014 261.826 68.9799 262.191C69.9747 263.365 78.7285 269.719 81.1557 270.974C83.2248 272.026 89.0342 273.241 92.1378 273.241C95.2016 273.241 94.6048 273.443 102.165 269.234C107.139 266.441 108.929 264.741 107.457 264.255C107.178 264.134 105.905 264.417 104.632 264.822C102.682 265.429 101.329 265.51 96.1566 265.348C88.8352 265.145 83.8216 264.498 82.5086 263.648C81.9913 263.284 80.7976 262.353 79.9222 261.543C79.007 260.734 77.4154 259.357 76.3013 258.467C75.227 257.577 74.0731 256.565 73.7945 256.16C73.516 255.755 73.1181 255.431 72.9191 255.431C72.7202 255.431 71.9642 255.067 71.2877 254.662L70.0542 253.893L71.5663 252.193C73.0385 250.534 78.2112 246.81 79.6835 246.324C80.0814 246.203 80.6384 245.474 80.8772 244.705C81.3944 243.127 81.0761 242.196 79.3254 240.334L78.2908 239.201L79.9222 239.484C81.4342 239.727 81.673 239.605 82.8667 238.31C83.9012 237.136 84.5379 236.812 86.607 236.448C87.9996 236.205 90.0289 236.003 91.1828 236.003C93.8488 236.003 95.7985 234.991 98.1063 232.36C100.295 229.891 101.17 226.855 100.374 224.467C99.8173 222.767 96.5943 220.258 93.2519 218.963C90.2279 217.748 82.3892 217.425 78.0919 218.315C76.4605 218.679 75.0678 218.882 74.9882 218.801C74.9086 218.72 75.5055 218.194 76.3809 217.667C77.4154 216.979 78.6887 216.615 80.3997 216.453C83.7421 216.17 84.8562 215.401 84.8562 213.377C84.8562 210.665 83.8614 209.006 81.2751 207.306C79.962 206.456 78.2112 205.606 77.4154 205.444L75.9034 205.16L77.4154 203.825C78.3306 203.015 78.8877 202.165 78.8877 201.558C78.8877 200.83 79.2458 200.425 80.4793 199.899C81.9515 199.291 82.0709 199.13 82.0709 197.591C82.0709 195.891 81.4342 195.163 79.3254 194.515C78.8479 194.353 77.7735 193.787 77.0175 193.261C75.4259 192.168 74.1924 192.087 72.1233 192.856ZM72.7202 195.122C72.004 195.932 68.1443 198.36 67.5873 198.36C66.9904 198.36 67.8658 197.51 70.1736 195.972C72.7998 194.191 73.8741 193.827 72.7202 195.122ZM75.7045 202.732C75.7045 203.218 71.3673 206.618 69.4574 207.629C68.6218 208.115 67.5077 208.844 66.9108 209.329C66.3538 209.775 64.8815 210.301 63.5287 210.503C60.4648 210.948 59.0722 211.515 57.5999 212.891C55.7696 214.632 54.6157 215.279 53.8199 215.077C53.4219 214.956 52.9843 215.077 52.8649 215.32C52.467 215.927 49.045 215.886 49.045 215.279C49.045 215.036 50 213.863 51.1539 212.77C52.9047 211.029 54.2178 210.26 59.669 207.953C63.2103 206.415 68.1841 204.553 70.8103 203.825C73.3966 203.096 75.5453 202.489 75.6249 202.449C75.6647 202.408 75.7045 202.57 75.7045 202.732ZM52.2282 208.398C51.6712 208.763 50.5968 209.653 49.8408 210.301C49.0848 210.989 47.732 212.082 46.8566 212.729C45.9812 213.377 44.0315 215.077 42.5194 216.494C39.3362 219.448 37.9038 220.339 37.0682 219.772C36.5907 219.448 36.6305 219.327 37.2273 218.841C37.5855 218.558 37.9038 217.991 37.9038 217.627C37.9038 217.263 38.0629 216.979 38.2619 216.979C38.62 216.979 41.7634 214.915 49.244 209.815C50.9947 208.641 52.5864 207.67 52.8251 207.71C53.024 207.71 52.7853 208.034 52.2282 208.398ZM72.9191 209.775L73.8343 211.07L72.7202 213.256C71.7652 215.117 69.6166 217.384 68.8208 217.384C68.2637 217.384 68.582 215.765 69.5768 212.851C71.3275 207.872 71.4469 207.751 72.9191 209.775ZM67.3883 213.944C66.9108 215.441 66.5527 217.182 66.5527 217.829C66.5527 218.72 66.1946 219.205 65.0805 220.015C64.2449 220.582 63.4093 221.027 63.1705 221.027C62.9716 221.027 62.3747 220.136 61.8575 219.084C61.181 217.667 60.9423 216.656 61.0617 215.158L61.181 213.134L62.9716 213.256C64.4438 213.377 65.0805 213.175 66.3538 212.203C67.2291 211.556 67.9852 211.07 68.0647 211.11C68.1443 211.191 67.826 212.446 67.3883 213.944ZM59.868 218.882C60.3454 219.975 60.8229 220.946 60.8627 221.067C61.1015 221.513 58.157 222.767 57.7989 222.363C57.3214 221.917 58.2366 216.979 58.7538 216.979C58.8732 216.979 59.3507 217.829 59.868 218.882ZM54.1382 218.072L56.2073 218.315L55.9685 220.825C55.7298 223.132 55.7696 223.375 56.6052 223.982C57.4805 224.589 57.4408 224.629 54.3769 226.046C51.2733 227.544 50.1194 227.746 51.9895 226.491C53.3822 225.56 53.3026 224.913 51.6314 223.172C50.8754 222.363 50.2387 221.472 50.2387 221.229C50.2387 220.946 49.9602 220.501 49.6419 220.217C48.3288 219.084 49.3236 217.141 51.0345 217.586C51.5916 217.708 52.9843 217.951 54.1382 218.072ZM90.1483 220.015C93.0132 220.622 95.9974 222.079 97.7084 223.698C99.3398 225.236 99.2205 227.503 97.3105 229.851C94.6446 233.17 92.0184 234.101 91.143 232.036C90.8645 231.429 90.2279 230.377 89.7106 229.648C88.5567 228.07 88.6761 227.058 90.1483 226.37C91.2226 225.844 91.9388 224.265 91.4216 223.455C90.5064 221.917 82.3892 221.229 74.7495 221.998C71.805 222.282 71.248 222.282 71.4071 221.796C71.5265 221.472 72.4814 221.067 73.5558 220.905C83.0656 219.246 85.9703 219.125 90.1483 220.015ZM71.3275 229.082C71.5265 229.527 71.7254 230.296 71.7254 230.822C71.7254 232.441 72.4417 232.765 75.983 232.765C79.007 232.765 79.4049 232.846 80.2803 233.777C81.3149 234.789 81.5536 236.165 80.917 237.177C80.5986 237.703 80.2405 237.703 78.2908 237.217C77.0573 236.893 75.2668 236.165 74.3516 235.598C71.7652 233.898 70.9694 233.858 68.3035 235.153C65.8763 236.327 65.1998 237.015 62.8124 240.658C61.6983 242.398 58.6345 245.11 58.2764 244.705C58.1968 244.624 58.3161 244.26 58.5549 243.815C58.7538 243.41 59.9873 240.779 61.3004 237.986C62.8522 234.667 64.0459 232.603 64.8019 232.036C70.0145 227.948 70.5715 227.705 71.3275 229.082ZM42.2807 229.486L44.0713 229.729L40.4901 232.117C37.9038 233.858 36.3122 234.627 34.8001 234.91C33.6462 235.112 32.5719 235.193 32.4525 235.032C32.0944 234.708 34.641 230.863 36.0336 229.689C37.108 228.798 37.5059 228.677 38.8985 228.92C39.7739 229.082 41.2859 229.324 42.2807 229.486ZM87.6415 230.741C89.2729 231.915 89.4321 233.048 87.9598 233.332C84.1002 234.101 82.9463 232.684 85.652 230.458C86.408 229.81 86.3284 229.81 87.6415 230.741ZM73.516 237.177C74.8291 237.824 76.3411 238.553 76.8982 238.755C77.5746 238.998 76.6992 239.12 73.9139 239.079C71.7254 239.039 69.0993 239.241 68.0249 239.484C64.8417 240.253 65.1203 238.796 68.5024 237.015C69.4972 236.489 70.5317 236.043 70.7307 236.003C70.9694 236.003 72.2029 236.529 73.516 237.177ZM70.5317 244.098C70.5317 244.705 67.2291 247.741 66.5527 247.741C65.7967 247.741 62.9716 245.839 62.9716 245.312C62.9716 244.746 66.5129 243.734 68.6616 243.734C69.6961 243.693 70.5317 243.855 70.5317 244.098ZM64.1653 249.562C64.7621 249.927 66.314 250.129 68.1045 250.169H71.0888L69.8155 251.505C67.826 253.61 68.3035 255.35 71.248 256.686C71.9642 257.01 72.5212 257.374 72.5212 257.496C72.5212 257.617 73.6354 258.629 75.028 259.681C76.3809 260.774 78.3306 262.434 79.4049 263.405C80.4395 264.417 81.9117 265.469 82.7075 265.793C84.2196 266.441 91.7797 267.129 97.5095 267.169C101.25 267.169 101.886 267.412 100.255 268.222C99.7775 268.505 98.2257 269.355 96.7933 270.164C93.2519 272.148 91.6205 272.148 84.2196 270.164C81.9913 269.557 76.5003 266.036 71.9244 262.353C67.1496 258.467 64.2051 257.657 60.7433 259.236L58.5549 260.248L59.9873 258.507C60.7433 257.536 61.38 256.484 61.38 256.119C61.38 255.796 60.5046 254.865 59.3905 254.055C58.3161 253.246 57.401 252.355 57.401 252.112C57.4408 251.424 59.0324 250.25 60.9025 249.562C62.7726 248.874 62.9716 248.874 64.1653 249.562Z" fill="black"/>
</svg>
