<svg width="368" height="180" viewBox="0 0 368 180" fill="none" xmlns="http://www.w3.org/2000/svg">
<path d="M15.2607 148.444L34.3605 153.947L33.5647 120.604L33.2275 106.476L13.804 102.657L15.1195 144.005L15.2607 148.444Z" fill="#8E4902"/>
<path d="M143.78 128.211L128.565 125.22V140.027L129.698 174.342L150.254 179.36L148.15 126.954L143.78 128.211Z" fill="#8E4902"/>
<path d="M354.201 111.54L352.42 68.1604L336.234 72.8191L336.653 84.3466L337.529 108.464L354.201 111.54Z" fill="#8E4902"/>
<path d="M169.516 120.804L169.897 135.746C169.897 135.746 305.599 99.0761 310.174 90.4974C310.923 89.0942 311.491 87.8591 311.919 86.7746C314.105 81.2285 312.602 79.6209 312.602 79.6209L169.516 120.804Z" fill="#8E4902"/>
<path d="M33.2275 106.476L33.5647 120.604L51.6798 124.489L128.565 140.027V125.22L33.2275 106.476Z" fill="#8E4902"/>
<path d="M34.3605 153.947L52.4891 149.253L51.6798 124.489L33.5647 120.604L34.3605 153.947Z" fill="#B26B2C"/>
<path d="M148.15 126.954L150.254 179.36L170.811 171.59L169.897 135.746L169.516 120.804L148.15 126.954Z" fill="#B26B2C"/>
<path d="M352.42 68.1604L363.708 63.9577V45.5342L143.132 108.464L143.78 128.211L148.15 126.954L169.516 120.804L312.602 79.6209L336.234 72.8191L352.42 68.1604Z" fill="#793800"/>
<path d="M143.132 108.464L0.53125 80.1382V100.047L13.804 102.657L33.2275 106.476L128.565 125.22L143.78 128.211L143.132 108.464Z" fill="#793800"/>
<path d="M171.782 79.8145V85.1559L314.059 47.442V42.9098L171.782 79.8145Z" fill="#793800"/>
<path d="M103.638 68.646V73.6637L171.782 85.1559V79.8145L103.638 68.646Z" fill="#793800"/>
<path d="M171.782 79.8145L314.059 42.9098V38.0122L172.106 73.34L171.782 79.8145Z" fill="#AA5D1A"/>
<path d="M103.638 68.646L171.782 79.8145L172.106 73.34L103.638 62.3333C103.638 62.3333 101.662 64.0966 101.695 65.5706C101.728 66.9907 103.638 68.646 103.638 68.646Z" fill="#AA5D1A"/>
<path d="M119.177 62.9808L171.782 70.5883H173.4L304.671 38.8633L302.891 37.7302L259.026 30.2846L119.824 60.8766L118.367 61.8478L119.177 62.9808Z" fill="#E98833"/>
<path d="M304.671 38.8633L173.4 70.5883L172.106 73.34L314.059 38.0122L315.192 37.7302L304.671 38.8633Z" fill="#662E08"/>
<path d="M172.106 73.34L171.782 70.5883L119.177 62.9808L103.638 62.3333L172.106 73.34Z" fill="#662E08"/>
<path d="M118.367 61.8478L119.824 60.8766L259.026 30.2846L302.891 37.7302H315.192L255.141 27.2092L103.638 62.3333L118.367 61.8478Z" fill="#662E08"/>
<path fill-rule="evenodd" clip-rule="evenodd" d="M363.708 45.5342L352.42 42.9098L322.625 37.7302L254.332 24.7812L0.53125 80.1382L143.132 108.464L363.708 45.5342ZM103.638 73.6637V68.646C103.638 68.646 101.728 66.9907 101.695 65.5706C101.662 64.0966 103.638 62.3333 103.638 62.3333L255.141 27.2092L315.192 37.7302L314.059 38.0122V42.9098V47.442L171.782 85.1559L103.638 73.6637Z" fill="#8E4902"/>
<path d="M336.234 72.8191L312.602 79.6209C312.602 79.6209 314.105 81.2285 311.919 86.7746L336.653 84.3466L336.234 72.8191Z" fill="#C1823E"/>
<path d="M354.201 111.54L367.474 105.712V64.5625L363.708 63.9577L352.42 68.1604L354.201 111.54Z" fill="#BF7E3B"/>
<path d="M363.708 63.9577L352.42 68.1604M363.708 63.9577V45.5342M363.708 63.9577L367.474 64.5625V105.712L354.201 111.54M354.201 111.54L352.42 68.1604M354.201 111.54L337.529 108.464L336.653 84.3466M352.42 68.1604L336.234 72.8191M363.708 45.5342L352.42 42.9098L322.625 37.7302L254.332 24.7812L0.53125 80.1382M363.708 45.5342L143.132 108.464M0.53125 80.1382L143.132 108.464M0.53125 80.1382V100.047L13.804 102.657M143.132 108.464L143.78 128.211M143.78 128.211L128.565 125.22M143.78 128.211L148.15 126.954M13.804 102.657L33.2275 106.476M13.804 102.657L15.1195 144.005L15.2607 148.444L34.3605 153.947M34.3605 153.947L52.4891 149.253L51.6798 124.489M34.3605 153.947L33.5647 120.604M33.2275 106.476L33.5647 120.604M33.2275 106.476L128.565 125.22M51.6798 124.489L33.5647 120.604M51.6798 124.489L128.565 140.027M128.565 140.027V125.22M128.565 140.027L129.698 174.342L150.254 179.36M150.254 179.36L148.15 126.954M150.254 179.36L170.811 171.59M148.15 126.954L169.516 120.804M169.516 120.804L170.811 171.59M169.516 120.804L312.602 79.6209M169.516 120.804L169.897 135.746M170.811 171.59L169.897 135.746M169.897 135.746C169.897 135.746 305.599 99.0761 310.174 90.4974C310.923 89.0942 311.491 87.8591 311.919 86.7746M312.602 79.6209L336.234 72.8191M312.602 79.6209C312.602 79.6209 314.105 81.2285 311.919 86.7746M336.234 72.8191L336.653 84.3466M311.919 86.7746L336.653 84.3466M103.638 68.646V73.6637L171.782 85.1559M103.638 68.646L171.782 79.8145M103.638 68.646C103.638 68.646 101.728 66.9907 101.695 65.5706C101.662 64.0966 103.638 62.3333 103.638 62.3333M171.782 85.1559V79.8145M171.782 85.1559L314.059 47.442V42.9098M171.782 79.8145L314.059 42.9098M171.782 79.8145L172.106 73.34M314.059 42.9098V38.0122M171.782 70.5883C171.908 71.6629 172.106 73.34 172.106 73.34M171.782 70.5883L119.177 62.9808M171.782 70.5883H173.4M171.782 70.5883L172.106 73.34M172.106 73.34L103.638 62.3333M172.106 73.34L173.4 70.5883M172.106 73.34L314.059 38.0122M103.638 62.3333L255.141 27.2092L315.192 37.7302M103.638 62.3333L119.177 62.9808M103.638 62.3333L118.367 61.8478M119.177 62.9808L118.367 61.8478M118.367 61.8478L119.824 60.8766L259.026 30.2846L302.891 37.7302M302.891 37.7302L304.671 38.8633M302.891 37.7302H315.192M304.671 38.8633L173.4 70.5883M304.671 38.8633L315.192 37.7302M315.192 37.7302L314.059 38.0122" stroke="black" stroke-width="1.05882"/>
<path d="M141.992 31.2657C141.992 31.2657 142.633 40.3041 144.642 45.6472C146.631 50.9391 151.771 56.627 152.022 58.0891C152.59 61.3996 152.022 63.4157 152.022 63.4157C152.022 63.4157 159.351 65.1107 164.134 65.318C170.747 65.6048 180.977 63.4157 180.977 63.4157V59.9149C180.977 59.9149 182.167 57.6665 183.626 54.7785C185.526 51.0192 187.246 46.3361 188.168 42.2229C189.096 38.0868 188.168 33.1696 188.168 31.2657C188.168 31.2657 186.094 34.6352 181.734 35.4524C177.373 36.2696 175.867 36.2134 171.515 36.5938C167.162 36.9743 164.415 36.8285 160.728 36.5938C157.16 36.3668 154.924 36.3199 151.454 35.4524C149.187 34.8853 147.884 34.5673 145.777 33.55C144.223 32.7996 141.992 31.2657 141.992 31.2657Z" fill="#434343"/>
<path d="M188.168 31.2657C188.168 28.9614 187.496 27.5659 186.087 25.7488C184.762 24.0411 178.125 22.0231 173.029 21.5647C168.465 21.1543 166.246 21.2652 161.674 21.5648C157.512 21.8376 154.197 22.1132 150.319 23.6577C146.293 25.2614 141.992 31.2657 141.992 31.2657C141.992 31.2657 144.223 32.7996 145.777 33.55C147.884 34.5673 149.187 34.8853 151.454 35.4524C154.924 36.3199 157.16 36.3668 160.728 36.5938C164.415 36.8285 167.162 36.9743 171.515 36.5938C175.867 36.2134 177.373 36.2696 181.734 35.4524C186.094 34.6352 188.168 31.2657 188.168 31.2657Z" fill="#B1AD9A"/>
<path d="M141.992 31.2657C141.992 31.2657 146.293 25.2614 150.319 23.6577C154.197 22.1132 157.512 21.8376 161.674 21.5648C166.246 21.2652 168.465 21.1543 173.029 21.5647C178.125 22.0231 184.762 24.0411 186.087 25.7488C187.496 27.5659 188.168 28.9614 188.168 31.2657M141.992 31.2657C141.992 31.2657 144.223 32.7996 145.777 33.55C147.884 34.5673 149.187 34.8853 151.454 35.4524C154.924 36.3199 157.16 36.3668 160.728 36.5938C164.415 36.8285 167.162 36.9743 171.515 36.5938C175.867 36.2134 177.373 36.2696 181.734 35.4524C186.094 34.6352 188.168 31.2657 188.168 31.2657M141.992 31.2657C141.992 31.2657 142.633 40.3041 144.642 45.6472C146.631 50.9391 151.771 56.627 152.022 58.0891C152.59 61.3996 152.022 63.4157 152.022 63.4157C152.022 63.4157 159.351 65.1107 164.134 65.318C170.747 65.6048 180.977 63.4157 180.977 63.4157V59.9149C180.977 59.9149 182.167 57.6665 183.626 54.7785C185.526 51.0192 187.246 46.3361 188.168 42.2229C189.096 38.0868 188.168 33.1696 188.168 31.2657" stroke="black" stroke-width="2.11765"/>
<path d="M191.969 22.8907C191.969 22.8907 192.61 31.9291 194.618 37.2722C196.607 42.5641 201.748 48.252 201.999 49.7141C202.567 53.0246 201.999 55.0407 201.999 55.0407C201.999 55.0407 209.328 56.7357 214.111 56.943C220.723 57.2298 230.953 55.0407 230.953 55.0407V51.5399C230.953 51.5399 232.144 49.2915 233.603 46.4035C235.502 42.6442 237.223 37.9611 238.145 33.8479C239.072 29.7118 238.145 24.7946 238.145 22.8907C238.145 22.8907 236.071 26.2602 231.71 27.0774C227.35 27.8946 225.844 27.8384 221.491 28.2188C217.138 28.5993 214.392 28.4535 210.704 28.2188C207.136 27.9918 204.9 27.9449 201.431 27.0774C199.163 26.5103 197.86 26.1923 195.754 25.175C194.2 24.4246 191.969 22.8907 191.969 22.8907Z" fill="#434343"/>
<path d="M238.145 22.8907C238.145 20.5864 237.473 19.1909 236.063 17.3738C234.738 15.6661 228.101 13.6481 223.005 13.1897C218.441 12.7793 216.223 12.8902 211.65 13.1898C207.488 13.4626 204.173 13.7382 200.296 15.2827C196.269 16.8864 191.969 22.8907 191.969 22.8907C191.969 22.8907 194.2 24.4246 195.754 25.175C197.86 26.1923 199.163 26.5103 201.431 27.0774C204.9 27.9449 207.136 27.9918 210.704 28.2188C214.392 28.4535 217.138 28.5993 221.491 28.2188C225.844 27.8384 227.35 27.8946 231.71 27.0774C236.071 26.2602 238.145 22.8907 238.145 22.8907Z" fill="#B1AD9A"/>
<path d="M191.969 22.8907C191.969 22.8907 196.269 16.8864 200.296 15.2827C204.173 13.7382 207.488 13.4626 211.65 13.1898C216.223 12.8902 218.441 12.7793 223.005 13.1897C228.101 13.6481 234.738 15.6661 236.063 17.3738C237.473 19.1909 238.145 20.5864 238.145 22.8907M191.969 22.8907C191.969 22.8907 194.2 24.4246 195.754 25.175C197.86 26.1923 199.163 26.5103 201.431 27.0774C204.9 27.9449 207.136 27.9918 210.704 28.2188C214.392 28.4535 217.138 28.5993 221.491 28.2188C225.844 27.8384 227.35 27.8946 231.71 27.0774C236.071 26.2602 238.145 22.8907 238.145 22.8907M191.969 22.8907C191.969 22.8907 192.61 31.9291 194.618 37.2722C196.607 42.5641 201.748 48.252 201.999 49.7141C202.567 53.0246 201.999 55.0407 201.999 55.0407C201.999 55.0407 209.328 56.7357 214.111 56.943C220.723 57.2298 230.953 55.0407 230.953 55.0407V51.5399C230.953 51.5399 232.144 49.2915 233.603 46.4035C235.502 42.6442 237.223 37.9611 238.145 33.8479C239.072 29.7118 238.145 24.7946 238.145 22.8907" stroke="black" stroke-width="2.11765"/>
<path d="M241.938 11.0313C241.938 11.0313 242.579 20.0697 244.587 25.4128C246.576 30.7048 251.717 36.3926 251.968 37.8547C252.535 41.1652 251.968 43.1813 251.968 43.1813C251.968 43.1813 259.296 44.8763 264.079 45.0837C270.692 45.3704 280.922 43.1813 280.922 43.1813V39.6805C280.922 39.6805 282.112 37.4322 283.572 34.5441C285.471 30.7849 287.191 26.1017 288.114 21.9885C289.041 17.8524 288.114 12.9352 288.114 11.0313C288.114 11.0313 286.04 14.4008 281.679 15.218C277.319 16.0353 275.813 15.979 271.46 16.3595C267.107 16.7399 264.361 16.5941 260.673 16.3595C257.105 16.1325 254.869 16.0855 251.4 15.218C249.132 14.651 247.829 14.3329 245.722 13.3157C244.168 12.5652 241.938 11.0313 241.938 11.0313Z" fill="#434343"/>
<path d="M288.114 11.0313C288.114 8.72706 287.441 7.33155 286.032 5.51445C284.707 3.80671 278.07 1.78868 272.974 1.33035C268.41 0.919902 266.192 1.03078 261.619 1.33044C257.457 1.6032 254.142 1.87882 250.264 3.42331C246.238 5.02704 241.938 11.0313 241.938 11.0313C241.938 11.0313 244.168 12.5652 245.722 13.3157C247.829 14.3329 249.132 14.651 251.4 15.218C254.869 16.0855 257.105 16.1325 260.673 16.3595C264.361 16.5941 267.107 16.7399 271.46 16.3595C275.813 15.979 277.319 16.0353 281.679 15.218C286.04 14.4008 288.114 11.0313 288.114 11.0313Z" fill="#B1AD9A"/>
<path d="M241.938 11.0313C241.938 11.0313 246.238 5.02704 250.264 3.42331C254.142 1.87882 257.457 1.6032 261.619 1.33044C266.192 1.03078 268.41 0.919902 272.974 1.33035C278.07 1.78868 284.707 3.80671 286.032 5.51445C287.441 7.33155 288.114 8.72706 288.114 11.0313M241.938 11.0313C241.938 11.0313 244.168 12.5652 245.722 13.3157C247.829 14.3329 249.132 14.651 251.4 15.218C254.869 16.0855 257.105 16.1325 260.673 16.3595C264.361 16.5941 267.107 16.7399 271.46 16.3595C275.813 15.979 277.319 16.0353 281.679 15.218C286.04 14.4008 288.114 11.0313 288.114 11.0313M241.938 11.0313C241.938 11.0313 242.579 20.0697 244.587 25.4128C246.576 30.7048 251.717 36.3926 251.968 37.8547C252.535 41.1652 251.968 43.1813 251.968 43.1813C251.968 43.1813 259.296 44.8763 264.079 45.0837C270.692 45.3704 280.922 43.1813 280.922 43.1813V39.6805C280.922 39.6805 282.112 37.4322 283.572 34.5441C285.471 30.7849 287.191 26.1017 288.114 21.9885C289.041 17.8524 288.114 12.9352 288.114 11.0313" stroke="black" stroke-width="2.11765"/>
<path d="M297.1 13.6659C293.951 15.1751 292.292 16.5214 290.219 19.2496C293.503 21.5513 295.662 22.5671 299.57 23.6489C305.794 25.3714 310.571 25.6782 317.039 25.341C322.988 25.0309 326.601 25.4679 331.86 22.9722C335.641 21.178 336.816 18.7229 340.33 16.5423C337.072 14.5666 335.032 13.6847 331.331 12.6506C323.922 10.5806 319.456 10.6489 311.745 10.9605C306.085 11.1893 302.168 11.2369 297.1 13.6659Z" fill="url(#paint0_radial_3027_82)"/>
<path d="M290.219 19.2496V30.9246L301.335 33.2935L314.745 36.5083V47.1682C314.745 47.1682 329.879 48.0825 335.742 42.2613C337.976 40.044 339.241 37.8801 340.024 35.4953C340.31 34.6266 340.532 33.7286 340.713 32.788C341.013 31.2318 341.203 29.559 341.389 27.7098C341.449 27.114 341.48 26.554 341.489 26.0199C341.502 25.2047 341.462 24.45 341.389 23.721C341.159 21.4327 340.601 19.3977 340.33 16.5423C336.816 18.7229 335.641 21.178 331.86 22.9722C326.601 25.4679 322.988 25.0309 317.039 25.341C310.571 25.6782 305.794 25.3714 299.57 23.6489C295.662 22.5671 293.503 21.5513 290.219 19.2496Z" fill="#434343"/>
<path d="M340.024 35.4953C340.024 35.4953 345.712 36.7517 348.447 34.9877C350.508 33.6578 351.667 32.2757 351.975 29.9116C352.273 27.6308 351.748 25.9354 350.035 24.3279C347.615 22.0573 341.389 23.721 341.389 23.721C341.462 24.45 341.502 25.2047 341.489 26.0199L347.388 27.7098V31.6036L340.713 32.788C340.532 33.7286 340.31 34.6266 340.024 35.4953Z" fill="#434343"/>
<path d="M290.219 30.9246C290.219 30.9246 290.219 23.809 290.219 19.2496M290.219 30.9246L301.335 33.2935L314.745 36.5083V47.1682C314.745 47.1682 329.879 48.0825 335.742 42.2613C337.976 40.044 339.241 37.8801 340.024 35.4953M290.219 30.9246V19.2496M290.219 19.2496C292.292 16.5214 293.951 15.1751 297.1 13.6659C302.168 11.2369 306.085 11.1893 311.745 10.9605C319.456 10.6489 323.922 10.5806 331.331 12.6506C335.032 13.6847 337.072 14.5666 340.33 16.5423M290.219 19.2496C293.503 21.5513 295.662 22.5671 299.57 23.6489C305.794 25.3714 310.571 25.6782 317.039 25.341C322.988 25.0309 326.601 25.4679 331.86 22.9722C335.641 21.178 336.816 18.7229 340.33 16.5423M340.33 16.5423C340.601 19.3977 341.159 21.4327 341.389 23.721M340.024 35.4953C340.024 35.4953 345.712 36.7517 348.447 34.9877C350.508 33.6578 351.667 32.2757 351.975 29.9116C352.273 27.6308 351.748 25.9354 350.035 24.3279C347.615 22.0573 341.389 23.721 341.389 23.721M340.024 35.4953C340.31 34.6266 340.532 33.7286 340.713 32.788M341.389 23.721C341.462 24.45 341.502 25.2047 341.489 26.0199M341.489 26.0199C341.48 26.554 341.449 27.114 341.389 27.7098C341.203 29.559 341.013 31.2318 340.713 32.788M341.489 26.0199L347.388 27.7098V31.6036L340.713 32.788" stroke="black" stroke-width="2.11765"/>
<defs>
<radialGradient id="paint0_radial_3027_82" cx="0" cy="0" r="1" gradientUnits="userSpaceOnUse" gradientTransform="translate(315.855 29.0086) rotate(90) scale(18.2118 25.6362)">
<stop stop-color="#EEDFA8"/>
<stop offset="1" stop-color="#887F60"/>
</radialGradient>
</defs>
</svg>
