<svg width="79" height="50" viewBox="0 0 79 50" fill="none" xmlns="http://www.w3.org/2000/svg">
<path d="M37.0645 39.9023L38.5922 39.52L38.1915 27.944L34.3485 28.5399L37.0645 39.9023Z" fill="#EEDFA8"/>
<path d="M38.5922 39.52C38.5922 39.52 39.5233 39.5065 40.12 39.3571C40.9574 36.0529 41.897 32.3349 42.8546 28.5399L38.1915 27.944L38.5922 39.52Z" fill="#EEDFA8"/>
<path d="M40.12 39.3571C40.4324 39.6558 40.9201 39.9023 40.9201 39.9023L46.5773 30.7973L42.8546 28.5399C41.897 32.3349 40.9574 36.0529 40.12 39.3571Z" fill="#EEDFA8"/>
<path d="M40.9201 39.9023L42.4721 41.3856L49.4404 33.8701L46.5773 30.7973L40.9201 39.9023Z" fill="#EEDFA8"/>
<path d="M42.4721 41.3856L43.2482 42.1272L51.8327 36.852L49.4404 33.8701L42.4721 41.3856Z" fill="#EEDFA8"/>
<path d="M43.2482 42.1272L44.0242 42.8689L52.6815 40.7527L51.8327 36.852L43.2482 42.1272Z" fill="#EEDFA8"/>
<path d="M31.9733 30.3583L37.0645 39.9023L34.3485 28.5399L31.9733 30.3583Z" fill="#EEDFA8"/>
<path d="M34.8577 40.4546L37.0645 39.9023L31.9733 30.3583L28.713 33.8701L34.8577 40.4546Z" fill="#EEDFA8"/>
<path d="M33.8074 42.4299L34.8577 40.4546L28.713 33.8701L25.861 37.2873L33.8074 42.4299Z" fill="#EEDFA8"/>
<path d="M32.9905 43.9663L33.8074 42.4299L25.861 37.2873L24.0784 41.3856L32.9905 43.9663Z" fill="#EEDFA8"/>
<path d="M43.8545 47.478C44.873 46.3806 44.0242 42.8689 44.0242 42.8689L43.2482 42.1272L42.4721 41.3856L40.9201 39.9023C40.9201 39.9023 40.4324 39.6558 40.12 39.3571C39.5233 39.5065 38.5922 39.52 38.5922 39.52L37.0645 39.9023L34.8577 40.4546L33.8074 42.4299L32.9905 43.9663C32.9905 43.9663 33.8074 45.9683 34.688 47.2586C36.046 48.356 37.6517 49.2196 39.1015 49.0144C41.292 48.7044 41.6477 48.7949 43.8545 47.478Z" fill="#F8780F"/>
<path d="M2.94469 22.4569V29.0414L0.398438 34.5285L24.0784 41.3856L25.861 37.2873L2.94469 22.4569Z" fill="#D62E00"/>
<path d="M10.0742 13.897L7.35819 18.2867L2.94469 22.4569L25.861 37.2873L28.713 33.8701L10.0742 13.897Z" fill="#D62E00"/>
<path d="M18.392 4.89822L14.3179 9.72686L10.0742 13.897L28.713 33.8701L31.9733 30.3583L18.392 4.89822Z" fill="#D62E00"/>
<path d="M28.0677 2.26442L23.4845 4.89822H18.392L31.9733 30.3583L34.3485 28.5399L28.0677 2.26442Z" fill="#D62E00"/>
<path d="M37.2342 0.289062L32.9905 2.26442H28.0677L34.3485 28.5399L38.1915 27.944L37.2342 0.289062Z" fill="#D62E00"/>
<path d="M49.9655 0.289062H44.0242H37.2342L38.1915 27.944L42.8546 28.5399C46.294 14.9103 49.9655 0.289062 49.9655 0.289062Z" fill="#D62E00"/>
<path d="M59.3017 4.89822L54.0395 3.8008L49.9655 0.289062C49.9655 0.289062 46.294 14.9103 42.8546 28.5399L46.5773 30.7973L61.169 7.31254L59.3017 4.89822Z" fill="#D62E00"/>
<path d="M67.959 13.897L63.0362 9.72686L61.169 7.31254L46.5773 30.7973L49.4404 33.8701L67.959 13.897Z" fill="#D62E00"/>
<path d="M75.2582 22.4569L70.675 18.2867L67.959 13.897L49.4404 33.8701L51.8327 36.852L75.2582 22.4569Z" fill="#D62E00"/>
<path d="M78.144 34.5285L77.1255 31.0168L75.2582 22.4569L51.8327 36.852L52.6815 40.7527L78.144 34.5285Z" fill="#D62E00"/>
<path d="M0.398438 34.5285L2.94469 29.0414V22.4569M0.398438 34.5285C0.398438 34.5285 12.6526 38.077 24.0784 41.3856M0.398438 34.5285L24.0784 41.3856M32.9905 43.9663C33.7197 45.6806 33.4997 45.7222 34.688 47.2586M32.9905 43.9663C33.3095 43.3663 33.8074 42.4299 33.8074 42.4299M32.9905 43.9663C30.2594 43.1755 27.1998 42.2895 24.0784 41.3856M32.9905 43.9663L24.0784 41.3856M32.9905 43.9663L33.8074 42.4299M32.9905 43.9663C32.9905 43.9663 33.8074 45.9683 34.688 47.2586M34.8577 40.4546C34.4475 41.226 33.8074 42.4299 33.8074 42.4299M34.8577 40.4546C35.7195 40.2389 37.0645 39.9023 37.0645 39.9023M34.8577 40.4546C32.9657 38.4271 30.8664 36.1775 28.713 33.8701M34.8577 40.4546L37.0645 39.9023M34.8577 40.4546L28.713 33.8701M34.8577 40.4546L33.8074 42.4299M40.12 39.3571C39.5233 39.5065 38.5922 39.52 38.5922 39.52M40.12 39.3571C40.4324 39.6558 40.9201 39.9023 40.9201 39.9023M40.12 39.3571C40.9574 36.0529 41.897 32.3349 42.8546 28.5399M44.0242 42.8689C44.5335 44.1858 44.873 46.1611 43.8545 47.478M44.0242 42.8689C43.7212 42.5793 43.2482 42.1272 43.2482 42.1272M44.0242 42.8689C46.6868 42.218 49.6478 41.4942 52.6815 40.7527M44.0242 42.8689L43.2482 42.1272M44.0242 42.8689L52.6815 40.7527M44.0242 42.8689C44.0242 42.8689 44.873 46.3806 43.8545 47.478M43.8545 47.478C41.6477 48.7949 41.292 48.7044 39.1015 49.0144C37.6517 49.2196 36.046 48.356 34.688 47.2586M78.144 34.5285L77.1255 31.0168L75.2582 22.4569M78.144 34.5285C78.144 34.5285 64.8293 37.7832 52.6815 40.7527M78.144 34.5285L52.6815 40.7527M75.2582 22.4569L70.675 18.2867L67.959 13.897M75.2582 22.4569L51.8327 36.852M67.959 13.897L63.0362 9.72686L61.169 7.31254M67.959 13.897L49.4404 33.8701M49.9655 0.289062L54.0395 3.8008L59.3017 4.89822L61.169 7.31254M49.9655 0.289062H44.0242H37.2342M49.9655 0.289062C49.9655 0.289062 46.294 14.9103 42.8546 28.5399M37.2342 0.289062L32.9905 2.26442H28.0677M37.2342 0.289062L38.1915 27.944M28.0677 2.26442L23.4845 4.89822H18.392M28.0677 2.26442L34.3485 28.5399M18.392 4.89822L14.3179 9.72686L10.0742 13.897M18.392 4.89822L31.9733 30.3583M10.0742 13.897L7.35819 18.2867L2.94469 22.4569M10.0742 13.897C10.0742 13.897 19.8509 24.3735 28.713 33.8701M10.0742 13.897L28.713 33.8701M2.94469 22.4569L25.861 37.2873M33.8074 42.4299L25.861 37.2873M37.0645 39.9023L38.5922 39.52M37.0645 39.9023L31.9733 30.3583M37.0645 39.9023L34.3485 28.5399M38.5922 39.52L38.1915 27.944M61.169 7.31254L46.5773 30.7973M40.9201 39.9023L42.4721 41.3856M40.9201 39.9023L46.5773 30.7973M42.4721 41.3856L43.2482 42.1272M42.4721 41.3856L49.4404 33.8701M43.2482 42.1272L51.8327 36.852M24.0784 41.3856L25.861 37.2873M25.861 37.2873L28.713 33.8701M28.713 33.8701L31.9733 30.3583M31.9733 30.3583L34.3485 28.5399M34.3485 28.5399L38.1915 27.944M38.1915 27.944L42.8546 28.5399M42.8546 28.5399L46.5773 30.7973M46.5773 30.7973L49.4404 33.8701M49.4404 33.8701L51.8327 36.852M51.8327 36.852L52.6815 40.7527" stroke="#EE941F" stroke-width="0.571013"/>
</svg>
