<svg width="49" height="39" viewBox="0 0 49 39" fill="none" xmlns="http://www.w3.org/2000/svg">
<path d="M3.32569 23.2866C3.32569 23.2866 7.16587 28.6264 10.5705 31.2223C10.9645 31.5227 11.3536 31.8023 11.7392 32.0624C17.774 34.7358 21.0834 35.1269 27.3129 35.1269C31.7334 35.1269 34.8673 34.5564 38.0199 32.9596C39.4578 32.2313 40.8572 31.2336 42.3027 29.8469C45.085 27.1776 47.3642 22.2202 47.3642 22.2202C47.3642 22.2202 48.323 18.7073 48.3132 15.1802C48.3132 15.1802 43.6521 19.0214 40.1613 20.4602C36.1173 22.1269 33.7929 22.36 29.4543 22.8955C24.4742 23.5101 21.1669 23.441 16.2166 22.6179C12.1353 21.9392 9.714 21.4933 6.09368 19.4824C3.65388 18.1272 0.382057 15.1802 0.382057 15.1802C1.09052 18.7811 3.32569 23.2866 3.32569 23.2866Z" fill="#DEA479"/>
<path d="M2.97893 9.70458C2.69149 10.8945 2.68856 11.6508 2.97893 12.84C3.31131 14.2013 4.01039 15.0713 4.92565 15.7862C4.92565 15.7862 7.45674 11.8883 9.98713 10.6824C11.2703 10.0708 12.1934 10.284 13.4912 9.70458C15.0906 8.99053 15.4559 7.40003 17.19 7.16235C18.232 7.01953 19.4877 7.58222 20.4348 8.14013L24.3929 4.62669L27.7031 8.14013C27.9347 7.56573 28.1748 6.99464 28.6756 7.16235C29.1856 7.33312 29.4307 7.64666 29.649 8.14013H33.5424L41.1347 12.4424L44.0547 15.5605C44.5588 15.0986 44.9714 14.581 45.2228 14.0068C45.8416 12.593 46.1642 11.5978 45.8068 10.0957C45.3069 7.99483 44.1056 7.25483 42.3027 6.07762C38.4092 3.53539 34.9581 3.22533 30.233 2.469C26.4762 1.86765 24.2899 1.75354 20.4994 2.07789C16.144 2.45057 12.9072 2.86011 9.59778 4.22901C6.59034 5.47299 3.74589 6.52952 2.97893 9.70458Z" fill="#D99F66"/>
<path d="M27.3129 35.1269C21.0834 35.1269 17.774 34.7358 11.7392 32.0624C11.7392 32.0624 11.7392 33.9535 13.4912 35.1269C15.2433 36.3002 17.4887 36.9618 20.3047 37.4736C23.4503 38.0452 26.2729 37.9823 29.4543 37.6691C32.409 37.3782 34.1265 36.8869 36.0732 35.9091C38.0199 34.9313 38.0199 32.9596 38.0199 32.9596C34.8673 34.5564 31.7334 35.1269 27.3129 35.1269Z" fill="#9F633C"/>
<path d="M9.98713 10.6824C7.45674 11.8883 4.92565 15.7862 4.92565 15.7862C5.65684 16.3573 6.526 16.8294 7.45639 17.374C7.64867 17.4865 7.84357 17.6021 8.04041 17.7224C10.2092 19.0472 11.9986 19.4048 14.0932 19.6747C15.0417 19.7969 16.0528 19.9011 17.19 20.0691C17.9626 20.1832 18.6667 20.2757 19.3314 20.3488C21.8399 20.6247 23.7861 20.6239 26.7289 20.4602C28.032 20.3877 29.5355 20.1911 31.0117 19.949C32.0947 19.7714 33.1629 19.5693 34.1265 19.3737C36.3525 18.9218 38.0199 18.5046 38.0199 18.5046C38.0199 18.5046 41.885 17.5484 44.0547 15.5605L41.1347 12.4424L33.5424 8.14013H29.649C29.896 8.69843 29.649 9.70458 29.649 9.70458C29.649 9.70458 27.0605 10.0195 26.7289 11.2756C26.6127 11.716 26.7289 12.4424 26.7289 12.4424L23.6142 11.8557L21.8621 9.11791C21.8621 9.11791 21.2678 8.63087 20.4348 8.14013C19.4877 7.58222 18.232 7.01953 17.19 7.16235C15.4559 7.40003 15.0906 8.99053 13.4912 9.70458C12.1934 10.284 11.2703 10.0708 9.98713 10.6824Z" fill="#588909"/>
<path d="M21.8621 9.11791L23.6142 11.8557C23.6142 11.8557 23.3816 10.5115 23.6142 9.70458C23.9882 8.40675 24.8038 6.45584 25.9502 7.16235C26.6482 7.59245 25.9763 8.7939 26.7289 9.11791C27.2233 9.33073 27.4549 8.75584 27.6907 8.17081L27.7031 8.14013L24.3929 4.62669L20.4348 8.14013C21.2678 8.63087 21.8621 9.11791 21.8621 9.11791Z" fill="#6E8E44"/>
<path d="M23.6142 9.70458C23.3816 10.5115 23.6142 11.8557 23.6142 11.8557L26.7289 12.4424C26.7289 12.4424 26.6127 11.716 26.7289 11.2756C27.0605 10.0195 29.649 9.70458 29.649 9.70458C29.649 9.70458 29.896 8.69843 29.649 8.14013C29.4307 7.64666 29.1856 7.33312 28.6756 7.16235C28.1748 6.99464 27.9347 7.56573 27.7031 8.14013L27.6907 8.17081C27.4549 8.75584 27.2233 9.33073 26.7289 9.11791C25.9763 8.7939 26.6482 7.59245 25.9502 7.16235C24.8038 6.45584 23.9882 8.40675 23.6142 9.70458Z" fill="#6A8200"/>
<path fill-rule="evenodd" clip-rule="evenodd" d="M48.3132 11.2756C47.191 8.05708 45.9992 5.39993 42.886 4.04002C38.4092 2.08446 33.4385 0.555707 27.1176 0.324454C21.7557 0.128285 18.7104 0.045555 13.4912 1.29573C10.2399 2.07454 8.00217 2.63079 5.31434 4.62669C2.29452 6.86912 0.709927 9.09572 0.252863 12.84C0.162825 13.5777 0.223251 14.373 0.382057 15.1802C0.382057 15.1802 3.65388 18.1272 6.09368 19.4824C9.714 21.4933 12.1353 21.9392 16.2166 22.6179C21.1669 23.441 24.4742 23.5101 29.4543 22.8955C33.7929 22.36 36.1173 22.1269 40.1613 20.4602C43.6521 19.0214 48.3132 15.1802 48.3132 15.1802C48.3094 13.8129 48.7203 12.4434 48.3132 11.2756ZM2.97893 12.84C2.68856 11.6508 2.69149 10.8945 2.97893 9.70458C3.74589 6.52952 6.59034 5.47299 9.59778 4.22901C12.9072 2.86011 16.144 2.45057 20.4994 2.07789C24.2899 1.75354 26.4762 1.86765 30.233 2.469C34.9581 3.22533 38.4092 3.53539 42.3027 6.07762C44.1056 7.25483 45.3069 7.99483 45.8068 10.0957C46.1642 11.5978 45.8416 12.593 45.2228 14.0068C44.9714 14.581 44.5588 15.0986 44.0547 15.5605C41.885 17.5484 38.0199 18.5046 38.0199 18.5046C38.0199 18.5046 36.3525 18.9218 34.1265 19.3737C33.1629 19.5693 32.0947 19.7714 31.0117 19.949C29.5355 20.1911 28.032 20.3877 26.7289 20.4602C23.7861 20.6239 21.8399 20.6247 19.3314 20.3488C18.6667 20.2757 17.9626 20.1832 17.19 20.0691C16.0528 19.9011 15.0417 19.7969 14.0932 19.6747C11.9986 19.4048 10.2092 19.0472 8.04041 17.7224C7.84357 17.6021 7.64867 17.4865 7.45639 17.374C6.526 16.8294 5.65684 16.3573 4.92565 15.7862C4.01039 15.0713 3.31131 14.2013 2.97893 12.84Z" fill="#FFCBA4"/>
<path d="M11.7392 32.0624C11.3536 31.8023 10.9645 31.5227 10.5705 31.2223C7.16587 28.6264 3.32569 23.2866 3.32569 23.2866C3.32569 23.2866 1.09052 18.7811 0.382057 15.1802M11.7392 32.0624C17.774 34.7358 21.0834 35.1269 27.3129 35.1269C31.7334 35.1269 34.8673 34.5564 38.0199 32.9596M11.7392 32.0624C11.7392 32.0624 11.7392 33.9535 13.4912 35.1269C15.2433 36.3002 17.4887 36.9618 20.3047 37.4736C23.4503 38.0452 26.2729 37.9823 29.4543 37.6691C32.409 37.3782 34.1265 36.8869 36.0732 35.9091C38.0199 34.9313 38.0199 32.9596 38.0199 32.9596M38.0199 32.9596C39.4578 32.2313 40.8572 31.2336 42.3027 29.8469C45.085 27.1776 47.3642 22.2202 47.3642 22.2202C47.3642 22.2202 48.323 18.7073 48.3132 15.1802M0.382057 15.1802C0.223251 14.373 0.162825 13.5777 0.252863 12.84C0.709927 9.09572 2.29452 6.86912 5.31434 4.62669C8.00217 2.63079 10.2399 2.07454 13.4912 1.29573C18.7104 0.045555 21.7557 0.128285 27.1176 0.324454C33.4385 0.555707 38.4092 2.08446 42.886 4.04002C45.9992 5.39993 47.191 8.05708 48.3132 11.2756C48.7203 12.4434 48.3094 13.8129 48.3132 15.1802M0.382057 15.1802C0.382057 15.1802 3.65388 18.1272 6.09368 19.4824C9.714 21.4933 12.1353 21.9392 16.2166 22.6179C21.1669 23.441 24.4742 23.5101 29.4543 22.8955C33.7929 22.36 36.1173 22.1269 40.1613 20.4602C43.6521 19.0214 48.3132 15.1802 48.3132 15.1802M4.92565 15.7862C4.01039 15.0713 3.31131 14.2013 2.97893 12.84C2.68856 11.6508 2.69149 10.8945 2.97893 9.70458C3.74589 6.52952 6.59034 5.47299 9.59778 4.22901C12.9072 2.86011 16.144 2.45057 20.4994 2.07789C24.2899 1.75354 26.4762 1.86765 30.233 2.469C34.9581 3.22533 38.4092 3.53539 42.3027 6.07762C44.1056 7.25483 45.3069 7.99483 45.8068 10.0957C46.1642 11.5978 45.8416 12.593 45.2228 14.0068C44.9714 14.581 44.5588 15.0986 44.0547 15.5605M4.92565 15.7862C4.92565 15.7862 7.45674 11.8883 9.98713 10.6824C11.2703 10.0708 12.1934 10.284 13.4912 9.70458C15.0906 8.99053 15.4559 7.40003 17.19 7.16235C18.232 7.01953 19.4877 7.58222 20.4348 8.14013M4.92565 15.7862C5.65684 16.3573 6.526 16.8294 7.45639 17.374M23.6142 11.8557L21.8621 9.11791C21.8621 9.11791 21.2678 8.63087 20.4348 8.14013M23.6142 11.8557C23.6142 11.8557 23.3816 10.5115 23.6142 9.70458C23.9882 8.40675 24.8038 6.45584 25.9502 7.16235C26.6482 7.59245 25.9763 8.7939 26.7289 9.11791C27.2233 9.33073 27.4549 8.75584 27.6907 8.17081M23.6142 11.8557L26.7289 12.4424C26.7289 12.4424 26.6127 11.716 26.7289 11.2756C27.0605 10.0195 29.649 9.70458 29.649 9.70458C29.649 9.70458 29.896 8.69843 29.649 8.14013M29.649 8.14013C29.4307 7.64666 29.1856 7.33312 28.6756 7.16235C28.1748 6.99464 27.9347 7.56573 27.7031 8.14013M29.649 8.14013H33.5424L41.1347 12.4424L44.0547 15.5605M20.4348 8.14013L24.3929 4.62669L27.7031 8.14013M27.7031 8.14013L27.6907 8.17081M27.7031 8.14013C27.6989 8.15036 27.6948 8.16058 27.6907 8.17081M44.0547 15.5605C41.885 17.5484 38.0199 18.5046 38.0199 18.5046C38.0199 18.5046 36.3525 18.9218 34.1265 19.3737M18.5527 14.0068C18.5527 14.0068 15.683 13.7222 13.8806 14.0068C12.3124 14.2545 11.3627 14.3843 9.98713 15.1802C8.85588 15.8346 7.45639 17.374 7.45639 17.374M7.45639 17.374C7.64867 17.4865 7.84357 17.6021 8.04041 17.7224C10.2092 19.0472 11.9986 19.4048 14.0932 19.6747M24.3929 14.5935C24.3929 14.5935 23.4007 16.2001 22.6408 17.1357C21.5045 18.5347 19.3314 20.3488 19.3314 20.3488M19.3314 20.3488C21.8399 20.6247 23.7861 20.6239 26.7289 20.4602C28.032 20.3877 29.5355 20.1911 31.0117 19.949M19.3314 20.3488C18.6667 20.2757 17.9626 20.1832 17.19 20.0691C16.0528 19.9011 15.0417 19.7969 14.0932 19.6747M22.6408 14.0068C22.6408 14.0068 20.6322 14.7465 19.3314 15.1802C18.1219 15.5834 17.2527 15.4125 16.2166 16.1579C14.9167 17.0933 14.0932 19.6747 14.0932 19.6747M26.7289 16.1579L31.0117 19.949M31.0117 19.949C32.0947 19.7714 33.1629 19.5693 34.1265 19.3737M29.649 15.1802L34.1265 19.3737M29.649 12.84C29.649 12.84 32.4413 12.7325 34.1265 13.2246C35.954 13.7582 36.5068 15.6129 38.4092 15.5605C39.109 15.5412 40.1613 15.1802 40.1613 15.1802" stroke="black" stroke-width="0.423529"/>
</svg>
