<svg width="55" height="44" viewBox="0 0 55 44" fill="none" xmlns="http://www.w3.org/2000/svg">
<path d="M3.68088 26.3979C3.68088 26.3979 7.95897 32.4577 11.7518 35.4036C12.1908 35.7446 12.6243 36.0619 13.0538 36.357C19.7768 39.3908 23.4636 39.8347 30.4035 39.8347C35.3281 39.8347 38.8194 39.1872 42.3315 37.3751C43.9333 36.5486 45.4923 35.4164 47.1026 33.8427C50.2022 30.8136 52.7413 25.1877 52.7413 25.1877C52.7413 25.1877 53.8094 21.2012 53.7985 17.1985C53.7985 17.1985 48.6059 21.5577 44.717 23.1904C40.2119 25.0819 37.6224 25.3464 32.7891 25.954C27.241 26.6515 23.5566 26.5731 18.0418 25.639C13.495 24.8689 10.7977 24.3628 6.76452 22.0808C4.0465 20.5429 0.401571 17.1985 0.401571 17.1985C1.19082 21.2849 3.68088 26.3979 3.68088 26.3979Z" fill="#DEA479"/>
<path d="M3.29458 10.9846C2.97436 12.335 2.9711 13.1933 3.29458 14.5429C3.66486 16.0877 4.44366 17.075 5.46329 17.8862C5.46329 17.8862 8.28301 13.4627 11.102 12.0942C12.5314 11.4003 13.5598 11.6422 15.0056 10.9846C16.7874 10.1743 17.1943 8.36935 19.1262 8.09962C20.287 7.93755 21.6859 8.5761 22.741 9.20923L27.1504 5.22207L30.8381 9.20923C31.0962 8.55739 31.3637 7.9093 31.9216 8.09962C32.4898 8.29341 32.7628 8.64923 33.006 9.20923H37.3434L45.8014 14.0915L49.0545 17.6301C49.6161 17.1059 50.0757 16.5186 50.3557 15.8669C51.0451 14.2625 51.4045 13.1332 51.0063 11.4285C50.4494 9.04434 49.1111 8.20457 47.1026 6.86864C42.7652 3.98363 38.9205 3.63177 33.6566 2.77346C29.4713 2.09103 27.0358 1.96153 22.813 2.32961C17.961 2.75254 14.355 3.2173 10.6682 4.77077C7.31781 6.18248 4.149 7.38146 3.29458 10.9846Z" fill="#D99F66"/>
<path d="M30.4035 39.8347C23.4636 39.8347 19.7768 39.3908 13.0538 36.357C13.0538 36.357 13.0538 38.5031 15.0056 39.8347C16.9575 41.1662 19.4589 41.9169 22.5961 42.4977C26.1004 43.1465 29.2449 43.0751 32.7891 42.7197C36.0807 42.3895 37.994 41.832 40.1627 40.7223C42.3315 39.6127 42.3315 37.3751 42.3315 37.3751C38.8194 39.1872 35.3281 39.8347 30.4035 39.8347Z" fill="#9F633C"/>
<path d="M11.102 12.0942C8.28301 13.4627 5.46329 17.8862 5.46329 17.8862C6.27786 18.5344 7.24614 19.0701 8.28262 19.6881C8.49683 19.8158 8.71396 19.947 8.93324 20.0835C11.3494 21.5869 13.3428 21.9927 15.6763 22.299C16.7329 22.4377 17.8593 22.556 19.1262 22.7466C19.9869 22.876 20.7713 22.9811 21.5118 23.064C24.3064 23.3772 26.4745 23.3762 29.7529 23.1904C31.2046 23.1081 32.8796 22.8851 34.5241 22.6103C35.7305 22.4088 36.9206 22.1794 37.994 21.9574C40.4739 21.4446 42.3315 20.9712 42.3315 20.9712C42.3315 20.9712 46.6373 19.8861 49.0545 17.6301L45.8014 14.0915L37.3434 9.20923H33.006C33.2812 9.84281 33.006 10.9846 33.006 10.9846C33.006 10.9846 30.1223 11.342 29.7529 12.7675C29.6234 13.2673 29.7529 14.0915 29.7529 14.0915L26.283 13.4258L24.3311 10.3189C24.3311 10.3189 23.6691 9.76614 22.741 9.20923C21.6859 8.5761 20.287 7.93755 19.1262 8.09962C17.1943 8.36935 16.7874 10.1743 15.0056 10.9846C13.5598 11.6422 12.5314 11.4003 11.102 12.0942Z" fill="#588909"/>
<path d="M24.3311 10.3189L26.283 13.4258C26.283 13.4258 26.0239 11.9004 26.283 10.9846C26.6996 9.5118 27.6082 7.29785 28.8854 8.09962C29.6629 8.58772 28.9145 9.95116 29.7529 10.3189C30.3036 10.5604 30.5617 9.90796 30.8244 9.24405L30.8381 9.20923L27.1504 5.22207L22.741 9.20923C23.6691 9.76614 24.3311 10.3189 24.3311 10.3189Z" fill="#6E8E44"/>
<path d="M26.283 10.9846C26.0239 11.9004 26.283 13.4258 26.283 13.4258L29.7529 14.0915C29.7529 14.0915 29.6234 13.2673 29.7529 12.7675C30.1223 11.342 33.006 10.9846 33.006 10.9846C33.006 10.9846 33.2812 9.84281 33.006 9.20923C32.7628 8.64923 32.4898 8.29341 31.9216 8.09962C31.3637 7.9093 31.0962 8.55739 30.8381 9.20923L30.8244 9.24405C30.5617 9.90796 30.3036 10.5604 29.7529 10.3189C28.9145 9.95116 29.6629 8.58772 28.8854 8.09962C27.6082 7.29785 26.6996 9.5118 26.283 10.9846Z" fill="#6A8200"/>
<path fill-rule="evenodd" clip-rule="evenodd" d="M53.7985 12.7675C52.5484 9.11499 51.2207 6.09957 47.7525 4.5563C42.7652 2.33707 37.2276 0.602193 30.1859 0.33976C24.2125 0.117141 20.82 0.0232563 15.0056 1.442C11.3836 2.32581 8.89064 2.95706 5.8963 5.22207C2.53212 7.76685 0.766829 10.2937 0.257644 14.5429C0.157338 15.3799 0.224655 16.2825 0.401571 17.1985C0.401571 17.1985 4.0465 20.5429 6.76452 22.0808C10.7977 24.3628 13.495 24.8689 18.0418 25.639C23.5566 26.5731 27.241 26.6515 32.7891 25.954C37.6224 25.3464 40.2119 25.0819 44.717 23.1904C48.6059 21.5577 53.7985 17.1985 53.7985 17.1985C53.7943 15.6468 54.2521 14.0927 53.7985 12.7675ZM3.29458 14.5429C2.9711 13.1933 2.97436 12.335 3.29458 10.9846C4.149 7.38146 7.31781 6.18248 10.6682 4.77077C14.355 3.2173 17.961 2.75254 22.813 2.32961C27.0358 1.96153 29.4713 2.09103 33.6566 2.77346C38.9205 3.63177 42.7652 3.98363 47.1026 6.86864C49.1111 8.20457 50.4494 9.04434 51.0063 11.4285C51.4045 13.1332 51.0451 14.2625 50.3557 15.8669C50.0757 16.5186 49.6161 17.1059 49.0545 17.6301C46.6373 19.8861 42.3315 20.9712 42.3315 20.9712C42.3315 20.9712 40.4739 21.4446 37.994 21.9574C36.9206 22.1794 35.7305 22.4088 34.5241 22.6103C32.8796 22.8851 31.2046 23.1081 29.7529 23.1904C26.4745 23.3762 24.3064 23.3772 21.5118 23.064C20.7713 22.9811 19.9869 22.876 19.1262 22.7466C17.8593 22.556 16.7329 22.4377 15.6763 22.299C13.3428 21.9927 11.3494 21.5869 8.93324 20.0835C8.71396 19.947 8.49683 19.8158 8.28262 19.6881C7.24614 19.0701 6.27786 18.5344 5.46329 17.8862C4.44366 17.075 3.66486 16.0877 3.29458 14.5429Z" fill="#FFCBA4"/>
<path d="M13.0538 36.357C12.6243 36.0619 12.1908 35.7446 11.7518 35.4036C7.95897 32.4577 3.68088 26.3979 3.68088 26.3979C3.68088 26.3979 1.19082 21.2849 0.401571 17.1985M13.0538 36.357C19.7768 39.3908 23.4636 39.8347 30.4035 39.8347C35.3281 39.8347 38.8194 39.1872 42.3315 37.3751M13.0538 36.357C13.0538 36.357 13.0538 38.5031 15.0056 39.8347C16.9575 41.1662 19.4589 41.9169 22.5961 42.4977C26.1004 43.1465 29.2449 43.0751 32.7891 42.7197C36.0807 42.3895 37.994 41.832 40.1627 40.7223C42.3315 39.6127 42.3315 37.3751 42.3315 37.3751M42.3315 37.3751C43.9333 36.5486 45.4923 35.4164 47.1026 33.8427C50.2022 30.8136 52.7413 25.1877 52.7413 25.1877C52.7413 25.1877 53.8094 21.2012 53.7985 17.1985M0.401571 17.1985C0.224655 16.2825 0.157338 15.3799 0.257644 14.5429C0.766829 10.2937 2.53212 7.76685 5.8963 5.22207C8.89064 2.95706 11.3836 2.32581 15.0056 1.442C20.82 0.0232563 24.2125 0.117141 30.1859 0.33976C37.2276 0.602193 42.7652 2.33707 47.7525 4.5563C51.2207 6.09957 52.5484 9.11499 53.7985 12.7675C54.2521 14.0927 53.7943 15.6468 53.7985 17.1985M0.401571 17.1985C0.401571 17.1985 4.0465 20.5429 6.76452 22.0808C10.7977 24.3628 13.495 24.8689 18.0418 25.639C23.5566 26.5731 27.241 26.6515 32.7891 25.954C37.6224 25.3464 40.2119 25.0819 44.717 23.1904C48.6059 21.5577 53.7985 17.1985 53.7985 17.1985M5.46329 17.8862C4.44366 17.075 3.66486 16.0877 3.29458 14.5429C2.9711 13.1933 2.97436 12.335 3.29458 10.9846C4.149 7.38146 7.31781 6.18248 10.6682 4.77077C14.355 3.2173 17.961 2.75254 22.813 2.32961C27.0358 1.96153 29.4713 2.09103 33.6566 2.77346C38.9205 3.63177 42.7652 3.98363 47.1026 6.86864C49.1111 8.20457 50.4494 9.04434 51.0063 11.4285C51.4045 13.1332 51.0451 14.2625 50.3557 15.8669C50.0757 16.5186 49.6161 17.1059 49.0545 17.6301M5.46329 17.8862C5.46329 17.8862 8.28301 13.4627 11.102 12.0942C12.5314 11.4003 13.5598 11.6422 15.0056 10.9846C16.7874 10.1743 17.1943 8.36935 19.1262 8.09962C20.287 7.93755 21.6859 8.5761 22.741 9.20923M5.46329 17.8862C6.27786 18.5344 7.24614 19.0701 8.28262 19.6881M26.283 13.4258L24.3311 10.3189C24.3311 10.3189 23.6691 9.76614 22.741 9.20923M26.283 13.4258C26.283 13.4258 26.0239 11.9004 26.283 10.9846C26.6996 9.5118 27.6082 7.29785 28.8854 8.09962C29.6629 8.58772 28.9145 9.95116 29.7529 10.3189C30.3036 10.5604 30.5617 9.90796 30.8244 9.24405M26.283 13.4258L29.7529 14.0915C29.7529 14.0915 29.6234 13.2673 29.7529 12.7675C30.1223 11.342 33.006 10.9846 33.006 10.9846C33.006 10.9846 33.2812 9.84281 33.006 9.20923M33.006 9.20923C32.7628 8.64923 32.4898 8.29341 31.9216 8.09962C31.3637 7.9093 31.0962 8.55739 30.8381 9.20923M33.006 9.20923H37.3434L45.8014 14.0915L49.0545 17.6301M22.741 9.20923L27.1504 5.22207L30.8381 9.20923M30.8381 9.20923L30.8244 9.24405M30.8381 9.20923C30.8335 9.22084 30.8289 9.23245 30.8244 9.24405M49.0545 17.6301C46.6373 19.8861 42.3315 20.9712 42.3315 20.9712C42.3315 20.9712 40.4739 21.4446 37.994 21.9574M20.6443 15.8669C20.6443 15.8669 17.4474 15.5439 15.4394 15.8669C13.6924 16.148 12.6344 16.2954 11.102 17.1985C9.84171 17.9412 8.28262 19.6881 8.28262 19.6881M8.28262 19.6881C8.49683 19.8158 8.71396 19.947 8.93324 20.0835C11.3494 21.5869 13.3428 21.9927 15.6763 22.299M27.1504 16.5327C27.1504 16.5327 26.0452 18.356 25.1986 19.4177C23.9327 21.0053 21.5118 23.064 21.5118 23.064M21.5118 23.064C24.3064 23.3772 26.4745 23.3762 29.7529 23.1904C31.2046 23.1081 32.8796 22.8851 34.5241 22.6103M21.5118 23.064C20.7713 22.9811 19.9869 22.876 19.1262 22.7466C17.8593 22.556 16.7329 22.4377 15.6763 22.299M25.1986 15.8669C25.1986 15.8669 22.9609 16.7064 21.5118 17.1985C20.1643 17.6561 19.196 17.4621 18.0418 18.3081C16.5937 19.3695 15.6763 22.299 15.6763 22.299M29.7529 18.3081L34.5241 22.6103M34.5241 22.6103C35.7305 22.4088 36.9206 22.1794 37.994 21.9574M33.006 17.1985L37.994 21.9574M33.006 14.5429C33.006 14.5429 36.1167 14.4208 37.994 14.9792C40.0299 15.5848 40.6458 17.6896 42.7652 17.6301C43.5447 17.6082 44.717 17.1985 44.717 17.1985" stroke="black" stroke-width="0.423529"/>
</svg>
