<svg width="142" height="67" viewBox="0 0 142 67" fill="none" xmlns="http://www.w3.org/2000/svg">
<path fill-rule="evenodd" clip-rule="evenodd" d="M100.708 0.0458893C94.7492 0.406599 88.4734 1.17053 83.555 2.13383C82.8868 2.2647 81.9773 2.43705 81.5341 2.51669C80.0681 2.78047 76.8025 4.79082 75.8941 5.98883C75.0448 7.10911 74.9238 7.83169 75.2517 9.82667C75.4079 10.7774 75.7033 12.1315 75.908 12.8358C76.1128 13.54 76.2805 14.1883 76.2809 14.2763C76.2813 14.3942 75.7475 14.4364 74.2512 14.4364H72.2209L71.8716 13.8922C71.6797 13.5928 71.028 12.4967 70.4235 11.4563C69.5107 9.88505 69.1716 9.45392 68.4221 8.91125C67.5962 8.31327 67.4323 8.25245 66.4849 8.19176C64.6377 8.07357 63.9776 8.49049 62.5474 10.6781C60.8528 13.2704 59.5951 14.6925 58.9975 14.6925C58.7632 14.6925 58.519 14.4633 58.2128 13.9562C57.9683 13.5513 57.2046 12.4997 56.5158 11.6193C55.8269 10.739 54.8694 9.5086 54.3882 8.88513C52.8763 6.92678 51.1914 5.98191 49.556 6.17514C48.6712 6.27975 47.0483 7.01756 46.2169 7.69327C45.8562 7.98637 45.0779 8.72482 44.4874 9.33432C42.7672 11.1098 40.9931 11.9903 34.8705 14.1072C31.293 15.3441 30.345 15.7149 28.7344 16.5072C26.8757 17.4215 24.0678 19.4507 22.6201 20.9262C21.3961 22.1735 21.334 22.2133 19.6458 22.8319C15.3791 24.3953 11.4316 26.3745 8.37714 28.4816C5.68118 30.3415 4.55468 31.3673 3.20122 33.1953C0.929746 36.2627 0.0317352 38.7974 0.0250035 42.1586C0.0190411 45.2155 0.637974 47.0068 2.50997 49.3494C9.06396 57.5517 26.9519 63.706 50.9895 66.0285C59.9609 66.8954 72.1743 67.1608 80.9937 66.6808C103.571 65.4518 121.762 60.8911 131.876 53.9243C134.797 51.9121 136.312 50.5163 137.972 48.3049C139.58 46.1636 140.523 44.149 141 41.8385L141.251 40.6221L141.308 42.2227C141.345 43.2727 141.389 43.5369 141.436 42.991C141.565 41.4902 141.12 36.3172 140.726 34.7319C139.332 29.1184 135.721 25.739 128.263 23.066C127.498 22.7917 126.87 22.5214 126.869 22.4652C126.867 22.409 127.168 22.0479 127.538 21.6627C130.074 19.0237 132.165 15.0728 132.912 11.511C133.078 10.7134 133.313 9.8031 133.432 9.48798C133.717 8.73352 133.535 7.65562 132.997 6.90782C130.959 4.07926 122.433 1.31253 112.742 0.335148C110.309 0.0898096 102.917 -0.0879203 100.708 0.0458893ZM100.419 1.37976C88.9769 1.79361 82.2575 3.11672 78.601 5.67588C77.5891 6.38398 77.2535 6.71895 77.0704 7.20284C76.8585 7.76305 76.9337 8.80229 77.186 8.80229C77.242 8.80229 77.8725 8.54337 78.5874 8.22697C85.988 4.95152 95.4107 3.77668 107.229 4.65611C117.701 5.43541 125.65 7.17839 130.026 9.65495C130.441 9.8903 130.843 10.0828 130.918 10.0828C131.165 10.0828 131.674 9.06414 131.672 8.57564C131.669 7.88559 130.871 6.84687 129.823 6.16835C126.618 4.09501 119.838 2.26021 112.825 1.5685C110.183 1.30792 104.708 1.22469 100.419 1.37976ZM97.2459 4.91054C89.9968 5.23809 84.1031 6.41945 79.4625 8.47512C77.2274 9.46519 77.2643 9.40731 78.3194 10.2696L79.2125 10.9993L79.7573 10.3641C80.5182 9.47735 81.8267 8.76925 84.071 8.03003C89.3716 6.2841 96.031 6.05119 97.9199 7.54576C99.0004 8.4006 98.318 8.911 95.5513 9.31716C88.6938 10.324 86.6497 10.8463 84.8332 12.0555C84.2553 12.4402 83.7825 12.8122 83.7825 12.882C83.7825 13.0431 87.2424 13.9293 89.2641 14.286C94.4802 15.2064 98.94 15.5103 105.805 15.4131C108.661 15.3727 111.785 15.2651 112.747 15.1742C114.373 15.0205 114.544 14.9756 115.162 14.5393C115.528 14.2811 116.059 14.0308 116.344 13.9833C116.988 13.8758 118.117 13.9649 118.912 14.186C119.461 14.3389 119.717 14.3115 121.701 13.8881C124.271 13.339 127.035 12.4703 128.451 11.7661C129.67 11.1602 130.327 10.7518 130.327 10.6019C130.327 10.4696 128.849 9.64317 127.635 9.09731C123.643 7.30208 116.179 5.86667 107.151 5.15844C104.747 4.9697 99.076 4.82782 97.2459 4.91054ZM103.098 6.22789C102.568 6.38808 102.209 6.61152 101.992 6.91666C101.596 7.47213 101.589 7.68738 101.955 8.15846C102.382 8.70804 103.836 9.01664 106.793 9.18515C108.154 9.26262 109.829 9.43484 110.517 9.56788C116.057 10.6394 117.737 10.6407 118.401 9.5739C118.959 8.67616 117.742 7.55062 115.648 7.02896C115.057 6.8817 113.552 6.66914 112.305 6.55646C111.057 6.44378 109.146 6.26912 108.059 6.16848C105.405 5.92263 104.054 5.93876 103.098 6.22789ZM103.647 6.64866C102.576 6.89015 102.385 7.78226 103.297 8.28613C103.478 8.38575 104.745 8.52237 106.433 8.6243C108.682 8.76003 109.799 8.90178 111.848 9.31102C116.568 10.254 118.873 9.87686 117.386 8.40508C116.636 7.66228 115.493 7.41476 110.261 6.8625C107.248 6.54455 104.503 6.45582 103.647 6.64866ZM90.9951 7.15009C88.1631 7.41809 85.566 7.98304 83.53 8.77386C82.3121 9.24687 80.5844 10.3298 80.1316 10.9038C79.8541 11.2557 79.8658 11.2758 80.5782 11.674C80.9806 11.8989 81.6726 12.2149 82.1163 12.3762L82.9228 12.6694L84.3032 11.7667C86.5914 10.2703 89.3006 9.52473 94.6402 8.92214C97.0221 8.65337 97.8101 8.40201 97.571 7.98739C97.405 7.69916 96.4226 7.39991 94.9695 7.19491C93.557 6.99566 92.7261 6.98619 90.9951 7.15009ZM48.8559 7.63616C48.156 7.92042 47.298 8.60804 45.8828 10.0187C43.8296 12.0654 42.395 12.7963 36.0989 15.0031C32.078 16.4124 30.6433 17.0063 28.5677 18.1207C25.9548 19.5237 23.8935 21.3059 22.2402 23.5918C20.5979 25.8628 19.816 27.7237 18.3672 32.8112C16.8039 38.3006 15.8684 40.5513 14.1893 42.8629C13.1807 44.2513 13.0187 45.068 13.6583 45.5385C13.8598 45.6867 14.0833 45.808 14.1551 45.808C14.2268 45.808 14.2864 45.3039 14.2876 44.6876C14.2893 43.7395 14.3655 43.4679 14.7826 42.9224C15.3848 42.1352 16.4585 41.4316 18.4849 40.4957C22.2352 38.7637 22.5053 38.3793 22.3126 35.0492C22.1179 31.6878 22.5164 31.04 25.8017 29.3793C28.6332 27.9479 29.0804 27.6724 29.9055 26.8498C30.8466 25.9115 31.3934 24.8044 31.7523 23.1111C32.3013 20.5204 33.6982 19.406 38.7762 17.5071C43.9165 15.585 44.6893 14.9877 46.4677 11.5641C47.5496 9.48145 48.2822 8.42147 49.0715 7.79699C49.6662 7.32654 49.6495 7.31412 48.8559 7.63616ZM49.5056 7.85153C48.8726 8.29163 48.2293 9.24392 47.1008 11.4105C45.7914 13.9246 45.44 14.348 43.6946 15.5145C42.2098 16.5069 41.3177 16.9219 37.6466 18.3276C35.79 19.0384 34.0136 20.081 33.3241 20.8643C32.6036 21.683 32.1068 22.7977 31.8597 24.1512C31.7375 24.8202 31.5056 25.5981 31.3444 25.8798C30.8314 26.7766 29.5832 27.7137 27.2623 28.9444C24.6369 30.3367 23.8895 30.8673 23.2554 31.7894C22.8082 32.4397 22.7957 32.5433 22.8513 35.1245C22.8997 37.3652 22.8594 37.8594 22.5976 38.2364C22.0666 39.0011 20.7452 39.8643 18.8073 40.7126C15.7034 42.0712 14.8538 42.9374 14.8388 44.759C14.8309 45.699 14.8448 45.7282 15.3116 45.761C15.576 45.7796 16.2205 45.7219 16.7437 45.633L17.6948 45.4711L17.926 44.6341C18.3664 43.0397 18.895 42.5278 21.6959 40.9833C25.6003 38.8304 26.3091 37.8306 26.367 34.395C26.4008 32.3969 26.4297 32.2475 26.9001 31.642C27.4181 30.9754 28.7167 30.078 30.48 29.1684C33.9355 27.3858 34.5441 26.7157 35.5967 23.5353C36.5946 20.5198 37.38 19.9492 42.2226 18.722C47.7346 17.3252 48.6609 16.5366 50.1338 11.9867C50.4642 10.9655 50.9783 9.74125 51.276 9.26594L51.8175 8.402L51.3974 7.98547C50.8379 7.43089 50.1776 7.38416 49.5056 7.85153ZM52.1489 9.64573C51.9786 9.91694 51.4239 11.2643 50.9162 12.6397C49.8095 15.6376 49.2971 16.4129 47.7298 17.4598C46.39 18.355 45.8099 18.5731 43.0076 19.2362C38.3931 20.3281 37.3383 21.0418 36.5709 23.5918C35.55 26.9839 34.9489 27.6605 31.1353 29.7111C27.5864 31.6194 27.4004 31.8492 27.3371 34.4024C27.2867 36.4338 26.9824 37.5579 26.1758 38.6932C25.532 39.599 24.5057 40.3529 22.2285 41.5925C21.1693 42.169 20.0811 42.8881 19.7539 43.2275C19.1958 43.8065 18.5932 45.0905 18.8115 45.2357C18.8684 45.2738 19.381 45.1923 19.9501 45.0549C22.8522 44.3545 25.3224 44.1078 28.9198 44.159C31.7683 44.1995 31.6441 44.2317 32.5096 43.2258L33.0237 42.6285L31.7168 42.526C29.9686 42.3891 26.9703 42.3887 25.8417 42.5254C25.0762 42.618 24.9281 42.604 24.9281 42.4392C24.9281 41.9622 27.9491 41.7696 31.6839 42.0087L33.3426 42.115L33.5793 41.6886C33.7093 41.4541 33.9359 41.0101 34.0825 40.7017L34.3489 40.1413L33.4033 40.2247C32.8833 40.2707 32.409 40.2557 32.3493 40.1916C32.1635 39.9913 32.7773 39.7611 33.6772 39.6935C34.4764 39.6335 34.5548 39.5944 34.7345 39.165C35.0576 38.3929 35.7756 35.3166 35.6519 35.2342C35.3719 35.0478 32.4969 35.0378 31.6181 35.2203C30.8678 35.376 30.6743 35.3793 30.4997 35.2392C30.3406 35.1114 30.3745 35.0397 30.6376 34.9473C31.3679 34.6907 33.3202 34.5106 34.5485 34.5866L35.8054 34.6644L36.1283 33.4049C36.5038 31.9399 37.3841 30.036 38.3142 28.6772C38.6741 28.1514 38.9685 27.6776 38.9685 27.6242C38.9685 27.5708 38.7954 27.497 38.5839 27.4601C38.3723 27.4233 38.1992 27.2949 38.1992 27.1748C38.1992 26.9973 38.3175 26.9713 38.8329 27.0357C39.4534 27.1132 39.4925 27.0899 40.6922 25.9295C41.4268 25.2192 42.9722 24.0393 44.5486 22.9855C47.0818 21.2918 47.1658 21.2185 46.8183 21.009C46.2724 20.6803 45.6574 19.9641 45.7943 19.8167C46.0215 19.5718 46.373 19.6958 46.9058 20.2082C47.1985 20.4899 47.5632 20.7524 47.7163 20.7915C47.88 20.8334 48.572 20.5504 49.3958 20.105C50.1665 19.6885 51.468 19.0134 52.2877 18.6051C53.1074 18.1967 53.7783 17.8129 53.7783 17.752C53.7783 17.6912 53.5133 17.3546 53.1894 17.0041C52.4514 16.2056 51.855 15.0915 51.855 14.5112C51.855 13.627 52.4995 13.8632 52.6814 14.8141C52.8009 15.4394 54.0872 17.2421 54.4867 17.3441C54.6244 17.3793 55.3487 17.0996 56.0961 16.7225C57.7133 15.9066 57.7067 16.0162 56.2671 13.8139C55.4126 12.5068 53.0649 9.5803 52.6185 9.26556C52.5299 9.2032 52.32 9.37286 52.1489 9.64573ZM65.2618 9.69055C65.0005 9.89748 64.5188 10.5594 64.1915 11.1613C63.4158 12.5885 62.869 13.2929 61.7481 14.3083C59.4764 16.3662 57.4525 17.6271 51.6626 20.5911C47.2772 22.8362 47.1926 22.8835 44.8674 24.4041C41.8062 26.406 39.8039 28.6093 38.7902 31.0912C38.5766 31.6146 38.0923 33.2818 37.7143 34.7959C36.3647 40.2022 35.7629 41.548 33.2729 44.7289C32.3857 45.8624 31.6598 46.8703 31.6598 46.9685C31.6598 47.2384 35.0366 44.954 35.8968 44.1023C36.7244 43.2826 37.0138 42.7236 37.6982 40.6221C37.9505 39.8474 38.4371 38.73 38.7795 38.1391C39.3619 37.1341 39.5355 36.9759 41.4631 35.6961C43.8663 34.1004 44.426 33.4521 44.8488 31.7754C45.9355 27.4648 46.209 27.132 49.7995 25.7532C52.0788 24.8779 52.6672 24.4665 53.3933 23.2392C54.4124 21.5168 55.3066 20.4774 56.1786 20.0017C56.6197 19.7611 57.8046 19.3096 58.8119 18.9983C62.4432 17.8764 63.3239 16.921 64.1809 13.175C64.6058 11.318 65.0755 10.2405 65.71 9.66661C66.2312 9.19513 65.8631 9.21485 65.2618 9.69055ZM66.1447 9.70771C65.6609 10.1136 65.4773 10.5664 64.9487 12.6533C64.3517 15.0112 63.7697 16.252 62.8369 17.1544C61.8489 18.1107 60.2523 18.9643 58.0476 19.715C55.5826 20.5545 55.2774 20.7939 54.2718 22.6787C53.3502 24.4061 52.8472 24.847 50.8856 25.6474C46.5946 27.3984 46.2517 27.7429 45.5902 30.9684C45.4142 31.826 45.1488 32.757 45.0003 33.0373C44.6568 33.6854 43.5444 34.6658 41.5075 36.1153C39.1697 37.779 38.595 38.6501 37.9145 41.5613C37.4972 43.3464 37.0698 43.8335 34.2079 45.7848C31.4769 47.6471 30.8907 48.287 30.8907 49.4057C30.8907 50.4224 31.2907 51.0412 31.9483 51.0412C32.2234 51.0412 32.6913 50.9575 32.9881 50.8554C33.441 50.6994 33.5462 50.5646 33.6441 50.0142C33.8155 49.0503 34.3889 48.5415 36.1624 47.7795C39.353 46.4084 40.3485 45.1921 40.9865 41.8858C41.3868 39.8118 41.7447 39.357 44.4208 37.52C45.6006 36.7101 46.8068 35.7687 47.1012 35.4277C47.4038 35.0774 47.9286 34.0361 48.3081 33.0328C49.435 30.0546 49.7249 29.7229 52.1664 28.6192C54.6842 27.4809 55.9338 26.6045 56.983 25.2406C58.3276 23.4927 59.2647 22.7025 62.1147 20.9135C64.8928 19.1698 66.3051 17.9465 67.054 16.6353C67.6472 15.597 68.28 13.2606 68.2815 12.104C68.2825 11.2836 68.1944 11.0155 67.7141 10.3753C67.1334 9.60143 66.5613 9.35801 66.1447 9.70771ZM77.4355 11.8236C77.4355 11.9288 77.7774 12.9199 78.1952 14.026C79.018 16.2039 80.1622 18.5217 81.1137 19.9383C81.6551 20.7446 81.7501 20.8181 82.0929 20.696C82.5258 20.5417 82.5306 20.5569 81.5828 19.0314C81.2058 18.4247 80.8115 17.6265 80.7063 17.2576C80.369 16.0735 80.9396 15.5083 81.4122 16.5585C81.5368 16.8351 81.8234 17.4798 82.0492 17.9912C82.5268 19.0727 83.1601 20.0705 83.3692 20.0705C83.4492 20.0705 83.7989 19.8753 84.1462 19.6368L84.7777 19.2029L84.2801 18.2846C83.6881 17.1921 83.6235 16.574 84.1074 16.6361C84.3239 16.6638 84.5936 17.0087 84.9159 17.6698C85.1818 18.2154 85.4531 18.6619 85.5191 18.6619C85.5849 18.6619 86.0457 18.2343 86.5431 17.7116C87.0405 17.1889 87.8275 16.4796 88.2924 16.1354L89.1373 15.5098L86.8928 15.0183C84.1431 14.4164 80.6952 13.2674 78.8299 12.3317C77.9327 11.8814 77.4355 11.7003 77.4355 11.8236ZM130.309 12.3687C128.606 13.2556 124.25 14.6692 121.743 15.1483C121.122 15.267 120.584 15.382 120.547 15.404C120.51 15.4261 120.895 16.1509 121.402 17.0147C122.314 18.5681 122.328 18.5813 122.57 18.2076C122.704 17.9997 122.871 17.6146 122.941 17.3519C123.079 16.8296 123.452 16.539 123.802 16.6828C124.118 16.8131 123.93 17.5498 123.322 18.5622C122.856 19.3371 122.829 19.4697 123.039 19.9372C123.167 20.2218 123.329 20.4546 123.4 20.4546C123.805 20.4546 125.761 17.6528 126.774 15.6208C126.866 15.4359 127.369 15.4061 127.527 15.5761C127.826 15.8984 125.879 19.0517 124.485 20.5026L123.77 21.2467L124.094 21.8119C124.491 22.5045 124.567 22.4724 125.86 21.0601C127.695 19.0544 128.906 17.2697 129.865 15.1557C130.373 14.0356 130.959 12.2532 130.844 12.177C130.804 12.15 130.563 12.2363 130.309 12.3687ZM69.1651 13.0537C69.1651 13.6334 68.5885 15.6314 68.1748 16.4851C67.3462 18.1953 66.7882 18.7098 62.898 21.3509C59.237 23.8366 59.215 23.8549 58.0249 25.4138C56.621 27.2525 55.8419 27.836 53.6135 28.7183C51.6917 29.4793 50.6177 30.2128 50.3113 30.974C48.601 35.2237 47.8988 36.1938 45.3144 37.8776C42.7243 39.5653 42.1624 40.3627 41.5754 43.183C41.2054 44.9603 41.0463 45.3272 40.2697 46.1925C39.6683 46.8625 39.1872 47.1453 36.3509 48.497C35.7112 48.8017 35.2415 49.1672 34.8822 49.6393C34.5918 50.021 34.3812 50.3514 34.4141 50.3733C34.4469 50.3953 35.0311 50.2163 35.7117 49.9757C38.0669 49.1431 40.637 48.8335 46.3734 48.6914C51.1241 48.5737 55.8028 48.1552 56.3358 47.8004C56.5814 47.6369 57.3453 45.7072 57.2022 45.612C57.1601 45.5838 56.5672 45.712 55.8848 45.8966C54.7646 46.1996 54.2884 46.2422 50.9895 46.3339C47.3584 46.4349 44.6841 46.6836 43.4067 47.0389C42.7154 47.2312 42.2382 47.1981 42.2382 46.9579C42.2382 46.7543 43.4126 46.4618 45.3767 46.1765C46.519 46.0104 48.3931 45.8885 50.8766 45.8186C54.0345 45.7296 54.8219 45.6671 55.7453 45.432C57.4367 45.0014 58.0595 44.3165 57.2196 43.8111C56.6816 43.4874 54.5403 43.4783 53.6462 43.7959C53.0194 44.0185 52.3583 43.9704 52.4879 43.7115C52.6189 43.45 54.429 43.094 55.728 43.0743C56.7364 43.0591 57.0892 43.1057 57.4069 43.2965C57.7266 43.4883 57.8279 43.5015 57.8997 43.3605C57.9872 43.1884 58.3928 41.0293 58.3938 40.7294C58.3942 40.6476 58.0264 40.5429 57.5769 40.497C57.1274 40.451 55.8565 40.294 54.7527 40.1482C52.4799 39.8478 50.2867 39.8808 48.2968 40.2452C46.8177 40.5161 46.6244 40.5265 46.5261 40.3415C46.4011 40.1062 47.3891 39.8292 49.1457 39.6074C51.2249 39.3448 52.5243 39.3553 54.6438 39.6517C55.5959 39.7849 56.8637 39.9339 57.4611 39.983L58.5474 40.0721L58.6632 39.6748C58.7269 39.4563 58.8296 39.1033 58.8915 38.8902L59.004 38.5028L58.1989 38.5886C57.4781 38.6653 57.4011 38.6489 57.4632 38.4317C57.5129 38.2578 57.7442 38.171 58.2805 38.1251C58.6917 38.0899 59.0975 37.9747 59.1821 37.8691C59.4183 37.5742 60.542 34.794 60.4739 34.6729C60.3681 34.4844 57.2126 32.7651 55.4676 31.9452C53.8237 31.1727 53.4104 30.8264 54.132 30.8264C54.4876 30.8264 58.1008 32.5414 59.356 33.3058C60.9503 34.2769 60.8368 34.2573 61.2149 33.6267C62.2362 31.9242 65.1897 28.4919 65.8769 28.209C66.296 28.0367 66.0631 27.7258 64.645 26.5652C63.2937 25.4591 62.6428 24.7544 62.342 24.0719C62.1266 23.5828 62.9121 23.6982 63.2141 24.2C63.5426 24.7462 64.3771 25.5702 65.6642 26.6193L66.708 27.4701L67.923 26.6451C69.0439 25.8839 69.1295 25.786 69.0301 25.3782C68.9479 25.0413 68.9901 24.9363 69.2066 24.9363C69.363 24.9363 69.5696 25.0536 69.6655 25.1968C69.8352 25.4499 69.8642 25.4458 70.6566 25.0578C71.1057 24.8379 71.4731 24.6092 71.4731 24.5496C71.4731 24.49 70.9971 24.0484 70.4153 23.5683C69.2595 22.6146 68.2569 21.1133 68.0684 20.0538C67.9759 19.5339 68.0093 19.4302 68.2692 19.4302C68.455 19.4302 68.6239 19.5724 68.6875 19.7824C69.1591 21.3384 69.7215 22.1438 71.1961 23.3761L72.2886 24.2889L73.1791 23.9512C73.6688 23.7655 74.1462 23.5694 74.2394 23.5152C74.6116 23.2997 72.6933 18.8764 70.5814 15.0805C69.8969 13.85 69.2982 12.8177 69.2509 12.7862C69.2037 12.7549 69.1651 12.8752 69.1651 13.0537ZM116.411 15.4414C116.113 15.6483 115.611 16.324 115.238 17.0183C114.129 19.0832 112.588 20.5897 109.619 22.5091C107.336 23.985 106.484 24.4607 102.631 26.4124C95.9542 29.7946 93.3369 31.6349 91.2795 34.3946C90.148 35.9121 89.6681 37.1365 88.688 41.0062C87.4269 45.9853 86.6552 47.7009 84.5124 50.2897C83.3744 51.6645 82.5827 52.8506 82.803 52.8506C82.8962 52.8506 83.8448 52.2424 84.9111 51.4989C87.3072 49.828 87.98 48.98 88.6638 46.7684C88.9252 45.9232 89.4172 44.7205 89.7572 44.0957C90.3504 43.0054 90.4636 42.8985 92.5701 41.44C95.2836 39.5615 95.6255 39.1144 96.1271 36.7908C96.6522 34.3575 97.0682 33.6115 98.383 32.7459C98.9741 32.3567 99.9946 31.8502 100.651 31.6202C102.875 30.8405 103.665 30.3245 104.349 29.2034C105.546 27.2411 106.271 26.3753 107.135 25.8729C107.992 25.3742 108.328 25.2451 110.517 24.5706C113.499 23.6518 114.585 22.3293 115.317 18.726C115.598 17.3413 115.96 16.4778 116.56 15.7636C116.836 15.4348 117.033 15.1463 116.997 15.1225C116.961 15.0988 116.698 15.2422 116.411 15.4414ZM117.377 15.6932C116.926 16.0249 116.732 16.4888 116.376 18.0857C115.365 22.623 113.753 24.2819 108.906 25.7738C107.005 26.3589 106.427 26.8405 105.612 28.5216C104.772 30.255 103.941 30.9058 101.243 31.9426C98.2024 33.1116 97.4991 33.8668 96.9572 36.5454C96.4135 39.234 96.066 39.6903 92.742 42.0809C90.3861 43.7754 89.8207 44.62 89.2592 47.2828C88.8678 49.1391 88.462 49.6163 85.5937 51.5911C82.7956 53.5177 82.1671 54.2061 82.1633 55.3475C82.16 56.3256 82.541 56.8698 83.2674 56.9255C84.1064 56.9896 84.6867 56.6584 84.8452 56.0248C85.1316 54.8802 85.7163 54.3938 87.9339 53.4559C90.6841 52.2926 91.6757 50.9638 92.3187 47.5807C92.4816 46.7238 92.7413 45.9917 93.0169 45.6127C93.2742 45.2588 94.4242 44.3372 95.7961 43.3852C97.1602 42.4388 98.3184 41.5111 98.5727 41.1613C98.8127 40.8312 99.3103 39.7393 99.6786 38.7349C100.611 36.1915 101.138 35.5798 103.192 34.6572C106.034 33.3805 107.081 32.661 108.195 31.2169C109.487 29.5423 111.108 28.1305 112.83 27.1799C115.588 25.6572 117.311 24.1937 118.339 22.4999C118.879 21.6087 119.557 19.1265 119.557 18.0364C119.557 17.1425 119.13 16.1288 118.592 15.7445C118.11 15.3999 117.794 15.3866 117.377 15.6932ZM73.0252 16.037C73.0327 16.1074 73.487 17.0293 74.035 18.0857L75.0313 20.0064L77.0508 20.0838C78.1615 20.1263 79.093 20.1496 79.1209 20.1355C79.1488 20.1214 78.9647 19.7985 78.7122 19.4179C78.4597 19.0374 77.9761 18.1504 77.6378 17.4468C77.2995 16.7433 76.9866 16.1436 76.9425 16.1142C76.754 15.9888 73.0124 15.9149 73.0252 16.037ZM90.2457 16.4865C89.7645 16.7818 88.7453 17.637 87.981 18.3869C87.2167 19.1367 86.1505 20.0384 85.6118 20.3906C84.5547 21.0817 81.4639 22.3838 78.6856 23.3087C72.7271 25.2922 69.5701 26.8494 66.9775 29.0833C63.5787 32.0119 62.1578 34.6105 60.2215 41.4388C58.6998 46.8054 57.8427 48.8697 56.0686 51.4431C55.1135 52.8286 54.9442 53.4075 55.3458 53.9154C55.5545 54.1795 55.8721 54.3809 56.0863 54.3853C56.1392 54.3863 56.1825 53.8831 56.1825 53.2668C56.1825 51.4084 57.0426 50.5552 60.4737 49.0103C61.1415 48.7097 62.1464 48.1846 62.7073 47.8433C64.2452 46.9075 64.3521 46.5321 64.1625 42.7349C64.0351 40.1906 64.5815 39.5047 68.1857 37.6842C72.0428 35.7359 73.0085 34.6469 73.6603 31.5102C74.1212 29.2926 75.4969 28.097 79.2998 26.6093C86.1578 23.9266 86.4365 23.7251 88.382 20.046C89.5849 17.7711 90.0338 17.1169 90.8175 16.4968C91.5919 15.8841 91.2378 15.8778 90.2457 16.4865ZM91.3995 16.6713C90.7508 17.2375 90.3188 17.9084 89.1277 20.1985C87.9946 22.3772 87.8431 22.5894 86.7274 23.5572C85.6462 24.4951 84.2066 25.2726 81.8819 26.1744C79.4019 27.1362 77.0439 28.1812 76.5332 28.5448C75.841 29.0376 74.7449 30.3378 74.4477 31.0185C74.2941 31.3706 74.0373 32.2811 73.8775 33.0418C73.7174 33.8024 73.4163 34.647 73.2081 34.9188C72.6142 35.6938 71.4187 36.5362 69.2964 37.6751C67.0117 38.901 65.8965 39.6754 65.3055 40.4468C64.8399 41.0544 64.7899 41.6319 64.9349 44.7196C65.0049 46.2099 64.9703 46.4472 64.6041 46.9855C64.0474 47.8041 62.8455 48.5697 60.5177 49.5883C57.676 50.8318 56.8557 51.7398 56.8557 53.6422C56.8557 54.5143 56.8562 54.5152 57.3977 54.5152C57.696 54.5152 58.3763 54.4289 58.9094 54.3235L59.8792 54.1318L59.9869 53.4368C60.1113 52.6341 60.671 51.7201 61.383 51.1568C61.6558 50.9409 62.6869 50.3137 63.6743 49.763C67.6762 47.531 68.4515 46.4281 68.4804 42.9269C68.4946 41.1778 68.5502 40.8126 68.8597 40.43C69.5463 39.581 70.2248 39.1059 72.3513 37.9849C76.1089 36.0042 76.6634 35.4114 77.6365 32.3354C78.5966 29.3002 79.3892 28.7026 84.0624 27.4895C87.2286 26.6677 87.8881 26.4333 89.0221 25.7272C90.5769 24.7589 91.1543 23.8505 92.1697 20.7747C92.5416 19.6479 93.0921 18.3709 93.3931 17.9369C93.9022 17.2026 93.9195 17.1273 93.6416 16.8485C92.8853 16.0902 92.1335 16.0307 91.3995 16.6713ZM95.5149 16.4101C95.5149 16.5339 97.003 18.4799 97.9385 19.5793C98.9177 20.7303 100.221 22.6591 100.995 24.104C101.297 24.6674 101.568 25.1492 101.596 25.1747C101.723 25.2867 108.203 21.9757 109.304 21.2365C109.975 20.7861 110.913 20.0021 111.389 19.4941C112.224 18.6021 113.697 16.5109 113.556 16.4173C113.519 16.392 112.971 16.427 112.339 16.4949C110.36 16.7076 101.564 16.7909 98.8467 16.6228C97.4902 16.5389 96.1858 16.4385 95.9477 16.3997C95.7096 16.3611 95.5149 16.3657 95.5149 16.4101ZM93.7278 18.822C93.4604 19.4029 92.9353 20.7385 92.5607 21.7898C91.198 25.6152 89.862 26.6276 84.5024 27.8975C81.9617 28.4993 80.9771 28.8577 80.1582 29.4787C79.23 30.1826 79.0024 30.5687 78.2925 32.6437C77.9292 33.7057 77.4193 34.8839 77.1595 35.2619C76.5782 36.1071 75.2202 37.0814 72.8 38.3893C69.4097 40.2215 69.3107 40.3532 69.1462 43.247C69.0456 45.0147 68.9318 45.6688 68.6067 46.3449C68.053 47.4967 66.834 48.6636 65.3184 49.4927C61.7898 51.423 61.0226 52.0659 60.767 53.3067C60.6504 53.8737 60.6679 53.9106 61.0084 53.8157C61.2103 53.7595 62.1285 53.5527 63.0488 53.3561C65.4888 52.835 67.878 52.6726 71.8435 52.7583C75.5973 52.8393 77.8532 52.7194 79.777 52.3364C80.9421 52.1045 81.081 52.0399 81.2799 51.6388C81.4005 51.3956 81.9146 50.7765 82.4225 50.263C84.7936 47.8656 85.9832 45.4114 86.7543 41.3263C86.9205 40.446 87.0964 39.6068 87.1453 39.4615C87.2153 39.2527 87.0632 39.1417 86.4217 38.9339C85.9751 38.7891 84.8573 38.2049 83.9379 37.6359C82.3537 36.6555 81.0566 36.0764 80.4449 36.0764C80.2153 36.0764 79.9358 35.8246 79.9358 35.6177C79.9358 35.4887 80.7767 35.582 81.3399 35.7737C82.6 36.2024 84.7761 37.2829 85.3483 37.7638C85.8876 38.2172 86.7793 38.6373 87.202 38.6373C87.348 38.6373 87.8215 37.5535 87.8215 37.2191C87.8215 37.154 87.6052 37.1008 87.3407 37.1008C86.9003 37.1008 86.7804 37.0033 86.908 36.7486C86.9343 36.6958 87.2118 36.6526 87.5244 36.6526C88.0129 36.6526 88.132 36.5806 88.3712 36.1404C89.0575 34.8777 89.9992 33.5741 91.0135 32.4824L92.112 31.3001L91.5536 31.0313C89.5133 30.0496 88.6311 29.5432 88.1279 29.065C87.7159 28.6733 87.6132 28.481 87.7633 28.3811C87.9133 28.2812 88.3701 28.5067 89.3873 29.1826C90.1657 29.6996 91.2014 30.3076 91.6888 30.5335L92.5749 30.9441L93.9868 29.8492C94.7633 29.2471 95.7927 28.53 96.2743 28.256C97.0159 27.8338 97.1165 27.723 96.9321 27.5314C94.3136 24.8094 93.7256 23.9695 93.8226 23.0899C93.8541 22.8025 93.9593 22.5793 94.0563 22.594C94.1532 22.6086 94.3913 23.0366 94.5852 23.5449C94.8439 24.2233 95.3016 24.8548 96.3052 25.9188L97.6727 27.3685L98.3728 26.9912C98.7581 26.7836 99.3218 26.4782 99.6257 26.3124L100.178 26.011L99.4657 24.6092C99.0737 23.8384 98.3242 22.6026 97.7999 21.8631C96.7095 20.3257 94.5548 17.7656 94.3507 17.7656C94.2755 17.7656 93.9951 18.241 93.7278 18.822ZM120.252 18.9349C120.201 19.1017 120.058 19.6991 119.933 20.2625C119.636 21.6052 119.101 22.7446 118.251 23.8479C117.674 24.5968 116.972 25.1336 113.979 27.1131L110.398 29.4819L109.186 31.069C107.751 32.9474 106.968 33.5517 104.845 34.4184C103.284 35.0556 102.238 35.6386 101.754 36.1404C101.619 36.2813 101.291 36.9727 101.026 37.677C99.8567 40.7816 98.5525 42.4101 96.0233 43.9225C93.8191 45.2407 93.3187 46.0765 92.4541 49.8846C92.0721 51.5667 91.0582 52.5904 88.7328 53.6417C86.6652 54.5764 86.0107 55.0515 85.6149 55.9045L85.4754 56.2056L86.3273 55.8732C88.528 55.0145 90.9202 54.6878 96.2843 54.5134C103.681 54.273 106.764 53.9306 110.263 52.9609C115.845 51.4137 121.113 47.8988 124.054 43.7591C127.638 38.7143 127.452 32.4758 123.473 24.2542C122.795 22.8531 120.558 18.774 120.417 18.6795C120.377 18.6532 120.303 18.7682 120.252 18.9349ZM75.3231 20.6787C75.3302 20.8862 76.0666 22.6591 76.1759 22.7319C76.2968 22.8123 77.8942 22.3288 79.3113 21.7828C80.1187 21.4718 80.1257 21.4631 79.8495 21.1075C79.6225 20.8152 79.3994 20.7317 78.6679 20.665C77.4351 20.5524 75.319 20.5611 75.3231 20.6787ZM125.399 24.263C125.465 24.4572 125.844 25.3168 126.241 26.1732L126.962 27.7304L128.019 28.2092C132.101 30.0568 135.427 32.6833 136.842 35.1766C137.143 35.7067 137.455 36.2557 137.536 36.3965C137.649 36.5949 137.734 36.4892 137.91 35.9282C138.034 35.5298 138.241 35.12 138.369 35.0176C138.553 34.8697 138.486 34.531 138.042 33.3731C137.037 30.7481 135.363 28.5777 133.236 27.1392C131.765 26.1446 130.885 25.7558 127.833 24.7511C125.289 23.9134 125.279 23.9114 125.399 24.263ZM16.7458 25.8025C13.604 27.2033 11.8172 28.1773 9.73175 29.6257C6.88597 31.6023 4.93261 33.7347 3.67802 36.2341C3.0512 37.4832 3.01388 37.6346 3.26873 37.8988C3.42279 38.0584 3.60877 38.4628 3.68205 38.7974C3.75514 39.132 3.87439 39.4056 3.94709 39.4056C4.01979 39.4056 4.27695 39.132 4.51852 38.7974C6.49841 36.0551 11.3435 32.6492 16.1357 30.6308L17.0039 30.2651L17.6225 28.6665C17.9627 27.7872 18.5336 26.5451 18.8909 25.906C19.2485 25.267 19.5412 24.7297 19.5418 24.7122C19.5454 24.5875 18.9486 24.8203 16.7458 25.8025ZM119.082 25.7366C119.384 26.9438 120.307 28.3101 121.481 29.2899C122.638 30.2551 122.971 30.8094 122.749 31.3982C122.447 32.1992 121.039 32.0142 120.793 31.1411C120.7 30.8121 120.577 30.6975 120.351 30.7285C119.675 30.8213 120.245 31.8978 121.188 32.3092C122.212 32.756 123.596 31.9402 123.596 30.8894C123.596 30.3259 123.195 29.8316 121.957 28.8678C121.089 28.1924 120.209 26.943 119.932 25.9927C119.741 25.3363 119.631 25.1924 119.322 25.1924C118.986 25.1924 118.961 25.2507 119.082 25.7366ZM128.981 26.4516C128.981 26.5923 129.409 26.8827 130.05 27.1763C130.638 27.4459 131.62 28.0403 132.234 28.4971C133.309 29.2981 133.79 29.4309 133.79 28.9272C133.79 28.6954 131.232 26.9593 130.202 26.4919C129.458 26.1546 128.981 26.1389 128.981 26.4516ZM13.39 28.3387C11.2058 29.4091 7.62222 31.9279 7.61876 32.395C7.61626 32.7206 8.44503 32.2936 10.7246 30.7944C12.1436 29.8614 13.7102 28.8961 14.2058 28.6496C15.0731 28.2184 15.4081 27.7533 14.8517 27.7533C14.7048 27.7533 14.0468 28.0167 13.39 28.3387ZM128.981 28.0007C128.981 28.1367 129.262 28.3801 129.606 28.5414C129.95 28.7028 130.402 28.9389 130.61 29.0662C131.04 29.3285 131.578 29.3137 131.578 29.0398C131.578 28.8192 129.659 27.7533 129.263 27.7533C129.108 27.7533 128.981 27.8646 128.981 28.0007ZM127.32 28.9087C130.008 37.7717 127.213 45.1519 119.179 50.4075C113.631 54.0365 108.271 55.2964 96.8001 55.6683C90.7879 55.8632 88.8713 56.1506 86.5768 57.2018C85.2489 57.81 84.1647 58.0947 83.1642 58.0977C81.2008 58.1039 80.2168 56.8993 80.3522 54.6552L80.4278 53.4034L79.2682 53.6659C78.199 53.9079 77.6136 53.9297 71.7616 53.946L65.4146 53.9637L63.5874 54.4223C62.5824 54.6744 61.1543 55.0385 60.4139 55.2315C58.5728 55.7112 56.2008 55.7454 54.9729 55.3098C54.5192 55.1488 53.9785 54.8321 53.7716 54.6061C53.0038 53.7678 53.4313 52.1538 54.9564 50.1333C55.5093 49.4005 55.6493 49.0645 55.3503 49.1876C54.8987 49.3733 49.3323 49.7862 45.7003 49.9032C39.6965 50.0967 37.9321 50.355 35.5767 51.3848C33.8294 52.1489 32.8358 52.3878 31.7462 52.306C29.9463 52.1709 29.2404 51.2445 29.2837 49.0732C29.3099 47.7521 29.4451 47.2714 30.2423 45.6645C30.3323 45.483 30.0588 45.4493 28.0695 45.3973C24.4982 45.3037 23.3135 45.4317 20.0236 46.2662C16.4827 47.1643 15.0246 47.2889 13.423 46.8302C12.2331 46.4893 11.6412 45.9942 11.5122 45.2311C11.3712 44.3984 11.7655 43.5083 13.2134 41.3904C14.7869 39.0888 15.4308 37.4465 16.2505 33.6435C16.5617 32.1998 16.7908 31.0014 16.7598 30.9804C16.6181 30.8846 13.4632 32.6935 11.4478 34.0263C9.19552 35.5158 6.50649 37.6583 5.60732 38.6798C3.50338 41.0699 5.98699 44.2424 12.7149 47.7591C17.4376 50.2277 21.5892 51.6429 32.4292 54.479C34.7035 55.074 37.9669 55.9322 39.6813 56.386C47.393 58.4276 50.2115 58.8285 60.8947 59.4038C65.4744 59.6504 77.658 59.6132 82.2438 59.3384C92.0393 58.7517 100.383 57.6306 108.612 55.7956C112.749 54.8729 117.849 53.4784 119.957 52.693C126.663 50.195 132.408 45.4956 136.398 39.2444L137.201 37.9862L136.948 37.1914C136.203 34.8574 134.609 32.921 131.881 31.0364C130.514 30.0927 129.047 29.2653 127.746 28.7053L127.185 28.4636L127.32 28.9087ZM113.404 29.706C113.409 30.1176 114.472 31.2763 116.077 32.6191C117.045 33.429 118.051 34.3767 118.312 34.725C119.052 35.7109 118.898 36.2585 117.902 36.1827C117.485 36.1509 117.267 36.0285 117.029 35.6922C116.669 35.1819 116.221 35.104 116.129 35.5356C116.087 35.7328 116.283 35.9711 116.735 36.2719C117.271 36.6292 117.552 36.7166 118.161 36.7166C120.457 36.7166 119.865 34.9452 116.694 32.3233C115.858 31.6324 114.9 30.7249 114.565 30.3066C114.014 29.6175 113.399 29.2997 113.404 29.706ZM13.0995 30.0779C12.4931 30.2985 9.92601 32.0182 9.92601 32.2037C9.92601 32.5465 10.4661 32.4905 11.1085 32.0813C11.4731 31.8489 12.2217 31.3843 12.7722 31.049C13.9804 30.3126 14.1937 29.6797 13.0995 30.0779ZM104.747 36.7101C104.747 36.7769 105.028 36.9691 105.372 37.1371C108.424 38.6282 109.873 39.3827 111.19 40.1666C112.864 41.1629 113.717 41.5142 114.787 41.6477C116.663 41.8819 118.224 40.3857 117.008 39.5183C116.457 39.1253 115.021 38.7969 114.609 38.9699C114.113 39.1786 114.304 39.3367 115.173 39.4349C117.004 39.6417 117.213 40.8486 115.467 41.1386C114.674 41.2704 113.093 40.6988 111.44 39.6823C109.93 38.7542 107.176 37.3021 106.089 36.8611C105.387 36.576 104.747 36.5041 104.747 36.7101ZM138.806 39.3096C136.61 43.0929 133.248 46.7389 129.601 49.2901C125.977 51.8257 122.161 53.6658 117.159 55.2897C109.842 57.6653 102.115 58.9829 87.854 60.2867C83.505 60.6843 79.7531 60.8928 73.8773 61.0634C59.3031 61.4866 46.857 60.2169 36.7567 57.2766C35.3815 56.8763 32.7417 56.1572 30.8905 55.6787C14.4288 51.4233 7.50105 48.0966 3.13563 42.3507L2.21146 41.1343L2.32744 42.3398C2.98253 49.1439 9.58 54.815 21.5944 58.9017C34.6589 63.3455 52.2173 65.61 71.6654 65.359C89.8137 65.125 105.717 62.8191 118.198 58.6121C125.066 56.2969 130.631 53.3244 134.03 50.1553C137.205 47.195 138.792 44.1829 139.105 40.526C139.23 39.0607 139.147 38.7218 138.806 39.3096ZM0 42.2227C0 43.1734 0.0301965 43.5623 0.0673171 43.087C0.104245 42.6117 0.104245 41.8337 0.0673171 41.3583C0.0301965 40.883 0 41.2719 0 42.2227ZM81.8953 41.9346C81.9423 42.0977 82.2083 42.1777 82.8733 42.2287C84.286 42.337 84.8788 42.9358 84.1685 43.5369C83.3773 44.2066 81.4691 44.2118 78.8336 43.5514C77.268 43.1591 75.4292 43.041 73.8829 43.2337C72.6063 43.3929 71.9468 43.6864 72.4244 43.8829C72.5967 43.9539 72.8527 43.9405 73.0976 43.8478C73.328 43.7606 74.2946 43.6994 75.416 43.7011C77.0833 43.7037 77.5728 43.7587 79.0932 44.1157C81.7157 44.7315 83.4167 44.6708 84.5999 43.9192C85.2402 43.5125 85.3379 42.666 84.7923 42.2512C84.3884 41.9443 83.3928 41.7105 82.4895 41.7105C81.9661 41.7105 81.8442 41.7564 81.8953 41.9346ZM109.209 43.8924C108.454 44.0033 108.317 44.0769 108.499 44.273C108.589 44.3704 108.946 44.3913 109.561 44.3349C110.625 44.2375 111.772 44.5182 111.965 44.9229C112.121 45.2511 111.935 45.4169 111.173 45.629C110.258 45.8835 109.195 45.8528 106.286 45.4879C103.236 45.1053 102.116 45.0935 99.8955 45.4203C98.1688 45.6746 97.4383 45.8632 97.4383 46.0549C97.4383 46.2933 98.0299 46.2902 99.197 46.0454C101.117 45.6428 103.502 45.6017 105.885 45.9299C109.572 46.4376 111.357 46.4015 112.258 45.8012C112.664 45.5313 112.763 44.8009 112.448 44.4086C112.111 43.99 110.401 43.7174 109.209 43.8924ZM74.5931 48.3988C73.8463 48.6384 74.2162 48.8204 75.3556 48.7742C76.1476 48.7421 76.4936 48.7846 76.7321 48.9434C77.3558 49.3586 76.9864 50.1345 75.9958 50.4897C75.4333 50.6913 75.175 50.699 73.4149 50.5657C70.9574 50.3797 69.4651 50.3783 68.1647 50.5607C66.1262 50.8467 66.2345 51.2923 68.2815 51.0412C69.2999 50.9163 70.1952 50.9157 72.5477 51.0385C75.9682 51.2171 76.5044 51.1353 77.351 50.3057C78.0007 49.6691 77.9688 49.0884 77.2579 48.6152C76.8031 48.3125 76.5367 48.2426 75.8635 48.2496C75.4058 48.2543 74.8341 48.3214 74.5931 48.3988ZM105.42 48.9256C104.321 49.113 103.593 49.3493 103.593 49.5183C103.593 49.7644 104.025 49.7918 104.674 49.5868C106.411 49.0377 108.6 49.2715 108.588 50.0049C108.579 50.4624 108.278 50.7086 107.343 51.0218C106.146 51.4227 104.911 51.5477 101.381 51.6249C98.1084 51.6966 95.6594 51.9527 94.1015 52.386C93.4327 52.5721 93.2246 52.7637 93.5473 52.8964C93.6287 52.9299 94.3859 52.8245 95.2303 52.6622C97.0855 52.3056 99.9971 52.0823 102.791 52.0823C104.023 52.0823 105.322 52.0029 106.005 51.8859C108.32 51.4891 109.756 50.5825 109.336 49.7818C108.871 48.8928 107.443 48.5805 105.42 48.9256ZM21.0814 55.3888C21.0814 55.5653 22.0498 55.9354 25.0724 56.9136C29.2472 58.2647 30.3381 58.5549 30.7989 58.4372C31.3367 58.2998 30.857 58.009 29.3912 57.5835C28.5761 57.3467 26.4933 56.7037 24.7625 56.1544C23.0319 55.6049 21.4955 55.1555 21.3486 55.1555C21.2016 55.1555 21.0814 55.2605 21.0814 55.3888ZM26.5541 55.5491C26.3264 55.7944 27.2205 56.2633 28.6057 56.6252C29.537 56.8683 30.0217 56.9375 30.1583 56.8466C30.4656 56.642 30.2565 56.521 28.6015 55.9459C26.9567 55.3745 26.753 55.335 26.5541 55.5491ZM17.4271 56.0232C17.4271 56.5317 19.9868 57.6803 24.0626 59.0007C28.4761 60.4306 30.7943 60.9017 30.7943 60.3688C30.7943 60.1923 30.3329 60.037 28.7748 59.6892C25.3589 58.9267 21.1395 57.486 19.2056 56.4222C18.3949 55.9761 17.4271 55.7591 17.4271 56.0232ZM103.497 59.6486C103.074 59.7084 102.24 59.7913 101.643 59.8328C100.386 59.9201 99.6618 60.1921 100.131 60.401C100.536 60.5812 101.524 60.5641 102.796 60.3547C103.393 60.2565 104.119 60.1401 104.41 60.0962C104.769 60.0421 104.939 59.9347 104.939 59.7627C104.939 59.4864 104.75 59.4714 103.497 59.6486ZM105.709 60.4833C103.839 60.8541 98.0853 61.6974 96.4766 61.8365C96.1448 61.865 95.9958 61.9573 95.9958 62.134C95.9958 62.3535 96.1058 62.3849 96.7651 62.3538C98.5384 62.2699 106.364 61.1043 108.094 60.6662C108.656 60.524 108.735 60.1067 108.207 60.0665C108.049 60.0544 106.925 60.242 105.709 60.4833Z" fill="black"/>
<path fill-rule="evenodd" clip-rule="evenodd" d="M120.252 18.9349C120.201 19.1017 120.058 19.6991 119.933 20.2625C119.636 21.6052 119.101 22.7446 118.251 23.8479C117.674 24.5968 116.972 25.1336 113.979 27.1131L110.398 29.4819L109.186 31.069C107.751 32.9474 106.968 33.5517 104.845 34.4184C103.284 35.0556 102.238 35.6386 101.754 36.1404C101.619 36.2813 101.291 36.9727 101.026 37.677C99.8567 40.7816 98.5525 42.4101 96.0233 43.9225C93.8191 45.2407 93.3187 46.0765 92.4541 49.8846C92.0721 51.5667 91.0582 52.5904 88.7328 53.6417C86.6652 54.5764 86.0107 55.0515 85.6149 55.9045L85.4754 56.2056L86.3273 55.8732C88.528 55.0145 90.9202 54.6878 96.2843 54.5134C103.681 54.273 106.764 53.9306 110.263 52.9609C115.845 51.4137 121.113 47.8988 124.054 43.7591C127.638 38.7143 127.452 32.4758 123.473 24.2542C122.795 22.8531 120.558 18.774 120.417 18.6795C120.377 18.6532 120.303 18.7682 120.252 18.9349ZM121.481 29.2899C120.307 28.3101 119.384 26.9438 119.082 25.7366C118.961 25.2507 118.986 25.1924 119.322 25.1924C119.631 25.1924 119.741 25.3363 119.932 25.9927C120.209 26.943 121.089 28.1924 121.957 28.8678C123.195 29.8316 123.596 30.3259 123.596 30.8894C123.596 31.9402 122.212 32.756 121.188 32.3092C120.245 31.8978 119.675 30.8213 120.351 30.7285C120.577 30.6975 120.7 30.8121 120.793 31.1411C121.039 32.0142 122.447 32.1992 122.749 31.3982C122.971 30.8094 122.638 30.2551 121.481 29.2899ZM116.077 32.6191C114.472 31.2763 113.409 30.1176 113.404 29.706C113.399 29.2997 114.014 29.6175 114.565 30.3066C114.9 30.7249 115.858 31.6324 116.694 32.3233C119.865 34.9452 120.457 36.7166 118.161 36.7166C117.552 36.7166 117.271 36.6292 116.735 36.2719C116.283 35.9711 116.087 35.7328 116.129 35.5356C116.221 35.104 116.669 35.1819 117.029 35.6922C117.267 36.0285 117.485 36.1509 117.902 36.1827C118.898 36.2585 119.052 35.7109 118.312 34.725C118.051 34.3767 117.045 33.429 116.077 32.6191ZM105.372 37.1371C105.028 36.9691 104.747 36.7769 104.747 36.7101C104.747 36.5041 105.387 36.576 106.089 36.8611C107.176 37.3021 109.93 38.7542 111.44 39.6823C113.093 40.6988 114.674 41.2704 115.467 41.1386C117.213 40.8486 117.004 39.6417 115.173 39.4349C114.304 39.3367 114.113 39.1786 114.609 38.9699C115.021 38.7969 116.457 39.1253 117.008 39.5183C118.224 40.3857 116.663 41.8819 114.787 41.6477C113.717 41.5142 112.864 41.1629 111.19 40.1666C109.873 39.3827 108.424 38.6282 105.372 37.1371ZM108.499 44.273C108.317 44.0769 108.454 44.0033 109.209 43.8924C110.401 43.7174 112.111 43.99 112.448 44.4086C112.763 44.8009 112.664 45.5313 112.258 45.8012C111.357 46.4015 109.572 46.4376 105.885 45.9299C103.502 45.6017 101.117 45.6428 99.197 46.0454C98.0299 46.2902 97.4383 46.2933 97.4383 46.0549C97.4383 45.8632 98.1688 45.6746 99.8955 45.4203C102.116 45.0935 103.236 45.1053 106.286 45.4879C109.195 45.8528 110.258 45.8835 111.173 45.629C111.935 45.4169 112.121 45.2511 111.965 44.9229C111.772 44.5182 110.625 44.2375 109.561 44.3349C108.946 44.3913 108.589 44.3704 108.499 44.273ZM103.593 49.5183C103.593 49.3493 104.321 49.113 105.42 48.9256C107.443 48.5805 108.871 48.8928 109.336 49.7818C109.756 50.5825 108.32 51.4891 106.005 51.8859C105.322 52.0029 104.023 52.0823 102.791 52.0823C99.9971 52.0823 97.0855 52.3056 95.2303 52.6622C94.3859 52.8245 93.6287 52.9299 93.5473 52.8964C93.2246 52.7637 93.4327 52.5721 94.1015 52.386C95.6594 51.9527 98.1084 51.6966 101.381 51.6249C104.911 51.5477 106.146 51.4227 107.343 51.0218C108.278 50.7086 108.579 50.4624 108.588 50.0049C108.6 49.2715 106.411 49.0377 104.674 49.5868C104.025 49.7918 103.593 49.7644 103.593 49.5183Z" fill="#FDF7D8"/>
<path d="M116.411 15.4414C116.113 15.6483 115.611 16.324 115.238 17.0183C114.129 19.0832 112.588 20.5897 109.619 22.5091C107.336 23.985 106.484 24.4607 102.631 26.4124C95.9542 29.7946 93.3369 31.6349 91.2795 34.3946C90.148 35.9121 89.6681 37.1365 88.688 41.0062C87.4269 45.9853 86.6552 47.7009 84.5124 50.2897C83.3744 51.6645 82.5827 52.8506 82.803 52.8506C82.8962 52.8506 83.8448 52.2424 84.9111 51.4989C87.3072 49.828 87.98 48.98 88.6638 46.7684C88.9252 45.9232 89.4172 44.7205 89.7572 44.0957C90.3504 43.0054 90.4636 42.8985 92.5701 41.44C95.2836 39.5615 95.6255 39.1144 96.1271 36.7908C96.6522 34.3575 97.0682 33.6115 98.383 32.7459C98.9741 32.3567 99.9946 31.8502 100.651 31.6202C102.875 30.8405 103.665 30.3245 104.349 29.2034C105.546 27.2411 106.271 26.3753 107.135 25.8729C107.992 25.3742 108.328 25.2451 110.517 24.5706C113.499 23.6518 114.585 22.3293 115.317 18.726C115.598 17.3413 115.96 16.4778 116.56 15.7636C116.836 15.4348 117.033 15.1463 116.997 15.1225C116.961 15.0988 116.698 15.2422 116.411 15.4414Z" fill="#FDF7D8"/>
<path fill-rule="evenodd" clip-rule="evenodd" d="M93.7278 18.822C93.4604 19.4029 92.9353 20.7385 92.5607 21.7898C91.198 25.6152 89.862 26.6276 84.5024 27.8975C81.9617 28.4993 80.9771 28.8577 80.1582 29.4787C79.23 30.1826 79.0024 30.5687 78.2925 32.6437C77.9292 33.7057 77.4193 34.8839 77.1595 35.2619C76.5782 36.1071 75.2202 37.0814 72.8 38.3893C69.4097 40.2215 69.3107 40.3532 69.1462 43.247C69.0456 45.0147 68.9318 45.6688 68.6067 46.3449C68.053 47.4967 66.834 48.6636 65.3184 49.4927C61.7898 51.423 61.0226 52.0659 60.767 53.3067C60.6504 53.8737 60.6679 53.9106 61.0084 53.8157C61.2103 53.7595 62.1285 53.5527 63.0488 53.3561C65.4888 52.835 67.878 52.6726 71.8435 52.7583C75.5973 52.8393 77.8532 52.7194 79.777 52.3364C80.9421 52.1045 81.081 52.0399 81.2799 51.6388C81.4005 51.3956 81.9146 50.7765 82.4225 50.263C84.7936 47.8656 85.9832 45.4114 86.7543 41.3263C86.9205 40.446 87.0964 39.6068 87.1453 39.4615C87.2153 39.2527 87.0632 39.1417 86.4217 38.9339C85.9751 38.7891 84.8573 38.2049 83.9379 37.6359C82.3537 36.6555 81.0566 36.0764 80.4449 36.0764C80.2153 36.0764 79.9358 35.8246 79.9358 35.6177C79.9358 35.4887 80.7767 35.582 81.3399 35.7737C82.6 36.2024 84.7761 37.2829 85.3483 37.7638C85.8876 38.2172 86.7793 38.6373 87.202 38.6373C87.348 38.6373 87.8215 37.5535 87.8215 37.2191C87.8215 37.154 87.6052 37.1008 87.3407 37.1008C86.9003 37.1008 86.7804 37.0033 86.908 36.7486C86.9343 36.6958 87.2118 36.6526 87.5244 36.6526C88.0129 36.6526 88.132 36.5806 88.3712 36.1404C89.0575 34.8777 89.9992 33.5741 91.0135 32.4824L92.112 31.3001L91.5536 31.0313C89.5133 30.0496 88.6311 29.5432 88.1279 29.065C87.7159 28.6733 87.6132 28.481 87.7633 28.3811C87.9133 28.2812 88.3701 28.5067 89.3873 29.1826C90.1657 29.6996 91.2014 30.3076 91.6888 30.5335L92.5749 30.9441L93.9868 29.8492C94.7633 29.2471 95.7927 28.53 96.2743 28.256C97.0159 27.8338 97.1165 27.723 96.9321 27.5314C94.3136 24.8094 93.7256 23.9695 93.8226 23.0899C93.8541 22.8025 93.9593 22.5793 94.0563 22.594C94.1532 22.6086 94.3913 23.0366 94.5852 23.5449C94.8439 24.2233 95.3016 24.8548 96.3052 25.9188L97.6727 27.3685L98.3728 26.9912C98.7581 26.7836 99.3218 26.4782 99.6257 26.3124L100.178 26.011L99.4657 24.6092C99.0737 23.8384 98.3242 22.6026 97.7999 21.8631C96.7095 20.3257 94.5548 17.7656 94.3507 17.7656C94.2755 17.7656 93.9951 18.241 93.7278 18.822ZM82.8733 42.2287C82.2083 42.1777 81.9423 42.0977 81.8953 41.9346C81.8442 41.7564 81.9661 41.7105 82.4895 41.7105C83.3928 41.7105 84.3884 41.9443 84.7923 42.2512C85.3379 42.666 85.2402 43.5125 84.5999 43.9192C83.4167 44.6708 81.7157 44.7315 79.0932 44.1157C77.5728 43.7587 77.0833 43.7037 75.416 43.7011C74.2946 43.6994 73.328 43.7606 73.0976 43.8478C72.8527 43.9405 72.5967 43.9539 72.4244 43.8829C71.9468 43.6864 72.6063 43.3929 73.8829 43.2337C75.4292 43.041 77.268 43.1591 78.8336 43.5514C81.4691 44.2118 83.3773 44.2066 84.1685 43.5369C84.8788 42.9358 84.286 42.337 82.8733 42.2287ZM75.3556 48.7742C74.2162 48.8204 73.8463 48.6384 74.5931 48.3988C74.8341 48.3214 75.4058 48.2543 75.8635 48.2496C76.5367 48.2426 76.8031 48.3125 77.2579 48.6152C77.9688 49.0884 78.0007 49.6691 77.351 50.3057C76.5044 51.1353 75.9682 51.2171 72.5477 51.0385C70.1952 50.9157 69.2999 50.9163 68.2815 51.0412C66.2345 51.2923 66.1262 50.8467 68.1647 50.5607C69.4651 50.3783 70.9574 50.3797 73.4149 50.5657C75.175 50.699 75.4333 50.6913 75.9958 50.4897C76.9864 50.1345 77.3558 49.3586 76.7321 48.9434C76.4936 48.7846 76.1476 48.7421 75.3556 48.7742Z" fill="#FDF7D8"/>
<path d="M90.2457 16.4865C89.7645 16.7818 88.7453 17.637 87.981 18.3869C87.2167 19.1367 86.1505 20.0384 85.6118 20.3906C84.5547 21.0817 81.4639 22.3838 78.6856 23.3087C72.7271 25.2922 69.5701 26.8494 66.9775 29.0833C63.5787 32.0119 62.1578 34.6105 60.2215 41.4388C58.6998 46.8054 57.8427 48.8697 56.0686 51.4431C55.1135 52.8286 54.9442 53.4075 55.3458 53.9154C55.5545 54.1795 55.8721 54.3809 56.0863 54.3853C56.1392 54.3863 56.1825 53.8831 56.1825 53.2668C56.1825 51.4084 57.0426 50.5552 60.4737 49.0103C61.1415 48.7097 62.1464 48.1846 62.7073 47.8433C64.2452 46.9075 64.3521 46.5321 64.1625 42.7349C64.0351 40.1906 64.5815 39.5047 68.1857 37.6842C72.0428 35.7359 73.0085 34.6469 73.6603 31.5102C74.1212 29.2926 75.4969 28.097 79.2998 26.6093C86.1578 23.9266 86.4365 23.7251 88.382 20.046C89.5849 17.7711 90.0338 17.1169 90.8175 16.4968C91.5919 15.8841 91.2378 15.8778 90.2457 16.4865Z" fill="#FDF7D8"/>
<path d="M69.1651 13.0537C69.1651 13.6334 68.5885 15.6314 68.1748 16.4851C67.3462 18.1953 66.7882 18.7098 62.898 21.3509C59.237 23.8366 59.215 23.8549 58.0249 25.4138C56.621 27.2525 55.8419 27.836 53.6135 28.7183C51.6917 29.4793 50.6177 30.2128 50.3113 30.974C48.601 35.2237 47.8988 36.1938 45.3144 37.8776C42.7243 39.5653 42.1624 40.3627 41.5754 43.183C41.2054 44.9603 41.0463 45.3272 40.2697 46.1925C39.6683 46.8625 39.1872 47.1453 36.3509 48.497C35.7112 48.8017 35.2415 49.1672 34.8822 49.6393C34.5918 50.021 34.3812 50.3514 34.4141 50.3733C34.4469 50.3953 35.0311 50.2163 35.7117 49.9757C38.0669 49.1431 40.637 48.8335 46.3734 48.6914C51.1241 48.5737 55.8028 48.1552 56.3358 47.8004C56.5814 47.6369 57.3453 45.7072 57.2022 45.612C57.1601 45.5838 56.5672 45.712 55.8848 45.8966C54.7646 46.1996 54.2884 46.2422 50.9895 46.3339C47.3584 46.4349 44.6841 46.6836 43.4067 47.0389C42.7154 47.2312 42.2382 47.1981 42.2382 46.9579C42.2382 46.7543 43.4126 46.4618 45.3767 46.1765C46.519 46.0104 48.3931 45.8885 50.8766 45.8186C54.0345 45.7296 54.8219 45.6671 55.7453 45.432C57.4367 45.0014 58.0595 44.3165 57.2196 43.8111C56.6816 43.4874 54.5403 43.4783 53.6462 43.7959C53.0194 44.0185 52.3583 43.9704 52.4879 43.7115C52.6189 43.45 54.429 43.094 55.728 43.0743C56.7364 43.0591 57.0892 43.1057 57.4069 43.2965C57.7266 43.4883 57.8279 43.5015 57.8997 43.3605C57.9872 43.1884 58.3928 41.0293 58.3938 40.7294C58.3942 40.6476 58.0264 40.5429 57.5769 40.497C57.1274 40.451 55.8565 40.294 54.7527 40.1482C52.4799 39.8478 50.2867 39.8808 48.2968 40.2452C46.8177 40.5161 46.6244 40.5265 46.5261 40.3415C46.4011 40.1062 47.3891 39.8292 49.1457 39.6074C51.2249 39.3448 52.5243 39.3553 54.6438 39.6517C55.5959 39.7849 56.8637 39.9339 57.4611 39.983L58.5474 40.0721L58.6632 39.6748C58.7269 39.4563 58.8296 39.1033 58.8915 38.8902L59.004 38.5028L58.1989 38.5886C57.4781 38.6653 57.4011 38.6489 57.4632 38.4317C57.5129 38.2578 57.7442 38.171 58.2805 38.1251C58.6917 38.0899 59.0975 37.9747 59.1821 37.8691C59.4183 37.5742 60.542 34.794 60.4739 34.6729C60.3681 34.4844 57.2126 32.7651 55.4676 31.9452C53.8237 31.1727 53.4104 30.8264 54.132 30.8264C54.4876 30.8264 58.1008 32.5414 59.356 33.3058C60.9503 34.2769 60.8368 34.2573 61.2149 33.6267C62.2362 31.9242 65.1897 28.4919 65.8769 28.209C66.296 28.0367 66.0631 27.7258 64.645 26.5652C63.2937 25.4591 62.6428 24.7544 62.342 24.0719C62.1266 23.5828 62.9121 23.6982 63.2141 24.2C63.5426 24.7462 64.3771 25.5702 65.6642 26.6193L66.708 27.4701L67.923 26.6451C69.0439 25.8839 69.1295 25.786 69.0301 25.3782C68.9479 25.0413 68.9901 24.9363 69.2066 24.9363C69.363 24.9363 69.5696 25.0536 69.6655 25.1968C69.8352 25.4499 69.8642 25.4458 70.6566 25.0578C71.1057 24.8379 71.4731 24.6092 71.4731 24.5496C71.4731 24.49 70.9971 24.0484 70.4153 23.5683C69.2595 22.6146 68.2569 21.1133 68.0684 20.0538C67.9759 19.5339 68.0093 19.4302 68.2692 19.4302C68.455 19.4302 68.6239 19.5724 68.6875 19.7824C69.1591 21.3384 69.7215 22.1438 71.1961 23.3761L72.2886 24.2889L73.1791 23.9512C73.6688 23.7655 74.1462 23.5694 74.2394 23.5152C74.6116 23.2997 72.6933 18.8764 70.5814 15.0805C69.8969 13.85 69.2982 12.8177 69.2509 12.7862C69.2037 12.7549 69.1651 12.8752 69.1651 13.0537Z" fill="#FDF7D8"/>
<path d="M65.2618 9.69055C65.0005 9.89748 64.5188 10.5594 64.1915 11.1613C63.4158 12.5885 62.869 13.2929 61.7481 14.3083C59.4764 16.3662 57.4525 17.6271 51.6626 20.5911C47.2772 22.8362 47.1926 22.8835 44.8674 24.4041C41.8062 26.406 39.8039 28.6093 38.7902 31.0912C38.5766 31.6146 38.0923 33.2818 37.7143 34.7959C36.3647 40.2022 35.7629 41.548 33.2729 44.7289C32.3857 45.8624 31.6598 46.8703 31.6598 46.9685C31.6598 47.2384 35.0366 44.954 35.8968 44.1023C36.7244 43.2826 37.0138 42.7236 37.6982 40.6221C37.9505 39.8474 38.4371 38.73 38.7795 38.1391C39.3619 37.1341 39.5355 36.9759 41.4631 35.6961C43.8663 34.1004 44.426 33.4521 44.8488 31.7754C45.9355 27.4648 46.209 27.132 49.7995 25.7532C52.0788 24.8779 52.6672 24.4665 53.3933 23.2392C54.4124 21.5168 55.3066 20.4774 56.1786 20.0017C56.6197 19.7611 57.8046 19.3096 58.8119 18.9983C62.4432 17.8764 63.3239 16.921 64.1809 13.175C64.6058 11.318 65.0755 10.2405 65.71 9.66661C66.2312 9.19513 65.8631 9.21485 65.2618 9.69055Z" fill="#FDF7D8"/>
<path d="M52.1489 9.64573C51.9786 9.91694 51.4239 11.2643 50.9162 12.6397C49.8095 15.6376 49.2971 16.4129 47.7298 17.4598C46.39 18.355 45.8099 18.5731 43.0076 19.2362C38.3931 20.3281 37.3383 21.0418 36.5709 23.5918C35.55 26.9839 34.9489 27.6605 31.1353 29.7111C27.5864 31.6194 27.4004 31.8492 27.3371 34.4024C27.2867 36.4338 26.9824 37.5579 26.1758 38.6932C25.532 39.599 24.5057 40.3529 22.2285 41.5925C21.1693 42.169 20.0811 42.8881 19.7539 43.2275C19.1958 43.8065 18.5932 45.0905 18.8115 45.2357C18.8684 45.2738 19.381 45.1923 19.9501 45.0549C22.8522 44.3545 25.3224 44.1078 28.9198 44.159C31.7683 44.1995 31.6441 44.2317 32.5096 43.2258L33.0237 42.6285L31.7168 42.526C29.9686 42.3891 26.9703 42.3887 25.8417 42.5254C25.0762 42.618 24.9281 42.604 24.9281 42.4392C24.9281 41.9622 27.9491 41.7696 31.6839 42.0087L33.3426 42.115L33.5793 41.6886C33.7093 41.4541 33.9359 41.0101 34.0825 40.7017L34.3489 40.1413L33.4033 40.2247C32.8833 40.2707 32.409 40.2557 32.3493 40.1916C32.1635 39.9913 32.7773 39.7611 33.6772 39.6935C34.4764 39.6335 34.5548 39.5944 34.7345 39.165C35.0576 38.3929 35.7756 35.3166 35.6519 35.2342C35.3719 35.0478 32.4969 35.0378 31.6181 35.2203C30.8678 35.376 30.6743 35.3793 30.4997 35.2392C30.3406 35.1114 30.3745 35.0397 30.6376 34.9473C31.3679 34.6907 33.3202 34.5106 34.5485 34.5866L35.8054 34.6644L36.1283 33.4049C36.5038 31.9399 37.3841 30.036 38.3142 28.6772C38.6741 28.1514 38.9685 27.6776 38.9685 27.6242C38.9685 27.5708 38.7954 27.497 38.5839 27.4601C38.3723 27.4233 38.1992 27.2949 38.1992 27.1748C38.1992 26.9973 38.3175 26.9713 38.8329 27.0357C39.4534 27.1132 39.4925 27.0899 40.6922 25.9295C41.4268 25.2192 42.9722 24.0393 44.5486 22.9855C47.0818 21.2918 47.1658 21.2185 46.8183 21.009C46.2724 20.6803 45.6574 19.9641 45.7943 19.8167C46.0215 19.5718 46.373 19.6958 46.9058 20.2082C47.1985 20.4899 47.5632 20.7524 47.7163 20.7915C47.88 20.8334 48.572 20.5504 49.3958 20.105C50.1665 19.6885 51.468 19.0134 52.2877 18.6051C53.1074 18.1967 53.7783 17.8129 53.7783 17.752C53.7783 17.6912 53.5133 17.3546 53.1894 17.0041C52.4514 16.2056 51.855 15.0915 51.855 14.5112C51.855 13.627 52.4995 13.8632 52.6814 14.8141C52.8009 15.4394 54.0872 17.2421 54.4867 17.3441C54.6244 17.3793 55.3487 17.0996 56.0961 16.7225C57.7133 15.9066 57.7067 16.0162 56.2671 13.8139C55.4126 12.5068 53.0649 9.5803 52.6185 9.26556C52.5299 9.2032 52.32 9.37286 52.1489 9.64573Z" fill="#FDF7D8"/>
<path d="M48.8559 7.63616C48.156 7.92042 47.298 8.60804 45.8828 10.0187C43.8296 12.0654 42.395 12.7963 36.0989 15.0031C32.078 16.4124 30.6433 17.0063 28.5677 18.1207C25.9548 19.5237 23.8935 21.3059 22.2402 23.5918C20.5979 25.8628 19.816 27.7237 18.3672 32.8112C16.8039 38.3006 15.8684 40.5513 14.1893 42.8629C13.1807 44.2513 13.0187 45.068 13.6583 45.5385C13.8598 45.6867 14.0833 45.808 14.1551 45.808C14.2268 45.808 14.2864 45.3039 14.2876 44.6876C14.2893 43.7395 14.3655 43.4679 14.7826 42.9224C15.3848 42.1352 16.4585 41.4316 18.4849 40.4957C22.2352 38.7637 22.5053 38.3793 22.3126 35.0492C22.1179 31.6878 22.5164 31.04 25.8017 29.3793C28.6332 27.9479 29.0804 27.6724 29.9055 26.8498C30.8466 25.9115 31.3934 24.8044 31.7523 23.1111C32.3013 20.5204 33.6982 19.406 38.7762 17.5071C43.9165 15.585 44.6893 14.9877 46.4677 11.5641C47.5496 9.48145 48.2822 8.42147 49.0715 7.79699C49.6662 7.32654 49.6495 7.31412 48.8559 7.63616Z" fill="#FDF7D8"/>
<path d="M117.377 15.6932C116.926 16.0249 116.732 16.4888 116.376 18.0857C115.365 22.623 113.753 24.2819 108.906 25.7738C107.005 26.3589 106.427 26.8405 105.612 28.5216C104.772 30.255 103.941 30.9058 101.243 31.9426C98.2024 33.1116 97.4991 33.8668 96.9572 36.5454C96.4135 39.234 96.066 39.6903 92.742 42.0809C90.3861 43.7754 89.8207 44.62 89.2592 47.2828C88.8678 49.1391 88.462 49.6163 85.5937 51.5911C82.7956 53.5177 82.1671 54.2061 82.1633 55.3475C82.16 56.3256 82.541 56.8698 83.2674 56.9255C84.1064 56.9896 84.6867 56.6584 84.8452 56.0248C85.1316 54.8802 85.7163 54.3938 87.9339 53.4559C90.6841 52.2926 91.6757 50.9638 92.3187 47.5807C92.4816 46.7238 92.7413 45.9917 93.0169 45.6127C93.2742 45.2588 94.4242 44.3372 95.7961 43.3852C97.1602 42.4388 98.3184 41.5111 98.5727 41.1613C98.8127 40.8312 99.3103 39.7393 99.6786 38.7349C100.611 36.1915 101.138 35.5798 103.192 34.6572C106.034 33.3805 107.081 32.661 108.195 31.2169C109.487 29.5423 111.108 28.1305 112.83 27.1799C115.588 25.6572 117.311 24.1937 118.339 22.4999C118.879 21.6087 119.557 19.1265 119.557 18.0364C119.557 17.1425 119.13 16.1288 118.592 15.7445C118.11 15.3999 117.794 15.3866 117.377 15.6932Z" fill="#E9E5D1"/>
<path d="M91.3995 16.6713C90.7508 17.2375 90.3188 17.9084 89.1277 20.1985C87.9946 22.3772 87.8431 22.5894 86.7274 23.5572C85.6462 24.4951 84.2066 25.2726 81.8819 26.1744C79.4019 27.1362 77.0439 28.1812 76.5332 28.5448C75.841 29.0376 74.7449 30.3378 74.4477 31.0185C74.2941 31.3706 74.0373 32.2811 73.8775 33.0418C73.7174 33.8024 73.4163 34.647 73.2081 34.9188C72.6142 35.6938 71.4187 36.5362 69.2964 37.6751C67.0117 38.901 65.8965 39.6754 65.3055 40.4468C64.8399 41.0544 64.7899 41.6319 64.9349 44.7196C65.0049 46.2099 64.9703 46.4472 64.6041 46.9855C64.0474 47.8041 62.8455 48.5697 60.5177 49.5883C57.676 50.8318 56.8557 51.7398 56.8557 53.6422C56.8557 54.5143 56.8562 54.5152 57.3977 54.5152C57.696 54.5152 58.3763 54.4289 58.9094 54.3235L59.8792 54.1318L59.9869 53.4368C60.1113 52.6341 60.671 51.7201 61.383 51.1568C61.6558 50.9409 62.6869 50.3137 63.6743 49.763C67.6762 47.531 68.4515 46.4281 68.4804 42.9269C68.4946 41.1778 68.5502 40.8126 68.8597 40.43C69.5463 39.581 70.2248 39.1059 72.3513 37.9849C76.1089 36.0042 76.6634 35.4114 77.6365 32.3354C78.5966 29.3002 79.3892 28.7026 84.0624 27.4895C87.2286 26.6677 87.8881 26.4333 89.0221 25.7272C90.5769 24.7589 91.1543 23.8505 92.1697 20.7747C92.5416 19.6479 93.0921 18.3709 93.3931 17.9369C93.9022 17.2026 93.9195 17.1273 93.6416 16.8485C92.8853 16.0902 92.1335 16.0307 91.3995 16.6713Z" fill="#E9E5D1"/>
<path d="M66.1447 9.70771C65.6609 10.1136 65.4773 10.5664 64.9487 12.6533C64.3517 15.0112 63.7697 16.252 62.8369 17.1544C61.8489 18.1107 60.2523 18.9643 58.0476 19.715C55.5826 20.5545 55.2774 20.7939 54.2718 22.6787C53.3502 24.4061 52.8472 24.847 50.8856 25.6474C46.5946 27.3984 46.2517 27.7429 45.5902 30.9684C45.4142 31.826 45.1488 32.757 45.0003 33.0373C44.6568 33.6854 43.5444 34.6658 41.5075 36.1153C39.1697 37.779 38.595 38.6501 37.9145 41.5613C37.4972 43.3464 37.0698 43.8335 34.2079 45.7848C31.4769 47.6471 30.8907 48.287 30.8907 49.4057C30.8907 50.4224 31.2907 51.0412 31.9483 51.0412C32.2234 51.0412 32.6913 50.9575 32.9881 50.8554C33.441 50.6994 33.5462 50.5646 33.6441 50.0142C33.8155 49.0503 34.3889 48.5415 36.1624 47.7795C39.353 46.4084 40.3485 45.1921 40.9865 41.8858C41.3868 39.8118 41.7447 39.357 44.4208 37.52C45.6006 36.7101 46.8068 35.7687 47.1012 35.4277C47.4038 35.0774 47.9286 34.0361 48.3081 33.0328C49.435 30.0546 49.7249 29.7229 52.1664 28.6192C54.6842 27.4809 55.9338 26.6045 56.983 25.2406C58.3276 23.4927 59.2647 22.7025 62.1147 20.9135C64.8928 19.1698 66.3051 17.9465 67.054 16.6353C67.6472 15.597 68.28 13.2606 68.2815 12.104C68.2825 11.2836 68.1944 11.0155 67.7141 10.3753C67.1334 9.60143 66.5613 9.35801 66.1447 9.70771Z" fill="#E9E5D1"/>
<path d="M49.5056 7.85153C48.8726 8.29163 48.2293 9.24392 47.1008 11.4105C45.7914 13.9246 45.44 14.348 43.6946 15.5145C42.2098 16.5069 41.3177 16.9219 37.6466 18.3276C35.79 19.0384 34.0136 20.081 33.3241 20.8643C32.6036 21.683 32.1068 22.7977 31.8597 24.1512C31.7375 24.8202 31.5056 25.5981 31.3444 25.8798C30.8314 26.7766 29.5832 27.7137 27.2623 28.9444C24.6369 30.3367 23.8895 30.8673 23.2554 31.7894C22.8082 32.4397 22.7957 32.5433 22.8513 35.1245C22.8997 37.3652 22.8594 37.8594 22.5976 38.2364C22.0666 39.0011 20.7452 39.8643 18.8073 40.7126C15.7034 42.0712 14.8538 42.9374 14.8388 44.759C14.8309 45.699 14.8448 45.7282 15.3116 45.761C15.576 45.7796 16.2205 45.7219 16.7437 45.633L17.6948 45.4711L17.926 44.6341C18.3664 43.0397 18.895 42.5278 21.6959 40.9833C25.6003 38.8304 26.3091 37.8306 26.367 34.395C26.4008 32.3969 26.4297 32.2475 26.9001 31.642C27.4181 30.9754 28.7167 30.078 30.48 29.1684C33.9355 27.3858 34.5441 26.7157 35.5967 23.5353C36.5946 20.5198 37.38 19.9492 42.2226 18.722C47.7346 17.3252 48.6609 16.5366 50.1338 11.9867C50.4642 10.9655 50.9783 9.74125 51.276 9.26594L51.8175 8.402L51.3974 7.98547C50.8379 7.43089 50.1776 7.38416 49.5056 7.85153Z" fill="#E9E5D1"/>
<path d="M127.32 28.9087C130.008 37.7717 127.213 45.1519 119.179 50.4075C113.631 54.0365 108.271 55.2964 96.8001 55.6683C90.7879 55.8632 88.8713 56.1506 86.5768 57.2018C85.2489 57.81 84.1647 58.0947 83.1642 58.0977C81.2008 58.1039 80.2168 56.8993 80.3522 54.6552L80.4278 53.4034L79.2682 53.6659C78.199 53.9079 77.6136 53.9297 71.7616 53.946L65.4146 53.9637L63.5874 54.4223C62.5824 54.6744 61.1543 55.0385 60.4139 55.2315C58.5728 55.7112 56.2008 55.7454 54.9729 55.3098C54.5192 55.1488 53.9785 54.8321 53.7716 54.6061C53.0038 53.7678 53.4313 52.1538 54.9564 50.1333C55.5093 49.4005 55.6493 49.0645 55.3503 49.1876C54.8987 49.3733 49.3323 49.7862 45.7003 49.9032C39.6965 50.0967 37.9321 50.355 35.5767 51.3848C33.8294 52.1489 32.8358 52.3878 31.7462 52.306C29.9463 52.1709 29.2404 51.2445 29.2837 49.0732C29.3099 47.7521 29.4451 47.2714 30.2423 45.6645C30.3323 45.483 30.0588 45.4493 28.0695 45.3973C24.4982 45.3037 23.3135 45.4317 20.0236 46.2662C16.4827 47.1643 15.0246 47.2889 13.423 46.8302C12.2331 46.4893 11.6412 45.9942 11.5122 45.2311C11.3712 44.3984 11.7655 43.5083 13.2134 41.3904C14.7869 39.0888 15.4308 37.4465 16.2505 33.6435C16.5617 32.1998 16.7908 31.0014 16.7598 30.9804C16.6181 30.8846 13.4632 32.6935 11.4478 34.0263C9.19552 35.5158 6.50649 37.6583 5.60732 38.6798C3.50338 41.0699 5.98699 44.2424 12.7149 47.7591C17.4376 50.2277 21.5892 51.6429 32.4292 54.479C34.7035 55.074 37.9669 55.9322 39.6813 56.386C47.393 58.4276 50.2115 58.8285 60.8947 59.4038C65.4744 59.6504 77.658 59.6132 82.2438 59.3384C92.0393 58.7517 100.383 57.6306 108.612 55.7956C112.749 54.8729 117.849 53.4784 119.957 52.693C126.663 50.195 132.408 45.4956 136.398 39.2444L137.201 37.9862L136.948 37.1914C136.203 34.8574 134.609 32.921 131.881 31.0364C130.514 30.0927 129.047 29.2653 127.746 28.7053L127.185 28.4636L127.32 28.9087Z" fill="#BA5D2A"/>
<path fill-rule="evenodd" clip-rule="evenodd" d="M138.806 39.3096C136.61 43.0929 133.248 46.7389 129.601 49.2901C125.977 51.8257 122.161 53.6658 117.159 55.2897C109.842 57.6653 102.115 58.9829 87.854 60.2867C83.505 60.6843 79.7531 60.8928 73.8773 61.0634C59.3031 61.4866 46.857 60.2169 36.7567 57.2766C35.3815 56.8763 32.7417 56.1572 30.8905 55.6787C14.4288 51.4233 7.50105 48.0966 3.13563 42.3507L2.21146 41.1343L2.32744 42.3398C2.98253 49.1439 9.58 54.815 21.5944 58.9017C34.6589 63.3455 52.2173 65.61 71.6654 65.359C89.8137 65.125 105.717 62.8191 118.198 58.6121C125.066 56.2969 130.631 53.3244 134.03 50.1553C137.205 47.195 138.792 44.1829 139.105 40.526C139.23 39.0607 139.147 38.7218 138.806 39.3096ZM25.0724 56.9136C22.0498 55.9354 21.0814 55.5653 21.0814 55.3888C21.0814 55.2605 21.2016 55.1555 21.3486 55.1555C21.4955 55.1555 23.0319 55.6049 24.7625 56.1544C26.4933 56.7037 28.5761 57.3467 29.3912 57.5835C30.857 58.009 31.3367 58.2998 30.7989 58.4372C30.3381 58.5549 29.2472 58.2647 25.0724 56.9136ZM28.6057 56.6252C27.2205 56.2633 26.3264 55.7944 26.5541 55.5491C26.753 55.335 26.9567 55.3745 28.6015 55.9459C30.2565 56.521 30.4656 56.642 30.1583 56.8466C30.0217 56.9375 29.537 56.8683 28.6057 56.6252ZM24.0626 59.0007C19.9868 57.6803 17.4271 56.5317 17.4271 56.0232C17.4271 55.7591 18.3949 55.9761 19.2056 56.4222C21.1395 57.486 25.3589 58.9267 28.7748 59.6892C30.3329 60.037 30.7943 60.1923 30.7943 60.3688C30.7943 60.9017 28.4761 60.4306 24.0626 59.0007ZM101.643 59.8328C102.24 59.7913 103.074 59.7084 103.497 59.6486C104.75 59.4714 104.939 59.4864 104.939 59.7627C104.939 59.9347 104.769 60.0421 104.41 60.0962C104.119 60.1401 103.393 60.2565 102.796 60.3547C101.524 60.5641 100.536 60.5812 100.131 60.401C99.6618 60.1921 100.386 59.9201 101.643 59.8328ZM96.4766 61.8365C98.0853 61.6974 103.839 60.8541 105.709 60.4833C106.925 60.242 108.049 60.0544 108.207 60.0665C108.735 60.1067 108.656 60.524 108.094 60.6662C106.364 61.1043 98.5384 62.2699 96.7651 62.3538C96.1058 62.3849 95.9958 62.3535 95.9958 62.134C95.9958 61.9573 96.1448 61.865 96.4766 61.8365Z" fill="#522811"/>
<path fill-rule="evenodd" clip-rule="evenodd" d="M16.7458 25.8025C13.604 27.2033 11.8172 28.1773 9.73175 29.6257C6.88597 31.6023 4.93261 33.7347 3.67802 36.2341C3.0512 37.4832 3.01388 37.6346 3.26873 37.8988C3.42279 38.0584 3.60877 38.4628 3.68205 38.7974C3.75514 39.132 3.87439 39.4056 3.94709 39.4056C4.01979 39.4056 4.27695 39.132 4.51852 38.7974C6.49841 36.0551 11.3435 32.6492 16.1357 30.6308L17.0039 30.2651L17.6225 28.6665C17.9627 27.7872 18.5336 26.5451 18.8909 25.906C19.2485 25.267 19.5412 24.7297 19.5418 24.7122C19.5454 24.5875 18.9486 24.8203 16.7458 25.8025ZM7.61876 32.395C7.62222 31.9279 11.2058 29.4091 13.39 28.3387C14.0468 28.0167 14.7048 27.7533 14.8517 27.7533C15.4081 27.7533 15.0731 28.2184 14.2058 28.6496C13.7102 28.8961 12.1436 29.8614 10.7246 30.7944C8.44503 32.2936 7.61626 32.7206 7.61876 32.395ZM9.92601 32.2037C9.92601 32.0182 12.4931 30.2985 13.0995 30.0779C14.1937 29.6797 13.9804 30.3126 12.7722 31.049C12.2217 31.3843 11.4731 31.8489 11.1085 32.0813C10.4661 32.4905 9.92601 32.5465 9.92601 32.2037Z" fill="#713616"/>
<path fill-rule="evenodd" clip-rule="evenodd" d="M125.399 24.263C125.465 24.4572 125.844 25.3168 126.241 26.1732L126.962 27.7304L128.019 28.2092C132.101 30.0568 135.427 32.6833 136.842 35.1766C137.143 35.7067 137.455 36.2557 137.536 36.3965C137.649 36.5949 137.734 36.4892 137.91 35.9282C138.034 35.5298 138.241 35.12 138.369 35.0176C138.553 34.8697 138.486 34.531 138.042 33.3731C137.037 30.7481 135.363 28.5777 133.236 27.1392C131.765 26.1446 130.885 25.7558 127.833 24.7511C125.289 23.9134 125.279 23.9114 125.399 24.263ZM130.05 27.1763C129.409 26.8827 128.981 26.5923 128.981 26.4516C128.981 26.1389 129.458 26.1546 130.202 26.4919C131.232 26.9593 133.79 28.6954 133.79 28.9272C133.79 29.4309 133.309 29.2981 132.234 28.4971C131.62 28.0403 130.638 27.4459 130.05 27.1763ZM129.606 28.5414C129.262 28.3801 128.981 28.1367 128.981 28.0007C128.981 27.8646 129.108 27.7533 129.263 27.7533C129.659 27.7533 131.578 28.8192 131.578 29.0398C131.578 29.3137 131.04 29.3285 130.61 29.0662C130.402 28.9389 129.95 28.7028 129.606 28.5414Z" fill="#713616"/>
<path d="M73.0252 16.037C73.0327 16.1074 73.487 17.0293 74.035 18.0857L75.0313 20.0064L77.0508 20.0838C78.1615 20.1263 79.093 20.1496 79.1209 20.1355C79.1488 20.1214 78.9647 19.7985 78.7122 19.4179C78.4597 19.0374 77.9761 18.1504 77.6378 17.4468C77.2995 16.7433 76.9866 16.1436 76.9425 16.1142C76.754 15.9888 73.0124 15.9149 73.0252 16.037Z" fill="#713616"/>
<path d="M75.3231 20.6787C75.3302 20.8862 76.0666 22.6591 76.1759 22.7319C76.2968 22.8123 77.8942 22.3288 79.3113 21.7828C80.1187 21.4718 80.1257 21.4631 79.8495 21.1075C79.6225 20.8152 79.3994 20.7317 78.6679 20.665C77.4351 20.5524 75.319 20.5611 75.3231 20.6787Z" fill="#BA5D2A"/>
<path d="M95.5149 16.4101C95.5149 16.5339 97.003 18.4799 97.9385 19.5793C98.9177 20.7303 100.221 22.6591 100.995 24.104C101.297 24.6674 101.568 25.1492 101.596 25.1747C101.723 25.2867 108.203 21.9757 109.304 21.2365C109.975 20.7861 110.913 20.0021 111.389 19.4941C112.224 18.6021 113.697 16.5109 113.556 16.4173C113.519 16.392 112.971 16.427 112.339 16.4949C110.36 16.7076 101.564 16.7909 98.8467 16.6228C97.4902 16.5389 96.1858 16.4385 95.9477 16.3997C95.7096 16.3611 95.5149 16.3657 95.5149 16.4101Z" fill="#475E2A"/>
<path d="M130.309 12.3687C128.606 13.2556 124.25 14.6692 121.743 15.1483C121.122 15.267 120.584 15.382 120.547 15.404C120.51 15.4261 120.895 16.1509 121.402 17.0147C122.314 18.5681 122.328 18.5813 122.57 18.2076C122.704 17.9997 122.871 17.6146 122.941 17.3519C123.079 16.8296 123.452 16.539 123.802 16.6828C124.118 16.8131 123.93 17.5498 123.322 18.5622C122.856 19.3371 122.829 19.4697 123.039 19.9372C123.167 20.2218 123.329 20.4546 123.4 20.4546C123.805 20.4546 125.761 17.6528 126.774 15.6208C126.866 15.4359 127.369 15.4061 127.527 15.5761C127.826 15.8984 125.879 19.0517 124.485 20.5026L123.77 21.2467L124.094 21.8119C124.491 22.5045 124.567 22.4724 125.86 21.0601C127.695 19.0544 128.906 17.2697 129.865 15.1557C130.373 14.0356 130.959 12.2532 130.844 12.177C130.804 12.15 130.563 12.2363 130.309 12.3687Z" fill="#475E2A"/>
<path d="M77.4355 11.8236C77.4355 11.9288 77.7774 12.9199 78.1952 14.026C79.018 16.2039 80.1622 18.5217 81.1137 19.9383C81.6551 20.7446 81.7501 20.8181 82.0929 20.696C82.5258 20.5417 82.5306 20.5569 81.5828 19.0314C81.2058 18.4247 80.8115 17.6265 80.7063 17.2576C80.369 16.0735 80.9396 15.5083 81.4122 16.5585C81.5368 16.8351 81.8234 17.4798 82.0492 17.9912C82.5268 19.0727 83.1601 20.0705 83.3692 20.0705C83.4492 20.0705 83.7989 19.8753 84.1462 19.6368L84.7777 19.2029L84.2801 18.2846C83.6881 17.1921 83.6235 16.574 84.1074 16.6361C84.3239 16.6638 84.5936 17.0087 84.9159 17.6698C85.1818 18.2154 85.4531 18.6619 85.5191 18.6619C85.5849 18.6619 86.0457 18.2343 86.5431 17.7116C87.0405 17.1889 87.8275 16.4796 88.2924 16.1354L89.1373 15.5098L86.8928 15.0183C84.1431 14.4164 80.6952 13.2674 78.8299 12.3317C77.9327 11.8814 77.4355 11.7003 77.4355 11.8236Z" fill="#475E2A"/>
<path d="M100.419 1.37976C88.9769 1.79361 82.2575 3.11672 78.601 5.67588C77.5891 6.38398 77.2535 6.71895 77.0704 7.20284C76.8585 7.76305 76.9337 8.80229 77.186 8.80229C77.242 8.80229 77.8725 8.54337 78.5874 8.22697C85.988 4.95152 95.4107 3.77668 107.229 4.65611C117.701 5.43541 125.65 7.17839 130.026 9.65495C130.441 9.8903 130.843 10.0828 130.918 10.0828C131.165 10.0828 131.674 9.06414 131.672 8.57564C131.669 7.88559 130.871 6.84687 129.823 6.16835C126.618 4.09501 119.838 2.26021 112.825 1.5685C110.183 1.30792 104.708 1.22469 100.419 1.37976Z" fill="#536C32"/>
<path fill-rule="evenodd" clip-rule="evenodd" d="M97.2459 4.91054C89.9968 5.23809 84.1031 6.41945 79.4625 8.47512C77.2274 9.46519 77.2643 9.40731 78.3194 10.2696L79.2125 10.9993L79.7573 10.3641C80.5182 9.47735 81.8267 8.76925 84.071 8.03003C89.3716 6.2841 96.031 6.05119 97.9199 7.54576C99.0004 8.4006 98.318 8.911 95.5513 9.31716C88.6938 10.324 86.6497 10.8463 84.8332 12.0555C84.2553 12.4402 83.7825 12.8122 83.7825 12.882C83.7825 13.0431 87.2424 13.9293 89.2641 14.286C94.4802 15.2064 98.94 15.5103 105.805 15.4131C108.661 15.3727 111.785 15.2651 112.747 15.1742C114.373 15.0205 114.544 14.9756 115.162 14.5393C115.528 14.2811 116.059 14.0308 116.344 13.9833C116.988 13.8758 118.117 13.9649 118.912 14.186C119.461 14.3389 119.717 14.3115 121.701 13.8881C124.271 13.339 127.035 12.4703 128.451 11.7661C129.67 11.1602 130.327 10.7518 130.327 10.6019C130.327 10.4696 128.849 9.64317 127.635 9.09731C123.643 7.30208 116.179 5.86667 107.151 5.15844C104.747 4.9697 99.076 4.82782 97.2459 4.91054ZM101.992 6.91666C102.209 6.61152 102.568 6.38808 103.098 6.22789C104.054 5.93876 105.405 5.92263 108.059 6.16848C109.146 6.26912 111.057 6.44378 112.305 6.55646C113.552 6.66914 115.057 6.8817 115.648 7.02896C117.742 7.55062 118.959 8.67616 118.401 9.5739C117.737 10.6407 116.057 10.6394 110.517 9.56788C109.829 9.43484 108.154 9.26262 106.793 9.18515C103.836 9.01664 102.382 8.70804 101.955 8.15846C101.589 7.68738 101.596 7.47213 101.992 6.91666Z" fill="#2A1501"/>
<path d="M103.647 6.64866C102.576 6.89015 102.385 7.78226 103.297 8.28613C103.478 8.38575 104.745 8.52237 106.433 8.6243C108.682 8.76003 109.799 8.90178 111.848 9.31102C116.568 10.254 118.873 9.87686 117.386 8.40508C116.636 7.66228 115.493 7.41476 110.261 6.8625C107.248 6.54455 104.503 6.45582 103.647 6.64866Z" fill="#422100"/>
<path d="M90.9951 7.15009C88.1631 7.41809 85.566 7.98304 83.53 8.77386C82.3121 9.24687 80.5844 10.3298 80.1316 10.9038C79.8541 11.2557 79.8658 11.2758 80.5782 11.674C80.9806 11.8989 81.6726 12.2149 82.1163 12.3762L82.9228 12.6694L84.3032 11.7667C86.5914 10.2703 89.3006 9.52473 94.6402 8.92214C97.0221 8.65337 97.8101 8.40201 97.571 7.98739C97.405 7.69916 96.4226 7.39991 94.9695 7.19491C93.557 6.99566 92.7261 6.98619 90.9951 7.15009Z" fill="#422100"/>
</svg>
